<svg width="20" height="20" viewBox="0 0 20 20" fill="none" xmlns="http://www.w3.org/2000/svg">
<path d="M11.6654 5.83337V5.83337C11.6654 5.36872 11.6654 5.13639 11.6269 4.94319C11.4691 4.14981 10.8489 3.52962 10.0555 3.3718C9.86235 3.33337 9.63002 3.33337 9.16536 3.33337H7.33203C5.44641 3.33337 4.5036 3.33337 3.91782 3.91916C3.33203 4.50495 3.33203 5.44776 3.33203 7.33338V9.16671C3.33203 9.63136 3.33203 9.86369 3.37046 10.0569C3.52827 10.8503 4.14847 11.4705 4.94185 11.6283C5.13505 11.6667 5.36738 11.6667 5.83203 11.6667V11.6667" stroke="#8566FF"/>
<rect x="8.33203" y="8.33337" width="8.33333" height="8.33333" rx="2" stroke="#8566FF"/>
</svg>
