<svg width="30" height="28" viewBox="0 0 30 28" fill="none" xmlns="http://www.w3.org/2000/svg">
<path d="M30 4.62622V19.6262H28.125V11.2913L18.75 15.9934V17.7512H11.25V15.9934L1.875 11.2913V21.5012H18.75V23.3762H0V4.62622H9.375V2.75122C9.375 2.48755 9.42383 2.24341 9.52148 2.0188C9.61914 1.79419 9.75098 1.59888 9.91699 1.43286C10.083 1.26685 10.2832 1.13013 10.5176 1.02271C10.752 0.915283 10.9961 0.866455 11.25 0.876221H18.75C19.0137 0.876221 19.2578 0.925049 19.4824 1.02271C19.707 1.12036 19.9023 1.2522 20.0684 1.41821C20.2344 1.58423 20.3711 1.78442 20.4785 2.0188C20.5859 2.25317 20.6348 2.49731 20.625 2.75122V4.62622H30ZM11.25 4.62622H18.75V2.75122H11.25V4.62622ZM16.875 14.0012H13.125V15.8762H16.875V14.0012ZM28.125 9.21118V6.50122H1.875V9.21118L11.25 13.884V12.1262H18.75V13.884L28.125 9.21118ZM26.25 21.5012H30V23.3762H26.25V27.1262H24.375V23.3762H20.625V21.5012H24.375V17.7512H26.25V21.5012Z" fill="black"/>
</svg>
