<svg width="28" height="28" viewBox="0 0 28 28" fill="none" xmlns="http://www.w3.org/2000/svg">
<path fill-rule="evenodd" clip-rule="evenodd" d="M23.125 7.83203C23.125 7.21872 23.3686 6.63052 23.8023 6.19685C24.236 5.76317 24.8242 5.51953 25.4375 5.51953C26.0508 5.51953 26.639 5.76317 27.0727 6.19685C27.5064 6.63052 27.75 7.21872 27.75 7.83203V23.4823L25.4375 26.951L23.125 23.4823V7.83203ZM25.4375 7.0612C25.2331 7.0612 25.037 7.14241 24.8924 7.28697C24.7479 7.43153 24.6667 7.62759 24.6667 7.83203V23.0151L25.4375 24.1714L26.2083 23.0151V7.83203C26.2083 7.62759 26.1271 7.43153 25.9826 7.28697C25.838 7.14241 25.6419 7.0612 25.4375 7.0612Z" fill="black"/>
<path fill-rule="evenodd" clip-rule="evenodd" d="M26.9792 10.9167H23.8958V9.375H26.9792V10.9167ZM3.08333 1.66667C2.67446 1.66667 2.28233 1.82909 1.99321 2.11821C1.70409 2.40733 1.54167 2.79946 1.54167 3.20833V24.7917C1.54167 25.2005 1.70409 25.5927 1.99321 25.8818C2.28233 26.1709 2.67446 26.3333 3.08333 26.3333H18.5C18.9089 26.3333 19.301 26.1709 19.5901 25.8818C19.8792 25.5927 20.0417 25.2005 20.0417 24.7917V3.20833C20.0417 2.79946 19.8792 2.40733 19.5901 2.11821C19.301 1.82909 18.9089 1.66667 18.5 1.66667H3.08333ZM0 3.20833C0 2.39058 0.32485 1.60632 0.903087 1.02809C1.48132 0.44985 2.26558 0.125 3.08333 0.125H18.5C19.3178 0.125 20.102 0.44985 20.6802 1.02809C21.2585 1.60632 21.5833 2.39058 21.5833 3.20833V24.7917C21.5833 25.6094 21.2585 26.3937 20.6802 26.9719C20.102 27.5501 19.3178 27.875 18.5 27.875H3.08333C2.26558 27.875 1.48132 27.5501 0.903087 26.9719C0.32485 26.3937 0 25.6094 0 24.7917V3.20833Z" fill="black"/>
<path fill-rule="evenodd" clip-rule="evenodd" d="M10.7918 7.0638C10.7918 6.85936 10.873 6.6633 11.0176 6.51874C11.1621 6.37418 11.3582 6.29297 11.5626 6.29297H17.7293C17.9337 6.29297 18.1298 6.37418 18.2743 6.51874C18.4189 6.6633 18.5001 6.85936 18.5001 7.0638C18.5001 7.26824 18.4189 7.4643 18.2743 7.60886C18.1298 7.75342 17.9337 7.83464 17.7293 7.83464H11.5626C11.3582 7.83464 11.1621 7.75342 11.0176 7.60886C10.873 7.4643 10.7918 7.26824 10.7918 7.0638ZM10.7918 10.1471C10.7918 9.9427 10.873 9.74663 11.0176 9.60207C11.1621 9.45751 11.3582 9.3763 11.5626 9.3763H17.7293C17.9337 9.3763 18.1298 9.45751 18.2743 9.60207C18.4189 9.74663 18.5001 9.9427 18.5001 10.1471C18.5001 10.3516 18.4189 10.5476 18.2743 10.6922C18.1298 10.8368 17.9337 10.918 17.7293 10.918H11.5626C11.3582 10.918 11.1621 10.8368 11.0176 10.6922C10.873 10.5476 10.7918 10.3516 10.7918 10.1471ZM10.7918 17.0846C10.7918 16.8802 10.873 16.6841 11.0176 16.5396C11.1621 16.395 11.3582 16.3138 11.5626 16.3138H17.7293C17.9337 16.3138 18.1298 16.395 18.2743 16.5396C18.4189 16.6841 18.5001 16.8802 18.5001 17.0846C18.5001 17.2891 18.4189 17.4851 18.2743 17.6297C18.1298 17.7743 17.9337 17.8555 17.7293 17.8555H11.5626C11.3582 17.8555 11.1621 17.7743 11.0176 17.6297C10.873 17.4851 10.7918 17.2891 10.7918 17.0846ZM10.7918 20.168C10.7918 19.9635 10.873 19.7675 11.0176 19.6229C11.1621 19.4783 11.3582 19.3971 11.5626 19.3971H17.7293C17.9337 19.3971 18.1298 19.4783 18.2743 19.6229C18.4189 19.7675 18.5001 19.9635 18.5001 20.168C18.5001 20.3724 18.4189 20.5685 18.2743 20.713C18.1298 20.8576 17.9337 20.9388 17.7293 20.9388H11.5626C11.3582 20.9388 11.1621 20.8576 11.0176 20.713C10.873 20.5685 10.7918 20.3724 10.7918 20.168ZM4.62511 17.0846V19.3971H6.93761V17.0846H4.62511ZM3.85428 15.543H7.70845C7.91289 15.543 8.10895 15.6242 8.25351 15.7687C8.39807 15.9133 8.47928 16.1094 8.47928 16.3138V20.168C8.47928 20.3724 8.39807 20.5685 8.25351 20.713C8.10895 20.8576 7.91289 20.9388 7.70845 20.9388H3.85428C3.64984 20.9388 3.45378 20.8576 3.30922 20.713C3.16466 20.5685 3.08345 20.3724 3.08345 20.168V16.3138C3.08345 16.1094 3.16466 15.9133 3.30922 15.7687C3.45378 15.6242 3.64984 15.543 3.85428 15.543ZM9.02426 6.51882C9.16877 6.66338 9.24995 6.8594 9.24995 7.0638C9.24995 7.2682 9.16877 7.46423 9.02426 7.60878L5.39595 11.2371L3.3093 9.15045C3.23568 9.07934 3.17695 8.99428 3.13656 8.90024C3.09616 8.80619 3.07489 8.70504 3.074 8.60269C3.07311 8.50034 3.09262 8.39884 3.13138 8.30411C3.17013 8.20938 3.22737 8.12331 3.29975 8.05094C3.37212 7.97856 3.45819 7.92132 3.55292 7.88256C3.64765 7.84381 3.74916 7.8243 3.85151 7.82519C3.95386 7.82608 4.05501 7.84735 4.14905 7.88775C4.2431 7.92814 4.32815 7.98687 4.39926 8.06049L5.39595 9.05718L7.9343 6.51882C8.07885 6.37431 8.27488 6.29313 8.47928 6.29313C8.68368 6.29313 8.87971 6.37431 9.02426 6.51882Z" fill="black"/>
</svg>
