<svg width="29" height="24" viewBox="0 0 29 24" fill="none" xmlns="http://www.w3.org/2000/svg">
<path d="M26 18C25.3 18 24.6 18.3 24.1 18.7L18.9 15.6C18.9 15.4 19 15.2 19 15C19 14.8 19 14.6 18.9 14.4L24.1 11.3C24.6 11.7 25.3 12 26 12C27.7 12 29 10.7 29 9C29 7.3 27.7 6 26 6C24.3 6 23 7.3 23 9C23 9.2 23 9.4 23.1 9.6L17.9 12.7C17.4 12.3 16.7 12 16 12C14.3 12 13 13.3 13 15C13 16.7 14.3 18 16 18C16.7 18 17.4 17.7 17.9 17.3L23.1 20.4C23.1 20.6 23 20.8 23 21C23 22.7 24.3 24 26 24C27.7 24 29 22.7 29 21C29 19.3 27.7 18 26 18ZM26 8C26.6 8 27 8.4 27 9C27 9.6 26.6 10 26 10C25.4 10 25 9.6 25 9C25 8.4 25.4 8 26 8ZM16 16C15.4 16 15 15.6 15 15C15 14.4 15.4 14 16 14C16.6 14 17 14.4 17 15C17 15.6 16.6 16 16 16ZM26 22C25.4 22 25 21.6 25 21C25 20.4 25.4 20 26 20C26.6 20 27 20.4 27 21C27 21.6 26.6 22 26 22Z" fill="black"/>
<path d="M18 21H7.5C4.5 21 2 18.5 2 15.5C2 12.8 3.9 10.6 6.5 10.1L7.8 9.9L8.1 8.6C8.9 4.7 12.2 2 16 2C16.5 2 17 2 17.5 2.1C19.1 2.4 20.5 3.2 21.7 4.3L23.1 2.9C21.7 1.5 19.9 0.5 17.9 0.2C17.3 0.0999998 16.6 0 16 0C11.3 0 7.1 3.3 6.2 8.1C2.6 8.8 0 11.9 0 15.5C0 19.6 3.3 23 7.5 23H18V21Z" fill="black"/>
</svg>
