<svg width="24" height="28" viewBox="0 0 24 28" fill="none" xmlns="http://www.w3.org/2000/svg">
<path d="M12 0L0 4V16C0 22.6281 5.37187 28 12 28C18.6281 28 24 22.6281 24 16V4L12 0ZM21.75 16C21.75 21.3844 17.3844 25.75 12 25.75C6.61562 25.75 2.25 21.3844 2.25 16V5.6875L12 2.25L21.75 5.6875V16Z" fill="black"/>
<path d="M7.82492 12.8469C7.72065 12.7421 7.59672 12.659 7.46024 12.6023C7.32375 12.5456 7.17741 12.5164 7.02961 12.5164C6.88181 12.5164 6.73547 12.5456 6.59899 12.6023C6.46251 12.659 6.33857 12.7421 6.2343 12.8469C6.12955 12.9511 6.04643 13.0751 5.98972 13.2116C5.933 13.348 5.90381 13.4944 5.90381 13.6422C5.90381 13.79 5.933 13.9363 5.98972 14.0728C6.04643 14.2093 6.12955 14.3332 6.2343 14.4375L10.278 18.4813L10.3437 18.5469C10.4423 18.6457 10.5595 18.7241 10.6884 18.7776C10.8174 18.8311 10.9556 18.8586 11.0952 18.8586C11.2349 18.8586 11.3731 18.8311 11.5021 18.7776C11.631 18.7241 11.7482 18.6457 11.8468 18.5469L18.8312 11.5625C18.93 11.4639 19.0084 11.3467 19.0619 11.2178C19.1154 11.0888 19.1429 10.9506 19.1429 10.8109C19.1429 10.6713 19.1154 10.5331 19.0619 10.4041C19.0084 10.2752 18.93 10.158 18.8312 10.0594L18.7437 9.97188C18.645 9.87306 18.5279 9.79467 18.3989 9.74118C18.27 9.68769 18.1317 9.66016 17.9921 9.66016C17.8525 9.66016 17.7143 9.68769 17.5853 9.74118C17.4563 9.79467 17.3392 9.87306 17.2406 9.97188L11.0937 16.1156L7.82492 12.8469Z" fill="black"/>
</svg>
