<svg width="26" height="29" viewBox="0 0 26 29" fill="none" xmlns="http://www.w3.org/2000/svg">
<path d="M9.97317 25.2755L9.50733 26.7942C3.50783 26.2679 0 22.2103 0 18.258V17.184C0 16.3295 0.34241 15.51 0.951903 14.9057C1.5614 14.3015 2.38805 13.962 3.25 13.962H13.0867C12.2417 14.5527 11.4985 15.2787 10.894 16.11H3.25C2.96268 16.11 2.68713 16.2232 2.48397 16.4246C2.2808 16.626 2.16667 16.8992 2.16667 17.184V18.258C2.16667 21.132 4.8555 24.2402 9.71533 24.6548C9.79333 24.8653 9.88 25.0715 9.97317 25.2755ZM10.8333 0C12.4136 0 13.9291 0.622343 15.0465 1.73012C16.1639 2.8379 16.7917 4.34037 16.7917 5.907C16.7917 7.47364 16.1639 8.97611 15.0465 10.0839C13.9291 11.1917 12.4136 11.814 10.8333 11.814C9.25309 11.814 7.73756 11.1917 6.62016 10.0839C5.50275 8.97611 4.875 7.47364 4.875 5.907C4.875 4.34037 5.50275 2.8379 6.62016 1.73012C7.73756 0.622343 9.25309 0 10.8333 0ZM10.8333 2.148C9.82772 2.148 8.8633 2.54404 8.15222 3.24899C7.44114 3.95394 7.04167 4.91005 7.04167 5.907C7.04167 6.90395 7.44114 7.86007 8.15222 8.56502C8.8633 9.26997 9.82772 9.66601 10.8333 9.66601C11.8389 9.66601 12.8034 9.26997 13.5144 8.56502C14.2255 7.86007 14.625 6.90395 14.625 5.907C14.625 4.91005 14.2255 3.95394 13.5144 3.24899C12.8034 2.54404 11.8389 2.148 10.8333 2.148ZM26 21.48C26.0003 22.7888 25.6561 24.075 25.0012 25.2114C24.3463 26.3477 23.4036 27.295 22.2662 27.9593C21.1288 28.6237 19.8361 28.9822 18.5161 28.9994C17.1961 29.0165 15.8944 28.6918 14.7398 28.0572L11.7238 28.9658C11.6043 29.002 11.4771 29.0052 11.3558 28.9752C11.2346 28.9452 11.1238 28.8831 11.0354 28.7955C10.9471 28.7079 10.8844 28.5981 10.8541 28.4779C10.8239 28.3577 10.8272 28.2315 10.8637 28.113L11.7823 25.1252C11.2218 24.1214 10.9004 23.0038 10.8427 21.8579C10.7851 20.712 10.9928 19.5682 11.4499 18.5142C11.907 17.4602 12.6014 16.5238 13.4799 15.7769C14.3583 15.03 15.3976 14.4923 16.518 14.205C17.6384 13.9178 18.8103 13.8886 19.9439 14.1196C21.0775 14.3507 22.1427 14.8359 23.0579 15.5381C23.9731 16.2403 24.7141 17.1409 25.2241 18.1708C25.734 19.2007 25.9994 20.3327 26 21.48ZM16.25 18.258C15.9627 18.258 15.6871 18.3712 15.484 18.5726C15.2808 18.774 15.1667 19.0472 15.1667 19.332C15.1667 19.6169 15.2808 19.89 15.484 20.0914C15.6871 20.2929 15.9627 20.406 16.25 20.406H20.5833C20.8707 20.406 21.1462 20.2929 21.3494 20.0914C21.5525 19.89 21.6667 19.6169 21.6667 19.332C21.6667 19.0472 21.5525 18.774 21.3494 18.5726C21.1462 18.3712 20.8707 18.258 20.5833 18.258H16.25ZM15.1667 23.628C15.1667 23.9129 15.2808 24.186 15.484 24.3874C15.6871 24.5889 15.9627 24.702 16.25 24.702H18.4167C18.704 24.702 18.9795 24.5889 19.1827 24.3874C19.3859 24.186 19.5 23.9129 19.5 23.628C19.5 23.3432 19.3859 23.07 19.1827 22.8686C18.9795 22.6672 18.704 22.554 18.4167 22.554H16.25C15.9627 22.554 15.6871 22.6672 15.484 22.8686C15.2808 23.07 15.1667 23.3432 15.1667 23.628Z" fill="black"/>
</svg>
