<svg width="20" height="11" viewBox="0 0 20 11" fill="none" xmlns="http://www.w3.org/2000/svg">
<path fill-rule="evenodd" clip-rule="evenodd" d="M19.7629 1.38072C19.915 1.2269 20 1.02201 20 0.808862C20 0.595712 19.915 0.390794 19.7629 0.236974C19.6873 0.161958 19.597 0.102375 19.4973 0.061679C19.3976 0.0209819 19.2906 -8.43218e-07 19.1824 -8.38491e-07C19.0743 -8.33764e-07 18.9672 0.0209819 18.8676 0.061679C18.7679 0.102375 18.6776 0.161958 18.6021 0.236974L9.84941 8.842L1.402 0.236975C1.32642 0.161959 1.23617 0.102376 1.13649 0.0616798C1.03682 0.0209827 0.929764 -4.06413e-08 0.821616 -3.5914e-08C0.713467 -3.11867e-08 0.606415 0.0209827 0.50674 0.0616798C0.407066 0.102376 0.316744 0.161959 0.241162 0.236975C0.0865885 0.389575 -4.54819e-07 0.594951 -4.45469e-07 0.808863C-4.36118e-07 1.02277 0.0865886 1.22812 0.241162 1.38072L9.84941 11L19.7629 1.38072Z" fill="#622FF8"/>
</svg>
