<svg width="33" height="19" viewBox="0 0 33 19" fill="none" xmlns="http://www.w3.org/2000/svg">
<path id="Vector" d="M1.01163 17.9644L1.01174 17.9643C0.684904 17.6316 0.5 17.1866 0.5 16.7208C0.5 16.2551 0.68487 15.8101 1.01165 15.4774C1.01168 15.4774 1.01171 15.4773 1.01174 15.4773L15.1775 1.05118C15.3495 0.875975 15.5556 0.737343 15.7827 0.642909C16.0099 0.548488 16.2538 0.5 16.5 0.5C16.7462 0.5 16.9901 0.548488 17.2173 0.64291C17.4444 0.737342 17.6505 0.875974 17.8225 1.05118L31.9883 15.4773C32.3151 15.81 32.5 16.255 32.5 16.7208C32.5 17.1866 32.3151 17.6316 31.9883 17.9643L31.9799 17.9728L31.9798 17.9727L31.9679 17.9842C31.8068 18.1474 31.6143 18.2767 31.4023 18.365C31.1881 18.4542 30.958 18.5 30.7259 18.5C30.4937 18.5 30.2637 18.4542 30.0495 18.365C29.8353 18.2758 29.641 18.1448 29.4789 17.9792L16.5026 4.75818L3.52109 17.9792L1.01163 17.9644ZM1.01163 17.9644L1.02022 17.9727M1.01163 17.9644L1.02022 17.9727M1.02022 17.9727L1.03202 17.9841M1.02022 17.9727L1.03202 17.9841M1.03202 17.9841C1.19316 18.1474 1.38569 18.2767 1.59773 18.365C1.81189 18.4542 2.04197 18.5 2.27411 18.5C2.50626 18.5 2.73634 18.4542 2.9505 18.365C3.16446 18.2759 3.35856 18.145 3.52059 17.9797L1.03202 17.9841Z" fill="#8566FF" stroke="#8566FF"/>
</svg>
