<svg width="31" height="17" viewBox="0 0 31 17" fill="none" xmlns="http://www.w3.org/2000/svg">
<path id="Vector" d="M16.4657 16.5985L30.6316 2.17228C30.8681 1.93157 31 1.61177 31 1.27922C31 0.946657 30.8681 0.626862 30.6316 0.386152L30.6156 0.370621C30.5009 0.253525 30.3629 0.160286 30.21 0.096571C30.057 0.032856 29.8923 -1.90735e-06 29.7259 -1.90735e-06C29.5594 -1.90735e-06 29.3947 0.032856 29.2418 0.096571C29.0888 0.160286 28.9508 0.253525 28.8362 0.370621L15.4973 13.9556L2.16382 0.370621C2.04918 0.253525 1.91118 0.160286 1.75823 0.096571C1.60528 0.032856 1.44057 -1.90735e-06 1.27412 -1.90735e-06C1.10767 -1.90735e-06 0.942955 0.032856 0.790005 0.096571C0.637053 0.160286 0.499058 0.253525 0.384417 0.370621L0.368408 0.386152C0.131924 0.626862 0 0.946657 0 1.27922C0 1.61177 0.131924 1.93157 0.368408 2.17228L14.5343 16.5985C14.6588 16.7254 14.8087 16.8264 14.9747 16.8954C15.1407 16.9644 15.3194 17 15.5 17C15.6806 17 15.8593 16.9644 16.0253 16.8954C16.1913 16.8264 16.3412 16.7254 16.4657 16.5985Z" fill="#8566FF"/>
</svg>
