<svg width="8" height="14" viewBox="0 0 8 14" fill="none" xmlns="http://www.w3.org/2000/svg">
<path d="M7.81868 6.56191L1.30361 0.164424C1.19491 0.057625 1.05048 -0.00195313 0.900293 -0.00195312C0.750106 -0.00195312 0.605681 0.057625 0.496974 0.164424L0.48996 0.171653C0.437078 0.223427 0.39497 0.285747 0.366196 0.354822C0.337421 0.423897 0.322582 0.498282 0.322582 0.573453C0.322582 0.648625 0.337421 0.72301 0.366196 0.792085C0.39497 0.86116 0.437078 0.92348 0.48996 0.975254L6.62509 6.99925L0.48996 13.0208C0.437078 13.0726 0.39497 13.1349 0.366196 13.204C0.337421 13.2731 0.322582 13.3475 0.322582 13.4226C0.322582 13.4978 0.337421 13.5722 0.366196 13.6413C0.39497 13.7103 0.437078 13.7727 0.48996 13.8244L0.496974 13.8317C0.605681 13.9385 0.750106 13.998 0.900293 13.998C1.05048 13.998 1.19491 13.9385 1.30361 13.8317L7.81868 7.43418C7.87598 7.37792 7.92159 7.31026 7.95276 7.23529C7.98393 7.16032 8 7.07961 8 6.99805C8 6.91649 7.98393 6.83577 7.95276 6.7608C7.92159 6.68584 7.87598 6.61817 7.81868 6.56191Z" fill="white"/>
</svg>
