<svg width="32" height="33" viewBox="0 0 32 33" fill="none" xmlns="http://www.w3.org/2000/svg">
<circle cx="16" cy="16.625" r="15.5" stroke="#8566FF"/>
<path d="M22.2555 17.4694H8.33333C8.14444 17.4694 8 17.3138 8 17.1361C8 16.9472 8.15556 16.8027 8.33333 16.8027H22.2555C22.4444 16.8027 22.5889 16.9583 22.5889 17.1361C22.5889 17.3138 22.4444 17.4694 22.2555 17.4694Z" fill="#8566FF"/>
<path d="M18.0888 21.625C17.9999 21.625 17.9222 21.5917 17.8555 21.525C17.7222 21.3917 17.7222 21.1806 17.8555 21.0472L21.7777 17.125L17.8555 13.2028C17.7222 13.0694 17.7222 12.8583 17.8555 12.725C17.9888 12.5917 18.1999 12.5917 18.3333 12.725L22.4999 16.8917C22.6333 17.025 22.6333 17.2361 22.4999 17.3694L18.3333 21.5361C18.2555 21.5917 18.1666 21.625 18.0888 21.625Z" fill="#8566FF"/>
</svg>
