<svg width="34" height="39" viewBox="0 0 34 39" fill="none" xmlns="http://www.w3.org/2000/svg">
<g id="Layer_1" clip-path="url(#clip0_2331_2161)">
<path id="Vector" d="M1.40984 6.84661C3.24896 6.32113 5.15119 6.04907 7.06387 6.03795C7.60751 6.03392 8.15035 6.04998 8.6924 6.08613L8.52505 6.07472C9.68564 6.15139 10.8386 6.31701 11.9739 6.57015C12.5496 6.69959 13.1197 6.85179 13.6842 7.02677C13.9589 7.11235 14.2317 7.20244 14.5027 7.29704C14.6345 7.34353 14.7658 7.3919 14.897 7.44028C14.9994 7.47784 14.7051 7.36815 14.8605 7.42641L14.947 7.45973L15.1645 7.54505C16.2464 7.97503 17.2925 8.48999 18.2931 9.08507C18.4126 9.15255 18.5322 9.22986 18.6509 9.30284C18.7978 9.39302 18.4863 9.19893 18.5883 9.26337L18.689 9.32537L18.8836 9.45149C19.13 9.6137 19.3731 9.78039 19.6128 9.95156C20.0789 10.2862 20.5306 10.6396 20.9679 11.0117L21.0563 11.0848C21.1548 11.1696 20.8431 10.896 20.9768 11.0163C21.0236 11.0578 21.0704 11.0983 21.1164 11.14C21.2328 11.2425 21.3475 11.3472 21.4605 11.454C21.6767 11.6593 21.8938 11.8697 22.1054 12.0838C22.3169 12.298 22.5174 12.515 22.716 12.7369C22.7788 12.8067 22.965 13.0237 22.6997 12.7157C22.7472 12.7705 22.7947 12.8252 22.8415 12.881C22.9404 12.9969 23.0385 13.113 23.1354 13.2328C23.5199 13.7074 23.8852 14.1977 24.2314 14.7038L24.2861 14.7831C24.0803 14.4831 24.1652 14.6105 24.2165 14.6806C24.2677 14.7507 24.2965 14.8009 24.3389 14.8619C24.4272 14.9964 24.5131 15.1323 24.5965 15.2695C24.753 15.5231 24.9042 15.7799 25.0499 16.0397C25.1956 16.2995 25.336 16.5623 25.4709 16.8283C25.5073 16.9002 25.5428 16.9723 25.5792 17.0443C25.6155 17.1163 25.6618 17.2177 25.525 16.9336L25.5677 17.0205C25.6371 17.1659 25.7059 17.3123 25.772 17.4592C26.0225 18.0089 26.2501 18.5685 26.4548 19.1379C26.5558 19.4172 26.6515 19.6998 26.7419 19.9858C26.7471 20.0143 26.8 20.1717 26.7466 20.0117C26.6933 19.8518 26.7466 20.0117 26.7514 20.0377L26.8067 20.2232C26.8518 20.3775 26.8954 20.533 26.9373 20.6888C27.0952 21.2727 27.2291 21.8621 27.339 22.4572C27.4489 23.0522 27.5349 23.6504 27.5971 24.2518C27.6113 24.3832 27.5894 24.2095 27.592 24.1947C27.5921 24.234 27.5995 24.2746 27.6033 24.315L27.6214 24.5314C27.6346 24.6916 27.6462 24.8529 27.655 25.0139C27.6726 25.3108 27.6842 25.6088 27.6894 25.9061C27.7116 27.114 27.6312 28.3215 27.4491 29.5157C27.4039 29.8098 27.3524 30.1032 27.2945 30.3961L27.327 30.2311C27.2417 30.6576 27.1431 31.0814 27.0312 31.5026C26.9085 31.9654 27.2367 32.4905 27.562 32.799C27.7224 32.9484 27.9274 33.1369 28.1544 33.1714C28.2951 33.193 28.4984 33.1862 28.545 33.0107C29.3435 29.9527 29.4824 26.7599 28.9522 23.6443C28.4237 20.4787 27.258 17.4533 25.5257 14.7514C23.7785 12.0337 21.4985 9.6714 18.775 7.91805C16.1934 6.24869 13.3083 5.104 10.2842 4.54932C7.34644 4.0195 4.29172 4.04785 1.3823 4.72492C1.03435 4.80575 0.688692 4.89599 0.345363 4.99563C-0.0959941 5.1227 0.134344 5.72819 0.298218 5.99926C0.437608 6.24849 0.627329 6.466 0.855333 6.63796C0.999657 6.73843 1.2283 6.89942 1.4133 6.84597L1.40984 6.84661Z" fill="#141232"/>
<path id="Vector_2" d="M25.0177 30.0888L27.0979 34.9322L27.1967 34.9838L27.3401 34.9818C27.5209 34.9434 27.6918 34.8681 27.842 34.7606C28.1868 34.5471 28.4809 34.2612 28.7038 33.9225L31.4089 29.76L32.1763 28.581C32.2321 28.4949 32.3372 28.2729 32.2462 28.1663C32.1552 28.0596 31.9217 28.1309 31.8259 28.1689C31.3397 28.379 30.9277 28.7299 30.643 29.1764L27.9379 33.3389C27.6814 33.7312 27.4256 34.1242 27.1705 34.5179L28.7733 33.5106L26.6931 28.6671C26.6402 28.5437 26.3264 28.6501 26.2728 28.6697C26.0289 28.7698 25.8041 28.9115 25.6087 29.0885C25.4024 29.2523 25.227 29.4516 25.0908 29.677C25.0184 29.8135 24.9598 29.9377 25.0208 30.0909L25.0177 30.0888Z" fill="#141232"/>
</g>
<defs>
<clipPath id="clip0_2331_2161">
<rect width="27.5654" height="34.4568" fill="white" transform="translate(0 4.95312) rotate(-10.3523)"/>
</clipPath>
</defs>
</svg>
