<svg width="32" height="33" viewBox="0 0 32 33" fill="none" xmlns="http://www.w3.org/2000/svg">
<path d="M8.34455 16.7806L22.2668 16.7806C22.4557 16.7806 22.6001 16.9362 22.6001 17.1139C22.6001 17.3028 22.4445 17.4473 22.2668 17.4473L8.34455 17.4473C8.15566 17.4473 8.01122 17.2917 8.01122 17.1139C8.01122 16.9362 8.15566 16.7806 8.34455 16.7806Z" fill="#8566FF"/>
<path d="M12.5112 12.625C12.6001 12.625 12.6779 12.6583 12.7445 12.725C12.8779 12.8583 12.8779 13.0694 12.7445 13.2028L8.82232 17.125L12.7445 21.0472C12.8779 21.1806 12.8779 21.3917 12.7445 21.525C12.6112 21.6583 12.4001 21.6583 12.2668 21.525L8.1001 17.3583C7.96677 17.225 7.96677 17.0139 8.1001 16.8806L12.2668 12.7139C12.3445 12.6583 12.4334 12.625 12.5112 12.625Z" fill="#8566FF"/>
<circle cx="16" cy="16.625" r="15.5" stroke="#8566FF"/>
</svg>
