<svg width="26" height="16" viewBox="0 0 26 16" fill="none" xmlns="http://www.w3.org/2000/svg">
<path d="M24.6628 8.3809H0.576682C0.249895 8.3809 0 8.11178 0 7.80422C0 7.47743 0.269118 7.22754 0.576682 7.22754H24.6628C24.9896 7.22754 25.2394 7.49666 25.2394 7.80422C25.2394 8.11178 24.9896 8.3809 24.6628 8.3809Z" fill="#7B7CE1"/>
<path d="M17.4546 15.5704C17.3008 15.5704 17.1663 15.5127 17.0509 15.3974C16.8203 15.1667 16.8203 14.8015 17.0509 14.5708L23.8366 7.78521L17.0509 0.999583C16.8203 0.76891 16.8203 0.403678 17.0509 0.173005C17.2816 -0.0576682 17.6468 -0.0576682 17.8775 0.173005L25.086 7.38153C25.3167 7.6122 25.3167 7.97744 25.086 8.20811L17.8775 15.4166C17.743 15.5128 17.5892 15.5704 17.4546 15.5704Z" fill="#7B7CE1"/>
</svg>
