<svg width="141" height="56" viewBox="0 0 141 56" fill="none" xmlns="http://www.w3.org/2000/svg">
<g id="Layer_1" clip-path="url(#clip0_2333_2842)">
<path id="Vector" d="M131.856 29.9244C124.466 24.4362 116.023 20.2732 107.043 17.5233C98.0039 14.75 88.561 13.4468 79.0845 13.6645C69.7326 13.8751 60.476 15.6281 51.6985 18.8509C43.0877 22.0374 35.0426 26.5575 27.8674 32.2404C26.0791 33.6616 24.3531 35.1478 22.6894 36.699C21.8592 37.4737 21.0459 38.2656 20.2494 39.0746L19.7061 39.6312L19.4354 39.9094C19.0032 40.358 19.5808 39.756 19.3273 40.0243C18.9272 40.4499 18.5318 40.8748 18.1414 41.299C16.6246 42.972 15.182 44.7022 13.8136 46.4895C13.1336 47.3819 12.4716 48.2876 11.8278 49.2066C11.6806 49.4116 11.535 49.6275 11.3905 49.8377L11.1222 50.2349C11.0871 50.2878 10.8621 50.6236 11.0131 50.3941C11.1952 50.1215 10.8485 50.6458 10.8618 50.6346L10.6534 50.957C10.48 51.2247 10.3068 51.4942 10.1378 51.7667C9.5572 52.685 8.99875 53.6148 8.46251 54.5561C8.11409 55.1578 7.1364 56.2882 6.3516 55.5836C5.5668 54.8789 6.03138 53.3862 6.44776 52.6497C11.1614 44.4686 17.2398 37.1257 24.4263 30.9312C31.5678 24.7552 39.6587 19.7387 48.3935 16.0711C57.2602 12.3423 66.6928 10.1055 76.2978 9.4539C86.0448 8.81987 95.8246 9.75921 105.251 12.2349C114.536 14.6616 123.328 18.6274 131.254 23.963C132.211 24.6095 133.152 25.2768 134.074 25.965C134.404 26.2089 134.47 26.8476 134.464 27.1937C134.445 27.7916 134.279 28.3767 133.98 28.8986C133.58 29.5666 132.731 30.5607 131.869 29.9261L131.856 29.9244Z" fill="#231F20"/>
<path id="Vector_2" d="M128.011 15.7029L136.728 25.9889L139.202 28.9008C139.383 29.1349 139.473 29.4252 139.456 29.7196C139.426 29.907 139.357 30.0861 139.251 30.245C139.146 30.4038 139.007 30.5387 138.845 30.6406C138.544 30.8531 138.2 30.9974 137.836 31.063C137.314 31.1589 136.778 31.1508 136.26 31.0393L123.998 28.9403L120.542 28.3423C120.003 28.2301 119.519 27.9414 119.168 27.5232C118.922 27.1918 118.81 26.6774 119.039 26.2915C119.311 25.862 119.739 25.5511 120.236 25.4229C120.848 25.2667 121.489 25.2539 122.107 25.3853L134.37 27.4932L137.826 28.0913L134.889 30.229L126.171 19.9432L123.696 17.0313C123.56 16.8587 123.476 16.6518 123.453 16.434C123.431 16.2162 123.471 15.9963 123.569 15.7993C123.782 15.3844 124.31 15.0558 124.764 14.931C125.896 14.6173 127.255 14.8251 128.008 15.7124L128.011 15.7029Z" fill="#231F20"/>
</g>
<defs>
<clipPath id="clip0_2333_2842">
<rect width="135.753" height="36.1277" fill="white" transform="translate(0.9021 20.1719) rotate(-8.29136)"/>
</clipPath>
</defs>
</svg>
