<svg width="26" height="16" viewBox="0 0 26 16" fill="none" xmlns="http://www.w3.org/2000/svg">
<path d="M0.596274 7.18952L24.6824 7.18952C25.0091 7.18952 25.259 7.45864 25.259 7.7662C25.259 8.09299 24.9899 8.34288 24.6824 8.34288L0.596273 8.34288C0.269487 8.34288 0.0195923 8.07376 0.0195923 7.7662C0.0195924 7.45864 0.269487 7.18952 0.596274 7.18952Z" fill="#7B7CE1"/>
<path d="M7.80443 2.1578e-06C7.95821 2.17124e-06 8.09277 0.0576728 8.20811 0.173009C8.43878 0.403682 8.43878 0.768915 8.20811 0.999587L1.42248 7.78521L8.2081 14.5708C8.43878 14.8015 8.43878 15.1667 8.2081 15.3974C7.97743 15.6281 7.6122 15.6281 7.38153 15.3974L0.173005 8.18889C-0.057668 7.95822 -0.057668 7.59298 0.173005 7.36231L7.38153 0.153785C7.51609 0.0576708 7.66987 2.14604e-06 7.80443 2.1578e-06Z" fill="#7B7CE1"/>
</svg>
