<svg width="289" height="16" viewBox="0 0 289 16" fill="none" xmlns="http://www.w3.org/2000/svg">
<path d="M0.292908 7.29287C-0.0976257 7.68339 -0.0976258 8.31656 0.292908 8.70708L6.65686 15.071C7.04739 15.4616 7.68054 15.4616 8.07107 15.071C8.46158 14.6805 8.46158 14.0474 8.07107 13.6568L2.41422 7.99998L8.07108 2.34312C8.46158 1.9526 8.46158 1.31943 8.07108 0.92891C7.68054 0.538385 7.04739 0.538385 6.65686 0.92891L0.292908 7.29287ZM265 8L265 7L1 6.99998L1 7.99998L1 8.99998L265 9L265 8Z" fill="#856CFC"/>
<path d="M288.707 8.70711C289.098 8.31658 289.098 7.68342 288.707 7.29289L282.343 0.928932C281.953 0.538408 281.319 0.538408 280.929 0.928932C280.538 1.31946 280.538 1.95262 280.929 2.34315L286.586 8L280.929 13.6569C280.538 14.0474 280.538 14.6805 280.929 15.0711C281.319 15.4616 281.953 15.4616 282.343 15.0711L288.707 8.70711ZM81 8V9H288V8V7H81V8Z" fill="#856CFC"/>
</svg>
