<svg width="142" height="109" viewBox="0 0 142 109" fill="none" xmlns="http://www.w3.org/2000/svg">
<g id="Isolation_Mode" clip-path="url(#clip0_3329_18418)">
<path id="Vector" d="M0 0L142 12.9359V73.4428V78.654V108.5L118.457 76.5092L0 65.7181V0Z" fill="#F85459"/>
<g id="Group 1424">
<g id="nowa us&#197;&#130;uga">
<path id="Vector_2" d="M101.706 71.1314L114.21 49.4912L122.165 50.2932L119.185 72.8939L114.573 72.4289L115.102 68.5082L108.485 67.8409L106.318 71.5965L101.706 71.1314ZM116.516 53.765L110.625 64.0153L115.671 64.5242L117.217 53.8358L116.516 53.765Z" fill="#0005FF"/>
<path id="Vector_3" d="M93.165 70.6742C88.1518 70.1687 85.8841 67.5377 86.3619 62.7811C86.7236 59.1804 87.6623 56.1093 89.1779 53.5679C90.8318 50.7709 92.9734 48.9438 95.6028 48.0863C96.9977 47.6432 98.3747 47.4902 99.7339 47.6272C101.093 47.7642 102.341 48.0023 103.477 48.3414C104.613 48.6805 105.482 48.9926 106.084 49.2778L106.953 49.7022L105.548 52.9284C103.387 52.2615 101.326 51.8291 99.3654 51.6314C98.1622 51.5101 97.0414 51.8012 96.0029 52.5048C94.989 53.1884 94.1622 54.1378 93.5224 55.353C92.1962 57.8013 91.3902 60.448 91.1044 63.293C90.8967 65.3601 91.907 66.506 94.1351 66.7307L96.2574 66.7763L97.9328 61.8598L95.7938 61.6441L97.078 57.9343L103.796 58.6117L99.7358 70.4611C98.1627 70.8863 95.9724 70.9573 93.165 70.6742Z" fill="#0005FF"/>
<path id="Vector_4" d="M71.4949 60.3056C71.2096 61.13 71.0323 61.8867 70.9631 62.5758C70.8961 63.2426 71.072 63.7318 71.4908 64.0435C71.9319 64.3574 72.7207 64.5716 73.857 64.6862C75.0156 64.803 75.9147 64.5906 76.5543 64.0488C77.1961 63.4849 77.76 62.4641 78.2461 60.9863L83.2256 46.367L87.8378 46.832L82.8582 61.4514C81.9263 64.2313 80.6603 66.1917 79.0603 67.3326C77.4847 68.4535 75.4938 68.8926 73.0875 68.65C68.2302 68.1602 65.9735 66.2038 66.3173 62.7809C66.4334 61.6251 66.7022 60.4061 67.1236 59.1239L71.8623 45.2212L76.4745 45.6862L71.4949 60.3056Z" fill="#0005FF"/>
<path id="Vector_5" d="M62.5662 67.1852L50.735 65.9922L53.0359 59.2192L52.0431 59.6916L50.9843 56.4528L54.5675 54.7261L58.2596 43.8499L62.8717 44.3149L60.2833 51.9346L63.6927 50.2577L64.7549 53.4632L58.755 56.3944L56.6849 62.5508L63.8705 63.2754L62.5662 67.1852Z" fill="#0005FF"/>
<path id="Vector_6" d="M46.6038 46.244C45.6235 46.1451 44.8157 46.3443 44.1806 46.8416C43.57 47.3189 43.2267 47.9354 43.1508 48.6911C43.0749 49.4468 43.1973 50.0204 43.5181 50.412C43.8411 50.7814 44.769 51.4025 46.3018 52.2756C47.8346 53.1486 48.8504 54.0144 49.3494 54.873C49.8728 55.7116 50.0586 56.8866 49.9068 58.398C49.6545 60.9097 48.6804 62.7648 46.9845 63.9634C45.311 65.1642 43.1596 65.632 40.5304 65.3669C39.4832 65.2613 38.3915 65.039 37.2552 64.6999C36.1189 64.3608 35.2389 64.0475 34.6151 63.7601L33.7161 63.299L34.8163 60.0758C37.2894 60.7742 39.239 61.1953 40.665 61.3391C42.1132 61.4852 43.1961 61.3474 43.9137 60.9258C44.6335 60.482 45.0536 59.6599 45.1742 58.4597C45.2389 57.8151 45.0875 57.3059 44.72 56.932C44.3769 56.5382 43.4824 55.9204 42.0366 55.0786C40.5907 54.2368 39.5859 53.3721 39.0224 52.4846C38.4589 51.597 38.2508 50.4197 38.3981 48.9528C38.6147 46.7967 39.4952 45.0894 41.0395 43.8306C42.5839 42.5719 44.5258 42.0604 46.8653 42.2963C47.9348 42.4042 49.0377 42.6276 50.174 42.9667C51.3348 43.2858 52.2171 43.5769 52.8208 43.8398L53.7232 44.2676L52.5594 47.4507C50.1487 46.8035 48.1635 46.4012 46.6038 46.244Z" fill="#0005FF"/>
<path id="Vector_7" d="M21.1668 55.2304C20.8814 56.0548 20.7041 56.8115 20.6349 57.5006C20.568 58.1674 20.7439 58.6566 21.1627 58.9683C21.6038 59.2822 22.3925 59.4964 23.5289 59.611C24.6875 59.7278 25.5866 59.5154 26.2262 58.9737C26.868 58.4097 27.4319 57.3889 27.9179 55.9111L32.8975 41.2918L37.5097 41.7568L32.5301 56.3762C31.5982 59.1561 30.3322 61.1165 28.7321 62.2574C27.1566 63.3783 25.1657 63.8174 22.7593 63.5748C17.9021 63.085 15.6454 61.1286 15.9892 57.7057C16.1053 56.5499 16.3741 55.3309 16.7954 54.0487L21.5342 40.146L26.1464 40.6111L21.1668 55.2304Z" fill="#0005FF"/>
<path id="Vector_8" d="M85.7119 37.3717L98.2162 15.7314L106.171 16.5335L103.191 39.1342L98.5791 38.6691L99.108 34.7484L92.4906 34.0812L90.324 37.8367L85.7119 37.3717ZM100.521 20.0052L94.6304 30.2556L99.677 30.7644L101.223 20.076L100.521 20.0052Z" fill="#0005FF"/>
<path id="Vector_9" d="M65.3339 12.416L69.9461 12.8811L66.6903 31.1767L67.1582 31.2239L76.53 13.8817L81.6101 14.3939L78.6886 32.3866L79.1565 32.4338L88.495 14.7514L93.1071 15.2164L81.1041 36.9072L74.4198 36.2333L77.1772 19.8743L68.9053 35.6772L62.0205 34.983L65.3339 12.416Z" fill="#0005FF"/>
<path id="Vector_10" d="M45.9099 25.8143C45.7559 27.3479 45.886 28.4051 46.3003 28.9857C46.7391 29.5463 47.5267 29.8839 48.663 29.9985C49.8217 30.1154 50.8177 29.8341 51.6512 29.1548C52.8033 28.2157 53.7974 26.7218 54.6333 24.6732C55.4916 22.6268 56.0223 20.5923 56.2255 18.5696C56.3483 17.3471 56.2014 16.4567 55.7849 15.8983C55.3705 15.3177 54.5841 14.9689 53.4255 14.8521C52.2669 14.7353 51.3199 14.9766 50.5844 15.576C49.361 16.5528 48.3146 18.1199 47.4451 20.2775C46.578 22.4128 46.0662 24.2584 45.9099 25.8143ZM61.0182 18.5814C60.7123 21.6265 59.9698 24.4255 58.7906 26.9783C57.6136 29.509 56.0769 31.3635 54.1805 32.5419C52.3064 33.7225 50.1662 34.1915 47.7598 33.9488C42.8357 33.4523 40.6059 30.8925 41.0703 26.2693C41.3628 23.3575 42.0842 20.6574 43.2344 18.169C44.3846 15.6805 45.8912 13.7893 47.7542 12.4953C49.6195 11.1791 51.8109 10.6479 54.3287 10.9018C59.2528 11.3983 61.4826 13.9582 61.0182 18.5814Z" fill="#0005FF"/>
<path id="Vector_11" d="M17.4404 30.4879L24.9649 8.34549L32.2842 9.08352L31.7024 26.9753L32.1034 27.0157L37.9325 9.65305L42.3775 10.1013L34.853 32.2436L27.9013 31.5427L28.2493 13.2906L27.8483 13.2501L21.7852 30.926L17.4404 30.4879Z" fill="#0005FF"/>
</g>
<g id="nowa us&#197;&#130;uga_2">
<path id="Vector_12" d="M103.477 69.9L115.981 48.2597L123.935 49.0618L120.956 71.6625L116.344 71.1974L116.873 67.2767L110.255 66.6095L108.089 70.365L103.477 69.9ZM118.286 52.5335L112.395 62.7839L117.442 63.2927L118.988 52.6043L118.286 52.5335Z" fill="white"/>
<path id="Vector_13" d="M94.9355 69.4428C89.9223 68.9373 87.6546 66.3062 88.1324 61.5497C88.4941 57.9489 89.4328 54.8778 90.9484 52.3364C92.6023 49.5395 94.7439 47.7123 97.3733 46.8548C98.7682 46.4117 100.145 46.2587 101.504 46.3958C102.864 46.5328 104.111 46.7709 105.247 47.11C106.384 47.4491 107.253 47.7612 107.854 48.0464L108.723 48.4708L107.319 51.697C105.158 51.03 103.097 50.5977 101.136 50.4C99.9327 50.2787 98.8119 50.5698 97.7735 51.2733C96.7595 51.9569 95.9327 52.9063 95.2929 54.1216C93.9667 56.5699 93.1607 59.2165 92.8749 62.0616C92.6672 64.1287 93.6775 65.2746 95.9056 65.4992L98.0279 65.5448L99.7033 60.6284L97.5644 60.4127L98.8485 56.7029L105.566 57.3802L101.506 69.2297C99.9332 69.6548 97.7429 69.7259 94.9355 69.4428Z" fill="white"/>
<path id="Vector_14" d="M73.2654 59.0742C72.9801 59.8986 72.8028 60.6553 72.7336 61.3443C72.6666 62.0111 72.8425 62.5004 73.2613 62.812C73.7024 63.1259 74.4912 63.3402 75.6275 63.4547C76.7861 63.5716 77.6852 63.3591 78.3248 62.8174C78.9666 62.2535 79.5305 61.2326 80.0166 59.7549L84.9961 45.1355L89.6083 45.6006L84.6287 60.22C83.6968 62.9998 82.4308 64.9602 80.8308 66.1011C79.2552 67.222 77.2643 67.6612 74.858 67.4185C70.0007 66.9287 67.744 64.9724 68.0878 61.5494C68.204 60.3936 68.4727 59.1746 68.8941 57.8925L73.6329 43.9897L78.245 44.4548L73.2654 59.0742Z" fill="white"/>
<path id="Vector_15" d="M64.3367 65.9538L52.5055 64.7608L54.8064 57.9877L53.8136 58.4602L52.7548 55.2213L56.338 53.4946L60.0301 42.6184L64.6422 43.0835L62.0538 50.7031L65.4632 49.0262L66.5254 52.2317L60.5255 55.1629L58.4554 61.3194L65.641 62.0439L64.3367 65.9538Z" fill="white"/>
<path id="Vector_16" d="M48.3743 45.0125C47.394 44.9137 46.5862 45.1129 45.9511 45.6101C45.3405 46.0874 44.9972 46.7039 44.9213 47.4596C44.8454 48.2153 44.9678 48.789 45.2886 49.1806C45.6116 49.5499 46.5395 50.1711 48.0723 51.0441C49.6051 51.9171 50.6209 52.7829 51.1199 53.6415C51.6433 54.4801 51.8291 55.6551 51.6773 57.1666C51.425 59.6782 50.4509 61.5333 48.7551 62.7319C47.0815 63.9327 44.9301 64.4006 42.3009 64.1355C41.2537 64.0299 40.162 63.8075 39.0257 63.4685C37.8894 63.1294 37.0094 62.8161 36.3856 62.5287L35.4866 62.0676L36.5868 58.8444C39.0599 59.5428 41.0095 59.9639 42.4355 60.1077C43.8837 60.2537 44.9666 60.1159 45.6842 59.6943C46.404 59.2505 46.8241 58.4285 46.9447 57.2282C47.0094 56.5836 46.858 56.0744 46.4905 55.7006C46.1474 55.3068 45.253 54.6889 43.8071 53.8471C42.3612 53.0053 41.3565 52.1407 40.7929 51.2531C40.2294 50.3656 40.0213 49.1883 40.1686 47.7213C40.3852 45.5653 41.2657 43.8579 42.81 42.5992C44.3544 41.3404 46.2963 40.829 48.6358 41.0649C49.7053 41.1727 50.8082 41.3962 51.9445 41.7353C53.1053 42.0544 53.9876 42.3454 54.5914 42.6084L55.4937 43.0361L54.3299 46.2192C51.9192 45.572 49.934 45.1698 48.3743 45.0125Z" fill="white"/>
<path id="Vector_17" d="M22.9373 53.999C22.6519 54.8234 22.4747 55.5801 22.4054 56.2691C22.3385 56.9359 22.5144 57.4252 22.9332 57.7368C23.3743 58.0507 24.163 58.265 25.2994 58.3795C26.458 58.4964 27.3571 58.2839 27.9967 57.7422C28.6385 57.1783 29.2024 56.1574 29.6885 54.6797L34.668 40.0603L39.2802 40.5254L34.3006 55.1448C33.3687 57.9246 32.1027 59.885 30.5026 61.0259C28.9271 62.1468 26.9362 62.586 24.5298 62.3433C19.6726 61.8535 17.4159 59.8972 17.7597 56.4742C17.8758 55.3184 18.1446 54.0994 18.5659 52.8173L23.3047 38.9145L27.9169 39.3796L22.9373 53.999Z" fill="white"/>
<path id="Vector_18" d="M87.4824 36.1402L99.9867 14.5L107.941 15.302L104.962 37.9027L100.35 37.4377L100.879 33.517L94.2611 32.8497L92.0946 36.6053L87.4824 36.1402ZM102.292 18.7738L96.4009 29.0241L101.448 29.533L102.994 18.8445L102.292 18.7738Z" fill="white"/>
<path id="Vector_19" d="M67.1044 11.1845L71.7166 11.6496L68.4608 29.9453L68.9287 29.9925L78.3005 12.6503L83.3806 13.1625L80.4591 31.1551L80.927 31.2023L90.2655 13.5199L94.8776 13.985L82.8746 35.6758L76.1903 35.0018L78.9477 18.6429L70.6758 34.4458L63.791 33.7515L67.1044 11.1845Z" fill="white"/>
<path id="Vector_20" d="M47.6804 24.5828C47.5264 26.1165 47.6565 27.1736 48.0708 27.7542C48.5097 28.3149 49.2972 28.6525 50.4336 28.7671C51.5922 28.8839 52.5882 28.6027 53.4217 27.9233C54.5738 26.9843 55.5679 25.4904 56.4038 23.4417C57.2621 21.3953 57.7928 19.3608 57.996 17.3382C58.1188 16.1157 57.9719 15.2252 57.5554 14.6668C57.1411 14.0862 56.3546 13.7375 55.196 13.6207C54.0374 13.5038 53.0904 13.7451 52.355 14.3445C51.1315 15.3213 50.0851 16.8885 49.2156 19.046C48.3485 21.1813 47.8367 23.0269 47.6804 24.5828ZM62.7887 17.3499C62.4828 20.395 61.7403 23.194 60.5611 25.7469C59.3841 28.2776 57.8474 30.1321 55.951 31.3104C54.0769 32.491 51.9367 32.96 49.5303 32.7174C44.6063 32.2209 42.3764 29.661 42.8408 25.0378C43.1333 22.1261 43.8547 19.426 45.0049 16.9375C46.1551 14.4491 47.6617 12.5579 49.5247 11.2639C51.39 9.94766 53.5814 9.41649 56.0992 9.67036C61.0233 10.1669 63.2531 12.7267 62.7887 17.3499Z" fill="white"/>
<path id="Vector_21" d="M19.2109 29.2564L26.7354 7.11405L34.0547 7.85207L33.4729 25.7438L33.8739 25.7843L39.703 8.4216L44.148 8.86981L36.6235 31.0122L29.6718 30.3112L30.0198 12.0591L29.6188 12.0187L23.5557 29.6945L19.2109 29.2564Z" fill="white"/>
</g>
</g>
</g>
<defs>
<clipPath id="clip0_3329_18418">
<rect width="142" height="109" fill="white"/>
</clipPath>
</defs>
</svg>
