<svg width="162" height="162" viewBox="0 0 162 162" fill="none" xmlns="http://www.w3.org/2000/svg">
<g opacity="0.3">
<path d="M113.503 58.5273H113.087C113.087 58.8058 113.087 59.0885 113.116 59.3587L113.532 59.3296C113.515 59.0677 113.503 58.7975 113.503 58.5273ZM113.623 60.1319L113.208 60.1901C113.249 60.4644 113.303 60.7429 113.365 61.0214L113.781 60.93C113.714 60.6598 113.665 60.3938 113.623 60.1319ZM113.98 61.6948L113.59 61.8195C113.673 62.0814 113.768 62.3474 113.868 62.6052L114.251 62.4555C114.151 62.2061 114.064 61.9359 113.98 61.6948ZM114.575 63.1913L114.209 63.37C114.329 63.6153 114.462 63.8647 114.604 64.1058L114.957 63.8979C114.82 63.6652 114.691 63.4282 114.575 63.183V63.1913ZM115.406 64.5755L115.069 64.8124C115.227 65.0369 115.393 65.2655 115.568 65.4775L115.888 65.2198C115.701 65.012 115.539 64.7958 115.389 64.5755H115.406ZM116.416 65.8225L116.116 66.1052C116.307 66.3047 116.507 66.5209 116.711 66.6872L116.989 66.3879C116.777 66.2091 116.582 66.0221 116.399 65.8267L116.416 65.8225ZM117.587 66.9241L117.334 67.2483C117.55 67.4188 117.779 67.585 118.007 67.7388L118.236 67.398C118.015 67.2317 117.795 67.0737 117.587 66.9241ZM118.921 67.8178L118.718 68.1753C118.959 68.3125 119.208 68.4413 119.461 68.5577L119.624 68.1711C119.391 68.0547 119.15 67.9342 118.921 67.8012V67.8178ZM120.376 68.4995L120.23 68.882C120.488 68.9817 120.754 69.069 121.02 69.148L121.136 68.7531C120.87 68.6616 120.625 68.5868 120.376 68.4829V68.4995ZM121.913 68.9526L121.83 69.3683C122.1 69.4265 122.379 69.4764 122.661 69.5138L122.715 69.0981C122.441 69.0357 122.175 69.0025 121.913 68.936V68.9526ZM123.505 69.1688L123.484 69.5845C123.704 69.5845 123.933 69.5845 124.141 69.5845H124.311V69.1688H124.141H123.505ZM160.372 69.1688H159.541V69.5845H160.372V69.1688ZM158.731 69.1688H157.9V69.5845H158.731V69.1688ZM157.093 69.1688H156.262V69.5845H157.093V69.1688ZM155.456 69.1688H154.625V69.5845H155.456V69.1688ZM153.815 69.1688H152.984V69.5845H153.815V69.1688ZM152.177 69.1688H151.346V69.5845H152.177V69.1688ZM150.515 69.1688H149.684V69.5845H150.515V69.1688ZM148.878 69.1688H148.047V69.5845H148.878V69.1688ZM147.237 69.1688H146.406V69.5845H147.237V69.1688ZM145.599 69.1688H144.768V69.5845H145.599V69.1688ZM143.962 69.1688H143.131V69.5845H143.962V69.1688ZM142.3 69.1688H141.469V69.5845H142.3V69.1688ZM140.663 69.1688H139.832V69.5845H140.663V69.1688ZM139.021 69.1688H138.19V69.5845H139.021V69.1688ZM137.384 69.1688H136.553V69.5845H137.384V69.1688ZM135.722 69.1688H134.891V69.5845H135.722V69.1688ZM134.085 69.1688H133.253V69.5845H134.085V69.1688ZM132.447 69.1688H131.616V69.5845H132.447V69.1688ZM130.806 69.1688H129.975V69.5845H130.806V69.1688ZM129.169 69.1688H128.338V69.5845H129.169V69.1688ZM127.506 69.1688H126.675V69.5845H127.506V69.1688ZM125.869 69.1688H125.038V69.5845H125.869V69.1688Z" fill="white"/>
<path d="M124.141 7.06641C121.212 7.06971 118.405 8.23484 116.334 10.3062C114.263 12.3775 113.099 15.1859 113.095 18.1152V58.5276H113.511V18.1027C113.483 16.6878 113.737 15.2816 114.259 13.9663C114.781 12.651 115.56 11.453 116.551 10.4425C117.541 9.43201 118.723 8.62927 120.027 8.08126C121.332 7.53326 122.732 7.25099 124.147 7.25099C125.561 7.25099 126.962 7.53326 128.266 8.08126C129.571 8.62927 130.753 9.43201 131.743 10.4425C132.733 11.453 133.512 12.651 134.034 13.9663C134.556 15.2816 134.811 16.6878 134.783 18.1027V93.291H135.198V18.1027C135.192 15.1734 134.024 12.3664 131.951 10.2974C129.878 8.22836 127.069 7.0664 124.141 7.06641Z" fill="white"/>
<path d="M97.3124 62.834H96.8968V63.6653H97.3124V62.834ZM97.3124 64.4718H96.8968V65.3031H97.3124V64.4718ZM97.3124 66.1095H96.8968V66.9409H97.3124V66.1095ZM97.3124 67.7723H96.8968V68.6036H97.3124V67.7723ZM97.3124 69.41H96.8968V70.2414H97.3124V69.41ZM97.3124 71.0728H96.8968V71.9041H97.3124V71.0728ZM97.3124 72.7105H96.8968V73.5419H97.3124V72.7105ZM97.3124 74.3483H96.8968V75.1797H97.3124V74.3483ZM97.3124 76.011H96.8968V76.8424H97.3124V76.011ZM97.3124 77.6488H96.8968V78.4802H97.3124V77.6488ZM97.3124 79.3115H96.8968V80.1429H97.3124V79.3115ZM97.3124 80.9493H96.8968V81.7807H97.3124V80.9493ZM97.3124 82.612H96.8968V83.4434H97.3124V82.612ZM97.3124 84.2498H96.8968V85.0812H97.3124V84.2498ZM97.3124 85.8876H96.8968V86.719H97.3124V85.8876ZM97.3124 87.5503H96.8968V88.3817H97.3124V87.5503ZM97.3124 89.1881H96.8968V90.0195H97.3124V89.1881ZM97.3124 90.8508H96.8968V91.6822H97.3124V90.8508ZM97.3124 92.4886H96.8968V93.32H97.3124V92.4886ZM134.766 94.064C134.766 94.3384 134.741 94.6044 134.72 94.8746L135.135 94.9037C135.156 94.6335 135.169 94.355 135.181 94.0724L134.766 94.064ZM97.3248 94.1222H96.9093C96.9093 94.4007 96.9342 94.6751 96.955 94.9536L97.3705 94.9203C97.3498 94.5171 97.3331 94.247 97.3248 93.9768V94.1222ZM134.641 95.681C134.612 95.9512 134.574 96.2173 134.529 96.4833L134.944 96.5498C134.99 96.2796 135.027 96.0053 135.061 95.7185L134.641 95.681ZM97.4537 95.7351L97.0381 95.785C97.0714 96.0635 97.1087 96.3337 97.1545 96.6163L97.57 96.5457C97.5243 96.13 97.4869 95.8598 97.4537 95.6062V95.7351ZM134.383 97.2814C134.325 97.5475 134.267 97.8093 134.2 98.0712L134.595 98.171C134.662 97.9049 134.724 97.6347 134.782 97.3645L134.383 97.2814ZM97.7196 97.3354L97.3041 97.4186C97.3622 97.6929 97.4246 97.959 97.4952 98.225L97.9108 98.1252C97.836 97.7179 97.7736 97.456 97.7196 97.19V97.3354ZM133.98 98.8527C133.905 99.1104 133.818 99.3681 133.731 99.6217L134.117 99.7589C134.209 99.497 134.296 99.2351 134.375 98.9691L133.98 98.8527ZM98.1227 98.9067L97.7321 99.0231C97.811 99.2891 97.8983 99.5552 97.9897 99.8129L98.3762 99.6757C98.2847 99.2767 98.2016 99.019 98.1227 98.7612V98.9067ZM133.444 100.382C133.344 100.632 133.236 100.881 133.128 101.126L133.502 101.293C133.615 101.043 133.723 100.79 133.822 100.532L133.444 100.382ZM98.6587 100.436L98.2806 100.59C98.3845 100.848 98.4925 101.102 98.6047 101.355L98.9787 101.185C98.8707 100.794 98.7668 100.545 98.6629 100.291L98.6587 100.436ZM132.779 101.854C132.659 102.095 132.53 102.336 132.401 102.569L132.759 102.768C132.891 102.531 133.02 102.286 133.145 102.041L132.779 101.854ZM99.3319 101.916L98.9662 102.099C99.0909 102.349 99.2239 102.59 99.3569 102.831L99.7142 102.631C99.5854 102.257 99.4607 102.012 99.3361 101.771L99.3319 101.916ZM131.99 103.267C131.848 103.496 131.699 103.724 131.549 103.949L131.89 104.178C132.044 103.949 132.193 103.72 132.339 103.483L131.99 103.267ZM100.13 103.33L99.7807 103.546C99.9262 103.783 100.08 104.011 100.234 104.24L100.574 104.007C100.425 103.641 100.275 103.413 100.134 103.184L100.13 103.33ZM131.08 104.61C130.916 104.826 130.75 105.038 130.581 105.246L130.901 105.504C131.076 105.292 131.246 105.088 131.408 104.851L131.08 104.61ZM101.044 104.668L100.716 104.913C100.882 105.134 101.052 105.354 101.227 105.566L101.547 105.304C101.376 104.951 101.21 104.751 101.048 104.523L101.044 104.668ZM130.057 105.865C129.879 106.069 129.696 106.281 129.509 106.46L129.804 106.742C129.995 106.547 130.182 106.327 130.365 106.135L130.057 105.865ZM102.075 105.923L101.767 106.194C101.95 106.401 102.141 106.609 102.332 106.8L102.627 106.514C102.44 106.177 102.257 105.998 102.079 105.778L102.075 105.923ZM128.931 107.029C128.736 107.216 128.537 107.399 128.333 107.574L128.603 107.885C128.811 107.703 129.019 107.515 129.214 107.328L128.931 107.029ZM103.205 107.083L102.922 107.382C103.126 107.57 103.338 107.757 103.537 107.935L103.807 107.624C103.604 107.303 103.417 107.125 103.209 106.938L103.205 107.083ZM127.722 108.093C127.51 108.264 127.307 108.426 127.078 108.588L127.319 108.916C127.543 108.754 127.764 108.588 127.98 108.413L127.722 108.093ZM104.451 108.143L104.198 108.463C104.414 108.634 104.634 108.8 104.855 108.962L105.079 108.492C104.863 108.326 104.663 108.164 104.435 107.998L104.451 108.143ZM126.405 108.908C126.18 109.058 125.952 109.196 125.719 109.324L125.931 109.673C126.168 109.532 126.401 109.382 126.629 109.228L126.405 108.908ZM105.748 108.95L105.519 109.29C105.752 109.444 105.985 109.59 106.222 109.731L106.429 109.382C106.201 109.236 105.972 109.095 105.748 108.945V108.95ZM125.025 109.739C124.788 109.868 124.551 109.993 124.306 110.113L124.489 110.483C124.734 110.359 124.984 110.234 125.225 110.101L125.025 109.739ZM107.157 109.773L106.961 110.134C107.202 110.263 107.448 110.392 107.697 110.513L107.876 110.143C107.61 110.03 107.373 109.906 107.136 109.777L107.157 109.773ZM123.579 110.454C123.33 110.567 123.08 110.666 122.827 110.766L122.977 111.149C123.234 111.049 123.492 110.941 123.745 110.833L123.579 110.454ZM108.619 110.483L108.457 110.858C108.711 110.966 108.964 111.07 109.222 111.169L109.367 110.787C109.085 110.695 108.819 110.591 108.586 110.488L108.619 110.483ZM122.079 111.045C121.821 111.128 121.564 111.211 121.302 111.286L121.418 111.681C121.684 111.602 121.946 111.518 122.208 111.431L122.079 111.045ZM110.132 111.045L110.003 111.431C110.265 111.518 110.527 111.602 110.793 111.681L110.905 111.265C110.614 111.232 110.352 111.149 110.099 111.065L110.132 111.045ZM120.521 111.46C120.259 111.523 119.997 111.581 119.731 111.635L119.81 112.051C120.08 111.996 120.35 111.938 120.616 111.872L120.521 111.46ZM111.69 111.46L111.595 111.876C111.861 111.942 112.131 112.001 112.401 112.055L112.48 111.639C112.181 111.631 111.919 111.573 111.657 111.51L111.69 111.46ZM118.933 111.764C118.667 111.805 118.397 111.839 118.127 111.868L118.173 112.283C118.447 112.254 118.721 112.217 119.004 112.175L118.933 111.764ZM113.278 111.764L113.219 112.179C113.49 112.221 113.764 112.258 114.051 112.287L114.092 111.872C113.78 111.897 113.51 111.859 113.244 111.818L113.278 111.764ZM117.321 111.93C117.044 111.947 116.774 111.959 116.511 111.967V112.383C116.789 112.383 117.063 112.383 117.342 112.346L117.321 111.93ZM114.89 111.93L114.865 112.346C115.139 112.346 115.414 112.375 115.696 112.383V111.967C115.397 112.021 115.127 112.009 114.857 111.992L114.89 111.93Z" fill="white"/>
<path d="M56.3356 5.60742H56.2401V6.0231H56.3356C56.5725 6.0231 56.8135 6.0231 57.0504 6.0231L57.0712 5.60742C56.826 5.61574 56.5808 5.60742 56.3356 5.60742ZM55.4214 5.60742H54.5903V6.0231H55.4214V5.60742ZM53.7842 5.60742H52.9531V6.0231H53.7842V5.60742ZM52.1428 5.60742H51.3117V6.0231H52.1428V5.60742ZM50.5055 5.60742H49.6744V6.0231H50.5055V5.60742ZM48.8641 5.60742H48.033V6.0231H48.8641V5.60742ZM47.2269 5.60742H46.3958V6.0231H47.2269V5.60742ZM45.5896 5.60742H44.7585V6.0231H45.5896V5.60742ZM43.9482 5.60742H43.1171V6.0231H43.9482V5.60742ZM42.3109 5.60742H41.4798V6.0231H42.3109V5.60742ZM40.6695 5.60742H40.5906C40.3371 5.60742 40.0878 5.60743 39.8426 5.62821L39.8634 6.04389C40.1044 6.04389 40.3454 6.04389 40.5906 6.04389H40.6695V5.60742ZM57.8981 5.69056L57.8524 6.10624C58.1225 6.1395 58.3926 6.1769 58.6544 6.21847L58.7209 5.80279C58.4508 5.76122 58.1765 5.72382 57.8981 5.69056ZM39.0115 5.69056C38.7372 5.71966 38.4588 5.75707 38.1804 5.80695L38.251 6.22263C38.5128 6.17691 38.7829 6.1395 39.0489 6.1104L39.0115 5.69056ZM59.5353 5.96491L59.4439 6.38059C59.7057 6.44295 59.9675 6.50945 60.2252 6.58427L60.3415 6.19353C60.0756 6.10208 59.7847 6.03141 59.5353 5.96906V5.96491ZM37.3742 5.96491C37.1083 6.02727 36.8382 6.09793 36.5722 6.17275L36.6844 6.56764C36.9462 6.49282 37.208 6.42216 37.4657 6.36396L37.3742 5.96491ZM61.131 6.43047L60.9939 6.81291C61.2474 6.90435 61.4967 7.00411 61.7419 7.10803L61.904 6.72976C61.6491 6.62723 61.3915 6.53023 61.131 6.43878V6.43047ZM35.7827 6.43047C35.5209 6.52608 35.2591 6.63 35.0056 6.73807L35.1677 7.11218C35.4129 7.00826 35.6663 6.9085 35.9198 6.81705L35.7827 6.43047ZM62.6561 7.07893L62.4774 7.44473C62.7184 7.56528 62.9553 7.69414 63.188 7.82715L63.3916 7.46967C63.1506 7.34081 62.9054 7.21195 62.6561 7.08724V7.07893ZM34.2493 7.07893C34.0041 7.19948 33.759 7.3325 33.518 7.46967L33.7216 7.82715C33.9543 7.69414 34.1953 7.56528 34.4322 7.44473L34.2493 7.07893ZM64.0981 7.91029L63.8737 8.2553C64.0981 8.40079 64.3225 8.5546 64.5385 8.71672L64.7795 8.38418C64.5593 8.22206 64.3308 8.0641 64.0981 7.89782V7.91029ZM32.8074 7.91029C32.5788 8.05994 32.3461 8.22206 32.1259 8.38418L32.3711 8.71672C32.5871 8.55599 32.8074 8.40218 33.0318 8.2553L32.8074 7.91029ZM65.4361 8.88715L65.1702 9.20307C65.3779 9.3735 65.5857 9.55224 65.7769 9.73514L66.0553 9.43585C65.8558 9.26126 65.6439 9.0742 65.4361 8.89962V8.88715ZM31.4735 8.88715C31.2615 9.06589 31.0579 9.25294 30.8502 9.44L31.1286 9.73929C31.3239 9.55639 31.5441 9.3735 31.7353 9.20307L31.4735 8.88715ZM66.6454 10.0095L66.3503 10.2921C66.5332 10.4834 66.716 10.687 66.8905 10.8949L67.2022 10.6288C67.0235 10.4418 66.849 10.234 66.6454 10.0344V10.0095ZM30.2601 10.0095C30.0689 10.209 29.8861 10.4252 29.7074 10.6288L30.0191 10.8949C30.1936 10.6912 30.3723 10.4792 30.5593 10.2921L30.2601 10.0095ZM67.7216 11.2565L67.3933 11.5059C67.5554 11.7179 67.7092 11.9216 67.8588 12.1669L68.1995 11.9382C68.0457 11.7553 67.8878 11.5267 67.7216 11.3022V11.2565ZM29.1921 11.2773C29.0259 11.4976 28.8638 11.7262 28.7142 11.9549L29.055 12.1793C29.2004 11.959 29.3583 11.7346 29.5204 11.5226L29.1921 11.2773ZM68.64 12.6449L68.2868 12.8527C68.4197 13.0814 68.5486 13.3225 68.6691 13.5635L69.0348 13.3765C68.9267 13.177 68.7771 12.9276 68.64 12.6906V12.6449ZM28.2738 12.6449C28.1366 12.8818 28.0037 13.1271 27.879 13.3765L28.2447 13.5594C28.3652 13.3225 28.494 13.0814 28.6311 12.8486L28.2738 12.6449ZM69.3921 14.1123L69.014 14.2785C69.122 14.5238 69.2217 14.7773 69.3132 15.0267L69.6996 14.8854C69.604 14.69 69.5002 14.4282 69.3921 14.1746V14.1123ZM27.5258 14.1123C27.4177 14.3617 27.3139 14.6235 27.2224 14.8812L27.6047 15.0226C27.6962 14.7704 27.7959 14.521 27.9039 14.2744L27.5258 14.1123ZM69.9614 15.6627L69.5708 15.7791C69.6456 16.0368 69.7162 16.2987 69.7786 16.5564L70.1941 16.465C70.1152 16.2738 70.0404 16.0036 69.9614 15.7417V15.6627ZM26.9565 15.6627C26.8775 15.9288 26.8069 16.199 26.7445 16.465L27.1601 16.5606C27.2183 16.2987 27.2889 16.0368 27.3679 15.7791L26.9565 15.6627ZM70.3437 17.2673L69.9282 17.3421C69.9739 17.604 70.0154 17.8742 70.0445 18.1402L70.4601 18.0903C70.4351 17.9074 70.3936 17.6289 70.3437 17.3546V17.2673ZM26.5742 17.2673C26.5285 17.5375 26.4869 17.816 26.4578 18.0986L26.8734 18.1443C26.9025 17.8783 26.944 17.6081 26.9897 17.3462L26.5742 17.2673ZM70.539 18.93H70.1235C70.1401 19.2071 70.1484 19.4842 70.1484 19.7613H70.564C70.5598 19.5618 70.5515 19.2833 70.539 19.009V18.93ZM26.3872 18.93C26.3706 19.2071 26.3623 19.4842 26.3623 19.7613H26.7778C26.7778 19.487 26.7778 19.2168 26.7986 18.9549L26.3872 18.93ZM26.8027 20.5678L26.3872 20.5927C26.3872 20.8671 26.4287 21.1456 26.4578 21.4241L26.8734 21.3783C26.836 21.1996 26.811 20.9211 26.7944 20.6551L26.8027 20.5678ZM26.9897 22.1723L26.5742 22.243C26.624 22.5131 26.6822 22.7875 26.7445 23.0743L27.1601 22.9787C27.0853 22.7875 27.0313 22.5215 26.9814 22.2596L26.9897 22.1723ZM27.3637 23.7394L26.9731 23.8599C27.0521 24.126 27.1393 24.392 27.2349 24.6497L27.6214 24.5084C27.5216 24.3463 27.4344 24.0844 27.372 23.8267L27.3637 23.7394ZM27.9122 25.3564L27.5382 25.5185C27.6463 25.7721 27.7668 26.0257 27.8915 26.2709L28.2571 26.088C28.1366 25.8386 28.0203 25.5933 27.9122 25.3564ZM28.6436 26.7988L28.2904 27.0025C28.4275 27.2436 28.5771 27.4805 28.7309 27.7092L29.0716 27.4847C28.922 27.2519 28.7766 27.0191 28.6436 26.7905V26.7988ZM29.537 28.1415L29.2087 28.3867C29.375 28.6112 29.5495 28.8315 29.7282 29.0393L30.0398 28.7733C29.8653 28.5613 29.6991 28.3493 29.537 28.1331V28.1415ZM30.58 29.3885L30.285 29.6712C30.472 29.8707 30.6715 30.0661 30.8751 30.2573L31.1535 29.9538C30.9582 29.7501 30.7629 29.5589 30.58 29.3677V29.3885ZM31.7602 30.4901L31.4984 30.806C31.7103 30.9847 31.914 31.1551 32.1508 31.3173L32.3918 30.9889C32.1799 30.8101 31.968 30.6397 31.7602 30.4693V30.4901ZM33.0567 31.4461L32.8323 31.7911C33.065 31.9408 33.3019 32.0863 33.5429 32.2068L33.7465 31.8535C33.5138 31.7163 33.2811 31.5916 33.0567 31.4253V31.4461ZM34.4363 32.2276L34.2535 32.5934C34.4987 32.7181 34.7521 32.8345 35.0056 32.9426L35.1677 32.5643C34.9433 32.4604 34.6981 32.344 34.4363 32.2276ZM35.9406 32.8386L35.7993 33.2252C36.0611 33.3208 36.3271 33.4081 36.593 33.4829L36.7052 33.0881C36.4517 33.0299 36.1941 32.9467 35.9406 32.8386ZM37.4864 33.2917L37.395 33.7074C37.6651 33.7698 37.9394 33.828 38.2261 33.8695L38.2968 33.4539C38.0142 33.4248 37.7607 33.3707 37.4864 33.3084V33.2917ZM39.078 33.5619L39.0323 33.9776C39.3065 34.0067 39.5849 34.0275 39.8634 34.0441L39.8841 33.6284C39.614 33.6284 39.3439 33.6077 39.078 33.5786V33.5619ZM67.7507 33.6409H66.9196V34.0566H67.7507V33.6409ZM66.1135 33.6409H65.2824V34.0566H66.1135V33.6409ZM64.4762 33.6409H63.6451V34.0566H64.4762V33.6409ZM62.8348 33.6409H62.0037V34.0566H62.8348V33.6409ZM61.1975 33.6409H60.3664V34.0566H61.1975V33.6409ZM59.5561 33.6409H58.725V34.0566H59.5561V33.6409ZM57.9189 33.6409H57.0878V34.0566H57.9189V33.6409ZM56.2567 33.6409H55.4256V34.0566H56.2567V33.6409ZM54.6194 33.6409H53.7883V34.0566H54.6194V33.6409ZM52.9822 33.6409H52.1511V34.0566H52.9822V33.6409ZM51.3408 33.6409H50.5097V34.0566H51.3408V33.6409ZM49.7035 33.6409H48.8724V34.0566H49.7035V33.6409ZM48.0621 33.6409H47.231V34.0566H48.0621V33.6409ZM46.4249 33.6409H45.5938V34.0566H46.4249V33.6409ZM44.7834 33.6409H43.9523V34.0566H44.7834V33.6409ZM43.1462 33.6409H42.3151V34.0566H43.1462V33.6409ZM41.5089 33.6409H40.6778V34.0566H41.5089V33.6409ZM68.5527 33.6409V34.0566H69.3838V33.6409H68.5527ZM70.2149 33.6409V34.0566H70.3728V33.6409H70.2149Z" fill="white"/>
<path d="M70.5596 19.8408H70.144V68.8911C70.144 74.7991 67.7978 80.4652 63.6215 84.6428C59.4453 88.8204 53.781 91.1674 47.8749 91.1674C41.9687 91.1674 36.3045 88.8204 32.1282 84.6428C27.9519 80.4652 25.6057 74.7991 25.6057 68.8911H25.1902C25.1902 74.9072 27.5793 80.6769 31.8319 84.9309C36.0846 89.1849 41.8524 91.5748 47.8666 91.5748C53.8807 91.5748 59.6485 89.1849 63.9012 84.9309C68.1538 80.6769 70.543 74.9072 70.543 68.8911L70.5596 19.8408Z" fill="white"/>
<path d="M0.631581 108.933H1.04297V109.344H0.631581V108.933Z" fill="white"/>
<path d="M13.0027 43.3682C12.7242 43.3682 12.4417 43.3682 12.1716 43.4014L12.2048 43.8171C12.4666 43.8171 12.7409 43.7839 13.011 43.7797L13.0027 43.3682ZM13.8337 43.3682L13.8088 43.7838C14.0748 43.7838 14.3449 43.8213 14.615 43.8545L14.6607 43.4388C14.3906 43.4264 14.1122 43.4014 13.8379 43.3848L13.8337 43.3682ZM11.3405 43.4762C11.0704 43.5137 10.7919 43.5635 10.5094 43.6217L10.5966 44.0374C10.8584 43.9792 11.1285 43.9335 11.3903 43.8961L11.3405 43.4762ZM15.4959 43.5719L15.417 43.9875C15.6788 44.0374 15.9447 44.0998 16.2065 44.1663L16.3104 43.7714C16.0361 43.7049 15.7619 43.6467 15.4918 43.5885L15.4959 43.5719ZM9.71152 43.8213C9.44557 43.9002 9.17962 43.9834 8.91782 44.079L9.05496 44.4614C9.30844 44.3741 9.56607 44.291 9.82371 44.2162L9.71152 43.8213ZM17.1082 43.9958L16.9794 44.3866C17.2329 44.4697 17.4864 44.5653 17.7357 44.6692L17.8895 44.291C17.6318 44.1995 17.3659 44.1039 17.1041 44.0125L17.1082 43.9958ZM8.14491 44.3824C7.89143 44.4947 7.63795 44.6152 7.39277 44.7441L7.57976 45.1057C7.81662 44.9852 8.0618 44.8688 8.30697 44.7607L8.14491 44.3824ZM18.6499 44.636L18.4712 45.0018C18.7081 45.1182 18.9491 45.247 19.1818 45.3842L19.3896 45.0309C19.1444 44.8937 18.8951 44.7732 18.6458 44.6526L18.6499 44.636ZM6.66557 45.1514C6.42455 45.2969 6.19183 45.4507 5.96744 45.6045L6.20014 45.9412C6.42038 45.7916 6.64478 45.6419 6.87749 45.5006L6.66557 45.1514ZM20.096 45.4715L19.8675 45.8124C20.0919 45.962 20.3121 46.12 20.5199 46.2862L20.7734 45.962C20.549 45.8082 20.308 45.6461 20.0919 45.4881L20.096 45.4715ZM5.29425 46.1408C5.08232 46.3153 4.87871 46.4982 4.66263 46.6853L4.93273 46.9721C5.13219 46.7892 5.34828 46.6105 5.54358 46.4442L5.29425 46.1408ZM21.4092 46.5273L21.1391 46.8349C21.3385 47.0137 21.5546 47.2007 21.725 47.3878L22.0159 47.101C21.8205 46.889 21.6169 46.6936 21.4092 46.5107V46.5273ZM4.0684 47.2714C3.87725 47.4709 3.69026 47.6871 3.51573 47.8949L3.83153 48.1568C4.00191 47.949 4.1806 47.7411 4.36759 47.5541L4.0684 47.2714ZM22.581 47.7162L22.2735 47.9822C22.448 48.1859 22.6184 48.3979 22.7763 48.6099L23.1046 48.3646C22.9384 48.1277 22.7638 47.9074 22.581 47.6996V47.7162ZM3.00459 48.5476C2.83837 48.7762 2.68046 49.0089 2.53502 49.2417L2.88409 49.4579C3.02537 49.2334 3.17498 49.0089 3.33288 48.7886L3.00459 48.5476ZM23.5866 49.0505L23.2417 49.275C23.3872 49.4995 23.5285 49.7281 23.6573 49.965L24.0146 49.7613C23.8817 49.4995 23.7362 49.2584 23.5866 49.0505ZM2.11531 49.9733C1.98233 50.2186 1.85769 50.468 1.74549 50.7216L2.11947 50.8878C2.22751 50.6467 2.34804 50.4015 2.47686 50.1645L2.11531 49.9733ZM24.4011 50.5012L24.0313 50.68C24.1476 50.9211 24.2557 51.1705 24.3554 51.4199L24.7377 51.2661C24.6338 50.9876 24.5216 50.734 24.4011 50.4805V50.5012ZM1.42551 51.4947C1.32994 51.7524 1.23851 52.0185 1.15956 52.2845L1.55017 52.4009C1.62913 52.1432 1.71639 51.8855 1.80781 51.6361L1.42551 51.4947ZM25.0161 52.0517L24.6296 52.1764C24.7086 52.4342 24.7834 52.696 24.8499 52.9538L25.2447 52.854C25.1782 52.5672 25.1034 52.297 25.0161 52.031V52.0517ZM0.943491 53.0909C0.885313 53.3611 0.831291 53.6355 0.78558 53.9223L1.20113 53.9888C1.24268 53.7228 1.29255 53.4567 1.35488 53.1949L0.943491 53.0909ZM25.4192 53.6729L25.0036 53.7436C25.0535 54.0054 25.0909 54.2756 25.12 54.5417L25.5355 54.4959C25.5106 54.2008 25.4691 53.9223 25.4192 53.6521V53.6729ZM0.685854 54.737C0.660921 55.0141 0.644276 55.2913 0.635963 55.5684H1.05151C1.05151 55.3023 1.07231 55.028 1.09724 54.762L0.685854 54.737ZM25.6187 55.3273L25.2031 55.3481C25.2031 55.5227 25.2031 55.7014 25.2031 55.8843V56.1587H25.6187V55.8843C25.6145 55.6765 25.6103 55.4894 25.602 55.3065L25.6187 55.3273ZM1.05983 56.3997H0.644283V57.2311H1.05983V56.3997ZM25.6145 56.9484H25.1989V57.7798H25.6145V56.9484ZM1.04322 58.0126H0.62767V58.8439H1.04322V58.0126ZM25.6145 58.6112H25.1989V59.4425H25.6145V58.6112ZM1.04322 59.6711H0.62767V60.5025H1.04322V59.6711ZM25.6145 60.2531H25.1989V61.0845H25.6145V60.2531ZM1.04322 61.3131H0.62767V62.1445H1.04322V61.3131ZM25.6145 61.895H25.1989V62.7264H25.6145V61.895ZM1.04322 62.955H0.62767V63.7864H1.04322V62.955ZM25.6145 63.537H25.1989V64.3683H25.6145V63.537ZM1.04322 64.597H0.62767V65.4283H1.04322V64.597ZM25.6145 65.1789H25.1989V66.0103H25.6145V65.1789ZM1.04322 66.2389H0.62767V67.0703H1.04322V66.2389ZM25.6145 66.8209H25.1989V67.6522H25.6145V66.8209ZM1.04322 67.8808H0.62767V68.7122H1.04322V67.8808ZM1.04322 69.5436H0.62767V70.3749H1.04322V69.5436ZM1.04322 71.2063H0.62767V72.0376H1.04322V71.2063ZM1.04322 72.8482H0.62767V73.6796H1.04322V72.8482ZM1.04322 74.5109H0.62767V75.3423H1.04322V74.5109ZM1.04322 76.1529H0.62767V76.9842H1.04322V76.1529ZM1.04322 77.8156H0.62767V78.647H1.04322V77.8156ZM1.04322 79.4783H0.62767V80.3097H1.04322V79.4783ZM1.04322 81.1203H0.62767V81.9516H1.04322V81.1203ZM1.04322 82.783H0.62767V83.6143H1.04322V82.783ZM1.04322 84.4457H0.62767V85.2771H1.04322V84.4457ZM1.04322 86.1084H0.62767V86.9398H1.04322V86.1084ZM1.04322 87.7712H0.62767V88.6025H1.04322V87.7712ZM1.04322 89.4131H0.62767V90.2444H1.04322V89.4131ZM1.04322 91.0758H0.62767V91.9072H1.04322V91.0758ZM1.04322 92.7177H0.62767V93.5491H1.04322V92.7177ZM1.04322 94.3805H0.62767V95.2118H1.04322V94.3805ZM1.04322 96.0432H0.62767V96.8745H1.04322V96.0432ZM1.04322 97.7059H0.62767V98.5373H1.04322V97.7059ZM1.04322 99.3686H0.62767V100.2H1.04322V99.3686ZM1.04322 101.011H0.62767V101.842H1.04322V101.011ZM1.04322 102.673H0.62767V103.505H1.04322V102.673ZM1.04322 104.336H0.62767V105.167H1.04322V104.336ZM1.04322 105.978H0.62767V106.809H1.04322V105.978ZM1.04322 107.641H0.62767V108.472H1.04322V107.641Z" fill="white"/>
<path d="M25.2029 68.4795H25.6143V68.891H25.2029V68.4795Z" fill="white"/>
<path d="M35.9363 99.252H20.6691C17.8037 99.252 15.0556 100.391 13.0294 102.417C11.0032 104.444 9.86491 107.193 9.86491 110.06H10.2805C10.2805 107.304 11.375 104.66 13.3232 102.711C15.2715 100.763 17.9139 99.6676 20.6691 99.6676H35.9363C37.3449 99.593 38.7539 99.8061 40.0774 100.294C41.401 100.782 42.6114 101.534 43.6348 102.505C44.6583 103.476 45.4733 104.645 46.0303 105.942C46.5873 107.238 46.8745 108.634 46.8745 110.045C46.8745 111.456 46.5873 112.852 46.0303 114.149C45.4733 115.445 44.6583 116.614 43.6348 117.585C42.6114 118.556 41.401 119.308 40.0774 119.796C38.7539 120.284 37.3449 120.497 35.9363 120.423H12.113C9.17804 120.419 6.36422 119.251 4.28888 117.175C2.21353 115.099 1.04616 112.285 1.04286 109.349H0.627312C0.630611 112.394 1.84133 115.313 3.99383 117.466C6.14632 119.62 9.06477 120.831 12.1089 120.834H35.9363C38.687 120.672 41.2718 119.465 43.1621 117.459C45.0523 115.454 46.1052 112.801 46.1052 110.045C46.1052 107.289 45.0523 104.637 43.1621 102.631C41.2718 100.625 38.687 99.4182 35.9363 99.2561V99.252Z" fill="white"/>
<path d="M9.88158 159.783H10.293V160.195H9.88158V159.783Z" fill="white"/>
<path d="M10.293 111.257H9.87742V112.088H10.293V111.257ZM10.293 112.878H9.87742V113.684H10.293V112.878ZM10.293 114.495H9.87742V115.301H10.293V114.495ZM10.293 116.112H9.87742V116.918H10.293V116.112ZM10.293 117.729H9.87742V118.54H10.293V117.729ZM10.293 119.346H9.87742V120.157H10.293V119.346ZM10.293 120.963H9.87742V121.794H10.293V120.963ZM10.293 122.58H9.87742V123.411H10.293V122.58ZM10.293 124.197H9.87742V125.028H10.293V124.197ZM10.293 125.818H9.87742V126.625H10.293V125.818ZM10.293 127.435H9.87742V128.242H10.293V127.435ZM10.293 129.052H9.87742V129.859H10.293V129.052ZM10.293 130.669H9.87742V131.476H10.293V130.669ZM10.293 132.286H9.87742V133.117H10.293V132.286ZM10.293 133.903H9.87742V134.734H10.293V133.903ZM10.293 135.52H9.87742V136.351H10.293V135.52ZM10.293 137.137H9.87742V137.968H10.293V137.137ZM10.293 138.758H9.87742V139.565H10.293V138.758ZM10.293 140.375H9.87742V141.182H10.293V140.375ZM10.293 141.992H9.87742V142.799H10.293V141.992ZM10.293 143.609H9.87742V144.416H10.293V143.609ZM10.293 145.226H9.87742V146.058H10.293V145.226ZM10.293 146.843H9.87742V147.675H10.293V146.843ZM10.293 148.46H9.87742V149.292H10.293V148.46ZM10.293 150.077H9.87742V150.909H10.293V150.077ZM10.293 151.698H9.87742V152.505H10.293V151.698ZM10.293 153.315H9.87742V154.122H10.293V153.315ZM10.293 154.932H9.87742V155.739H10.293V154.932ZM10.293 156.549H9.87742V157.356H10.293V156.549ZM10.293 158.166H9.87742V158.998H10.293V158.166Z" fill="white"/>
<path d="M9.88158 110.039H10.293V110.451H9.88158V110.039Z" fill="white"/>
<path d="M75.5337 56.6152H75.1181V57.4466H75.5337V56.6152ZM75.5337 58.253H75.1181V59.0844H75.5337V58.253ZM75.5337 59.8949H75.1181V60.7263H75.5337V59.8949ZM75.5337 61.5327H75.1181V62.3641H75.5337V61.5327ZM75.5337 63.1705H75.1181V64.0019H75.5337V63.1705ZM75.5337 64.8125H75.1181V65.6438H75.5337V64.8125ZM75.5337 66.4502H75.1181V67.2816H75.5337V66.4502ZM75.5337 68.0922H75.1181V68.9235H75.5337V68.0922ZM75.5337 69.7299H75.1181V70.5613H75.5337V69.7299ZM75.5337 71.3927H75.1181V72.224H75.5337V71.3927ZM75.5337 73.0304H75.1181V73.8618H75.5337V73.0304ZM75.5337 74.6682H75.1181V75.4996H75.5337V74.6682ZM75.5337 76.3102H75.1181V77.1415H75.5337V76.3102ZM75.5337 77.948H75.1181V78.7793H75.5337V77.948ZM75.5337 79.5899H75.1181V80.4212H75.5337V79.5899ZM75.5337 81.2277H75.1181V82.059H75.5337V81.2277ZM75.5337 82.8696H75.1181V83.701H75.5337V82.8696ZM75.5337 84.5074H75.1181V85.3387H75.5337V84.5074ZM75.5337 86.1452H75.1181V86.9765H75.5337V86.1452ZM75.5337 87.7871H75.1181V88.6185H75.5337V87.7871ZM75.5337 89.4249H75.1181V90.2562H75.5337V89.4249ZM75.5337 91.0668H75.1181V91.8982H75.5337V91.0668ZM75.5337 92.7046H75.1181V93.536H75.5337V92.7046ZM75.5337 94.3424H75.1181V95.1737H75.5337V94.3424ZM75.5337 96.0051H75.1181V96.8365H75.5337V96.0051ZM75.5337 97.6429H75.1181V98.4743H75.5337V97.6429ZM75.5337 99.3056H75.1181V100.137H75.5337V99.3056ZM75.5337 100.943H75.1181V101.775H75.5337V100.943ZM75.5337 102.585H75.1181V103.417H75.5337V102.585ZM75.5337 104.223H75.1181V105.054H75.5337V104.223ZM75.5337 105.861H75.1181V106.692H75.5337V105.861ZM75.5337 107.524H75.1181V108.355H75.5337V107.524ZM75.5337 109.161H75.1181V109.993H75.5337V109.161ZM75.5337 110.824H75.1181V111.655H75.5337V110.824ZM75.5337 112.462H75.1181V113.293H75.5337V112.462ZM75.5337 114.1H75.1181V114.931H75.5337V114.1ZM75.5337 115.762H75.1181V116.594H75.5337V115.762ZM75.5337 117.4H75.1181V118.232H75.5337V117.4ZM75.5337 119.063H75.1181V119.894H75.5337V119.063ZM75.5337 120.701H75.1181V121.532H75.5337V120.701ZM75.5337 122.363H75.1181V123.195H75.5337V122.363ZM75.5337 124.001H75.1181V124.833H75.5337V124.001ZM75.5337 125.639H75.1181V126.47H75.5337V125.639ZM75.5337 127.281H75.1181V128.112H75.5337V127.281ZM75.5337 128.919H75.1181V129.75H75.5337V128.919ZM75.5337 130.581H75.1181V131.413H75.5337V130.581ZM75.5337 132.219H75.1181V133.051H75.5337V132.219ZM75.5337 133.882H75.1181V134.713H75.5337V133.882ZM75.5337 135.52H75.1181V136.351H75.5337V135.52Z" fill="white"/>
<path d="M89.4961 0C87.4233 0.00219846 85.436 0.826551 83.97 2.29229C82.5039 3.75803 81.6788 5.74553 81.6755 7.81895V30.2657H82.091V7.81895C82.091 5.85327 82.8716 3.96812 84.2611 2.57817C85.6506 1.18823 87.5352 0.407371 89.5002 0.407371C91.4653 0.407371 93.3498 1.18823 94.7393 2.57817C96.1288 3.96812 96.9094 5.85327 96.9094 7.81895V41.3685C96.9072 43.3331 96.1258 45.2166 94.7366 46.6054C93.3475 47.9942 91.4642 48.7748 89.5002 48.7759H82.947C80.8736 48.7781 78.8857 49.6031 77.4195 51.0697C75.9533 52.5363 75.1287 54.5249 75.1265 56.599H75.542C75.5442 54.634 76.3255 52.7501 77.7145 51.3607C79.1035 49.9712 80.9868 49.1896 82.9512 49.1874H89.4961C91.5684 49.1852 93.5553 48.3608 95.0207 46.8949C96.4861 45.429 97.3103 43.4415 97.3125 41.3685V7.83558C97.3136 6.80769 97.1123 5.78964 96.7201 4.83958C96.3278 3.88951 95.7524 3.02603 95.0266 2.29843C94.3007 1.57083 93.4388 0.993364 92.4898 0.598999C91.5409 0.204634 90.5236 0.00109118 89.4961 0Z" fill="white"/>
<path d="M115.052 59.7125C115.052 59.3837 114.955 59.0622 114.772 58.7888C114.589 58.5153 114.33 58.3022 114.026 58.1764C113.722 58.0505 113.388 58.0176 113.066 58.0818C112.743 58.1459 112.447 58.3043 112.215 58.5368C111.982 58.7693 111.824 59.0656 111.76 59.3881C111.696 59.7107 111.729 60.045 111.854 60.3488C111.98 60.6526 112.193 60.9123 112.467 61.095C112.74 61.2777 113.061 61.3752 113.39 61.3752C113.831 61.3752 114.254 61.2001 114.565 60.8882C114.877 60.5764 115.052 60.1535 115.052 59.7125Z" fill="white"/>
<path d="M136.457 69.3518C136.458 69.0374 136.365 68.7298 136.191 68.4681C136.017 68.2063 135.769 68.0021 135.479 67.8814C135.189 67.7607 134.869 67.7289 134.561 67.7901C134.253 67.8512 133.969 68.0025 133.747 68.2248C133.525 68.4472 133.374 68.7305 133.313 69.0389C133.251 69.3473 133.283 69.6669 133.404 69.9572C133.525 70.2475 133.729 70.4955 133.99 70.6697C134.252 70.8438 134.559 70.9364 134.874 70.9356C135.293 70.9345 135.695 70.7673 135.992 70.4705C136.289 70.1737 136.456 69.7715 136.457 69.3518Z" fill="white"/>
<path d="M161.955 69.3518C161.956 69.0374 161.863 68.7298 161.689 68.4681C161.515 68.2063 161.267 68.0021 160.977 67.8814C160.687 67.7607 160.367 67.7289 160.059 67.7901C159.751 67.8512 159.467 68.0025 159.245 68.2248C159.023 68.4472 158.872 68.7305 158.811 69.0389C158.749 69.3473 158.781 69.6669 158.902 69.9572C159.023 70.2475 159.227 70.4955 159.488 70.6697C159.75 70.8438 160.058 70.9364 160.372 70.9356C160.791 70.9345 161.193 70.7673 161.49 70.4705C161.787 70.1737 161.954 69.7715 161.955 69.3518Z" fill="white"/>
<path d="M135.023 93.6864C134.349 93.6864 133.802 93.1392 133.802 92.4643C133.802 91.7893 134.349 91.2422 135.023 91.2422C135.698 91.2422 136.245 91.7893 136.245 92.4643C136.245 93.1392 135.698 93.6864 135.023 93.6864Z" fill="white"/>
<path d="M97.1426 63.8358C96.4678 63.8358 95.9209 63.2886 95.9209 62.6137C95.9209 61.9388 96.4678 61.3916 97.1426 61.3916C97.8173 61.3916 98.3643 61.9388 98.3643 62.6137C98.3643 63.2886 97.8173 63.8358 97.1426 63.8358Z" fill="white"/>
<path d="M83.1338 30.2988C83.1346 30.0559 83.0633 29.8182 82.9289 29.6159C82.7945 29.4136 82.6031 29.2558 82.379 29.1625C82.1548 29.0692 81.908 29.0445 81.6698 29.0917C81.4316 29.1389 81.2128 29.2558 81.0411 29.4275C80.8694 29.5993 80.7526 29.8181 80.7054 30.0564C80.6583 30.2947 80.6829 30.5416 80.7762 30.7658C80.8695 30.99 81.0272 31.1815 81.2295 31.3159C81.4317 31.4504 81.6693 31.5217 81.9121 31.5209C82.2358 31.5198 82.5459 31.3907 82.7747 31.1617C83.0036 30.9328 83.1327 30.6226 83.1338 30.2988Z" fill="white"/>
<path d="M75.3303 59.3091C74.4559 59.3091 73.7471 58.6 73.7471 57.7253C73.7471 56.8507 74.4559 56.1416 75.3303 56.1416C76.2047 56.1416 76.9136 56.8507 76.9136 57.7253C76.9136 58.6 76.2047 59.3091 75.3303 59.3091Z" fill="white"/>
<path d="M70.356 35.7482C69.2866 35.7482 68.4196 34.8809 68.4196 33.8111C68.4196 32.7413 69.2866 31.874 70.356 31.874C71.4255 31.874 72.2925 32.7413 72.2925 33.8111C72.2925 34.8809 71.4255 35.7482 70.356 35.7482Z" fill="white"/>
<path d="M70.3563 20.2269C69.5002 20.2269 68.8063 19.5328 68.8063 18.6765C68.8063 17.8201 69.5002 17.126 70.3563 17.126C71.2123 17.126 71.9062 17.8201 71.9062 18.6765C71.9062 19.5328 71.2123 20.2269 70.3563 20.2269Z" fill="white"/>
<path d="M26.9941 68.1179C26.9941 67.8047 26.9013 67.4985 26.7273 67.2381C26.5533 66.9776 26.3061 66.7746 26.0168 66.6548C25.7275 66.5349 25.4091 66.5035 25.102 66.5646C24.7949 66.6257 24.5128 66.7766 24.2914 66.998C24.07 67.2195 23.9192 67.5017 23.8581 67.809C23.797 68.1162 23.8284 68.4346 23.9482 68.724C24.068 69.0134 24.2709 69.2607 24.5313 69.4348C24.7917 69.6088 25.0978 69.7017 25.4109 69.7017C25.619 69.7022 25.8251 69.6616 26.0174 69.5822C26.2098 69.5028 26.3845 69.3862 26.5316 69.239C26.6788 69.0919 26.7954 68.917 26.8747 68.7247C26.9541 68.5323 26.9947 68.3261 26.9941 68.1179Z" fill="white"/>
<path d="M11.6729 120.377C11.6729 120.063 11.5796 119.756 11.405 119.494C11.2304 119.233 10.9823 119.03 10.692 118.91C10.4017 118.789 10.0823 118.758 9.77424 118.82C9.46621 118.881 9.18337 119.033 8.96154 119.256C8.7397 119.478 8.58885 119.761 8.52807 120.07C8.46729 120.378 8.49932 120.697 8.6201 120.987C8.74088 121.278 8.94499 121.525 9.20658 121.699C9.46817 121.873 9.77549 121.966 10.0896 121.965C10.5099 121.964 10.9126 121.796 11.2094 121.498C11.5062 121.201 11.6729 120.797 11.6729 120.377Z" fill="white"/>
<path d="M11.6729 159.987C11.6729 159.673 11.5796 159.366 11.405 159.105C11.2304 158.843 10.9823 158.64 10.692 158.52C10.4017 158.4 10.0823 158.369 9.77424 158.43C9.46621 158.492 9.18337 158.643 8.96154 158.866C8.7397 159.088 8.58885 159.372 8.52807 159.68C8.46729 159.988 8.49932 160.308 8.6201 160.598C8.74088 160.888 8.94499 161.136 9.20658 161.31C9.46817 161.484 9.77549 161.576 10.0896 161.575C10.5099 161.574 10.9126 161.406 11.2094 161.109C11.5062 160.811 11.6729 160.408 11.6729 159.987Z" fill="white"/>
<path d="M10.0893 110.754C9.49487 110.754 9.013 110.272 9.013 109.677C9.013 109.083 9.49487 108.601 10.0893 108.601C10.6837 108.601 11.1655 109.083 11.1655 109.677C11.1655 110.272 10.6837 110.754 10.0893 110.754Z" fill="white"/>
<path d="M1.66211 109.345C1.66211 109.181 1.61338 109.02 1.52206 108.883C1.43073 108.746 1.30093 108.64 1.14907 108.577C0.997205 108.514 0.830087 108.498 0.66887 108.53C0.507654 108.562 0.359561 108.641 0.24333 108.757C0.1271 108.873 0.0479684 109.022 0.0159005 109.183C-0.0161675 109.344 0.000273466 109.511 0.063177 109.663C0.126081 109.815 0.23261 109.945 0.369283 110.036C0.505955 110.128 0.666641 110.176 0.831016 110.176C1.05144 110.176 1.26282 110.089 1.41868 109.933C1.57454 109.777 1.66211 109.566 1.66211 109.345Z" fill="white"/>
<path d="M75.3303 138.081C74.4559 138.081 73.7471 137.372 73.7471 136.497C73.7471 135.622 74.4559 134.913 75.3303 134.913C76.2047 134.913 76.9136 135.622 76.9136 136.497C76.9136 137.372 76.2047 138.081 75.3303 138.081Z" fill="white"/>
</g>
</svg>
