<svg width="706" height="705" viewBox="0 0 706 705" fill="none" xmlns="http://www.w3.org/2000/svg">
<g opacity="0.3">
<path d="M494.556 255.019H492.746C492.746 256.232 492.746 257.464 492.872 258.641L494.683 258.514C494.611 257.373 494.556 256.196 494.556 255.019ZM495.081 262.01L493.271 262.263C493.452 263.459 493.687 264.672 493.959 265.886L495.769 265.487C495.48 264.31 495.262 263.151 495.081 262.01ZM496.638 268.82L494.936 269.363C495.299 270.504 495.715 271.664 496.15 272.787L497.815 272.135C497.381 271.048 497.001 269.871 496.638 268.82ZM499.228 275.34L497.634 276.119C498.159 277.188 498.739 278.275 499.354 279.325L500.893 278.419C500.296 277.405 499.735 276.373 499.228 275.304V275.34ZM502.849 281.372L501.382 282.404C502.07 283.382 502.795 284.378 503.555 285.302L504.949 284.179C504.134 283.274 503.428 282.332 502.776 281.372H502.849ZM507.249 286.805L505.945 288.037C506.778 288.906 507.647 289.848 508.534 290.573L509.747 289.269C508.824 288.49 507.973 287.675 507.176 286.823L507.249 286.805ZM512.355 291.605L511.25 293.018C512.192 293.761 513.188 294.485 514.183 295.155L515.179 293.67C514.22 292.945 513.26 292.257 512.355 291.605ZM518.167 295.499L517.28 297.057C518.33 297.655 519.416 298.216 520.521 298.723L521.227 297.039C520.213 296.532 519.163 296.006 518.167 295.427V295.499ZM524.504 298.47L523.87 300.136C524.993 300.571 526.152 300.951 527.311 301.295L527.818 299.574C526.659 299.176 525.59 298.85 524.504 298.397V298.47ZM531.203 300.444L530.841 302.255C532.018 302.509 533.231 302.726 534.463 302.889L534.698 301.078C533.503 300.806 532.344 300.661 531.203 300.371V300.444ZM538.138 301.386L538.048 303.197C539.007 303.197 540.003 303.197 540.908 303.197H541.651V301.386H540.908H538.138ZM698.777 301.386H695.156V303.197H698.777V301.386ZM691.625 301.386H688.004V303.197H691.625V301.386ZM684.492 301.386H680.87V303.197H684.492V301.386ZM677.358 301.386H673.736V303.197H677.358V301.386ZM670.206 301.386H666.584V303.197H670.206V301.386ZM663.072 301.386H659.451V303.197H663.072V301.386ZM655.829 301.386H652.208V303.197H655.829V301.386ZM648.695 301.386H645.074V303.197H648.695V301.386ZM641.543 301.386H637.922V303.197H641.543V301.386ZM634.409 301.386H630.788V303.197H634.409V301.386ZM627.276 301.386H623.654V303.197H627.276V301.386ZM620.033 301.386H616.412V303.197H620.033V301.386ZM612.899 301.386H609.278V303.197H612.899V301.386ZM605.747 301.386H602.126V303.197H605.747V301.386ZM598.613 301.386H594.992V303.197H598.613V301.386ZM591.371 301.386H587.749V303.197H591.371V301.386ZM584.237 301.386H580.616V303.197H584.237V301.386ZM577.103 301.386H573.482V303.197H577.103V301.386ZM569.951 301.386H566.33V303.197H569.951V301.386ZM562.817 301.386H559.196V303.197H562.817V301.386ZM555.575 301.386H551.953V303.197H555.575V301.386ZM548.441 301.386H544.819V303.197H548.441V301.386Z" fill="white"/>
<path d="M540.908 30.791C528.149 30.8054 515.916 35.8821 506.894 44.9074C497.871 53.9327 492.796 66.1694 492.782 78.9331V255.019H494.592V78.8787C494.471 72.7138 495.579 66.5865 497.854 60.8554C500.128 55.1243 503.522 49.9045 507.837 45.5015C512.153 41.0985 517.303 37.6008 522.986 35.213C528.669 32.8252 534.771 31.5953 540.936 31.5953C547.1 31.5953 553.202 32.8252 558.885 35.213C564.568 37.6008 569.718 41.0985 574.034 45.5015C578.349 49.9045 581.743 55.1243 584.018 60.8554C586.292 66.5865 587.401 72.7138 587.279 78.8787V406.491H589.089V78.8787C589.061 66.1151 583.972 53.8841 574.939 44.869C565.907 35.8539 553.668 30.791 540.908 30.791Z" fill="white"/>
<path d="M424.014 273.783H422.203V277.406H424.014V273.783ZM424.014 280.919H422.203V284.542H424.014V280.919ZM424.014 288.056H422.203V291.678H424.014V288.056ZM424.014 295.3H422.203V298.923H424.014V295.3ZM424.014 302.437H422.203V306.059H424.014V302.437ZM424.014 309.681H422.203V313.304H424.014V309.681ZM424.014 316.818H422.203V320.44H424.014V316.818ZM424.014 323.954H422.203V327.576H424.014V323.954ZM424.014 331.199H422.203V334.821H424.014V331.199ZM424.014 338.335H422.203V341.957H424.014V338.335ZM424.014 345.58H422.203V349.202H424.014V345.58ZM424.014 352.716H422.203V356.338H424.014V352.716ZM424.014 359.961H422.203V363.583H424.014V359.961ZM424.014 367.097H422.203V370.719H424.014V367.097ZM424.014 374.233H422.203V377.856H424.014V374.233ZM424.014 381.478H422.203V385.1H424.014V381.478ZM424.014 388.614H422.203V392.237H424.014V388.614ZM424.014 395.859H422.203V399.481H424.014V395.859ZM424.014 402.995H422.203V406.618H424.014V402.995ZM587.206 409.86C587.206 411.055 587.098 412.214 587.007 413.392L588.818 413.518C588.908 412.341 588.963 411.128 589.017 409.896L587.206 409.86ZM424.068 410.113H422.258C422.258 411.327 422.366 412.522 422.457 413.736L424.267 413.591C424.177 411.834 424.104 410.657 424.068 409.479V410.113ZM586.663 416.905C586.536 418.083 586.373 419.242 586.174 420.401L587.985 420.691C588.184 419.514 588.347 418.318 588.492 417.068L586.663 416.905ZM424.63 417.141L422.819 417.358C422.964 418.572 423.127 419.749 423.326 420.981L425.137 420.673C424.937 418.861 424.774 417.684 424.63 416.579V417.141ZM585.54 423.879C585.287 425.038 585.034 426.179 584.744 427.32L586.464 427.754C586.754 426.595 587.025 425.418 587.279 424.241L585.54 423.879ZM425.788 424.114L423.978 424.476C424.231 425.672 424.503 426.831 424.811 427.99L426.621 427.555C426.295 425.78 426.024 424.639 425.788 423.48V424.114ZM583.784 430.725C583.458 431.848 583.078 432.971 582.698 434.076L584.382 434.673C584.78 433.532 585.16 432.391 585.504 431.232L583.784 430.725ZM427.545 430.96L425.843 431.467C426.187 432.627 426.567 433.786 426.965 434.909L428.649 434.311C428.251 432.572 427.889 431.449 427.545 430.326V430.96ZM581.448 437.39C581.014 438.477 580.543 439.564 580.072 440.632L581.702 441.357C582.191 440.27 582.662 439.165 583.096 438.042L581.448 437.39ZM429.88 437.626L428.233 438.296C428.685 439.419 429.156 440.524 429.645 441.628L431.275 440.886C430.804 439.183 430.351 438.097 429.898 436.992L429.88 437.626ZM578.551 443.802C578.026 444.852 577.465 445.903 576.904 446.917L578.461 447.787C579.04 446.754 579.602 445.686 580.145 444.617L578.551 443.802ZM432.814 444.074L431.22 444.87C431.763 445.957 432.343 447.008 432.922 448.058L434.479 447.189C433.918 445.559 433.375 444.49 432.832 443.44L432.814 444.074ZM575.111 449.96C574.496 450.956 573.844 451.952 573.192 452.93L574.677 453.927C575.347 452.93 575.998 451.934 576.632 450.902L575.111 449.96ZM436.29 450.232L434.769 451.173C435.403 452.206 436.073 453.202 436.743 454.198L438.227 453.184C437.576 451.59 436.924 450.594 436.308 449.598L436.29 450.232ZM571.146 455.81C570.434 456.752 569.71 457.676 568.973 458.581L570.367 459.704C571.128 458.781 571.87 457.893 572.576 456.861L571.146 455.81ZM440.273 456.064L438.843 457.132C439.567 458.092 440.31 459.052 441.07 459.976L442.464 458.835C441.722 457.295 440.998 456.426 440.292 455.43L440.273 456.064ZM566.692 461.28C565.913 462.168 565.117 463.091 564.302 463.87L565.587 465.102C566.42 464.25 567.235 463.291 568.032 462.457L566.692 461.28ZM444.764 461.534L443.424 462.711C444.221 463.617 445.054 464.522 445.886 465.355L447.172 464.106C446.357 462.638 445.56 461.86 444.782 460.9L444.764 461.534ZM561.785 466.351C560.934 467.167 560.065 467.963 559.178 468.724L560.355 470.083C561.26 469.286 562.165 468.471 563.016 467.656L561.785 466.351ZM449.689 466.587L448.457 467.891C449.345 468.706 450.268 469.521 451.137 470.3L452.314 468.941C451.427 467.547 450.612 466.768 449.707 465.953L449.689 466.587ZM556.516 470.988C555.593 471.731 554.705 472.437 553.71 473.144L554.76 474.574C555.737 473.868 556.697 473.144 557.639 472.383L556.516 470.988ZM455.121 471.205L454.016 472.6C454.958 473.343 455.917 474.067 456.877 474.774L457.855 472.727C456.913 472.002 456.044 471.296 455.048 470.572L455.121 471.205ZM550.776 474.538C549.799 475.19 548.803 475.794 547.789 476.349L548.712 477.871C549.744 477.255 550.758 476.603 551.754 475.933L550.776 474.538ZM460.77 474.719L459.774 476.204C460.788 476.875 461.802 477.509 462.834 478.124L463.739 476.603C462.743 475.969 461.748 475.353 460.77 474.701V474.719ZM544.765 478.161C543.733 478.722 542.701 479.265 541.633 479.791L542.429 481.403C543.498 480.859 544.584 480.316 545.634 479.736L544.765 478.161ZM466.908 478.306L466.057 479.881C467.107 480.443 468.175 481.004 469.262 481.529L470.04 479.917C468.881 479.428 467.849 478.885 466.817 478.324L466.908 478.306ZM538.464 481.276C537.378 481.765 536.291 482.2 535.187 482.634L535.839 484.301C536.961 483.866 538.084 483.395 539.188 482.924L538.464 481.276ZM473.281 481.403L472.575 483.033C473.68 483.504 474.784 483.956 475.907 484.391L476.54 482.725C475.309 482.326 474.15 481.874 473.136 481.421L473.281 481.403ZM531.928 483.848C530.805 484.21 529.682 484.572 528.542 484.898L529.049 486.619C530.208 486.275 531.348 485.913 532.489 485.532L531.928 483.848ZM479.872 483.848L479.311 485.532C480.451 485.913 481.592 486.275 482.751 486.619L483.24 484.808C481.972 484.663 480.832 484.301 479.727 483.938L479.872 483.848ZM525.138 485.659C523.997 485.931 522.856 486.184 521.698 486.42L522.042 488.231C523.219 487.995 524.395 487.742 525.554 487.452L525.138 485.659ZM486.662 485.659L486.245 487.47C487.404 487.76 488.581 488.014 489.758 488.249L490.102 486.438C488.798 486.402 487.658 486.148 486.517 485.876L486.662 485.659ZM518.221 486.981C517.062 487.162 515.885 487.307 514.709 487.434L514.908 489.245C516.103 489.118 517.298 488.955 518.529 488.774L518.221 486.981ZM493.578 486.981L493.325 488.792C494.502 488.974 495.697 489.137 496.946 489.263L497.127 487.452C495.769 487.561 494.592 487.398 493.434 487.217L493.578 486.981ZM511.196 487.706C509.989 487.778 508.812 487.832 507.665 487.869V489.68C508.878 489.68 510.073 489.68 511.286 489.517L511.196 487.706ZM500.604 487.706L500.495 489.517C501.69 489.517 502.885 489.644 504.116 489.68V487.869C502.813 488.104 501.636 488.05 500.459 487.977L500.604 487.706Z" fill="white"/>
<path d="M245.467 24.4336H245.051V26.2448H245.467C246.5 26.2448 247.55 26.2448 248.582 26.2448L248.672 24.4336C247.604 24.4698 246.536 24.4336 245.467 24.4336ZM241.484 24.4336H237.863V26.2448H241.484V24.4336ZM234.35 24.4336H230.729V26.2448H234.35V24.4336ZM227.198 24.4336H223.577V26.2448H227.198V24.4336ZM220.064 24.4336H216.443V26.2448H220.064V24.4336ZM212.912 24.4336H209.291V26.2448H212.912V24.4336ZM205.778 24.4336H202.157V26.2448H205.778V24.4336ZM198.644 24.4336H195.023V26.2448H198.644V24.4336ZM191.493 24.4336H187.871V26.2448H191.493V24.4336ZM184.359 24.4336H180.737V26.2448H184.359V24.4336ZM177.207 24.4336H176.863C175.758 24.4336 174.672 24.4336 173.603 24.5242L173.694 26.3354C174.744 26.3354 175.794 26.3354 176.863 26.3354H177.207V24.4336ZM252.275 24.7959L252.076 26.6071C253.253 26.752 254.43 26.915 255.571 27.0961L255.86 25.2849C254.684 25.1037 253.489 24.9408 252.275 24.7959ZM169.982 24.7959C168.787 24.9226 167.574 25.0857 166.361 25.303L166.669 27.1142C167.809 26.915 168.986 26.752 170.145 26.6252L169.982 24.7959ZM259.409 25.9913L259.011 27.8025C260.152 28.0742 261.292 28.3639 262.415 28.69L262.922 26.9874C261.763 26.5889 260.496 26.281 259.409 26.0093V25.9913ZM162.848 25.9913C161.689 26.2629 160.513 26.5709 159.354 26.8969L159.843 28.6175C160.983 28.2915 162.124 27.9836 163.247 27.73L162.848 25.9913ZM266.362 28.0198L265.765 29.6862C266.869 30.0846 267.955 30.5193 269.024 30.9721L269.73 29.3239C268.619 28.8771 267.497 28.4545 266.362 28.056V28.0198ZM155.914 28.0198C154.773 28.4364 153.632 28.8892 152.528 29.3601L153.234 30.9902C154.302 30.5374 155.407 30.1027 156.511 29.7042L155.914 28.0198ZM273.007 30.8453L272.229 32.4392C273.279 32.9644 274.311 33.5259 275.325 34.1055L276.212 32.5479C275.162 31.9864 274.094 31.4249 273.007 30.8815V30.8453ZM149.232 30.8453C148.164 31.3706 147.096 31.9502 146.046 32.5479L146.933 34.1055C147.947 33.5259 148.997 32.9644 150.029 32.4392L149.232 30.8453ZM279.29 34.4677L278.312 35.971C279.29 36.6049 280.268 37.2751 281.209 37.9815L282.259 36.5325C281.3 35.8262 280.304 35.1379 279.29 34.4134V34.4677ZM142.949 34.4677C141.954 35.1198 140.94 35.8262 139.98 36.5325L141.048 37.9815C141.99 37.2812 142.949 36.611 143.927 35.971L142.949 34.4677ZM285.12 38.7241L283.961 40.1006C284.867 40.8432 285.772 41.6221 286.605 42.419L287.818 41.1149C286.949 40.3542 286.026 39.5391 285.12 38.7784V38.7241ZM137.137 38.7241C136.214 39.5029 135.327 40.3179 134.421 41.133L135.634 42.4371C136.485 41.6401 137.445 40.8432 138.278 40.1006L137.137 38.7241ZM290.389 43.6143L289.104 44.846C289.9 45.6792 290.697 46.5666 291.458 47.4722L292.815 46.3131C292.037 45.498 291.276 44.5925 290.389 43.7231V43.6143ZM131.85 43.6143C131.017 44.4837 130.221 45.4256 129.442 46.3131L130.8 47.4722C131.561 46.5847 132.339 45.6611 133.154 44.846L131.85 43.6143ZM295.079 49.048L293.648 50.1347C294.355 51.0584 295.024 51.9459 295.676 53.0146L297.161 52.0184C296.491 51.2215 295.803 50.2253 295.079 49.2472V49.048ZM127.197 49.1386C126.473 50.0985 125.767 51.0947 125.115 52.0909L126.599 53.0689C127.233 52.1089 127.921 51.1309 128.627 50.2072L127.197 49.1386ZM299.08 55.0975L297.541 56.0031C298.121 56.9993 298.682 58.0498 299.207 59.1003L300.8 58.2852C300.33 57.4158 299.678 56.3291 299.08 55.2967V55.0975ZM123.195 55.0975C122.598 56.1299 122.019 57.1985 121.475 58.2852L123.069 59.0821C123.594 58.0497 124.155 56.9992 124.753 55.985L123.195 55.0975ZM302.358 61.4911L300.71 62.2155C301.181 63.2842 301.615 64.389 302.013 65.4757L303.697 64.8599C303.281 64.0086 302.828 62.8676 302.358 61.7627V61.4911ZM119.936 61.4911C119.465 62.5778 119.013 63.7188 118.615 64.8418L120.28 65.4576C120.679 64.3588 121.113 63.2721 121.584 62.1974L119.936 61.4911ZM304.838 68.2469L303.136 68.754C303.462 69.877 303.77 71.018 304.041 72.141L305.852 71.7425C305.508 70.9093 305.182 69.7321 304.838 68.591V68.2469ZM117.456 68.2469C117.112 69.406 116.804 70.5833 116.532 71.7425L118.343 72.1591C118.596 71.018 118.904 69.877 119.248 68.754L117.456 68.2469ZM306.504 75.2382L304.693 75.5642C304.892 76.7053 305.073 77.8826 305.2 79.0417L307.011 78.8244C306.902 78.0274 306.721 76.8139 306.504 75.6185V75.2382ZM115.79 75.2382C115.591 76.4155 115.41 77.629 115.283 78.8606L117.094 79.0598C117.22 77.9006 117.401 76.7234 117.601 75.5823L115.79 75.2382ZM307.355 82.483H305.544C305.617 83.6905 305.653 84.898 305.653 86.1055H307.464C307.445 85.2361 307.409 84.0226 307.355 82.8272V82.483ZM114.975 82.483C114.903 83.6905 114.867 84.898 114.867 86.1055H116.677C116.677 84.9101 116.677 83.7328 116.768 82.5917L114.975 82.483ZM116.786 89.6192L114.975 89.7279C114.975 90.9233 115.156 92.1368 115.283 93.3503L117.094 93.1511C116.931 92.3722 116.822 91.1587 116.75 89.9996L116.786 89.6192ZM117.601 96.6105L115.79 96.9184C116.007 98.0957 116.261 99.2911 116.532 100.541L118.343 100.124C118.017 99.2911 117.782 98.1319 117.564 96.9908L117.601 96.6105ZM119.23 103.439L117.528 103.964C117.872 105.123 118.252 106.282 118.669 107.405L120.353 106.79C119.918 106.083 119.538 104.942 119.266 103.819L119.23 103.439ZM121.62 110.484L119.991 111.191C120.461 112.296 120.986 113.4 121.53 114.469L123.123 113.672C122.598 112.585 122.091 111.517 121.62 110.484ZM124.807 116.769L123.268 117.657C123.865 118.707 124.517 119.74 125.187 120.736L126.672 119.758C126.02 118.744 125.386 117.729 124.807 116.733V116.769ZM128.7 122.62L127.269 123.688C127.994 124.666 128.754 125.626 129.533 126.532L130.891 125.373C130.13 124.449 129.406 123.525 128.7 122.583V122.62ZM133.244 128.053L131.959 129.285C132.774 130.154 133.643 131.005 134.53 131.839L135.743 130.516C134.892 129.629 134.041 128.796 133.244 127.963V128.053ZM138.387 132.853L137.246 134.229C138.169 135.008 139.057 135.751 140.089 136.457L141.139 135.026C140.215 134.248 139.292 133.505 138.387 132.762V132.853ZM144.036 137.019L143.058 138.522C144.072 139.174 145.104 139.808 146.154 140.333L147.041 138.794C146.027 138.196 145.014 137.653 144.036 136.928V137.019ZM150.047 140.424L149.25 142.018C150.319 142.561 151.423 143.068 152.528 143.539L153.234 141.891C152.256 141.438 151.188 140.931 150.047 140.424ZM156.602 143.086L155.986 144.771C157.127 145.187 158.285 145.568 159.444 145.894L159.933 144.173C158.829 143.919 157.706 143.557 156.602 143.086ZM163.337 145.06L162.939 146.872C164.116 147.143 165.311 147.397 166.56 147.578L166.868 145.767C165.637 145.64 164.532 145.405 163.337 145.133V145.06ZM170.272 146.238L170.073 148.049C171.268 148.176 172.481 148.266 173.694 148.339L173.784 146.528C172.608 146.528 171.431 146.437 170.272 146.31V146.238ZM295.206 146.582H291.584V148.393H295.206V146.582ZM288.072 146.582H284.45V148.393H288.072V146.582ZM280.938 146.582H277.316V148.393H280.938V146.582ZM273.786 146.582H270.164V148.393H273.786V146.582ZM266.652 146.582H263.031V148.393H266.652V146.582ZM259.5 146.582H255.879V148.393H259.5V146.582ZM252.366 146.582H248.745V148.393H252.366V146.582ZM245.123 146.582H241.502V148.393H245.123V146.582ZM237.99 146.582H234.368V148.393H237.99V146.582ZM230.856 146.582H227.234V148.393H230.856V146.582ZM223.704 146.582H220.082V148.393H223.704V146.582ZM216.57 146.582H212.948V148.393H216.57V146.582ZM209.418 146.582H205.796V148.393H209.418V146.582ZM202.284 146.582H198.663V148.393H202.284V146.582ZM195.132 146.582H191.511V148.393H195.132V146.582ZM187.998 146.582H184.377V148.393H187.998V146.582ZM180.864 146.582H177.243V148.393H180.864V146.582ZM298.7 146.582V148.393H302.321V146.582H298.7ZM305.943 146.582V148.393H306.631V146.582H305.943Z" fill="white"/>
<path d="M307.445 86.4492H305.635V300.172C305.635 325.915 295.412 350.603 277.215 368.806C259.018 387.009 234.337 397.235 208.603 397.235C182.869 397.235 158.188 387.009 139.991 368.806C121.794 350.603 111.571 325.915 111.571 300.172H109.761C109.761 326.386 120.17 351.526 138.7 370.061C157.23 388.597 182.362 399.01 208.567 399.01C234.772 399.01 259.904 388.597 278.433 370.061C296.963 351.526 307.373 326.386 307.373 300.172L307.445 86.4492Z" fill="white"/>
<path d="M2.75217 474.646H4.54468V476.44H2.75217V474.646Z" fill="white"/>
<path d="M56.6547 188.964C55.4416 188.964 54.2104 188.964 53.0334 189.109L53.1783 190.92C54.319 190.92 55.514 190.775 56.6909 190.757L56.6547 188.964ZM60.276 188.964L60.1673 190.775C61.3261 190.775 62.503 190.938 63.6799 191.083L63.8791 189.272C62.7022 189.217 61.4891 189.109 60.294 189.036L60.276 188.964ZM49.4122 189.435C48.2353 189.598 47.0221 189.815 45.7909 190.069L46.1711 191.88C47.3118 191.626 48.4887 191.427 49.6294 191.264L49.4122 189.435ZM67.5185 189.851L67.1745 191.663C68.3152 191.88 69.474 192.152 70.6147 192.441L71.0673 190.721C69.8723 190.431 68.6773 190.177 67.5004 189.924L67.5185 189.851ZM42.3145 190.938C41.1557 191.282 39.9969 191.645 38.8562 192.061L39.4537 193.727C40.5582 193.347 41.6807 192.985 42.8033 192.659L42.3145 190.938ZM74.5437 191.699L73.9824 193.401C75.0869 193.764 76.1914 194.18 77.2778 194.633L77.9477 192.985C76.8251 192.586 75.6663 192.17 74.5256 191.771L74.5437 191.699ZM35.4884 193.383C34.3839 193.872 33.2794 194.398 32.2112 194.959L33.0259 196.535C34.058 196.01 35.1263 195.502 36.1945 195.031L35.4884 193.383ZM81.2612 194.488L80.4826 196.082C81.5146 196.589 82.5649 197.151 83.5788 197.748L84.4841 196.209C83.4158 195.611 82.3295 195.086 81.2431 194.561L81.2612 194.488ZM29.0426 196.734C27.9924 197.368 26.9784 198.038 26.0007 198.708L27.0146 200.175C27.9742 199.523 28.952 198.871 29.966 198.255L29.0426 196.734ZM87.5622 198.129L86.5663 199.614C87.5441 200.266 88.5037 200.954 89.409 201.679L90.5135 200.266C89.5358 199.596 88.4856 198.889 87.5441 198.201L87.5622 198.129ZM23.0674 201.045C22.144 201.805 21.2568 202.602 20.3153 203.417L21.4922 204.667C22.3613 203.87 23.3028 203.091 24.1538 202.367L23.0674 201.045ZM93.2838 202.729L92.1069 204.069C92.976 204.848 93.9175 205.663 94.6599 206.478L95.9273 205.229C95.0763 204.305 94.1891 203.454 93.2838 202.657V202.729ZM17.7261 205.971C16.8932 206.841 16.0785 207.782 15.318 208.688L16.694 209.829C17.4364 208.923 18.215 208.018 19.0298 207.203L17.7261 205.971ZM98.3898 207.909L97.0499 209.068C97.8104 209.956 98.5527 210.88 99.2408 211.803L100.671 210.735C99.9469 209.702 99.1864 208.742 98.3898 207.837V207.909ZM13.0908 211.532C12.3666 212.528 11.6785 213.542 11.0448 214.556L12.5658 215.498C13.1814 214.52 13.8333 213.542 14.5213 212.582L13.0908 211.532ZM102.772 213.723L101.269 214.701C101.902 215.679 102.518 216.675 103.079 217.708L104.636 216.82C104.057 215.679 103.423 214.629 102.772 213.723ZM9.21606 217.744C8.63666 218.813 8.09355 219.899 7.60468 221.004L9.23418 221.729C9.70495 220.678 10.2301 219.61 10.7914 218.577L9.21606 217.744ZM106.32 220.044L104.709 220.823C105.216 221.874 105.687 222.96 106.121 224.047L107.787 223.377C107.334 222.163 106.845 221.059 106.32 219.954V220.044ZM6.21046 224.373C5.79401 225.496 5.39565 226.655 5.05163 227.814L6.75362 228.322C7.09764 227.199 7.47787 226.076 7.87621 224.989L6.21046 224.373ZM109 226.8L107.316 227.344C107.66 228.466 107.986 229.608 108.276 230.731L109.996 230.296C109.706 229.046 109.38 227.869 109 226.71V226.8ZM4.11017 231.328C3.85668 232.505 3.62129 233.701 3.42212 234.951L5.23276 235.24C5.41382 234.081 5.63109 232.922 5.90268 231.781L4.11017 231.328ZM110.756 233.864L108.946 234.172C109.163 235.313 109.326 236.49 109.453 237.649L111.263 237.45C111.155 236.164 110.974 234.951 110.756 233.773V233.864ZM2.98759 238.501C2.87895 239.708 2.80643 240.916 2.77021 242.123H4.58084C4.58084 240.964 4.67146 239.768 4.7801 238.609L2.98759 238.501ZM111.625 241.073L109.815 241.163C109.815 241.924 109.815 242.703 109.815 243.5V244.695H111.625V243.5C111.607 242.594 111.589 241.779 111.553 240.982L111.625 241.073ZM4.61709 245.745H2.80646V249.368H4.61709V245.745ZM111.607 248.136H109.797V251.759H111.607V248.136ZM4.54471 252.773H2.73407V256.395H4.54471V252.773ZM111.607 255.381H109.797V259.004H111.607V255.381ZM4.54471 260H2.73407V263.622H4.54471V260ZM111.607 262.535H109.797V266.158H111.607V262.535ZM4.54471 267.154H2.73407V270.776H4.54471V267.154ZM111.607 269.69H109.797V273.312H111.607V269.69ZM4.54471 274.308H2.73407V277.931H4.54471V274.308ZM111.607 276.844H109.797V280.466H111.607V276.844ZM4.54471 281.463H2.73407V285.085H4.54471V281.463ZM111.607 283.998H109.797V287.621H111.607V283.998ZM4.54471 288.617H2.73407V292.239H4.54471V288.617ZM111.607 291.153H109.797V294.775H111.607V291.153ZM4.54471 295.771H2.73407V299.394H4.54471V295.771ZM4.54471 303.016H2.73407V306.638H4.54471V303.016ZM4.54471 310.261H2.73407V313.883H4.54471V310.261ZM4.54471 317.415H2.73407V321.038H4.54471V317.415ZM4.54471 324.66H2.73407V328.282H4.54471V324.66ZM4.54471 331.814H2.73407V335.437H4.54471V331.814ZM4.54471 339.059H2.73407V342.682H4.54471V339.059ZM4.54471 346.304H2.73407V349.927H4.54471V346.304ZM4.54471 353.458H2.73407V357.081H4.54471V353.458ZM4.54471 360.703H2.73407V364.326H4.54471V360.703ZM4.54471 367.948H2.73407V371.571H4.54471V367.948ZM4.54471 375.193H2.73407V378.815H4.54471V375.193ZM4.54471 382.438H2.73407V386.06H4.54471V382.438ZM4.54471 389.592H2.73407V393.214H4.54471V389.592ZM4.54471 396.837H2.73407V400.459H4.54471V396.837ZM4.54471 403.991H2.73407V407.614H4.54471V403.991ZM4.54471 411.236H2.73407V414.859H4.54471V411.236ZM4.54471 418.481H2.73407V422.103H4.54471V418.481ZM4.54471 425.726H2.73407V429.348H4.54471V425.726ZM4.54471 432.971H2.73407V436.593H4.54471V432.971ZM4.54471 440.125H2.73407V443.747H4.54471V440.125ZM4.54471 447.37H2.73407V450.992H4.54471V447.37ZM4.54471 454.615H2.73407V458.237H4.54471V454.615ZM4.54471 461.769H2.73407V465.391H4.54471V461.769ZM4.54471 469.014H2.73407V472.636H4.54471V469.014Z" fill="white"/>
<path d="M109.815 298.38H111.607V300.173H109.815V298.38Z" fill="white"/>
<path d="M156.584 432.464H90.0609C77.5755 432.464 65.6014 437.425 56.7729 446.257C47.9443 455.088 42.9845 467.066 42.9845 479.555H44.7951C44.7951 467.546 49.5641 456.029 58.0531 447.537C66.5421 439.046 78.0557 434.275 90.0609 434.275H156.584C162.721 433.95 168.86 434.878 174.627 437.004C180.394 439.129 185.668 442.407 190.128 446.638C194.587 450.869 198.138 455.964 200.565 461.612C202.992 467.26 204.244 473.344 204.244 479.492C204.244 485.64 202.992 491.724 200.565 497.372C198.138 503.02 194.587 508.115 190.128 512.346C185.668 516.577 180.394 519.855 174.627 521.98C168.86 524.106 162.721 525.034 156.584 524.709H52.78C39.9916 524.695 27.7312 519.606 18.6884 510.561C9.64565 501.515 4.55914 489.251 4.54477 476.458H2.73413C2.74852 489.726 8.0239 502.447 17.4028 511.829C26.7817 521.211 39.4981 526.488 52.7619 526.502H156.584C168.569 525.796 179.832 520.535 188.068 511.797C196.304 503.058 200.891 491.502 200.891 479.492C200.891 467.482 196.304 455.926 188.068 447.187C179.832 438.449 168.569 433.188 156.584 432.482V432.464Z" fill="white"/>
<path d="M43.0569 696.213H44.8494V698.006H43.0569V696.213Z" fill="white"/>
<path d="M44.8494 484.771H43.0387V488.394H44.8494V484.771ZM44.8494 491.835H43.0387V495.349H44.8494V491.835ZM44.8494 498.881H43.0387V502.395H44.8494V498.881ZM44.8494 505.926H43.0387V509.44H44.8494V505.926ZM44.8494 512.972H43.0387V516.504H44.8494V512.972ZM44.8494 520.018H43.0387V523.55H44.8494V520.018ZM44.8494 527.063H43.0387V530.686H44.8494V527.063ZM44.8494 534.109H43.0387V537.731H44.8494V534.109ZM44.8494 541.155H43.0387V544.777H44.8494V541.155ZM44.8494 548.218H43.0387V551.732H44.8494V548.218ZM44.8494 555.264H43.0387V558.778H44.8494V555.264ZM44.8494 562.31H43.0387V565.823H44.8494V562.31ZM44.8494 569.355H43.0387V572.869H44.8494V569.355ZM44.8494 576.401H43.0387V580.023H44.8494V576.401ZM44.8494 583.446H43.0387V587.069H44.8494V583.446ZM44.8494 590.492H43.0387V594.114H44.8494V590.492ZM44.8494 597.538H43.0387V601.16H44.8494V597.538ZM44.8494 604.601H43.0387V608.115H44.8494V604.601ZM44.8494 611.647H43.0387V615.161H44.8494V611.647ZM44.8494 618.693H43.0387V622.206H44.8494V618.693ZM44.8494 625.738H43.0387V629.252H44.8494V625.738ZM44.8494 632.784H43.0387V636.406H44.8494V632.784ZM44.8494 639.829H43.0387V643.452H44.8494V639.829ZM44.8494 646.875H43.0387V650.498H44.8494V646.875ZM44.8494 653.921H43.0387V657.543H44.8494V653.921ZM44.8494 660.984H43.0387V664.498H44.8494V660.984ZM44.8494 668.03H43.0387V671.544H44.8494V668.03ZM44.8494 675.076H43.0387V678.589H44.8494V675.076ZM44.8494 682.121H43.0387V685.635H44.8494V682.121ZM44.8494 689.167H43.0387V692.789H44.8494V689.167Z" fill="white"/>
<path d="M43.0569 479.465H44.8494V481.258H43.0569V479.465Z" fill="white"/>
<path d="M329.119 246.688H327.308V250.31H329.119V246.688ZM329.119 253.824H327.308V257.446H329.119V253.824ZM329.119 260.978H327.308V264.6H329.119V260.978ZM329.119 268.114H327.308V271.737H329.119V268.114ZM329.119 275.25H327.308V278.873H329.119V275.25ZM329.119 282.405H327.308V286.027H329.119V282.405ZM329.119 289.541H327.308V293.163H329.119V289.541ZM329.119 296.695H327.308V300.318H329.119V296.695ZM329.119 303.831H327.308V307.454H329.119V303.831ZM329.119 311.076H327.308V314.699H329.119V311.076ZM329.119 318.212H327.308V321.835H329.119V318.212ZM329.119 325.349H327.308V328.971H329.119V325.349ZM329.119 332.503H327.308V336.125H329.119V332.503ZM329.119 339.639H327.308V343.261H329.119V339.639ZM329.119 346.793H327.308V350.416H329.119V346.793ZM329.119 353.929H327.308V357.552H329.119V353.929ZM329.119 361.084H327.308V364.706H329.119V361.084ZM329.119 368.22H327.308V371.842H329.119V368.22ZM329.119 375.356H327.308V378.979H329.119V375.356ZM329.119 382.51H327.308V386.133H329.119V382.51ZM329.119 389.647H327.308V393.269H329.119V389.647ZM329.119 396.801H327.308V400.423H329.119V396.801ZM329.119 403.937H327.308V407.56H329.119V403.937ZM329.119 411.073H327.308V414.696H329.119V411.073ZM329.119 418.318H327.308V421.941H329.119V418.318ZM329.119 425.454H327.308V429.077H329.119V425.454ZM329.119 432.699H327.308V436.322H329.119V432.699ZM329.119 439.835H327.308V443.458H329.119V439.835ZM329.119 446.99H327.308V450.612H329.119V446.99ZM329.119 454.126H327.308V457.748H329.119V454.126ZM329.119 461.262H327.308V464.884H329.119V461.262ZM329.119 468.507H327.308V472.129H329.119V468.507ZM329.119 475.643H327.308V479.265H329.119V475.643ZM329.119 482.888H327.308V486.51H329.119V482.888ZM329.119 490.024H327.308V493.647H329.119V490.024ZM329.119 497.16H327.308V500.783H329.119V497.16ZM329.119 504.405H327.308V508.028H329.119V504.405ZM329.119 511.541H327.308V515.164H329.119V511.541ZM329.119 518.786H327.308V522.409H329.119V518.786ZM329.119 525.922H327.308V529.545H329.119V525.922ZM329.119 533.167H327.308V536.79H329.119V533.167ZM329.119 540.303H327.308V543.926H329.119V540.303ZM329.119 547.44H327.308V551.062H329.119V547.44ZM329.119 554.594H327.308V558.216H329.119V554.594ZM329.119 561.73H327.308V565.353H329.119V561.73ZM329.119 568.975H327.308V572.597H329.119V568.975ZM329.119 576.111H327.308V579.734H329.119V576.111ZM329.119 583.356H327.308V586.978H329.119V583.356ZM329.119 590.492H327.308V594.115H329.119V590.492Z" fill="white"/>
<path d="M389.956 0C380.924 0.00957919 372.265 3.60147 365.877 9.98804C359.49 16.3746 355.894 25.0346 355.88 34.0689V131.874H357.69V34.0689C357.69 25.504 361.092 17.29 367.146 11.2337C373.2 5.17741 381.412 1.77501 389.974 1.77501C398.536 1.77501 406.748 5.17741 412.802 11.2337C418.856 17.29 422.258 25.504 422.258 34.0689V180.252C422.248 188.812 418.843 197.019 412.79 203.07C406.737 209.122 398.532 212.523 389.974 212.528H361.42C352.386 212.537 343.724 216.132 337.335 222.522C330.947 228.913 327.354 237.577 327.344 246.615H329.155C329.164 238.053 332.569 229.844 338.621 223.79C344.673 217.736 352.879 214.331 361.438 214.321H389.956C398.986 214.311 407.643 210.719 414.028 204.332C420.413 197.945 424.004 189.285 424.014 180.252V34.1414C424.019 29.6626 423.141 25.2268 421.432 21.0871C419.723 16.9475 417.216 13.1851 414.054 10.0148C410.891 6.84447 407.135 4.32832 403 2.60998C398.866 0.891638 394.433 0.00475452 389.956 0Z" fill="white"/>
<path d="M501.31 260.181C501.31 258.748 500.885 257.348 500.089 256.156C499.293 254.965 498.162 254.036 496.839 253.488C495.516 252.94 494.059 252.796 492.654 253.076C491.249 253.355 489.959 254.045 488.946 255.058C487.933 256.072 487.243 257.363 486.964 258.768C486.685 260.173 486.828 261.63 487.376 262.954C487.924 264.278 488.853 265.409 490.044 266.205C491.235 267.001 492.635 267.426 494.067 267.426C495.988 267.426 497.83 266.663 499.189 265.304C500.547 263.946 501.31 262.103 501.31 260.181Z" fill="white"/>
<path d="M594.576 302.183C594.579 300.813 594.176 299.473 593.417 298.332C592.659 297.192 591.579 296.302 590.314 295.776C589.05 295.25 587.657 295.112 586.314 295.378C584.971 295.645 583.737 296.304 582.768 297.273C581.8 298.241 581.141 299.476 580.874 300.82C580.608 302.163 580.747 303.556 581.272 304.821C581.798 306.086 582.687 307.166 583.828 307.925C584.968 308.684 586.308 309.087 587.677 309.084C589.505 309.079 591.257 308.35 592.55 307.057C593.842 305.764 594.571 304.012 594.576 302.183Z" fill="white"/>
<path d="M705.676 302.183C705.68 300.813 705.277 299.473 704.518 298.332C703.759 297.192 702.679 296.302 701.415 295.776C700.15 295.25 698.758 295.112 697.414 295.378C696.071 295.645 694.837 296.304 693.869 297.273C692.9 298.241 692.241 299.476 691.975 300.82C691.709 302.163 691.847 303.556 692.373 304.821C692.899 306.086 693.788 307.166 694.928 307.925C696.068 308.684 697.408 309.087 698.777 309.084C700.606 309.079 702.358 308.35 703.65 307.057C704.943 305.764 705.671 304.012 705.676 302.183Z" fill="white"/>
<path d="M588.329 408.211C585.389 408.211 583.006 405.827 583.006 402.886C583.006 399.946 585.389 397.562 588.329 397.562C591.269 397.562 593.652 399.946 593.652 402.886C593.652 405.827 591.269 408.211 588.329 408.211Z" fill="white"/>
<path d="M423.272 278.148C420.332 278.148 417.948 275.764 417.948 272.823C417.948 269.882 420.332 267.498 423.272 267.498C426.212 267.498 428.595 269.882 428.595 272.823C428.595 275.764 426.212 278.148 423.272 278.148Z" fill="white"/>
<path d="M362.235 132.019C362.239 130.961 361.928 129.926 361.343 129.044C360.757 128.163 359.923 127.475 358.946 127.068C357.97 126.662 356.894 126.554 355.856 126.76C354.818 126.966 353.865 127.475 353.117 128.223C352.369 128.971 351.86 129.925 351.654 130.963C351.449 132.001 351.556 133.077 351.963 134.054C352.369 135.031 353.057 135.866 353.938 136.451C354.819 137.037 355.854 137.348 356.912 137.344C358.322 137.34 359.674 136.777 360.671 135.779C361.668 134.782 362.23 133.43 362.235 132.019Z" fill="white"/>
<path d="M328.231 258.424C324.422 258.424 321.333 255.335 321.333 251.524C321.333 247.713 324.422 244.623 328.231 244.623C332.041 244.623 335.13 247.713 335.13 251.524C335.13 255.335 332.041 258.424 328.231 258.424Z" fill="white"/>
<path d="M306.558 155.764C301.898 155.764 298.121 151.985 298.121 147.324C298.121 142.663 301.898 138.884 306.558 138.884C311.218 138.884 314.996 142.663 314.996 147.324C314.996 151.985 311.218 155.764 306.558 155.764Z" fill="white"/>
<path d="M306.558 88.1337C302.828 88.1337 299.805 85.109 299.805 81.3779C299.805 77.6467 302.828 74.6221 306.558 74.6221C310.288 74.6221 313.312 77.6467 313.312 81.3779C313.312 85.109 310.288 88.1337 306.558 88.1337Z" fill="white"/>
<path d="M117.619 296.804C117.619 295.439 117.214 294.105 116.456 292.97C115.698 291.835 114.621 290.951 113.36 290.429C112.1 289.906 110.712 289.77 109.374 290.036C108.036 290.302 106.807 290.959 105.842 291.924C104.877 292.89 104.22 294.119 103.954 295.458C103.688 296.796 103.825 298.184 104.347 299.445C104.869 300.706 105.753 301.784 106.888 302.542C108.022 303.3 109.356 303.705 110.72 303.705C111.627 303.707 112.525 303.53 113.363 303.184C114.201 302.838 114.962 302.33 115.603 301.689C116.244 301.048 116.753 300.286 117.098 299.448C117.444 298.609 117.621 297.711 117.619 296.804Z" fill="white"/>
<path d="M50.8607 524.51C50.8607 523.14 50.4546 521.802 49.6938 520.664C48.933 519.526 47.8517 518.639 46.5868 518.116C45.3219 517.593 43.9302 517.457 42.588 517.725C41.2459 517.994 40.0135 518.654 39.0469 519.624C38.0803 520.593 37.423 521.828 37.1582 523.171C36.8934 524.514 37.0329 525.906 37.5592 527.17C38.0855 528.434 38.9748 529.513 40.1146 530.271C41.2544 531.029 42.5935 531.432 43.9622 531.428C45.7935 531.424 47.5481 530.693 48.8413 529.396C50.1345 528.099 50.8607 526.342 50.8607 524.51Z" fill="white"/>
<path d="M50.8607 697.1C50.8607 695.731 50.4546 694.393 49.6938 693.255C48.933 692.117 47.8517 691.23 46.5868 690.707C45.3219 690.183 43.9302 690.047 42.588 690.316C41.2459 690.584 40.0135 691.245 39.0469 692.215C38.0803 693.184 37.423 694.419 37.1582 695.762C36.8934 697.105 37.0329 698.497 37.5592 699.761C38.0855 701.025 38.9748 702.104 40.1146 702.862C41.2544 703.62 42.5935 704.023 43.9622 704.019C45.7935 704.015 47.5481 703.283 48.8413 701.986C50.1345 700.689 50.8607 698.932 50.8607 697.1Z" fill="white"/>
<path d="M43.9621 482.58C41.3722 482.58 39.2725 480.48 39.2725 477.889C39.2725 475.298 41.3722 473.198 43.9621 473.198C46.5521 473.198 48.6516 475.298 48.6516 477.889C48.6516 480.48 46.5521 482.58 43.9621 482.58Z" fill="white"/>
<path d="M7.24243 476.44C7.24243 475.723 7.03009 475.023 6.63218 474.427C6.23427 473.832 5.66869 473.367 5.00699 473.093C4.34529 472.819 3.61712 472.747 2.91466 472.887C2.2122 473.027 1.56693 473.372 1.06049 473.878C0.554044 474.385 0.209251 475.03 0.0695233 475.733C-0.0702038 476.436 0.00143337 477.164 0.275518 477.826C0.549603 478.488 1.01378 479.054 1.60929 479.452C2.2048 479.85 2.90495 480.062 3.62117 480.062C4.58159 480.062 5.50262 479.681 6.18174 479.001C6.86085 478.322 7.24243 477.4 7.24243 476.44Z" fill="white"/>
<path d="M328.231 601.649C324.422 601.649 321.333 598.56 321.333 594.748C321.333 590.937 324.422 587.848 328.231 587.848C332.041 587.848 335.13 590.937 335.13 594.748C335.13 598.56 332.041 601.649 328.231 601.649Z" fill="white"/>
</g>
</svg>
