<svg width="93" height="65" viewBox="0 0 93 65" fill="none" xmlns="http://www.w3.org/2000/svg">
<g clip-path="url(#clip0_3216_2162)">
<path d="M93 0L0 8.49324V48.22V51.6415V65L15.4188 50.2333L93 43.1483V0Z" fill="#F85459"/>
<path d="M10.7946 26.2386L13.101 11.0592L17.9051 10.6928L19.5865 22.3247L19.8497 22.3046L21.6123 10.4101L24.5298 10.1876L22.2235 25.3669L17.6607 25.7149L15.7871 13.8771L15.5239 13.8972L13.6464 26.0211L10.7946 26.2386ZM28.6132 19.9373C28.6901 20.9464 28.8955 21.6147 29.2294 21.9423C29.5768 22.2541 30.1234 22.3816 30.8692 22.3247C31.6297 22.2667 32.2396 21.9701 32.6989 21.435C33.3338 20.6952 33.803 19.6151 34.1065 18.1945C34.4247 16.7729 34.533 15.3967 34.4315 14.0659C34.3702 13.2615 34.1731 12.7029 33.8404 12.39C33.5065 12.0624 32.9593 11.9276 32.1989 11.9856C31.4384 12.0436 30.8555 12.3087 30.4503 12.7809C29.7737 13.5532 29.2791 14.6868 28.9666 16.1816C28.6529 17.6617 28.5351 18.9136 28.6132 19.9373ZM37.523 13.5212C37.6758 15.5247 37.5188 17.4195 37.0519 19.2055C36.5839 20.9769 35.8063 22.3527 34.719 23.3328C33.6464 24.3119 32.3204 24.8617 30.7409 24.9821C27.509 25.2286 25.777 23.8309 25.545 20.7891C25.3989 18.8733 25.5537 17.0449 26.0093 15.3039C26.4649 13.5629 27.2189 12.1668 28.2713 11.1158C29.3227 10.0501 30.6746 9.4542 32.3271 9.32817C35.5591 9.08169 37.2911 10.4794 37.523 13.5212ZM39.597 9.03851L42.6242 8.80764L42.628 21.0087L42.9351 20.9853L46.9843 8.69576L50.3186 8.44147L50.5032 20.4081L50.8103 20.3847L54.7989 7.87914L57.8261 7.64828L52.5802 23.0518L48.193 23.3864L48.0904 12.4946L44.5735 23.6624L40.0546 24.0071L39.597 9.03851ZM55.6045 22.8211L61.1794 7.39253L66.4002 6.99437L67.0772 21.9462L64.05 22.1771L63.9403 19.5819L59.5969 19.9131L58.6317 22.5903L55.6045 22.8211ZM63.157 9.88938L60.5369 17.1938L63.8492 16.9412L63.6177 9.85425L63.157 9.88938ZM16.0414 41.8026C15.9522 42.3684 15.9248 42.8779 15.9594 43.3313C15.9929 43.77 16.1625 44.066 16.4684 44.2192C16.7889 44.3712 17.322 44.4188 18.0679 44.3619C18.8283 44.304 19.3836 44.063 19.7337 43.6392C20.0827 43.2007 20.329 42.4759 20.4725 41.4647L22.0027 31.4413L25.0299 31.2104L23.4997 41.2338C23.2184 43.1381 22.6275 44.5511 21.727 45.4729C20.84 46.379 19.6068 46.8923 18.0273 47.0127C14.8393 47.2558 13.1593 46.2513 12.9876 43.9992C12.9296 43.2388 12.9627 42.4199 13.0871 41.5425L14.5444 32.0101L17.5716 31.7793L16.0414 41.8026ZM31.4093 33.0627C30.7658 33.1118 30.2679 33.3336 29.9155 33.7282C29.5767 34.1071 29.4262 34.5451 29.4642 35.0423C29.5021 35.5396 29.647 35.8962 29.8988 36.1124C30.1495 36.3139 30.8192 36.6085 31.9078 36.9962C32.9965 37.3838 33.751 37.8264 34.1713 38.3239C34.6052 38.8056 34.8601 39.5437 34.9359 40.5382C35.062 42.1907 34.6471 43.502 33.6915 44.4722C32.7505 45.4412 31.4171 45.9915 29.6914 46.1231C29.0041 46.1756 28.2746 46.1577 27.503 46.0694C26.7314 45.9812 26.128 45.8801 25.6927 45.7662L25.0601 45.5717L25.399 43.3616C27.0739 43.528 28.3793 43.5756 29.3152 43.5042C30.2658 43.4317 30.9482 43.2178 31.3623 42.8626C31.7754 42.4928 31.9518 41.9131 31.8916 41.1234C31.8593 40.6993 31.7031 40.3876 31.4232 40.1883C31.1567 39.9732 30.509 39.677 29.4799 39.2995C28.4509 38.922 27.7037 38.4788 27.2384 37.9701C26.773 37.4613 26.5035 36.7244 26.4299 35.7592C26.3217 34.3406 26.6931 33.1355 27.5442 32.144C28.3953 31.1524 29.5886 30.598 31.1241 30.4809C31.8261 30.4274 32.5629 30.4447 33.3345 30.533C34.1196 30.6055 34.7219 30.6919 35.1414 30.7923L35.7724 30.9648L35.3879 33.1564C33.7592 33.0159 32.433 32.9846 31.4093 33.0627ZM44.108 44.7589L36.3426 45.3511L37.0475 40.7081L36.4618 41.1278L35.4068 39.1564L37.5186 37.6273L38.649 30.1718L41.6762 29.9409L40.8831 35.1644L42.8886 33.6876L43.9419 35.6371L40.4103 38.2232L39.7832 42.4411L44.4996 42.0814L44.108 44.7589ZM49.0744 39.2834C48.9851 39.8491 48.9578 40.3587 48.9924 40.8121C49.0258 41.2508 49.1955 41.5467 49.5014 41.6999C49.8219 41.852 50.355 41.8996 51.1009 41.8427C51.8613 41.7847 52.4166 41.5438 52.7667 41.1199C53.1157 40.6815 53.362 39.9566 53.5055 38.9455L55.0357 28.9221L58.0629 28.6912L56.5327 38.7146C56.2514 40.6188 55.6604 42.0319 54.7599 42.9537C53.8729 43.8597 52.6397 44.373 51.0603 44.4935C47.8722 44.7366 46.1923 43.7321 46.0206 41.48C45.9626 40.7195 45.9957 39.9006 46.12 39.0233L47.5774 29.4909L50.6046 29.26L49.0744 39.2834ZM64.238 43.4885C60.9476 43.7394 59.183 42.3001 58.9444 39.1705C58.7637 36.8014 59.0159 34.7081 59.701 32.8908C60.4459 30.8924 61.6167 29.4645 63.2134 28.6073C64.0619 28.1601 64.9322 27.9025 65.8242 27.8345C66.7163 27.7665 67.5482 27.7766 68.3198 27.8648C69.0914 27.9531 69.6875 28.0547 70.1081 28.1697L70.7171 28.3439L70.1825 30.5911C68.7124 30.409 67.3339 30.367 66.0469 30.4652C65.2572 30.5254 64.568 30.8428 63.9793 31.4172C63.4042 31.9759 62.9802 32.6848 62.7074 33.5441C62.1337 35.2794 61.9182 37.083 62.061 38.9549C62.1647 40.3149 62.9478 40.9392 64.4102 40.8277L65.7838 40.6126L66.299 37.2417L64.8951 37.3487L65.2966 34.8028L69.7058 34.4665L68.4502 42.5936C67.4847 43.0496 66.0807 43.3479 64.238 43.4885ZM69.7977 42.7997L75.3726 27.3711L80.5934 26.9729L81.2703 41.9247L78.2431 42.1556L78.1335 39.5604L73.7901 39.8917L72.8249 42.5688L69.7977 42.7997ZM77.3502 29.8679L74.73 37.1723L78.0424 36.9197L77.8108 29.8328L77.3502 29.8679Z" fill="#0005FF"/>
<path d="M11.7946 25.2386L14.101 10.0592L18.9051 9.69283L20.5865 21.3247L20.8497 21.3046L22.6123 9.4101L25.5298 9.1876L23.2235 24.3669L18.6607 24.7149L16.7871 12.8771L16.5239 12.8972L14.6464 25.0211L11.7946 25.2386ZM29.6132 18.9373C29.6901 19.9464 29.8955 20.6147 30.2294 20.9423C30.5768 21.2541 31.1234 21.3816 31.8692 21.3247C32.6297 21.2667 33.2396 20.9701 33.6989 20.435C34.3338 19.6952 34.803 18.6151 35.1065 17.1945C35.4247 15.7729 35.533 14.3967 35.4315 13.0659C35.3702 12.2615 35.1731 11.7029 34.8404 11.39C34.5065 11.0624 33.9593 10.9276 33.1989 10.9856C32.4384 11.0436 31.8555 11.3087 31.4503 11.7809C30.7737 12.5532 30.2791 13.6868 29.9666 15.1816C29.6529 16.6617 29.5351 17.9136 29.6132 18.9373ZM38.523 12.5212C38.6758 14.5247 38.5188 16.4195 38.0519 18.2055C37.5839 19.9769 36.8063 21.3527 35.719 22.3328C34.6464 23.3119 33.3204 23.8617 31.7409 23.9821C28.509 24.2286 26.777 22.8309 26.545 19.7891C26.3989 17.8733 26.5537 16.0449 27.0093 14.3039C27.4649 12.5629 28.2189 11.1668 29.2713 10.1158C30.3227 9.05007 31.6746 8.4542 33.3271 8.32817C36.5591 8.08169 38.2911 9.47937 38.523 12.5212ZM40.597 8.03851L43.6242 7.80764L43.628 20.0087L43.9351 19.9853L47.9843 7.69576L51.3186 7.44147L51.5032 19.4081L51.8103 19.3847L55.7989 6.87914L58.8261 6.64828L53.5802 22.0518L49.193 22.3864L49.0904 11.4946L45.5735 22.6624L41.0546 23.0071L40.597 8.03851ZM56.6045 21.8211L62.1794 6.39253L67.4002 5.99437L68.0772 20.9462L65.05 21.1771L64.9403 18.5819L60.5969 18.9131L59.6317 21.5903L56.6045 21.8211ZM64.157 8.88938L61.5369 16.1938L64.8492 15.9412L64.6177 8.85425L64.157 8.88938ZM17.0414 40.8026C16.9522 41.3684 16.9248 41.8779 16.9594 42.3313C16.9929 42.77 17.1625 43.066 17.4684 43.2192C17.7889 43.3712 18.322 43.4188 19.0679 43.3619C19.8283 43.304 20.3836 43.063 20.7337 42.6392C21.0827 42.2007 21.329 41.4759 21.4725 40.4647L23.0027 30.4413L26.0299 30.2104L24.4997 40.2338C24.2184 42.1381 23.6275 43.5511 22.727 44.4729C21.84 45.379 20.6068 45.8923 19.0273 46.0127C15.8393 46.2558 14.1593 45.2513 13.9876 42.9992C13.9296 42.2388 13.9627 41.4199 14.0871 40.5425L15.5444 31.0101L18.5716 30.7793L17.0414 40.8026ZM32.4093 32.0627C31.7658 32.1118 31.2679 32.3336 30.9155 32.7282C30.5767 33.1071 30.4262 33.5451 30.4642 34.0423C30.5021 34.5396 30.647 34.8962 30.8988 35.1124C31.1495 35.3139 31.8192 35.6085 32.9078 35.9962C33.9965 36.3838 34.751 36.8264 35.1713 37.3239C35.6052 37.8056 35.8601 38.5437 35.9359 39.5382C36.062 41.1907 35.6471 42.502 34.6915 43.4722C33.7505 44.4412 32.4171 44.9915 30.6914 45.1231C30.0041 45.1756 29.2746 45.1577 28.503 45.0694C27.7314 44.9812 27.128 44.8801 26.6927 44.7662L26.0601 44.5717L26.399 42.3616C28.0739 42.528 29.3793 42.5756 30.3152 42.5042C31.2658 42.4317 31.9482 42.2178 32.3623 41.8626C32.7754 41.4928 32.9518 40.9131 32.8916 40.1234C32.8593 39.6993 32.7031 39.3876 32.4232 39.1883C32.1567 38.9732 31.509 38.677 30.4799 38.2995C29.4509 37.922 28.7037 37.4788 28.2384 36.9701C27.773 36.4613 27.5035 35.7244 27.4299 34.7592C27.3217 33.3406 27.6931 32.1355 28.5442 31.144C29.3953 30.1524 30.5886 29.598 32.1241 29.4809C32.8261 29.4274 33.5629 29.4447 34.3345 29.533C35.1196 29.6055 35.7219 29.6919 36.1414 29.7923L36.7724 29.9648L36.3879 32.1564C34.7592 32.0159 33.433 31.9846 32.4093 32.0627ZM45.108 43.7589L37.3426 44.3511L38.0475 39.7081L37.4618 40.1278L36.4068 38.1564L38.5186 36.6273L39.649 29.1718L42.6762 28.9409L41.8831 34.1644L43.8886 32.6876L44.9419 34.6371L41.4103 37.2232L40.7832 41.4411L45.4996 41.0814L45.108 43.7589ZM50.0744 38.2834C49.9851 38.8491 49.9578 39.3587 49.9924 39.8121C50.0258 40.2508 50.1955 40.5467 50.5014 40.6999C50.8219 40.852 51.355 40.8996 52.1009 40.8427C52.8613 40.7847 53.4166 40.5438 53.7667 40.1199C54.1157 39.6815 54.362 38.9566 54.5055 37.9455L56.0357 27.9221L59.0629 27.6912L57.5327 37.7146C57.2514 39.6188 56.6604 41.0319 55.7599 41.9537C54.8729 42.8597 53.6397 43.373 52.0603 43.4935C48.8722 43.7366 47.1923 42.7321 47.0206 40.48C46.9626 39.7195 46.9957 38.9006 47.12 38.0233L48.5774 28.4909L51.6046 28.26L50.0744 38.2834ZM65.238 42.4885C61.9476 42.7394 60.183 41.3001 59.9444 38.1705C59.7637 35.8014 60.0159 33.7081 60.701 31.8908C61.4459 29.8924 62.6167 28.4645 64.2134 27.6073C65.0619 27.1601 65.9322 26.9025 66.8242 26.8345C67.7163 26.7665 68.5482 26.7766 69.3198 26.8648C70.0914 26.9531 70.6875 27.0547 71.1081 27.1697L71.7171 27.3439L71.1825 29.5911C69.7124 29.409 68.3339 29.367 67.0469 29.4652C66.2572 29.5254 65.568 29.8428 64.9793 30.4172C64.4042 30.9759 63.9802 31.6848 63.7074 32.5441C63.1337 34.2794 62.9182 36.083 63.061 37.9549C63.1647 39.3149 63.9478 39.9392 65.4102 39.8277L66.7838 39.6126L67.299 36.2417L65.8951 36.3487L66.2966 33.8028L70.7058 33.4665L69.4502 41.5936C68.4847 42.0496 67.0807 42.3479 65.238 42.4885ZM70.7977 41.7997L76.3726 26.3711L81.5934 25.9729L82.2703 40.9247L79.2431 41.1556L79.1335 38.5604L74.7901 38.8917L73.8249 41.5688L70.7977 41.7997ZM78.3502 28.8679L75.73 36.1723L79.0424 35.9197L78.8108 28.8328L78.3502 28.8679Z" fill="white"/>
</g>
<defs>
<clipPath id="clip0_3216_2162">
<rect width="93" height="65" fill="white"/>
</clipPath>
</defs>
</svg>
