<svg width="622" height="542" viewBox="0 0 622 542" fill="none" xmlns="http://www.w3.org/2000/svg">
<path d="M185.699 224.421H187.267C187.267 225.502 187.226 226.57 187.145 227.624L185.577 227.529C185.658 226.502 185.699 225.466 185.699 224.421ZM185.239 230.57L186.794 230.8C186.631 231.854 186.429 232.922 186.185 233.949L184.658 233.598C184.888 232.598 185.077 231.584 185.239 230.57ZM183.888 236.571L185.388 237.044C185.064 238.058 184.712 239.071 184.32 240.058L182.861 239.477C183.199 238.531 183.55 237.558 183.861 236.571H183.888ZM181.604 242.302L182.955 242.991C182.496 243.937 181.982 244.896 181.442 245.816L180.09 245.018C180.644 244.126 181.131 243.221 181.577 242.302H181.604ZM178.495 247.627L179.779 248.519C179.171 249.397 178.536 250.262 177.86 251.086L176.644 250.086C177.252 249.302 177.887 248.465 178.468 247.627H178.495ZM174.616 252.411L175.752 253.492C175.022 254.263 174.252 255.019 173.468 255.736L172.413 254.573C173.143 253.884 173.887 253.208 174.589 252.411H174.616ZM170.062 256.574L171.035 257.804C170.197 258.466 169.318 259.087 168.44 259.682L167.561 258.331C168.386 257.804 169.224 257.263 170.035 256.574H170.062ZM164.912 259.966L165.683 261.317C164.764 261.845 163.804 262.331 162.845 262.791L162.169 261.358C163.101 260.966 164.02 260.493 164.912 259.966ZM159.398 262.669L159.952 264.142C158.966 264.521 157.939 264.858 156.925 265.156L156.479 263.656C157.398 263.291 158.385 262.966 159.398 262.669ZM153.492 264.412L153.816 265.94C152.776 266.169 151.722 266.345 150.667 266.494L150.451 264.94C151.397 264.737 152.424 264.548 153.425 264.345L153.492 264.412ZM147.383 265.237L147.478 266.805C146.626 266.805 145.748 266.805 144.95 266.805H144.288V265.237H144.95C145.721 265.223 146.518 265.21 147.316 265.169L147.383 265.237ZM5.94629 265.304H9.08183V266.872H5.94629V265.304ZM12.2309 265.304H15.3799V266.872H12.2309V265.304ZM18.5155 265.304H21.5429V266.872H18.3939L18.5155 265.304ZM24.8136 265.304H27.9491V266.872H24.8136V265.304ZM31.0982 265.304H34.2472V266.872H31.0035L31.0982 265.304ZM37.3827 265.304H40.4642V266.872H37.3152L37.3827 265.304ZM43.6673 265.304H46.8164V266.872H43.6673V265.304ZM49.9654 265.304H53.101V266.872H49.9249L49.9654 265.304ZM56.25 265.304H59.3855V266.872H56.2365L56.25 265.304ZM62.5346 265.304H65.6836V266.872H62.5346V265.304ZM68.8327 265.304H71.9682V266.872H68.8327V265.304ZM75.1173 265.304H78.2663V266.872H75.1173V265.304ZM81.4019 265.304H84.5509V266.872H81.4019V265.304ZM87.6864 265.304H90.8355V266.872H87.6864V265.304ZM93.9846 265.304H97.1201V266.872H93.9846V265.304ZM100.269 265.304H103.418V266.872H100.202L100.269 265.304ZM106.554 265.304H109.703V266.872H106.554V265.304ZM112.852 265.304H115.987V266.872H112.852V265.304ZM119.136 265.304H122.285V266.872H119.136V265.304ZM125.421 265.304H128.57V266.872H125.421V265.304ZM131.706 265.304H134.855V266.872H131.706V265.304ZM138.004 265.304H141.139V266.872H138.004V265.304Z" fill="#8566FF"/>
<path d="M144.884 26.9902C156.125 27.0046 166.901 31.4783 174.847 39.4295C182.794 47.3808 187.26 58.1599 187.268 69.401V224.421H185.7V69.401C185.685 58.5804 181.381 48.2069 173.729 40.5556C166.078 32.9042 155.704 28.5993 144.884 28.585C134.064 28.5993 123.692 32.9046 116.043 40.5564C108.394 48.2082 104.092 58.5816 104.081 69.401V357.762H102.5V69.401C102.507 58.1599 106.974 47.3808 114.92 39.4295C122.866 31.4783 133.643 27.0046 144.884 26.9902Z" fill="#8566FF"/>
<path d="M247.815 240.937H249.383V244.072H247.815V240.937ZM247.815 247.221H249.383V250.357H247.815V247.221ZM247.815 253.506H249.383V256.655H247.815V253.506ZM247.815 259.79H249.383V262.939H247.815V259.79ZM247.815 266.088H249.383V269.224H247.815V266.088ZM247.815 272.373H249.383V275.522H247.815V272.373ZM247.815 278.658H249.383V281.807H247.815V278.658ZM247.815 284.956H249.383V288.091H247.815V284.956ZM247.815 291.24H249.383V294.389H247.815V291.24ZM247.815 297.525H249.383V300.674H247.815V297.525ZM247.815 303.809H249.383V306.958H247.815V303.809ZM247.815 310.108H249.383V313.243H247.815V310.108ZM247.815 316.392H249.383V319.541H247.815V316.392ZM247.815 322.677H249.383V325.826H247.815V322.677ZM247.815 328.975H249.383V332.11H247.815V328.975ZM247.815 335.259H249.383V338.354H247.815V335.259ZM247.815 341.544H249.383V344.693H247.815V341.544ZM247.815 347.829H249.383V350.978H247.815V347.829ZM247.815 354.127H249.383V357.276H247.815V354.127ZM104.121 360.168C104.121 361.209 104.202 362.236 104.284 363.276L102.716 363.385C102.635 362.344 102.581 361.276 102.54 360.222L104.121 360.168ZM247.761 360.384H249.343C249.343 361.452 249.234 362.506 249.153 363.56L247.586 363.425C247.667 362.452 247.721 361.425 247.761 360.384ZM104.581 366.371C104.702 367.399 104.851 368.426 105.027 369.439L103.473 369.696C103.297 368.656 103.148 367.601 103.027 366.547L104.581 366.371ZM247.275 366.574L248.842 366.763C248.707 367.831 248.559 368.872 248.383 369.912L246.829 369.656C247.009 368.61 247.149 367.583 247.248 366.574H247.275ZM105.594 372.494C105.797 373.521 106.04 374.521 106.297 375.535L104.77 375.913C104.513 374.9 104.27 373.859 104.054 372.818L105.594 372.494ZM246.261 372.71L247.788 373.034C247.572 374.075 247.329 375.102 247.072 376.129L245.545 375.737C245.802 374.737 246.045 373.724 246.261 372.71ZM107.122 378.522C107.419 379.522 107.743 380.508 108.081 381.481L106.595 381.995C106.257 381.008 105.919 379.995 105.622 378.981L107.122 378.522ZM244.707 378.724L246.207 379.184C245.896 380.211 245.572 381.211 245.207 382.211L243.734 381.698C244.072 380.711 244.396 379.724 244.707 378.724ZM109.176 384.387C109.554 385.36 109.96 386.306 110.392 387.252L108.96 387.888C108.514 386.928 108.108 385.955 107.716 384.968L109.176 384.387ZM242.625 384.603L244.085 385.198C243.689 386.18 243.27 387.153 242.828 388.117L241.409 387.469C241.842 386.523 242.247 385.577 242.625 384.603ZM111.717 390.01C112.19 390.929 112.676 391.848 113.177 392.713L111.825 393.469C111.298 392.55 110.811 391.618 110.325 390.672L111.717 390.01ZM240.044 390.239L241.396 390.956C240.923 391.902 240.409 392.834 239.895 393.753L238.544 392.983C239.139 392.118 239.585 391.199 240.044 390.28V390.239ZM114.798 395.47C115.352 396.348 115.907 397.213 116.488 398.078L115.136 398.957C114.542 398.078 113.974 397.186 113.42 396.254L114.798 395.47ZM237.044 395.699L238.395 396.524C237.828 397.429 237.246 398.321 236.652 399.227L235.3 398.348C235.881 397.456 236.435 396.578 236.99 395.699H237.044ZM118.299 400.606C118.907 401.43 119.556 402.254 120.204 403.052L118.988 404.052C118.312 403.227 117.637 402.39 117.028 401.538L118.299 400.606ZM233.53 400.835L234.787 401.781C234.151 402.633 233.503 403.457 232.827 404.282L231.611 403.282C232.219 402.484 232.854 401.66 233.476 400.835H233.53ZM122.218 405.43C122.903 406.196 123.606 406.953 124.327 407.701L123.191 408.796C122.461 408.039 121.745 407.255 121.042 406.471L122.218 405.43ZM229.583 405.647L230.759 406.687C230.056 407.485 229.326 408.255 228.597 409.012L227.461 407.917C228.137 407.174 228.84 406.417 229.529 405.647H229.583ZM126.53 409.89C127.286 410.607 128.057 411.242 128.841 411.985L127.8 413.175C127.003 412.472 126.219 411.823 125.448 411.039L126.53 409.89ZM225.191 410.093L226.272 411.242C225.502 411.972 224.718 412.675 223.907 413.364L222.88 412.175C223.664 411.499 224.434 410.81 225.191 410.093ZM131.165 414.04C131.976 414.688 132.801 415.391 133.652 415.932L132.72 417.202C131.868 416.581 131.017 415.932 130.192 415.27L131.165 414.04ZM220.488 414.229L221.461 415.459C220.636 416.121 219.785 416.81 218.933 417.378L218.014 416.094C218.852 415.445 219.677 414.801 220.488 414.161V414.229ZM136.193 417.716C137.094 418.283 137.972 418.838 138.828 419.378L138.018 420.73C137.112 420.176 136.206 419.608 135.314 419.027L136.193 417.716ZM215.46 417.864L216.325 419.216C215.433 419.797 214.541 420.365 213.622 420.905L212.811 419.554C213.716 418.919 214.595 418.365 215.46 417.797V417.864ZM141.532 420.932C142.437 421.432 143.356 421.906 144.235 422.365L143.545 423.717C142.586 423.257 141.653 422.771 140.721 422.257L141.532 420.932ZM210.135 421.054L210.878 422.406C209.946 422.906 209.013 423.392 208.053 423.852L207.364 422.433C208.297 421.96 209.216 421.487 210.135 420.986V421.054ZM147.113 423.676C148.059 424.095 149.019 424.487 149.992 424.865L149.424 426.339C148.438 425.947 147.451 425.541 146.478 425.122L147.113 423.676ZM204.553 423.771L205.175 425.217C204.215 425.636 203.229 426.041 202.242 426.42L201.688 424.946C202.647 424.514 203.607 424.122 204.553 423.703V423.771ZM152.925 425.92C153.911 426.257 154.898 426.568 155.898 426.852L155.452 428.366C154.439 428.068 153.425 427.758 152.425 427.42L152.925 425.92ZM198.755 426.001L199.255 427.487C198.255 427.825 197.241 428.136 196.228 428.433L195.782 426.92C196.782 426.568 197.782 426.203 198.755 425.933V426.001ZM158.899 427.555C159.899 427.798 160.912 428.014 161.926 428.217L161.629 429.758C160.588 429.555 159.547 429.325 158.52 429.082L158.899 427.555ZM192.781 427.555L193.146 429.096C192.119 429.339 191.092 429.555 190.038 429.758L189.74 428.217C190.768 428.109 191.835 427.879 192.781 427.636V427.555ZM164.994 428.717C166.021 428.87 167.048 429.006 168.075 429.123L167.913 430.677C166.846 430.569 165.805 430.434 164.751 430.271L164.994 428.717ZM186.686 428.717L186.916 430.271C185.875 430.434 184.821 430.569 183.767 430.677L183.591 429.109C184.632 429.109 185.659 428.988 186.686 428.825V428.717ZM171.17 429.366C172.211 429.434 173.238 429.474 174.279 429.501V431.069C173.211 431.069 172.157 431.001 171.103 430.934L171.17 429.366ZM180.496 429.366L180.591 430.934C179.55 430.934 178.482 431.042 177.414 431.055V429.488C178.428 429.596 179.469 429.542 180.496 429.488V429.366Z" fill="#8566FF"/>
<path d="M405.038 21.4492H405.376V23.017H405.025C404.106 23.017 403.187 23.017 402.322 23.017L402.241 21.4492C403.146 21.4627 404.092 21.4492 405.038 21.4492ZM408.539 21.4492H411.688V23.017H408.539V21.4492ZM414.823 21.4492H417.972V23.017H414.837L414.823 21.4492ZM421.122 21.4492H424.298V23.017H421.162L421.122 21.4492ZM427.406 21.4492H430.555V23.017H427.406V21.4492ZM433.691 21.4492H436.84V23.017H433.758L433.691 21.4492ZM439.989 21.4492H443.124V23.017H439.989V21.4492ZM446.273 21.4492H449.409V23.017H446.273V21.4492ZM452.558 21.4492H455.707V23.017H452.558V21.4492ZM458.843 21.4492H461.992V23.017H458.843V21.4492ZM465.141 21.4492H465.451C466.411 21.4492 467.371 21.4492 468.317 21.4492L468.236 23.017C467.317 23.017 466.384 23.017 465.451 23.017H465.141V21.4492ZM399.038 21.7736L399.2 23.3278C398.173 23.4495 397.145 23.5846 396.132 23.7603L395.916 22.2061C396.916 22.098 397.983 21.8817 399.038 21.7736ZM471.493 21.7736C472.565 21.8907 473.619 22.0394 474.655 22.2196L474.385 23.7738C473.385 23.5981 472.358 23.4495 471.317 23.3414L471.493 21.7736ZM392.753 22.8278L393.104 24.3685C392.104 24.5983 391.104 24.8551 390.104 25.1524L389.658 23.6387C390.685 23.3414 391.726 23.0711 392.753 22.8278ZM477.777 22.8278C478.805 23.0711 479.832 23.3414 480.859 23.6387L480.426 25.1524C479.426 24.8551 478.413 24.5848 477.426 24.355L477.777 22.8278ZM386.631 24.6118L387.158 26.0849C386.198 26.4363 385.225 26.8148 384.279 27.2202L383.671 25.7741C384.63 25.3686 385.63 24.9902 386.631 24.6253V24.6118ZM483.94 24.6118C484.94 24.9767 485.941 25.3686 486.914 25.7876L486.292 27.2202C485.346 26.8283 484.386 26.4363 483.413 26.0985L483.94 24.6118ZM380.819 27.0986L381.522 28.4501C380.589 28.9096 379.67 29.3962 378.819 29.9098L378.035 28.5582C378.873 28.0987 379.819 27.5987 380.778 27.1256L380.819 27.0986ZM489.806 27.0986C490.752 27.5716 491.698 28.0717 492.631 28.5988L491.847 29.9503C490.941 29.4367 490.022 28.9502 489.144 28.4907L489.806 27.0986ZM375.291 30.2341L376.143 31.5856C375.291 32.1533 374.426 32.748 373.602 33.3561L372.669 32.0857C373.48 31.4775 374.359 30.8558 375.251 30.2882L375.291 30.2341ZM495.347 30.2341C496.226 30.8153 497.104 31.4235 497.956 32.0587L497.023 33.3156C496.199 32.7074 495.347 32.1127 494.482 31.5451L495.347 30.2341ZM370.169 33.9778L371.169 35.1807C370.385 35.8294 369.601 36.5322 368.845 37.235L367.777 36.0862C368.507 35.451 369.318 34.7482 370.128 34.0725L370.169 33.9778ZM500.469 33.9778C501.28 34.6536 502.091 35.3294 502.862 36.0862L501.78 37.235C501.037 36.5322 500.253 35.8835 499.456 35.1807L500.469 33.9778ZM365.506 38.2757L366.655 39.3569C365.952 40.1002 365.304 40.8706 364.587 41.668L363.384 40.6544C364.033 39.9786 364.749 39.1812 365.466 38.4244L365.506 38.2757ZM505.119 38.3433C505.848 39.1136 506.565 39.911 507.241 40.7219L506.038 41.7356C505.375 40.9517 504.686 40.1678 503.97 39.4245L505.119 38.3433ZM361.357 43.2898L362.614 44.2359C361.992 45.0603 361.398 45.9118 360.83 46.7768L359.478 45.8983C360.1 45.0739 360.776 44.1413 361.357 43.2898ZM509.187 43.2898C509.808 44.1413 510.43 45.0198 511.011 45.8983L509.66 46.7633C509.092 45.9118 508.497 45.0603 507.889 44.2359L509.187 43.2898ZM357.816 48.5473L359.168 49.3312C358.654 50.2232 358.154 51.1422 357.694 52.0342L356.343 51.3179C356.789 50.4799 357.303 49.5204 357.83 48.6148L357.816 48.5473ZM512.687 48.6148C513.214 49.5204 513.728 50.4664 514.201 51.4125L512.849 52.1153C512.39 51.1963 511.89 50.2907 511.376 49.4122L512.687 48.6148ZM354.951 54.3048L356.384 54.94C355.978 55.886 355.586 56.8456 355.235 57.8187L353.762 57.2781C354.126 56.278 354.518 55.2779 354.951 54.3048ZM515.566 54.3048C515.989 55.2779 516.381 56.2645 516.742 57.2646L515.269 57.8052C514.917 56.8321 514.525 55.8725 514.12 54.9265L515.566 54.3048ZM352.748 60.2515L354.262 60.711C353.964 61.6976 353.694 62.6977 353.451 63.6978L351.923 63.3329C352.167 62.3598 352.451 61.2921 352.748 60.3055V60.2515ZM517.742 60.2515C518.053 61.2651 518.323 62.3058 518.566 63.3329L517.039 63.6843C516.809 62.6977 516.539 61.6841 516.242 60.6975L517.742 60.2515ZM351.315 66.509L352.856 66.7793C352.68 67.793 352.532 68.8336 352.41 69.8473L350.842 69.6581C350.937 68.6174 351.099 67.5497 351.315 66.509ZM519.242 66.509C519.418 67.5497 519.58 68.6039 519.702 69.6581L518.134 69.8473C518.012 68.8201 517.864 67.793 517.688 66.7793L519.242 66.509ZM350.572 72.8071L352.14 72.8882C352.14 73.9154 352.059 74.956 352.059 75.9832H350.477C350.45 74.9696 350.491 73.9019 350.545 72.8477L350.572 72.8071ZM519.972 72.8071C519.972 73.8613 520.066 74.9155 520.053 75.9562H518.485C518.485 74.902 518.485 73.8748 518.404 72.8612L519.972 72.8071ZM518.391 79.0917L519.972 79.1863C519.972 80.2405 519.81 81.3082 519.688 82.3624L518.134 82.1732C518.215 81.2271 518.31 80.2135 518.364 79.1593L518.391 79.0917ZM517.674 85.2411L519.229 85.5114C519.039 86.5521 518.823 87.6063 518.58 88.6335L517.026 88.3226C517.255 87.336 517.472 86.3223 517.647 85.3087L517.674 85.2411ZM516.201 91.3365L517.715 91.7825C517.404 92.8097 517.066 93.8233 516.701 94.8099L515.228 94.2693C515.593 93.3097 515.917 92.3772 516.201 91.3365ZM514.066 97.1481L515.512 97.7833C515.079 98.7564 514.633 99.7295 514.16 100.676L512.809 99.9592C513.228 99.0402 513.674 98.1076 514.079 97.1481H514.066ZM511.268 102.689L512.62 103.473C512.092 104.392 511.525 105.298 510.944 106.176L509.592 105.298C510.214 104.46 510.795 103.568 511.282 102.689H511.268ZM507.835 107.852L509.092 108.785C508.457 109.636 507.741 110.488 507.105 111.285L505.903 110.271C506.578 109.487 507.227 108.677 507.849 107.852H507.835ZM503.781 112.569L504.916 113.65C504.2 114.421 503.429 115.177 502.659 115.907L501.578 114.758C502.402 114.002 503.145 113.312 503.848 112.569H503.781ZM499.267 116.799L500.267 118.016C499.442 118.691 498.604 119.367 497.753 119.975L496.82 118.705C497.712 118.056 498.537 117.461 499.334 116.799H499.267ZM494.279 120.475L495.144 121.827C494.252 122.408 493.333 122.976 492.441 123.489L491.671 122.138C492.604 121.584 493.482 121.043 494.347 120.475H494.279ZM488.873 123.543L489.563 124.895C488.617 125.368 487.644 125.814 486.67 126.246L486.17 124.814C487.116 124.435 488.062 124.003 488.981 123.543H488.873ZM483.292 125.963L483.765 127.436C482.764 127.801 481.737 128.125 480.737 128.422L480.291 126.922C481.332 126.625 482.319 126.314 483.292 125.963ZM477.345 127.692L477.696 129.233C476.669 129.463 475.615 129.679 474.574 129.855L474.304 128.301C475.318 128.125 476.345 127.922 477.345 127.692ZM471.249 128.72L471.412 130.287C470.357 130.396 469.29 130.49 468.236 130.544L468.155 128.963C469.182 128.868 470.249 128.868 471.249 128.72ZM361.29 129.044H364.439V130.612H361.29V129.044ZM367.588 129.044H370.723V130.612H367.534L367.588 129.044ZM373.872 129.044H376.994V130.612H373.845L373.872 129.044ZM380.157 129.044H383.306V130.612H380.157V129.044ZM386.455 129.044H389.59V130.612H386.455V129.044ZM392.74 129.044H395.916V130.612H392.78L392.74 129.044ZM399.024 129.044H402.173V130.612H399.024V129.044ZM405.309 129.044H408.458V130.612H405.376L405.309 129.044ZM411.607 129.044H414.742V130.612H411.607V129.044ZM417.891 129.044H421.04V130.612H417.891V129.044ZM424.176 129.044H427.325V130.612H424.176V129.044ZM430.474 129.044H433.61V130.612H430.474V129.044ZM436.759 129.044H439.894V130.612H436.759V129.044ZM443.043 129.044H446.192V130.612H443.043V129.044ZM449.328 129.044H452.477V130.612H449.328V129.044ZM455.626 129.044H458.761V130.612H455.626V129.044ZM461.91 129.044H465.059V130.612H461.91V129.044ZM358.14 129.044V130.612H354.991V129.071L358.14 129.044ZM351.829 129.125V130.693H351.234L351.167 129.125H351.829Z" fill="#8566FF"/>
<path d="M350.45 76.0234H352.032V264.169C352.032 286.826 361.032 308.556 377.053 324.577C393.074 340.598 414.804 349.599 437.461 349.599C460.119 349.599 481.848 340.598 497.869 324.577C513.89 308.556 522.891 286.826 522.891 264.169H524.472C524.472 287.246 515.305 309.377 498.987 325.695C482.67 342.013 460.538 351.18 437.461 351.18C414.385 351.18 392.253 342.013 375.935 325.695C359.617 309.377 350.45 287.246 350.45 264.169V76.0234Z" fill="#8566FF"/>
<path d="M618.754 417.756H617.187V419.324H618.754V417.756Z" fill="#8566FF"/>
<path d="M571.289 166.265C572.371 166.265 573.438 166.265 574.493 166.4L574.317 167.981C573.303 167.9 572.263 167.846 571.222 167.846L571.289 166.265ZM568.086 166.346L568.181 167.914C567.154 167.914 566.127 168.062 565.099 168.184L564.856 166.63C565.964 166.494 567.032 166.4 568.086 166.346ZM577.669 166.751C578.709 166.9 579.777 167.089 580.818 167.305L580.493 168.846C579.48 168.63 578.453 168.454 577.452 168.305L577.669 166.751ZM561.748 167.13L562.045 168.67C561.031 168.86 560.018 169.089 559.018 169.36L558.626 167.832C559.653 167.562 560.707 167.332 561.748 167.13ZM583.926 168.076C584.953 168.373 585.981 168.697 586.981 169.062L586.481 170.535C585.507 170.198 584.521 169.873 583.521 169.589L583.926 168.076ZM555.544 168.751L556.044 170.238C555.071 170.562 554.085 170.927 553.139 171.333L552.544 169.873C553.53 169.414 554.544 169.089 555.558 168.751H555.544ZM589.94 170.238C590.914 170.657 591.887 171.13 592.819 171.59L592.103 172.941C591.197 172.468 590.251 172.022 589.305 171.59L589.94 170.238ZM549.625 171.198L550.314 172.549C549.395 173.009 548.476 173.495 547.611 174.022L546.827 172.671C547.732 172.117 548.638 171.657 549.638 171.198H549.625ZM595.576 173.171C596.482 173.739 597.387 174.32 598.279 174.928L597.374 176.279C596.536 175.698 595.671 175.131 594.779 174.59L595.576 173.171ZM544.043 174.414L544.921 175.766C544.056 176.347 543.218 176.955 542.407 177.577L541.448 176.333C542.322 175.649 543.205 175.009 544.097 174.414H544.043ZM600.807 176.847C601.631 177.509 602.442 178.199 603.226 178.928L602.172 180.091C601.415 179.388 600.618 178.739 599.82 178.063L600.807 176.847ZM538.975 178.334L540.029 179.51C539.258 180.185 538.502 180.861 537.772 181.631L536.663 180.537C537.461 179.78 538.231 179.037 539.029 178.334H538.975ZM605.51 181.172C606.24 181.942 606.956 182.753 607.645 183.564L606.429 184.578C605.767 183.78 605.078 182.997 604.375 182.267L605.51 181.172ZM534.542 182.929L535.731 183.956C535.055 184.726 534.379 185.537 533.785 186.362L532.528 185.416C533.163 184.524 533.839 183.686 534.542 182.929ZM609.659 186.146C610.281 187.011 610.889 187.903 611.457 188.849L610.105 189.687C609.565 188.822 608.983 187.957 608.375 187.119L609.659 186.146ZM530.69 188.024L532.041 188.889C531.487 189.741 530.947 190.633 530.433 191.592L529.081 190.822C529.554 189.795 530.109 188.876 530.69 187.984V188.024ZM613.065 191.565C613.565 192.498 614.052 193.471 614.484 194.43L613.052 195.079C612.633 194.147 612.16 193.214 611.7 192.309L613.065 191.565ZM527.554 193.565L528.973 194.241C528.527 195.16 528.108 196.12 527.73 197.066L526.27 196.444C526.662 195.498 527.095 194.525 527.554 193.565ZM615.714 197.363C616.079 198.35 616.43 199.377 616.741 200.391L615.228 200.85C614.93 199.864 614.606 198.877 614.241 197.904L615.714 197.363ZM525.162 199.499L526.662 199.985C526.351 200.958 526.067 201.958 525.811 202.959L524.311 202.58C524.567 201.553 524.865 200.499 525.189 199.499H525.162ZM617.525 203.553C617.768 204.594 617.971 205.648 618.133 206.702L616.579 206.946C616.417 205.932 616.214 204.905 615.998 203.905L617.525 203.553ZM523.621 205.783L525.162 206.054C524.986 207.054 524.838 208.094 524.729 209.121L523.162 208.946C523.31 207.81 523.459 206.743 523.648 205.716L523.621 205.783ZM618.525 209.838C618.62 210.892 618.687 211.96 618.714 213.027H617.133C617.133 212 617.052 210.96 616.957 209.932L618.525 209.838ZM522.959 212.068H524.527C524.527 212.757 524.527 213.419 524.527 214.122V215.19H522.959V214.122C522.959 213.487 522.959 212.771 522.959 212.068ZM617.201 216.122H618.769V219.271H617.201V216.122ZM522.959 218.406H524.54V221.555H522.959V218.406ZM617.255 222.461H618.823V225.61H617.255V222.461ZM522.959 224.705H524.54V227.854H522.959V224.705ZM617.255 228.759H618.823V231.908H617.255V228.759ZM522.959 231.003H524.54V234.152H522.959V231.003ZM617.255 235.057H618.823V238.206H617.255V235.057ZM522.959 237.301H524.54V240.45H522.959V237.301ZM617.255 241.355H618.823V244.504H617.255V241.355ZM522.959 243.599H524.54V246.748H522.959V243.599ZM617.255 247.653H618.823V250.802H617.255V247.653ZM522.959 249.897H524.54V253.046H522.959V249.897ZM617.255 253.951H618.823V257.101H617.255V253.951ZM522.959 256.195H524.54V259.344H522.959V256.195ZM617.255 260.25H618.823V263.399H617.255V260.25ZM617.255 266.548H618.823V269.697H617.255V266.548ZM617.255 272.859H618.823V276.008H617.255V272.859ZM617.255 279.157H618.823V282.306H617.255V279.157ZM617.255 285.456H618.823V288.605H617.255V285.456ZM617.255 291.754H618.823V294.903H617.255V291.754ZM617.255 298.052H618.823V301.201H617.255V298.052ZM617.255 304.35H618.823V307.499H617.255V304.35ZM617.255 310.648H618.823V313.797H617.255V310.648ZM617.255 316.946H618.823V320.095H617.255V316.946ZM617.255 323.244H618.823V326.393H617.255V323.244ZM617.255 329.542H618.823V332.705H617.255V329.542ZM617.255 335.854H618.823V339.003H617.255V335.854ZM617.255 342.152H618.823V345.301H617.255V342.152ZM617.255 348.45H618.823V351.599H617.255V348.45ZM617.255 354.748H618.823V357.897H617.255V354.748ZM617.255 361.046H618.823V364.195H617.255V361.046ZM617.255 367.344H618.823V370.493H617.255V367.344ZM617.255 373.642H618.823V376.791H617.255V373.642ZM617.255 379.941H618.823V383.09H617.255V379.941ZM617.255 386.252H618.823V389.401H617.255V386.252ZM617.255 392.55H618.823V395.699H617.255V392.55ZM617.255 398.848H618.823V401.997H617.255V398.848ZM617.255 405.146H618.823V408.295H617.255V405.146ZM617.255 411.445H618.823V414.594H617.255V411.445Z" fill="#8566FF"/>
<path d="M524.458 262.601H522.891V264.168H524.458V262.601Z" fill="#8566FF"/>
<path d="M483.305 380.616H541.88C552.852 380.63 563.369 384.995 571.127 392.753C578.885 400.511 583.25 411.029 583.264 422H581.683C581.672 411.447 577.475 401.329 570.013 393.867C562.551 386.405 552.433 382.208 541.88 382.197H483.305C472.749 382.197 462.625 386.391 455.161 393.855C447.696 401.32 443.503 411.444 443.503 422C443.503 432.556 447.696 442.68 455.161 450.144C462.625 457.609 472.749 461.802 483.305 461.802H574.709C585.97 461.788 596.767 457.308 604.73 449.345C612.693 441.382 617.173 430.585 617.187 419.324H618.755C618.741 431.001 614.096 442.196 605.838 450.453C597.581 458.71 586.386 463.356 574.709 463.37H483.305C477.809 463.469 472.347 462.472 467.24 460.438C462.133 458.403 457.483 455.371 453.56 451.519C449.638 447.667 446.523 443.072 444.396 438.002C442.269 432.933 441.174 427.491 441.174 421.993C441.174 416.495 442.269 411.053 444.396 405.984C446.523 400.914 449.638 396.319 453.56 392.467C457.483 388.615 462.133 385.583 467.24 383.548C472.347 381.514 477.809 380.517 483.305 380.616Z" fill="#8566FF"/>
<path d="M581.682 426.676H583.263V429.771H581.682V426.676ZM581.682 432.879H583.263V435.974H581.682V432.879ZM581.682 439.083H583.263V442.178H581.682V439.083ZM581.682 445.286H583.263V448.381H581.682V445.286ZM581.682 451.49H583.263V454.585H581.682V451.49ZM581.682 457.693H583.263V460.788H581.682V457.693ZM581.682 463.897H583.263V466.992H581.682V463.897ZM581.682 470.1H583.263V473.195H581.682V470.1ZM581.682 476.304H583.263V479.399H581.682V476.304ZM581.682 482.507H583.263V485.67H581.682V482.507ZM581.682 488.711H583.263V491.819H581.682V488.711ZM581.682 494.914H583.263V498.023H581.682V494.914ZM581.682 501.118H583.263V504.226H581.682V501.118ZM581.682 507.321H583.263V510.43H581.682V507.321ZM581.682 513.525H583.263V516.633H581.682V513.525ZM581.682 519.728H583.263V522.837H581.682V519.728ZM581.682 525.932H583.263V529.04H581.682V525.932ZM581.682 532.135H583.263V535.244H581.682V532.135Z" fill="#8566FF"/>
<path d="M583.249 422H581.682V423.568H583.249V422Z" fill="#8566FF"/>
<path d="M331.366 217.082H332.948V220.231H331.366V217.082ZM331.366 223.367H332.948V226.516H331.366V223.367ZM331.366 229.665H332.948V232.8H331.366V229.665ZM331.366 235.949H332.948V239.098H331.366V235.949ZM331.366 242.234H332.948V245.383H331.366V242.234ZM331.366 248.518H332.948V251.668H331.366V248.518ZM331.366 254.817H332.948V257.952H331.366V254.817ZM331.366 261.101H332.948V264.25H331.366V261.101ZM331.366 267.386H332.948V270.535H331.366V267.386ZM331.366 273.684H332.948V276.819H331.366V273.684ZM331.366 279.968H332.948V283.117H331.366V279.968ZM331.366 286.253H332.948V289.402H331.366V286.253ZM331.366 292.538H332.948V295.687H331.366V292.538ZM331.366 298.836H332.948V301.971H331.366V298.836ZM331.366 305.12H332.948V308.269H331.366V305.12ZM331.366 311.405H332.948V314.554H331.366V311.405ZM331.366 317.703H332.948V320.784H331.366V317.703ZM331.366 323.988H332.948V327.137H331.366V323.988ZM331.366 330.272H332.948V333.421H331.366V330.272ZM331.366 336.557H332.948V339.706H331.366V336.557ZM331.366 342.855H332.948V345.99H331.366V342.855ZM331.366 349.139H332.948V352.288H331.366V349.139ZM331.366 355.424H332.948V358.627H331.366V355.424ZM331.366 361.722H332.948V364.858H331.366V361.722ZM331.366 368.007H332.948V371.156H331.366V368.007ZM331.366 374.291H332.948V377.44H331.366V374.291ZM331.366 380.576H332.948V383.725H331.366V380.576ZM331.366 386.874H332.948V390.009H331.366V386.874ZM331.366 393.159H332.948V396.308H331.366V393.159ZM331.366 399.443H332.948V402.592H331.366V399.443ZM331.366 405.741H332.948V408.877H331.366V405.741ZM331.366 412.026H332.948V415.175H331.366V412.026ZM331.366 418.31H332.948V421.459H331.366V418.31ZM331.366 424.595H332.948V427.744H331.366V424.595ZM331.366 430.893H332.948V434.029H331.366V430.893ZM331.366 437.178H332.948V440.327H331.366V437.178ZM331.366 443.462H332.948V446.611H331.366V443.462ZM331.366 449.76H332.948V452.896H331.366V449.76ZM331.366 456.045H332.948V459.194H331.366V456.045ZM331.366 462.329H332.948V465.479H331.366V462.329ZM331.366 468.614H332.948V471.763H331.366V468.614ZM331.366 474.912H332.948V478.048H331.366V474.912ZM331.366 481.197H332.948V484.319H331.366V481.197ZM331.366 487.481H332.948V490.63H331.366V487.481ZM331.366 493.779H332.948V496.915H331.366V493.779ZM331.366 500.064H332.948V503.24H331.366V500.064ZM331.366 506.349H332.948V509.498H331.366V506.349ZM331.366 512.647H332.948V515.782H331.366V512.647ZM331.366 518.931H332.948V522.067H331.366V518.931Z" fill="#8566FF"/>
<path d="M277.806 0C285.759 0.00715115 293.384 3.1687 299.009 8.79104C304.634 14.4134 307.799 22.0373 307.81 29.9903V116.15H306.228V29.9903C306.207 22.4695 303.21 15.2629 297.892 9.94484C292.574 4.62682 285.367 1.6297 277.846 1.60831C270.325 1.6297 263.119 4.62682 257.801 9.94484C252.483 15.2629 249.486 22.4695 249.464 29.9903V158.669C249.486 166.19 252.483 173.396 257.801 178.714C263.119 184.032 270.325 187.029 277.846 187.051H302.985C310.938 187.058 318.563 190.22 324.188 195.842C329.813 201.464 332.978 209.088 332.988 217.041H331.407C331.407 209.514 328.417 202.295 323.094 196.972C317.772 191.649 310.552 188.659 303.025 188.659H277.887C269.936 188.648 262.314 185.485 256.692 179.863C251.07 174.241 247.907 166.619 247.896 158.669V29.9903C247.907 22.0537 251.059 14.444 256.664 8.82435C262.268 3.20472 269.869 0.0321394 277.806 0Z" fill="#8566FF"/>
<path d="M179.807 228.962C179.807 227.705 180.179 226.477 180.877 225.432C181.575 224.388 182.567 223.574 183.728 223.093C184.889 222.612 186.166 222.486 187.398 222.731C188.63 222.977 189.762 223.582 190.65 224.47C191.539 225.358 192.144 226.49 192.389 227.722C192.634 228.954 192.508 230.232 192.027 231.392C191.547 232.553 190.732 233.545 189.688 234.243C188.643 234.941 187.415 235.314 186.159 235.314C185.325 235.314 184.499 235.149 183.728 234.83C182.957 234.511 182.257 234.043 181.667 233.453C181.077 232.863 180.609 232.163 180.29 231.392C179.971 230.622 179.807 229.796 179.807 228.962Z" fill="#8566FF"/>
<path d="M97.6338 265.939C97.6311 264.735 97.9859 263.557 98.6532 262.555C99.3204 261.553 100.27 260.771 101.382 260.309C102.494 259.847 103.718 259.726 104.899 259.96C106.08 260.194 107.165 260.774 108.016 261.625C108.868 262.476 109.447 263.561 109.681 264.742C109.916 265.923 109.794 267.147 109.332 268.259C108.87 269.371 108.088 270.321 107.086 270.988C106.084 271.655 104.906 272.01 103.702 272.007C102.093 272.007 100.549 271.368 99.4112 270.23C98.2731 269.092 97.6338 267.549 97.6338 265.939Z" fill="#8566FF"/>
<path d="M1.50244e-05 265.939C-0.00265931 264.736 0.351746 263.558 1.0184 262.557C1.68506 261.555 2.63401 260.773 3.74508 260.311C4.85616 259.848 6.07943 259.726 7.26008 259.959C8.44073 260.192 9.52569 260.77 10.3776 261.62C11.2295 262.47 11.8101 263.554 12.0458 264.734C12.2816 265.914 12.162 267.138 11.7021 268.25C11.2421 269.362 10.4626 270.313 9.46216 270.982C8.46172 271.65 7.28532 272.007 6.08187 272.007C4.4712 272.007 2.92632 271.369 1.78614 270.231C0.645958 269.093 0.00359429 267.55 1.50244e-05 265.939Z" fill="#8566FF"/>
<path d="M98.4453 354.572C98.448 353.645 98.7253 352.739 99.2423 351.97C99.7592 351.201 100.493 350.602 101.35 350.249C102.207 349.896 103.149 349.805 104.058 349.987C104.967 350.17 105.802 350.617 106.456 351.274C107.111 351.93 107.556 352.766 107.736 353.675C107.916 354.585 107.822 355.527 107.467 356.383C107.111 357.239 106.51 357.971 105.739 358.486C104.968 359 104.062 359.275 103.135 359.275C102.518 359.275 101.907 359.153 101.337 358.917C100.767 358.68 100.25 358.334 99.8142 357.897C99.3785 357.46 99.0333 356.941 98.7984 356.371C98.5635 355.8 98.4436 355.189 98.4453 354.572Z" fill="#8566FF"/>
<path d="M243.761 240.098C243.758 239.167 244.032 238.256 244.547 237.481C245.062 236.706 245.796 236.101 246.655 235.743C247.514 235.385 248.46 235.29 249.373 235.47C250.287 235.65 251.126 236.096 251.785 236.754C252.444 237.411 252.893 238.249 253.076 239.162C253.259 240.074 253.166 241.021 252.811 241.881C252.455 242.741 251.852 243.476 251.078 243.994C250.305 244.511 249.395 244.787 248.464 244.787C247.847 244.789 247.236 244.669 246.665 244.434C246.095 244.199 245.576 243.854 245.139 243.419C244.702 242.983 244.356 242.465 244.119 241.896C243.882 241.326 243.761 240.715 243.761 240.098Z" fill="#8566FF"/>
<path d="M302.215 116.15C302.213 115.533 302.333 114.921 302.568 114.351C302.803 113.78 303.148 113.262 303.584 112.825C304.019 112.388 304.537 112.041 305.107 111.805C305.677 111.568 306.288 111.446 306.905 111.446C307.522 111.446 308.133 111.568 308.702 111.805C309.272 112.041 309.79 112.388 310.226 112.825C310.661 113.262 311.006 113.78 311.241 114.351C311.476 114.921 311.596 115.533 311.594 116.15C311.594 117.393 311.1 118.586 310.221 119.466C309.341 120.345 308.148 120.839 306.905 120.839C306.289 120.839 305.679 120.718 305.11 120.482C304.541 120.247 304.024 119.901 303.588 119.466C303.153 119.03 302.808 118.513 302.572 117.944C302.336 117.375 302.215 116.765 302.215 116.15Z" fill="#8566FF"/>
<path d="M326.082 221.339C326.082 220.136 326.439 218.96 327.107 217.96C327.775 216.96 328.725 216.18 329.836 215.72C330.948 215.259 332.171 215.139 333.35 215.374C334.53 215.608 335.614 216.188 336.464 217.038C337.315 217.889 337.894 218.972 338.129 220.152C338.364 221.332 338.243 222.555 337.783 223.666C337.323 224.777 336.543 225.727 335.543 226.396C334.543 227.064 333.367 227.421 332.164 227.421C331.365 227.422 330.573 227.266 329.834 226.961C329.096 226.656 328.425 226.208 327.859 225.643C327.294 225.078 326.846 224.407 326.541 223.668C326.236 222.93 326.08 222.138 326.082 221.339Z" fill="#8566FF"/>
<path d="M343.814 129.611C343.814 128.14 344.251 126.703 345.068 125.48C345.886 124.257 347.047 123.304 348.406 122.742C349.765 122.18 351.261 122.034 352.703 122.322C354.145 122.609 355.47 123.319 356.509 124.36C357.548 125.401 358.255 126.726 358.54 128.169C358.825 129.612 358.676 131.107 358.111 132.465C357.547 133.823 356.592 134.983 355.368 135.798C354.144 136.613 352.705 137.047 351.234 137.044C350.259 137.044 349.293 136.852 348.392 136.478C347.491 136.105 346.672 135.557 345.983 134.866C345.294 134.176 344.747 133.356 344.375 132.455C344.003 131.553 343.813 130.587 343.814 129.611Z" fill="#8566FF"/>
<path d="M345.287 71.5629C345.287 69.9857 345.914 68.4732 347.029 67.358C348.144 66.2427 349.657 65.6162 351.234 65.6162C352.811 65.6162 354.324 66.2427 355.439 67.358C356.554 68.4732 357.181 69.9857 357.181 71.5629C357.181 73.1401 356.554 74.6526 355.439 75.7679C354.324 76.8831 352.811 77.5096 351.234 77.5096C349.657 77.5096 348.144 76.8831 347.029 75.7679C345.914 74.6526 345.287 73.1401 345.287 71.5629Z" fill="#8566FF"/>
<path d="M517.553 261.195C517.553 259.992 517.909 258.816 518.578 257.816C519.246 256.816 520.196 256.037 521.307 255.576C522.419 255.116 523.641 254.995 524.821 255.23C526.001 255.465 527.085 256.044 527.935 256.895C528.786 257.745 529.365 258.829 529.6 260.009C529.834 261.188 529.714 262.411 529.254 263.523C528.793 264.634 528.014 265.584 527.013 266.252C526.013 266.92 524.837 267.277 523.635 267.277C522.022 267.277 520.475 266.636 519.334 265.496C518.193 264.355 517.553 262.808 517.553 261.195Z" fill="#8566FF"/>
<path d="M576.397 461.653C576.397 460.45 576.755 459.273 577.423 458.273C578.092 457.272 579.043 456.493 580.155 456.033C581.267 455.573 582.491 455.453 583.671 455.689C584.851 455.925 585.935 456.505 586.785 457.357C587.635 458.209 588.213 459.294 588.446 460.475C588.679 461.656 588.557 462.879 588.094 463.99C587.632 465.101 586.85 466.05 585.848 466.717C584.846 467.383 583.669 467.738 582.466 467.735C581.668 467.735 580.878 467.578 580.14 467.272C579.403 466.966 578.734 466.518 578.17 465.953C577.606 465.388 577.16 464.717 576.856 463.98C576.551 463.242 576.396 462.451 576.397 461.653Z" fill="#8566FF"/>
<path d="M582.467 541.326C585.826 541.326 588.548 538.603 588.548 535.244C588.548 531.885 585.826 529.162 582.467 529.162C579.108 529.162 576.385 531.885 576.385 535.244C576.385 538.603 579.108 541.326 582.467 541.326Z" fill="#8566FF"/>
<path d="M578.371 420.607C578.371 419.789 578.614 418.99 579.068 418.31C579.522 417.63 580.168 417.1 580.924 416.786C581.68 416.473 582.511 416.392 583.314 416.551C584.116 416.711 584.853 417.105 585.431 417.683C586.01 418.261 586.403 418.998 586.563 419.801C586.723 420.603 586.641 421.434 586.328 422.19C586.015 422.946 585.485 423.592 584.804 424.046C584.124 424.5 583.325 424.743 582.507 424.743C581.41 424.743 580.358 424.307 579.582 423.532C578.807 422.756 578.371 421.704 578.371 420.607Z" fill="#8566FF"/>
<path d="M614.862 419.324C614.862 418.695 615.049 418.081 615.398 417.559C615.747 417.037 616.243 416.63 616.823 416.389C617.403 416.149 618.042 416.086 618.658 416.208C619.274 416.331 619.84 416.634 620.284 417.078C620.728 417.522 621.031 418.088 621.153 418.704C621.276 419.32 621.213 419.959 620.973 420.539C620.732 421.119 620.325 421.615 619.803 421.964C619.281 422.313 618.667 422.5 618.038 422.5C617.196 422.5 616.388 422.165 615.793 421.569C615.197 420.974 614.862 420.166 614.862 419.324Z" fill="#8566FF"/>
<path d="M326.082 523.512C326.079 522.309 326.434 521.132 327.1 520.13C327.767 519.128 328.716 518.346 329.827 517.884C330.938 517.421 332.161 517.299 333.342 517.532C334.523 517.765 335.608 518.344 336.46 519.194C337.312 520.044 337.892 521.127 338.128 522.307C338.364 523.487 338.244 524.711 337.784 525.823C337.324 526.935 336.545 527.886 335.544 528.555C334.544 529.224 333.367 529.581 332.164 529.581C331.366 529.582 330.575 529.427 329.838 529.123C329.1 528.818 328.429 528.372 327.864 527.808C327.299 527.244 326.851 526.575 326.545 525.838C326.239 525.101 326.082 524.31 326.082 523.512Z" fill="#8566FF"/>
</svg>
