<svg width="27" height="19" viewBox="0 0 27 19" fill="none" xmlns="http://www.w3.org/2000/svg">
<path d="M2.25 0.125H11.625C12.1223 0.125 12.5992 0.322544 12.9508 0.674175C13.3025 1.02581 13.5 1.50272 13.5 2C13.5 2.49728 13.3025 2.97419 12.9508 3.32583C12.5992 3.67746 12.1223 3.875 11.625 3.875H2.25C1.75272 3.875 1.27581 3.67746 0.924175 3.32583C0.572544 2.97419 0.375 2.49728 0.375 2C0.375 1.50272 0.572544 1.02581 0.924175 0.674175C1.27581 0.322544 1.75272 0.125 2.25 0.125ZM15.375 15.125H24.75C25.2473 15.125 25.7242 15.3225 26.0758 15.6742C26.4275 16.0258 26.625 16.5027 26.625 17C26.625 17.4973 26.4275 17.9742 26.0758 18.3258C25.7242 18.6775 25.2473 18.875 24.75 18.875H15.375C14.8777 18.875 14.4008 18.6775 14.0492 18.3258C13.6975 17.9742 13.5 17.4973 13.5 17C13.5 16.5027 13.6975 16.0258 14.0492 15.6742C14.4008 15.3225 14.8777 15.125 15.375 15.125ZM2.25 7.625H24.75C25.2473 7.625 25.7242 7.82254 26.0758 8.17418C26.4275 8.52581 26.625 9.00272 26.625 9.5C26.625 9.99728 26.4275 10.4742 26.0758 10.8258C25.7242 11.1775 25.2473 11.375 24.75 11.375H2.25C1.75272 11.375 1.27581 11.1775 0.924175 10.8258C0.572544 10.4742 0.375 9.99728 0.375 9.5C0.375 9.00272 0.572544 8.52581 0.924175 8.17418C1.27581 7.82254 1.75272 7.625 2.25 7.625Z" fill="#4F35C4"/>
</svg>
