<svg width="124" height="124" viewBox="0 0 124 124" fill="none" xmlns="http://www.w3.org/2000/svg">
<circle cx="62" cy="62" r="61.5" fill="white" stroke="#141232"/>
<path d="M88.2302 57.803V82.0122C88.2302 83.2791 87.7295 84.4941 86.8383 85.3899C85.9471 86.2857 84.7384 86.7889 83.4781 86.7889H63.0869C62.8268 86.7927 62.575 86.6973 62.382 86.5221C62.189 86.3468 62.0692 86.1046 62.0466 85.8441C62.0381 85.7068 62.0577 85.5691 62.1042 85.4397C62.1507 85.3102 62.223 85.1917 62.3168 85.0915C62.4106 84.9913 62.5239 84.9114 62.6496 84.8569C62.7753 84.8023 62.9107 84.7742 63.0476 84.7743H83.4781C84.2069 84.7743 84.9058 84.4833 85.4211 83.9653C85.9365 83.4473 86.226 82.7448 86.226 82.0122V57.7888C86.2151 57.4523 86.7199 56.981 87.2423 56.9766C87.7646 56.9722 88.2302 57.4117 88.2302 57.803Z" fill="#141232"/>
<path d="M72.2416 39.9727H34.9225C33.664 39.9741 32.4575 40.4772 31.5677 41.3717C30.6778 42.2662 30.1772 43.4789 30.1758 44.7439V56.1716C30.1844 56.4332 30.2938 56.6811 30.4809 56.8631C30.668 57.0451 30.9181 57.1468 31.1784 57.1468C31.4388 57.1468 31.6889 57.0451 31.876 56.8631C32.0631 56.6811 32.1725 56.4332 32.1811 56.1716V44.7439C32.182 44.0133 32.4711 43.313 32.985 42.7964C33.4989 42.2798 34.1957 41.9892 34.9225 41.9884C34.9225 41.9884 68.0718 42.2218 72.2416 41.9884C73.103 41.939 73.5425 40.3508 72.2416 39.9727Z" fill="#141232"/>
<path d="M72.9726 49.1748H31.1478C30.7323 49.1748 30.3943 48.7243 30.3943 48.1674C30.3943 47.6106 30.7323 47.1602 31.1478 47.1602H72.9726C73.3881 47.1602 73.7261 47.6117 73.7261 48.1674C73.7261 48.7232 73.3881 49.1748 72.9726 49.1748Z" fill="#141232"/>
<path d="M39.5634 44.2735C39.2976 44.2735 39.0427 44.1674 38.8548 43.9785C38.6669 43.7896 38.5613 43.5334 38.5613 43.2662V38.7076C38.5613 38.4404 38.6668 38.184 38.8547 37.995C39.0426 37.8059 39.2975 37.6995 39.5634 37.6992C39.6951 37.6992 39.8255 37.7253 39.9471 37.776C40.0688 37.8267 40.1793 37.901 40.2724 37.9946C40.3655 38.0883 40.4392 38.1995 40.4895 38.3218C40.5398 38.4441 40.5656 38.5752 40.5655 38.7076V43.2662C40.5656 43.3985 40.5398 43.5296 40.4895 43.6519C40.4392 43.7742 40.3654 43.8852 40.2723 43.9788C40.1792 44.0724 40.0687 44.1466 39.9471 44.1971C39.8254 44.2477 39.695 44.2737 39.5634 44.2735Z" fill="#141232"/>
<path d="M69.647 60.9219H67.5817C67.3215 60.9133 67.0748 60.8034 66.8938 60.6153C66.7128 60.4272 66.6116 60.1758 66.6116 59.9141C66.6116 59.6524 66.7128 59.401 66.8938 59.2129C67.0748 59.0249 67.3215 58.9149 67.5817 58.9062H69.647C69.9072 58.9149 70.1539 59.0249 70.3349 59.2129C70.5159 59.401 70.6171 59.6524 70.6171 59.9141C70.6171 60.1758 70.5159 60.4272 70.3349 60.6153C70.1539 60.8034 69.9072 60.9133 69.647 60.9219Z" fill="#141232"/>
<path d="M78.4968 60.9219H76.4316C76.1714 60.9133 75.9247 60.8034 75.7436 60.6153C75.5626 60.4272 75.4614 60.1758 75.4614 59.9141C75.4614 59.6524 75.5626 59.401 75.7436 59.2129C75.9247 59.0249 76.1714 58.9149 76.4316 58.9062H78.4968C78.757 58.9149 79.0037 59.0249 79.1847 59.2129C79.3658 59.401 79.467 59.6524 79.467 59.9141C79.467 60.1758 79.3658 60.4272 79.1847 60.6153C79.0037 60.8034 78.757 60.9133 78.4968 60.9219Z" fill="#141232"/>
<path d="M69.6465 66.8583H67.5812C67.3154 66.8583 67.0605 66.7522 66.8726 66.5633C66.6847 66.3744 66.5791 66.1182 66.5791 65.851C66.5791 65.5839 66.6847 65.3277 66.8726 65.1388C67.0605 64.9499 67.3154 64.8438 67.5812 64.8438H69.6465C69.9123 64.8438 70.1672 64.9499 70.3551 65.1388C70.543 65.3277 70.6486 65.5839 70.6486 65.851C70.6486 66.1182 70.543 66.3744 70.3551 66.5633C70.1672 66.7522 69.9123 66.8583 69.6465 66.8583Z" fill="#141232"/>
<path d="M78.4964 66.8583H76.4311C76.1653 66.8583 75.9104 66.7522 75.7225 66.5633C75.5346 66.3744 75.429 66.1182 75.429 65.851C75.429 65.5839 75.5346 65.3277 75.7225 65.1388C75.9104 64.9499 76.1653 64.8438 76.4311 64.8438H78.4964C78.7621 64.8438 79.017 64.9499 79.205 65.1388C79.3929 65.3277 79.4985 65.5839 79.4985 65.851C79.4985 66.1182 79.3929 66.3744 79.205 66.5633C79.017 66.7522 78.7621 66.8583 78.4964 66.8583Z" fill="#141232"/>
<path d="M69.647 72.7891H67.5817C67.3215 72.7805 67.0748 72.6705 66.8938 72.4825C66.7128 72.2944 66.6116 72.043 66.6116 71.7813C66.6116 71.5196 66.7128 71.2682 66.8938 71.0801C67.0748 70.892 67.3215 70.7821 67.5817 70.7734H69.647C69.9072 70.7821 70.1539 70.892 70.3349 71.0801C70.5159 71.2682 70.6171 71.5196 70.6171 71.7813C70.6171 72.043 70.5159 72.2944 70.3349 72.4825C70.1539 72.6705 69.9072 72.7805 69.647 72.7891Z" fill="#141232"/>
<path d="M78.4968 72.7891H76.4316C76.1714 72.7805 75.9247 72.6705 75.7436 72.4825C75.5626 72.2944 75.4614 72.043 75.4614 71.7813C75.4614 71.5196 75.5626 71.2682 75.7436 71.0801C75.9247 70.892 76.1714 70.7821 76.4316 70.7734H78.4968C78.757 70.7821 79.0037 70.892 79.1847 71.0801C79.3658 71.2682 79.467 71.5196 79.467 71.7813C79.467 72.043 79.3658 72.2944 79.1847 72.4825C79.0037 72.6705 78.757 72.7805 78.4968 72.7891Z" fill="#141232"/>
<path d="M60.3193 60.9225H58.255C57.9948 60.9139 57.7482 60.8039 57.5672 60.6158C57.3861 60.4278 57.2849 60.1763 57.2849 59.9147C57.2849 59.653 57.3861 59.4015 57.5672 59.2135C57.7482 59.0254 57.9948 58.9154 58.255 58.9068H60.3193C60.4537 58.9023 60.5877 58.9251 60.7132 58.9738C60.8387 59.0224 60.9532 59.0959 61.0499 59.19C61.1466 59.284 61.2235 59.3966 61.276 59.5211C61.3285 59.6456 61.3555 59.7794 61.3555 59.9147C61.3555 60.0499 61.3285 60.1837 61.276 60.3082C61.2235 60.4327 61.1466 60.5453 61.0499 60.6393C60.9532 60.7334 60.8387 60.8069 60.7132 60.8555C60.5877 60.9042 60.4537 60.927 60.3193 60.9225Z" fill="#141232"/>
<path d="M69.6465 54.5185H67.5812C67.3154 54.5185 67.0605 54.4124 66.8726 54.2235C66.6847 54.0346 66.5791 53.7784 66.5791 53.5112C66.5791 53.244 66.6847 52.9878 66.8726 52.7989C67.0605 52.61 67.3154 52.5039 67.5812 52.5039H69.6465C69.9123 52.5039 70.1672 52.61 70.3551 52.7989C70.543 52.9878 70.6486 53.244 70.6486 53.5112C70.6486 53.7784 70.543 54.0346 70.3551 54.2235C70.1672 54.4124 69.9123 54.5185 69.6465 54.5185Z" fill="#141232"/>
<path d="M60.319 54.5185H58.2548C57.989 54.5185 57.7341 54.4124 57.5462 54.2235C57.3583 54.0346 57.2527 53.7784 57.2527 53.5112C57.2527 53.244 57.3583 52.9878 57.5462 52.7989C57.7341 52.61 57.989 52.5039 58.2548 52.5039H60.319C60.5848 52.5039 60.8397 52.61 61.0276 52.7989C61.2155 52.9878 61.3211 53.244 61.3211 53.5112C61.3211 53.7784 61.2155 54.0346 61.0276 54.2235C60.8397 54.4124 60.5848 54.5185 60.319 54.5185Z" fill="#141232"/>
<path d="M51.3012 54.5185H49.237C48.9712 54.5185 48.7163 54.4124 48.5284 54.2235C48.3404 54.0346 48.2349 53.7784 48.2349 53.5112C48.2349 53.244 48.3404 52.9878 48.5284 52.7989C48.7163 52.61 48.9712 52.5039 49.237 52.5039H51.3012C51.567 52.5039 51.8219 52.61 52.0098 52.7989C52.1977 52.9878 52.3033 53.244 52.3033 53.5112C52.3033 53.7784 52.1977 54.0346 52.0098 54.2235C51.8219 54.4124 51.567 54.5185 51.3012 54.5185Z" fill="#141232"/>
<path d="M41.9749 54.5185H39.9096C39.6438 54.5185 39.3889 54.4124 39.201 54.2235C39.013 54.0346 38.9075 53.7784 38.9075 53.5112C38.9075 53.244 39.013 52.9878 39.201 52.7989C39.3889 52.61 39.6438 52.5039 39.9096 52.5039H41.9749C42.2407 52.5039 42.4956 52.61 42.6835 52.7989C42.8714 52.9878 42.977 53.244 42.977 53.5112C42.977 53.7784 42.8714 54.0346 42.6835 54.2235C42.4956 54.4124 42.2407 54.5185 41.9749 54.5185Z" fill="#141232"/>
<path d="M41.994 62.7494C41.8624 62.7495 41.732 62.7236 41.6104 62.673C41.4887 62.6224 41.3782 62.5482 41.2851 62.4547C41.192 62.3611 41.1182 62.25 41.0679 62.1277C41.0176 62.0054 40.9918 61.8744 40.9919 61.7421V61.3354C40.9919 61.0683 41.0975 60.8121 41.2855 60.6232C41.4734 60.4342 41.7283 60.3281 41.994 60.3281C42.2598 60.3281 42.5147 60.4342 42.7026 60.6232C42.8906 60.8121 42.9962 61.0683 42.9962 61.3354V61.7421C42.9963 61.8744 42.9705 62.0054 42.9202 62.1277C42.8699 62.25 42.7961 62.3611 42.703 62.4547C42.6099 62.5482 42.4993 62.6224 42.3777 62.673C42.2561 62.7236 42.1257 62.7495 41.994 62.7494Z" fill="#141232"/>
<path d="M41.994 92.5345C41.8624 92.5347 41.732 92.5087 41.6104 92.4582C41.4887 92.4076 41.3782 92.3334 41.2851 92.2398C41.192 92.1463 41.1182 92.0352 41.0679 91.9129C41.0176 91.7906 40.9918 91.6596 40.9919 91.5272V91.1206C40.9919 90.8534 41.0975 90.5972 41.2855 90.4083C41.4734 90.2194 41.7283 90.1133 41.994 90.1133C42.2598 90.1133 42.5147 90.2194 42.7026 90.4083C42.8906 90.5972 42.9962 90.8534 42.9962 91.1206V91.5272C42.9963 91.6596 42.9705 91.7906 42.9202 91.9129C42.8699 92.0352 42.7961 92.1463 42.703 92.2398C42.6099 92.3334 42.4993 92.4076 42.3777 92.4582C42.2561 92.5087 42.1257 92.5347 41.994 92.5345Z" fill="#141232"/>
<path d="M27.3813 77.4443H26.9767C26.7109 77.4443 26.456 77.3382 26.2681 77.1493C26.0802 76.9604 25.9746 76.7041 25.9746 76.437C25.9746 76.1698 26.0802 75.9136 26.2681 75.7247C26.456 75.5358 26.7109 75.4297 26.9767 75.4297H27.3813C27.647 75.4297 27.9019 75.5358 28.0899 75.7247C28.2778 75.9136 28.3834 76.1698 28.3834 76.437C28.3834 76.7041 28.2778 76.9604 28.0899 77.1493C27.9019 77.3382 27.647 77.4443 27.3813 77.4443Z" fill="#141232"/>
<path d="M57.0119 77.4443H56.6073C56.3416 77.4443 56.0867 77.3382 55.8987 77.1493C55.7108 76.9604 55.6052 76.7041 55.6052 76.437C55.6052 76.1698 55.7108 75.9136 55.8987 75.7247C56.0867 75.5358 56.3416 75.4297 56.6073 75.4297H57.0119C57.2777 75.4297 57.5325 75.5358 57.7205 75.7247C57.9084 75.9136 58.014 76.1698 58.014 76.437C58.014 76.7041 57.9084 76.9604 57.7205 77.1493C57.5325 77.3382 57.2777 77.4443 57.0119 77.4443Z" fill="#141232"/>
<path d="M34.6883 64.7187C34.5116 64.7192 34.3379 64.6728 34.1848 64.5843C34.0316 64.4958 33.9044 64.3682 33.816 64.2145L33.6142 63.8626C33.4813 63.6312 33.4453 63.3563 33.5142 63.0982C33.583 62.8401 33.7509 62.6201 33.9812 62.4865C34.2114 62.3529 34.4849 62.3167 34.7417 62.3859C34.9984 62.4551 35.2173 62.6239 35.3502 62.8553L35.5519 63.2072C35.6396 63.3603 35.6858 63.5339 35.6857 63.7106C35.6857 63.8873 35.6394 64.0608 35.5516 64.2139C35.4638 64.367 35.3376 64.4942 35.1855 64.5828C35.0334 64.6714 34.8608 64.7182 34.685 64.7187H34.6883Z" fill="#141232"/>
<path d="M49.5042 90.5184C49.3275 90.5192 49.1537 90.473 49.0004 90.3844C48.8472 90.2959 48.72 90.1681 48.6319 90.0142L48.4301 89.6634C48.2973 89.432 48.2613 89.157 48.3301 88.899C48.3989 88.6409 48.5669 88.4209 48.7971 88.2873C49.0273 88.1537 49.3008 88.1175 49.5576 88.1867C49.8143 88.2559 50.0332 88.4247 50.1661 88.6561L50.3679 89.0069C50.4561 89.1603 50.5026 89.3345 50.5024 89.5118C50.5023 89.6891 50.4556 89.8632 50.3671 90.0165C50.2786 90.1699 50.1514 90.297 49.9984 90.3851C49.8453 90.4733 49.6719 90.5192 49.4955 90.5184H49.5042Z" fill="#141232"/>
<path d="M28.9899 84.987C28.7693 84.9872 28.5547 84.9141 28.3795 84.7792C28.2044 84.6442 28.0784 84.4549 28.0213 84.2407C27.9641 84.0264 27.9789 83.7992 28.0633 83.5942C28.1478 83.3893 28.2972 83.2181 28.4883 83.1073L28.8384 82.9045C29.0686 82.7709 29.3422 82.7347 29.5989 82.8039C29.8556 82.873 30.0745 83.0419 30.2074 83.2733C30.3403 83.5047 30.3763 83.7797 30.3075 84.0378C30.2387 84.2958 30.0707 84.5159 29.8405 84.6494L29.4905 84.8522C29.3384 84.9408 29.1657 84.9873 28.9899 84.987Z" fill="#141232"/>
<path d="M54.651 70.0897C54.4302 70.0901 54.2154 70.0172 54.0401 69.8823C53.8647 69.7475 53.7386 69.5582 53.6813 69.3439C53.624 69.1296 53.6387 68.9022 53.7232 68.6972C53.8076 68.4921 53.957 68.3208 54.1483 68.2099L54.4983 68.006C54.6123 67.9399 54.7381 67.897 54.8686 67.8797C54.9991 67.8624 55.1317 67.8712 55.2588 67.9054C55.3859 67.9397 55.5051 67.9988 55.6095 68.0793C55.7139 68.1599 55.8015 68.2603 55.8673 68.3749C55.9331 68.4894 55.9758 68.6159 55.993 68.7471C56.0102 68.8782 56.0015 69.0115 55.9674 69.1393C55.9333 69.2671 55.8746 69.3869 55.7944 69.4918C55.7143 69.5968 55.6144 69.6849 55.5004 69.751L55.1504 69.9549C54.9985 70.0431 54.8263 70.0896 54.651 70.0897Z" fill="#141232"/>
<path d="M49.3007 64.7187C49.1249 64.7182 48.9524 64.6714 48.8003 64.5828C48.6482 64.4942 48.5219 64.367 48.4341 64.2139C48.3463 64.0608 48.3001 63.8873 48.3 63.7106C48.3 63.5339 48.3461 63.3603 48.4338 63.2072L48.6355 62.8553C48.7684 62.6239 48.9873 62.4551 49.2441 62.3859C49.5008 62.3167 49.7744 62.3529 50.0046 62.4865C50.2348 62.6201 50.4028 62.8401 50.4716 63.0982C50.5404 63.3563 50.5044 63.6312 50.3715 63.8626L50.1698 64.2145C50.0816 64.3677 49.9549 64.495 49.8024 64.5835C49.6498 64.672 49.4768 64.7186 49.3007 64.7187Z" fill="#141232"/>
<path d="M34.4846 90.5168C34.3091 90.5173 34.1368 90.4707 33.9852 90.382C33.7571 90.2476 33.5911 90.0281 33.5233 89.7713C33.4555 89.5145 33.4914 89.2411 33.6231 89.0108L33.8249 88.66C33.9578 88.4286 34.1767 88.2598 34.4334 88.1906C34.6902 88.1214 34.9637 88.1576 35.1939 88.2912C35.4241 88.4248 35.5921 88.6448 35.6609 88.9029C35.7297 89.1609 35.6937 89.4359 35.5608 89.6673L35.3591 90.0181C35.2701 90.1713 35.1423 90.2982 34.9887 90.3858C34.8351 90.4734 34.6612 90.5186 34.4846 90.5168Z" fill="#141232"/>
<path d="M29.3377 70.0897C29.1623 70.0896 28.9901 70.0431 28.8383 69.9549L28.4882 69.751C28.258 69.6174 28.09 69.3974 28.0212 69.1393C27.9524 68.8812 27.9884 68.6063 28.1213 68.3749C28.2542 68.1435 28.4731 67.9746 28.7298 67.9054C28.9866 67.8363 29.2602 67.8725 29.4904 68.006L29.8404 68.2099C30.0316 68.3208 30.1811 68.4921 30.2655 68.6972C30.3499 68.9022 30.3646 69.1296 30.3073 69.3439C30.25 69.5582 30.1239 69.7475 29.9486 69.8823C29.7732 70.0172 29.5585 70.0901 29.3377 70.0897Z" fill="#141232"/>
<path d="M54.9953 84.987C54.8195 84.9873 54.6468 84.9408 54.4948 84.8522L54.1447 84.6494C53.9145 84.5159 53.7465 84.2958 53.6777 84.0378C53.6089 83.7797 53.6449 83.5047 53.7778 83.2733C53.9107 83.0419 54.1296 82.873 54.3863 82.8039C54.6431 82.7347 54.9166 82.7709 55.1468 82.9045L55.4969 83.1073C55.688 83.2181 55.8374 83.3893 55.9219 83.5942C56.0063 83.7992 56.0211 84.0264 55.9639 84.2407C55.9068 84.4549 55.7808 84.6442 55.6057 84.7792C55.4305 84.9141 55.216 84.9872 54.9953 84.987Z" fill="#141232"/>
<path d="M41.9945 96.453C31.0149 96.453 22.082 87.4739 22.082 76.4374C22.082 65.401 31.0149 56.4219 41.9945 56.4219C52.9741 56.4219 61.907 65.401 61.907 76.4374C61.907 87.4739 52.9741 96.453 41.9945 96.453ZM41.9945 58.4376C32.1195 58.4376 24.0863 66.5124 24.0863 76.4374C24.0863 86.3625 32.1195 94.4384 41.9945 94.4384C51.8695 94.4384 59.9028 86.3636 59.9028 76.4374C59.9028 66.5113 51.8684 58.4376 41.9945 58.4376Z" fill="#141232"/>
<path d="M41.994 77.4368C41.8613 77.4369 41.73 77.4105 41.6075 77.3592C41.4851 77.3078 41.3741 77.2325 41.2808 77.1376L34.3337 70.0711C34.1468 69.881 34.0428 69.6241 34.0445 69.3569C34.0461 69.0896 34.1533 68.834 34.3424 68.6462C34.5315 68.4584 34.7871 68.3538 35.053 68.3555C35.3188 68.3571 35.5732 68.4649 35.76 68.655L42.163 75.1679L47.9423 71.8128C48.1725 71.6792 48.4461 71.643 48.7029 71.7122C48.9596 71.7814 49.1785 71.9502 49.3114 72.1816C49.4443 72.413 49.4803 72.688 49.4115 72.9461C49.3426 73.2042 49.1747 73.4242 48.9444 73.5578L42.4923 77.302C42.3408 77.39 42.169 77.4365 41.994 77.4368Z" fill="#141232"/>
<path d="M46.1104 44.2677C45.9787 44.2678 45.8483 44.2419 45.7266 44.1913C45.6049 44.1408 45.4943 44.0666 45.4011 43.9731C45.3079 43.8795 45.234 43.7684 45.1836 43.6461C45.1332 43.5238 45.1072 43.3928 45.1072 43.2604V38.7018C45.1028 38.5666 45.1255 38.432 45.1738 38.3058C45.2222 38.1796 45.2954 38.0645 45.3889 37.9674C45.4825 37.8702 45.5945 37.7929 45.7183 37.7401C45.8422 37.6874 45.9753 37.6602 46.1099 37.6602C46.2444 37.6602 46.3776 37.6874 46.5014 37.7401C46.6253 37.7929 46.7373 37.8702 46.8309 37.9674C46.9244 38.0645 46.9975 38.1796 47.0459 38.3058C47.0943 38.432 47.117 38.5666 47.1125 38.7018V43.2604C47.1125 43.5276 47.007 43.7838 46.819 43.9727C46.6311 44.1616 46.3762 44.2677 46.1104 44.2677Z" fill="#141232"/>
<path d="M52.6569 44.2735C52.5253 44.2737 52.3949 44.2477 52.2732 44.1971C52.1516 44.1466 52.0411 44.0724 51.948 43.9788C51.8549 43.8852 51.7811 43.7742 51.7308 43.6519C51.6805 43.5296 51.6546 43.3985 51.6548 43.2662V38.7076C51.6546 38.5752 51.6804 38.4441 51.7307 38.3218C51.781 38.1995 51.8548 38.0883 51.9479 37.9946C52.041 37.901 52.1515 37.8267 52.2731 37.776C52.3948 37.7253 52.5252 37.6992 52.6569 37.6992C52.7886 37.6992 52.919 37.7253 53.0406 37.776C53.1623 37.8267 53.2728 37.901 53.3659 37.9946C53.4589 38.0883 53.5327 38.1995 53.583 38.3218C53.6333 38.4441 53.6591 38.5752 53.659 38.7076V43.2662C53.6591 43.3985 53.6333 43.5296 53.583 43.6519C53.5327 43.7742 53.4589 43.8852 53.3658 43.9788C53.2727 44.0724 53.1622 44.1466 53.0405 44.1971C52.9189 44.2477 52.7885 44.2737 52.6569 44.2735Z" fill="#141232"/>
<path d="M59.2026 44.2735C58.9368 44.2735 58.6819 44.1674 58.494 43.9785C58.306 43.7896 58.2004 43.5334 58.2004 43.2662V38.7076C58.2004 38.4404 58.306 38.184 58.4939 37.995C58.6818 37.8059 58.9367 37.6995 59.2026 37.6992C59.4686 37.6992 59.7238 37.8055 59.9119 37.9946C60.1001 38.1837 60.2058 38.4402 60.2058 38.7076V43.2662C60.2058 43.3986 60.1798 43.5297 60.1294 43.652C60.079 43.7742 60.005 43.8853 59.9119 43.9789C59.8187 44.0724 59.7081 44.1466 59.5864 44.1972C59.4647 44.2477 59.3343 44.2737 59.2026 44.2735Z" fill="#141232"/>
<path d="M65.7494 44.2735C65.6178 44.2737 65.4874 44.2477 65.3658 44.1971C65.2441 44.1466 65.1336 44.0724 65.0405 43.9788C64.9474 43.8852 64.8736 43.7742 64.8233 43.6519C64.773 43.5296 64.7472 43.3985 64.7473 43.2662V38.7065C64.7473 38.4394 64.8529 38.1832 65.0408 37.9942C65.2288 37.8053 65.4837 37.6992 65.7494 37.6992C65.8811 37.6992 66.0115 37.7253 66.1332 37.776C66.2548 37.8267 66.3653 37.901 66.4584 37.9946C66.5515 38.0883 66.6253 38.1995 66.6756 38.3218C66.7259 38.4441 66.7517 38.5752 66.7516 38.7076V43.2662C66.7516 43.5334 66.646 43.7896 66.458 43.9785C66.2701 44.1674 66.0152 44.2735 65.7494 44.2735Z" fill="#141232"/>
<path d="M69.6465 78.7216H67.5812C67.3154 78.7216 67.0605 78.6155 66.8726 78.4266C66.6847 78.2377 66.5791 77.9815 66.5791 77.7143C66.5791 77.4472 66.6847 77.191 66.8726 77.0021C67.0605 76.8132 67.3154 76.707 67.5812 76.707H69.6465C69.9123 76.707 70.1672 76.8132 70.3551 77.0021C70.543 77.191 70.6486 77.4472 70.6486 77.7143C70.6486 77.9815 70.543 78.2377 70.3551 78.4266C70.1672 78.6155 69.9123 78.7216 69.6465 78.7216Z" fill="#141232"/>
<path d="M88.9367 55.1711C80.8413 55.1711 74.2561 48.5518 74.2561 40.4156C74.2561 32.2794 80.8413 25.6602 88.9367 25.6602C97.0321 25.6602 103.616 32.2794 103.616 40.4156C103.616 48.5518 97.031 55.1711 88.9367 55.1711ZM88.9367 27.6748C86.4298 27.6748 83.9791 28.422 81.8947 29.822C79.8102 31.222 78.1856 33.2118 77.2263 35.5399C76.2669 37.868 76.0159 40.4297 76.505 42.9012C76.994 45.3727 78.2013 47.6429 79.9739 49.4248C81.7466 51.2066 84.0051 52.4201 86.4639 52.9117C88.9226 53.4033 91.4712 53.151 93.7873 52.1866C96.1034 51.2223 98.083 49.5893 99.4758 47.4941C100.869 45.3988 101.612 42.9355 101.612 40.4156C101.608 37.0377 100.272 33.7992 97.8953 31.4106C95.519 29.0221 92.2972 27.6785 88.9367 27.6748Z" fill="#141232"/>
<path d="M89.2691 38.437C88.7697 39.0413 88.1299 39.9156 87.3499 41.0599C86.447 42.392 85.7851 43.3339 85.3642 43.8856C85.9531 43.8586 86.4663 43.8447 86.9039 43.844C87.2341 43.8569 87.5625 43.8991 87.8853 43.97C88.208 44.0419 88.5365 44.0845 88.8667 44.0972C88.9782 44.0932 89.0893 44.1125 89.1929 44.1541C89.2966 44.1956 89.3904 44.2583 89.4686 44.3383C89.6175 44.5084 89.6997 44.7272 89.6997 44.9538C89.6997 45.1803 89.6175 45.3991 89.4686 45.5692C89.39 45.6483 89.2959 45.7103 89.1923 45.7512C89.0888 45.7921 88.9779 45.8112 88.8667 45.8071C88.5365 45.7938 88.2081 45.7512 87.8853 45.6799C87.5625 45.6087 87.2342 45.5662 86.9039 45.5528C85.696 45.5468 84.4904 45.6628 83.3055 45.8991C83.2029 45.9204 83.0984 45.9318 82.9936 45.9331C82.4491 45.9331 82.1773 45.6934 82.178 45.2141C82.178 44.9324 82.3175 44.666 82.5989 44.4019C84.0637 43.0712 85.6572 40.9985 87.3794 38.1838C86.6335 38.2291 86.0919 38.2514 85.7546 38.2507C84.8983 38.2487 84.0433 38.1839 83.1965 38.0567C82.697 37.9836 82.4473 37.7045 82.4473 37.2193C82.44 36.9901 82.5213 36.7669 82.6741 36.5967C82.746 36.5161 82.8344 36.4522 82.9332 36.4092C83.0321 36.3663 83.139 36.3453 83.2466 36.3479C83.6631 36.358 84.0788 36.3902 84.4919 36.4443C84.9107 36.4997 85.3323 36.5323 85.7546 36.5419C86.1363 36.5419 86.7088 36.5152 87.4721 36.4619C88.2354 36.4085 88.8078 36.3815 89.1895 36.3807C89.666 36.3807 89.9048 36.5791 89.9048 36.9737C89.9077 37.4312 89.6958 37.9189 89.2691 38.437Z" fill="#141232"/>
<path d="M93.2752 39.506L93.1748 43.1943C93.1748 43.556 93.1581 44.092 93.1247 44.8023C93.0571 45.3211 92.7932 45.5805 92.333 45.5805C91.7994 45.5805 91.533 45.3097 91.5337 44.7683C91.5337 44.2568 91.5534 43.5969 91.5926 42.7888L91.6766 40.8081C91.0986 41.1867 90.6988 41.3759 90.4771 41.3759C90.3733 41.376 90.2707 41.3533 90.1765 41.3094C90.0823 41.2655 89.9988 41.2014 89.9319 41.1216C89.7857 40.9661 89.7046 40.7601 89.7051 40.5462C89.7051 40.2539 89.8537 40.0226 90.1511 39.8524C90.7022 39.5546 91.2212 39.2001 91.6995 38.7946L91.742 36.0117L91.7671 33.2276C91.7631 33.1207 91.7807 33.0141 91.8187 32.9142C91.8566 32.8142 91.9143 32.723 91.9881 32.646C92.062 32.5689 92.1505 32.5076 92.2485 32.4658C92.3464 32.4239 92.4518 32.4023 92.5582 32.4023C92.6646 32.4023 92.77 32.4239 92.8679 32.4658C92.9659 32.5076 93.0544 32.5689 93.1283 32.646C93.2021 32.723 93.2598 32.8142 93.2977 32.9142C93.3357 33.0141 93.3533 33.1207 93.3493 33.2276L93.3079 37.2042L93.7539 36.6803C93.8275 36.5977 93.9167 36.5304 94.0162 36.4825C94.1158 36.4345 94.2238 36.4068 94.334 36.4008C94.4405 36.401 94.546 36.4224 94.6442 36.4638C94.7425 36.5052 94.8316 36.5657 94.9065 36.6419C94.9858 36.7123 95.0494 36.7989 95.093 36.8958C95.1366 36.9927 95.1593 37.0978 95.1595 37.2042C95.1551 37.5659 94.527 38.3332 93.2752 39.506Z" fill="#141232"/>
</svg>
