<svg width="27" height="27" viewBox="0 0 27 27" fill="none" xmlns="http://www.w3.org/2000/svg">
<g clip-path="url(#clip0_276_960)">
<path d="M13.495 0C6.04329 0 0 6.04329 0 13.505C0 20.9667 6.04329 27.01 13.495 27.01C20.9467 27.01 27 20.9667 27 13.505C27 6.04329 20.9567 0 13.495 0ZM14.0344 19.5283C13.8047 19.8779 13.4251 20.0877 13.0055 20.1176C12.9756 20.1176 12.9456 20.1176 12.9256 20.1176C12.5361 20.1176 12.1765 19.9478 11.9168 19.6582L5.87347 12.6659L7.89123 10.9279L12.7858 16.6016L18.879 7.48169L21.0866 8.96004L14.0344 19.5283Z" fill="#F85459"/>
</g>
<defs>
<clipPath id="clip0_276_960">
<rect width="27" height="27" fill="white"/>
</clipPath>
</defs>
</svg>
