<svg width="48" height="50" viewBox="0 0 48 50" fill="none" xmlns="http://www.w3.org/2000/svg">
<rect width="48" height="50" rx="16" fill="#F0EDFE"/>
<g clip-path="url(#clip0_267_744)">
<path d="M32 15H20C18.9 15 18 15.9 18 17V29C18 30.1 18.9 31 20 31H32C33.1 31 34 30.1 34 29V17C34 15.9 33.1 15 32 15ZM24.47 27L21 23.5L22.4 22.09L24.47 24.17L29.6 19L31 20.41L24.47 27ZM16 19H14V33C14 34.1 14.9 35 16 35H30V33H16V19Z" fill="#8566FF"/>
</g>
<defs>
<clipPath id="clip0_267_744">
<rect width="24" height="24" fill="white" transform="translate(12 13)"/>
</clipPath>
</defs>
</svg>
