<svg width="124" height="124" viewBox="0 0 124 124" fill="none" xmlns="http://www.w3.org/2000/svg">
<circle cx="62" cy="62" r="61.5" fill="white" stroke="#141232"/>
<path d="M74.6429 91.7343H38.8681C37.9585 91.7328 37.0868 91.3703 36.4442 90.7266C35.8016 90.0828 35.4407 89.2104 35.4407 88.3008V42.0805C35.4391 41.6293 35.5271 41.1822 35.6996 40.7653C35.872 40.3484 36.1255 39.9698 36.4453 39.6515L42.9041 33.1922C43.2217 32.873 43.5992 32.62 44.0151 32.4475C44.4309 32.2751 44.8768 32.1867 45.3269 32.1875H76.7939C77.1345 32.1891 77.4607 32.3255 77.701 32.5669C77.9413 32.8084 78.0762 33.1352 78.0762 33.4758V42.5591C78.0762 42.8146 77.9747 43.0596 77.7941 43.2403C77.6135 43.4209 77.3685 43.5224 77.113 43.5224C76.8575 43.5224 76.6125 43.4209 76.4319 43.2403C76.2513 43.0596 76.1498 42.8146 76.1498 42.5591V34.1141H45.3269C45.1292 34.1142 44.9334 34.1535 44.7509 34.2296C44.5683 34.3056 44.4026 34.417 44.2633 34.5573L37.8044 41.0167C37.6649 41.1564 37.5545 41.3223 37.4794 41.5048C37.4043 41.6874 37.3662 41.8831 37.3671 42.0805V88.3008C37.3671 88.4979 37.4059 88.6931 37.4814 88.8752C37.5568 89.0573 37.6674 89.2228 37.8067 89.3622C37.9461 89.5016 38.1116 89.6122 38.2937 89.6876C38.4758 89.763 38.671 89.8018 38.8681 89.8018H74.6429C75.0415 89.8018 75.4239 89.6439 75.7064 89.3625C75.9888 89.0812 76.1482 88.6994 76.1498 88.3008V86.1082C76.1498 85.8528 76.2513 85.6077 76.4319 85.4271C76.6125 85.2464 76.8575 85.1449 77.113 85.1449C77.3685 85.1449 77.6135 85.2464 77.7941 85.4271C77.9747 85.6077 78.0762 85.8528 78.0762 86.1082V88.3008C78.0747 89.2109 77.7124 90.0834 77.0689 90.7269C76.4254 91.3705 75.553 91.7328 74.6429 91.7343Z" fill="#141232"/>
<path d="M67.1026 67.6688H60.2005C59.9451 67.6688 59.7001 67.5673 59.5194 67.3866C59.3388 67.206 59.2373 66.961 59.2373 66.7055C59.2373 66.45 59.3388 66.205 59.5194 66.0243C59.7001 65.8437 59.9451 65.7422 60.2005 65.7422H67.1026C67.358 65.7422 67.603 65.8437 67.7837 66.0243C67.9643 66.205 68.0658 66.45 68.0658 66.7055C68.0658 66.961 67.9643 67.206 67.7837 67.3866C67.603 67.5673 67.358 67.6688 67.1026 67.6688Z" fill="#141232"/>
<path d="M43.8257 42.0178H36.9532C36.6977 42.0178 36.4527 41.9163 36.2721 41.7357C36.0915 41.555 35.99 41.31 35.99 41.0545C35.99 40.799 36.0915 40.554 36.2721 40.3734C36.4527 40.1927 36.6977 40.0913 36.9532 40.0913H43.8257C43.8477 40.0913 43.8687 40.0825 43.8842 40.067C43.8997 40.0515 43.9084 40.0305 43.9084 40.0085V37.4555C43.9084 37.2 44.0099 36.955 44.1906 36.7743C44.3712 36.5937 44.6162 36.4922 44.8716 36.4922C45.1271 36.4922 45.3721 36.5937 45.5527 36.7743C45.7334 36.955 45.8349 37.2 45.8349 37.4555V40.0085C45.8349 40.5414 45.6232 41.0525 45.2464 41.4293C44.8696 41.8061 44.3586 42.0178 43.8257 42.0178Z" fill="#141232"/>
<path d="M70.0809 63.5555H60.2005C59.9451 63.5555 59.7001 63.454 59.5194 63.2733C59.3388 63.0927 59.2373 62.8477 59.2373 62.5922C59.2373 62.3367 59.3388 62.0917 59.5194 61.911C59.7001 61.7304 59.9451 61.6289 60.2005 61.6289H70.0809C70.3363 61.6289 70.5813 61.7304 70.7619 61.911C70.9426 62.0917 71.0441 62.3367 71.0441 62.5922C71.0441 62.8477 70.9426 63.0927 70.7619 63.2733C70.5813 63.454 70.3363 63.5555 70.0809 63.5555Z" fill="#141232"/>
<path d="M81.1606 36.7354C80.9052 36.7354 80.6602 36.6339 80.4795 36.4533C80.2989 36.2726 80.1974 36.0276 80.1974 35.7721V30.9911C80.1974 30.7451 80.0997 30.5091 79.9257 30.3351C79.7517 30.1611 79.5157 30.0633 79.2696 30.0633H49.3805C49.125 30.0633 48.88 29.9618 48.6994 29.7812C48.5187 29.6005 48.4172 29.3555 48.4172 29.1C48.4172 28.8445 48.5187 28.5995 48.6994 28.4189C48.88 28.2382 49.125 28.1367 49.3805 28.1367H79.2696C80.0266 28.1367 80.7526 28.4375 81.2878 28.9728C81.8231 29.5081 82.1238 30.2341 82.1238 30.9911V35.7721C82.1238 36.0276 82.0223 36.2726 81.8417 36.4533C81.6611 36.6339 81.4161 36.7354 81.1606 36.7354Z" fill="#141232"/>
<path d="M48.1576 69.7922C47.8882 69.7946 47.6211 69.7436 47.3716 69.6422C47.1221 69.5407 46.8951 69.3909 46.7039 69.2012L43.0992 65.5903C42.8358 65.3247 42.688 64.9657 42.688 64.5916C42.688 64.2175 42.8358 63.8585 43.0992 63.5928L44.7479 61.9499C45.0171 61.6934 45.3747 61.5503 45.7466 61.5503C46.1184 61.5503 46.476 61.6934 46.7452 61.9499L48.1635 63.3742L51.6027 59.9347C51.8683 59.6712 52.2273 59.5234 52.6014 59.5234C52.9755 59.5234 53.3344 59.6712 53.6 59.9347L55.2428 61.5835C55.3738 61.7142 55.4777 61.8694 55.5486 62.0403C55.6195 62.2111 55.656 62.3943 55.656 62.5793C55.656 62.7643 55.6195 62.9475 55.5486 63.1184C55.4777 63.2892 55.3738 63.4445 55.2428 63.5751L49.6172 69.2012C49.4252 69.3916 49.1973 69.5419 48.9467 69.6433C48.6961 69.7448 48.4279 69.7954 48.1576 69.7922ZM44.8247 64.5798L48.063 67.8242C48.0743 67.8382 48.0888 67.8492 48.1053 67.8564C48.1217 67.8636 48.1396 67.8668 48.1576 67.8656C48.1753 67.8655 48.1929 67.8618 48.2091 67.8547C48.2254 67.8476 48.24 67.8372 48.2521 67.8242L53.5114 62.5645L52.5955 61.6485L49.1562 65.088C48.887 65.3445 48.5294 65.4876 48.1576 65.4876C47.7857 65.4876 47.4281 65.3445 47.1589 65.088L45.7407 63.6638L44.8247 64.5798Z" fill="#141232"/>
<path d="M48.1578 83.5676C47.8885 83.5696 47.6215 83.5185 47.372 83.4171C47.1226 83.3157 46.8956 83.166 46.7041 82.9766L43.0995 79.3716C42.9683 79.2405 42.8643 79.0847 42.7933 78.9134C42.7223 78.742 42.6858 78.5583 42.6858 78.3729C42.6858 78.1874 42.7223 78.0037 42.7933 77.8323C42.8643 77.661 42.9683 77.5053 43.0995 77.3741L44.7482 75.7312C44.8788 75.6002 45.034 75.4963 45.2048 75.4254C45.3757 75.3545 45.5589 75.318 45.7439 75.318C45.9289 75.318 46.112 75.3545 46.2829 75.4254C46.4537 75.4963 46.6089 75.6002 46.7396 75.7312L48.1637 77.1495L51.6029 73.716C51.8685 73.4525 52.2275 73.3047 52.6016 73.3047C52.9757 73.3047 53.3346 73.4525 53.6003 73.716L55.243 75.3589C55.5065 75.6245 55.6543 75.9835 55.6543 76.3576C55.6543 76.7318 55.5065 77.0907 55.243 77.3564L49.6174 82.9825C49.425 83.1718 49.1968 83.321 48.9463 83.4214C48.6957 83.5219 48.4277 83.5715 48.1578 83.5676ZM44.825 78.3551L48.0633 81.5996C48.0746 81.6135 48.089 81.6246 48.1055 81.6318C48.122 81.639 48.1399 81.6421 48.1578 81.641C48.1756 81.6409 48.1931 81.6372 48.2094 81.6301C48.2256 81.623 48.2403 81.6126 48.2524 81.5996L53.5116 76.3399L52.5957 75.4239L49.1565 78.8634C48.8909 79.1268 48.5319 79.2746 48.1578 79.2746C47.7837 79.2746 47.4248 79.1268 47.1591 78.8634L45.7409 77.4391L44.825 78.3551Z" fill="#141232"/>
<path d="M67.1026 53.0789H60.2005C59.9451 53.0789 59.7001 52.9774 59.5194 52.7968C59.3388 52.6161 59.2373 52.3711 59.2373 52.1156C59.2373 51.8601 59.3388 51.6151 59.5194 51.4345C59.7001 51.2538 59.9451 51.1523 60.2005 51.1523H67.1026C67.358 51.1523 67.603 51.2538 67.7837 51.4345C67.9643 51.6151 68.0658 51.8601 68.0658 52.1156C68.0658 52.3711 67.9643 52.6161 67.7837 52.7968C67.603 52.9774 67.358 53.0789 67.1026 53.0789Z" fill="#141232"/>
<path d="M70.0812 48.9872H60.2009C59.9577 48.9681 59.7306 48.8581 59.565 48.679C59.3994 48.4999 59.3074 48.2649 59.3074 48.0209C59.3074 47.777 59.3994 47.542 59.565 47.3629C59.7306 47.1838 59.9577 47.0737 60.2009 47.0547H70.0812C70.3244 47.0737 70.5515 47.1838 70.7171 47.3629C70.8827 47.542 70.9747 47.777 70.9747 48.0209C70.9747 48.2649 70.8827 48.4999 70.7171 48.679C70.5515 48.8581 70.3244 48.9681 70.0812 48.9872Z" fill="#141232"/>
<path d="M48.1576 55.2009C47.8873 55.2041 47.6191 55.1535 47.3685 55.052C47.1179 54.9505 46.89 54.8003 46.698 54.6099L43.0934 50.999C42.8299 50.7334 42.6821 50.3744 42.6821 50.0003C42.6821 49.6261 42.8299 49.2672 43.0934 49.0015L44.7421 47.3586C44.8727 47.2276 45.0279 47.1237 45.1988 47.0528C45.3696 46.9819 45.5528 46.9454 45.7378 46.9454C45.9228 46.9454 46.1059 46.9819 46.2768 47.0528C46.4477 47.1237 46.6029 47.2276 46.7335 47.3586L48.1576 48.7829L51.5968 45.3434C51.7278 45.212 51.8834 45.1078 52.0548 45.0368C52.2262 44.9658 52.41 44.9294 52.5955 44.9297C52.7816 44.9288 52.966 44.9655 53.1376 45.0376C53.3092 45.1097 53.4645 45.2157 53.5942 45.3493L55.237 46.9922C55.5004 47.2579 55.6482 47.6168 55.6482 47.991C55.6482 48.3651 55.5004 48.7241 55.237 48.9897L49.6113 54.6099C49.4201 54.7995 49.1931 54.9494 48.9436 55.0509C48.6941 55.1523 48.427 55.2033 48.1576 55.2009ZM44.8248 49.9944L48.0631 53.2388C48.0757 53.2508 48.0905 53.26 48.1068 53.2661C48.123 53.2722 48.1403 53.275 48.1576 53.2743C48.1923 53.2739 48.2258 53.2614 48.2522 53.2388L53.5114 47.9791L52.5955 47.0631L49.1563 50.4967C48.8907 50.7601 48.5317 50.908 48.1576 50.908C47.7835 50.908 47.4246 50.7601 47.159 50.4967L45.7407 49.0724L44.8248 49.9944Z" fill="#141232"/>
<path d="M75.9782 83.1751C75.8923 83.1749 75.8068 83.163 75.7241 83.1396C75.5834 83.1013 75.4532 83.0314 75.3437 82.9351C75.2341 82.8388 75.1479 82.7187 75.0918 82.5841L72.9113 77.3539C72.0431 75.2758 71.9117 72.9631 72.539 70.8L81.2316 40.8434C81.3228 40.5169 81.4778 40.2117 81.6877 39.9455C81.8976 39.6793 82.1582 39.4574 82.4543 39.2925C82.7505 39.1276 83.0765 39.0231 83.4133 38.985C83.7501 38.9469 84.0912 38.9759 84.4167 39.0705L91.6201 41.1566C91.9444 41.2506 92.247 41.4075 92.5106 41.6184C92.7742 41.8293 92.9937 42.0901 93.1565 42.3858C93.3202 42.6814 93.4234 43.0066 93.4599 43.3425C93.4964 43.6784 93.4656 44.0182 93.3693 44.342L84.6353 74.4404C84.0328 76.5047 82.7761 78.3174 81.0543 79.6056L76.5573 82.9623C76.3922 83.0937 76.1891 83.1683 75.9782 83.1751ZM83.6958 40.9143C83.5879 40.9152 83.4822 40.9437 83.3885 40.9971C83.2393 41.0794 83.1288 41.2175 83.0812 41.3812L74.3886 71.3378C73.8865 73.0801 73.9928 74.9414 74.69 76.6152L76.3919 80.7048L79.902 78.0868C81.2852 77.0559 82.297 75.6044 82.7857 73.9499L91.5197 43.8455C91.5672 43.6818 91.5479 43.5058 91.4659 43.3562C91.384 43.2067 91.246 43.0957 91.0824 43.0477L83.8789 40.9616C83.8205 40.9371 83.7588 40.9212 83.6958 40.9143Z" fill="#141232"/>
<path d="M83.826 74.7658C83.7357 74.7666 83.6459 74.7526 83.5601 74.7245L73.272 71.74C73.1488 71.7063 73.0335 71.6484 72.9329 71.5696C72.8323 71.4909 72.7483 71.393 72.6859 71.2815C72.6235 71.17 72.5839 71.0472 72.5694 70.9202C72.555 70.7933 72.5659 70.6647 72.6015 70.542C72.6372 70.4193 72.6969 70.305 72.7772 70.2056C72.8575 70.1062 72.9567 70.0238 73.0692 69.9631C73.1816 69.9025 73.305 69.8648 73.4322 69.8523C73.5593 69.8398 73.6877 69.8527 73.8098 69.8903L84.0978 72.8747C84.3232 72.9376 84.5181 73.0803 84.6459 73.2763C84.7738 73.4722 84.826 73.7081 84.7927 73.9397C84.7594 74.1713 84.6429 74.3829 84.465 74.535C84.2871 74.687 84.06 74.7691 83.826 74.7658Z" fill="#141232"/>
<path d="M91.2244 62.3395C91.1322 62.3398 91.0405 62.3259 90.9525 62.2981C90.71 62.2267 90.5052 62.0626 90.3825 61.8415C90.2597 61.6204 90.2289 61.3598 90.2966 61.1161L93.3813 50.4786C93.4545 50.2262 93.4247 49.9552 93.2984 49.7247C93.1721 49.4943 92.9597 49.3234 92.7076 49.2493L80.7827 45.798C80.541 45.7236 80.3383 45.5572 80.2182 45.3346C80.0982 45.1121 80.0705 44.8513 80.1411 44.6084C80.2117 44.3656 80.3749 44.1603 80.5955 44.0368C80.8162 43.9133 81.0765 43.8815 81.3204 43.9483L93.2276 47.3996C93.966 47.6231 94.5877 48.1266 94.9598 48.8024C95.3319 49.4782 95.4249 50.2728 95.2191 51.0164L92.1344 61.6539C92.0762 61.8506 91.9563 62.0234 91.7925 62.1468C91.6286 62.2703 91.4295 62.3378 91.2244 62.3395Z" fill="#141232"/>
<path d="M89.4808 42.4043C89.391 42.4041 89.3016 42.3922 89.2149 42.3688C88.9723 42.2974 88.7675 42.1334 88.6448 41.9123C88.5221 41.6911 88.4912 41.4306 88.5589 41.1869L89.2385 38.823L87.5662 38.3384L86.8866 40.7023C86.8529 40.8255 86.7949 40.9408 86.7162 41.0415C86.6375 41.1421 86.5395 41.226 86.4281 41.2884C86.3166 41.3509 86.1938 41.3905 86.0669 41.405C85.9399 41.4194 85.8114 41.4085 85.6887 41.3729C85.566 41.3372 85.4516 41.2775 85.3523 41.1972C85.2529 41.1169 85.1705 41.0176 85.1098 40.9052C85.0492 40.7927 85.0115 40.6693 84.999 40.5422C84.9865 40.415 84.9994 40.2866 85.037 40.1645L85.7638 37.6469C85.9006 37.2052 86.2045 36.8344 86.6108 36.6136C87.017 36.3928 87.4934 36.3395 87.9385 36.465L89.9417 37.056C90.3821 37.1928 90.7518 37.4958 90.9724 37.9007C91.1931 38.3056 91.2473 38.7806 91.1236 39.2249L90.3908 41.7483C90.3266 41.939 90.2044 42.1048 90.0411 42.2225C89.8779 42.3401 89.682 42.4037 89.4808 42.4043Z" fill="#141232"/>
<path d="M71.2331 83.63C70.8518 83.6307 70.4729 83.5709 70.1104 83.4527C69.5713 83.2554 69.0776 82.9511 68.6592 82.5581C68.2408 82.165 67.9063 81.6914 67.6757 81.1656C67.58 80.956 67.4611 80.7577 67.3212 80.5746C67.0701 80.8004 66.8369 81.0454 66.6239 81.3074C65.9725 82.1947 65.0863 82.8825 64.0651 83.2931C62.8151 83.6872 61.4741 83.6872 60.2241 83.2931L59.9818 83.234C59.853 83.2112 59.7301 83.1624 59.6207 83.0905C59.5113 83.0186 59.4178 82.9252 59.3457 82.8159C59.2736 82.7067 59.2246 82.5839 59.2016 82.455C59.1785 82.3262 59.182 82.194 59.2117 82.0665C59.2415 81.939 59.2969 81.819 59.3746 81.7137C59.4523 81.6083 59.5506 81.5199 59.6636 81.4539C59.7766 81.3878 59.9019 81.3455 60.0318 81.3295C60.1617 81.3134 60.2935 81.324 60.4191 81.3606L60.6673 81.4197C61.5827 81.7325 62.5737 81.747 63.4979 81.4611C64.1643 81.1344 64.739 80.647 65.1702 80.0427C65.8438 79.2686 66.547 78.4708 67.5339 78.5949C68.5207 78.719 69.0349 79.6232 69.3717 80.291C70.3172 82.1762 71.6586 81.7093 72.0427 81.5202C72.2707 81.4042 72.5355 81.3836 72.7787 81.4628C73.022 81.5421 73.2238 81.7147 73.3398 81.9428C73.4558 82.1708 73.4764 82.4356 73.3972 82.6789C73.3179 82.9221 73.1453 83.124 72.9173 83.2399C72.3905 83.4897 71.816 83.6228 71.2331 83.63Z" fill="#141232"/>
<path d="M77.7573 68.9547C77.6655 68.9546 77.5742 68.9426 77.4854 68.9193C77.2437 68.8465 77.0399 68.6823 76.9174 68.4615C76.7949 68.2408 76.7634 67.981 76.8295 67.7373L82.3074 48.8261C82.3411 48.7028 82.3991 48.5875 82.4778 48.4869C82.5565 48.3863 82.6545 48.3023 82.766 48.2399C82.8774 48.1775 83.0002 48.1379 83.1272 48.1234C83.2541 48.1089 83.3826 48.1198 83.5053 48.1555C83.628 48.1912 83.7424 48.2509 83.8417 48.3312C83.9411 48.4115 84.0235 48.5107 84.0842 48.6232C84.1448 48.7357 84.1825 48.8591 84.195 48.9862C84.2075 49.1134 84.1946 49.2417 84.157 49.3638L78.6791 68.2751C78.6184 68.4721 78.4961 68.6445 78.3302 68.7668C78.1642 68.8892 77.9634 68.955 77.7573 68.9547Z" fill="#141232"/>
</svg>
