<svg width="11" height="11" viewBox="0 0 11 11" fill="none" xmlns="http://www.w3.org/2000/svg">
<path d="M7.99195 0.5161L5.5 3.00805L3.00805 0.5161C2.6776 0.185647 2.22941 0 1.76207 0C1.29474 0 0.846553 0.185647 0.5161 0.5161C0.185647 0.846553 0 1.29474 0 1.76207C0 2.22941 0.185647 2.6776 0.5161 3.00805L3.05228 5.45577L0.5161 7.99195C0.185647 8.3224 0 8.77059 0 9.23792C0 9.70526 0.185647 10.1534 0.5161 10.4839C0.846553 10.8144 1.29474 11 1.76207 11C2.22941 11 2.6776 10.8144 3.00805 10.4839L5.5 7.90349L7.99195 10.4839C8.3224 10.8144 8.77059 11 9.23792 11C9.70526 11 10.1534 10.8144 10.4839 10.4839C10.8144 10.1534 11 9.70526 11 9.23792C11 8.77059 10.8144 8.3224 10.4839 7.99195L7.94772 5.45577L10.4839 3.00805C10.8144 2.6776 11 2.22941 11 1.76207C11 1.29474 10.8144 0.846553 10.4839 0.5161C10.1534 0.185647 9.70526 1.65035e-07 9.23792 1.65035e-07C8.77059 1.65035e-07 8.3224 0.185647 7.99195 0.5161Z" fill="#FEFEFE"/>
</svg>
