<svg width="22" height="22" viewBox="0 0 22 22" fill="none" xmlns="http://www.w3.org/2000/svg">
<path d="M19.0919 0.807615C19.4824 0.417091 20.1156 0.417091 20.5061 0.807615C20.8966 1.19814 20.8966 1.8313 20.5061 2.22183L2.12132 20.6066C1.7308 20.9971 1.09763 20.9971 0.707107 20.6066C0.316582 20.2161 0.316582 19.5829 0.707107 19.1924L19.0919 0.807615Z" fill="#141F1B"/>
<path d="M20.7196 19.0919C21.1101 19.4824 21.1101 20.1156 20.7196 20.5061C20.329 20.8966 19.6959 20.8966 19.3054 20.5061L0.920579 2.12132C0.530054 1.7308 0.530055 1.09763 0.920579 0.707107C1.3111 0.316582 1.94427 0.316582 2.33479 0.707107L20.7196 19.0919Z" fill="#141F1B"/>
</svg>
