<svg width="23" height="14" viewBox="0 0 23 14" fill="none" xmlns="http://www.w3.org/2000/svg">
<path d="M21.1842 0H1.81579C0.814684 0 0 0.785167 0 1.75V12.25C0 13.2148 0.814684 14 1.81579 14H21.1842C22.1853 14 23 13.2148 23 12.25V1.75C23 0.785167 22.1853 0 21.1842 0ZM21.1842 1.16667C21.2205 1.16667 21.2544 1.17017 21.2895 1.176L12.1718 7.03383C11.8208 7.259 11.1804 7.259 10.8294 7.03383L1.71168 1.176C1.74558 1.17017 1.78068 1.16667 1.817 1.16667H21.1842ZM21.1842 12.8333H1.81579C1.48168 12.8333 1.21053 12.572 1.21053 12.25V2.25633L10.1575 8.0045C10.534 8.246 11.017 8.36733 11.5 8.36733C11.983 8.36733 12.466 8.246 12.8425 8.0045L21.7895 2.25633V12.25C21.7895 12.572 21.5183 12.8333 21.1842 12.8333Z" fill="black"/>
</svg>
