<svg width="38" height="39" viewBox="0 0 38 39" fill="none" xmlns="http://www.w3.org/2000/svg">
<path d="M18.9864 38.847C29.4724 38.847 37.9729 30.1508 37.9729 19.4235C37.9729 8.69619 29.4724 0 18.9864 0C8.50052 0 0 8.69619 0 19.4235C0 30.1508 8.50052 38.847 18.9864 38.847Z" fill="white" fill-opacity="0.5"/>
<path fill-rule="evenodd" clip-rule="evenodd" d="M22.9937 12.1368C23.7922 12.111 24.5906 12.1368 25.3933 12.1368H25.722V7.95987C25.3006 7.91677 24.8498 7.85426 24.4031 7.83271C23.5815 7.79607 22.762 7.75512 21.9403 7.77452C20.7023 7.76534 19.4908 8.14115 18.4662 8.85216C17.9066 9.25821 17.4331 9.77593 17.0743 10.3741C16.7155 10.9723 16.4787 11.6387 16.3783 12.333C16.2853 12.9253 16.2374 13.5241 16.2351 14.124C16.2098 15.0594 16.2351 15.997 16.2351 16.9259V17.2772H12.2554V21.9369H16.2119V32.4979H21.0449V21.9369H24.9867C25.1974 20.3894 25.387 18.8549 25.5935 17.2556H24.7065C23.5857 17.2556 21.0133 17.2556 21.0133 17.2556C21.0133 17.2556 21.0239 14.9473 21.0512 13.9451C21.0871 12.5959 21.8982 12.1778 22.9937 12.1368Z" fill="black"/>
</svg>
