<svg width="98" height="22" viewBox="0 0 98 22" fill="none" xmlns="http://www.w3.org/2000/svg">
<path d="M93.5294 21.7071C93.4224 21.2769 93.3422 20.8173 93.2887 20.3285C93.2531 19.8396 93.2353 19.2724 93.2353 18.6271H93.1283V11.5577C93.1283 10.9514 92.9412 10.4821 92.5668 10.1497C92.2103 9.79766 91.6756 9.62165 90.9626 9.62165C90.2853 9.62165 89.7416 9.74876 89.3316 10.003C88.9395 10.2572 88.681 10.6288 88.5563 11.1177H84.7328C84.9111 9.76832 85.5439 8.65364 86.6312 7.77363C87.7185 6.89362 89.2069 6.45361 91.0963 6.45361C93.057 6.45361 94.5543 6.93273 95.5881 7.89097C96.622 8.8492 97.1389 10.2279 97.1389 12.027V18.6271C97.1389 19.116 97.1656 19.6147 97.2191 20.1231C97.2904 20.612 97.3973 21.14 97.5399 21.7071H93.5294ZM88.7702 22.0005C87.4155 22.0005 86.3371 21.6289 85.535 20.8858C84.7328 20.1231 84.3318 19.116 84.3318 17.8644C84.3318 16.476 84.8042 15.3613 85.7489 14.5204C86.7114 13.6599 88.0483 13.1026 89.7594 12.8484L93.7433 12.2324V14.7844L90.4279 15.3417C89.7149 15.4591 89.189 15.6742 88.8504 15.9871C88.5117 16.3 88.3424 16.7302 88.3424 17.2777C88.3424 17.7666 88.5028 18.1382 88.8236 18.3924C89.1445 18.6467 89.5723 18.7738 90.107 18.7738C90.9448 18.7738 91.6578 18.5293 92.246 18.0404C92.8342 17.532 93.1283 16.9453 93.1283 16.2804L93.5026 18.6271C93.1105 19.7418 92.5134 20.5827 91.7112 21.1498C90.9091 21.7169 89.9288 22.0005 88.7702 22.0005Z" fill="#E8961D"/>
<path d="M78.3441 21.7072V18.3925L78.6115 18.4511C78.4333 19.5267 77.8985 20.3872 77.0073 21.0325C76.1339 21.6778 75.0822 22.0005 73.8523 22.0005C72.6046 22.0005 71.5173 21.6876 70.5904 21.0618C69.6813 20.4165 68.9772 19.5169 68.4781 18.3631C67.979 17.2093 67.7295 15.8502 67.7295 14.2857C67.7295 12.7017 67.988 11.323 68.5049 10.1497C69.0218 8.97635 69.7437 8.06701 70.6706 7.42166C71.6153 6.77632 72.7115 6.45365 73.9592 6.45365C75.2605 6.45365 76.3121 6.7861 77.1142 7.451C77.9342 8.1159 78.4154 9.02524 78.558 10.179L78.2639 10.2084V0.586914H82.2745V21.7072H78.3441ZM75.1357 18.4805C76.0804 18.4805 76.8469 18.1187 77.4351 17.3951C78.0233 16.652 78.3174 15.596 78.3174 14.2271C78.3174 12.8582 78.0144 11.8119 77.4083 11.0884C76.8201 10.3453 76.0447 9.9737 75.0822 9.9737C74.1553 9.9737 73.3889 10.3453 72.7828 11.0884C72.1946 11.8315 71.9005 12.8875 71.9005 14.2564C71.9005 15.6253 72.1946 16.6716 72.7828 17.3951C73.3889 18.1187 74.1731 18.4805 75.1357 18.4805Z" fill="#E8961D"/>
<path d="M62.8482 21.7071C62.7413 21.2769 62.6611 20.8173 62.6076 20.3285C62.5719 19.8396 62.5541 19.2724 62.5541 18.6271H62.4472V11.5577C62.4472 10.9514 62.26 10.4821 61.8857 10.1497C61.5292 9.79766 60.9944 9.62165 60.2814 9.62165C59.6041 9.62165 59.0604 9.74876 58.6505 10.003C58.2583 10.2572 57.9999 10.6288 57.8751 11.1177H54.0517C54.2299 9.76832 54.8627 8.65364 55.95 7.77363C57.0373 6.89362 58.5257 6.45361 60.4151 6.45361C62.3759 6.45361 63.8731 6.93273 64.907 7.89097C65.9408 8.8492 66.4577 10.2279 66.4577 12.027V18.6271C66.4577 19.116 66.4845 19.6147 66.5379 20.1231C66.6092 20.612 66.7162 21.14 66.8588 21.7071H62.8482ZM58.089 22.0005C56.7343 22.0005 55.6559 21.6289 54.8538 20.8858C54.0517 20.1231 53.6506 19.116 53.6506 17.8644C53.6506 16.476 54.123 15.3613 55.0677 14.5204C56.0302 13.6599 57.3671 13.1026 59.0783 12.8484L63.0621 12.2324V14.7844L59.7467 15.3417C59.0337 15.4591 58.5079 15.6742 58.1692 15.9871C57.8305 16.3 57.6612 16.7302 57.6612 17.2777C57.6612 17.7666 57.8216 18.1382 58.1425 18.3924C58.4633 18.6467 58.8911 18.7738 59.4259 18.7738C60.2636 18.7738 60.9766 18.5293 61.5648 18.0404C62.153 17.532 62.4472 16.9453 62.4472 16.2804L62.8215 18.6271C62.4293 19.7418 61.8322 20.5827 61.0301 21.1498C60.228 21.7169 59.2476 22.0005 58.089 22.0005Z" fill="#E8961D"/>
<path d="M37.3237 21.7072V0.586914H45.9331C47.3234 0.586914 48.5355 0.850917 49.5693 1.37892C50.6032 1.88737 51.4053 2.61094 51.9757 3.54962C52.5461 4.4883 52.8313 5.58342 52.8313 6.83499C52.8313 8.06701 52.5461 9.15235 51.9757 10.091C51.4053 11.0102 50.6032 11.7337 49.5693 12.2617C48.5355 12.7702 47.3234 13.0244 45.9331 13.0244H40.5857V9.70969H45.8261C46.8065 9.70969 47.5551 9.46525 48.0721 8.97635C48.6068 8.4679 48.8742 7.76389 48.8742 6.86432C48.8742 5.9452 48.6157 5.25097 48.0988 4.78163C47.5819 4.29274 46.8243 4.04829 45.8261 4.04829H41.4413V21.7072H37.3237ZM48.179 21.7072L40.452 10.7364H44.8101L53.7403 21.7072H48.179Z" fill="#E8961D"/>
<path d="M22.0181 21.7071V6.74695H25.9484V10.267H26.0286V21.7071H22.0181ZM31.5098 21.7071V12.4377C31.5098 11.6163 31.3137 11.0003 30.9215 10.5897C30.5472 10.179 29.9947 9.97366 29.2638 9.97366C28.64 9.97366 28.0785 10.1301 27.5794 10.443C27.0981 10.7559 26.7149 11.1861 26.4297 11.7337C26.1623 12.2812 26.0286 12.9266 26.0286 13.6697L25.6811 10.0617C26.1267 8.96653 26.7773 8.0963 27.6329 7.45096C28.5063 6.78606 29.5758 6.45361 30.8413 6.45361C32.3564 6.45361 33.515 6.92295 34.3172 7.86163C35.1193 8.78075 35.5203 10.0225 35.5203 11.587V21.7071H31.5098Z" fill="#459179"/>
<path d="M15.3463 21.7069V6.74675H19.3569V21.7069H15.3463ZM15.2126 4.75206V0H19.4906V4.75206H15.2126Z" fill="#459179"/>
<path d="M0 21.7072V0.586914H4.11752V21.7072H0ZM1.92508 13.5231V10.0617H12.9675V13.5231H1.92508ZM1.92508 4.04829V0.586914H13.5825V4.04829H1.92508Z" fill="#459179"/>
</svg>
