<svg width="286" height="413" viewBox="0 0 286 413" fill="none" xmlns="http://www.w3.org/2000/svg">
<g opacity="0.3">
<path d="M1.00596 183.817L2.20057 183.817L2.20057 186.221L1.00596 186.221L1.00596 183.817ZM1.00596 188.611L2.20057 188.611L2.20057 191.015L1.00596 191.015L1.00596 188.611ZM1.00596 193.419L2.20057 193.419L2.20057 195.809L1.00596 195.809L1.00596 193.419ZM1.00596 198.214L2.20057 198.214L2.20057 200.604L1.00596 200.604L1.00596 198.214ZM1.00596 203.008L2.20057 203.008L2.20057 205.369L1.00596 205.369L1.00596 203.008ZM1.00596 207.802L2.20057 207.802L2.20057 210.206L1.00596 210.206L1.00596 207.802ZM1.00596 212.596L2.20057 212.596L2.20057 215.001L1.00596 215.001L1.00596 212.596ZM1.00596 217.405L2.20057 217.405L2.20057 219.795L1.00596 219.795L1.00596 217.405ZM1.00596 222.199L2.20057 222.199L2.20057 224.603L1.00596 224.603L1.00596 222.199ZM1.00596 226.993L2.20057 226.993L2.20057 229.398L1.00596 229.398L1.00596 226.993ZM1.00596 231.802L2.20057 231.802L2.20057 234.192L1.00596 234.192L1.00596 231.802ZM1.00596 236.596L2.20057 236.596L2.20057 238.986L1.00596 238.986L1.00596 236.596ZM1.00596 241.39L2.20057 241.39L2.20057 243.78L1.00596 243.78L1.00596 241.39ZM1.00596 246.184L2.20057 246.184L2.20057 248.589L1.00596 248.589L1.00596 246.184ZM1.00596 250.979L2.20057 250.979L2.20057 253.383L1.00596 253.383L1.00596 250.979ZM1.00596 255.787L2.20057 255.787L2.20057 258.177L1.00596 258.177L1.00596 255.787ZM1.00596 260.581L2.20057 260.581L2.20057 262.985L1.00596 262.985L1.00596 260.581ZM1.00596 265.375L2.20057 265.375L2.20057 267.78L1.00596 267.78L1.00596 265.375ZM1.00596 270.17L2.20056 270.17L2.20056 272.574L1.00596 272.574L1.00596 270.17ZM-108.6 274.793C-108.6 275.576 -108.6 276.372 -108.458 277.155L-109.667 277.24C-109.667 276.443 -109.766 275.633 -109.795 274.822L-108.6 274.793ZM0.906415 274.95L2.11524 274.95C2.11524 275.761 2.02992 276.571 1.97304 277.368L0.778404 277.283C0.892177 276.5 0.934849 275.746 0.963292 274.95L0.906415 274.95ZM-108.287 279.516C-108.202 280.299 -108.088 281.081 -107.96 281.864L-109.14 282.063C-109.268 281.266 -109.382 280.469 -109.482 279.659L-108.287 279.516ZM0.536639 279.687L1.73127 279.829C1.63172 280.626 1.51795 281.437 1.37573 282.219L0.195334 282.02C0.380215 281.252 0.493986 280.469 0.593538 279.687L0.536639 279.687ZM-107.548 284.197C-107.377 284.979 -107.206 285.747 -107.007 286.501L-108.173 286.8C-108.372 286.018 -108.543 285.235 -108.714 284.439L-107.548 284.197ZM-0.259768 284.353L0.920628 284.609C0.749969 285.406 0.565089 286.188 0.365986 286.971L-0.800174 286.672C-0.529964 285.904 -0.345093 285.136 -0.188655 284.353L-0.259768 284.353ZM-106.367 288.792C-106.14 289.551 -105.898 290.304 -105.642 291.054L-106.765 291.438C-107.036 290.684 -107.292 289.916 -107.519 289.133L-106.367 288.792ZM-1.44016 288.948L-0.288217 289.304C-0.529985 290.072 -0.785964 290.855 -1.05617 291.609L-2.17967 291.21C-1.85257 290.47 -1.5966 289.716 -1.36905 288.948L-1.44016 288.948ZM-104.803 293.216C-104.518 293.942 -104.205 294.639 -103.878 295.393L-104.973 295.891C-105.301 295.151 -105.628 294.468 -105.926 293.657L-104.803 293.216ZM-3.01876 293.373L-1.90948 293.828C-2.20813 294.582 -2.53523 295.25 -2.86232 296.061L-3.95737 295.563C-3.55917 294.895 -3.2463 294.169 -2.94765 293.429L-3.01876 293.373ZM-102.869 297.527C-102.518 298.238 -102.148 298.935 -101.759 299.618L-102.798 300.201C-103.196 299.504 -103.566 298.779 -103.935 298.067L-102.869 297.527ZM-4.98133 297.697L-3.91471 298.252C-4.28447 298.963 -4.66845 299.675 -5.06666 300.386L-6.10485 299.803C-5.64976 299.163 -5.28 298.466 -4.91024 297.754L-4.98133 297.697ZM-100.551 301.666C-100.138 302.335 -99.7115 302.989 -99.2706 303.644L-100.252 304.327C-100.707 303.658 -101.148 302.904 -101.574 302.292L-100.551 301.666ZM-7.31367 301.837L-6.30395 302.477C-6.7306 303.16 -7.17146 303.9 -7.62655 304.512L-8.62206 303.829C-8.09586 303.231 -7.66923 302.577 -7.24258 301.894L-7.31367 301.837ZM-97.8911 305.579C-97.417 306.214 -96.943 306.84 -96.4689 307.457L-97.3933 308.21C-97.9053 307.585 -98.4031 306.944 -98.8866 306.304L-97.8911 305.579ZM-10.0016 305.764L-9.0345 306.475C-9.53225 307.129 -10.03 307.755 -10.542 308.381L-11.4664 307.627C-10.8975 307.072 -10.3998 306.375 -9.93047 305.82L-10.0016 305.764ZM-94.9046 309.263C-94.3784 309.846 -93.8379 310.43 -93.2975 310.999L-94.1508 311.838C-94.7197 311.255 -95.2601 310.657 -95.8005 310.06L-94.9046 309.263ZM-13.0023 309.434L-12.1206 310.231C-12.6468 310.828 -13.2014 311.426 -13.7703 311.995L-14.6236 311.17C-14.0547 310.643 -13.4716 310.074 -12.9312 309.491L-13.0023 309.434ZM-91.6051 312.677C-91.0363 313.218 -90.4532 313.744 -89.8559 314.271L-90.6381 315.167C-91.2449 314.636 -91.8422 314.095 -92.43 313.545L-91.6051 312.677ZM-16.316 312.82L-15.4911 313.702C-16.0884 314.257 -16.6857 314.797 -17.2972 315.324L-18.0794 314.413C-17.411 313.958 -16.899 313.417 -16.2448 312.877L-16.316 312.82ZM-88.0071 315.836C-87.3813 316.334 -86.7556 316.817 -86.1156 317.258L-86.8267 318.226C-87.4809 317.742 -88.1209 317.258 -88.7466 316.803L-88.0071 315.836ZM-19.8714 315.978L-19.1318 316.917C-19.7718 317.415 -20.4118 317.913 -21.066 318.34L-21.7628 317.372C-21.0802 316.945 -20.4544 316.476 -19.8287 315.978L-19.8714 315.978ZM-84.1672 318.638C-83.5131 319.079 -82.8446 319.506 -82.162 319.904L-82.7877 320.943C-83.4704 320.516 -84.2099 320.089 -84.8357 319.634L-84.1672 318.638ZM-23.7112 318.752L-23.057 319.762C-23.7207 320.198 -24.4033 320.625 -25.1049 321.042L-25.7164 320.018C-25.0054 319.606 -24.3369 319.179 -23.6685 318.752L-23.7112 318.752ZM-80.0999 321.099C-79.403 321.469 -78.6777 321.839 -77.9951 322.195L-78.5213 323.262C-79.2466 322.906 -79.9434 322.536 -80.683 322.152L-80.0999 321.099ZM-27.7786 321.199L-27.2097 322.252C-27.9208 322.636 -28.6319 323.006 -29.3572 323.347L-29.8834 322.28L-27.7786 321.199ZM-75.8476 323.191C-75.1223 323.504 -74.4254 323.817 -73.6432 324.101L-74.0841 325.211C-74.8379 324.926 -75.5063 324.613 -76.3169 324.286L-75.8476 323.191ZM-32.0308 323.262L-31.5615 324.371C-32.2868 324.684 -32.9837 324.997 -33.7943 325.282L-34.221 324.158C-33.4388 323.874 -32.7135 323.575 -31.9882 323.262L-32.0308 323.262ZM-71.3678 324.869L-69.1066 325.581L-69.4337 326.733C-70.2159 326.505 -70.9838 326.263 -71.7518 326.007L-71.3678 324.869ZM-36.4111 324.869L-36.0271 326.007C-36.7951 326.263 -37.563 326.505 -38.3452 326.733L-38.6723 325.581C-37.9186 325.438 -37.1648 325.211 -36.4111 324.955L-36.4111 324.869ZM-66.8169 326.15C-66.0489 326.335 -65.281 326.505 -64.4988 326.648L-64.7263 327.828C-65.5227 327.672 -66.3191 327.501 -67.1013 327.302L-66.8169 326.15ZM-40.962 326.15L-40.6918 327.316C-41.474 327.501 -42.2562 327.672 -43.0526 327.828L-43.2801 326.662C-42.4979 326.619 -41.73 326.448 -40.962 326.292L-40.962 326.15ZM-62.1664 327.032C-61.3842 327.16 -60.602 327.259 -59.8056 327.345L-59.9336 328.54L-62.3371 328.227L-62.1664 327.032ZM-45.6267 327.032L-45.4418 328.212C-46.2382 328.341 -47.0346 328.44 -47.8453 328.525L-47.9733 327.33C-47.1911 327.387 -46.3947 327.288 -45.6267 327.174L-45.6267 327.032ZM-57.4448 327.515C-56.6626 327.515 -55.8663 327.601 -55.0841 327.629L-55.0841 328.824C-55.8947 328.824 -56.6911 328.824 -57.5017 328.71L-57.4448 327.515ZM-50.334 327.515L-50.334 328.71C-51.1304 328.71 -51.9411 328.796 -52.7517 328.81L-52.7517 327.615C-51.9127 327.715 -51.1162 327.715 -50.334 327.715L-50.334 327.515Z" fill="#8566FF"/>
<path d="M120.922 16.3587L121.193 16.3587L121.193 17.5821L120.922 17.5821C120.211 17.5821 119.5 17.5821 118.832 17.5821L118.832 16.3871C119.472 16.3729 120.197 16.3587 120.922 16.3587ZM123.596 16.3587L125.985 16.3587L125.985 17.5821L123.596 17.5821L123.596 16.3587ZM128.389 16.3587L130.778 16.3587L130.778 17.5821L128.389 17.5821L128.389 16.3587ZM133.181 16.3587L135.585 16.3587L135.585 17.5821L133.181 17.5821L133.181 16.3587ZM137.974 16.3587L140.378 16.3587L140.378 17.5821L137.974 17.5821L137.974 16.3587ZM142.781 16.3587L145.227 16.3587L145.227 17.5821L142.838 17.5821L142.781 16.3587ZM147.574 16.3587L149.963 16.3587L149.963 17.5821L147.574 17.5821L147.574 16.3587ZM152.366 16.3587L154.77 16.3587L154.77 17.5821L152.338 17.5821L152.366 16.3587ZM157.159 16.3587L159.563 16.3587L159.563 17.5821L157.159 17.5821L157.159 16.3587ZM161.966 16.3587L164.355 16.3587L164.355 17.5821L161.966 17.5821L161.966 16.3587ZM166.759 16.3587L167 16.3587C167.726 16.3587 168.423 16.3587 169.176 16.3587L169.176 17.5537C168.479 17.5537 167.754 17.5537 167.057 17.5537L166.816 17.5537L166.759 16.3587ZM116.343 16.6147L116.471 17.7955C115.689 17.8809 114.907 17.9947 114.125 18.1227L113.925 16.9419C114.722 16.8139 115.532 16.7001 116.343 16.6147ZM171.608 16.6148C172.419 16.7001 173.23 16.8139 174.012 16.9562L173.813 18.137C173.045 17.9947 172.262 17.8951 171.48 17.8097L171.608 16.6148ZM111.55 17.4257L111.821 18.5922C111.053 18.7629 110.285 18.9621 109.531 19.1897L109.19 18.0374C109.972 17.8097 110.768 17.5821 111.55 17.4257ZM176.401 17.4257C177.183 17.6106 177.965 17.8098 178.747 18.0374L178.42 19.1897C177.652 18.9763 176.884 18.7629 176.131 18.5922L176.401 17.4257ZM106.886 18.8483L107.284 19.9721C106.544 20.2424 105.862 20.5269 105.094 20.8257L104.624 19.7303C105.407 19.3604 106.118 19.0047 106.829 18.7914L106.886 18.8483ZM181.066 18.8483C181.834 19.1328 182.587 19.4315 183.327 19.7445L182.858 20.8541C182.146 20.5412 181.435 20.2424 180.667 19.9864L181.066 18.8483ZM102.42 20.7403L102.946 21.8215C102.249 22.1772 101.524 22.5471 100.87 22.9312L100.273 21.8926C100.97 21.4374 101.695 21.0533 102.42 20.6834L102.42 20.7403ZM185.545 20.7403C186.271 21.096 186.968 21.4801 187.693 21.8927L187.096 22.9312C186.413 22.5328 185.673 22.163 185.005 21.8073L185.545 20.7403ZM98.1963 23.1303L98.8505 24.1404C98.1963 24.5671 97.5421 25.0224 96.9164 25.4776L96.2053 24.5245C96.8737 24.0124 97.5279 23.5429 98.1963 23.1019L98.1963 23.1303ZM189.769 23.1303C190.438 23.5713 191.106 24.0408 191.76 24.5529L191.049 25.5203C190.423 25.0508 189.769 24.5956 189.115 24.1689L189.769 23.1303ZM94.2854 25.9755L95.0533 26.9002C94.456 27.3982 93.8587 27.9245 93.2899 28.4651L92.465 27.5831C93.0623 27.0425 93.6738 26.5019 94.2854 25.9898L94.2854 25.9755ZM193.68 25.9756C194.292 26.4877 194.903 27.0425 195.501 27.5831L194.676 28.4651C194.107 27.9246 193.51 27.3982 192.898 26.9003L193.68 25.9756ZM90.7442 29.2618L91.6117 30.0869C91.0713 30.6418 90.5451 31.2392 90.0331 31.851L89.1229 31.0685C89.6491 30.4995 90.1895 29.8878 90.7442 29.3187L90.7442 29.2618ZM197.221 29.2618C197.776 29.8451 198.316 30.4568 198.843 31.0828L197.918 31.851C197.42 31.2535 196.894 30.656 196.354 30.087L197.221 29.2618ZM87.6012 32.9322L88.5541 33.6435C88.0847 34.2837 87.6297 34.9238 87.1319 35.5782L86.1222 34.9238C86.6484 34.3406 87.1177 33.6719 87.6012 33.0317L87.6012 32.9322ZM200.35 32.9322C200.834 33.5866 201.303 34.2552 201.772 34.9238L200.777 35.5925C200.35 34.9381 199.881 34.2836 199.355 33.6577L200.35 32.9322ZM84.9133 36.9439L85.9515 37.5414C85.5533 38.2243 85.1693 38.9641 84.8138 39.6327L83.7472 39.0778C84.0742 38.5088 84.5009 37.7833 84.9133 37.0862L84.9133 36.9439ZM202.953 36.9439C203.365 37.641 203.749 38.3666 204.119 39.0921L203.052 39.6327C202.697 38.9214 202.313 38.2101 201.929 37.5557L202.953 36.9439ZM82.6379 41.2118L83.7472 41.6813C83.4343 42.4068 83.1356 43.1039 82.8654 43.8863L81.7419 43.4738C82.0832 42.9332 82.3961 42.1792 82.6521 41.4394L82.6379 41.2118ZM205.143 41.2118C205.47 41.9515 205.769 42.7198 206.039 43.4738L204.915 43.8863C204.645 43.1465 204.361 42.4637 204.048 41.6955L205.143 41.2118ZM81.045 46.0345L82.1828 46.3759C81.9694 47.1299 81.7561 47.8981 81.5712 48.6663L80.4051 48.3818C80.5852 47.5756 80.7985 46.7932 81.045 46.0345ZM206.878 46.0345C207.124 46.8217 207.338 47.6041 207.518 48.3818L206.337 48.6663C206.167 47.8981 205.953 47.1299 205.74 46.3759L206.878 46.0345ZM79.9215 50.7433L81.1019 50.9425C80.9597 51.7202 80.8459 52.5026 80.7606 53.2898L79.566 53.1475C79.6655 52.3509 79.8078 51.54 79.9215 50.7433ZM208.001 50.7433C208.144 51.54 208.257 52.3509 208.343 53.1476L207.162 53.2898C207.058 52.5027 206.944 51.7202 206.821 50.9425L208.001 50.7433ZM79.3527 55.5375L80.5615 55.6087C80.5615 56.3911 80.5615 57.1878 80.5615 57.9702L79.3669 57.9702C79.2958 57.202 79.31 56.3769 79.3527 55.566L79.3527 55.5375ZM208.556 55.5376C208.556 56.3484 208.627 57.1451 208.627 57.9418L207.432 57.9418C207.432 57.1451 207.432 56.3627 207.361 55.5802L208.556 55.5376ZM207.361 60.3318L208.556 60.4029C208.556 61.2186 208.485 62.0294 208.343 62.8356L207.148 62.6933C207.248 61.9678 207.319 61.1711 207.361 60.3887L207.361 60.3318ZM206.807 65.0264L207.987 65.2398C207.845 66.0223 207.688 66.8332 207.504 67.6156L206.337 67.3453C206.508 66.634 206.679 65.8516 206.807 65.0833L206.807 65.0264ZM205.712 69.6215L206.864 69.9629C206.636 70.7453 206.366 71.5278 206.096 72.2818L204.972 71.8692C205.242 71.1864 205.484 70.4324 205.712 69.6784L205.712 69.6215ZM204.09 74.0601L205.185 74.5437C204.858 75.2835 204.517 75.9663 204.147 76.7488L203.081 76.2082C203.436 75.568 203.778 74.8425 204.09 74.1169L204.09 74.0601ZM201.957 78.3279L202.981 78.9254C202.583 79.6225 202.142 80.348 201.701 81.0024L200.706 80.3338C201.132 79.6936 201.559 79.025 201.957 78.3421L201.957 78.3279ZM199.269 82.2828L200.222 82.9941C199.739 83.6485 199.227 84.2887 198.7 84.9004L197.79 84.1322C198.359 83.5347 198.857 82.9087 199.269 82.2828ZM196.283 85.8678L197.15 86.6929C196.596 87.2761 196.013 87.8594 195.429 88.4143L194.605 87.5322C195.188 87.0059 195.742 86.451 196.283 85.8678ZM192.841 89.0971L193.595 90.0218C192.983 90.534 192.329 91.0461 191.689 91.5156L190.978 90.5482C191.604 90.1356 192.158 89.6092 192.841 89.1113L192.841 89.0971ZM189.03 91.9423L189.698 92.9808C189.015 93.4219 188.276 93.8487 187.622 94.247L187.024 93.2085C187.707 92.7722 188.376 92.3407 189.03 91.9139L189.03 91.9423ZM184.934 94.2897L185.474 95.3566C184.749 95.7123 184.052 96.0537 183.27 96.3667L182.801 95.2712C183.512 94.9298 184.237 94.6026 184.934 94.2612L184.934 94.2897ZM180.596 96.1248L181.009 97.2629C180.241 97.5332 179.459 97.7893 178.691 98.0027L178.363 96.8504C179.103 96.6085 179.857 96.3667 180.596 96.0964L180.596 96.1248ZM176.074 97.4479L176.344 98.6144C175.548 98.7993 174.751 98.9558 173.955 99.0981L173.756 97.9173C174.524 97.7608 175.306 97.6043 176.074 97.4194L176.074 97.4479ZM171.409 98.2303L171.551 99.4253C170.741 99.5107 169.93 99.5818 169.119 99.6245L169.119 98.4294C169.845 98.3583 170.641 98.2872 171.409 98.2019L171.409 98.2303ZM87.5017 98.4721L89.9478 98.4721L89.9478 99.6813L87.5585 99.6813L87.5017 98.4721ZM92.2943 98.4721L94.7547 98.4721L94.7547 99.6813L92.3512 99.6813L92.2943 98.4721ZM97.087 98.4721L99.5473 98.4721L99.5473 99.6814L97.1439 99.6814L97.087 98.4721ZM101.894 98.4721L104.34 98.4721L104.34 99.6814L101.951 99.6814L101.894 98.4721ZM106.687 98.4721L109.133 98.4721L109.133 99.6814L106.743 99.6814L106.687 98.4721ZM111.479 98.4721L113.94 98.4721L113.94 99.6814L111.536 99.6814L111.479 98.4721ZM116.272 98.4721L118.732 98.4721L118.732 99.6814L116.329 99.6814L116.272 98.4721ZM121.079 98.4721L123.525 98.4721L123.525 99.6814L121.136 99.6814L121.079 98.4721ZM125.872 98.4721L128.318 98.4721L128.318 99.6814L125.928 99.6814L125.872 98.4721ZM130.664 98.4721L133.125 98.4721L133.125 99.6814L130.721 99.6814L130.664 98.4721ZM135.457 98.4721L137.917 98.4721L137.917 99.6814L135.514 99.6814L135.457 98.4721ZM140.264 98.4721L142.71 98.4721L142.71 99.6814L140.321 99.6814L140.264 98.4721ZM145.056 98.4721L147.503 98.4721L147.503 99.6814L145.113 99.6814L145.056 98.4721ZM149.849 98.4721L152.338 98.4721L152.338 99.6814L149.935 99.6814L149.849 98.4721ZM154.642 98.4721L157.102 98.4721L157.102 99.6814L154.699 99.6814L154.642 98.4721ZM159.449 98.4721L161.895 98.4721L161.895 99.6814L159.449 99.6814L159.449 98.4721ZM164.241 98.4721L166.688 98.4721L166.688 99.6814L164.298 99.6814L164.241 98.4721ZM85.0982 98.4721L85.0982 99.6813L82.709 99.6813L82.709 98.4864L85.0982 98.4721ZM80.2771 98.5433L80.2771 99.7383L79.8078 99.7383L79.8078 98.5433L80.2771 98.5433Z" fill="#8566FF"/>
<path d="M79.2956 58.0005L80.4902 58.0005L80.4902 201.543C80.4902 218.83 87.3556 235.41 99.5761 247.635C111.797 259.859 128.371 266.727 145.654 266.727C162.936 266.727 179.511 259.859 191.731 247.635C203.952 235.41 210.817 218.831 210.817 201.543L212.068 201.543C212.068 219.147 205.077 236.031 192.633 248.48C180.188 260.928 163.31 267.922 145.71 267.922C128.111 267.922 111.233 260.928 98.7883 248.48C86.3437 236.031 79.3525 219.147 79.3525 201.543L79.2956 58.0005Z" fill="#8566FF"/>
<path d="M282.722 319.918L283.916 319.918L283.916 318.723L282.722 318.723L282.722 319.918Z" fill="#8566FF"/>
<path d="M247.722 126.854C248.547 126.854 249.358 126.854 250.154 126.953L250.069 128.148C249.301 128.148 248.504 128.063 247.708 128.049L247.722 126.854ZM245.276 126.854L245.276 128.049C244.499 128.049 243.717 128.12 242.93 128.262L242.773 127.067C243.655 127.024 244.48 126.953 245.276 126.911L245.276 126.854ZM252.586 127.167C253.382 127.28 254.193 127.423 254.99 127.593L254.748 128.76C253.966 128.603 253.183 128.461 252.415 128.347L252.586 127.167ZM240.441 127.451L240.668 128.632C239.9 128.774 239.118 128.945 238.364 129.144L238.052 127.992C238.848 127.835 239.644 127.664 240.441 127.508L240.441 127.451ZM257.365 128.177C258.147 128.404 258.915 128.646 259.683 128.931L259.284 130.055C258.545 129.784 257.791 129.542 257.037 129.329L257.365 128.177ZM235.719 128.689L236.103 129.827C235.364 130.083 234.681 130.353 233.885 130.652L233.43 129.542C234.183 129.286 234.951 129.002 235.719 128.746L235.719 128.689ZM261.958 129.827C262.698 130.14 263.38 130.496 264.148 130.865L263.608 131.932C262.911 131.577 262.186 131.235 261.475 130.922L261.958 129.827ZM231.197 130.552L231.737 131.634C231.026 131.975 230.329 132.345 229.647 132.743L229.049 131.705C229.746 131.392 230.471 130.965 231.197 130.609L231.197 130.552ZM266.281 132.06C266.978 132.487 267.704 132.942 268.329 133.398L267.633 134.379C267.007 133.938 266.338 133.497 265.656 133.085L266.281 132.06ZM226.973 132.999L227.641 133.995C226.987 134.436 226.347 134.906 225.736 135.418L224.996 134.465C225.636 133.995 226.29 133.511 226.973 133.056L226.973 132.999ZM270.278 134.863C270.904 135.375 271.529 135.916 272.127 136.456L271.316 137.338C270.733 136.812 270.136 136.286 269.524 135.802L270.278 134.863ZM223.119 136.001L223.915 136.897C223.332 137.409 222.749 137.964 222.195 138.519L221.341 137.68C221.91 137.082 222.507 136.599 223.119 136.058L223.119 136.001ZM273.862 138.178C274.416 138.761 274.971 139.373 275.483 139.999L274.558 140.767C274.061 140.155 273.535 139.558 272.994 139.003L273.862 138.178ZM219.692 139.472L220.602 140.255C220.09 140.852 219.592 141.464 219.108 142.09L218.156 141.364C218.639 140.781 219.18 140.141 219.692 139.529L219.692 139.472ZM276.99 141.919C277.46 142.588 277.915 143.271 278.413 143.953L277.389 144.594C276.971 143.93 276.531 143.275 276.066 142.63L276.99 141.919ZM216.748 143.342L217.757 143.996C217.331 144.651 216.918 145.319 216.534 146.016L215.482 145.419C215.88 144.793 216.335 144.096 216.748 143.427L216.748 143.342ZM279.579 146.031C279.963 146.756 280.332 147.453 280.66 148.221L279.579 148.719C279.252 148.008 278.896 147.297 278.526 146.6L279.579 146.031ZM214.358 147.581L215.439 148.108C215.112 148.819 214.785 149.53 214.501 150.27L213.391 149.829C213.69 149.16 214.017 148.463 214.358 147.667L214.358 147.581ZM281.598 150.426C281.883 151.18 282.153 151.963 282.38 152.745L281.228 153.087C281.001 152.333 280.759 151.579 280.475 150.853L281.598 150.426ZM212.566 152.062L213.704 152.432C213.462 153.186 213.249 153.94 213.05 154.708L211.898 154.41C212.069 153.77 212.31 152.987 212.566 152.205L212.566 152.062ZM283.006 155.107C283.191 155.889 283.333 156.7 283.461 157.511L282.281 157.696C282.167 156.914 282.011 156.131 281.84 155.377L283.006 155.107ZM211.386 156.999L212.566 157.212C212.424 157.98 212.31 158.763 212.225 159.545L211.031 159.417C211.13 158.55 211.244 157.739 211.386 156.999ZM283.774 160.129C283.85 160.935 283.893 161.746 283.902 162.561L282.707 162.561C282.707 161.779 282.707 160.982 282.579 160.214L283.774 160.129ZM210.846 161.85L212.04 161.85C212.04 162.362 212.04 162.889 212.04 163.415L212.04 164.226L210.846 164.226L210.846 163.415C210.817 162.874 210.817 162.334 210.846 161.793L210.846 161.85ZM282.722 164.98L283.916 164.98L283.916 167.384L282.722 167.384L282.722 164.98ZM210.817 166.687L212.069 166.687L212.069 169.091L210.874 169.091L210.817 166.687ZM282.722 169.788L283.916 169.788L283.916 172.192L282.722 172.192L282.722 169.788ZM210.817 171.495L212.069 171.495L212.069 173.9L210.874 173.9L210.817 171.495ZM282.722 174.597L283.916 174.597L283.916 176.916L282.722 176.916L282.722 174.597ZM210.817 176.29L212.069 176.29L212.069 178.694L210.874 178.694L210.817 176.29ZM282.722 179.405L283.916 179.405L283.916 181.752L282.722 181.752L282.722 179.405ZM210.817 181.098L212.069 181.098L212.069 183.502L210.874 183.502L210.817 181.098ZM282.722 184.214L283.916 184.214L283.916 186.604L282.722 186.604L282.722 184.214ZM210.817 185.906L212.069 185.906L212.069 188.296L210.874 188.296L210.817 185.906ZM282.722 189.008L283.916 189.008L283.916 191.412L282.722 191.412L282.722 189.008ZM210.817 190.715L212.069 190.715L212.069 193.119L210.874 193.119L210.817 190.715ZM282.722 193.816L283.916 193.816L283.916 196.22L282.722 196.22L282.722 193.816ZM210.817 195.523L212.069 195.523L212.069 197.928L210.874 197.928L210.817 195.523ZM282.722 198.625L283.916 198.625L283.916 201.029L282.722 201.029L282.722 198.625ZM282.722 203.433L283.916 203.433L283.916 205.837L282.722 205.837L282.722 203.433ZM282.722 208.242L283.916 208.242L283.916 210.646L282.722 210.646L282.722 208.242ZM282.722 213.05L283.916 213.05L283.916 215.326L282.722 215.326L282.722 213.05ZM282.722 217.844L283.916 217.844L283.916 220.248L282.722 220.248L282.722 217.844ZM282.722 222.653L283.916 222.653L283.916 225L282.722 225L282.722 222.653ZM282.722 227.461L283.916 227.461L283.916 229.865L282.722 229.865L282.722 227.461ZM282.722 232.27L283.916 232.27L283.916 234.674L282.722 234.674L282.722 232.27ZM282.722 237.078L283.916 237.078L283.916 239.482L282.722 239.482L282.722 237.078ZM282.722 241.886L283.916 241.886L283.916 244.291L282.722 244.291L282.722 241.886ZM282.722 246.681L283.916 246.681L283.916 249.085L282.722 249.085L282.722 246.681ZM282.722 251.489L283.916 251.489L283.916 253.893L282.722 253.893L282.722 251.489ZM282.722 256.298L283.916 256.298L283.916 258.702L282.722 258.702L282.722 256.298ZM282.722 261.106L283.916 261.106L283.916 263.51L282.722 263.51L282.722 261.106ZM282.722 265.914L283.916 265.914L283.916 268.319L282.722 268.319L282.722 265.914ZM282.722 270.723L283.916 270.723L283.916 273.127L282.722 273.127L282.722 270.723ZM282.722 275.531L283.916 275.531L283.916 277.921L282.722 277.921L282.722 275.531ZM282.722 280.326L283.916 280.326L283.916 282.73L282.722 282.73L282.722 280.326ZM282.722 285.134L283.916 285.134L283.916 287.538L282.722 287.538L282.722 285.134ZM282.722 289.942L283.916 289.942L283.916 292.29L282.722 292.29L282.722 289.942ZM282.722 294.751L283.916 294.751L283.916 297.155L282.722 297.155L282.722 294.751ZM282.722 299.559L283.916 299.559L283.916 301.964L282.722 301.964L282.722 299.559ZM282.722 304.368L283.916 304.368L283.916 306.772L282.722 306.772L282.722 304.368ZM282.722 309.162L283.916 309.162L283.916 311.566L282.722 311.566L282.722 309.162ZM282.722 313.97L283.916 313.97L283.916 316.332L282.722 316.332L282.722 313.97Z" fill="#8566FF"/>
<path d="M210.817 201.543L212.012 201.543L212.012 200.348L210.817 200.348L210.817 201.543Z" fill="#8566FF"/>
<path d="M180.61 290.399L225.294 290.399C233.67 290.411 241.699 293.748 247.617 299.678C253.534 305.608 256.856 313.645 256.852 322.024L255.643 322.024C255.649 318.032 254.868 314.079 253.346 310.389C251.824 306.699 249.59 303.346 246.771 300.52C243.953 297.694 240.606 295.451 236.92 293.92C233.235 292.388 229.285 291.598 225.294 291.594L180.61 291.594C176.568 291.507 172.55 292.228 168.79 293.714C165.031 295.201 161.606 297.424 158.717 300.252C155.827 303.081 153.532 306.458 151.964 310.185C150.397 313.913 149.59 317.916 149.59 321.96C149.59 326.004 150.397 330.007 151.964 333.735C153.532 337.463 155.827 340.84 158.717 343.668C161.606 346.497 165.031 348.719 168.79 350.206C172.55 351.693 176.568 352.413 180.61 352.326L250.296 352.326C258.885 352.315 267.118 348.897 273.192 342.822C279.265 336.747 282.682 328.51 282.693 319.919L283.887 319.919C283.88 328.825 280.343 337.364 274.051 343.666C267.76 349.967 259.228 353.516 250.324 353.535L180.639 353.535C172.269 353.535 164.242 350.209 158.324 344.289C152.406 338.369 149.081 330.34 149.081 321.967C149.081 313.595 152.406 305.566 158.324 299.645C164.242 293.725 172.269 290.399 180.639 290.399L180.61 290.399Z" fill="#8566FF"/>
<path d="M255.643 325.524L256.852 325.524L256.852 327.9L255.643 327.9L255.643 325.524ZM255.643 330.262L256.852 330.262L256.852 332.623L255.643 332.623L255.643 330.262ZM255.643 334.999L256.852 334.999L256.852 337.36L255.643 337.36L255.643 334.999ZM255.643 339.722L256.852 339.722L256.852 342.098L255.643 342.098L255.643 339.722ZM255.643 344.459L256.852 344.459L256.852 346.821L255.643 346.821L255.643 344.459ZM255.643 349.197L256.852 349.197L256.852 351.558L255.643 351.558L255.643 349.197ZM255.643 353.92L256.852 353.92L256.852 356.295L255.643 356.295L255.643 353.92ZM255.643 358.657L256.852 358.657L256.852 361.033L255.643 361.033L255.643 358.657ZM255.643 363.394L256.852 363.394L256.852 365.756L255.643 365.756L255.643 363.394ZM255.643 368.132L256.852 368.132L256.852 370.493L255.643 370.493L255.643 368.132ZM255.643 372.855L256.852 372.855L256.852 375.231L255.643 375.231L255.643 372.855ZM255.643 377.592L256.852 377.592L256.852 379.954L255.643 379.954L255.643 377.592ZM255.643 382.329L256.852 382.329L256.852 384.62L255.643 384.62L255.643 382.329ZM255.643 387.067L256.852 387.067L256.852 389.428L255.643 389.428L255.643 387.067ZM255.643 391.79L256.852 391.79L256.852 394.166L255.643 394.166L255.643 391.79ZM255.643 396.527L256.852 396.527L256.852 398.846L255.643 398.846L255.643 396.527ZM255.643 401.264L256.852 401.264L256.852 403.626L255.643 403.626L255.643 401.264ZM255.643 405.988L256.852 405.988L256.852 408.363L255.643 408.363L255.643 405.988Z" fill="#8566FF"/>
<path d="M255.643 323.16L256.838 323.16L256.838 321.965L255.643 321.965L255.643 323.16Z" fill="#8566FF"/>
<path d="M64.733 165.619L65.9276 165.619L65.9276 168.023L64.733 168.023L64.733 165.619ZM64.733 170.413L65.9276 170.413L65.9276 172.817L64.733 172.817L64.733 170.413ZM64.733 175.222L65.9276 175.222L65.9276 177.612L64.733 177.612L64.733 175.222ZM64.733 180.016L65.9276 180.016L65.9276 182.406L64.733 182.406L64.733 180.016ZM64.733 184.81L65.9276 184.81L65.9276 187.214L64.733 187.214L64.733 184.81ZM64.733 189.604L65.9276 189.604L65.9276 192.008L64.733 192.008L64.733 189.604ZM64.733 194.413L65.9276 194.413L65.9276 196.831L64.733 196.831L64.733 194.413ZM64.733 199.207L65.9276 199.207L65.9276 201.597L64.733 201.597L64.733 199.207ZM64.733 204.001L65.9276 204.001L65.9276 206.405L64.733 206.405L64.733 204.001ZM64.733 208.795L65.9276 208.795L65.9276 211.2L64.733 211.2L64.733 208.795ZM64.733 213.604L65.9276 213.604L65.9276 215.994L64.733 215.994L64.733 213.604ZM64.733 218.398L65.9276 218.398L65.9276 220.788L64.733 220.788L64.733 218.398ZM64.733 223.192L65.9276 223.192L65.9276 225.596L64.733 225.596L64.733 223.192ZM64.733 227.986L65.9276 227.986L65.9276 230.391L64.733 230.391L64.733 227.986ZM64.733 232.795L65.9276 232.795L65.9276 235.242L64.733 235.242L64.733 232.795ZM64.733 237.589L65.9276 237.589L65.9276 239.979L64.733 239.979L64.733 237.589ZM64.733 242.383L65.9276 242.383L65.9276 244.788L64.733 244.788L64.733 242.383ZM64.733 247.178L65.9276 247.178L65.9276 249.582L64.733 249.582L64.733 247.178ZM64.733 251.972L65.9276 251.972L65.9276 254.376L64.733 254.376L64.733 251.972ZM64.733 256.78L65.9276 256.78L65.9276 259.17L64.733 259.17L64.733 256.78ZM64.733 261.574L65.9276 261.574L65.9276 263.979L64.733 263.979L64.733 261.574ZM64.733 266.369L65.9276 266.369L65.9276 268.773L64.733 268.773L64.733 266.369ZM64.733 271.177L65.9276 271.177L65.9276 273.567L64.733 273.567L64.733 271.177ZM64.733 275.971L65.9276 275.971L65.9276 278.361L64.733 278.361L64.733 275.971ZM64.733 280.766L65.9276 280.766L65.9276 283.17L64.733 283.17L64.733 280.766ZM64.733 285.56L65.9276 285.56L65.9276 287.964L64.733 287.964L64.733 285.56ZM64.733 290.354L65.9276 290.354L65.9276 292.758L64.733 292.758L64.733 290.354ZM64.733 295.162L65.9276 295.162L65.9276 297.552L64.733 297.552L64.733 295.162ZM64.733 299.957L65.9276 299.957L65.9276 302.361L64.733 302.361L64.733 299.957ZM64.733 304.751L65.9276 304.751L65.9276 307.155L64.733 307.155L64.733 304.751ZM64.733 309.559L65.9276 309.559L65.9276 311.949L64.733 311.949L64.733 309.559ZM64.733 314.354L65.9276 314.354L65.9276 316.744L64.733 316.744L64.733 314.354ZM64.733 319.148L65.9276 319.148L65.9276 321.552L64.733 321.552L64.733 319.148ZM64.733 323.942L65.9276 323.942L65.9276 326.289L64.733 326.289L64.733 323.942ZM64.733 328.736L65.9276 328.736L65.9276 331.14L64.733 331.14L64.733 328.736ZM64.733 333.545L65.9276 333.545L65.9276 335.935L64.733 335.935L64.733 333.545ZM64.733 338.339L65.9276 338.339L65.9276 340.743L64.733 340.743L64.733 338.339ZM64.733 343.133L65.9276 343.133L65.9276 345.537L64.733 345.537L64.733 343.133ZM64.733 347.927L65.9276 347.927L65.9276 350.332L64.733 350.332L64.733 347.927ZM64.733 352.736L65.9276 352.736L65.9276 355.126L64.733 355.126L64.733 352.736ZM64.733 357.53L65.9276 357.53L65.9276 359.934L64.733 359.934L64.733 357.53ZM64.733 362.324L65.9276 362.324L65.9276 364.7L64.733 364.7L64.733 362.324ZM64.733 367.118L65.9276 367.118L65.9276 369.523L64.733 369.523L64.733 367.118ZM64.733 371.927L65.9276 371.927L65.9276 374.317L64.733 374.317L64.733 371.927ZM64.733 376.721L65.9276 376.721L65.9276 379.125L64.733 379.125L64.733 376.721ZM64.733 381.515L65.9276 381.515L65.9276 383.92L64.733 383.92L64.733 381.515ZM64.733 386.31L65.9276 386.31L65.9276 388.714L64.733 388.714L64.733 386.31ZM64.733 391.118L65.9276 391.118L65.9276 393.508L64.733 393.508L64.733 391.118ZM64.733 395.912L65.9276 395.912L65.9276 398.316L64.733 398.316L64.733 395.912Z" fill="#8566FF"/>
<path d="M23.8743 0.000284491C29.9409 0.00780786 35.7568 2.42181 40.0464 6.71287C44.3361 11.0039 46.7494 16.8217 46.7569 22.8902L46.7569 88.6151L45.5623 88.6151L45.5623 22.8902C45.6364 19.9954 45.1304 17.115 44.0742 14.4189C43.018 11.7227 41.4328 9.26541 39.4122 7.19174C37.3917 5.11807 34.9765 3.47004 32.3092 2.34477C29.6418 1.21951 26.7763 0.639781 23.8815 0.63978C20.9866 0.63978 18.1211 1.21951 15.4537 2.34477C12.7864 3.47004 10.3712 5.11807 8.35066 7.19173C6.33008 9.2654 4.74495 11.7227 3.68871 14.4189C2.63247 17.115 2.12648 19.9954 2.2006 22.8902L2.20059 121.051C2.19682 126.806 4.47774 132.327 8.54194 136.401C12.6061 140.474 18.121 142.767 23.8743 142.774L43.0593 142.774C49.1245 142.782 54.9389 145.196 59.2263 149.488C63.5138 153.779 65.9239 159.597 65.9276 165.664L64.733 165.664C64.7255 159.916 62.4396 154.406 58.3766 150.342C54.3136 146.278 48.8052 143.991 43.0593 143.983L23.8743 143.983C17.8091 143.976 11.9947 141.561 7.70726 137.27C3.41984 132.978 1.00975 127.161 1.00598 121.093L1.00599 22.9329C1.00225 19.9251 1.59079 16.9459 2.73801 14.1656C3.88523 11.3853 5.56866 8.85833 7.69218 6.72884C9.81571 4.59936 12.3377 2.90908 15.1143 1.75459C17.8908 0.600091 20.8675 0.00402251 23.8743 0.000284491Z" fill="#8566FF"/>
<path d="M1.48866 179.592C-0.490644 179.592 -2.09519 181.197 -2.09519 183.177C-2.09519 185.157 -0.490644 186.762 1.48866 186.762C3.46796 186.762 5.07251 185.157 5.07251 183.177C5.07251 181.197 3.46796 179.592 1.48866 179.592Z" fill="#8566FF"/>
<path d="M46.0744 85.0292C44.0951 85.0292 42.4905 86.6343 42.4905 88.6142C42.4905 90.5941 44.0951 92.1992 46.0744 92.1992C48.0537 92.1992 49.6582 90.5941 49.6582 88.6142C49.6582 86.6343 48.0537 85.0292 46.0744 85.0292Z" fill="#8566FF"/>
<path d="M60.6938 168.866C60.6938 167.949 60.9657 167.052 61.4752 166.29C61.9846 165.527 62.7087 164.932 63.5558 164.581C64.403 164.23 65.3352 164.139 66.2346 164.318C67.1339 164.496 67.96 164.938 68.6084 165.587C69.2568 166.235 69.6983 167.062 69.8772 167.961C70.0561 168.861 69.9643 169.794 69.6134 170.641C69.2625 171.488 68.6682 172.213 67.9058 172.722C67.1434 173.232 66.247 173.504 65.3301 173.504C64.7212 173.504 64.1183 173.384 63.5558 173.151C62.9934 172.918 62.4823 172.576 62.0517 172.146C61.6212 171.715 61.2797 171.204 61.0467 170.641C60.8137 170.078 60.6938 169.475 60.6938 168.866Z" fill="#8566FF"/>
<path d="M74.2188 98.8877C74.2188 97.7622 74.5524 96.662 75.1775 95.7262C75.8026 94.7904 76.691 94.061 77.7305 93.6303C78.7699 93.1996 79.9137 93.087 81.0172 93.3065C82.1207 93.5261 83.1343 94.0681 83.9299 94.8639C84.7255 95.6597 85.2673 96.6737 85.4868 97.7775C85.7063 98.8813 85.5936 100.026 85.163 101.065C84.7325 102.105 84.0034 102.994 83.0679 103.619C82.1324 104.244 81.0325 104.578 79.9074 104.578C78.3987 104.578 76.9518 103.979 75.8849 102.911C74.8181 101.844 74.2188 100.397 74.2188 98.8877Z" fill="#8566FF"/>
<path d="M79.879 50.0604C77.3734 50.0604 75.3423 52.0922 75.3423 54.5986C75.3423 57.1049 77.3734 59.1367 79.879 59.1367C82.3845 59.1367 84.4156 57.1049 84.4156 54.5986C84.4156 52.0922 82.3845 50.0604 79.879 50.0604Z" fill="#8566FF"/>
<path d="M206.778 199.279C206.778 198.049 207.266 196.869 208.136 196C209.005 195.13 210.185 194.641 211.414 194.641C212.644 194.641 213.823 195.13 214.693 196C215.562 196.869 216.05 198.049 216.05 199.279C216.054 199.891 215.937 200.497 215.706 201.063C215.474 201.629 215.134 202.143 214.703 202.577C214.272 203.011 213.759 203.355 213.195 203.59C212.631 203.824 212.025 203.945 211.414 203.945C210.803 203.945 210.198 203.824 209.633 203.59C209.069 203.355 208.557 203.011 208.126 202.577C207.695 202.143 207.354 201.629 207.123 201.063C206.891 200.497 206.774 199.891 206.778 199.279Z" fill="#8566FF"/>
<path d="M256.24 347.572C253.68 347.572 251.604 349.649 251.604 352.21C251.604 354.771 253.68 356.848 256.24 356.848C258.801 356.848 260.877 354.771 260.877 352.21C260.877 349.649 258.801 347.572 256.24 347.572Z" fill="#8566FF"/>
<path d="M256.24 403.725C253.68 403.725 251.604 405.801 251.604 408.362C251.604 410.924 253.68 413 256.24 413C258.801 413 260.877 410.924 260.877 408.362C260.877 405.801 258.801 403.725 256.24 403.725Z" fill="#8566FF"/>
<path d="M256.241 317.742C254.497 317.742 253.084 319.156 253.084 320.9C253.084 322.645 254.497 324.059 256.241 324.059C257.985 324.059 259.398 322.645 259.398 320.9C259.398 319.156 257.985 317.742 256.241 317.742Z" fill="#8566FF"/>
<path d="M280.901 319.917C280.905 319.279 281.161 318.667 281.614 318.217C282.067 317.766 282.68 317.513 283.319 317.513C283.957 317.513 284.57 317.766 285.023 318.217C285.476 318.667 285.733 319.279 285.736 319.917C285.736 320.559 285.482 321.174 285.028 321.628C284.575 322.081 283.96 322.336 283.319 322.336C282.677 322.336 282.062 322.081 281.609 321.628C281.156 321.174 280.901 320.559 280.901 319.917Z" fill="#8566FF"/>
<path d="M60.6938 399.37C60.6938 398.453 60.9657 397.556 61.4752 396.793C61.9846 396.031 62.7087 395.436 63.5558 395.085C64.403 394.734 65.3352 394.643 66.2346 394.821C67.1339 395 67.96 395.442 68.6084 396.091C69.2568 396.739 69.6983 397.566 69.8772 398.465C70.0561 399.365 69.9643 400.297 69.6134 401.145C69.2625 401.992 68.6682 402.717 67.9058 403.226C67.1434 403.736 66.247 404.008 65.3301 404.008C64.1005 404.008 62.9212 403.519 62.0517 402.649C61.1823 401.78 60.6938 400.6 60.6938 399.37Z" fill="#8566FF"/>
</g>
</svg>
