<svg width="57" height="71" viewBox="0 0 57 71" fill="none" xmlns="http://www.w3.org/2000/svg">
<path d="M56.7978 70.9998H0L0.654388 18.8046L18.8301 0H56.7978V70.9998ZM1.74189 69.2836H55.0792V1.71627H19.5614L2.36833 19.5093L1.74422 69.2859L1.74189 69.2836Z" fill="#1E1E1E"/>
<path d="M20.346 19.67H1.51123V17.9514H18.6274V0.858398H20.346V19.67Z" fill="#1E1E1E"/>
<path d="M23.2524 39.1767H7.78027V23.7256H23.2524V39.1767ZM9.49888 37.4581H21.5338V25.4395H9.49888V37.4581Z" fill="#1E1E1E"/>
<path d="M49.8951 20.016H27.5439V5.05322H49.8951V20.016ZM29.2626 18.2997H48.1742V6.7695H29.2626V18.2974V18.2997Z" fill="#1E1E1E"/>
<path d="M45.5387 26.0703H28.4038V27.7866H45.5387V26.0703Z" fill="#1E1E1E"/>
<path d="M45.5382 32.5532H28.4033V34.2695H45.5382V32.5532Z" fill="#1E1E1E"/>
<path d="M23.2524 58.7861H7.78027V43.335H23.2524V58.7861ZM9.49888 57.0698H21.5338V45.0512H9.49888V57.0698Z" fill="#1E1E1E"/>
<path d="M45.5382 45.6812H28.4033V47.3974H45.5382V45.6812Z" fill="#1E1E1E"/>
<path d="M45.5382 52.165H28.4033V53.8813H45.5382V52.165Z" fill="#1E1E1E"/>
</svg>
