<svg width="87" height="55" viewBox="0 0 87 55" fill="none" xmlns="http://www.w3.org/2000/svg">
<g clip-path="url(#clip0_437_5036)">
<path d="M77.234 48.5325H10.5795C10.1235 48.5325 9.75537 48.1663 9.75537 47.7128V3.96741C9.75537 1.77878 11.5438 0 13.7443 0H74.0693C76.2698 0 78.0582 1.77878 78.0582 3.96741V47.7128C78.0582 48.1663 77.69 48.5325 77.234 48.5325ZM11.4037 46.893H76.4099V3.96741C76.4099 2.68319 75.3604 1.63943 74.0693 1.63943H13.7443C12.4531 1.63943 11.4037 2.68319 11.4037 3.96741V46.893Z" fill="#1E1E1E"/>
<path d="M79.6733 55H7.32669C3.28561 55 0 51.7321 0 47.7128C0 47.2592 0.36812 46.8931 0.82415 46.8931H86.1758C86.6319 46.8931 87 47.2592 87 47.7128C87 51.7321 83.7144 55 79.6733 55ZM1.70874 48.5325C2.10982 51.2594 4.47513 53.3606 7.32669 53.3606H79.6733C82.5249 53.3606 84.8929 51.2594 85.2913 48.5325H1.70874Z" fill="#1E1E1E"/>
<g clip-path="url(#clip1_437_5036)">
<path d="M41.2579 28.1038L37.5177 24.344L36.2441 25.6153L41.2579 30.6554L52.0207 19.8358L50.7561 18.5645L41.2579 28.1038Z" fill="#1E1E1E"/>
</g>
</g>
<defs>
<clipPath id="clip0_437_5036">
<rect width="87" height="55" fill="white"/>
</clipPath>
<clipPath id="clip1_437_5036">
<rect width="21.5258" height="21.6393" fill="white" transform="translate(33.1855 13.5244)"/>
</clipPath>
</defs>
</svg>
