<svg width="88" height="67" viewBox="0 0 88 67" fill="none" xmlns="http://www.w3.org/2000/svg">
<path d="M23.1349 34.5402C13.5999 34.5402 5.84131 26.7921 5.84131 17.2701C5.84131 7.74812 13.5974 0 23.1349 0C32.6723 0 40.4258 7.74812 40.4258 17.2701C40.4258 26.7921 32.6698 34.5402 23.1349 34.5402ZM23.1349 2.05029C14.7303 2.05029 7.89439 8.87694 7.89439 17.2701C7.89439 25.6633 14.7303 32.4899 23.1349 32.4899C31.5394 32.4899 38.3753 25.6633 38.3753 17.2701C38.3753 8.87694 31.5394 2.05029 23.1349 2.05029Z" fill="#1E1E1E"/>
<path d="M46.2674 66.6358H0V47.5945C0 41.6995 4.80078 36.9053 10.7037 36.9053H35.5637C41.4666 36.9053 46.2674 41.6995 46.2674 47.5945V66.6358ZM2.05308 64.5855H44.2169V47.5919C44.2169 42.8283 40.3363 38.953 35.5662 38.953H10.7063C5.93625 38.953 2.05565 42.8283 2.05565 47.5919V64.5855H2.05308Z" fill="#1E1E1E"/>
<path d="M73.0448 27.834L72.4297 22.4843L67.0727 23.1012L66.8369 21.0637L74.2342 20.2139L75.0851 27.5985L73.0448 27.834Z" fill="#1E1E1E"/>
<path d="M44.8681 43.6502L43.2866 42.3448L51.0324 32.9713L57.2788 38.6332L72.2168 21.1123L73.7804 22.4408L57.4685 41.5743L51.2451 35.9328L44.8681 43.6502Z" fill="#1E1E1E"/>
<path d="M31.3168 31.8604H29.2637V37.9293H31.3168V31.8604Z" fill="#1E1E1E"/>
<path d="M81.5596 53.0532H45.2399V51.0029H81.5596C83.664 51.0029 85.3762 49.2905 85.3762 47.1864V21.7894C85.3762 19.6879 83.664 17.978 81.5596 17.978H39.3984V15.9277H81.5596C84.7969 15.9277 87.4293 18.5565 87.4293 21.7894V47.1864C87.4293 50.4193 84.7969 53.0506 81.5596 53.0506V53.0532Z" fill="#1E1E1E"/>
<path d="M58.4295 52.0269H56.3765V61.7818H58.4295V52.0269Z" fill="#1E1E1E"/>
<path d="M58.4295 9.94922H56.3765V17.3364H58.4295V9.94922Z" fill="#1E1E1E"/>
<path d="M52.1246 66.3332L50.6738 64.8844L57.4072 58.1602L63.6408 64.3853L62.1901 65.8366L57.4072 61.0603L52.1246 66.3332Z" fill="#1E1E1E"/>
</svg>
