<svg width="76" height="76" viewBox="0 0 76 76" fill="none" xmlns="http://www.w3.org/2000/svg">
<circle cx="38" cy="38" r="38" fill="#F0F0F0"/>
<path d="M65.3019 60.4927C65.1548 60.4923 65.011 60.4485 64.8882 60.3667C64.7654 60.2849 64.6691 60.1686 64.6111 60.0322C64.5433 59.8726 62.9532 56.0918 62.9532 52.7525C62.9532 49.1079 62.2178 42.2381 59.4615 39.605C58.5521 38.736 53.4571 36.535 50.4596 35.3518C50.3636 35.3184 50.2752 35.2658 50.1999 35.1971C50.1245 35.1284 50.0636 35.0451 50.021 34.952C49.9784 34.859 49.9549 34.7583 49.9518 34.6559C49.9488 34.5535 49.9663 34.4515 50.0033 34.3561C50.0403 34.2607 50.0961 34.1738 50.1673 34.1007C50.2384 34.0276 50.3235 33.9697 50.4174 33.9306C50.5113 33.8915 50.6121 33.8719 50.7137 33.8731C50.8152 33.8743 50.9155 33.8961 51.0085 33.9374C51.83 34.2617 59.0759 37.1449 60.4971 38.5023C61.9182 39.8597 62.9865 42.1576 63.6798 45.3398C64.3832 48.5651 64.4585 51.5985 64.4585 52.7506C64.4585 55.7814 65.9796 59.3956 65.9953 59.4317C66.0442 59.5472 66.0641 59.673 66.053 59.7981C66.042 59.9232 66.0004 60.0435 65.932 60.1484C65.8635 60.2533 65.7704 60.3395 65.6609 60.3992C65.5514 60.459 65.429 60.4904 65.3045 60.4908L65.3019 60.4927Z" fill="#8566FF"/>
<path d="M54.6548 56.7333C54.5869 56.7334 54.5193 56.724 54.4539 56.7055C51.155 55.7877 48.7773 54.087 47.3863 51.6509C46.2169 49.6019 46.0712 47.575 46.0091 46.7104C45.9936 46.4952 45.9207 46.2881 45.7981 46.1112C45.5594 45.7629 45.057 45.0756 44.4748 44.2801C42.2417 41.2265 40.1875 38.3787 39.5965 37.0942C39.1525 36.1282 38.9785 35.3985 39.0313 34.7284C39.1004 33.8746 39.5544 33.1595 40.3821 32.6027C42.5695 31.132 44.1765 32.6984 45.5946 34.0811C47.0346 35.4853 47.6262 36.0801 48.312 36.7686C48.9023 37.3621 49.5717 38.0354 50.9282 39.3706C51.4859 39.9197 52.1152 40.2288 52.8443 40.5874C53.8937 41.1029 55.0831 41.6876 56.3322 43.1133C56.3977 43.1882 56.4479 43.2753 56.48 43.3698C56.5121 43.4642 56.5254 43.5641 56.5193 43.6637C56.5131 43.7634 56.4875 43.8608 56.444 43.9505C56.4005 44.0401 56.3399 44.1203 56.2657 44.1863C56.1914 44.2524 56.105 44.303 56.0114 44.3354C55.9178 44.3678 55.8187 44.3812 55.72 44.375C55.6212 44.3687 55.5246 44.3429 55.4357 44.2991C55.3468 44.2552 55.2673 44.194 55.2018 44.1192C54.1512 42.9202 53.1501 42.428 52.1817 41.9523C51.4068 41.5723 50.6054 41.1777 49.8738 40.4569C48.5117 39.1166 47.8397 38.4408 47.2462 37.8447C46.5655 37.16 45.977 36.5691 44.5458 35.1724C42.8502 33.5218 42.2473 33.1728 41.2174 33.8663C40.4851 34.3591 40.2446 34.8944 40.9618 36.4551C41.5377 37.7073 44.1345 41.2575 45.6863 43.3787C46.2998 44.218 46.7847 44.8805 47.0365 45.2485C47.3109 45.6487 47.4744 46.1156 47.51 46.6008C47.9942 53.3339 53.157 54.7717 54.8539 55.2423C55.0287 55.292 55.1798 55.4036 55.2795 55.5568C55.3791 55.7099 55.4206 55.8941 55.3963 56.0756C55.372 56.2571 55.2836 56.4237 55.1472 56.5446C55.0109 56.6656 54.8358 56.7328 54.6542 56.734L54.6548 56.7333Z" fill="#8566FF"/>
<path d="M50.1621 61.9996C50.0011 61.9995 49.8444 61.9475 49.7149 61.851C49.5854 61.7546 49.4899 61.6189 49.4424 61.4638C49.4374 61.4473 48.8181 59.5268 47.1301 58.7503C46.9562 58.6618 46.823 58.5089 46.7584 58.3236C46.6938 58.1383 46.7029 57.935 46.7837 57.7562C46.8645 57.5775 47.0108 57.4373 47.1918 57.3649C47.3729 57.2926 47.5747 57.2938 47.7549 57.3682C50.0691 58.4329 50.8497 60.9114 50.8818 61.0166C50.9406 61.2092 50.9212 61.4175 50.8278 61.5956C50.7344 61.7738 50.5747 61.9073 50.3838 61.9667C50.312 61.989 50.2372 62.0001 50.1621 61.9996Z" fill="#8566FF"/>
<path d="M40.2005 58.0744H26.79C24.9902 58.0724 23.2646 57.3503 21.9919 56.0667C20.7192 54.7831 20.0033 53.0427 20.0013 51.2273V18.7289C20.0033 16.9135 20.7192 15.1731 21.9919 13.8895C23.2646 12.6059 24.9902 11.8838 26.79 11.8818H40.2005C42.0003 11.8838 43.7259 12.6059 44.9986 13.8895C46.2713 15.1731 46.9872 16.9135 46.9892 18.7289V30.6444C46.9892 30.846 46.9098 31.0393 46.7685 31.1819C46.6272 31.3244 46.4355 31.4045 46.2356 31.4045C46.0357 31.4045 45.844 31.3244 45.7027 31.1819C45.5614 31.0393 45.482 30.846 45.482 30.6444V18.7289C45.4805 17.3162 44.9235 15.9617 43.9331 14.9627C42.9427 13.9638 41.5999 13.4018 40.1992 13.4001H26.79C25.3892 13.4016 24.0462 13.9635 23.0557 14.9625C22.0652 15.9615 21.5081 17.3161 21.5066 18.7289V51.2267C21.5081 52.6395 22.0652 53.9941 23.0557 54.9931C24.0462 55.9921 25.3892 56.554 26.79 56.5555H40.2005C41.0978 56.5552 41.9803 56.3246 42.7649 55.8853C43.5494 55.4461 44.2102 54.8127 44.6851 54.0447C44.7944 53.8816 44.9621 53.7676 45.1531 53.7268C45.344 53.686 45.5432 53.7214 45.7088 53.8258C45.8743 53.9301 45.9932 54.0951 46.0406 54.2861C46.0879 54.4771 46.0598 54.6792 45.9624 54.8498C45.6778 55.3089 45.3405 55.7326 44.9576 56.1121C43.6904 57.3732 41.9806 58.0784 40.2005 58.0744Z" fill="#8566FF"/>
<path d="M46.2362 21.3258H20.7536C20.5537 21.3258 20.3621 21.2457 20.2207 21.1032C20.0794 20.9607 20 20.7673 20 20.5657C20 20.3642 20.0794 20.1708 20.2207 20.0283C20.3621 19.8857 20.5537 19.8057 20.7536 19.8057H46.2362C46.4361 19.8057 46.6278 19.8857 46.7691 20.0283C46.9104 20.1708 46.9898 20.3642 46.9898 20.5657C46.9898 20.7673 46.9104 20.9607 46.7691 21.1032C46.6278 21.2457 46.4361 21.3258 46.2362 21.3258Z" fill="#8566FF"/>
<path d="M35.2814 17.3639H31.7093C31.5094 17.3639 31.3178 17.2838 31.1764 17.1413C31.0351 16.9987 30.9557 16.8054 30.9557 16.6038C30.9557 16.4022 31.0351 16.2089 31.1764 16.0664C31.3178 15.9238 31.5094 15.8438 31.7093 15.8438H35.2814C35.4813 15.8438 35.673 15.9238 35.8143 16.0664C35.9556 16.2089 36.035 16.4022 36.035 16.6038C36.035 16.8054 35.9556 16.9987 35.8143 17.1413C35.673 17.2838 35.4813 17.3639 35.2814 17.3639Z" fill="#8566FF"/>
<path d="M42.9066 50.1491H20.7543C20.5544 50.1491 20.3627 50.069 20.2214 49.9264C20.0801 49.7839 20.0007 49.5906 20.0007 49.389C20.0007 49.1874 20.0801 48.9941 20.2214 48.8515C20.3627 48.709 20.5544 48.6289 20.7543 48.6289H42.9066C43.1064 48.6289 43.2981 48.709 43.4394 48.8515C43.5808 48.9941 43.6602 49.1874 43.6602 49.389C43.6602 49.5906 43.5808 49.7839 43.4394 49.9264C43.2981 50.069 43.1064 50.1491 42.9066 50.1491Z" fill="#8566FF"/>
<path d="M38.6436 26.736H24.2459C24.0892 26.736 23.9389 26.6732 23.8281 26.5614C23.7172 26.4497 23.655 26.298 23.655 26.14C23.655 25.9819 23.7172 25.8303 23.8281 25.7185C23.9389 25.6067 24.0892 25.5439 24.2459 25.5439H38.6436C38.8003 25.5439 38.9506 25.6067 39.0615 25.7185C39.1723 25.8303 39.2345 25.9819 39.2345 26.14C39.2345 26.298 39.1723 26.4497 39.0615 26.5614C38.9506 26.6732 38.8003 26.736 38.6436 26.736Z" fill="#8566FF"/>
<path d="M35.2053 32.901H24.2459C24.0892 32.901 23.9389 32.8382 23.8281 32.7265C23.7172 32.6147 23.655 32.4631 23.655 32.305C23.655 32.1469 23.7172 31.9953 23.8281 31.8836C23.9389 31.7718 24.0892 31.709 24.2459 31.709H35.2053C35.362 31.709 35.5123 31.7718 35.6231 31.8836C35.7339 31.9953 35.7962 32.1469 35.7962 32.305C35.7962 32.4631 35.7339 32.6147 35.6231 32.7265C35.5123 32.8382 35.362 32.901 35.2053 32.901Z" fill="#8566FF"/>
<path d="M30.4865 45.1765C30.272 45.1769 30.0595 45.1344 29.8614 45.0514C29.6633 44.9684 29.4834 44.8467 29.3322 44.6932L25.9153 41.2405C25.7251 41.0483 25.6183 40.7878 25.6183 40.5162C25.6183 40.2447 25.7251 39.9842 25.9153 39.7919L27.4752 38.2186C27.6659 38.0266 27.9243 37.9187 28.1937 37.9187C28.4631 37.9187 28.7215 38.0266 28.9121 38.2186L30.4897 39.8097L33.9776 36.2918C34.1683 36.0999 34.4267 35.9922 34.696 35.9922C34.9654 35.9922 35.2238 36.0999 35.4145 36.2918L36.9738 37.8651C37.1643 38.0573 37.2714 38.318 37.2714 38.5897C37.2714 38.8615 37.1643 39.1222 36.9738 39.3144L31.6395 44.6944C31.4884 44.8476 31.3087 44.9691 31.1108 45.0518C30.9129 45.1345 30.7007 45.1769 30.4865 45.1765ZM26.868 40.5178L30.1681 43.852C30.2097 43.8945 30.2593 43.9283 30.314 43.9512C30.3686 43.9742 30.4273 43.9859 30.4865 43.9857C30.5457 43.9858 30.6042 43.9741 30.6589 43.9513C30.7135 43.9284 30.7632 43.8949 30.8049 43.8527L36.0211 38.591L34.696 37.2545L31.2081 40.7712C31.0175 40.9633 30.7591 41.0713 30.4897 41.0713C30.2202 41.0713 29.9618 40.9633 29.7712 40.7712L28.1937 39.1801L26.868 40.5178Z" fill="#8566FF"/>
<path d="M38.6436 29.818H24.2459C24.0892 29.818 23.9389 29.7552 23.8281 29.6435C23.7172 29.5317 23.655 29.3801 23.655 29.222C23.655 29.0639 23.7172 28.9123 23.8281 28.8005C23.9389 28.6888 24.0892 28.626 24.2459 28.626H38.6436C38.8003 28.626 38.9506 28.6888 39.0615 28.8005C39.1723 28.9123 39.2345 29.0639 39.2345 29.222C39.2345 29.3801 39.1723 29.5317 39.0615 29.6435C38.9506 29.7552 38.8003 29.818 38.6436 29.818Z" fill="#8566FF"/>
</svg>
