<svg width="76" height="76" viewBox="0 0 76 76" fill="none" xmlns="http://www.w3.org/2000/svg">
<circle cx="38" cy="38" r="38" fill="#F0F0F0"/>
<path fill-rule="evenodd" clip-rule="evenodd" d="M22.5 31.5H53.5V33.5H22.5V31.5Z" fill="#8566FF"/>
<path fill-rule="evenodd" clip-rule="evenodd" d="M22.5 45H53.5V47H22.5V45Z" fill="#8566FF"/>
<path fill-rule="evenodd" clip-rule="evenodd" d="M56.5 34.5C57.6046 34.5 58.5 33.6046 58.5 32.5C58.5 31.3954 57.6046 30.5 56.5 30.5C55.3954 30.5 54.5 31.3954 54.5 32.5C54.5 33.6046 55.3954 34.5 56.5 34.5ZM56.5 36C58.433 36 60 34.433 60 32.5C60 30.567 58.433 29 56.5 29C54.567 29 53 30.567 53 32.5C53 34.433 54.567 36 56.5 36Z" fill="#8566FF"/>
<path d="M43 32.5C43 33.8807 41.8807 35 40.5 35C39.1193 35 38 33.8807 38 32.5C38 31.1193 39.1193 30 40.5 30C41.8807 30 43 31.1193 43 32.5Z" fill="#8566FF"/>
<path d="M34 45.5C34 46.8807 32.8807 48 31.5 48C30.1193 48 29 46.8807 29 45.5C29 44.1193 30.1193 43 31.5 43C32.8807 43 34 44.1193 34 45.5Z" fill="#8566FF"/>
<path fill-rule="evenodd" clip-rule="evenodd" d="M19.5 34.5C20.6046 34.5 21.5 33.6046 21.5 32.5C21.5 31.3954 20.6046 30.5 19.5 30.5C18.3954 30.5 17.5 31.3954 17.5 32.5C17.5 33.6046 18.3954 34.5 19.5 34.5ZM19.5 36C21.433 36 23 34.433 23 32.5C23 30.567 21.433 29 19.5 29C17.567 29 16 30.567 16 32.5C16 34.433 17.567 36 19.5 36Z" fill="#8566FF"/>
<path fill-rule="evenodd" clip-rule="evenodd" d="M56.5 47.5C57.6046 47.5 58.5 46.6046 58.5 45.5C58.5 44.3954 57.6046 43.5 56.5 43.5C55.3954 43.5 54.5 44.3954 54.5 45.5C54.5 46.6046 55.3954 47.5 56.5 47.5ZM56.5 49C58.433 49 60 47.433 60 45.5C60 43.567 58.433 42 56.5 42C54.567 42 53 43.567 53 45.5C53 47.433 54.567 49 56.5 49Z" fill="#8566FF"/>
<path fill-rule="evenodd" clip-rule="evenodd" d="M19.5 47.5C20.6046 47.5 21.5 46.6046 21.5 45.5C21.5 44.3954 20.6046 43.5 19.5 43.5C18.3954 43.5 17.5 44.3954 17.5 45.5C17.5 46.6046 18.3954 47.5 19.5 47.5ZM19.5 49C21.433 49 23 47.433 23 45.5C23 43.567 21.433 42 19.5 42C17.567 42 16 43.567 16 45.5C16 47.433 17.567 49 19.5 49Z" fill="#8566FF"/>
</svg>
