<svg width="44" height="44" viewBox="0 0 44 44" fill="none" xmlns="http://www.w3.org/2000/svg">
<g id="Group 1351">
<g id="Group 918">
<path id="Vector (Stroke)" fill-rule="evenodd" clip-rule="evenodd" d="M22.488 10.9463C20.2119 10.8245 17.957 11.4389 16.0573 12.6985C14.1576 13.9581 12.714 15.796 11.9402 17.94C11.1664 20.0839 11.1035 22.4201 11.7609 24.6026C12.4182 26.7851 13.7609 28.698 15.5901 30.0579C17.4193 31.4179 19.6378 32.1527 21.9172 32.1536C22.3115 32.1529 22.7054 32.1312 23.0974 32.0887L23.1888 32.9308C22.7667 32.9766 22.3424 33 21.9178 33.0007H21.9168C19.4555 32.9998 17.0599 32.2063 15.0847 30.7377C13.1095 29.2692 11.6596 27.2037 10.9498 24.8469C10.2399 22.4902 10.3078 19.9675 11.1434 17.6524C11.979 15.3372 13.5378 13.3527 15.5892 11.9925C17.6405 10.6323 20.0754 9.96889 22.5332 10.1003C24.991 10.2318 27.3412 11.1512 29.2358 12.7224C31.1303 14.2936 32.4686 16.4331 33.0525 18.8242C33.6364 21.2153 33.4348 23.7308 32.4776 25.9984L31.6972 25.669C32.5836 23.569 32.7703 21.2394 32.2295 19.0251C31.6888 16.8108 30.4495 14.8295 28.695 13.3745C26.9405 11.9194 24.7641 11.068 22.488 10.9463Z" fill="#141232"/>
<path id="Vector (Stroke)_2" fill-rule="evenodd" clip-rule="evenodd" d="M16.8252 21.542H22.3426V22.3891H16.8252V21.542Z" fill="#141232"/>
<g id="24">
<path d="M28.7941 32.2584C28.8664 32.2584 28.9274 32.2833 28.9771 32.333C29.0268 32.3827 29.0516 32.4437 29.0516 32.5159C29.0516 32.5882 29.0268 32.6492 28.9771 32.6989C28.9274 32.7441 28.8664 32.7667 28.7941 32.7667H26.3341C26.2528 32.7667 26.185 32.7441 26.1308 32.6989C26.0811 32.6492 26.0562 32.5837 26.0562 32.5024C26.0562 32.4301 26.0833 32.3646 26.1376 32.3059L27.6691 30.632C27.895 30.388 28.0645 30.1598 28.1774 29.9475C28.2949 29.7306 28.3536 29.5386 28.3536 29.3715C28.3536 29.0959 28.27 28.8767 28.1029 28.7141C27.9402 28.5469 27.7211 28.4633 27.4455 28.4633C27.3235 28.4633 27.2015 28.4905 27.0795 28.5447C26.9576 28.5944 26.8469 28.6644 26.7475 28.7548C26.6481 28.8406 26.5668 28.9377 26.5035 29.0462C26.4674 29.1049 26.429 29.1433 26.3883 29.1614C26.3522 29.1749 26.3138 29.1817 26.2731 29.1817C26.2053 29.1817 26.1443 29.1591 26.0901 29.1139C26.0359 29.0642 26.0088 29.0078 26.0088 28.9445C26.0088 28.8948 26.0223 28.8496 26.0495 28.809C26.0766 28.7638 26.1127 28.7141 26.1579 28.6599C26.2528 28.5289 26.3702 28.4114 26.5103 28.3075C26.6549 28.199 26.8107 28.1132 26.9779 28.05C27.1496 27.9867 27.3167 27.9551 27.4794 27.9551C27.7685 27.9551 28.0193 28.0116 28.2316 28.1245C28.4485 28.2374 28.6156 28.3978 28.7331 28.6057C28.8506 28.8135 28.9093 29.0575 28.9093 29.3376C28.9093 29.577 28.837 29.8413 28.6925 30.1305C28.5479 30.4196 28.3355 30.7133 28.0554 31.0115L26.8695 32.3262L26.8017 32.2584H28.7941Z" fill="#141232"/>
<path d="M31.8764 32.7667C31.7996 32.7667 31.7341 32.7396 31.6799 32.6854C31.6302 32.6312 31.6054 32.5656 31.6054 32.4888V28.7819L31.7138 28.8225L30.0941 30.9369L30.067 30.8556H32.6016C32.6739 30.8556 32.7349 30.8805 32.7845 30.9301C32.8342 30.9798 32.8591 31.0408 32.8591 31.1131C32.8591 31.1809 32.8342 31.2396 32.7845 31.2893C32.7349 31.3345 32.6739 31.3571 32.6016 31.3571H29.6943C29.6265 31.3571 29.5633 31.33 29.5045 31.2758C29.4503 31.2216 29.4232 31.1583 29.4232 31.086C29.4232 31.0182 29.4458 30.9595 29.491 30.9098L31.6528 28.1313C31.6844 28.0906 31.7206 28.0635 31.7612 28.05C31.8019 28.0319 31.8426 28.0228 31.8832 28.0228C31.96 28.0228 32.0233 28.05 32.073 28.1042C32.1227 28.1539 32.1475 28.2171 32.1475 28.2939V32.4888C32.1475 32.5656 32.1204 32.6312 32.0662 32.6854C32.0165 32.7396 31.9532 32.7667 31.8764 32.7667Z" fill="#141232"/>
<path d="M28.7941 32.2584C28.8664 32.2584 28.9274 32.2833 28.9771 32.333C29.0268 32.3827 29.0516 32.4437 29.0516 32.5159C29.0516 32.5882 29.0268 32.6492 28.9771 32.6989C28.9274 32.7441 28.8664 32.7667 28.7941 32.7667H26.3341C26.2528 32.7667 26.185 32.7441 26.1308 32.6989C26.0811 32.6492 26.0562 32.5837 26.0562 32.5024C26.0562 32.4301 26.0833 32.3646 26.1376 32.3059L27.6691 30.632C27.895 30.388 28.0645 30.1598 28.1774 29.9475C28.2949 29.7306 28.3536 29.5386 28.3536 29.3715C28.3536 29.0959 28.27 28.8767 28.1029 28.7141C27.9402 28.5469 27.7211 28.4633 27.4455 28.4633C27.3235 28.4633 27.2015 28.4905 27.0795 28.5447C26.9576 28.5944 26.8469 28.6644 26.7475 28.7548C26.6481 28.8406 26.5668 28.9377 26.5035 29.0462C26.4674 29.1049 26.429 29.1433 26.3883 29.1614C26.3522 29.1749 26.3138 29.1817 26.2731 29.1817C26.2053 29.1817 26.1443 29.1591 26.0901 29.1139C26.0359 29.0642 26.0088 29.0078 26.0088 28.9445C26.0088 28.8948 26.0223 28.8496 26.0495 28.809C26.0766 28.7638 26.1127 28.7141 26.1579 28.6599C26.2528 28.5289 26.3702 28.4114 26.5103 28.3075C26.6549 28.199 26.8107 28.1132 26.9779 28.05C27.1496 27.9867 27.3167 27.9551 27.4794 27.9551C27.7685 27.9551 28.0193 28.0116 28.2316 28.1245C28.4485 28.2374 28.6156 28.3978 28.7331 28.6057C28.8506 28.8135 28.9093 29.0575 28.9093 29.3376C28.9093 29.577 28.837 29.8413 28.6925 30.1305C28.5479 30.4196 28.3355 30.7133 28.0554 31.0115L26.8695 32.3262L26.8017 32.2584H28.7941Z" stroke="black"/>
<path d="M31.8764 32.7667C31.7996 32.7667 31.7341 32.7396 31.6799 32.6854C31.6302 32.6312 31.6054 32.5656 31.6054 32.4888V28.7819L31.7138 28.8225L30.0941 30.9369L30.067 30.8556H32.6016C32.6739 30.8556 32.7349 30.8805 32.7845 30.9301C32.8342 30.9798 32.8591 31.0408 32.8591 31.1131C32.8591 31.1809 32.8342 31.2396 32.7845 31.2893C32.7349 31.3345 32.6739 31.3571 32.6016 31.3571H29.6943C29.6265 31.3571 29.5633 31.33 29.5045 31.2758C29.4503 31.2216 29.4232 31.1583 29.4232 31.086C29.4232 31.0182 29.4458 30.9595 29.491 30.9098L31.6528 28.1313C31.6844 28.0906 31.7206 28.0635 31.7612 28.05C31.8019 28.0319 31.8426 28.0228 31.8832 28.0228C31.96 28.0228 32.0233 28.05 32.073 28.1042C32.1227 28.1539 32.1475 28.2171 32.1475 28.2939V32.4888C32.1475 32.5656 32.1204 32.6312 32.0662 32.6854C32.0165 32.7396 31.9532 32.7667 31.8764 32.7667Z" stroke="black"/>
</g>
<path id="Vector (Stroke)_3" fill-rule="evenodd" clip-rule="evenodd" d="M22.3408 13.5742V22.1568H21.4937V13.5742H22.3408Z" fill="#141232"/>
</g>
<circle id="Ellipse 148" cx="22" cy="22" r="21.5" stroke="black"/>
</g>
</svg>
