<svg width="16" height="12" viewBox="0 0 16 12" fill="none" xmlns="http://www.w3.org/2000/svg">
<g id="Isolation_Mode" clip-path="url(#clip0_3216_1987)">
<path id="Vector" d="M9.66685 12C8.41424 12 7.18973 11.6481 6.14822 10.9888C5.10671 10.3295 4.29497 9.39246 3.81562 8.2961C3.33626 7.19974 3.21081 5.99336 3.45518 4.82947C3.69956 3.66558 4.30277 2.59646 5.1885 1.75734C6.07423 0.91823 7.20271 0.346805 8.43126 0.115294C9.6598 -0.116218 10.9333 0.00259209 12.0905 0.456718C13.2478 0.910844 14.2369 1.67989 14.9328 2.66659C15.6287 3.65328 16.0002 4.81331 16.0002 5.99999C16.0002 7.59129 15.3329 9.11743 14.1452 10.2426C12.9574 11.3679 11.3466 12 9.66685 12ZM9.66685 0.631574C8.54609 0.631574 7.4505 0.946418 6.51862 1.53631C5.58674 2.1262 4.8604 2.96464 4.4315 3.94559C4.00261 4.92654 3.89042 6.00595 4.10907 7.04732C4.32772 8.08869 4.8674 9.04527 5.6599 9.79606C6.45239 10.5468 7.46212 11.0581 8.56134 11.2653C9.66057 11.4724 10.7999 11.3661 11.8354 10.9598C12.8708 10.5534 13.7558 9.86537 14.3785 8.98253C15.0011 8.0997 15.3335 7.06177 15.3335 5.99999C15.3335 4.5762 14.7365 3.21074 13.6738 2.20397C12.6111 1.19719 11.1697 0.631574 9.66685 0.631574Z" fill="#F85459"/>
<path id="Vector_2" d="M3.6665 1.5791H0.666504V2.21068H3.6665V1.5791Z" fill="#F85459"/>
<path id="Vector_3" d="M5.3335 0H2.3335V0.631579H5.3335V0Z" fill="#F85459"/>
<path id="Vector_4" d="M2.6665 3.47363H0.666504V4.10521H2.6665V3.47363Z" fill="#F85459"/>
<path id="Vector_5" d="M2.33333 5.36816H0V5.99974H2.33333V5.36816Z" fill="#F85459"/>
<path id="Vector_6" d="M2.66667 7.5791H0V8.21068H2.66667V7.5791Z" fill="#F85459"/>
<path id="Vector_7" d="M3.6665 9.47363H1.6665V10.1052H3.6665V9.47363Z" fill="#F85459"/>
<path id="Vector_8" d="M5.3335 11.0527H2.3335V11.6843H5.3335V11.0527Z" fill="#F85459"/>
<path id="Vector_9" d="M9.66652 6.94748C9.46874 6.94748 9.27539 6.89191 9.11094 6.78781C8.94649 6.68371 8.8183 6.53576 8.74261 6.36266C8.66692 6.18955 8.64714 5.99908 8.68572 5.81531C8.72431 5.63153 8.81955 5.4627 8.95941 5.33021C9.09926 5.19772 9.27743 5.10749 9.47141 5.07093C9.66539 5.03438 9.86644 5.05316 10.0492 5.12486C10.2319 5.19657 10.3881 5.31797 10.498 5.47377C10.6079 5.62956 10.6665 5.81274 10.6665 6.00011C10.6665 6.25136 10.5611 6.49234 10.3736 6.67C10.1861 6.84767 9.93174 6.94748 9.66652 6.94748ZM9.66652 5.68432C9.60059 5.68432 9.53611 5.70285 9.4813 5.73755C9.42648 5.77225 9.38376 5.82155 9.35854 5.87926C9.33331 5.93696 9.32671 6.00045 9.33957 6.06171C9.35244 6.12296 9.38418 6.17925 9.4308 6.22342C9.47742 6.26758 9.53679 6.29766 9.60146 6.30984C9.66612 6.32203 9.73317 6.31578 9.79408 6.29188C9.85499 6.26798 9.90703 6.22747 9.94366 6.17554C9.98029 6.12361 9.99985 6.06256 9.99985 6.00011C9.99985 5.91635 9.96471 5.83602 9.9022 5.7768C9.83968 5.71757 9.75492 5.68432 9.66652 5.68432Z" fill="#F85459"/>
<path id="Vector_10" d="M10.3331 5.68388C10.289 5.68371 10.2454 5.67524 10.2048 5.65898C10.1641 5.64272 10.1273 5.61897 10.0964 5.58913C10.0344 5.52996 9.99951 5.44994 9.99951 5.36651C9.99951 5.28308 10.0344 5.20306 10.0964 5.14389L12.4298 2.93337C12.4935 2.88163 12.5756 2.85459 12.6595 2.85766C12.7434 2.86073 12.8229 2.89366 12.8823 2.9499C12.9416 3.00614 12.9765 3.08156 12.9797 3.16103C12.9829 3.24051 12.9544 3.31819 12.8998 3.3786L10.5664 5.58913C10.5049 5.64863 10.4211 5.68269 10.3331 5.68388Z" fill="#F85459"/>
<path id="Vector_11" d="M11.9835 8.51031C11.9394 8.51014 11.8958 8.50171 11.8551 8.48545C11.8145 8.46918 11.7777 8.44543 11.7468 8.4156L10.0802 6.83665C10.0256 6.77624 9.99701 6.69852 10.0002 6.61904C10.0035 6.53957 10.0383 6.46419 10.0976 6.40795C10.157 6.35171 10.2366 6.31873 10.3205 6.31567C10.4044 6.3126 10.4864 6.33964 10.5501 6.39137L12.2168 7.97032C12.2789 8.02949 12.3138 8.10955 12.3138 8.19298C12.3138 8.2764 12.2789 8.35643 12.2168 8.4156C12.1553 8.47509 12.0714 8.50912 11.9835 8.51031Z" fill="#F85459"/>
</g>
<defs>
<clipPath id="clip0_3216_1987">
<rect width="16" height="12" fill="white"/>
</clipPath>
</defs>
</svg>
