<svg width="46" height="46" viewBox="0 0 46 46" fill="none" xmlns="http://www.w3.org/2000/svg">
<g id="Group 969">
<g id="Group 917">
<g id="z&#197;&#130;">
<path d="M23.5935 28.4185C23.7801 28.4185 23.9357 28.4885 24.0601 28.6285C24.2001 28.7529 24.2701 28.9007 24.2701 29.0718C24.2701 29.2585 24.2001 29.414 24.0601 29.5385C23.9357 29.6629 23.7801 29.7251 23.5935 29.7251H16.0104C15.8082 29.7251 15.6448 29.6473 15.5204 29.4918C15.396 29.3362 15.3337 29.1885 15.3337 29.0485C15.3337 28.9551 15.3493 28.8696 15.3804 28.7918C15.4115 28.6985 15.466 28.6052 15.5437 28.5118L22.6135 18.7355L22.7068 18.9454H16.5937C16.407 18.9454 16.2437 18.8832 16.1037 18.7588C15.9793 18.6188 15.9171 18.4632 15.9171 18.2921C15.9171 18.1055 15.9793 17.9499 16.1037 17.8255C16.2437 17.701 16.407 17.6388 16.5937 17.6388H23.7568C23.9279 17.6388 24.0757 17.7088 24.2001 17.8488C24.3401 17.9888 24.4101 18.1521 24.4101 18.3388C24.4101 18.4321 24.3946 18.5177 24.3635 18.5955C24.3324 18.6732 24.2857 18.7588 24.2235 18.8521L17.2003 28.5352L16.9204 28.4185H23.5935Z" fill="#141232"/>
<path d="M25.8221 22.0254C25.651 22.0254 25.511 21.9631 25.4021 21.8387C25.2932 21.6987 25.2388 21.5509 25.2388 21.3954C25.2388 21.1309 25.3788 20.9443 25.6588 20.8354L30.1386 18.7821C30.2009 18.751 30.2631 18.7277 30.3253 18.7121C30.4031 18.6966 30.4731 18.6888 30.5353 18.6888C30.7064 18.6888 30.8386 18.751 30.932 18.8755C31.0408 18.9999 31.0953 19.1321 31.0953 19.2721C31.0953 19.4277 31.0486 19.5599 30.9553 19.6688C30.8775 19.7621 30.7764 19.8399 30.652 19.9021L26.1488 21.932C26.0866 21.9631 26.0243 21.9865 25.9621 22.002C25.8999 22.0176 25.8532 22.0254 25.8221 22.0254ZM28.832 29.0251C28.832 29.2118 28.762 29.3751 28.622 29.5151C28.482 29.6551 28.3187 29.7251 28.132 29.7251C27.9298 29.7251 27.7587 29.6551 27.6187 29.5151C27.4943 29.3751 27.4321 29.2118 27.4321 29.0251V13.159C27.4321 12.9723 27.5021 12.809 27.6421 12.669C27.7821 12.529 27.9454 12.459 28.132 12.459C28.3343 12.459 28.4976 12.529 28.622 12.669C28.762 12.809 28.832 12.9723 28.832 13.159V29.0251Z" fill="#141232"/>
</g>
</g>
<circle id="Ellipse 148" cx="23" cy="23" r="22.5" stroke="black"/>
</g>
</svg>
