<svg width="46" height="46" viewBox="0 0 46 46" fill="none" xmlns="http://www.w3.org/2000/svg">
<g id="Group 974">
<g id="Group 871">
<path id="Vector" d="M22.5578 36.5284H22.4491C20.8761 36.4826 19.5062 36.1137 17.7215 35.25C17.1123 34.964 16.5775 34.678 16.057 34.392L15.8196 34.2604C14.5927 33.6226 12.9081 33.4024 11.4209 33.2966C11.3599 33.2915 11.3004 33.2745 11.246 33.2465C11.1915 33.2184 11.1431 33.18 11.1035 33.1332C11.064 33.0865 11.034 33.0324 11.0153 32.974C10.9967 32.9157 10.9897 32.8543 10.9948 32.7932C10.9995 32.7323 11.0162 32.6729 11.0439 32.6185C11.0716 32.5641 11.1099 32.5156 11.1564 32.476C11.2029 32.4364 11.2568 32.4064 11.3149 32.3877C11.3731 32.369 11.4344 32.362 11.4953 32.3671C13.0769 32.4929 14.8758 32.7189 16.2572 33.4396L16.5146 33.5797C16.9951 33.8371 17.5413 34.1146 18.1276 34.3977C19.7836 35.2014 21.0448 35.5417 22.4748 35.5846C23.493 35.6161 25.6723 35.1184 30.2455 32.6045C32.6765 31.2688 36.7434 29.0323 36.8378 27.9999C36.8378 27.957 36.8521 27.854 36.6605 27.6967C35.8025 26.9989 32.7423 28.6119 30.2798 29.9103C29.7278 30.1963 29.1758 30.4823 28.6382 30.7683C28.5835 30.7961 28.5239 30.8129 28.4628 30.8177C28.4017 30.8224 28.3402 30.8151 28.2819 30.7961C28.2236 30.7771 28.1696 30.7468 28.123 30.707C28.0765 30.6671 28.0382 30.6185 28.0104 30.5639C27.9826 30.5092 27.9658 30.4496 27.9611 30.3885C27.9563 30.3274 27.9636 30.2659 27.9826 30.2076C28.0016 30.1493 28.0319 30.0953 28.0717 30.0488C28.1116 30.0022 28.1602 29.9639 28.2149 29.9361C28.7497 29.6644 29.296 29.3641 29.8479 29.0781C33.1055 27.3621 35.9197 25.8806 37.2525 26.9703C37.4262 27.0956 37.5648 27.2635 37.6549 27.4578C37.7451 27.6521 37.7838 27.8664 37.7673 28.0799C37.6472 29.3841 35.4793 30.7798 30.6945 33.4167C26.9565 35.4874 24.2194 36.5284 22.5578 36.5284Z" fill="#141232"/>
<path id="Vector_2" d="M26.421 33.2471C25.6831 33.2471 24.7307 32.9211 23.4694 32.4892C23.1119 32.3691 22.7687 32.2461 22.437 32.1288C20.8697 31.5568 19.5169 31.0907 17.615 30.9391C17.554 30.9342 17.4945 30.9173 17.44 30.8895C17.3855 30.8616 17.337 30.8233 17.2973 30.7767C17.2171 30.6825 17.1776 30.5604 17.1874 30.4372C17.1923 30.3761 17.2092 30.3166 17.237 30.2621C17.2649 30.2076 17.3032 30.1591 17.3498 30.1194C17.444 30.0392 17.5661 29.9997 17.6894 30.0096C19.7114 30.1697 21.1214 30.6702 22.7487 31.248C23.0776 31.3652 23.4151 31.4882 23.7697 31.6083C25.1425 32.0774 26.3237 32.4663 26.7785 32.2461C26.8369 32.2139 26.8874 32.1688 26.926 32.1143C26.9646 32.0599 26.9905 31.9974 27.0015 31.9315C27.2246 31.1936 25.2855 29.4519 22.4455 28.3079C21.6571 27.9652 20.9034 27.5476 20.1947 27.0609C19.291 26.4889 18.4358 25.9169 17.4949 25.8025C16.2551 25.6838 15.0047 25.8511 13.8398 26.2916C12.7583 26.6646 11.6489 26.9515 10.5222 27.1496C10.4001 27.1697 10.275 27.1404 10.1744 27.0683C10.0738 26.9962 10.006 26.887 9.98593 26.7649C9.96583 26.6428 9.99507 26.5177 10.0672 26.4171C10.1393 26.3165 10.2485 26.2488 10.3706 26.2287C11.4496 26.0426 12.5121 25.771 13.5481 25.4164C14.6206 25.0646 16.0534 24.6843 17.615 24.8902C18.759 25.0418 19.7057 25.6452 20.7009 26.2887C21.3604 26.7428 22.0614 27.1335 22.7945 27.4556C25.1368 28.3994 28.4287 30.4443 27.8939 32.2118C27.8467 32.3982 27.761 32.5726 27.6423 32.7238C27.5236 32.8751 27.3745 32.9997 27.2046 33.0898C26.9597 33.2041 26.691 33.2581 26.421 33.2471Z" fill="#141232"/>
<path id="Vector_3" d="M27.0136 29.2943C26.913 29.2941 26.8152 29.2614 26.7347 29.201C26.6543 29.1407 26.5955 29.0559 26.5672 28.9594C26.5389 28.8628 26.5425 28.7597 26.5776 28.6655C26.6127 28.5712 26.6774 28.4908 26.7619 28.4363L27.3111 28.0874C29.2616 26.8376 31.2779 25.5449 32.7308 25.542C33.3829 25.542 33.8748 25.7107 34.1608 26.0282C34.2442 26.1198 34.2881 26.2406 34.2827 26.3644C34.2773 26.4882 34.2232 26.6048 34.1322 26.6889C34.0871 26.7303 34.0342 26.7623 33.9766 26.7832C33.919 26.804 33.8579 26.8133 33.7967 26.8103C33.7355 26.8074 33.6756 26.7924 33.6202 26.7661C33.5649 26.7399 33.5153 26.7029 33.4744 26.6574C33.2514 26.5112 32.9843 26.4474 32.7193 26.4772C31.5381 26.4772 29.5504 27.7499 27.7973 28.871L27.2481 29.2228C27.1776 29.2668 27.0967 29.2914 27.0136 29.2943Z" fill="#141232"/>
<path id="Vector_4" d="M25.7228 28.437C25.6232 28.4397 25.5254 28.4105 25.4437 28.3536C25.3619 28.2966 25.3006 28.215 25.2686 28.1207C25.2366 28.0263 25.2357 27.9242 25.266 27.8293C25.2962 27.7344 25.3561 27.6517 25.4368 27.5933C25.7972 27.3302 26.1375 27.0671 26.4636 26.8182C27.7649 25.8201 28.7945 25.0336 29.8441 24.9421C30.0962 24.9172 30.3506 24.9298 30.5991 24.9793C30.6588 24.9928 30.7153 25.0179 30.7653 25.0533C30.8153 25.0886 30.8579 25.1335 30.8905 25.1853C30.9232 25.237 30.9453 25.2948 30.9557 25.3551C30.9661 25.4155 30.9644 25.4772 30.9509 25.537C30.9374 25.5967 30.9122 25.6532 30.8769 25.7031C30.8415 25.7531 30.7967 25.7957 30.7449 25.8284C30.6931 25.861 30.6354 25.8832 30.5751 25.8935C30.5147 25.9039 30.4529 25.9023 30.3932 25.8887C30.2385 25.8603 30.0805 25.8546 29.9242 25.8716C29.1463 25.9374 28.1653 26.6895 27.0298 27.559C26.7019 27.8145 26.3549 28.0766 25.9888 28.3455C25.9119 28.403 25.8189 28.435 25.7228 28.437Z" fill="#141232"/>
<path id="Vector_5" d="M24.2993 27.6217C24.2041 27.6198 24.1117 27.5887 24.0346 27.5326C23.9576 27.4765 23.8996 27.3982 23.8684 27.3081C23.8372 27.2181 23.8344 27.1206 23.8603 27.0289C23.8863 26.9372 23.9396 26.8556 24.0133 26.7952C24.428 26.4577 24.7398 26.1631 25.0143 25.9029C25.6035 25.3509 26.0268 24.9505 26.7504 24.8447C26.9946 24.8031 27.244 24.8031 27.4882 24.8447C27.5503 24.8541 27.6097 24.8759 27.6631 24.9088C27.7165 24.9417 27.7627 24.985 27.799 25.0362C27.8352 25.0874 27.8607 25.1454 27.8741 25.2067C27.8874 25.268 27.8882 25.3313 27.8764 25.3929C27.8647 25.4545 27.8406 25.5131 27.8057 25.5652C27.7708 25.6173 27.7257 25.6618 27.6732 25.6961C27.6206 25.7303 27.5617 25.7537 27.5 25.7646C27.4382 25.7756 27.3749 25.774 27.3138 25.7599C27.1727 25.7366 27.0287 25.7366 26.8876 25.7599C26.4701 25.8228 26.2241 26.0459 25.655 26.5778C25.3833 26.8324 25.0429 27.1498 24.6025 27.5131C24.517 27.5831 24.4099 27.6215 24.2993 27.6217Z" fill="#141232"/>
<path id="Vector_6" d="M23.1211 13.778C21.1878 13.778 19.5547 11.8933 19.5547 9.66249C19.5547 7.50604 21.1534 5.75 23.1211 5.75C25.0888 5.75 26.6875 7.50604 26.6875 9.66249C26.6875 11.8933 25.0545 13.778 23.1211 13.778ZM23.1211 6.68236C21.6682 6.68236 20.487 8.02084 20.487 9.66249C20.487 11.3585 21.7169 12.8457 23.1211 12.8457C24.5254 12.8457 25.7552 11.3585 25.7552 9.66249C25.7552 8.02084 24.574 6.68236 23.1211 6.68236Z" fill="#141232"/>
<path id="Vector_7" d="M28.4669 23.5323H17.7762C17.4025 23.5316 17.0443 23.3828 16.78 23.1185C16.5158 22.8543 16.367 22.4961 16.3662 22.1223V20.8353C16.3685 19.0861 17.0644 17.4092 18.3012 16.1723C19.5381 14.9355 21.215 14.2396 22.9642 14.2373H23.2788C25.0281 14.2396 26.705 14.9355 27.9419 16.1723C29.1787 17.4092 29.8746 19.0861 29.8769 20.8353V22.1223C29.8717 22.4947 29.7215 22.8503 29.4582 23.1136C29.1949 23.3769 28.8392 23.5271 28.4669 23.5323ZM22.9642 15.1697C21.4623 15.1719 20.0225 15.7696 18.9605 16.8316C17.8985 17.8936 17.3008 19.3334 17.2986 20.8353V22.1223C17.2986 22.1849 17.3109 22.2469 17.335 22.3047C17.359 22.3625 17.3942 22.4149 17.4386 22.4591C17.483 22.5032 17.5357 22.5381 17.5936 22.5618C17.6516 22.5855 17.7136 22.5975 17.7762 22.5971H28.4669C28.5295 22.5975 28.5915 22.5855 28.6495 22.5618C28.7074 22.5381 28.7601 22.5032 28.8045 22.4591C28.8488 22.4149 28.8841 22.3625 28.9081 22.3047C28.9321 22.2469 28.9445 22.1849 28.9445 22.1223V20.8353C28.9422 19.3334 28.3446 17.8936 27.2826 16.8316C26.2205 15.7696 24.7808 15.1719 23.2788 15.1697H22.9642Z" fill="#141232"/>
<path id="Vector_8" d="M26.6674 23.5347C26.5437 23.5347 26.4251 23.4856 26.3377 23.3982C26.2503 23.3107 26.2012 23.1922 26.2012 23.0685V19.7738C26.2012 19.6502 26.2503 19.5316 26.3377 19.4442C26.4251 19.3567 26.5437 19.3076 26.6674 19.3076C26.791 19.3076 26.9096 19.3567 26.997 19.4442C27.0844 19.5316 27.1335 19.6502 27.1335 19.7738V23.0685C27.1335 23.1922 27.0844 23.3107 26.997 23.3982C26.9096 23.4856 26.791 23.5347 26.6674 23.5347Z" fill="#141232"/>
<path id="Vector_9" d="M19.5743 23.5347C19.4507 23.5347 19.3321 23.4856 19.2447 23.3982C19.1573 23.3107 19.1082 23.1922 19.1082 23.0685V19.7738C19.1082 19.6502 19.1573 19.5316 19.2447 19.4442C19.3321 19.3567 19.4507 19.3076 19.5743 19.3076C19.698 19.3076 19.8165 19.3567 19.904 19.4442C19.9914 19.5316 20.0405 19.6502 20.0405 19.7738V23.0685C20.0405 23.1922 19.9914 23.3107 19.904 23.3982C19.8165 23.4856 19.698 23.5347 19.5743 23.5347Z" fill="#141232"/>
</g>
<circle id="Ellipse 148" cx="23" cy="23" r="22.5" stroke="black"/>
</g>
</svg>
