<svg width="54" height="53" viewBox="0 0 54 53" fill="none" xmlns="http://www.w3.org/2000/svg">
<path d="M50.2352 29.9576H43.6892C43.3909 29.9576 43.1627 29.7289 43.1627 29.4297C43.1627 29.1306 43.3909 28.9018 43.6892 28.9018H50.2352C51.3584 28.9018 52.271 27.9867 52.271 26.8605V11.8852C52.271 10.759 51.3584 9.84392 50.2352 9.84392H20.7343C19.6111 9.84392 18.6985 10.759 18.6985 11.8852V25.3999C18.6985 25.6991 18.4703 25.9278 18.172 25.9278C17.8737 25.9278 17.6455 25.6991 17.6455 25.3999V11.8852C17.6455 10.1783 19.0319 8.78809 20.7343 8.78809H50.2352C51.9376 8.78809 53.324 10.1783 53.324 11.8852V26.8605C53.324 28.5674 51.9376 29.9576 50.2352 29.9576Z" fill="#7B7CE1" stroke="#7B7CE1" stroke-miterlimit="10"/>
<path d="M19.0144 15.5982C18.6985 15.5982 18.3826 15.563 18.0667 15.5103C17.821 15.4575 17.6279 15.2463 17.6279 14.9823V11.8852C17.6279 10.1783 19.0144 8.78809 20.7167 8.78809H23.7352C23.9809 8.78809 24.2091 8.96406 24.2442 9.21042C24.3144 9.54477 24.3495 9.89672 24.3495 10.2487C24.3846 13.1874 21.9802 15.5982 19.0144 15.5982ZM18.6985 14.5424C18.8038 14.5424 18.9091 14.56 19.0144 14.56C21.3836 14.56 23.314 12.6243 23.314 10.2487C23.314 10.1079 23.314 9.9847 23.2965 9.84392H20.7342C19.611 9.84392 18.6985 10.759 18.6985 11.8852V14.5424Z" fill="#7B7CE1" stroke="#7B7CE1" stroke-miterlimit="10"/>
<path d="M51.9552 15.5983C49.0068 15.5983 46.6025 13.1874 46.6025 10.2311C46.6025 9.87914 46.6376 9.52719 46.7078 9.19284C46.7605 8.94648 46.9711 8.77051 47.2168 8.77051H50.2353C51.9376 8.77051 53.3241 10.1607 53.3241 11.8676V14.9999C53.3241 15.2639 53.1486 15.4751 52.8853 15.5279C52.587 15.5807 52.2711 15.5983 51.9552 15.5983ZM47.6731 9.82635C47.6555 9.94953 47.6555 10.0903 47.6555 10.2311C47.6555 12.6067 49.586 14.5424 51.9552 14.5424C52.0605 14.5424 52.1658 14.5424 52.2711 14.5248V11.8852C52.2711 10.759 51.3585 9.84394 50.2353 9.84394H47.6731V9.82635Z" fill="#7B7CE1" stroke="#7B7CE1" stroke-miterlimit="10"/>
<path d="M50.2353 29.9576H47.2168C46.9711 29.9576 46.7429 29.7817 46.7078 29.5353C46.6376 29.2009 46.6025 28.8666 46.6025 28.4971C46.6025 25.5407 49.0068 23.1299 51.9552 23.1299C52.2711 23.1299 52.587 23.1651 52.9029 23.2179C53.1486 23.2707 53.3416 23.4818 53.3416 23.7458V26.8781C53.3241 28.5674 51.9376 29.9576 50.2353 29.9576ZM47.6731 28.9018H50.2353C51.3585 28.9018 52.2711 27.9867 52.2711 26.8605V24.2033C52.1658 24.2033 52.0605 24.1857 51.9552 24.1857C49.586 24.1857 47.6555 26.1214 47.6555 28.4971C47.6555 28.6378 47.6555 28.7786 47.6731 28.9018Z" fill="#7B7CE1" stroke="#7B7CE1" stroke-miterlimit="10"/>
<path d="M22.7349 25.9279C22.577 25.9279 22.4366 25.8575 22.3313 25.7343C21.5064 24.7488 20.2955 24.1681 19.0144 24.1681C18.9091 24.1681 18.8038 24.1681 18.6985 24.1857V25.3999C18.6985 25.6991 18.4703 25.9279 18.172 25.9279C17.8737 25.9279 17.6455 25.6991 17.6455 25.3999V23.7282C17.6455 23.4818 17.821 23.2531 18.0842 23.2179C18.3826 23.1651 18.6985 23.1299 19.0319 23.1299C20.629 23.1299 22.1207 23.8338 23.1561 25.0656C23.3492 25.2943 23.3141 25.6287 23.0859 25.8047C22.9631 25.8927 22.8402 25.9279 22.7349 25.9279Z" fill="#7B7CE1" stroke="#7B7CE1" stroke-miterlimit="10"/>
<path d="M35.4937 25.0652C32.3523 25.0652 29.8076 22.5135 29.8076 19.3636C29.8076 16.2137 32.3523 13.6621 35.4937 13.6621C38.6351 13.6621 41.1798 16.2137 41.1798 19.3636C41.1798 22.5135 38.6175 25.0652 35.4937 25.0652ZM35.4937 14.7179C32.9315 14.7179 30.8606 16.812 30.8606 19.3636C30.8606 21.9328 32.949 24.0093 35.4937 24.0093C38.056 24.0093 40.1268 21.9152 40.1268 19.3636C40.1268 16.812 38.0384 14.7179 35.4937 14.7179Z" fill="#7B7CE1" stroke="#7B7CE1" stroke-miterlimit="10"/>
<path d="M25.525 19.8918H23.4191C23.1207 19.8918 22.8926 19.663 22.8926 19.3639C22.8926 19.0647 23.1207 18.8359 23.4191 18.8359H25.525C25.8234 18.8359 26.0515 19.0647 26.0515 19.3639C26.0515 19.663 25.8058 19.8918 25.525 19.8918Z" fill="#7B7CE1" stroke="#7B7CE1" stroke-miterlimit="10"/>
<path d="M47.568 19.8918H45.462C45.1637 19.8918 44.9355 19.663 44.9355 19.3639C44.9355 19.0647 45.1637 18.8359 45.462 18.8359H47.568C47.8663 18.8359 48.0945 19.0647 48.0945 19.3639C48.0945 19.663 47.8488 19.8918 47.568 19.8918Z" fill="#7B7CE1" stroke="#7B7CE1" stroke-miterlimit="10"/>
<path d="M38.2841 52.3235H9.88874C8.57251 52.3235 7.51953 51.2501 7.51953 49.9479V31.1364C7.51953 29.8166 8.59006 28.7607 9.88874 28.7607H38.2841C39.6003 28.7607 40.6533 29.8342 40.6533 31.1364V49.9303C40.6533 51.2501 39.6003 52.3235 38.2841 52.3235ZM9.88874 29.8166C9.15165 29.8166 8.57251 30.4149 8.57251 31.1364V49.9303C8.57251 50.6694 9.1692 51.2501 9.88874 51.2501H38.2841C39.0212 51.2501 39.6003 50.6518 39.6003 49.9303V31.1364C39.6003 30.3973 39.0036 29.8166 38.2841 29.8166H9.88874Z" fill="#7B7CE1" stroke="#7B7CE1" stroke-miterlimit="10"/>
<path d="M40.1268 36.134H8.02844C7.7301 36.134 7.50195 35.9052 7.50195 35.606C7.50195 35.3069 7.7301 35.0781 8.02844 35.0781H40.1268C40.4251 35.0781 40.6533 35.3069 40.6533 35.606C40.6533 35.9052 40.4251 36.134 40.1268 36.134Z" fill="#7B7CE1" stroke="#7B7CE1" stroke-miterlimit="10"/>
<path d="M22.8055 43.173H12.3634C12.0651 43.173 11.8369 42.9443 11.8369 42.6451C11.8369 42.346 12.0651 42.1172 12.3634 42.1172H22.7879C23.0863 42.1172 23.3144 42.346 23.3144 42.6451C23.3319 42.9267 23.0863 43.173 22.8055 43.173Z" fill="#7B7CE1" stroke="#7B7CE1" stroke-miterlimit="10"/>
<path d="M17.5757 47.467H12.3634C12.0651 47.467 11.8369 47.2382 11.8369 46.9391C11.8369 46.6399 12.0651 46.4111 12.3634 46.4111H17.5757C17.874 46.4111 18.1021 46.6399 18.1021 46.9391C18.1021 47.2206 17.874 47.467 17.5757 47.467Z" fill="#7B7CE1" stroke="#7B7CE1" stroke-miterlimit="10"/>
<path d="M32.4752 48.3294C30.6851 48.3294 29.2109 46.8688 29.2109 45.0563C29.2109 43.2614 30.6676 41.7832 32.4752 41.7832C34.2828 41.7832 35.7394 43.2438 35.7394 45.0563C35.7394 46.8688 34.2652 48.3294 32.4752 48.3294ZM32.4752 42.8566C31.2642 42.8566 30.2639 43.8421 30.2639 45.0739C30.2639 46.2881 31.2467 47.2912 32.4752 47.2912C33.7037 47.2912 34.6864 46.3057 34.6864 45.0739C34.6864 43.8421 33.6861 42.8566 32.4752 42.8566Z" fill="#7B7CE1" stroke="#7B7CE1" stroke-miterlimit="10"/>
<path d="M4.02748 36.5745C3.85199 36.5745 3.65894 36.4865 3.57119 36.3105C1.57053 32.7382 0.5 28.6557 0.5 24.5379C0.5 11.2871 11.2579 0.5 24.4728 0.5C29.4394 0.5 34.1954 2.01337 38.2318 4.86413C38.4775 5.0401 38.5301 5.35685 38.3546 5.60322C38.1791 5.84958 37.8632 5.90237 37.6175 5.7264C33.7566 2.99882 29.2113 1.55584 24.4553 1.55584C11.8371 1.55584 1.55298 11.8679 1.55298 24.5379C1.55298 28.4797 2.57086 32.3863 4.48377 35.8002C4.62417 36.0465 4.53642 36.3809 4.29073 36.5217C4.20298 36.5569 4.11523 36.5745 4.02748 36.5745Z" fill="#7B7CE1" stroke="#7B7CE1" stroke-miterlimit="10"/>
</svg>
