<svg width="43" height="58" viewBox="0 0 43 58" fill="none" xmlns="http://www.w3.org/2000/svg">
<g clip-path="url(#clip0_987_2042)">
<path d="M21.3606 22.0664C17.3268 22.0664 13.6905 19.7382 11.9022 16.0089C11.1471 14.4636 10.7695 12.7946 10.7695 11.0639C10.7695 5.00637 15.5186 0.0820312 21.3606 0.0820312C27.2025 0.0820312 31.9516 5.00637 31.9516 11.0639C31.9516 12.7946 31.5741 14.4636 30.819 16.0089C29.0306 19.7588 25.3943 22.0664 21.3606 22.0664ZM21.3606 1.33887C16.1743 1.33887 11.9618 5.7069 11.9618 11.0845C11.9618 12.6298 12.2996 14.0927 12.9553 15.4732C14.5449 18.7904 17.764 20.8508 21.3606 20.8508C24.9373 20.8508 28.1563 18.7904 29.7658 15.4732C30.4216 14.0927 30.7594 12.6298 30.7594 11.0845C30.7792 5.7069 26.5468 1.33887 21.3606 1.33887Z" fill="#7B7CE1" stroke="#7B7CE1" stroke-miterlimit="10"/>
<path d="M25.3552 27.8556C25.2559 27.8556 25.1565 27.835 25.0572 27.7732C24.779 27.6084 24.6598 27.2375 24.8386 26.9285L26.0706 24.6826C26.2295 24.3942 26.5872 24.2705 26.8853 24.456C27.1635 24.6208 27.2827 24.9917 27.1038 25.3007L25.8719 27.5466C25.7725 27.7526 25.5738 27.8556 25.3552 27.8556Z" fill="#7B7CE1" stroke="#7B7CE1" stroke-miterlimit="10"/>
<path d="M17.4661 27.8556C17.2475 27.8556 17.0488 27.732 16.9494 27.5466L15.7373 25.2802C15.5783 24.9917 15.6777 24.6002 15.9758 24.4354C16.254 24.2706 16.6315 24.3736 16.7905 24.6826L18.0026 26.9491C18.1615 27.2375 18.0622 27.629 17.7641 27.7938C17.6449 27.835 17.5654 27.8556 17.4661 27.8556Z" fill="#7B7CE1" stroke="#7B7CE1" stroke-miterlimit="10"/>
<path d="M10.6905 28.2064C10.4918 28.2064 10.2931 28.1034 10.1738 27.918C9.99499 27.6295 10.0943 27.238 10.3725 27.0732C10.7699 26.8259 11.1872 26.5787 11.5846 26.3521C13.0749 25.5073 14.5851 24.848 16.0754 24.3947C16.3933 24.2917 16.7311 24.4771 16.8106 24.8068C16.91 25.1364 16.7311 25.4867 16.4132 25.5691C15.0223 26.0018 13.5916 26.6199 12.1609 27.4235C11.7833 27.6501 11.3859 27.8767 10.9885 28.124C10.909 28.1858 10.8097 28.2064 10.6905 28.2064Z" fill="#7B7CE1" stroke="#7B7CE1" stroke-miterlimit="10"/>
<path d="M32.0913 28.2063C31.9919 28.2063 31.8727 28.1857 31.7733 28.1239C29.9651 26.9701 28.1569 26.1253 26.4083 25.5896C26.0903 25.4866 25.9115 25.1569 26.0109 24.8273C26.1102 24.4976 26.4281 24.3122 26.7461 24.4152C28.6139 24.9921 30.5016 25.8781 32.4092 27.0731C32.6874 27.2585 32.7867 27.6294 32.6079 27.9179C32.4887 28.1033 32.29 28.2063 32.0913 28.2063Z" fill="#7B7CE1" stroke="#7B7CE1" stroke-miterlimit="10"/>
<path d="M42.3048 53.0754H0.695728C0.357927 53.0754 0.0996094 52.8076 0.0996094 52.4573V29.7724C0.0996094 29.4221 0.357927 29.1543 0.695728 29.1543H42.3048C42.6426 29.1543 42.9009 29.4221 42.9009 29.7724V52.4573C42.9009 52.8076 42.6227 53.0754 42.3048 53.0754ZM1.29185 51.8392H41.7087V30.3905H1.29185V51.8392Z" fill="#7B7CE1" stroke="#7B7CE1" stroke-miterlimit="10"/>
<path d="M42.3048 57.8964H0.695728C0.357927 57.8964 0.0996094 57.6285 0.0996094 57.2783C0.0996094 56.928 0.357927 56.6602 0.695728 56.6602H42.3048C42.6426 56.6602 42.9009 56.928 42.9009 57.2783C42.9009 57.6079 42.6227 57.8964 42.3048 57.8964Z" fill="#7B7CE1" stroke="#7B7CE1" stroke-miterlimit="10"/>
<path d="M21.5003 44.0507C19.9504 44.0507 18.6787 42.7321 18.6787 41.125C18.6787 39.5179 19.9504 38.1992 21.5003 38.1992C23.0502 38.1992 24.322 39.5179 24.322 41.125C24.322 42.7321 23.0502 44.0507 21.5003 44.0507ZM21.5003 39.4355C20.6062 39.4355 19.8709 40.1978 19.8709 41.125C19.8709 42.0522 20.6062 42.8145 21.5003 42.8145C22.3945 42.8145 23.1297 42.0522 23.1297 41.125C23.1297 40.1978 22.3945 39.4355 21.5003 39.4355Z" fill="#7B7CE1" stroke="#7B7CE1" stroke-miterlimit="10"/>
</g>
<defs>
<clipPath id="clip0_987_2042">
<rect width="43" height="58" fill="white"/>
</clipPath>
</defs>
</svg>
