<svg width="329" height="1003" viewBox="0 0 329 1003" fill="none" xmlns="http://www.w3.org/2000/svg">
<mask id="mask0_1886_1461" style="mask-type:alpha" maskUnits="userSpaceOnUse" x="0" y="0" width="329" height="1003">
<rect x="0.5" y="0.5" width="328" height="1002" rx="19.5" fill="white" stroke="#8566FF"/>
</mask>
<g mask="url(#mask0_1886_1461)">
<g opacity="0.6">
<path d="M280.658 831.54L281.22 831.54C281.22 831.928 281.22 832.309 281.18 832.691L280.611 832.644C280.645 832.283 280.658 831.914 280.658 831.54ZM280.491 833.748L281.046 833.829C280.993 834.21 280.919 834.592 280.832 834.96L280.283 834.833C280.363 834.478 280.437 834.11 280.511 833.748L280.491 833.748ZM279.995 835.904L280.538 836.071C280.424 836.432 280.29 836.8 280.149 837.155L279.627 836.948C279.761 836.606 279.888 836.252 279.995 835.904ZM279.179 837.958L279.687 838.206C279.52 838.547 279.339 838.875 279.145 839.217L278.657 838.936C278.844 838.614 279.018 838.286 279.172 837.958L279.179 837.958ZM278.061 839.866L278.523 840.187C278.309 840.502 278.074 840.816 277.854 841.111L277.418 840.756C277.626 840.468 277.833 840.174 278.061 839.866ZM276.669 841.586L277.077 841.974C276.816 842.255 276.542 842.523 276.261 842.784L275.879 842.363C276.147 842.115 276.414 841.854 276.669 841.586ZM275.036 843.079L275.384 843.521C275.083 843.761 274.768 843.989 274.453 844.19L274.139 843.721C274.44 843.527 274.741 843.306 275.036 843.079ZM273.195 844.31L273.469 844.799C273.141 844.986 272.8 845.16 272.452 845.328L272.211 844.812C272.546 844.661 272.874 844.493 273.195 844.31ZM271.187 845.247L271.388 845.776C271.026 845.91 270.665 846.03 270.297 846.138L270.136 845.595C270.471 845.495 270.852 845.375 271.194 845.247L271.187 845.247ZM269.065 845.87L269.179 846.419C268.811 846.499 268.429 846.566 268.048 846.619L267.974 846.057C268.342 846.01 268.711 845.943 269.072 845.87L269.065 845.87ZM266.87 846.164L266.903 846.727C266.602 846.727 266.288 846.727 266 846.727L265.786 846.727L265.786 846.164L266.027 846.164C266.308 846.184 266.589 846.184 266.877 846.164L266.87 846.164ZM216.102 846.164L217.233 846.164L217.233 846.727L216.102 846.727L216.102 846.164ZM218.357 846.164L219.488 846.164L219.488 846.727L218.357 846.727L218.357 846.164ZM220.613 846.164L221.744 846.164L221.744 846.727L220.613 846.727L220.613 846.164ZM222.875 846.164L224 846.164L224 846.727L222.875 846.727L222.875 846.164ZM225.131 846.164L226.295 846.164L226.295 846.727L225.164 846.727L225.131 846.164ZM227.386 846.164L228.518 846.164L228.518 846.727L227.386 846.727L227.386 846.164ZM229.642 846.164L230.78 846.164L230.78 846.727L229.642 846.727L229.642 846.164ZM231.904 846.164L233.029 846.164L233.029 846.727L231.904 846.727L231.904 846.164ZM234.16 846.164L235.291 846.164L235.291 846.727L234.16 846.727L234.16 846.164ZM236.416 846.164L237.547 846.164L237.547 846.727L236.416 846.727L236.416 846.164ZM238.671 846.164L239.802 846.164L239.802 846.727L238.671 846.727L238.671 846.164ZM240.934 846.164L242.058 846.164L242.058 846.727L240.934 846.727L240.934 846.164ZM243.189 846.164L244.32 846.164L244.32 846.727L243.189 846.727L243.189 846.164ZM245.445 846.164L246.576 846.164L246.576 846.727L245.445 846.727L245.445 846.164ZM247.7 846.164L248.832 846.164L248.832 846.727L247.714 846.727L247.7 846.164ZM249.963 846.164L251.06 846.164L251.06 846.727L249.936 846.727L249.963 846.164ZM252.218 846.164L253.35 846.164L253.35 846.727L252.218 846.727L252.218 846.164ZM254.474 846.164L255.612 846.164L255.612 846.727L254.481 846.727L254.474 846.164ZM256.73 846.164L257.861 846.164L257.861 846.727L256.73 846.727L256.73 846.164ZM258.992 846.164L260.116 846.164L260.116 846.727L258.992 846.727L258.992 846.164ZM261.248 846.164L262.379 846.164L262.379 846.727L261.248 846.727L261.248 846.164ZM263.503 846.164L264.634 846.164L264.634 846.727L263.503 846.727L263.503 846.164Z" fill="#8566FF"/>
<path d="M266.006 760.672C270.04 760.675 273.908 762.279 276.76 765.132C279.613 767.984 281.217 771.852 281.22 775.886L281.22 831.54L280.658 831.54L280.658 775.886C280.658 772 279.114 768.273 276.367 765.525C273.619 762.778 269.892 761.234 266.006 761.234C262.121 761.234 258.394 762.778 255.646 765.525C252.899 768.273 251.355 772 251.355 775.886L251.355 879.403L250.793 879.403L250.793 775.886C250.796 771.852 252.4 767.984 255.253 765.132C258.105 762.279 261.973 760.675 266.006 760.672Z" fill="#8566FF"/>
<path d="M302.953 837.463L303.515 837.463L303.515 838.594L302.953 838.594L302.953 837.463ZM302.953 839.725L303.515 839.725L303.515 840.85L302.953 840.85L302.953 839.725ZM302.953 841.981L303.515 841.981L303.515 843.112L302.953 843.112L302.953 841.981ZM302.953 844.236L303.515 844.236L303.515 845.374L302.953 845.374L302.953 844.236ZM302.953 846.492L303.515 846.492L303.515 847.623L302.953 847.623L302.953 846.492ZM302.953 848.754L303.515 848.754L303.515 849.879L302.953 849.879L302.953 848.754ZM302.953 851.01L303.515 851.01L303.515 852.141L302.953 852.141L302.953 851.01ZM302.953 853.265L303.515 853.265L303.515 854.397L302.953 854.397L302.953 853.265ZM302.953 855.521L303.515 855.521L303.515 856.652L302.953 856.652L302.953 855.521ZM302.953 857.783L303.515 857.783L303.515 858.908L302.953 858.908L302.953 857.783ZM302.953 860.039L303.515 860.039L303.515 861.17L302.953 861.17L302.953 860.039ZM302.953 862.295L303.515 862.295L303.515 863.446L302.953 863.446L302.953 862.295ZM302.953 864.55L303.515 864.55L303.515 865.681L302.953 865.681L302.953 864.55ZM302.953 866.813L303.515 866.813L303.515 867.937L302.953 867.937L302.953 866.813ZM302.953 869.068L303.515 869.068L303.515 870.199L302.953 870.199L302.953 869.068ZM302.953 871.324L303.515 871.324L303.515 872.455L302.953 872.455L302.953 871.324ZM302.953 873.579L303.515 873.579L303.515 874.711L302.953 874.711L302.953 873.579ZM302.953 875.842L303.515 875.842L303.515 876.966L302.953 876.966L302.953 875.842ZM302.953 878.097L303.515 878.097L303.515 879.222L302.953 879.222L302.953 878.097ZM251.375 880.266C251.375 880.641 251.375 881.009 251.435 881.384L250.873 881.424C250.839 881.049 250.819 880.668 250.806 880.286L251.375 880.266ZM302.913 880.346L303.482 880.346C303.482 880.728 303.442 881.103 303.415 881.484L302.853 881.437C302.899 881.089 302.919 880.714 302.933 880.346L302.913 880.346ZM251.522 882.488C251.562 882.863 251.616 883.231 251.676 883.599L251.12 883.686C251.06 883.311 251.007 882.937 250.96 882.555L251.522 882.488ZM302.739 882.569L303.301 882.635C303.254 883.017 303.201 883.392 303.14 883.767L302.578 883.673C302.649 883.307 302.71 882.939 302.759 882.569L302.739 882.569ZM251.87 884.69C251.944 885.058 252.031 885.42 252.118 885.781L251.569 885.922C251.475 885.554 251.395 885.179 251.315 884.811L251.87 884.69ZM302.357 884.771L302.913 884.884C302.832 885.259 302.745 885.627 302.652 885.995L302.103 885.855C302.23 885.493 302.317 885.132 302.391 884.771L302.357 884.771ZM252.452 886.872C252.559 887.234 252.673 887.588 252.794 887.936L252.265 888.124C252.138 887.762 252.024 887.401 251.91 887.04L252.452 886.872ZM301.835 886.953L302.377 887.113C302.261 887.484 302.141 887.845 302.016 888.198L301.487 888.01C301.614 887.642 301.728 887.287 301.835 886.933L301.835 886.953ZM253.189 888.961C253.322 889.309 253.47 889.63 253.624 889.985L253.108 890.219C252.954 889.871 252.807 889.55 252.66 889.168L253.189 888.961ZM301.092 889.041L301.614 889.248C301.474 889.603 301.32 889.958 301.166 890.299L300.65 890.065C300.802 889.721 300.949 889.38 301.092 889.041ZM254.099 890.989C254.266 891.323 254.44 891.658 254.628 891.979L254.132 892.254C253.945 891.919 253.771 891.584 253.597 891.243L254.099 890.989ZM300.169 891.076L300.671 891.33C300.496 891.674 300.316 892.008 300.128 892.334L299.64 892.06C299.82 891.738 299.994 891.41 300.169 891.076ZM255.19 892.936C255.384 893.251 255.585 893.566 255.792 893.873L255.33 894.188C255.116 893.873 254.909 893.559 254.708 893.231L255.19 892.936ZM299.071 893.023L299.546 893.318C299.345 893.646 299.138 893.987 298.924 894.275L298.455 893.954C298.669 893.653 298.87 893.338 299.071 893.023ZM256.415 894.784C256.636 895.078 256.863 895.373 257.084 895.66L256.649 896.015C256.408 895.721 256.174 895.42 255.946 895.118L256.415 894.784ZM297.779 894.864L298.234 895.205C298 895.507 297.766 895.808 297.525 896.102L297.09 895.741C297.351 895.453 297.585 895.165 297.806 894.864L297.779 894.864ZM257.82 896.511C258.068 896.792 258.322 897.066 258.577 897.334L258.175 897.722C257.907 897.448 257.653 897.173 257.399 896.885L257.82 896.511ZM296.367 896.591L296.782 896.966C296.534 897.253 296.273 897.528 296.005 897.802L295.604 897.407C295.905 897.14 296.146 896.865 296.394 896.591L296.367 896.591ZM259.373 898.117C259.641 898.371 259.915 898.626 260.196 898.867L259.828 899.295C259.541 899.041 259.259 898.786 258.985 898.525L259.373 898.117ZM294.807 898.191L295.236 898.599C294.954 898.86 294.673 899.114 294.386 899.362L294.017 898.933C294.285 898.693 294.566 898.445 294.834 898.191L294.807 898.191ZM261.1 899.589C261.388 899.824 261.682 900.045 261.984 900.259L261.656 900.714C261.348 900.493 261.04 900.259 260.745 900.045L261.1 899.589ZM293.161 899.656L293.509 900.098C293.208 900.332 292.906 900.56 292.598 900.767L292.27 900.312L293.161 899.656ZM262.887 900.928C263.195 901.129 263.51 901.33 263.831 901.524L263.543 902.006C263.215 901.812 262.874 901.604 262.573 901.397L262.887 900.928ZM291.34 900.928L291.648 901.397C291.333 901.604 291.012 901.812 290.684 902.006L290.396 901.517C290.711 901.356 291.026 901.156 291.34 900.928ZM264.801 902.026C265.129 902.206 265.471 902.374 265.792 902.541L265.544 903.05C265.203 902.883 264.875 902.702 264.527 902.521L264.801 902.026ZM289.426 902.073L289.694 902.568C289.359 902.749 289.024 902.923 288.683 903.09L288.435 902.581C288.77 902.447 289.098 902.267 289.426 902.099L289.426 902.073ZM266.809 903.01C267.144 903.164 267.479 903.304 267.84 903.438L267.639 903.967C267.278 903.826 266.93 903.679 266.582 903.532L266.809 903.01ZM287.425 903.05L287.652 903.605C287.304 903.759 286.949 903.9 286.595 904.034L286.394 903.512C286.742 903.364 287.083 903.224 287.425 903.077L287.425 903.05ZM268.891 903.82C269.246 903.94 269.6 904.047 269.955 904.154L269.801 904.723C269.433 904.616 269.072 904.502 268.71 904.382L268.891 903.82ZM285.343 903.82L285.524 904.355C285.162 904.475 284.801 904.589 284.433 904.69L284.279 904.148C284.634 904.101 284.995 903.987 285.343 903.873L285.343 903.82ZM271.033 904.469C271.394 904.556 271.756 904.636 272.124 904.71L272.017 905.265C271.642 905.192 271.267 905.105 270.899 905.018L271.033 904.469ZM283.188 904.489L283.315 905.038C282.947 905.125 282.579 905.205 282.204 905.279L282.097 904.723C282.472 904.65 282.84 904.576 283.188 904.489ZM273.222 904.904C273.59 904.957 273.958 905.004 274.333 905.044L274.272 905.607C273.891 905.566 273.516 905.513 273.141 905.459L273.222 904.904ZM281.006 904.904L281.093 905.466C280.718 905.52 280.343 905.566 279.962 905.607L279.901 905.044C280.276 905.013 280.644 904.969 281.006 904.911L281.006 904.904ZM275.444 905.138C275.812 905.138 276.187 905.178 276.555 905.185L276.555 905.747C276.167 905.747 275.792 905.747 275.41 905.7L275.444 905.138ZM278.79 905.138L278.824 905.707L277.686 905.754L277.686 905.185C278.047 905.185 278.422 905.172 278.79 905.145L278.79 905.138Z" fill="#8566FF"/>
<path d="M313.722 750.999C316.577 751.003 319.313 752.139 321.331 754.158C323.349 756.177 324.483 758.914 324.485 761.769L324.485 792.691L323.923 792.691L323.923 761.769C323.855 759.108 322.75 756.578 320.843 754.721C318.937 752.863 316.381 751.823 313.719 751.823C311.057 751.823 308.5 752.863 306.594 754.721C304.688 756.578 303.583 759.108 303.515 761.769L303.515 807.952C303.519 810.658 304.595 813.252 306.509 815.166C308.422 817.079 311.016 818.156 313.722 818.159L322.745 818.159C325.599 818.161 328.336 819.295 330.356 821.313C332.375 823.331 333.511 826.067 333.514 828.922L332.945 828.922C332.942 826.218 331.866 823.625 329.954 821.713C328.041 819.801 325.449 818.725 322.745 818.721L313.722 818.721C310.867 818.718 308.13 817.582 306.111 815.563C304.092 813.544 302.956 810.807 302.953 807.952L302.953 761.769C302.956 758.913 304.092 756.176 306.111 754.157C308.13 752.138 310.867 751.003 313.722 750.999Z" fill="#8566FF"/>
<path d="M280.826 830.883C279.565 830.883 278.543 831.905 278.543 833.166C278.543 834.426 279.565 835.448 280.826 835.448C282.086 835.448 283.108 834.426 283.108 833.166C283.108 831.905 282.086 830.883 280.826 830.883Z" fill="#8566FF"/>
<path d="M249.052 846.438C249.052 846.007 249.18 845.585 249.42 845.226C249.66 844.867 250 844.587 250.399 844.422C250.798 844.257 251.236 844.214 251.66 844.298C252.083 844.382 252.472 844.59 252.777 844.895C253.082 845.2 253.29 845.589 253.374 846.012C253.458 846.436 253.415 846.874 253.25 847.273C253.085 847.672 252.805 848.013 252.446 848.252C252.087 848.492 251.666 848.62 251.234 848.62C250.947 848.62 250.664 848.564 250.399 848.454C250.134 848.344 249.894 848.184 249.691 847.981C249.488 847.778 249.328 847.538 249.218 847.273C249.108 847.008 249.052 846.725 249.052 846.438Z" fill="#8566FF"/>
<path d="M214 846.438C214 846.007 214.128 845.585 214.368 845.226C214.607 844.867 214.948 844.587 215.347 844.422C215.745 844.257 216.184 844.214 216.607 844.298C217.031 844.382 217.42 844.59 217.725 844.895C218.03 845.2 218.238 845.589 218.322 846.012C218.406 846.436 218.363 846.874 218.198 847.273C218.033 847.672 217.753 848.013 217.394 848.252C217.035 848.492 216.613 848.62 216.182 848.62C215.895 848.62 215.611 848.564 215.347 848.454C215.082 848.344 214.841 848.184 214.639 847.981C214.436 847.778 214.276 847.538 214.166 847.273C214.056 847.008 214 846.725 214 846.438Z" fill="#8566FF"/>
<path d="M249.333 878.264C249.333 877.931 249.432 877.605 249.617 877.327C249.803 877.05 250.066 876.834 250.374 876.706C250.683 876.579 251.022 876.545 251.349 876.61C251.676 876.675 251.977 876.836 252.213 877.072C252.448 877.308 252.609 877.608 252.674 877.935C252.739 878.263 252.706 878.602 252.578 878.91C252.45 879.218 252.234 879.482 251.957 879.667C251.68 879.852 251.353 879.951 251.02 879.951C250.572 879.951 250.143 879.773 249.827 879.457C249.511 879.141 249.333 878.712 249.333 878.264Z" fill="#8566FF"/>
<path d="M303.187 835.482C302.256 835.482 301.501 836.237 301.501 837.169C301.501 838.1 302.256 838.855 303.187 838.855C304.119 838.855 304.874 838.1 304.874 837.169C304.874 836.237 304.119 835.482 303.187 835.482Z" fill="#8566FF"/>
<path d="M324.164 790.985C323.232 790.985 322.477 791.74 322.477 792.672C322.477 793.603 323.232 794.358 324.164 794.358C325.095 794.358 325.851 793.603 325.851 792.672C325.851 791.74 325.095 790.985 324.164 790.985Z" fill="#8566FF"/>
</g>
<g opacity="0.6">
<path d="M179.677 999.568L179.677 999.468L180.246 999.468L180.246 999.595C180.246 999.93 180.246 1000.26 180.246 1000.58L179.683 1000.58C179.69 1000.24 179.677 999.91 179.677 999.568ZM179.677 998.31L179.677 997.185L180.246 997.185L180.246 998.31L179.677 998.31ZM179.677 996.054L179.677 994.923L180.246 994.923L180.246 996.054L179.677 996.054ZM179.677 993.799L179.677 992.668L180.246 992.668L180.246 993.799L179.677 993.799ZM179.677 991.543L179.677 990.412L180.246 990.412L180.246 991.543L179.677 991.543ZM179.677 989.281L179.677 988.156L180.246 988.156L180.246 989.281L179.677 989.281ZM179.677 987.025L179.677 985.894L180.246 985.894L180.246 987.025L179.677 987.025ZM179.677 984.769L179.677 983.638L180.246 983.638L180.246 984.743L179.677 984.769ZM179.677 982.514L179.677 981.396L180.246 981.396L180.246 982.527L179.677 982.514ZM179.677 980.252L179.677 979.127L180.246 979.127L180.246 980.252L179.677 980.252ZM179.677 977.996L179.677 977.882C179.677 977.541 179.677 977.213 179.677 976.851L180.246 976.851C180.246 977.179 180.246 977.521 180.246 977.849L180.246 977.962L179.677 977.996ZM179.797 1001.72L180.359 1001.66C180.399 1002.03 180.446 1002.4 180.513 1002.76L179.951 1002.85C179.891 1002.49 179.837 1002.1 179.797 1001.72ZM179.797 975.714C179.844 975.332 179.891 974.951 179.958 974.582L180.513 974.676C180.453 975.038 180.399 975.406 180.359 975.774L179.797 975.714ZM180.179 1003.98L180.727 1003.85C180.808 1004.21 180.901 1004.57 181.009 1004.93L180.466 1005.09C180.359 1004.72 180.266 1004.35 180.179 1003.98ZM180.179 973.458C180.266 973.09 180.366 972.722 180.473 972.354L181.015 972.507C180.908 972.869 180.814 973.23 180.734 973.585L180.179 973.458ZM180.848 1006.17L181.377 1005.99C181.504 1006.34 181.638 1006.66 181.785 1007.02L181.263 1007.24C181.089 1006.89 180.948 1006.54 180.821 1006.16L180.848 1006.17ZM180.848 971.263C180.975 970.901 181.116 970.54 181.263 970.192L181.785 970.419C181.638 970.754 181.504 971.088 181.377 971.45L180.848 971.263ZM181.738 1008.28L182.24 1008.03C182.407 1008.36 182.581 1008.7 182.762 1009.01L182.274 1009.29C182.039 1008.96 181.885 1008.62 181.718 1008.28L181.738 1008.28ZM181.738 969.154C181.912 968.813 182.093 968.485 182.28 968.143L182.769 968.425C182.588 968.746 182.407 969.094 182.247 969.408L181.738 969.154ZM182.863 1010.26L183.338 1009.96C183.539 1010.26 183.753 1010.57 184.007 1010.87L183.552 1011.2C183.278 1010.89 183.057 1010.58 182.849 1010.26L182.863 1010.26ZM182.863 967.166C183.07 966.852 183.291 966.537 183.532 966.229L183.98 966.564C183.759 966.858 183.545 967.166 183.344 967.474L182.863 967.166ZM184.201 1012.1L184.636 1011.74C184.871 1012.02 185.118 1012.31 185.373 1012.57L184.964 1012.96C184.717 1012.68 184.456 1012.39 184.208 1012.1L184.201 1012.1ZM184.201 965.326C184.449 965.038 184.703 964.75 184.964 964.469L185.373 964.857C185.125 965.125 184.877 965.406 184.636 965.687L184.201 965.326ZM185.747 1013.77L186.136 1013.36C186.403 1013.62 186.678 1013.87 186.966 1014.11L186.597 1014.53C186.336 1014.29 186.055 1014.03 185.774 1013.77L185.747 1013.77ZM185.747 963.659C186.022 963.398 186.31 963.144 186.597 962.896L186.959 963.331C186.678 963.565 186.403 963.813 186.136 964.067L185.747 963.659ZM187.468 1015.25L187.809 1014.8C188.103 1015.02 188.411 1015.24 188.719 1015.46L188.405 1015.94C188.144 1015.7 187.829 1015.48 187.521 1015.25L187.468 1015.25ZM187.468 962.186C187.769 961.959 188.083 961.738 188.405 961.517L188.712 961.986C188.405 962.186 188.097 962.401 187.802 962.622L187.468 962.186ZM189.402 1016.52L189.69 1016.03C190.004 1016.21 190.359 1016.4 190.667 1016.56L190.413 1017.06C190.071 1016.87 189.757 1016.7 189.402 1016.52ZM189.402 960.921C189.728 960.734 190.062 960.553 190.406 960.379L190.66 960.881C190.332 961.049 189.991 961.229 189.683 961.41L189.402 960.921ZM191.41 1017.55L191.637 1017.03C191.972 1017.18 192.307 1017.32 192.668 1017.45L192.474 1017.97C192.186 1017.85 191.825 1017.7 191.477 1017.54L191.41 1017.55ZM191.41 959.897C191.758 959.743 192.113 959.603 192.467 959.476L192.748 959.978C192.4 960.105 192.079 960.239 191.718 960.386L191.41 959.897ZM193.545 1018.34L193.706 1017.79C194.06 1017.9 194.422 1018 194.777 1018.09L194.649 1018.64C194.368 1018.54 193.993 1018.45 193.632 1018.34L193.545 1018.34ZM193.545 959.114C193.906 959.001 194.281 958.9 194.649 958.813L194.777 959.362C194.422 959.449 194.06 959.543 193.706 959.65L193.545 959.114ZM195.754 1018.86L195.854 1018.31C196.216 1018.38 196.59 1018.43 196.952 1018.47L196.885 1019.03C196.61 1018.99 196.229 1018.93 195.854 1018.88L195.754 1018.86ZM195.754 958.586C196.129 958.519 196.51 958.465 196.892 958.418L196.952 958.98C196.584 959.027 196.216 959.081 195.854 959.141L195.754 958.586ZM198.103 1019.13L198.137 1018.56C198.505 1018.56 198.873 1018.6 199.248 1018.6L199.248 1019.16C198.893 1019.16 198.505 1019.15 198.103 1019.13ZM198.103 958.324C198.478 958.324 198.859 958.291 199.234 958.291L199.234 958.853C198.853 958.853 198.485 958.853 198.123 958.887L198.103 958.324ZM200.359 958.887L200.359 958.324C200.734 958.324 201.122 958.378 201.497 958.425L201.43 958.987C201.108 958.938 200.765 958.905 200.399 958.887L200.359 958.887ZM202.567 959.148L202.661 958.592C203.036 958.659 203.411 958.733 203.786 958.82L203.652 959.369C203.331 959.308 202.969 959.208 202.608 959.148L202.567 959.148ZM204.723 959.663L204.89 959.121C205.251 959.228 205.62 959.355 205.974 959.482L205.78 960.011C205.466 959.884 205.124 959.77 204.763 959.663L204.723 959.663ZM206.818 960.426L207.039 959.911C207.393 960.065 207.741 960.225 208.076 960.399L207.822 960.901C207.534 960.734 207.199 960.573 206.858 960.426L206.818 960.426ZM208.826 961.43L209.113 960.942C209.441 961.136 209.783 961.336 210.084 961.551L209.769 962.019C209.482 961.818 209.16 961.618 208.812 961.43L208.826 961.43ZM210.68 962.662L211.021 962.213C211.322 962.441 211.623 962.682 211.911 962.929L211.55 963.358C211.282 963.117 210.988 962.889 210.693 962.655L210.68 962.662ZM212.38 964.101L212.768 963.692C213.042 963.954 213.31 964.228 213.571 964.502L213.163 964.891C212.922 964.616 212.654 964.355 212.393 964.101L212.38 964.101ZM213.892 965.721L214.328 965.359C214.575 965.654 214.809 965.961 215.037 966.263L214.582 966.597C214.374 966.303 214.167 966.002 213.906 965.721L213.892 965.721ZM215.231 967.508L215.706 967.2C215.914 967.521 216.115 967.869 216.302 968.177L215.813 968.458C215.626 968.137 215.432 967.822 215.224 967.508L215.231 967.508ZM216.335 969.435L216.837 969.188C217.011 969.529 217.172 969.857 217.319 970.225L216.797 970.446C216.65 970.105 216.489 969.77 216.329 969.435L216.335 969.435ZM217.206 971.477L217.734 971.289C217.862 971.651 217.982 972.019 218.089 972.38L217.547 972.534L217.206 971.477ZM217.828 973.612L218.377 973.485C218.462 973.859 218.535 974.234 218.598 974.609L218.042 974.703C217.975 974.341 217.902 973.973 217.821 973.612L217.828 973.612ZM218.196 975.801L218.758 975.74C218.799 976.122 218.825 976.503 218.845 976.885L218.283 976.885C218.256 976.543 218.23 976.169 218.183 975.801L218.196 975.801ZM218.31 1015.29L218.31 1014.16L218.852 1014.16L218.852 1015.29L218.31 1015.29ZM218.31 1013.04L218.31 1011.9L218.852 1011.9L218.852 1013.04L218.31 1013.04ZM218.31 1010.78L218.31 1009.65L218.852 1009.65L218.852 1010.78L218.31 1010.78ZM218.31 1008.52L218.31 1007.39L218.852 1007.39L218.852 1008.52L218.31 1008.52ZM218.31 1006.26L218.31 1005.13L218.852 1005.13L218.852 1006.26L218.31 1006.26ZM218.31 1004.01L218.31 1002.87L218.852 1002.87L218.852 1004.01L218.31 1004.01ZM218.31 1001.75L218.31 1000.62L218.852 1000.62L218.852 1001.75L218.31 1001.75ZM218.31 999.488L218.31 998.363L218.852 998.363L218.852 999.468L218.31 999.488ZM218.31 997.232L218.31 996.101L218.852 996.101L218.852 997.232L218.31 997.232ZM218.31 994.977L218.31 993.846L218.852 993.846L218.852 994.977L218.31 994.977ZM218.31 992.721L218.31 991.57L218.852 991.57L218.852 992.701L218.31 992.721ZM218.31 990.459L218.31 989.334L218.852 989.334L218.852 990.459L218.31 990.459ZM218.31 988.203L218.31 987.072L218.852 987.072L218.852 988.203L218.31 988.203ZM218.31 985.948L218.31 984.816L218.852 984.816L218.852 985.948L218.31 985.948ZM218.31 983.692L218.31 982.561L218.852 982.561L218.852 983.692L218.31 983.692ZM218.31 981.43L218.31 980.305L218.852 980.305L218.852 981.396L218.31 981.43ZM218.31 979.174L218.31 978.049L218.852 978.049L218.852 979.181L218.31 979.174ZM218.31 1016.42L218.852 1016.42L218.852 1017.55L218.283 1017.55L218.31 1016.42ZM218.31 1018.69L218.879 1018.69L218.879 1018.88L218.317 1018.88L218.31 1018.69Z" fill="#8566FF"/>
<path d="M199.275 1019.16L199.275 1018.6L266.809 1018.6C274.943 1018.6 282.744 1015.37 288.495 1009.61C294.247 1003.86 297.478 996.063 297.478 987.929C297.478 979.795 294.247 971.994 288.495 966.243C282.744 960.492 274.943 957.26 266.809 957.26L266.809 956.698C275.092 956.698 283.036 959.989 288.893 965.845C294.75 971.702 298.04 979.646 298.04 987.929C298.04 996.212 294.75 1004.16 288.893 1010.01C283.036 1015.87 275.092 1019.16 266.809 1019.16L199.275 1019.16Z" fill="#8566FF"/>
<path d="M322.504 923.42L322.504 922.857L321.942 922.857L321.942 923.42L322.504 923.42Z" fill="#8566FF"/>
<path d="M231.663 939.898C231.663 939.51 231.663 939.129 231.717 938.754L232.279 938.794C232.279 939.155 232.232 939.53 232.232 939.905L231.663 939.898ZM231.663 941.05L232.232 941.05C232.232 941.418 232.286 941.786 232.326 942.154L231.77 942.221C231.75 941.806 231.717 941.418 231.69 941.043L231.663 941.05ZM231.81 937.609C231.864 937.235 231.931 936.853 232.011 936.478L232.567 936.592C232.487 936.96 232.42 937.328 232.373 937.69L231.81 937.609ZM231.944 943.325L232.5 943.218C232.567 943.58 232.654 943.941 232.748 944.303L232.199 944.443C232.132 944.068 232.045 943.693 231.971 943.319L231.944 943.325ZM232.292 935.36C232.393 934.992 232.513 934.624 232.64 934.269L233.169 934.457C233.049 934.805 232.935 935.126 232.835 935.514L232.292 935.36ZM232.527 945.548L233.062 945.367C233.183 945.715 233.316 946.07 233.457 946.411L232.935 946.625C232.814 946.264 232.681 945.922 232.553 945.541L232.527 945.548ZM233.062 933.198C233.216 932.85 233.383 932.529 233.557 932.168L234.059 932.422C233.885 932.752 233.725 933.087 233.577 933.426L233.062 933.198ZM233.41 947.676L233.912 947.422C234.073 947.75 234.254 948.091 234.441 948.406L233.952 948.687C233.785 948.345 233.577 948.004 233.437 947.669L233.41 947.676ZM234.12 931.164C234.32 930.836 234.528 930.494 234.742 930.2L235.211 930.528C234.996 930.822 234.796 931.137 234.602 931.458L234.12 931.164ZM234.561 949.664L235.03 949.349C235.237 949.65 235.452 949.958 235.699 950.246L235.257 950.594C235.03 950.286 234.802 949.972 234.588 949.657L234.561 949.664ZM235.438 929.283C235.672 928.988 235.927 928.694 236.188 928.413L236.603 928.794C236.349 929.069 236.108 929.35 235.873 929.638L235.438 929.283ZM235.967 951.478L236.389 951.103C236.636 951.377 236.891 951.652 237.152 951.906L236.757 952.314C236.516 952.04 236.255 951.759 235.994 951.471L235.967 951.478ZM236.991 927.596C237.265 927.335 237.553 927.074 237.848 926.833L238.209 927.268C237.928 927.503 237.647 927.75 237.379 928.005L236.991 927.596ZM237.593 953.084L237.962 952.656C238.243 952.897 238.537 953.131 238.832 953.325L238.49 953.78C238.216 953.579 237.921 953.332 237.593 953.084ZM238.751 926.117C239.059 925.896 239.381 925.675 239.702 925.448L240.003 925.93C239.695 926.124 239.381 926.331 239.079 926.552L238.751 926.117ZM239.421 954.463L239.729 953.994C240.036 954.195 240.358 954.389 240.679 954.57L240.405 955.065C240.097 954.873 239.782 954.673 239.461 954.463L239.421 954.463ZM240.692 924.899C241.027 924.718 241.362 924.544 241.723 924.39L241.957 924.899C241.616 925.053 241.288 925.22 240.96 925.394L240.692 924.899ZM241.422 955.594L241.663 955.079C241.998 955.239 242.332 955.393 242.68 955.527L242.473 956.049C242.158 955.909 241.803 955.755 241.462 955.594L241.422 955.594ZM242.761 923.948C243.115 923.815 243.483 923.687 243.845 923.58L244.012 924.122C243.658 924.223 243.303 924.343 242.955 924.477L242.761 923.948ZM243.617 956.437L243.785 955.902C244.139 956.016 244.501 956.116 244.856 956.21L244.722 956.752C244.334 956.665 243.959 956.558 243.617 956.437ZM245.023 923.286C245.398 923.199 245.779 923.125 246.154 923.072L246.241 923.627C245.88 923.681 245.512 923.754 245.15 923.835L245.023 923.286ZM245.826 956.993L245.92 956.437C246.281 956.504 246.656 956.558 247.024 956.598L246.957 957.16C246.576 957.113 246.194 957.06 245.826 956.993ZM247.292 922.924C247.673 922.924 248.062 922.871 248.443 922.857L248.443 923.426C248.075 923.426 247.7 923.426 247.332 923.487L247.292 922.924ZM248.109 957.247L248.109 956.685C248.356 956.685 248.604 956.685 248.851 956.685L249.226 956.685L249.226 957.247L248.851 957.247C248.611 957.261 248.356 957.261 248.109 957.247ZM249.581 923.42L249.581 922.857L250.706 922.857L250.706 923.42L249.581 923.42ZM250.378 957.261L250.378 956.698L251.509 956.698L251.509 957.261L250.378 957.261ZM251.837 923.42L251.837 922.857L252.988 922.857L252.988 923.42L251.837 923.42ZM252.64 957.261L252.64 956.698L253.771 956.698L253.771 957.261L252.64 957.261ZM254.099 923.42L254.099 922.857L255.23 922.857L255.23 923.42L254.099 923.42ZM254.902 957.261L254.902 956.698L256.033 956.698L256.033 957.261L254.902 957.261ZM256.335 923.42L256.335 922.857L257.466 922.857L257.466 923.42L256.335 923.42ZM257.138 957.261L257.138 956.698L258.269 956.698L258.269 957.261L257.138 957.261ZM258.597 923.42L258.597 922.857L259.755 922.857L259.755 923.42L258.597 923.42ZM259.4 957.261L259.4 956.698L260.551 956.698L260.551 957.261L259.4 957.261ZM260.886 923.42L260.886 922.857L262.017 922.857L262.017 923.42L260.886 923.42ZM261.689 957.261L261.689 956.698L262.814 956.698L262.814 957.261L261.689 957.261ZM263.148 923.42L263.148 922.857L264.279 922.857L264.279 923.42L263.148 923.42ZM263.945 957.261L263.945 956.698L265.076 956.698L265.076 957.261L263.945 957.261ZM265.404 923.42L265.404 922.857L266.535 922.857L266.535 923.42L265.404 923.42ZM267.666 923.42L267.666 922.857L268.797 922.857L268.797 923.42L267.666 923.42ZM269.929 923.42L269.929 922.857L271.06 922.857L271.06 923.42L269.929 923.42ZM272.191 923.42L272.191 922.857L273.322 922.857L273.322 923.42L272.191 923.42ZM274.453 923.42L274.453 922.857L275.584 922.857L275.584 923.42L274.453 923.42ZM276.715 923.42L276.715 922.857L277.847 922.857L277.847 923.42L276.715 923.42ZM278.978 923.42L278.978 922.857L280.102 922.857L280.102 923.42L278.978 923.42ZM281.233 923.42L281.233 922.857L282.365 922.857L282.365 923.42L281.233 923.42ZM283.496 923.42L283.496 922.857L284.627 922.857L284.627 923.42L283.496 923.42ZM285.758 923.42L285.758 922.857L286.889 922.857L286.889 923.42L285.758 923.42ZM288.02 923.42L288.02 922.857L289.131 922.857L289.131 923.42L288.02 923.42ZM290.283 923.42L290.283 922.857L291.414 922.857L291.414 923.42L290.283 923.42ZM292.545 923.42L292.545 922.857L293.676 922.857L293.676 923.42L292.545 923.42ZM294.801 923.42L294.801 922.857L295.932 922.857L295.932 923.42L294.801 923.42ZM297.063 923.42L297.063 922.857L298.194 922.857L298.194 923.42L297.063 923.42ZM299.325 923.42L299.325 922.857L300.456 922.857L300.456 923.42L299.325 923.42ZM301.588 923.42L301.588 922.857L302.719 922.857L302.719 923.42L301.588 923.42ZM303.85 923.42L303.85 922.857L304.981 922.857L304.981 923.42L303.85 923.42ZM306.112 923.42L306.112 922.857L307.243 922.857L307.243 923.42L306.112 923.42ZM308.368 923.42L308.368 922.857L309.499 922.857L309.499 923.42L308.368 923.42ZM310.63 923.42L310.63 922.857L311.761 922.857L311.761 923.42L310.63 923.42ZM312.892 923.42L312.892 922.857L314.024 922.857L314.024 923.42L312.892 923.42ZM315.155 923.42L315.155 922.857L316.286 922.857L316.286 923.42L315.155 923.42ZM317.417 923.42L317.417 922.857L318.548 922.857L318.548 923.42L317.417 923.42ZM319.679 923.42L319.679 922.857L320.811 922.857L320.811 923.42L319.679 923.42Z" fill="#8566FF"/>
<path d="M266.81 957.26L266.81 956.698L266.248 956.698L266.248 957.26L266.81 957.26Z" fill="#8566FF"/>
<path d="M308.609 971.477L308.609 950.447C308.614 946.51 310.181 942.735 312.965 939.951C315.749 937.166 319.524 935.6 323.461 935.595L323.461 936.164C319.673 936.167 316.042 937.673 313.363 940.351C310.684 943.028 309.176 946.659 309.171 950.447L309.171 971.477C309.176 975.265 310.684 978.897 313.362 981.576C316.041 984.255 319.673 985.762 323.461 985.767C327.249 985.762 330.881 984.255 333.56 981.576C336.239 978.897 337.746 975.265 337.751 971.477L337.751 938.68C337.749 934.636 336.143 930.757 333.284 927.896C330.426 925.035 326.549 923.425 322.504 923.42L322.504 922.857C326.695 922.863 330.713 924.53 333.677 927.494C336.641 930.457 338.308 934.476 338.313 938.667L338.313 971.464C338.312 975.404 336.747 979.182 333.962 981.969C331.178 984.756 327.401 986.324 323.461 986.329C319.524 986.324 315.749 984.758 312.965 981.973C310.181 979.189 308.614 975.415 308.609 971.477Z" fill="#8566FF"/>
<path d="M325.141 936.164L325.141 935.595L326.252 935.595L326.252 936.164L325.141 936.164ZM327.363 936.164L327.363 935.595L328.481 935.595L328.481 936.164L327.363 936.164ZM329.592 936.164L329.592 935.595L330.703 935.595L330.703 936.164L329.592 936.164ZM331.821 936.164L331.821 935.595L332.932 935.595L332.932 936.164L331.821 936.164ZM334.05 936.164L334.05 935.595L335.161 935.595L335.161 936.164L334.05 936.164ZM336.272 936.164L336.272 935.595L337.39 935.595L337.39 936.164L336.272 936.164ZM338.501 936.164L338.501 935.595L339.612 935.595L339.612 936.164L338.501 936.164ZM340.73 936.164L340.73 935.595L341.841 935.595L341.841 936.164L340.73 936.164ZM342.952 936.164L342.952 935.595L344.07 935.595L344.07 936.164L342.952 936.164ZM345.181 936.164L345.181 935.595L346.292 935.595L346.292 936.164L345.181 936.164ZM347.409 936.164L347.409 935.595L348.521 935.595L348.521 936.164L347.409 936.164ZM349.638 936.164L349.638 935.595L350.749 935.595L350.749 936.164L349.638 936.164ZM351.86 936.164L351.86 935.595L352.978 935.595L352.978 936.164L351.86 936.164ZM354.089 936.164L354.089 935.595L355.2 935.595L355.2 936.164L354.089 936.164ZM356.318 936.164L356.318 935.595L357.402 935.595L357.402 936.164L356.318 936.164ZM358.54 936.164L358.54 935.595L359.658 935.595L359.658 936.164L358.54 936.164ZM360.769 936.164L360.769 935.595L361.88 935.595L361.88 936.164L360.769 936.164ZM362.998 936.164L362.998 935.595L364.096 935.595L364.096 936.164L362.998 936.164Z" fill="#8566FF"/>
<path d="M324.023 936.157L324.023 935.595L323.461 935.595L323.461 936.157L324.023 936.157Z" fill="#8566FF"/>
<path d="M265.705 959.161C265.274 959.161 264.852 959.033 264.493 958.793C264.134 958.553 263.854 958.213 263.689 957.814C263.524 957.415 263.481 956.976 263.565 956.553C263.649 956.13 263.857 955.741 264.162 955.436C264.467 955.131 264.856 954.923 265.28 954.839C265.703 954.755 266.142 954.798 266.54 954.963C266.939 955.128 267.28 955.408 267.519 955.767C267.759 956.125 267.887 956.547 267.887 956.979C267.887 957.558 267.657 958.113 267.248 958.522C266.839 958.931 266.284 959.161 265.705 959.161Z" fill="#8566FF"/>
<path d="M321.479 935.876C321.479 936.696 322.145 937.361 322.965 937.361C323.786 937.361 324.451 936.696 324.451 935.876C324.451 935.055 323.786 934.39 322.965 934.39C322.145 934.39 321.479 935.055 321.479 935.876Z" fill="#8566FF"/>
<path d="M321.366 923.138C321.366 923.766 321.876 924.276 322.504 924.276C323.133 924.276 323.642 923.766 323.642 923.138C323.642 922.509 323.133 922 322.504 922C321.876 922 321.366 922.509 321.366 923.138Z" fill="#8566FF"/>
</g>
<g style="mix-blend-mode:hard-light" opacity="0.2">
<path fill-rule="evenodd" clip-rule="evenodd" d="M266.304 843V885.55C276.4 860.25 299.957 843 328 843V981C299.957 981 276.4 963.75 266.304 938.45V981C229.287 981 199 949.95 199 912C199 874.05 229.287 843 266.304 843Z" fill="#F85459"/>
</g>
</g>
</svg>
