<svg width="76" height="76" viewBox="0 0 76 76" fill="none" xmlns="http://www.w3.org/2000/svg">
<circle cx="38" cy="38" r="38" fill="#F0F0F0"/>
<path fill-rule="evenodd" clip-rule="evenodd" d="M29.413 30.3143C30.4246 29.3026 31.7967 28.7344 33.2274 28.7344H42.2182C43.6489 28.7344 45.021 29.3026 46.0326 30.3143C47.0443 31.3259 47.6127 32.698 47.6127 34.1287V44.0187H27.8329V34.1287C27.8329 32.698 28.4013 31.3259 29.413 30.3143ZM33.2274 30.5325C32.2736 30.5325 31.3589 30.9114 30.6845 31.5858C30.01 32.2603 29.6311 33.175 29.6311 34.1287V42.2205H45.8146V34.1287C45.8146 33.175 45.4356 32.2603 44.7611 31.5858C44.0867 30.9114 43.172 30.5325 42.2182 30.5325H33.2274Z" fill="#8566FF"/>
<path fill-rule="evenodd" clip-rule="evenodd" d="M37.7341 14.7982C35.1272 14.7982 33.0139 16.9115 33.0139 19.5184C33.0139 22.1252 35.1272 24.2385 37.7341 24.2385C40.3409 24.2385 42.4542 22.1252 42.4542 19.5184C42.4542 16.9115 40.3409 14.7982 37.7341 14.7982ZM31.2157 19.5184C31.2157 15.9184 34.1341 13 37.7341 13C41.334 13 44.2524 15.9184 44.2524 19.5184C44.2524 23.1183 41.334 26.0367 37.7341 26.0367C34.1341 26.0367 31.2157 23.1183 31.2157 19.5184Z" fill="#8566FF"/>
<path fill-rule="evenodd" clip-rule="evenodd" d="M56.8284 35.0277H48.9614V33.2295H56.8284C58.2592 33.2295 59.6312 33.7979 60.6428 34.8096C61.6545 35.8212 62.2229 37.1932 62.2229 38.624V43.1194H60.4247V38.624C60.4247 37.6702 60.0458 36.7555 59.3713 36.0811C58.6969 35.4066 57.7822 35.0277 56.8284 35.0277Z" fill="#8566FF"/>
<path fill-rule="evenodd" clip-rule="evenodd" d="M52.3442 19.2933C49.7373 19.2933 47.624 21.4066 47.624 24.0135C47.624 26.6204 49.7373 28.7337 52.3442 28.7337C54.951 28.7337 57.0643 26.6204 57.0643 24.0135C57.0643 21.4066 54.951 19.2933 52.3442 19.2933ZM45.8258 24.0135C45.8258 20.4135 48.7442 17.4951 52.3442 17.4951C55.9441 17.4951 58.8625 20.4135 58.8625 24.0135C58.8625 27.6135 55.9441 30.5318 52.3442 30.5318C48.7442 30.5318 45.8258 27.6135 45.8258 24.0135Z" fill="#8566FF"/>
<path fill-rule="evenodd" clip-rule="evenodd" d="M14.803 34.8096C15.8146 33.7979 17.1866 33.2295 18.6174 33.2295H26.4844V35.0277H18.6174C17.6636 35.0277 16.749 35.4066 16.0745 36.0811C15.4 36.7555 15.0211 37.6702 15.0211 38.624V43.1194H13.2229V38.624C13.2229 37.1932 13.7913 35.8212 14.803 34.8096Z" fill="#8566FF"/>
<path fill-rule="evenodd" clip-rule="evenodd" d="M23.1239 19.2933C20.5171 19.2933 18.4038 21.4066 18.4038 24.0135C18.4038 26.6204 20.5171 28.7337 23.1239 28.7337C25.7308 28.7337 27.8441 26.6204 27.8441 24.0135C27.8441 21.4066 25.7308 19.2933 23.1239 19.2933ZM16.6056 24.0135C16.6056 20.4135 19.524 17.4951 23.1239 17.4951C26.7239 17.4951 29.6423 20.4135 29.6423 24.0135C29.6423 27.6135 26.7239 30.5318 23.1239 30.5318C19.524 30.5318 16.6056 27.6135 16.6056 24.0135Z" fill="#8566FF"/>
<path fill-rule="evenodd" clip-rule="evenodd" d="M25.5964 51.2109H49.8717V61.9999H25.5964V51.2109ZM27.3946 53.0091V60.2018H48.0735V53.0091H27.3946Z" fill="#8566FF"/>
<path fill-rule="evenodd" clip-rule="evenodd" d="M13.0093 55.7061H26.4955V57.5042H13.0093V55.7061Z" fill="#8566FF"/>
<path fill-rule="evenodd" clip-rule="evenodd" d="M48.9727 55.7061H62.4589V57.5042H48.9727V55.7061Z" fill="#8566FF"/>
<path fill-rule="evenodd" clip-rule="evenodd" d="M38.6331 43.1191V52.11H36.835V43.1191H38.6331Z" fill="#8566FF"/>
</svg>
