<svg width="44" height="44" viewBox="0 0 44 44" fill="none" xmlns="http://www.w3.org/2000/svg">
<g id="Group 927">
<g id="Group 869">
<path id="Vector" d="M27.3621 31.1725H14.4673C14.0185 31.1719 13.5883 30.9932 13.2712 30.6757C12.954 30.3581 12.7759 29.9277 12.7759 29.4789V13.3469C12.7757 13.2757 12.7896 13.2053 12.8169 13.1396C12.8441 13.0739 12.8841 13.0143 12.9346 12.9642L16.5741 9.32473C16.6242 9.27426 16.6838 9.23424 16.7495 9.20699C16.8152 9.17975 16.8856 9.16582 16.9567 9.16602H28.123C28.5718 9.16602 29.0023 9.34416 29.3198 9.66131C29.6374 9.97846 29.8161 10.4087 29.8167 10.8575V25.2067C29.8167 25.3007 29.7793 25.3908 29.7129 25.4573C29.6464 25.5237 29.5563 25.5611 29.4623 25.5611C29.3683 25.5611 29.2782 25.5237 29.2117 25.4573C29.1452 25.3908 29.1079 25.3007 29.1079 25.2067V10.8575C29.1073 10.5967 29.0033 10.3467 28.8187 10.1625C28.634 9.97825 28.3838 9.87478 28.123 9.87478H17.035L13.4846 13.4164V29.4745C13.4846 29.7353 13.5881 29.9855 13.7723 30.1702C13.9566 30.3548 14.2065 30.4588 14.4673 30.4594H27.3621C27.4561 30.4594 27.5462 30.4967 27.6127 30.5632C27.6791 30.6296 27.7165 30.7198 27.7165 30.8138C27.7165 30.9078 27.6791 30.9979 27.6127 31.0644C27.5462 31.1308 27.4561 31.1681 27.3621 31.1681V31.1725Z" fill="#141232"/>
<path id="Vector_2" d="M16.0545 13.623H13.1303C13.0363 13.623 12.9461 13.5856 12.8797 13.5192C12.8132 13.4527 12.7759 13.3626 12.7759 13.2686C12.7759 13.1746 12.8132 13.0845 12.8797 13.018C12.9461 12.9515 13.0363 12.9142 13.1303 12.9142H16.0545C16.1807 12.9142 16.3018 12.864 16.3911 12.7747C16.4804 12.6855 16.5306 12.5644 16.5306 12.4381V9.5204C16.5306 9.42641 16.5679 9.33627 16.6344 9.26981C16.7008 9.20335 16.791 9.16602 16.885 9.16602C16.979 9.16602 17.0691 9.20335 17.1356 9.26981C17.202 9.33627 17.2394 9.42641 17.2394 9.5204V12.4381C17.2394 12.7523 17.1145 13.0537 16.8923 13.2759C16.6701 13.4981 16.3687 13.623 16.0545 13.623Z" fill="#141232"/>
<path id="Vector_3" d="M21.3142 27.4047C19.9438 27.4047 18.6041 26.9984 17.4647 26.237C16.3252 25.4756 15.4371 24.3935 14.9127 23.1274C14.3883 21.8613 14.251 20.4681 14.5184 19.124C14.7857 17.78 15.4457 16.5453 16.4147 15.5763C17.3837 14.6073 18.6183 13.9474 19.9624 13.68C21.3065 13.4127 22.6997 13.5499 23.9658 14.0743C25.2319 14.5987 26.314 15.4868 27.0754 16.6263C27.8367 17.7658 28.2431 19.1054 28.2431 20.4758C28.2414 22.3129 27.5108 24.0743 26.2118 25.3734C24.9127 26.6724 23.1513 27.403 21.3142 27.4047ZM21.3142 14.2556C20.084 14.2556 18.8813 14.6204 17.8584 15.3039C16.8355 15.9874 16.0383 16.9589 15.5675 18.0955C15.0967 19.232 14.9735 20.4827 15.2135 21.6893C15.4535 22.8959 16.046 24.0042 16.9159 24.8741C17.7858 25.744 18.8941 26.3365 20.1007 26.5765C21.3073 26.8165 22.558 26.6933 23.6945 26.2225C24.8311 25.7517 25.8026 24.9544 26.4861 23.9315C27.1695 22.9086 27.5344 21.706 27.5344 20.4758C27.5332 18.8265 26.8775 17.245 25.7112 16.0788C24.545 14.9125 22.9635 14.2568 21.3142 14.2556Z" fill="#141232"/>
<path id="Vector_4" d="M31.5157 32.5615C31.0142 32.5611 30.5333 32.3617 30.1786 32.0071L27.7871 29.6156C27.2043 29.0327 26.8463 28.2627 26.7761 27.4415L26.7522 27.1871C26.7377 27.016 26.7613 26.8439 26.8212 26.6831C26.8811 26.5222 26.9758 26.3766 27.0986 26.2567C27.2215 26.1367 27.3693 26.0455 27.5316 25.9895C27.6938 25.9335 27.8665 25.914 28.0371 25.9326H28.1132C29.088 26.0393 29.9975 26.4749 30.6917 27.1675L32.8028 29.2786C33.1436 29.6126 33.3493 30.0604 33.3806 30.5365C33.4119 31.0127 33.2665 31.4836 32.9724 31.8593C32.8046 32.0632 32.5962 32.2298 32.3603 32.3485C32.1244 32.4672 31.8664 32.5353 31.6027 32.5485L31.5157 32.5615ZM27.9132 26.6479C27.7946 26.6474 27.6807 26.6935 27.5958 26.7762C27.5483 26.8233 27.5116 26.8802 27.4884 26.9429C27.4651 27.0056 27.4557 27.0726 27.461 27.1393L27.4827 27.3936C27.538 28.0504 27.8237 28.6664 28.2893 29.1329L30.6808 31.5245C30.7975 31.6393 30.9367 31.7287 31.0897 31.7869C31.2427 31.8451 31.4061 31.871 31.5696 31.8628C31.7331 31.8546 31.8931 31.8126 32.0395 31.7394C32.1859 31.6662 32.3155 31.5634 32.4201 31.4375C32.6028 31.198 32.6909 30.8996 32.6677 30.5992C32.6444 30.2989 32.5114 30.0176 32.294 29.8091L30.183 27.698C29.6035 27.1183 28.8433 26.7539 28.0284 26.6653H27.9523L27.9132 26.6479Z" fill="#141232"/>
<path id="Vector_5" d="M27.352 26.865C27.3054 26.8653 27.2593 26.8561 27.2164 26.8382C27.1734 26.8203 27.1345 26.7939 27.1019 26.7607L25.7149 25.3758C25.6819 25.3428 25.6557 25.3036 25.6379 25.2606C25.62 25.2175 25.6108 25.1713 25.6108 25.1247C25.6108 25.078 25.62 25.0318 25.6379 24.9888C25.6557 24.9457 25.6819 24.9065 25.7149 24.8735C25.7478 24.8406 25.787 24.8144 25.8301 24.7966C25.8731 24.7787 25.9193 24.7695 25.966 24.7695C26.0126 24.7695 26.0588 24.7787 26.1019 24.7966C26.1449 24.8144 26.1841 24.8406 26.2171 24.8735L27.602 26.2606C27.6513 26.3102 27.6849 26.3732 27.6985 26.4418C27.7121 26.5104 27.705 26.5815 27.6783 26.6461C27.6516 26.7107 27.6063 26.766 27.5483 26.805C27.4902 26.8439 27.4219 26.8648 27.352 26.865Z" fill="#141232"/>
<path id="Vector_6" d="M31.7006 30.7475C31.6541 30.7476 31.608 30.7384 31.5651 30.7205C31.5222 30.7025 31.4832 30.6763 31.4506 30.6431L30.3027 29.4952C30.269 29.4625 30.2422 29.4235 30.2238 29.3803C30.2054 29.3372 30.1957 29.2909 30.1953 29.244C30.1949 29.1971 30.2039 29.1506 30.2216 29.1072C30.2393 29.0638 30.2655 29.0243 30.2986 28.9911C30.3317 28.9578 30.371 28.9315 30.4143 28.9136C30.4577 28.8957 30.5041 28.8865 30.551 28.8867C30.5979 28.8869 30.6443 28.8964 30.6875 28.9146C30.7307 28.9329 30.7699 28.9595 30.8027 28.993L31.9506 30.1409C31.9837 30.1738 32.0099 30.213 32.0278 30.256C32.0458 30.2991 32.055 30.3453 32.055 30.392C32.055 30.4387 32.0458 30.4849 32.0278 30.528C32.0099 30.5711 31.9837 30.6102 31.9506 30.6431C31.918 30.6763 31.8791 30.7025 31.8361 30.7205C31.7932 30.7384 31.7471 30.7476 31.7006 30.7475Z" fill="#141232"/>
<path id="Vector_7" d="M19.7748 16.2803C19.6902 16.2811 19.608 16.2516 19.5432 16.1971C19.4784 16.1426 19.4353 16.0667 19.4216 15.9831C19.408 15.8996 19.4247 15.8139 19.4687 15.7416C19.5128 15.6693 19.5813 15.6151 19.6618 15.5889C20.1951 15.4102 20.7538 15.3192 21.3163 15.3193C21.4103 15.3193 21.5004 15.3567 21.5669 15.4231C21.6333 15.4896 21.6707 15.5797 21.6707 15.6737C21.6707 15.7677 21.6333 15.8578 21.5669 15.9243C21.5004 15.9908 21.4103 16.0281 21.3163 16.0281C20.8314 16.0277 20.3497 16.1063 19.8901 16.2607C19.853 16.2735 19.814 16.2802 19.7748 16.2803Z" fill="#141232"/>
<path id="Vector_8" d="M18.3487 17.0559C18.2753 17.0547 18.204 17.031 18.1446 16.9879C18.0852 16.9447 18.0406 16.8843 18.0168 16.8149C17.993 16.7454 17.9912 16.6703 18.0117 16.5998C18.0322 16.5293 18.074 16.4669 18.1313 16.421C18.2182 16.3536 18.3052 16.2906 18.3943 16.2275C18.4719 16.1742 18.5674 16.1538 18.66 16.171C18.7526 16.1881 18.8345 16.2413 18.8879 16.3188C18.9412 16.3964 18.9615 16.492 18.9444 16.5845C18.9273 16.6771 18.8741 16.759 18.7965 16.8124C18.7204 16.8645 18.6444 16.9211 18.5791 16.9776C18.5142 17.0306 18.4324 17.0584 18.3487 17.0559Z" fill="#141232"/>
<path id="Vector_9" d="M17.5248 20.1401C17.4308 20.1401 17.3407 20.1028 17.2742 20.0363C17.2077 19.9699 17.1704 19.8797 17.1704 19.7858V18.5683C17.1704 18.4743 17.2077 18.3841 17.2742 18.3177C17.3407 18.2512 17.4308 18.2139 17.5248 18.2139C17.6188 18.2139 17.7089 18.2512 17.7754 18.3177C17.8418 18.3841 17.8792 18.4743 17.8792 18.5683V19.7858C17.8792 19.8797 17.8418 19.9699 17.7754 20.0363C17.7089 20.1028 17.6188 20.1401 17.5248 20.1401Z" fill="#141232"/>
<path id="Vector_10" d="M19.4164 20.1398C19.3224 20.1398 19.2323 20.1024 19.1658 20.036C19.0993 19.9695 19.062 19.8794 19.062 19.7854V17.9374C19.062 17.8434 19.0993 17.7533 19.1658 17.6868C19.2323 17.6203 19.3224 17.583 19.4164 17.583C19.5104 17.583 19.6005 17.6203 19.667 17.6868C19.7334 17.7533 19.7708 17.8434 19.7708 17.9374V19.7854C19.7708 19.8794 19.7334 19.9695 19.667 20.036C19.6005 20.1024 19.5104 20.1398 19.4164 20.1398Z" fill="#141232"/>
<path id="Vector_11" d="M21.319 20.1396C21.2722 20.1399 21.2259 20.1309 21.1827 20.1132C21.1394 20.0955 21.1001 20.0695 21.067 20.0365C21.0338 20.0036 21.0075 19.9644 20.9896 19.9213C20.9716 19.8782 20.9624 19.8319 20.9624 19.7852V18.1481C20.9694 18.0586 21.0099 17.9751 21.0758 17.9141C21.1417 17.8532 21.2281 17.8193 21.3179 17.8193C21.4076 17.8193 21.4941 17.8532 21.56 17.9141C21.6259 17.9751 21.6663 18.0586 21.6733 18.1481V19.7852C21.6733 19.8792 21.636 19.9693 21.5695 20.0358C21.5031 20.1022 21.4129 20.1396 21.319 20.1396Z" fill="#141232"/>
<path id="Vector_12" d="M23.2191 20.1394C23.1251 20.1394 23.035 20.102 22.9685 20.0356C22.9021 19.9691 22.8647 19.879 22.8647 19.785V17.0956C22.8647 17.0016 22.9021 16.9115 22.9685 16.845C23.035 16.7785 23.1251 16.7412 23.2191 16.7412C23.3131 16.7412 23.4033 16.7785 23.4697 16.845C23.5362 16.9115 23.5735 17.0016 23.5735 17.0956V19.785C23.5735 19.879 23.5362 19.9691 23.4697 20.0356C23.4033 20.102 23.3131 20.1394 23.2191 20.1394Z" fill="#141232"/>
<path id="Vector_13" d="M25.1176 20.1379C25.0236 20.1379 24.9334 20.1006 24.867 20.0341C24.8005 19.9677 24.7632 19.8775 24.7632 19.7835V18.3573C24.7632 18.2633 24.8005 18.1732 24.867 18.1067C24.9334 18.0403 25.0236 18.0029 25.1176 18.0029C25.2116 18.0029 25.3017 18.0403 25.3682 18.1067C25.4346 18.1732 25.4719 18.2633 25.4719 18.3573V19.7835C25.4719 19.8775 25.4346 19.9677 25.3682 20.0341C25.3017 20.1006 25.2116 20.1379 25.1176 20.1379Z" fill="#141232"/>
<path id="Vector_14" d="M25.1176 22.1061C25.0236 22.1061 24.9334 22.0688 24.867 22.0023C24.8005 21.9359 24.7632 21.8457 24.7632 21.7517V21.33C24.7632 21.2834 24.7724 21.2373 24.7902 21.1944C24.808 21.1514 24.8341 21.1123 24.867 21.0794C24.8999 21.0465 24.939 21.0204 24.9819 21.0026C25.0249 20.9848 25.071 20.9756 25.1176 20.9756C25.1641 20.9756 25.2102 20.9848 25.2532 21.0026C25.2962 21.0204 25.3352 21.0465 25.3682 21.0794C25.4011 21.1123 25.4272 21.1514 25.445 21.1944C25.4628 21.2373 25.4719 21.2834 25.4719 21.33V21.7517C25.4719 21.8457 25.4346 21.9359 25.3682 22.0023C25.3017 22.0688 25.2116 22.1061 25.1176 22.1061Z" fill="#141232"/>
<path id="Vector_15" d="M23.2191 23.1562C23.1251 23.1562 23.035 23.1189 22.9685 23.0524C22.9021 22.986 22.8647 22.8958 22.8647 22.8018V21.33C22.8647 21.236 22.9021 21.1458 22.9685 21.0794C23.035 21.0129 23.1251 20.9756 23.2191 20.9756C23.3131 20.9756 23.4033 21.0129 23.4697 21.0794C23.5362 21.1458 23.5735 21.236 23.5735 21.33V22.8018C23.5735 22.8958 23.5362 22.986 23.4697 23.0524C23.4033 23.1189 23.3131 23.1562 23.2191 23.1562Z" fill="#141232"/>
<path id="Vector_16" d="M21.319 24.4201C21.2722 24.4204 21.2259 24.4114 21.1827 24.3938C21.1394 24.3761 21.1001 24.35 21.067 24.3171C21.0338 24.2842 21.0075 24.245 20.9896 24.2019C20.9716 24.1587 20.9624 24.1125 20.9624 24.0657V21.3307C20.9694 21.2412 21.0099 21.1577 21.0758 21.0967C21.1417 21.0358 21.2281 21.002 21.3179 21.002C21.4076 21.002 21.4941 21.0358 21.56 21.0967C21.6259 21.1577 21.6663 21.2412 21.6733 21.3307V24.0657C21.6733 24.1597 21.636 24.2499 21.5695 24.3163C21.5031 24.3828 21.4129 24.4201 21.319 24.4201Z" fill="#141232"/>
<path id="Vector_17" d="M19.4164 23.3671C19.3224 23.3671 19.2323 23.3298 19.1658 23.2633C19.0993 23.1969 19.062 23.1067 19.062 23.0127V21.33C19.062 21.236 19.0993 21.1458 19.1658 21.0794C19.2323 21.0129 19.3224 20.9756 19.4164 20.9756C19.5104 20.9756 19.6005 21.0129 19.667 21.0794C19.7334 21.1458 19.7708 21.236 19.7708 21.33V23.0127C19.7708 23.1067 19.7334 23.1969 19.667 23.2633C19.6005 23.3298 19.5104 23.3671 19.4164 23.3671Z" fill="#141232"/>
<path id="Vector_18" d="M17.5248 22.1061C17.4308 22.1061 17.3407 22.0688 17.2742 22.0023C17.2077 21.9359 17.1704 21.8457 17.1704 21.7517V21.33C17.1704 21.236 17.2077 21.1458 17.2742 21.0794C17.3407 21.0129 17.4308 20.9756 17.5248 20.9756C17.6188 20.9756 17.7089 21.0129 17.7754 21.0794C17.8418 21.1458 17.8792 21.236 17.8792 21.33V21.7517C17.8792 21.8457 17.8418 21.9359 17.7754 22.0023C17.7089 22.0688 17.6188 22.1061 17.5248 22.1061Z" fill="#141232"/>
</g>
<circle id="Ellipse 148" cx="22" cy="22" r="21.5" stroke="black"/>
</g>
</svg>
