<svg width="76" height="76" viewBox="0 0 76 76" fill="none" xmlns="http://www.w3.org/2000/svg">
<circle cx="38" cy="38" r="38" fill="#F0F0F0"/>
<path d="M55.8199 31.6503H44.66C44.66 31.6503 43.66 31.1603 44.21 28.6503C44.52 27.2003 47.97 17.7003 41.75 16.0303H41.63H41.51H41.08H40.88H40.7899H40.72L40.6 16.0903L40.52 16.1503C40.4879 16.1744 40.4577 16.2012 40.4299 16.2303C40.3991 16.2536 40.375 16.2846 40.36 16.3203C40.3375 16.3466 40.3204 16.3772 40.3099 16.4103C40.3066 16.4402 40.3066 16.4703 40.3099 16.5002C40.1652 16.8432 40.0806 17.2086 40.0599 17.5803C39.9199 19.1203 40.24 21.3103 39.39 22.6403C38.78 23.6403 37.24 25.7403 35.62 27.9903C34 30.2403 32.4899 32.3203 31.5699 33.7003C31.245 34.1185 30.973 34.5753 30.76 35.0602V53.4503C30.76 53.7155 30.8653 53.9698 31.0529 54.1573C31.2404 54.3449 31.4948 54.4503 31.76 54.4503H51.2999C51.6768 54.4532 52.0507 54.3818 52.4 54.2403L52.5499 54.1803C52.6917 54.1169 52.8288 54.0434 52.96 53.9603L53.21 53.7803L53.4399 53.5703L53.51 53.4903L53.59 53.4103L53.7999 53.1403L53.86 53.0503L53.97 52.8603C54.0326 52.7466 54.0894 52.6298 54.14 52.5103C54.1443 52.457 54.1443 52.4035 54.14 52.3503C54.1692 52.2832 54.1893 52.2126 54.2 52.1403V52.0203C54.2223 51.9146 54.239 51.8077 54.25 51.7003C54.25 51.7003 54.25 51.6203 54.25 51.5803V51.2303C54.2553 51.1771 54.2553 51.1235 54.25 51.0703V50.9003C54.25 50.9003 54.25 50.8402 54.25 50.8102L54.1899 50.5903V50.4703C54.1349 50.3057 54.0611 50.1479 53.97 50.0002C54.1574 49.9622 54.3414 49.9087 54.52 49.8403H54.63C54.7684 49.7804 54.9022 49.7102 55.03 49.6302L55.12 49.5703L55.3099 49.4402L55.47 49.2903L55.5499 49.2103L55.63 49.1302C55.8432 48.9104 56.0189 48.657 56.15 48.3802V48.3102C56.1893 48.2363 56.2227 48.1594 56.25 48.0803C56.25 48.0803 56.25 48.0003 56.25 47.9603V47.8303V47.7203V47.5503C56.25 47.5503 56.25 47.5503 56.25 47.4803C56.25 47.4103 56.25 47.4303 56.25 47.4003C56.25 47.3703 56.25 47.4003 56.25 47.3203C56.245 47.2771 56.245 47.2334 56.25 47.1902V47.0503C56.25 46.9303 56.25 46.8103 56.25 46.7003C56.25 46.5903 56.25 46.6203 56.25 46.5903C56.25 46.5603 56.25 46.5302 56.25 46.5002C56.25 46.4702 56.25 46.4303 56.25 46.3903V46.2703V46.2103C56.2082 46.0583 56.1512 45.9109 56.08 45.7703C56.0837 45.7404 56.0837 45.7102 56.08 45.6803C55.9748 45.4683 55.8438 45.2701 55.6899 45.0903C55.536 44.9011 55.3579 44.733 55.16 44.5903C55.4762 44.5715 55.787 44.5005 56.08 44.3802C56.1524 44.3563 56.2226 44.3263 56.2899 44.2903L56.49 44.1902L56.59 44.1302L56.6799 44.0703C56.7473 44.0293 56.8109 43.9825 56.87 43.9303L56.95 43.8603L57.12 43.7103L57.26 43.5602C57.3087 43.5115 57.3523 43.4579 57.39 43.4003L57.51 43.2303L57.62 43.0503V42.9603V42.8603L57.71 42.6503V42.5602L57.77 42.3702V42.2803C57.8031 42.132 57.8264 41.9816 57.84 41.8303C57.84 41.8303 57.84 41.7503 57.84 41.7103V41.3903C57.84 41.3903 57.84 41.3903 57.84 41.3203C57.84 41.3203 57.84 41.2403 57.84 41.2003V41.0503C57.8456 40.9771 57.8456 40.9035 57.84 40.8303C57.84 40.7103 57.77 40.6003 57.73 40.4803C57.6902 40.3691 57.6399 40.262 57.58 40.1603C57.5225 40.0534 57.4592 39.9499 57.39 39.8503L57.2899 39.7003C57.2099 39.6103 57.1399 39.5203 57.0499 39.4303C56.9645 39.3484 56.8745 39.2715 56.78 39.2003L56.64 39.0903C56.1296 38.7252 55.5176 38.5293 54.89 38.5303H55.8099C56.2821 38.5327 56.7493 38.4339 57.1799 38.2403L57.2899 38.1902L57.52 38.0602C57.6553 37.9793 57.7826 37.8855 57.9 37.7803L57.99 37.7003L58.08 37.6202L58.1699 37.5303L58.25 37.4402L58.3199 37.3603C58.3781 37.3002 58.4285 37.233 58.47 37.1603C58.5064 37.1194 58.5398 37.076 58.5699 37.0303L58.66 36.8903C58.7576 36.7137 58.8412 36.5298 58.91 36.3403V36.2403V36.1503C58.91 36.1503 58.91 36.0903 58.91 36.0503C58.9463 35.9224 58.973 35.7921 58.99 35.6603C58.9851 35.6338 58.9851 35.6067 58.99 35.5803C58.99 35.5203 58.99 35.4603 58.99 35.4003V35.2303C59.0171 34.787 58.9566 34.3428 58.8119 33.9229C58.6672 33.5031 58.4412 33.1159 58.1469 32.7834C57.8525 32.4509 57.4954 32.1797 57.0962 31.9853C56.6969 31.7909 56.2632 31.677 55.8199 31.6503Z" stroke="#8566FF" stroke-width="2" stroke-linejoin="round"/>
<path d="M26.43 31.9102H20.2C19.5373 31.9102 19 32.4474 19 33.1102V53.2902C19 53.9529 19.5373 54.4902 20.2 54.4902H26.43C27.0927 54.4902 27.63 53.9529 27.63 53.2902V33.1102C27.63 32.4474 27.0927 31.9102 26.43 31.9102Z" stroke="#8566FF" stroke-width="2" stroke-linejoin="round"/>
<path d="M22.6299 50.4902H24.6299" stroke="#8566FF" stroke-width="2" stroke-miterlimit="10"/>
</svg>
