<svg width="46" height="46" viewBox="0 0 46 46" fill="none" xmlns="http://www.w3.org/2000/svg">
<g id="Group 974">
<circle id="Ellipse 148" cx="23" cy="23" r="22.5" stroke="black"/>
<g id="Group 1342">
<path id="Vector" d="M25.5002 32.4618C23.6212 32.4618 21.7844 31.9204 20.2221 30.9061C18.6599 29.8918 17.4422 28.4501 16.7232 26.7634C16.0041 25.0767 15.816 23.2207 16.1825 21.4301C16.5491 19.6394 17.4539 17.9946 18.7825 16.7036C20.1112 15.4127 21.8039 14.5336 23.6468 14.1774C25.4896 13.8212 27.3998 14.004 29.1357 14.7027C30.8717 15.4013 32.3553 16.5845 33.3992 18.1025C34.4431 19.6205 35.0003 21.4052 35.0003 23.2309C35.0003 25.6791 33.9994 28.027 32.2177 29.7582C30.4361 31.4893 28.0198 32.4618 25.5002 32.4618ZM25.5002 14.9717C23.819 14.9717 22.1756 15.456 20.7778 16.3636C19.3799 17.2711 18.2904 18.5611 17.647 20.0702C17.0037 21.5794 16.8354 23.2401 17.1634 24.8422C17.4914 26.4443 18.3009 27.916 19.4897 29.0711C20.6784 30.2262 22.193 31.0127 23.8419 31.3314C25.4908 31.6501 27.1998 31.4865 28.753 30.8614C30.3062 30.2363 31.6337 29.1777 32.5677 27.8195C33.5017 26.4613 34.0003 24.8644 34.0003 23.2309C34.0003 21.0404 33.1047 18.9397 31.5106 17.3908C29.9166 15.8419 27.7546 14.9717 25.5002 14.9717Z" fill="#141232"/>
<path id="Vector_2" d="M16.5001 16.4287H12V17.4004H16.5001V16.4287Z" fill="#141232"/>
<path id="Vector_3" d="M19.0001 14H14.5V14.9717H19.0001V14Z" fill="#141232"/>
<path id="Vector_4" d="M15 19.3447H12V20.3164H15V19.3447Z" fill="#141232"/>
<path id="Vector_5" d="M14.5001 22.2588H11V23.2305H14.5001V22.2588Z" fill="#141232"/>
<path id="Vector_6" d="M15.0001 25.6602H11V26.6318H15.0001V25.6602Z" fill="#141232"/>
<path id="Vector_7" d="M16.5 28.5752H13.5V29.5469H16.5V28.5752Z" fill="#141232"/>
<path id="Vector_8" d="M19.0001 31.0039H14.5V31.9756H19.0001V31.0039Z" fill="#141232"/>
<path id="Vector_9" d="M25.5005 24.6885C25.2039 24.6885 24.9138 24.603 24.6671 24.4428C24.4205 24.2827 24.2282 24.0551 24.1146 23.7887C24.0011 23.5224 23.9714 23.2294 24.0293 22.9466C24.0872 22.6639 24.2301 22.4042 24.4398 22.2003C24.6496 21.9965 24.9169 21.8577 25.2079 21.8014C25.4988 21.7452 25.8004 21.7741 26.0745 21.8844C26.3486 21.9947 26.5829 22.1815 26.7477 22.4212C26.9126 22.6609 27.0006 22.9427 27.0006 23.231C27.0006 23.6175 26.8425 23.9882 26.5612 24.2616C26.2798 24.5349 25.8984 24.6885 25.5005 24.6885ZM25.5005 22.7451C25.4016 22.7451 25.3049 22.7736 25.2227 22.827C25.1405 22.8804 25.0764 22.9563 25.0386 23.045C25.0007 23.1338 24.9908 23.2315 25.0101 23.3257C25.0294 23.42 25.077 23.5066 25.147 23.5745C25.2169 23.6425 25.3059 23.6887 25.4029 23.7075C25.4999 23.7262 25.6005 23.7166 25.6919 23.6798C25.7832 23.6431 25.8613 23.5808 25.9162 23.5009C25.9712 23.421 26.0005 23.327 26.0005 23.231C26.0005 23.1021 25.9478 22.9785 25.8541 22.8874C25.7603 22.7963 25.6331 22.7451 25.5005 22.7451Z" fill="#141232"/>
<path id="Vector_10" d="M26.5004 22.7449C26.4343 22.7447 26.3688 22.7317 26.3079 22.7066C26.2469 22.6816 26.1917 22.6451 26.1454 22.5992C26.0523 22.5081 26 22.385 26 22.2567C26 22.1283 26.0523 22.0052 26.1454 21.9142L29.6454 18.5133C29.7411 18.4337 29.8641 18.3921 29.99 18.3968C30.1158 18.4016 30.2352 18.4522 30.3242 18.5388C30.4133 18.6253 30.4655 18.7413 30.4703 18.8636C30.4752 18.9859 30.4324 19.1054 30.3505 19.1983L26.8504 22.5992C26.7581 22.6907 26.6323 22.7431 26.5004 22.7449Z" fill="#141232"/>
<path id="Vector_11" d="M28.9753 27.0936C28.9091 27.0933 28.8437 27.0804 28.7828 27.0553C28.7218 27.0303 28.6666 26.9938 28.6203 26.9479L26.1202 24.5187C26.0383 24.4257 25.9955 24.3062 26.0004 24.1839C26.0052 24.0616 26.0574 23.9457 26.1464 23.8591C26.2355 23.7726 26.3549 23.7219 26.4807 23.7172C26.6066 23.7124 26.7296 23.754 26.8252 23.8336L29.3253 26.2628C29.4184 26.3539 29.4707 26.477 29.4707 26.6054C29.4707 26.7337 29.4184 26.8568 29.3253 26.9479C29.2329 27.0394 29.1072 27.0918 28.9753 27.0936Z" fill="#141232"/>
</g>
</g>
</svg>
