<svg width="76" height="76" viewBox="0 0 76 76" fill="none" xmlns="http://www.w3.org/2000/svg">
<circle cx="38" cy="38" r="38" fill="#F0F0F0"/>
<path fill-rule="evenodd" clip-rule="evenodd" d="M38 63.2581C51.9496 63.2581 63.2581 51.9496 63.2581 38C63.2581 24.0504 51.9496 12.7419 38 12.7419C24.0504 12.7419 12.7419 24.0504 12.7419 38C12.7419 51.9496 24.0504 63.2581 38 63.2581ZM38 65C52.9117 65 65 52.9117 65 38C65 23.0883 52.9117 11 38 11C23.0883 11 11 23.0883 11 38C11 52.9117 23.0883 65 38 65Z" fill="#8566FF"/>
<path d="M39.1086 46.0186C39.3949 46.0186 39.6335 46.126 39.8244 46.3407C40.0391 46.5316 40.1465 46.7582 40.1465 47.0207C40.1465 47.307 40.0391 47.5456 39.8244 47.7365C39.6335 47.9273 39.3949 48.0228 39.1086 48.0228H27.4773C27.1671 48.0228 26.9166 47.9035 26.7257 47.6649C26.5348 47.4263 26.4394 47.1996 26.4394 46.9849C26.4394 46.8417 26.4633 46.7105 26.511 46.5912C26.5587 46.4481 26.6422 46.3049 26.7615 46.1618L37.6055 31.1662L37.7487 31.4883H28.372C28.0857 31.4883 27.8352 31.3929 27.6204 31.202C27.4295 30.9873 27.3341 30.7487 27.3341 30.4863C27.3341 30.2 27.4295 29.9614 27.6204 29.7705C27.8352 29.5796 28.0857 29.4842 28.372 29.4842H39.3591C39.6216 29.4842 39.8483 29.5915 40.0391 29.8063C40.2539 30.021 40.3612 30.2715 40.3612 30.5578C40.3612 30.701 40.3374 30.8322 40.2897 30.9515C40.2419 31.0708 40.1704 31.202 40.0749 31.3452L29.3025 46.1975L28.873 46.0186H39.1086Z" fill="#8566FF"/>
<path d="M42.527 36.2125C42.2646 36.2125 42.0498 36.117 41.8828 35.9262C41.7158 35.7114 41.6323 35.4848 41.6323 35.2462C41.6323 34.8406 41.847 34.5543 42.2765 34.3872L49.1479 31.2378C49.2434 31.1901 49.3388 31.1543 49.4343 31.1305C49.5536 31.1066 49.6609 31.0947 49.7564 31.0947C50.0188 31.0947 50.2216 31.1901 50.3648 31.381C50.5318 31.5719 50.6153 31.7747 50.6153 31.9894C50.6153 32.228 50.5437 32.4308 50.4006 32.5978C50.2813 32.741 50.1262 32.8603 49.9353 32.9557L43.0281 36.0693C42.9326 36.117 42.8372 36.1528 42.7417 36.1767C42.6463 36.2005 42.5747 36.2125 42.527 36.2125ZM47.1438 46.9491C47.1438 47.2354 47.0364 47.4859 46.8217 47.7007C46.6069 47.9154 46.3564 48.0228 46.0701 48.0228C45.7599 48.0228 45.4975 47.9154 45.2828 47.7007C45.0919 47.4859 44.9964 47.2354 44.9964 46.9491V22.6127C44.9964 22.3264 45.1038 22.0759 45.3185 21.8612C45.5333 21.6464 45.7838 21.5391 46.0701 21.5391C46.3803 21.5391 46.6308 21.6464 46.8217 21.8612C47.0364 22.0759 47.1438 22.3264 47.1438 22.6127V46.9491Z" fill="#8566FF"/>
</svg>
