<svg width="44" height="44" viewBox="0 0 44 44" fill="none" xmlns="http://www.w3.org/2000/svg">
<g id="Group 1351">
<g id="Group 918">
<path id="Vector (Stroke)" fill-rule="evenodd" clip-rule="evenodd" d="M22.488 10.9463C20.2119 10.8245 17.957 11.4389 16.0573 12.6985C14.1576 13.9581 12.714 15.796 11.9402 17.94C11.1664 20.0839 11.1035 22.4201 11.7609 24.6026C12.4182 26.7851 13.7609 28.698 15.5901 30.0579C17.4193 31.4179 19.6378 32.1527 21.9172 32.1536C22.3115 32.1529 22.7054 32.1312 23.0974 32.0887L23.1888 32.9308C22.7667 32.9766 22.3424 33 21.9178 33.0007H21.9168C19.4555 32.9998 17.0599 32.2063 15.0847 30.7377C13.1095 29.2692 11.6596 27.2037 10.9498 24.8469C10.2399 22.4902 10.3078 19.9675 11.1434 17.6524C11.979 15.3372 13.5378 13.3527 15.5892 11.9925C17.6405 10.6323 20.0754 9.96889 22.5332 10.1003C24.991 10.2318 27.3412 11.1512 29.2358 12.7224C31.1303 14.2936 32.4686 16.4331 33.0525 18.8242C33.6364 21.2153 33.4348 23.7308 32.4776 25.9984L31.6972 25.669C32.5836 23.569 32.7703 21.2394 32.2295 19.0251C31.6888 16.8108 30.4495 14.8295 28.695 13.3745C26.9405 11.9194 24.7641 11.068 22.488 10.9463Z" fill="#141232"/>
<path id="Vector (Stroke)_2" fill-rule="evenodd" clip-rule="evenodd" d="M16.8252 21.542H22.3426V22.3891H16.8252V21.542Z" fill="#141232"/>
<g id="24">
<path d="M28.7939 32.2584C28.8661 32.2584 28.9271 32.2833 28.9768 32.333C29.0265 32.3827 29.0514 32.4437 29.0514 32.5159C29.0514 32.5882 29.0265 32.6492 28.9768 32.6989C28.9271 32.7441 28.8661 32.7667 28.7939 32.7667H26.3338C26.2525 32.7667 26.1847 32.7441 26.1305 32.6989C26.0808 32.6492 26.056 32.5837 26.056 32.5024C26.056 32.4301 26.0831 32.3646 26.1373 32.3059L27.6689 30.632C27.8948 30.388 28.0642 30.1598 28.1772 29.9475C28.2946 29.7306 28.3534 29.5386 28.3534 29.3715C28.3534 29.0959 28.2698 28.8767 28.1026 28.7141C27.94 28.5469 27.7208 28.4633 27.4453 28.4633C27.3233 28.4633 27.2013 28.4905 27.0793 28.5447C26.9573 28.5944 26.8466 28.6644 26.7472 28.7548C26.6478 28.8406 26.5665 28.9377 26.5033 29.0462C26.4671 29.1049 26.4287 29.1433 26.3881 29.1614C26.3519 29.1749 26.3135 29.1817 26.2728 29.1817C26.2051 29.1817 26.1441 29.1591 26.0899 29.1139C26.0357 29.0642 26.0085 29.0078 26.0085 28.9445C26.0085 28.8948 26.0221 28.8496 26.0492 28.809C26.0763 28.7638 26.1125 28.7141 26.1576 28.6599C26.2525 28.5289 26.37 28.4114 26.51 28.3075C26.6546 28.199 26.8105 28.1132 26.9776 28.05C27.1493 27.9867 27.3165 27.9551 27.4791 27.9551C27.7683 27.9551 28.019 28.0116 28.2314 28.1245C28.4482 28.2374 28.6154 28.3978 28.7329 28.6057C28.8503 28.8135 28.9091 29.0575 28.9091 29.3376C28.9091 29.577 28.8368 29.8413 28.6922 30.1305C28.5476 30.4196 28.3353 30.7133 28.0552 31.0115L26.8692 32.3262L26.8014 32.2584H28.7939Z" fill="#141232"/>
<path d="M31.8762 32.7667C31.7994 32.7667 31.7339 32.7396 31.6797 32.6854C31.63 32.6312 31.6051 32.5656 31.6051 32.4888V28.7819L31.7136 28.8225L30.0939 30.9369L30.0668 30.8556H32.6013C32.6736 30.8556 32.7346 30.8805 32.7843 30.9301C32.834 30.9798 32.8589 31.0408 32.8589 31.1131C32.8589 31.1809 32.834 31.2396 32.7843 31.2893C32.7346 31.3345 32.6736 31.3571 32.6013 31.3571H29.694C29.6263 31.3571 29.563 31.33 29.5043 31.2758C29.4501 31.2216 29.423 31.1583 29.423 31.086C29.423 31.0182 29.4455 30.9595 29.4907 30.9098L31.6526 28.1313C31.6842 28.0906 31.7203 28.0635 31.761 28.05C31.8017 28.0319 31.8423 28.0228 31.883 28.0228C31.9598 28.0228 32.023 28.05 32.0727 28.1042C32.1224 28.1539 32.1473 28.2171 32.1473 28.2939V32.4888C32.1473 32.5656 32.1202 32.6312 32.066 32.6854C32.0163 32.7396 31.953 32.7667 31.8762 32.7667Z" fill="#141232"/>
<path d="M28.7939 32.2584C28.8661 32.2584 28.9271 32.2833 28.9768 32.333C29.0265 32.3827 29.0514 32.4437 29.0514 32.5159C29.0514 32.5882 29.0265 32.6492 28.9768 32.6989C28.9271 32.7441 28.8661 32.7667 28.7939 32.7667H26.3338C26.2525 32.7667 26.1847 32.7441 26.1305 32.6989C26.0808 32.6492 26.056 32.5837 26.056 32.5024C26.056 32.4301 26.0831 32.3646 26.1373 32.3059L27.6689 30.632C27.8948 30.388 28.0642 30.1598 28.1772 29.9475C28.2946 29.7306 28.3534 29.5386 28.3534 29.3715C28.3534 29.0959 28.2698 28.8767 28.1026 28.7141C27.94 28.5469 27.7208 28.4633 27.4453 28.4633C27.3233 28.4633 27.2013 28.4905 27.0793 28.5447C26.9573 28.5944 26.8466 28.6644 26.7472 28.7548C26.6478 28.8406 26.5665 28.9377 26.5033 29.0462C26.4671 29.1049 26.4287 29.1433 26.3881 29.1614C26.3519 29.1749 26.3135 29.1817 26.2728 29.1817C26.2051 29.1817 26.1441 29.1591 26.0899 29.1139C26.0357 29.0642 26.0085 29.0078 26.0085 28.9445C26.0085 28.8948 26.0221 28.8496 26.0492 28.809C26.0763 28.7638 26.1125 28.7141 26.1576 28.6599C26.2525 28.5289 26.37 28.4114 26.51 28.3075C26.6546 28.199 26.8105 28.1132 26.9776 28.05C27.1493 27.9867 27.3165 27.9551 27.4791 27.9551C27.7683 27.9551 28.019 28.0116 28.2314 28.1245C28.4482 28.2374 28.6154 28.3978 28.7329 28.6057C28.8503 28.8135 28.9091 29.0575 28.9091 29.3376C28.9091 29.577 28.8368 29.8413 28.6922 30.1305C28.5476 30.4196 28.3353 30.7133 28.0552 31.0115L26.8692 32.3262L26.8014 32.2584H28.7939Z" stroke="black"/>
<path d="M31.8762 32.7667C31.7994 32.7667 31.7339 32.7396 31.6797 32.6854C31.63 32.6312 31.6051 32.5656 31.6051 32.4888V28.7819L31.7136 28.8225L30.0939 30.9369L30.0668 30.8556H32.6013C32.6736 30.8556 32.7346 30.8805 32.7843 30.9301C32.834 30.9798 32.8589 31.0408 32.8589 31.1131C32.8589 31.1809 32.834 31.2396 32.7843 31.2893C32.7346 31.3345 32.6736 31.3571 32.6013 31.3571H29.694C29.6263 31.3571 29.563 31.33 29.5043 31.2758C29.4501 31.2216 29.423 31.1583 29.423 31.086C29.423 31.0182 29.4455 30.9595 29.4907 30.9098L31.6526 28.1313C31.6842 28.0906 31.7203 28.0635 31.761 28.05C31.8017 28.0319 31.8423 28.0228 31.883 28.0228C31.9598 28.0228 32.023 28.05 32.0727 28.1042C32.1224 28.1539 32.1473 28.2171 32.1473 28.2939V32.4888C32.1473 32.5656 32.1202 32.6312 32.066 32.6854C32.0163 32.7396 31.953 32.7667 31.8762 32.7667Z" stroke="black"/>
</g>
<path id="Vector (Stroke)_3" fill-rule="evenodd" clip-rule="evenodd" d="M22.341 13.5742V22.1568H21.4939V13.5742H22.341Z" fill="#141232"/>
</g>
<circle id="Ellipse 148" cx="22" cy="22" r="21.5" stroke="black"/>
</g>
</svg>
