<svg width="76" height="76" viewBox="0 0 76 76" fill="none" xmlns="http://www.w3.org/2000/svg">
<circle cx="38" cy="38" r="38" fill="#F0F0F0"/>
<path d="M25.5693 30.3594V31.7773L19.3174 46H16.5889L22.8301 32.4219H14.7305V30.3594H25.5693ZM37.8799 36.8691V39.4258C37.8799 40.6504 37.7581 41.696 37.5146 42.5625C37.2783 43.4219 36.9346 44.1201 36.4834 44.6572C36.0322 45.1943 35.4915 45.5882 34.8613 45.8389C34.2383 46.0895 33.54 46.2148 32.7666 46.2148C32.1507 46.2148 31.5778 46.1361 31.0479 45.9785C30.5251 45.821 30.0524 45.5739 29.6299 45.2373C29.2074 44.9007 28.8457 44.4674 28.5449 43.9375C28.2513 43.4004 28.0221 42.7594 27.8574 42.0146C27.6999 41.2699 27.6211 40.4069 27.6211 39.4258V36.8691C27.6211 35.6374 27.7428 34.599 27.9863 33.7539C28.2298 32.9017 28.5771 32.2106 29.0283 31.6807C29.4795 31.1436 30.0166 30.7533 30.6396 30.5098C31.2699 30.2663 31.9717 30.1445 32.7451 30.1445C33.3682 30.1445 33.9411 30.2233 34.4639 30.3809C34.9938 30.5312 35.4665 30.7712 35.8818 31.1006C36.3044 31.43 36.6624 31.8597 36.9561 32.3896C37.2568 32.9124 37.486 33.5462 37.6436 34.291C37.8011 35.0286 37.8799 35.888 37.8799 36.8691ZM35.291 39.791V36.4824C35.291 35.8594 35.2552 35.3115 35.1836 34.8389C35.112 34.359 35.0046 33.9544 34.8613 33.625C34.7253 33.2884 34.5534 33.0163 34.3457 32.8086C34.138 32.5938 33.9017 32.4398 33.6367 32.3467C33.3717 32.2464 33.0745 32.1963 32.7451 32.1963C32.3441 32.1963 31.986 32.2751 31.6709 32.4326C31.3558 32.583 31.0908 32.8265 30.876 33.1631C30.6611 33.4997 30.4964 33.9437 30.3818 34.4951C30.2744 35.0394 30.2207 35.7018 30.2207 36.4824V39.791C30.2207 40.4212 30.2565 40.9762 30.3281 41.4561C30.3997 41.9359 30.5072 42.3477 30.6504 42.6914C30.7936 43.028 30.9655 43.3073 31.166 43.5293C31.3737 43.7441 31.61 43.9017 31.875 44.002C32.1471 44.1022 32.4443 44.1523 32.7666 44.1523C33.1748 44.1523 33.5365 44.0736 33.8516 43.916C34.1667 43.7585 34.4316 43.5078 34.6465 43.1641C34.8613 42.8132 35.0225 42.3584 35.1299 41.7998C35.2373 41.2412 35.291 40.5716 35.291 39.791ZM50.3838 36.8691V39.4258C50.3838 40.6504 50.262 41.696 50.0186 42.5625C49.7822 43.4219 49.4385 44.1201 48.9873 44.6572C48.5361 45.1943 47.9954 45.5882 47.3652 45.8389C46.7422 46.0895 46.0439 46.2148 45.2705 46.2148C44.6546 46.2148 44.0817 46.1361 43.5518 45.9785C43.029 45.821 42.5563 45.5739 42.1338 45.2373C41.7113 44.9007 41.3496 44.4674 41.0488 43.9375C40.7552 43.4004 40.526 42.7594 40.3613 42.0146C40.2038 41.2699 40.125 40.4069 40.125 39.4258V36.8691C40.125 35.6374 40.2467 34.599 40.4902 33.7539C40.7337 32.9017 41.0811 32.2106 41.5322 31.6807C41.9834 31.1436 42.5205 30.7533 43.1436 30.5098C43.7738 30.2663 44.4756 30.1445 45.249 30.1445C45.8721 30.1445 46.445 30.2233 46.9678 30.3809C47.4977 30.5312 47.9704 30.7712 48.3857 31.1006C48.8083 31.43 49.1663 31.8597 49.46 32.3896C49.7607 32.9124 49.9899 33.5462 50.1475 34.291C50.305 35.0286 50.3838 35.888 50.3838 36.8691ZM47.7949 39.791V36.4824C47.7949 35.8594 47.7591 35.3115 47.6875 34.8389C47.6159 34.359 47.5085 33.9544 47.3652 33.625C47.2292 33.2884 47.0573 33.0163 46.8496 32.8086C46.6419 32.5938 46.4056 32.4398 46.1406 32.3467C45.8757 32.2464 45.5785 32.1963 45.249 32.1963C44.848 32.1963 44.4899 32.2751 44.1748 32.4326C43.8597 32.583 43.5947 32.8265 43.3799 33.1631C43.165 33.4997 43.0003 33.9437 42.8857 34.4951C42.7783 35.0394 42.7246 35.7018 42.7246 36.4824V39.791C42.7246 40.4212 42.7604 40.9762 42.832 41.4561C42.9036 41.9359 43.0111 42.3477 43.1543 42.6914C43.2975 43.028 43.4694 43.3073 43.6699 43.5293C43.8776 43.7441 44.1139 43.9017 44.3789 44.002C44.651 44.1022 44.9482 44.1523 45.2705 44.1523C45.6787 44.1523 46.0404 44.0736 46.3555 43.916C46.6706 43.7585 46.9355 43.5078 47.1504 43.1641C47.3652 42.8132 47.5264 42.3584 47.6338 41.7998C47.7412 41.2412 47.7949 40.5716 47.7949 39.791ZM62.9414 37.4277V39.7588H52.2207V37.4277H62.9414ZM58.8379 33.0449V44.4316H56.335V33.0449H58.8379Z" fill="#8566FF"/>
</svg>
