<svg width="76" height="76" viewBox="0 0 76 76" fill="none" xmlns="http://www.w3.org/2000/svg">
<circle cx="38" cy="38" r="38" fill="#F0F0F0"/>
<path d="M37.928 67H37.7218C34.7374 66.9132 32.1384 66.2132 28.7525 64.5746C27.5967 64.0319 26.5821 63.4893 25.5945 62.9467L25.1442 62.6971C22.8164 61.4871 19.6204 61.0693 16.7989 60.8685C16.683 60.859 16.5703 60.8267 16.4669 60.7735C16.3636 60.7203 16.2718 60.6473 16.1967 60.5586C16.1216 60.4699 16.0648 60.3673 16.0294 60.2566C15.994 60.1459 15.9807 60.0294 15.9904 59.9136C15.9993 59.798 16.0309 59.6853 16.0836 59.582C16.1362 59.4788 16.2087 59.3869 16.2969 59.3118C16.3852 59.2366 16.4874 59.1797 16.5978 59.1442C16.7081 59.1087 16.8244 59.0954 16.9399 59.1051C19.9405 59.3438 23.3535 59.7725 25.9743 61.1399L26.4627 61.4057C27.3743 61.8941 28.4106 62.4204 29.523 62.9576C32.6647 64.4823 35.0576 65.128 37.7706 65.2094C39.7023 65.2691 43.837 64.325 52.5132 59.5554C57.1254 57.0215 64.8413 52.7783 65.0203 50.8195C65.0203 50.7381 65.0475 50.5427 64.6839 50.2443C63.0561 48.9203 57.2502 51.9806 52.5784 54.4441C51.5311 54.9867 50.4839 55.5293 49.4638 56.0719C49.3601 56.1246 49.2471 56.1564 49.1311 56.1655C49.0151 56.1745 48.8985 56.1606 48.7879 56.1246C48.6773 56.0886 48.5749 56.0311 48.4865 55.9555C48.3981 55.8799 48.3255 55.7876 48.2728 55.6839C48.22 55.5803 48.1883 55.4672 48.1792 55.3512C48.1702 55.2353 48.1841 55.1187 48.2201 55.0081C48.2561 54.8975 48.3136 54.7951 48.3892 54.7067C48.4648 54.6183 48.5571 54.5456 48.6607 54.4929C49.6754 53.9774 50.7118 53.4077 51.759 52.8651C57.9393 49.6095 63.2786 46.7988 65.8071 48.8661C66.1367 49.1039 66.3996 49.4224 66.5706 49.7911C66.7417 50.1598 66.8151 50.5662 66.7838 50.9714C66.5559 53.4457 62.4429 56.0936 53.3651 61.0964C46.2733 65.0249 41.0805 67 37.928 67Z" fill="#8566FF"/>
<path d="M45.2586 60.7768C43.8587 60.7768 42.0518 60.1582 39.6589 59.3389C38.9806 59.111 38.3295 58.8777 37.7001 58.6552C34.7266 57.57 32.1601 56.6856 28.5517 56.398C28.4359 56.3887 28.3231 56.3567 28.2197 56.3039C28.1162 56.251 28.0242 56.1783 27.9489 56.0898C27.7968 55.9112 27.7218 55.6795 27.7405 55.4457C27.7498 55.3299 27.7818 55.2171 27.8346 55.1136C27.8875 55.0102 27.9602 54.9182 28.0487 54.8429C28.2272 54.6907 28.4589 54.6158 28.6928 54.6345C32.529 54.9384 35.2041 55.8879 38.2915 56.984C38.9155 57.2065 39.5558 57.4398 40.2286 57.6677C42.8331 58.5575 45.0741 59.2955 45.9368 58.8777C46.0478 58.8165 46.1435 58.731 46.2168 58.6277C46.2901 58.5243 46.3391 58.4058 46.3601 58.2808C46.7833 56.8809 43.1044 53.5764 37.7163 51.406C36.2205 50.7558 34.7905 49.9635 33.446 49.0402C31.7314 47.955 30.109 46.8698 28.3238 46.6527C25.9718 46.4274 23.5994 46.7449 21.3893 47.5806C19.3374 48.2883 17.2328 48.8326 15.0951 49.2084C14.8634 49.2466 14.626 49.1911 14.4352 49.0542C14.2444 48.9174 14.1158 48.7103 14.0777 48.4786C14.0395 48.2469 14.095 48.0096 14.2319 47.8188C14.3687 47.628 14.5758 47.4994 14.8075 47.4612C16.8546 47.1083 18.8705 46.593 20.8358 45.9202C22.8706 45.2528 25.5891 44.5312 28.5517 44.9218C30.7221 45.2094 32.5182 46.3543 34.4064 47.5752C35.6576 48.4367 36.9875 49.178 38.3783 49.789C42.8223 51.5796 49.0677 55.4593 48.053 58.8126C47.9636 59.1662 47.801 59.4971 47.5757 59.7841C47.3505 60.071 47.0676 60.3075 46.7453 60.4784C46.2807 60.6953 45.7709 60.7976 45.2586 60.7768Z" fill="#8566FF"/>
<path d="M46.3817 53.2831C46.1909 53.2827 46.0053 53.2206 45.8527 53.1061C45.7 52.9915 45.5885 52.8307 45.5348 52.6476C45.4811 52.4644 45.488 52.2688 45.5546 52.09C45.6212 51.9112 45.7439 51.7586 45.9043 51.6552L46.9461 50.9933C50.6466 48.6221 54.472 46.1695 57.2285 46.1641C58.4656 46.1641 59.3989 46.4842 59.9415 47.0865C60.0998 47.2602 60.183 47.4895 60.1728 47.7244C60.1627 47.9592 60.06 48.1805 59.8872 48.3399C59.8017 48.4185 59.7013 48.4793 59.5921 48.5189C59.4829 48.5584 59.3668 48.5759 59.2508 48.5704C59.1347 48.5648 59.0209 48.5363 58.916 48.4865C58.811 48.4367 58.7169 48.3666 58.6392 48.2802C58.2162 48.0028 57.7095 47.8819 57.2068 47.9384C54.9658 47.9384 51.1947 50.353 47.8685 52.48L46.8267 53.1474C46.6928 53.2308 46.5394 53.2776 46.3817 53.2831Z" fill="#8566FF"/>
<path d="M43.9345 51.6551C43.7456 51.6603 43.56 51.6048 43.4049 51.4968C43.2498 51.3888 43.1334 51.234 43.0727 51.055C43.012 50.876 43.0103 50.6823 43.0677 50.5022C43.1252 50.3222 43.2388 50.1652 43.3919 50.0545C44.0756 49.5553 44.7213 49.0561 45.3399 48.584C47.8087 46.6903 49.7621 45.1981 51.7535 45.0245C52.2318 44.9774 52.7145 45.0011 53.186 45.095C53.2992 45.1207 53.4064 45.1684 53.5012 45.2355C53.5961 45.3025 53.6768 45.3876 53.7388 45.4859C53.8008 45.5841 53.8428 45.6936 53.8624 45.8081C53.8821 45.9226 53.879 46.0398 53.8534 46.1531C53.8277 46.2664 53.78 46.3736 53.7129 46.4684C53.6459 46.5633 53.5608 46.644 53.4625 46.706C53.3643 46.7679 53.2548 46.8099 53.1403 46.8296C53.0258 46.8493 52.9086 46.8462 52.7953 46.8205C52.5018 46.7666 52.202 46.7557 51.9054 46.788C50.4295 46.9128 48.5684 48.3398 46.4142 49.9893C45.792 50.4741 45.1337 50.9715 44.4391 51.4815C44.2931 51.5906 44.1167 51.6513 43.9345 51.6551Z" fill="#8566FF"/>
<path d="M41.2324 50.1092C41.0516 50.1054 40.8764 50.0464 40.7302 49.94C40.584 49.8336 40.474 49.685 40.4148 49.5141C40.3557 49.3433 40.3504 49.1584 40.3995 48.9844C40.4487 48.8104 40.55 48.6557 40.6898 48.541C41.4766 47.9008 42.068 47.3419 42.5889 46.8481C43.7067 45.8009 44.5098 45.0412 45.8826 44.8405C46.3459 44.7615 46.8192 44.7615 47.2825 44.8405C47.4001 44.8583 47.513 44.8996 47.6143 44.9621C47.7156 45.0245 47.8032 45.1067 47.872 45.2038C47.9407 45.301 47.9892 45.4109 48.0144 45.5272C48.0397 45.6435 48.0412 45.7637 48.019 45.8806C47.9967 45.9974 47.951 46.1086 47.8848 46.2075C47.8185 46.3063 47.733 46.3908 47.6333 46.4558C47.5337 46.5208 47.4219 46.565 47.3047 46.5858C47.1876 46.6066 47.0674 46.6035 46.9515 46.5768C46.6838 46.5327 46.4107 46.5327 46.143 46.5768C45.3508 46.6962 44.8841 47.1194 43.8044 48.1287C43.2889 48.6116 42.6432 49.2139 41.8076 49.903C41.6453 50.0358 41.4421 50.1086 41.2324 50.1092Z" fill="#8566FF"/>
<path d="M38.9969 23.8413C35.3289 23.8413 32.2306 20.2655 32.2306 16.0332C32.2306 11.942 35.2638 8.61035 38.9969 8.61035C42.73 8.61035 45.7632 11.942 45.7632 16.0332C45.7632 20.2655 42.6649 23.8413 38.9969 23.8413ZM38.9969 10.3793C36.2405 10.3793 33.9995 12.9187 33.9995 16.0332C33.9995 19.2509 36.3327 22.0724 38.9969 22.0724C41.6611 22.0724 43.9943 19.2509 43.9943 16.0332C43.9943 12.9187 41.7533 10.3793 38.9969 10.3793Z" fill="#8566FF"/>
<path d="M49.1384 42.3496H28.8557C28.1467 42.3481 27.4671 42.0658 26.9658 41.5645C26.4644 41.0631 26.1821 40.3835 26.1807 39.6745V37.2328C26.185 33.9141 27.5052 30.7327 29.8518 28.386C32.1985 26.0394 35.38 24.7192 38.6986 24.7148H39.2955C42.6141 24.7192 45.7956 26.0394 48.1422 28.386C50.4889 30.7327 51.8091 33.9141 51.8134 37.2328V39.6745C51.8036 40.3809 51.5186 41.0556 51.019 41.5552C50.5195 42.0548 49.8448 42.3397 49.1384 42.3496ZM38.6986 26.4837C35.8491 26.488 33.1175 27.6219 31.1026 29.6368C29.0877 31.6517 27.9539 34.3833 27.9496 37.2328V39.6745C27.9496 39.7933 27.973 39.9108 28.0186 40.0205C28.0642 40.1301 28.1311 40.2296 28.2153 40.3134C28.2995 40.3971 28.3994 40.4633 28.5094 40.5082C28.6193 40.5532 28.737 40.576 28.8557 40.5752H49.1384C49.2571 40.576 49.3748 40.5532 49.4847 40.5082C49.5946 40.4633 49.6946 40.3971 49.7788 40.3134C49.863 40.2296 49.9298 40.1301 49.9754 40.0205C50.021 39.9108 50.0445 39.7933 50.0445 39.6745V37.2328C50.0402 34.3833 48.9063 31.6517 46.8914 29.6368C44.8765 27.6219 42.145 26.488 39.2955 26.4837H38.6986Z" fill="#8566FF"/>
<path d="M45.7253 42.3498C45.4907 42.3498 45.2657 42.2566 45.0999 42.0908C44.934 41.9249 44.8408 41.6999 44.8408 41.4654V35.2145C44.8408 34.98 44.934 34.755 45.0999 34.5891C45.2657 34.4233 45.4907 34.3301 45.7253 34.3301C45.9598 34.3301 46.1848 34.4233 46.3507 34.5891C46.5165 34.755 46.6097 34.98 46.6097 35.2145V41.4654C46.6097 41.6999 46.5165 41.9249 46.3507 42.0908C46.1848 42.2566 45.9598 42.3498 45.7253 42.3498Z" fill="#8566FF"/>
<path d="M32.2685 42.3498C32.0339 42.3498 31.8089 42.2566 31.6431 42.0908C31.4772 41.9249 31.384 41.6999 31.384 41.4654V35.2145C31.384 34.98 31.4772 34.755 31.6431 34.5891C31.8089 34.4233 32.0339 34.3301 32.2685 34.3301C32.503 34.3301 32.728 34.4233 32.8939 34.5891C33.0597 34.755 33.1529 34.98 33.1529 35.2145V41.4654C33.1529 41.6999 33.0597 41.9249 32.8939 42.0908C32.728 42.2566 32.503 42.3498 32.2685 42.3498Z" fill="#8566FF"/>
</svg>
