<svg width="76" height="76" viewBox="0 0 76 76" fill="none" xmlns="http://www.w3.org/2000/svg">
<circle cx="38" cy="38" r="38" fill="#F0F0F0"/>
<path d="M43.4154 58C39.3444 58 35.3648 56.8271 31.9799 54.6294C28.595 52.4318 25.9568 49.3082 24.3989 45.6537C22.841 41.9991 22.4333 37.9779 23.2275 34.0982C24.0217 30.2186 25.9822 26.6549 28.8608 23.8578C31.7394 21.0608 35.407 19.156 39.3998 18.3843C43.3925 17.6126 47.5312 18.0086 51.2924 19.5224C55.0535 21.0361 58.2681 23.5996 60.5298 26.8886C62.7915 30.1776 63.9988 34.0444 63.9988 38C63.9988 43.3043 61.8301 48.3914 57.97 52.1422C54.1098 55.8929 48.8745 58 43.4154 58ZM43.4154 20.1052C39.773 20.1052 36.2123 21.1547 33.1837 23.121C30.1551 25.0873 27.7945 27.8821 26.4006 31.152C25.0066 34.4218 24.642 38.0198 25.3527 41.4911C26.0633 44.9623 27.8172 48.1509 30.3928 50.6535C32.9684 53.1562 36.2501 54.8604 39.8225 55.5509C43.395 56.2413 47.098 55.887 50.4632 54.5325C53.8284 53.1781 56.7046 50.8846 58.7282 47.9418C60.7519 44.999 61.8321 41.5392 61.8321 38C61.8321 33.254 59.8917 28.7025 56.4379 25.3466C52.9841 21.9906 48.2998 20.1052 43.4154 20.1052Z" fill="#8566FF"/>
<path d="M23.918 23.2627H14.168V25.368H23.918V23.2627Z" fill="#8566FF"/>
<path d="M29.332 18H19.582V20.1053H29.332V18Z" fill="#8566FF"/>
<path d="M20.668 29.5791H14.168V31.6844H20.668V29.5791Z" fill="#8566FF"/>
<path d="M19.5833 35.8945H12V37.9998H19.5833V35.8945Z" fill="#8566FF"/>
<path d="M20.6667 43.2627H12V45.368H20.6667V43.2627Z" fill="#8566FF"/>
<path d="M23.918 49.5791H17.418V51.6844H23.918V49.5791Z" fill="#8566FF"/>
<path d="M29.332 54.8418H19.582V56.9471H29.332V54.8418Z" fill="#8566FF"/>
<path d="M43.418 41.1576C42.7752 41.1576 42.1468 40.9724 41.6124 40.6254C41.0779 40.2784 40.6613 39.7852 40.4153 39.2082C40.1693 38.6312 40.105 37.9963 40.2304 37.3837C40.3558 36.7711 40.6654 36.2084 41.1199 35.7667C41.5744 35.3251 42.1535 35.0243 42.7839 34.9025C43.4144 34.7806 44.0678 34.8432 44.6616 35.0822C45.2555 35.3212 45.7632 35.7259 46.1203 36.2452C46.4774 36.7645 46.668 37.3751 46.668 37.9997C46.668 38.8372 46.3255 39.6405 45.716 40.2327C45.1065 40.8249 44.28 41.1576 43.418 41.1576ZM43.418 36.9471C43.2038 36.9471 42.9942 37.0089 42.816 37.1245C42.6379 37.2402 42.4991 37.4045 42.4171 37.5969C42.3351 37.7892 42.3136 38.0009 42.3554 38.205C42.3972 38.4092 42.5004 38.5969 42.6519 38.7441C42.8034 38.8913 42.9964 38.9915 43.2066 39.0322C43.4167 39.0728 43.6346 39.052 43.8326 38.9723C44.0306 38.8926 44.1997 38.7576 44.3187 38.5845C44.4378 38.4114 44.5014 38.2079 44.5014 37.9997C44.5014 37.7205 44.3871 37.4527 44.184 37.2553C43.9808 37.0579 43.7053 36.9471 43.418 36.9471Z" fill="#8566FF"/>
<path d="M45.5843 36.9469C45.4409 36.9463 45.2991 36.9181 45.167 36.8639C45.035 36.8097 44.9153 36.7305 44.815 36.6311C44.6132 36.4339 44.5 36.1671 44.5 35.889C44.5 35.6109 44.6132 35.3442 44.815 35.147L52.3983 27.7785C52.6056 27.6061 52.8722 27.5159 53.1448 27.5262C53.4175 27.5364 53.6761 27.6462 53.869 27.8337C54.0619 28.0211 54.1751 28.2725 54.1856 28.5374C54.1961 28.8024 54.1034 29.0613 53.9259 29.2627L46.3425 36.6311C46.1425 36.8294 45.87 36.943 45.5843 36.9469Z" fill="#8566FF"/>
<path d="M50.9463 46.368C50.803 46.3674 50.6613 46.3394 50.5292 46.2851C50.3972 46.2309 50.2775 46.1518 50.1772 46.0523L44.7605 40.7892C44.5831 40.5878 44.4903 40.3287 44.5008 40.0638C44.5113 39.7989 44.6243 39.5476 44.8173 39.3602C45.0102 39.1727 45.2689 39.0628 45.5416 39.0525C45.8142 39.0423 46.0807 39.1325 46.2879 39.3049L51.7046 44.5681C51.9064 44.7653 52.0197 45.0322 52.0197 45.3103C52.0197 45.5883 51.9064 45.8551 51.7046 46.0523C51.5046 46.2506 51.2321 46.3641 50.9463 46.368Z" fill="#8566FF"/>
</svg>
