<svg width="45" height="45" viewBox="0 0 45 45" fill="none" xmlns="http://www.w3.org/2000/svg">
<g id="Group 927">
<g id="Group 977">
<path id="Vector" d="M32.2081 18.8208H25.4594C25.4594 18.8208 24.8547 18.5245 25.1873 17.0067C25.3747 16.1298 27.4611 10.3849 23.6997 9.375H23.6271H23.5545H23.2945H23.1735H23.1191H23.0768L23.0042 9.41128L22.9559 9.44756C22.9364 9.46216 22.9182 9.47836 22.9014 9.49595C22.8827 9.51006 22.8682 9.52881 22.8591 9.55036C22.8455 9.5663 22.8352 9.58482 22.8288 9.6048C22.8268 9.62289 22.8268 9.64112 22.8288 9.6592C22.7413 9.8666 22.6901 10.0875 22.6776 10.3123C22.593 11.2436 22.7865 12.568 22.2725 13.3722C21.9036 13.977 20.9723 15.2469 19.9927 16.6076C19.013 17.9682 18.0999 19.226 17.5435 20.0605C17.347 20.3134 17.1825 20.5897 17.0537 20.8829V32.0039C17.0537 32.1643 17.1174 32.3181 17.2308 32.4315C17.3442 32.5449 17.4981 32.6086 17.6584 32.6086H29.4748C29.7027 32.6104 29.9288 32.5672 30.14 32.4816L30.2307 32.4454C30.3164 32.407 30.3993 32.3625 30.4786 32.3123L30.6298 32.2035L30.7689 32.0764L30.8113 32.0281L30.8596 31.9797L30.9866 31.8164L31.0229 31.762L31.0894 31.6471C31.1273 31.5784 31.1616 31.5077 31.1922 31.4354C31.1948 31.4032 31.1948 31.3709 31.1922 31.3387C31.2099 31.2981 31.222 31.2554 31.2285 31.2117V31.1391C31.242 31.0752 31.2521 31.0106 31.2587 30.9456C31.2587 30.9456 31.2587 30.8972 31.2587 30.873V30.6614C31.2619 30.6292 31.2619 30.5968 31.2587 30.5646V30.4618C31.2587 30.4618 31.2587 30.4255 31.2587 30.4074L31.2224 30.2744V30.2018C31.1891 30.1023 31.1445 30.0069 31.0894 29.9176C31.2028 29.8945 31.314 29.8622 31.422 29.8208H31.4885C31.5723 29.7846 31.6531 29.7422 31.7305 29.6938L31.7849 29.6575L31.8997 29.5789L31.9965 29.4882L32.0448 29.4398L32.0933 29.3915C32.2222 29.2585 32.3284 29.1053 32.4077 28.9379V28.8956C32.4315 28.8509 32.4517 28.8044 32.4682 28.7565C32.4682 28.7565 32.4682 28.7081 32.4682 28.6839V28.6053V28.5388V28.436C32.4682 28.436 32.4682 28.436 32.4682 28.3937C32.4682 28.3513 32.4682 28.3634 32.4682 28.3453C32.4682 28.3271 32.4682 28.3453 32.4682 28.2969C32.4652 28.2708 32.4652 28.2444 32.4682 28.2183V28.1336C32.4682 28.0611 32.4682 27.9885 32.4682 27.922C32.4682 27.8555 32.4682 27.8736 32.4682 27.8555C32.4682 27.8373 32.4682 27.8192 32.4682 27.801C32.4682 27.7829 32.4682 27.7587 32.4682 27.7345V27.6619V27.6257C32.4429 27.5337 32.4085 27.4446 32.3654 27.3596C32.3676 27.3415 32.3676 27.3232 32.3654 27.3052C32.3018 27.177 32.2225 27.0571 32.1295 26.9484C32.0364 26.834 31.9287 26.7323 31.8091 26.646C32.0003 26.6347 32.1882 26.5917 32.3654 26.519C32.4092 26.5045 32.4517 26.4863 32.4923 26.4646L32.6133 26.4041L32.6738 26.3678L32.7282 26.3315C32.7689 26.3068 32.8074 26.2785 32.8431 26.2469L32.8915 26.2046L32.9943 26.1138L33.079 26.0231C33.1085 25.9937 33.1348 25.9613 33.1576 25.9264L33.2302 25.8236L33.2967 25.7147V25.6603V25.5998L33.3511 25.4728V25.4184L33.3874 25.3035V25.2491C33.4074 25.1594 33.4215 25.0685 33.4297 24.977C33.4297 24.977 33.4297 24.9286 33.4297 24.9044V24.7109C33.4297 24.7109 33.4297 24.7109 33.4297 24.6685C33.4297 24.6685 33.4297 24.6202 33.4297 24.596V24.5053C33.4331 24.461 33.4331 24.4165 33.4297 24.3722C33.4297 24.2997 33.3874 24.2332 33.3632 24.1606C33.3391 24.0934 33.3087 24.0286 33.2725 23.9671C33.2377 23.9025 33.1994 23.8399 33.1576 23.7796L33.0971 23.6889C33.0487 23.6345 33.0064 23.5801 32.9519 23.5256C32.9003 23.4761 32.8458 23.4296 32.7887 23.3865L32.7041 23.32C32.3954 23.0992 32.0253 22.9808 31.6458 22.9814H32.2021C32.4876 22.9828 32.7701 22.9231 33.0306 22.806L33.0971 22.7757L33.2362 22.6971C33.318 22.6481 33.395 22.5915 33.466 22.5278L33.5204 22.4794L33.5748 22.431L33.6292 22.3766L33.6777 22.3222L33.72 22.2738C33.7551 22.2375 33.7856 22.1968 33.8107 22.1529C33.8327 22.1282 33.8529 22.1019 33.8711 22.0743L33.9256 21.9896C33.9846 21.8828 34.0351 21.7716 34.0768 21.657V21.5966V21.5421C34.0768 21.5421 34.0768 21.5058 34.0768 21.4817C34.0987 21.4043 34.1148 21.3255 34.1251 21.2458C34.1222 21.2298 34.1222 21.2134 34.1251 21.1974C34.1251 21.1611 34.1251 21.1248 34.1251 21.0886V20.9858C34.1415 20.7177 34.1049 20.4491 34.0174 20.1952C33.93 19.9413 33.7933 19.7071 33.6153 19.5061C33.4373 19.305 33.2214 19.141 32.9799 19.0234C32.7385 18.9059 32.4762 18.837 32.2081 18.8208Z" stroke="#141232" stroke-linejoin="round"/>
<path id="Vector_2" d="M14.435 18.9775H10.6676C10.2668 18.9775 9.94189 19.3024 9.94189 19.7032V31.9066C9.94189 32.3074 10.2668 32.6323 10.6676 32.6323H14.435C14.8358 32.6323 15.1607 32.3074 15.1607 31.9066V19.7032C15.1607 19.3024 14.8358 18.9775 14.435 18.9775Z" stroke="#141232" stroke-linejoin="round"/>
<path id="Vector_3" d="M12.1372 30.2139H13.3467" stroke="#141232" stroke-miterlimit="10"/>
</g>
<circle id="Ellipse 148" cx="22.5" cy="22.5" r="22" stroke="black"/>
</g>
</svg>
