<svg width="76" height="76" viewBox="0 0 76 76" fill="none" xmlns="http://www.w3.org/2000/svg">
<circle cx="38" cy="38" r="38" fill="#F0F0F0"/>
<path fill-rule="evenodd" clip-rule="evenodd" d="M41.3524 48.6764C41.5178 48.3875 41.8861 48.2874 42.175 48.4528L42.4739 48.624C42.7628 48.7894 42.8629 49.1577 42.6975 49.4466C42.5321 49.7355 42.1638 49.8356 41.8749 49.6702L41.5759 49.499C41.2871 49.3336 41.1869 48.9653 41.3524 48.6764Z" fill="#8566FF"/>
<path fill-rule="evenodd" clip-rule="evenodd" d="M41.6522 48.8457C41.8185 48.5573 42.1871 48.4583 42.4755 48.6246L49.5038 52.6776C49.7921 52.8439 49.8911 53.2125 49.7248 53.5009C49.5585 53.7893 49.1899 53.8882 48.9015 53.7219L41.8733 49.669C41.5849 49.5027 41.4859 49.1341 41.6522 48.8457Z" fill="#8566FF"/>
<path fill-rule="evenodd" clip-rule="evenodd" d="M38.0578 52.9334C38.2291 52.6479 38.5993 52.5553 38.8848 52.7266L38.933 52.7555C39.2185 52.9268 39.311 53.2971 39.1397 53.5825C38.9685 53.868 38.5982 53.9606 38.3128 53.7893L38.2645 53.7604C37.9791 53.5891 37.8865 53.2188 38.0578 52.9334Z" fill="#8566FF"/>
<path fill-rule="evenodd" clip-rule="evenodd" d="M38.1008 52.9718C38.267 52.6834 38.6356 52.5843 38.924 52.7505L44.1535 55.7644C44.442 55.9306 44.541 56.2992 44.3748 56.5876C44.2086 56.876 43.84 56.9751 43.5516 56.8089L38.322 53.795C38.0336 53.6288 37.9345 53.2602 38.1008 52.9718Z" fill="#8566FF"/>
<path fill-rule="evenodd" clip-rule="evenodd" d="M41.1877 48.5769C41.3547 48.2889 41.7235 48.1908 42.0115 48.3578L42.1779 48.4542C42.4659 48.6212 42.564 48.99 42.397 49.278C42.23 49.566 41.8612 49.6641 41.5732 49.4971L41.4068 49.4007C41.1189 49.2337 41.0208 48.8649 41.1877 48.5769Z" fill="#8566FF"/>
<path fill-rule="evenodd" clip-rule="evenodd" d="M37.7596 52.7597C37.927 52.4719 38.296 52.3744 38.5838 52.5418L38.8779 52.713C39.1657 52.8804 39.2632 53.2494 39.0958 53.5372C38.9283 53.8249 38.5593 53.9224 38.2716 53.755L37.9774 53.5838C37.6897 53.4164 37.5922 53.0474 37.7596 52.7597Z" fill="#8566FF"/>
<path fill-rule="evenodd" clip-rule="evenodd" d="M32.0761 55.6661C32.2429 55.378 32.6116 55.2797 32.8997 55.4464L33.4495 55.7647C33.7376 55.9315 33.8359 56.3003 33.6691 56.5884C33.5023 56.8765 33.1336 56.9748 32.8455 56.808L32.2957 56.4897C32.0076 56.323 31.9093 55.9542 32.0761 55.6661Z" fill="#8566FF"/>
<path fill-rule="evenodd" clip-rule="evenodd" d="M27.1115 52.8114C27.2758 52.5218 27.6436 52.4202 27.9332 52.5844L28.0947 52.676C28.3843 52.8403 28.4859 53.2082 28.3217 53.4977C28.1574 53.7873 27.7896 53.8889 27.5 53.7247L27.3385 53.633C27.0489 53.4688 26.9473 53.1009 27.1115 52.8114Z" fill="#8566FF"/>
<path fill-rule="evenodd" clip-rule="evenodd" d="M32.5448 56.2864C32.5448 55.9535 32.8147 55.6836 33.1476 55.6836H33.15C33.4829 55.6836 33.7527 55.9535 33.7527 56.2864C33.7527 56.6193 33.4829 56.8891 33.15 56.8891H33.1476C32.8147 56.8891 32.5448 56.6193 32.5448 56.2864Z" fill="#8566FF"/>
<path fill-rule="evenodd" clip-rule="evenodd" d="M41.6522 48.8457C41.8185 48.5573 42.1871 48.4583 42.4755 48.6246L49.5037 52.6776C49.7921 52.8439 49.8911 53.2125 49.7248 53.5009C49.5585 53.7893 49.1899 53.8883 48.9015 53.722L41.8733 49.669C41.5849 49.5027 41.4859 49.1341 41.6522 48.8457Z" fill="#8566FF"/>
<path fill-rule="evenodd" clip-rule="evenodd" d="M53.5836 49.9045C53.5836 49.5716 53.8535 49.3018 54.1864 49.3018H54.1888C54.5217 49.3018 54.7916 49.5716 54.7916 49.9045C54.7916 50.2374 54.5217 50.5073 54.1888 50.5073H54.1864C53.8535 50.5073 53.5836 50.2374 53.5836 49.9045Z" fill="#8566FF"/>
<path fill-rule="evenodd" clip-rule="evenodd" d="M37.6907 52.7645C37.8447 52.4694 38.2088 52.3549 38.5039 52.5089L38.5593 52.5378C38.8545 52.6918 38.9689 53.0559 38.8149 53.3511C38.661 53.6462 38.2969 53.7606 38.0017 53.6067L37.9463 53.5777C37.6511 53.4237 37.5367 53.0596 37.6907 52.7645Z" fill="#8566FF"/>
<path fill-rule="evenodd" clip-rule="evenodd" d="M37.1968 58.6199C37.3632 58.3316 37.7318 58.2328 38.0201 58.3992L38.8013 58.85C39.0896 59.0164 39.1885 59.3851 39.0221 59.6734C38.8557 59.9617 38.487 60.0606 38.1987 59.8941L37.4175 59.4433C37.1292 59.2769 37.0304 58.9082 37.1968 58.6199Z" fill="#8566FF"/>
<path fill-rule="evenodd" clip-rule="evenodd" d="M37.6907 52.7547C37.8447 52.4596 38.2088 52.3452 38.5039 52.4992L38.5594 52.5281C38.8545 52.6821 38.9689 53.0462 38.8149 53.3413C38.6609 53.6365 38.2968 53.7509 38.0017 53.5969L37.9463 53.5679C37.6511 53.414 37.5367 53.0499 37.6907 52.7547Z" fill="#8566FF"/>
<path fill-rule="evenodd" clip-rule="evenodd" d="M37.5883 52.6659C37.7579 52.3795 38.1276 52.2847 38.414 52.4543L38.5322 52.5242C38.8187 52.6938 38.9134 53.0635 38.7439 53.3499C38.5743 53.6364 38.2046 53.7312 37.9181 53.5616L37.8 53.4917C37.5135 53.3221 37.4187 52.9524 37.5883 52.6659Z" fill="#8566FF"/>
<path fill-rule="evenodd" clip-rule="evenodd" d="M41.3524 48.6764C41.5178 48.3875 41.8861 48.2874 42.1749 48.4528L42.4739 48.624C42.7628 48.7894 42.8629 49.1577 42.6975 49.4466C42.5321 49.7355 42.1638 49.8356 41.8749 49.6702L41.576 49.499C41.2871 49.3336 41.1869 48.9653 41.3524 48.6764Z" fill="#8566FF"/>
<path fill-rule="evenodd" clip-rule="evenodd" d="M37.7596 52.7694C37.9271 52.4817 38.2961 52.3842 38.5838 52.5516L38.8779 52.7228C39.1657 52.8903 39.2632 53.2592 39.0957 53.547C38.9283 53.8347 38.5593 53.9322 38.2716 53.7647L37.9774 53.5936C37.6897 53.4261 37.5922 53.0571 37.7596 52.7694Z" fill="#8566FF"/>
<path fill-rule="evenodd" clip-rule="evenodd" d="M38.1007 52.9717C38.267 52.6833 38.6356 52.5843 38.924 52.7506L44.1511 55.7644C44.4395 55.9307 44.5385 56.2993 44.3722 56.5877C44.206 56.8761 43.8374 56.9751 43.549 56.8088L38.3218 53.795C38.0334 53.6287 37.9344 53.2601 38.1007 52.9717Z" fill="#8566FF"/>
<path fill-rule="evenodd" clip-rule="evenodd" d="M38.0578 52.9333C38.2291 52.6479 38.5994 52.5553 38.8848 52.7266L38.933 52.7556C39.2185 52.9269 39.311 53.2971 39.1397 53.5826C38.9684 53.868 38.5981 53.9606 38.3127 53.7893L38.2645 53.7603C37.979 53.589 37.8865 53.2188 38.0578 52.9333Z" fill="#8566FF"/>
<path fill-rule="evenodd" clip-rule="evenodd" d="M43.6857 56.1889C43.8528 55.901 44.2217 55.8031 44.5096 55.9702C44.8819 56.1863 45.2079 56.4738 45.4689 56.8161C45.7299 57.1585 45.9208 57.5489 46.0306 57.9652C46.1404 58.3814 46.167 58.8153 46.1089 59.2418C46.0508 59.6682 45.9091 60.0789 45.692 60.4505M45.6918 60.4509L45.6596 60.5061C45.6593 60.5065 45.6591 60.5069 45.6589 60.5073C45.2344 61.2413 44.536 61.7768 43.717 61.9962C42.8975 62.2156 42.0245 62.1007 41.2897 61.6767C41.2897 61.6766 41.2897 61.6766 41.2896 61.6766L38.2012 59.8949C37.9128 59.7285 37.8139 59.3599 37.9803 59.0716C38.1466 58.7832 38.5153 58.6843 38.8036 58.8507L41.8922 60.6324L41.8923 60.6325C42.3502 60.8968 42.8943 60.9685 43.4051 60.8317C43.9158 60.6949 44.3512 60.3609 44.6157 59.903L44.617 59.9008L44.617 59.9008L44.6508 59.843L44.651 59.8425C44.7882 59.6078 44.8777 59.3484 44.9144 59.079C44.9511 58.8096 44.9343 58.5356 44.865 58.2727C44.7956 58.0099 44.675 57.7633 44.5102 57.5471C44.3454 57.3309 44.1395 57.1493 43.9044 57.0128C43.6165 56.8457 43.5185 56.4769 43.6857 56.1889" fill="#8566FF"/>
<path fill-rule="evenodd" clip-rule="evenodd" d="M43.8632 43.9491C44.0295 43.6608 44.3981 43.5619 44.6865 43.7282L54.485 49.3797C54.5325 49.4071 54.5748 49.4399 54.6116 49.477C54.8008 49.6651 54.848 49.9635 54.7084 50.2055C54.542 50.4938 54.1734 50.5927 53.8851 50.4264L44.0842 44.7725C43.7958 44.6061 43.6969 44.2375 43.8632 43.9491Z" fill="#8566FF"/>
<path fill-rule="evenodd" clip-rule="evenodd" d="M48.6835 52.8985C48.8503 52.6104 49.2191 52.5121 49.5072 52.6789L49.9653 52.9441C50.2534 53.1109 50.3517 53.4797 50.1849 53.7678C50.0181 54.0559 49.6493 54.1542 49.3612 53.9874L48.9031 53.7222C48.615 53.5554 48.5167 53.1866 48.6835 52.8985Z" fill="#8566FF"/>
<path fill-rule="evenodd" clip-rule="evenodd" d="M48.6804 52.8997C48.8465 52.6112 49.2151 52.5121 49.5035 52.6782L49.964 52.9434C50.2525 53.1095 50.3517 53.4781 50.1856 53.7666C50.0194 54.055 49.6509 54.1542 49.3624 53.9881L48.9019 53.7229C48.6134 53.5567 48.5142 53.1882 48.6804 52.8997Z" fill="#8566FF"/>
<path fill-rule="evenodd" clip-rule="evenodd" d="M43.3376 55.9904C43.5038 55.7019 43.8724 55.6029 44.1608 55.7691L44.508 55.9692C44.7964 56.1354 44.8955 56.504 44.7293 56.7924C44.563 57.0809 44.1945 57.1799 43.906 57.0137L43.5588 56.8136C43.2704 56.6474 43.1714 56.2788 43.3376 55.9904Z" fill="#8566FF"/>
<path fill-rule="evenodd" clip-rule="evenodd" d="M56.4453 45.048C56.6105 44.7589 56.9787 44.6585 57.2677 44.8237L58.9555 45.7881L58.959 45.7901C59.3317 46.0065 59.6581 46.2943 59.9194 46.6371C60.1806 46.9798 60.3716 47.3708 60.4815 47.7876C60.5913 48.2043 60.6177 48.6387 60.5593 49.0657C60.5009 49.4925 60.3589 49.9036 60.1413 50.2754C60.1412 50.2756 60.1411 50.2757 60.141 50.2759L60.109 50.3308C60.1088 50.3312 60.1085 50.3316 60.1083 50.332C59.6839 51.066 58.9854 51.6015 58.1664 51.8209C57.3469 52.0404 56.4738 51.9254 55.7391 51.5013L53.8897 50.4331C53.6014 50.2666 53.5027 49.898 53.6692 49.6097C53.8357 49.3214 54.2043 49.2227 54.4926 49.3892L56.3418 50.4572C56.3417 50.4572 56.3418 50.4572 56.3418 50.4572C56.7996 50.7215 57.3438 50.7932 57.8545 50.6564C58.3652 50.5196 58.8007 50.1856 59.0651 49.7278L59.0664 49.7255L59.1006 49.6669C59.2382 49.4319 59.328 49.1721 59.3649 48.9023C59.4018 48.6325 59.3851 48.3581 59.3157 48.0947C59.2464 47.8315 59.1257 47.5844 58.9606 47.3679C58.7959 47.1518 58.5903 46.9703 58.3555 46.8337L56.6696 45.8704C56.3806 45.7052 56.2802 45.337 56.4453 45.048Z" fill="#8566FF"/>
<path fill-rule="evenodd" clip-rule="evenodd" d="M43.3275 55.9863C43.4933 55.6976 43.8617 55.598 44.1504 55.7638L44.5072 55.9687C44.7959 56.1345 44.8955 56.5029 44.7297 56.7916C44.5639 57.0803 44.1955 57.1799 43.9068 57.0141L43.55 56.8092C43.2613 56.6434 43.1617 56.2749 43.3275 55.9863Z" fill="#8566FF"/>
<path fill-rule="evenodd" clip-rule="evenodd" d="M53.6764 49.5861C53.8517 49.3031 54.2233 49.2159 54.5062 49.3913C55.2307 49.8403 55.7517 50.5539 55.9587 51.3807C56.1656 52.2075 56.0423 53.0825 55.6148 53.8198C55.1873 54.5572 54.4893 55.099 53.6689 55.3302C52.8485 55.5614 51.9704 55.4638 51.2207 55.0581C51.216 55.0556 51.2113 55.0529 51.2066 55.0502L49.3621 53.987C49.0737 53.8207 48.9747 53.4521 49.141 53.1637C49.3072 52.8753 49.6758 52.7763 49.9642 52.9426L51.8012 54.0015C52.2735 54.2549 52.8258 54.3153 53.3419 54.1698C53.8604 54.0237 54.3016 53.6813 54.5719 53.2152C54.8421 52.7491 54.92 52.1961 54.7892 51.6735C54.6584 51.1508 54.3291 50.6998 53.8712 50.416C53.5882 50.2406 53.501 49.8691 53.6764 49.5861Z" fill="#8566FF"/>
<path fill-rule="evenodd" clip-rule="evenodd" d="M49.1418 53.1628C49.3088 52.8748 49.6776 52.7767 49.9656 52.9437C50.3383 53.1598 50.6646 53.4474 50.9259 53.79C51.1872 54.1326 51.3782 54.5233 51.488 54.9399C51.5979 55.3565 51.6244 55.7907 51.566 56.2175C51.5076 56.6442 51.3656 57.0551 51.1481 57.4268C51.148 57.4269 51.1479 57.4271 51.1478 57.4273L51.1153 57.483C51.1151 57.4833 51.115 57.4835 51.1149 57.4838C50.6894 58.2167 49.9908 58.7512 49.172 58.9699C48.353 59.1887 47.4806 59.0738 46.7462 58.6504C46.7462 58.6504 46.7461 58.6503 46.7461 58.6503L43.906 57.0132C43.6176 56.847 43.5185 56.4784 43.6848 56.19C43.851 55.9016 44.2196 55.8026 44.508 55.9688L47.3482 57.6059L47.3483 57.606C47.8062 57.87 48.3502 57.9417 48.8608 57.8052C49.3715 57.6688 49.8073 57.3354 50.0725 56.8782L50.0732 56.8768L50.107 56.819L50.1075 56.8182C50.245 56.5834 50.3347 56.3237 50.3716 56.0542C50.4085 55.7846 50.3917 55.5104 50.3223 55.2473C50.253 54.9842 50.1323 54.7374 49.9673 54.5211C49.8023 54.3047 49.5962 54.1231 49.3609 53.9866C49.0729 53.8196 48.9748 53.4508 49.1418 53.1628Z" fill="#8566FF"/>
<path fill-rule="evenodd" clip-rule="evenodd" d="M14.7497 41.9864C14.916 41.698 15.2846 41.599 15.573 41.7652L20.207 44.4367C20.3448 44.5161 20.4456 44.6468 20.4875 44.8003C20.5068 44.8709 20.5233 44.9187 20.5444 44.9796C20.561 45.0277 20.5805 45.084 20.6063 45.1661C20.7063 45.4836 20.5299 45.822 20.2124 45.922C19.8948 46.022 19.5564 45.8456 19.4564 45.5281C19.4493 45.5054 19.4378 45.4714 19.4242 45.4312C19.4171 45.4102 19.4094 45.3875 19.4015 45.3638L14.9709 42.8096C14.6825 42.6434 14.5835 42.2748 14.7497 41.9864Z" fill="#8566FF"/>
<path fill-rule="evenodd" clip-rule="evenodd" d="M23.8467 26.2403C24.0129 25.9519 24.3815 25.8529 24.6699 26.0191L29.0535 28.5462L30.3755 28.0315C33.0649 26.985 36.053 27.0068 38.7268 28.0925C39.0353 28.2178 39.1838 28.5694 39.0585 28.8778C38.9333 29.1862 38.5817 29.3347 38.2733 29.2095C35.8847 28.2396 33.2155 28.22 30.8129 29.1548L29.2216 29.7745C29.0513 29.8408 28.8602 29.8263 28.7019 29.735L24.0678 27.0635C23.7794 26.8973 23.6804 26.5287 23.8467 26.2403Z" fill="#8566FF"/>
<path fill-rule="evenodd" clip-rule="evenodd" d="M8.06684 40.9728C8.21908 40.6767 8.58248 40.5601 8.87853 40.7124L13.9667 43.3288L14.75 41.9738C14.9167 41.6856 15.2854 41.5871 15.5736 41.7537C15.8618 41.9203 15.9603 42.289 15.7937 42.5772L14.7232 44.4289C14.5624 44.7071 14.2115 44.8102 13.9257 44.6632L8.32725 41.7844C8.0312 41.6322 7.91461 41.2688 8.06684 40.9728Z" fill="#8566FF"/>
<path fill-rule="evenodd" clip-rule="evenodd" d="M15.1691 18.7657C15.3354 18.4773 15.704 18.3783 15.9924 18.5445L25.7403 24.1647C25.8789 24.2446 25.98 24.3764 26.0215 24.5309C26.0629 24.6854 26.0412 24.8501 25.9611 24.9886L15.7937 42.5772C15.6271 42.8654 15.2584 42.964 14.9701 42.7974C14.6819 42.6308 14.5834 42.2621 14.75 41.9739L24.6154 24.9077L15.3903 19.5889C15.1019 19.4226 15.0029 19.0541 15.1691 18.7657Z" fill="#8566FF"/>
<path fill-rule="evenodd" clip-rule="evenodd" d="M23.3326 49.6041C23.4997 49.8921 23.4016 50.2609 23.1137 50.428C22.8786 50.5643 22.6728 50.7456 22.5078 50.9614C22.3429 51.1773 22.2221 51.4236 22.1523 51.6862C22.0825 51.9488 22.0651 52.2225 22.1011 52.4918C22.1371 52.7611 22.2258 53.0206 22.3622 53.2557C22.4985 53.4907 22.6798 53.6965 22.8956 53.8615C23.1115 54.0264 23.3578 54.1473 23.6204 54.217C23.883 54.2868 24.1567 54.3042 24.426 54.2682C24.6953 54.2322 24.9548 54.1435 25.1899 54.0072L25.1915 54.0062L26.6526 53.1648C26.9411 52.9986 27.3096 53.0978 27.4757 53.3863C27.6419 53.6748 27.5427 54.0433 27.2542 54.2094L25.7948 55.0499C25.7945 55.0501 25.7942 55.0503 25.7939 55.0504C25.4222 55.2659 25.0117 55.4062 24.5858 55.4631C24.1595 55.5201 23.7263 55.4926 23.3107 55.3821C22.8952 55.2717 22.5054 55.0805 22.1637 54.8194C21.822 54.5583 21.5351 54.2325 21.3194 53.8606C21.1036 53.4886 20.9632 53.0778 20.9062 52.6516C20.8492 52.2254 20.8767 51.7921 20.9872 51.3765C21.0976 50.961 21.2888 50.5712 21.5499 50.2295C21.811 49.8878 22.1368 49.6009 22.5088 49.3852C22.7967 49.2181 23.1656 49.3162 23.3326 49.6041Z" fill="#8566FF"/>
<path fill-rule="evenodd" clip-rule="evenodd" d="M35.9585 60.7998C36.1393 61.0793 36.0594 61.4525 35.7799 61.6333L35.7389 61.6598C35.4594 61.8407 35.0862 61.7607 34.9054 61.4812C34.7245 61.2017 34.8045 60.8286 35.084 60.6477L35.125 60.6212C35.4045 60.4403 35.7776 60.5203 35.9585 60.7998Z" fill="#8566FF"/>
<path fill-rule="evenodd" clip-rule="evenodd" d="M28.4061 52.8679C28.5655 53.1602 28.4578 53.5263 28.1655 53.6857L28.086 53.7291C27.7937 53.8886 27.4276 53.7809 27.2682 53.4886C27.1088 53.1964 27.2164 52.8302 27.5087 52.6708L27.5883 52.6274C27.8805 52.468 28.2466 52.5757 28.4061 52.8679Z" fill="#8566FF"/>
<path fill-rule="evenodd" clip-rule="evenodd" d="M43.2474 56.2864C43.2474 55.9535 43.5173 55.6836 43.8502 55.6836H43.8526C44.1855 55.6836 44.4554 55.9535 44.4554 56.2864C44.4554 56.6193 44.1855 56.8891 43.8526 56.8891H43.8502C43.5173 56.8891 43.2474 56.6193 43.2474 56.2864Z" fill="#8566FF"/>
<path fill-rule="evenodd" clip-rule="evenodd" d="M36.995 60.2411C37.1608 60.5297 37.0613 60.8982 36.7726 61.064L35.7527 61.6499C35.4641 61.8157 35.0956 61.7161 34.9298 61.4275C34.764 61.1388 34.8636 60.7704 35.1522 60.6046L36.1721 60.0187C36.4608 59.8529 36.8292 59.9524 36.995 60.2411Z" fill="#8566FF"/>
<path fill-rule="evenodd" clip-rule="evenodd" d="M28.4728 53.5084C28.4046 53.548 28.3047 53.6058 28.1778 53.6789C28.1628 53.6875 28.1476 53.6955 28.1322 53.7027C28.1213 53.709 28.1101 53.7155 28.0986 53.7221C27.8103 53.8885 27.4417 53.7897 27.2753 53.5013C27.1089 53.213 27.2077 52.8444 27.496 52.678C27.6602 52.5832 27.7793 52.5147 27.8577 52.4697C27.8968 52.4472 27.9263 52.4304 27.9464 52.419C27.9562 52.4134 27.9648 52.4085 27.9715 52.4048C27.9745 52.4031 27.9792 52.4005 27.9841 52.3978C27.9859 52.3968 27.9917 52.3937 27.9988 52.3901C28.0016 52.3887 28.0108 52.384 28.0229 52.3785C28.0281 52.3761 28.0422 52.3698 28.0607 52.3628C28.0706 52.3592 28.0958 52.3508 28.1113 52.3463C28.1378 52.3395 28.2196 52.3266 28.275 52.3242C28.4174 52.3418 28.7714 52.5882 28.8724 52.8646C28.8657 53.0362 28.7787 53.2548 28.7409 53.3068C28.7211 53.3301 28.6876 53.3645 28.6747 53.3763C28.6662 53.3837 28.6516 53.396 28.6455 53.4008C28.6261 53.4161 28.6094 53.4271 28.6068 53.4288C28.6067 53.4289 28.6066 53.4289 28.6066 53.429C28.5977 53.4349 28.5903 53.4395 28.5885 53.4406L28.5883 53.4407C28.5831 53.4439 28.5781 53.4469 28.5754 53.4485C28.569 53.4523 28.5609 53.4571 28.5519 53.4624C28.5335 53.4732 28.5068 53.4887 28.4728 53.5084Z" fill="#8566FF"/>
<path fill-rule="evenodd" clip-rule="evenodd" d="M27.8549 53.1703C28.0205 53.4591 27.9206 53.8274 27.6318 53.993L27.2532 54.21C26.9644 54.3755 26.5961 54.2756 26.4305 53.9868C26.265 53.698 26.3649 53.3297 26.6537 53.1641L27.0322 52.9471C27.321 52.7816 27.6894 52.8815 27.8549 53.1703Z" fill="#8566FF"/>
<path fill-rule="evenodd" clip-rule="evenodd" d="M23.412 49.5561C23.5792 49.8439 23.4813 50.2128 23.1934 50.38L23.1187 50.4234C22.8308 50.5905 22.4619 50.4927 22.2947 50.2048C22.1276 49.9169 22.2254 49.548 22.5133 49.3809L22.5881 49.3375C22.876 49.1703 23.2449 49.2682 23.412 49.5561Z" fill="#8566FF"/>
<path fill-rule="evenodd" clip-rule="evenodd" d="M23.412 49.5561C23.5792 49.8439 23.4813 50.2128 23.1934 50.38L23.1187 50.4234C22.8308 50.5905 22.4619 50.4927 22.2947 50.2048C22.1276 49.9169 22.2254 49.548 22.5133 49.3809L22.5881 49.3375C22.876 49.1703 23.2449 49.2682 23.412 49.5561Z" fill="#8566FF"/>
<path fill-rule="evenodd" clip-rule="evenodd" d="M39.0221 59.0713C39.1884 59.3597 39.0895 59.7282 38.8011 59.8946L36.7734 61.0639C36.485 61.2302 36.1164 61.1313 35.9501 60.8429C35.7838 60.5545 35.8827 60.1859 36.1711 60.0196L38.1988 58.8502C38.4872 58.6839 38.8558 58.7829 39.0221 59.0713Z" fill="#8566FF"/>
<path fill-rule="evenodd" clip-rule="evenodd" d="M23.8687 49.2939C24.035 49.5823 23.936 49.9509 23.6477 50.1172L23.192 50.38C22.9036 50.5463 22.535 50.4474 22.3687 50.159C22.2024 49.8706 22.3013 49.502 22.5897 49.3357L23.0454 49.0729C23.3338 48.9066 23.7024 49.0055 23.8687 49.2939Z" fill="#8566FF"/>
<path fill-rule="evenodd" clip-rule="evenodd" d="M20.5571 45.0411C20.7222 45.3302 20.6218 45.6984 20.3328 45.8635L18.6469 46.8269C18.4121 46.9634 18.2065 47.145 18.0418 47.361C17.8767 47.5776 17.756 47.8246 17.6866 48.0879C17.6173 48.3512 17.6006 48.6256 17.6375 48.8955C17.6744 49.1652 17.7642 49.4251 17.9018 49.6601L17.9022 49.6608L17.9372 49.7209C18.2017 50.1787 18.6372 50.5127 19.1479 50.6495C19.6586 50.7863 20.2026 50.7147 20.6605 50.4504C20.6605 50.4505 20.6605 50.4504 20.6605 50.4504L22.5098 49.3824C22.7981 49.2159 23.1667 49.3146 23.3332 49.6029C23.4997 49.8911 23.401 50.2598 23.1127 50.4263L21.2634 51.4944C20.5287 51.9185 19.6555 52.0335 18.836 51.814C18.017 51.5946 17.3185 51.0591 16.8941 50.3251C16.8938 50.3248 16.8936 50.3244 16.8934 50.324L16.8614 50.2691C16.8613 50.269 16.8612 50.2689 16.8612 50.2688C16.6436 49.8969 16.5015 49.4857 16.4431 49.0589C16.3846 48.6319 16.4111 48.1975 16.5209 47.7807C16.6307 47.364 16.8218 46.973 17.083 46.6302C17.3443 46.2875 17.6706 45.9996 18.0434 45.7833L18.0469 45.7812L19.7347 44.8168C20.0237 44.6517 20.3919 44.7521 20.5571 45.0411Z" fill="#8566FF"/>
<path fill-rule="evenodd" clip-rule="evenodd" d="M28.3185 52.898C28.4856 53.1859 28.3877 53.5548 28.0997 53.7219L27.6344 53.9919C27.3465 54.159 26.9776 54.061 26.8105 53.7731C26.6434 53.4852 26.7414 53.1163 27.0293 52.9492L27.4947 52.6792C27.7826 52.5121 28.1515 52.6101 28.3185 52.898Z" fill="#8566FF"/>
<path fill-rule="evenodd" clip-rule="evenodd" d="M23.3553 49.6323C23.5041 49.9301 23.3833 50.2921 23.0855 50.4409L23.0807 50.4433C22.7829 50.5921 22.4209 50.4714 22.2721 50.1736C22.1233 49.8758 22.244 49.5138 22.5418 49.3649L22.5467 49.3625C22.8444 49.2137 23.2065 49.3345 23.3553 49.6323Z" fill="#8566FF"/>
<path fill-rule="evenodd" clip-rule="evenodd" d="M28.3117 52.9034C28.4785 53.1915 28.3802 53.5603 28.0921 53.727L27.634 53.9923C27.3459 54.1591 26.9771 54.0607 26.8103 53.7726C26.6435 53.4845 26.7419 53.1158 27.03 52.949L27.4881 52.6838C27.7762 52.517 28.1449 52.6153 28.3117 52.9034Z" fill="#8566FF"/>
<path fill-rule="evenodd" clip-rule="evenodd" d="M53.1534 26.2403C53.3197 26.5287 53.2207 26.8973 52.9323 27.0635L48.2982 29.735C48.1399 29.8263 47.9487 29.8408 47.7785 29.7745L46.1873 29.1549C43.7847 28.2201 41.1154 28.2396 38.7268 29.2095C38.4184 29.3347 38.0668 29.1862 37.9415 28.8778C37.8163 28.5694 37.9648 28.2178 38.2732 28.0925C40.9471 27.0068 43.935 26.9849 46.6245 28.0314L47.9465 28.5462L52.3302 26.0191C52.6186 25.8529 52.9872 25.9519 53.1534 26.2403Z" fill="#8566FF"/>
<path fill-rule="evenodd" clip-rule="evenodd" d="M27.8532 53.1672C28.0204 53.4551 27.9227 53.824 27.6348 53.9912C27.3999 54.1277 27.1943 54.3092 27.0296 54.5252C26.8649 54.7412 26.7445 54.9876 26.6751 55.2503C26.6058 55.513 26.5889 55.7868 26.6254 56.0559C26.662 56.3251 26.7513 56.5844 26.8882 56.8191L26.9227 56.8782C27.1879 57.3355 27.6237 57.6689 28.1343 57.8053C28.6449 57.9417 29.1888 57.8701 29.6466 57.6062C29.6467 57.6062 29.6468 57.6061 29.6469 57.6061L31.1752 56.7238C31.4635 56.5573 31.8322 56.6561 31.9986 56.9444C32.1651 57.2327 32.0663 57.6014 31.778 57.7678L30.2491 58.6504C29.5147 59.0739 28.6422 59.1888 27.8232 58.97C27.0043 58.7512 26.3056 58.2167 25.8802 57.4837C25.8801 57.4835 25.88 57.4833 25.8799 57.4831L25.8469 57.4266C25.8469 57.4265 25.847 57.4266 25.8469 57.4266C25.6303 57.0551 25.4888 56.6444 25.4309 56.2182C25.373 55.7919 25.3997 55.3585 25.5095 54.9426C25.6193 54.5267 25.81 54.1365 26.0708 53.7944C26.3316 53.4523 26.6573 53.165 27.0292 52.9489C27.317 52.7816 27.6859 52.8794 27.8532 53.1672Z" fill="#8566FF"/>
<path fill-rule="evenodd" clip-rule="evenodd" d="M33.3168 56.1911C33.4838 56.4791 33.3858 56.8479 33.0978 57.0149C32.8628 57.1512 32.657 57.3325 32.4922 57.5485C32.3274 57.7645 32.2069 58.0109 32.1376 58.2735C32.0682 58.5362 32.0514 58.8099 32.0881 59.0791C32.1248 59.3482 32.2142 59.6075 32.3513 59.842L32.3867 59.9026C32.6512 60.3604 33.0866 60.6944 33.5973 60.8312C34.108 60.968 34.6522 60.8964 35.1101 60.6321C35.3984 60.4656 35.767 60.5644 35.9334 60.8527C36.0999 61.141 36.0011 61.5097 35.7127 61.6761C34.978 62.1002 34.1049 62.2152 33.2854 61.9957C32.4664 61.7763 31.7679 61.2408 31.3435 60.5068C31.3433 60.5064 31.343 60.506 31.3428 60.5056L31.3106 60.4505C31.3106 60.4504 31.3105 60.4503 31.3105 60.4502C31.0934 60.0788 30.9517 59.6681 30.8936 59.2419C30.8355 58.8155 30.8621 58.3818 30.972 57.9658C31.0818 57.5497 31.2728 57.1594 31.5338 56.8173C31.7948 56.4751 32.1208 56.1879 32.493 55.972C32.781 55.8051 33.1499 55.9031 33.3168 56.1911Z" fill="#8566FF"/>
<path fill-rule="evenodd" clip-rule="evenodd" d="M33.669 55.9843C33.8359 56.2724 33.7376 56.6411 33.4496 56.808L33.1 57.0106C32.8119 57.1774 32.4431 57.0792 32.2762 56.7911C32.1094 56.5031 32.2076 56.1343 32.4957 55.9674L32.8453 55.7649C33.1333 55.598 33.5021 55.6963 33.669 55.9843Z" fill="#8566FF"/>
<path fill-rule="evenodd" clip-rule="evenodd" d="M33.6339 56.7015C33.6343 56.7022 33.6343 56.7022 33.6343 56.7022L33.9654 56.5112C34.148 56.4059 34.3649 56.2808 34.5018 56.2018C34.5699 56.1625 34.6191 56.1341 34.6339 56.1255L34.6399 56.122L34.643 56.1202L34.6469 56.1178C34.6491 56.1165 34.6565 56.112 34.6617 56.1087C34.6934 56.0868 34.8469 55.2821 34.091 55.0508C34.0734 55.0589 34.052 55.0698 34.0479 55.072L34.0421 55.0752L34.0396 55.0766C34.0359 55.0787 34.0297 55.0823 34.0251 55.0849L33.9561 55.1246C33.8185 55.2038 33.4867 55.395 32.8466 55.7638C32.5585 55.9298 32.4593 56.2977 32.6247 56.5861C32.7902 56.8745 33.1579 56.9744 33.4466 56.8094L33.6322 56.7034L33.6343 56.7022L33.6339 56.7015C33.6339 56.7015 33.6339 56.7015 33.6339 56.7015Z" fill="#8566FF"/>
<path fill-rule="evenodd" clip-rule="evenodd" d="M33.6697 55.9855C33.8359 56.2739 33.7369 56.6425 33.4484 56.8087L33.1012 57.0088C32.8128 57.175 32.4442 57.076 32.278 56.7875C32.1118 56.4991 32.2108 56.1306 32.4993 55.9643L32.8465 55.7642C33.1349 55.598 33.5035 55.6971 33.6697 55.9855Z" fill="#8566FF"/>
<path fill-rule="evenodd" clip-rule="evenodd" d="M41.3316 36.3204C41.4978 36.032 41.8664 35.933 42.1548 36.0992L43.9704 37.1456C44.2588 37.3118 44.3578 37.6804 44.1916 37.9688C44.0254 38.2572 43.6568 38.3563 43.3684 38.1901L41.5528 37.1437C41.2644 36.9774 41.1654 36.6088 41.3316 36.3204Z" fill="#8566FF"/>
<path fill-rule="evenodd" clip-rule="evenodd" d="M41.3341 36.3201C41.5005 36.0318 41.8691 35.933 42.1575 36.0994L43.9705 37.1458C44.2589 37.3122 44.3577 37.6808 44.1913 37.9691C44.0249 38.2574 43.6563 38.3563 43.368 38.1899L41.5549 37.1435C41.2665 36.9771 41.1677 36.6084 41.3341 36.3201Z" fill="#8566FF"/>
<path fill-rule="evenodd" clip-rule="evenodd" d="M43.1471 37.379C43.3133 37.0906 43.6819 36.9915 43.9703 37.1578L57.2697 44.825C57.5581 44.9913 57.6571 45.3598 57.4909 45.6482C57.3246 45.9366 56.956 46.0357 56.6676 45.8694L43.3682 38.2022C43.0798 38.0359 42.9808 37.6674 43.1471 37.379Z" fill="#8566FF"/>
<path fill-rule="evenodd" clip-rule="evenodd" d="M41.2563 36.5631C41.2885 36.2317 41.5832 35.9892 41.9145 36.0214C43.9568 36.2199 46.5074 36.3803 49.4101 36.3803C49.743 36.3803 50.0128 36.6501 50.0128 36.983C50.0128 37.3159 49.743 37.5858 49.4101 37.5858C46.4635 37.5858 43.8737 37.423 41.7979 37.2213C41.4666 37.1891 41.2241 36.8944 41.2563 36.5631Z" fill="#8566FF"/>
<path fill-rule="evenodd" clip-rule="evenodd" d="M39.0606 28.4262C39.183 28.7358 39.0312 29.086 38.7217 29.2084C38.2872 29.3802 37.8651 29.582 37.4587 29.8125L35.5076 30.9373L35.5035 30.9397L32.0982 32.8676C32.0979 32.8678 32.0977 32.868 32.0974 32.8681C31.587 33.1592 31.1405 33.5503 30.7846 34.0178C30.4286 34.4856 30.1706 35.0203 30.0261 35.5901C30.026 35.5902 30.026 35.5903 30.026 35.5904L28.7192 40.7643C28.6922 40.871 28.6899 40.9825 28.7125 41.0902C28.7351 41.198 28.782 41.2991 28.8496 41.386C28.9172 41.4729 29.0037 41.5432 29.1026 41.5916C29.2014 41.6399 29.3099 41.6651 29.4199 41.6651C30.0819 41.6641 30.7293 41.4699 31.2824 41.1062C31.8358 40.7424 32.2709 40.2249 32.5342 39.6172L32.5348 39.6157L33.5547 37.2794C33.601 37.1732 33.677 37.0827 33.7734 37.0186L36.2544 35.3694C36.3886 35.2802 36.5529 35.2484 36.7107 35.2812L36.7114 35.2814L36.7149 35.2821L36.7305 35.2853C36.7447 35.2881 36.7664 35.2925 36.7956 35.2982C36.8539 35.3096 36.9417 35.3265 37.0579 35.3478C37.2901 35.3904 37.6354 35.4508 38.0831 35.5209C38.9785 35.6611 40.2834 35.8404 41.913 35.9946C42.2445 36.026 42.4877 36.3201 42.4563 36.6515C42.425 36.9829 42.1309 37.2261 41.7995 37.1948C40.1429 37.038 38.8136 36.8555 37.8965 36.7119C37.438 36.6401 37.0824 36.5779 36.8403 36.5335C36.7947 36.5251 36.7531 36.5174 36.7156 36.5103L34.5885 37.9243L33.6403 40.0965C33.6402 40.0968 33.6401 40.097 33.64 40.0973C33.2833 40.9201 32.694 41.6209 31.9447 42.1135C31.1951 42.6064 30.3179 42.8695 29.4208 42.8707L29.4198 42.8707C29.1263 42.8706 28.8366 42.8035 28.5729 42.6745C28.3092 42.5455 28.0784 42.358 27.8981 42.1263C27.7178 41.8946 27.5928 41.6249 27.5326 41.3376C27.4724 41.0504 27.4785 40.7532 27.5505 40.4687C27.5505 40.4688 27.5505 40.4687 27.5505 40.4687C27.5505 40.4687 27.5506 40.4685 27.5506 40.4684L28.8575 35.294C29.0419 34.567 29.3711 33.8846 29.8253 33.2877C30.2796 32.6909 30.8496 32.1918 31.5012 31.8203L31.5027 31.8195L34.9075 29.8918L36.8584 28.767L36.8621 28.7649C37.3179 28.5064 37.7911 28.2799 38.2784 28.0873C38.588 27.9649 38.9382 28.1167 39.0606 28.4262Z" fill="#8566FF"/>
<path fill-rule="evenodd" clip-rule="evenodd" d="M62.2503 41.9864C62.4165 42.2748 62.3175 42.6434 62.0291 42.8096L57.5985 45.3638C57.5906 45.3875 57.5829 45.4102 57.5758 45.4312C57.5622 45.4714 57.5507 45.5054 57.5436 45.5281C57.4436 45.8456 57.1052 46.022 56.7876 45.922C56.4701 45.822 56.2937 45.4836 56.3937 45.1661C56.4195 45.084 56.439 45.0277 56.4557 44.9796C56.4767 44.9187 56.4932 44.8709 56.5125 44.8003C56.5544 44.6468 56.6552 44.5161 56.793 44.4367L61.427 41.7652C61.7154 41.599 62.084 41.698 62.2503 41.9864Z" fill="#8566FF"/>
<path fill-rule="evenodd" clip-rule="evenodd" d="M33.3204 56.1881C33.4863 56.4767 33.3869 56.8452 33.0983 57.0111L31.7819 57.7682C31.4933 57.9342 31.1248 57.8348 30.9589 57.5462C30.7929 57.2576 30.8923 56.8891 31.1809 56.7232L32.4973 55.9661C32.7859 55.8001 33.1544 55.8995 33.3204 56.1881Z" fill="#8566FF"/>
<path fill-rule="evenodd" clip-rule="evenodd" d="M68.9331 40.9728C69.0854 41.2688 68.9688 41.6322 68.6727 41.7844L63.0743 44.6632C62.7885 44.8102 62.4376 44.7071 62.2768 44.4289L61.2063 42.5772C61.0397 42.289 61.1382 41.9203 61.4264 41.7537C61.7146 41.5871 62.0833 41.6856 62.2499 41.9738L63.0333 43.3288L68.1215 40.7124C68.4175 40.5601 68.7809 40.6767 68.9331 40.9728Z" fill="#8566FF"/>
<path fill-rule="evenodd" clip-rule="evenodd" d="M61.8307 18.7657C61.997 19.0541 61.898 19.4226 61.6096 19.5889L52.3845 24.9077L62.2499 41.9739C62.4165 42.2621 62.318 42.6308 62.0297 42.7974C61.7415 42.964 61.3728 42.8654 61.2062 42.5772L51.0388 24.9886C50.9587 24.8501 50.937 24.6854 50.9784 24.5309C51.0198 24.3764 51.121 24.2446 51.2596 24.1647L61.0075 18.5445C61.2959 18.3783 61.6645 18.4773 61.8307 18.7657Z" fill="#8566FF"/>
<path fill-rule="evenodd" clip-rule="evenodd" d="M22.8113 49.3018C23.1442 49.3018 23.414 49.5716 23.414 49.9045V49.9069C23.414 50.2398 23.1442 50.5097 22.8113 50.5097C22.4784 50.5097 22.2085 50.2398 22.2085 49.9069V49.9045C22.2085 49.5716 22.4784 49.3018 22.8113 49.3018Z" fill="#8566FF"/>
<path fill-rule="evenodd" clip-rule="evenodd" d="M23.4079 49.5654C23.5721 49.8549 23.4704 50.2228 23.1808 50.387L23.1085 50.428C22.8189 50.5922 22.4511 50.4905 22.2869 50.2009C22.1227 49.9113 22.2244 49.5435 22.514 49.3793L22.5863 49.3383C22.8759 49.1741 23.2437 49.2758 23.4079 49.5654Z" fill="#8566FF"/>
<path fill-rule="evenodd" clip-rule="evenodd" d="M19.9228 44.7035C20.6724 44.2978 21.5506 44.2002 22.371 44.4314C23.1914 44.6626 23.8894 45.2044 24.3169 45.9418C24.7444 46.6791 24.8677 47.5541 24.6608 48.3809C24.4538 49.2077 23.9328 49.9213 23.2083 50.3703C22.9254 50.5457 22.5538 50.4585 22.3784 50.1755C22.2031 49.8926 22.2903 49.521 22.5733 49.3456C23.0312 49.0618 23.3605 48.6108 23.4913 48.0881C23.6221 47.5655 23.5442 47.0125 23.2739 46.5464C23.0037 46.0803 22.5625 45.7379 22.044 45.5918C21.5255 45.4456 20.9704 45.5073 20.4966 45.7637C20.2038 45.9221 19.838 45.8132 19.6796 45.5204C19.5211 45.2277 19.6301 44.8619 19.9228 44.7035Z" fill="#8566FF"/>
<path fill-rule="evenodd" clip-rule="evenodd" d="M23.3334 49.6054C23.4997 49.8937 23.4008 50.2623 23.1125 50.4287L21.796 51.1882C21.5077 51.3545 21.1391 51.2556 20.9727 50.9673C20.8064 50.6789 20.9053 50.3103 21.1936 50.144L22.5101 49.3845C22.7984 49.2181 23.167 49.317 23.3334 49.6054Z" fill="#8566FF"/>
<path fill-rule="evenodd" clip-rule="evenodd" d="M25.9757 49.3358C25.4951 49.2507 24.9998 49.3387 24.5779 49.5841C24.2901 49.7516 23.9212 49.654 23.7537 49.3663C23.5863 49.0785 23.6839 48.7096 23.9716 48.5421C24.64 48.1533 25.4246 48.0139 26.186 48.1488C26.9474 48.2836 27.6364 48.684 28.1306 49.2789C28.6247 49.8737 28.892 50.6244 28.885 51.3976C28.878 52.1709 28.5971 52.9166 28.0923 53.5024C27.875 53.7546 27.4944 53.7828 27.2422 53.5655C26.9901 53.3481 26.9618 52.9675 27.1791 52.7154C27.4978 52.3456 27.6751 51.8748 27.6796 51.3867C27.684 50.8986 27.5152 50.4247 27.2033 50.0492C26.8914 49.6737 26.4564 49.4209 25.9757 49.3358Z" fill="#8566FF"/>
<path fill-rule="evenodd" clip-rule="evenodd" d="M28.0231 52.6468C28.2782 52.8608 28.3115 53.241 28.0976 53.496C27.8607 53.7784 27.5775 54.0186 27.2602 54.2062C26.9736 54.3756 26.604 54.2806 26.4346 53.994C26.2652 53.7075 26.3601 53.3378 26.6467 53.1684C26.8465 53.0503 27.0248 52.8991 27.174 52.7213C27.3879 52.4662 27.7681 52.4329 28.0231 52.6468Z" fill="#8566FF"/>
<path fill-rule="evenodd" clip-rule="evenodd" d="M32.8265 55.4105C33.1345 55.5369 33.2817 55.889 33.1554 56.1969C32.8842 56.8579 32.4016 57.4104 31.783 57.7679C31.4948 57.9345 31.1261 57.8358 30.9595 57.5476C30.793 57.2594 30.8916 56.8907 31.1798 56.7241C31.5675 56.5 31.8701 56.1537 32.0401 55.7394C32.1664 55.4314 32.5185 55.2841 32.8265 55.4105Z" fill="#8566FF"/>
<path fill-rule="evenodd" clip-rule="evenodd" d="M30.6771 52.9363C30.1461 52.7941 29.5803 52.8686 29.1041 53.1434C28.8158 53.3098 28.4472 53.211 28.2808 52.9227C28.1144 52.6344 28.2132 52.2657 28.5015 52.0993C29.2544 51.6647 30.1492 51.5469 30.989 51.7718C31.8288 51.9967 32.5449 52.5459 32.9799 53.2987L32.9803 53.2994C33.2324 53.7372 33.3792 54.2277 33.409 54.732C33.4388 55.2364 33.3508 55.7407 33.1519 56.2052C33.0209 56.5112 32.6666 56.653 32.3606 56.522C32.0545 56.391 31.9127 56.0367 32.0437 55.7306C32.1689 55.4382 32.2244 55.1206 32.2056 54.8031C32.1869 54.4857 32.0945 54.177 31.9359 53.9015C31.6608 53.4256 31.2081 53.0785 30.6771 52.9363Z" fill="#8566FF"/>
<path fill-rule="evenodd" clip-rule="evenodd" d="M33.6719 55.9851C33.8383 56.2735 33.7395 56.6421 33.4512 56.8085L33.0919 57.0159C32.8036 57.1823 32.435 57.0834 32.2686 56.7951C32.1021 56.5068 32.201 56.1382 32.4893 55.9718L32.8485 55.7644C33.1369 55.598 33.5055 55.6968 33.6719 55.9851Z" fill="#8566FF"/>
<path fill-rule="evenodd" clip-rule="evenodd" d="M33.3132 56.1929C33.4792 56.4814 33.3799 56.8499 33.0913 57.0159L31.7797 57.7706C31.4911 57.9366 31.1226 57.8373 30.9566 57.5488C30.7906 57.2602 30.8899 56.8917 31.1785 56.7257L32.4901 55.971C32.7786 55.805 33.1471 55.9043 33.3132 56.1929Z" fill="#8566FF"/>
<path fill-rule="evenodd" clip-rule="evenodd" d="M35.9585 60.7998C36.1393 61.0793 36.0594 61.4525 35.7799 61.6333L35.7389 61.6598C35.4594 61.8407 35.0862 61.7607 34.9054 61.4812C34.7245 61.2017 34.8045 60.8286 35.084 60.6477L35.125 60.6212C35.4045 60.4403 35.7776 60.5203 35.9585 60.7998Z" fill="#8566FF"/>
<path fill-rule="evenodd" clip-rule="evenodd" d="M36.995 60.2411C37.1608 60.5297 37.0613 60.8982 36.7726 61.064L35.7527 61.6499C35.4641 61.8157 35.0956 61.7161 34.9298 61.4275C34.764 61.1388 34.8636 60.7704 35.1522 60.6046L36.1721 60.0187C36.4608 59.8529 36.8292 59.9524 36.995 60.2411Z" fill="#8566FF"/>
<path fill-rule="evenodd" clip-rule="evenodd" d="M33.4948 55.3908C34.0563 55.0669 34.7012 54.9167 35.348 54.9592C35.9948 55.0017 36.6146 55.2349 37.1289 55.6294C37.6432 56.0239 38.0291 56.562 38.2377 57.1757C38.4464 57.7895 38.4684 58.4513 38.3011 59.0775C38.2152 59.3991 37.8849 59.5902 37.5632 59.5043C37.2416 59.4184 37.0505 59.088 37.1365 58.7664C37.2423 58.3703 37.2283 57.9518 37.0964 57.5638C36.9644 57.1757 36.7204 56.8354 36.3952 56.586C36.07 56.3365 35.6781 56.189 35.269 56.1621C34.8601 56.1353 34.4524 56.2302 34.0975 56.4349C34.0974 56.4349 34.0973 56.435 34.0972 56.435L33.4517 56.8084C33.1635 56.9751 32.7948 56.8766 32.6281 56.5884C32.4614 56.3003 32.5599 55.9315 32.8481 55.7649L33.4948 55.3908Z" fill="#8566FF"/>
<path fill-rule="evenodd" clip-rule="evenodd" d="M37.8758 58.3344C38.1972 58.4211 38.3874 58.752 38.3007 59.0734C38.0746 59.9114 37.5253 60.6255 36.7732 61.0589C36.4848 61.2251 36.1162 61.126 35.95 60.8376C35.7838 60.5491 35.8829 60.1806 36.1713 60.0144C36.6467 59.7404 36.9939 59.2891 37.1368 58.7594C37.2235 58.438 37.5544 58.2477 37.8758 58.3344Z" fill="#8566FF"/>
<path fill-rule="evenodd" clip-rule="evenodd" d="M35.9353 60.8564C36.1 61.1457 35.999 61.5137 35.7097 61.6784L35.3794 61.8665C35.0901 62.0312 34.722 61.9302 34.5573 61.6409C34.3926 61.3516 34.4936 60.9836 34.7829 60.8189L35.1132 60.6308C35.4025 60.4661 35.7706 60.5671 35.9353 60.8564Z" fill="#8566FF"/>
<path fill-rule="evenodd" clip-rule="evenodd" d="M29.3245 52.3197C29.4911 52.6079 29.3925 52.9766 29.1043 53.1433L28.1785 53.6785C27.8903 53.8451 27.5216 53.7466 27.355 53.4584C27.1883 53.1702 27.2869 52.8015 27.5751 52.6348L28.5009 52.0996C28.7892 51.933 29.1579 52.0315 29.3245 52.3197Z" fill="#8566FF"/>
<path fill-rule="evenodd" clip-rule="evenodd" d="M29.7907 52.0533C29.9566 52.3419 29.8572 52.7104 29.5687 52.8764L29.1033 53.144C28.8148 53.3099 28.4463 53.2106 28.2803 52.922C28.1143 52.6334 28.2137 52.2649 28.5023 52.099L28.9676 51.8313C29.2562 51.6654 29.6247 51.7648 29.7907 52.0533Z" fill="#8566FF"/>
<path fill-rule="evenodd" clip-rule="evenodd" d="M24.7975 48.7628C24.9633 49.0515 24.8636 49.4199 24.5749 49.5856L23.6466 50.1184C23.3579 50.2842 22.9895 50.1845 22.8238 49.8957C22.658 49.607 22.7577 49.2386 23.0464 49.0729L23.9747 48.5401C24.2634 48.3743 24.6318 48.474 24.7975 48.7628Z" fill="#8566FF"/>
<path fill-rule="evenodd" clip-rule="evenodd" d="M25.2595 48.4936C25.4261 48.7818 25.3275 49.1505 25.0393 49.3171L24.5764 49.5847C24.2882 49.7513 23.9195 49.6528 23.7529 49.3646C23.5863 49.0764 23.6849 48.7077 23.9731 48.541L24.436 48.2734C24.7242 48.1068 25.0929 48.2054 25.2595 48.4936Z" fill="#8566FF"/>
</svg>
