<svg width="45" height="45" viewBox="0 0 45 45" fill="none" xmlns="http://www.w3.org/2000/svg">
<g id="Group 870">
<path id="Vector" d="M36.1525 34.8363C36.0755 34.8361 36.0001 34.8132 35.9358 34.7703C35.8715 34.7275 35.8211 34.6666 35.7907 34.5951C35.7552 34.5115 34.9223 32.5312 34.9223 30.7822C34.9223 28.8732 34.5371 25.275 33.0934 23.8958C32.6171 23.4407 29.9485 22.2878 28.3785 21.6681C28.3282 21.6506 28.2819 21.623 28.2424 21.5871C28.2029 21.5511 28.1711 21.5074 28.1487 21.4587C28.1264 21.41 28.1141 21.3572 28.1125 21.3036C28.1109 21.25 28.1201 21.1965 28.1395 21.1466C28.1589 21.0966 28.1881 21.0511 28.2253 21.0128C28.2626 20.9745 28.3072 20.9442 28.3564 20.9237C28.4055 20.9032 28.4583 20.893 28.5115 20.8936C28.5647 20.8942 28.6173 20.9056 28.666 20.9273C29.0962 21.0971 32.8915 22.6073 33.6359 23.3183C34.3802 24.0292 34.9397 25.2328 35.3029 26.8996C35.6713 28.5889 35.7108 30.1777 35.7108 30.7812C35.7108 32.3687 36.5075 34.2617 36.5157 34.2806C36.5413 34.3411 36.5517 34.407 36.5459 34.4725C36.5402 34.538 36.5184 34.6011 36.4825 34.656C36.4467 34.711 36.3979 34.7561 36.3406 34.7874C36.2832 34.8187 36.2191 34.8351 36.1539 34.8353L36.1525 34.8363Z" fill="#141232"/>
<path id="Vector_2" d="M30.5755 32.8671C30.5399 32.8671 30.5045 32.8622 30.4702 32.8525C28.7423 32.3718 27.497 31.481 26.7684 30.2051C26.1559 29.1318 26.0796 28.0702 26.047 27.6173C26.0389 27.5046 26.0007 27.3961 25.9365 27.3035C25.8115 27.121 25.5484 26.7611 25.2434 26.3444C24.0738 24.745 22.9978 23.2534 22.6883 22.5805C22.4557 22.0746 22.3646 21.6924 22.3922 21.3414C22.4284 20.8942 22.6662 20.5197 23.0998 20.228C24.2455 19.4577 25.0872 20.2781 25.8299 21.0024C26.5842 21.7379 26.894 22.0494 27.2532 22.41C27.5624 22.7209 27.9131 23.0735 28.6236 23.7729C28.9157 24.0605 29.2453 24.2224 29.6272 24.4102C30.1768 24.6803 30.7998 24.9865 31.4541 25.7333C31.4884 25.7725 31.5147 25.8181 31.5315 25.8676C31.5483 25.917 31.5553 25.9694 31.552 26.0215C31.5488 26.0737 31.5354 26.1248 31.5126 26.1717C31.4898 26.2187 31.4581 26.2607 31.4192 26.2953C31.3803 26.3299 31.3351 26.3564 31.286 26.3733C31.237 26.3903 31.1851 26.3973 31.1334 26.3941C31.0816 26.3908 31.031 26.3773 30.9845 26.3543C30.9379 26.3313 30.8963 26.2993 30.862 26.2601C30.3117 25.6321 29.7874 25.3743 29.2801 25.1251C28.8742 24.9261 28.4545 24.7194 28.0713 24.3419C27.3578 23.6399 27.0059 23.2859 26.695 22.9737C26.3385 22.615 26.0303 22.3055 25.2806 21.574C24.3925 20.7094 24.0767 20.5266 23.5373 20.8899C23.1537 21.148 23.0277 21.4283 23.4034 22.2458C23.705 22.9017 25.0652 24.7612 25.878 25.8723C26.1993 26.3119 26.4533 26.6589 26.5852 26.8516C26.7289 27.0612 26.8146 27.3058 26.8332 27.5599C27.0868 31.0866 29.791 31.8396 30.6798 32.0861C30.7713 32.1122 30.8505 32.1706 30.9027 32.2508C30.9549 32.331 30.9766 32.4275 30.9639 32.5226C30.9512 32.6177 30.9048 32.7049 30.8334 32.7683C30.762 32.8316 30.6703 32.8668 30.5752 32.8674L30.5755 32.8671Z" fill="#141232"/>
<path id="Vector_3" d="M28.2216 35.6254C28.1373 35.6254 28.0552 35.5981 27.9874 35.5476C27.9195 35.4971 27.8695 35.426 27.8446 35.3448C27.842 35.3361 27.5177 34.3302 26.6335 33.9235C26.5424 33.8772 26.4727 33.7971 26.4388 33.7C26.405 33.603 26.4098 33.4965 26.4521 33.4029C26.4944 33.3092 26.571 33.2358 26.6659 33.1979C26.7607 33.16 26.8664 33.1606 26.9608 33.1996C28.1729 33.7573 28.5818 35.0555 28.5986 35.1105C28.6294 35.2114 28.6192 35.3205 28.5703 35.4138C28.5214 35.5072 28.4377 35.5771 28.3377 35.6082C28.3001 35.6199 28.261 35.6257 28.2216 35.6254Z" fill="#141232"/>
<path id="Vector_4" d="M23.0044 33.5696H15.9804C15.0376 33.5686 14.1338 33.1904 13.4672 32.5181C12.8006 31.8457 12.4256 30.9341 12.4246 29.9833V12.9613C12.4256 12.0105 12.8006 11.0989 13.4672 10.4266C14.1338 9.75424 15.0376 9.37605 15.9804 9.375H23.0044C23.9472 9.37605 24.851 9.75424 25.5176 10.4266C26.1842 11.0989 26.5592 12.0105 26.5602 12.9613V19.2024C26.5602 19.308 26.5186 19.4093 26.4446 19.4839C26.3706 19.5586 26.2702 19.6005 26.1655 19.6005C26.0608 19.6005 25.9604 19.5586 25.8864 19.4839C25.8124 19.4093 25.7708 19.308 25.7708 19.2024V12.9613C25.77 12.2214 25.4782 11.512 24.9595 10.9887C24.4408 10.4655 23.7374 10.1711 23.0038 10.1702H15.9804C15.2467 10.171 14.5432 10.4653 14.0244 10.9886C13.5056 11.5119 13.2138 12.2213 13.213 12.9613V29.983C13.2138 30.723 13.5056 31.4324 14.0244 31.9557C14.5432 32.479 15.2467 32.7733 15.9804 32.7741H23.0044C23.4744 32.7739 23.9367 32.6531 24.3476 32.423C24.7585 32.193 25.1047 31.8612 25.3534 31.459C25.4106 31.3735 25.4985 31.3138 25.5985 31.2925C25.6985 31.2711 25.8029 31.2896 25.8896 31.3443C25.9763 31.3989 26.0386 31.4854 26.0633 31.5854C26.0881 31.6855 26.0735 31.7913 26.0224 31.8806C25.8733 32.1211 25.6967 32.343 25.4961 32.5418C24.8324 33.2023 23.9369 33.5717 23.0044 33.5696Z" fill="#141232"/>
<path id="Vector_5" d="M26.1658 14.3216H12.8186C12.7139 14.3216 12.6135 14.2797 12.5394 14.205C12.4654 14.1304 12.4238 14.0291 12.4238 13.9235C12.4238 13.8179 12.4654 13.7167 12.5394 13.642C12.6135 13.5673 12.7139 13.5254 12.8186 13.5254H26.1658C26.2704 13.5254 26.3709 13.5673 26.4449 13.642C26.5189 13.7167 26.5605 13.8179 26.5605 13.9235C26.5605 14.0291 26.5189 14.1304 26.4449 14.205C26.3709 14.2797 26.2704 14.3216 26.1658 14.3216Z" fill="#141232"/>
<path id="Vector_6" d="M20.4288 12.2445H18.5578C18.4531 12.2445 18.3527 12.2025 18.2787 12.1279C18.2047 12.0532 18.1631 11.9519 18.1631 11.8464C18.1631 11.7408 18.2047 11.6395 18.2787 11.5648C18.3527 11.4902 18.4531 11.4482 18.5578 11.4482H20.4288C20.5335 11.4482 20.6339 11.4902 20.7079 11.5648C20.7819 11.6395 20.8235 11.7408 20.8235 11.8464C20.8235 11.9519 20.7819 12.0532 20.7079 12.1279C20.6339 12.2025 20.5335 12.2445 20.4288 12.2445Z" fill="#141232"/>
<path id="Vector_7" d="M24.4214 29.4183H12.8186C12.7139 29.4183 12.6135 29.3763 12.5394 29.3017C12.4654 29.227 12.4238 29.1258 12.4238 29.0202C12.4238 28.9146 12.4654 28.8133 12.5394 28.7387C12.6135 28.664 12.7139 28.6221 12.8186 28.6221H24.4214C24.5261 28.6221 24.6265 28.664 24.7005 28.7387C24.7746 28.8133 24.8161 28.9146 24.8161 29.0202C24.8161 29.1258 24.7746 29.227 24.7005 29.3017C24.6265 29.3763 24.5261 29.4183 24.4214 29.4183Z" fill="#141232"/>
<path id="Vector_8" d="M22.1896 17.1556H14.6484C14.5663 17.1556 14.4876 17.1227 14.4295 17.0642C14.3715 17.0056 14.3389 16.9262 14.3389 16.8434C14.3389 16.7606 14.3715 16.6812 14.4295 16.6227C14.4876 16.5641 14.5663 16.5312 14.6484 16.5312H22.1896C22.2717 16.5312 22.3504 16.5641 22.4084 16.6227C22.4665 16.6812 22.4991 16.7606 22.4991 16.8434C22.4991 16.9262 22.4665 17.0056 22.4084 17.0642C22.3504 17.1227 22.2717 17.1556 22.1896 17.1556Z" fill="#141232"/>
<path id="Vector_9" d="M20.3887 20.3841H14.6484C14.5663 20.3841 14.4876 20.3512 14.4295 20.2927C14.3715 20.2342 14.3389 20.1548 14.3389 20.072C14.3389 19.9892 14.3715 19.9098 14.4295 19.8512C14.4876 19.7927 14.5663 19.7598 14.6484 19.7598H20.3887C20.4707 19.7598 20.5495 19.7927 20.6075 19.8512C20.6656 19.9098 20.6982 19.9892 20.6982 20.072C20.6982 20.1548 20.6656 20.2342 20.6075 20.2927C20.5495 20.3512 20.4707 20.3841 20.3887 20.3841Z" fill="#141232"/>
<path id="Vector_10" d="M17.9161 26.8135C17.8037 26.8137 17.6924 26.7914 17.5887 26.7479C17.4849 26.7045 17.3907 26.6407 17.3115 26.5603L15.5218 24.7519C15.4221 24.6512 15.3662 24.5148 15.3662 24.3725C15.3662 24.2303 15.4221 24.0938 15.5218 23.9932L16.3388 23.1691C16.4387 23.0685 16.574 23.012 16.7151 23.012C16.8562 23.012 16.9916 23.0685 17.0914 23.1691L17.9177 24.0024L19.7446 22.1598C19.8445 22.0594 19.9798 22.0029 20.1209 22.0029C20.262 22.0029 20.3973 22.0594 20.4972 22.1598L21.314 22.9839C21.4138 23.0846 21.4698 23.2211 21.4698 23.3635C21.4698 23.5058 21.4138 23.6423 21.314 23.743L18.52 26.561C18.4409 26.6412 18.3467 26.7048 18.2431 26.7481C18.1394 26.7915 18.0283 26.8137 17.9161 26.8135ZM16.0208 24.3734L17.7493 26.1197C17.7711 26.142 17.7971 26.1597 17.8257 26.1717C17.8543 26.1837 17.8851 26.1898 17.9161 26.1897C17.9471 26.1898 17.9777 26.1837 18.0064 26.1717C18.035 26.1598 18.061 26.1422 18.0829 26.1201L20.815 23.3641L20.1209 22.6641L18.294 24.5061C18.1942 24.6067 18.0589 24.6632 17.9177 24.6632C17.7766 24.6632 17.6412 24.6067 17.5414 24.5061L16.7151 23.6727L16.0208 24.3734Z" fill="#141232"/>
<path id="Vector_11" d="M22.1896 18.7689H14.6484C14.5663 18.7689 14.4876 18.736 14.4295 18.6775C14.3715 18.6189 14.3389 18.5395 14.3389 18.4567C14.3389 18.3739 14.3715 18.2945 14.4295 18.236C14.4876 18.1774 14.5663 18.1445 14.6484 18.1445H22.1896C22.2717 18.1445 22.3504 18.1774 22.4084 18.236C22.4665 18.2945 22.4991 18.3739 22.4991 18.4567C22.4991 18.5395 22.4665 18.6189 22.4084 18.6775C22.3504 18.736 22.2717 18.7689 22.1896 18.7689Z" fill="#141232"/>
<path id="Ellipse 148 (Stroke)" fill-rule="evenodd" clip-rule="evenodd" d="M22.5 44C34.3741 44 44 34.3741 44 22.5C44 10.6259 34.3741 1 22.5 1C10.6259 1 1 10.6259 1 22.5C1 34.3741 10.6259 44 22.5 44ZM22.5 45C34.9264 45 45 34.9264 45 22.5C45 10.0736 34.9264 0 22.5 0C10.0736 0 0 10.0736 0 22.5C0 34.9264 10.0736 45 22.5 45Z" fill="black"/>
</g>
</svg>
