<svg width="76" height="76" viewBox="0 0 76 76" fill="none" xmlns="http://www.w3.org/2000/svg">
<circle cx="38" cy="38" r="38" fill="#F0F0F0"/>
<path d="M49.3996 59.9122H20.7395C19.742 59.9109 18.7857 59.5137 18.0808 58.8079C17.3759 58.1021 16.98 57.1454 16.98 56.1478V20.2924C16.9795 20.1344 17.0105 19.9778 17.0711 19.8318C17.1316 19.6858 17.2206 19.5533 17.3327 19.442L25.4219 11.3528C25.5333 11.2406 25.6658 11.1516 25.8118 11.0911C25.9578 11.0305 26.1144 10.9996 26.2724 11H51.0909C52.0884 11 53.0452 11.3959 53.751 12.1008C54.4568 12.8057 54.854 13.762 54.8552 14.7595V46.6524C54.8552 46.8613 54.7723 47.0617 54.6245 47.2094C54.4768 47.3571 54.2765 47.4401 54.0676 47.4401C53.8587 47.4401 53.6583 47.3571 53.5106 47.2094C53.3629 47.0617 53.2799 46.8613 53.2799 46.6524V14.7595C53.2786 14.1798 53.0475 13.6242 52.6371 13.2148C52.2267 12.8053 51.6706 12.5753 51.0909 12.5753H26.4464L18.5553 20.4471V56.1382C18.5553 56.7179 18.7853 57.2739 19.1947 57.6843C19.6042 58.0947 20.1598 58.3259 20.7395 58.3272H49.3996C49.6085 58.3272 49.8089 58.4102 49.9566 58.5579C50.1043 58.7056 50.1873 58.9059 50.1873 59.1148C50.1873 59.3237 50.1043 59.5241 49.9566 59.6718C49.8089 59.8195 49.6085 59.9025 49.3996 59.9025V59.9122Z" fill="#8566FF"/>
<path d="M24.267 20.9061H17.7676C17.5587 20.9061 17.3584 20.8232 17.2107 20.6754C17.063 20.5277 16.98 20.3274 16.98 20.1185C16.98 19.9096 17.063 19.7092 17.2107 19.5615C17.3584 19.4138 17.5587 19.3308 17.7676 19.3308H24.267C24.5477 19.3308 24.8169 19.2193 25.0153 19.0209C25.2138 18.8224 25.3253 18.5532 25.3253 18.2726V11.7877C25.3253 11.5788 25.4083 11.3784 25.556 11.2307C25.7037 11.083 25.904 11 26.1129 11C26.3218 11 26.5222 11.083 26.6699 11.2307C26.8176 11.3784 26.9006 11.5788 26.9006 11.7877V18.2726C26.9006 18.971 26.6231 19.6409 26.1293 20.1348C25.6354 20.6287 24.9655 20.9061 24.267 20.9061Z" fill="#8566FF"/>
<path d="M35.9611 51.5381C32.9152 51.5381 29.9377 50.6349 27.4051 48.9427C24.8725 47.2505 22.8986 44.8453 21.733 42.0312C20.5673 39.2172 20.2624 36.1206 20.8566 33.1333C21.4508 30.1459 22.9176 27.4018 25.0714 25.248C27.2251 23.0942 29.9692 21.6275 32.9566 21.0332C35.944 20.439 39.0405 20.744 41.8546 21.9096C44.6686 23.0752 47.0738 25.0491 48.7661 27.5817C50.4583 30.1143 51.3615 33.0918 51.3615 36.1377C51.3577 40.221 49.7339 44.1359 46.8466 47.0232C43.9593 49.9105 40.0444 51.5343 35.9611 51.5381ZM35.9611 22.3126C33.2267 22.3126 30.5538 23.1235 28.2803 24.6426C26.0068 26.1617 24.2348 28.3209 23.1884 30.8471C22.142 33.3733 21.8682 36.1531 22.4016 38.8349C22.9351 41.5167 24.2518 43.9801 26.1853 45.9135C28.1187 47.847 30.5821 49.1637 33.2639 49.6972C35.9458 50.2306 38.7255 49.9568 41.2517 48.9104C43.7779 47.8641 45.9371 46.0921 47.4562 43.8185C48.9754 41.545 49.7862 38.8721 49.7862 36.1377C49.7836 32.4719 48.3262 28.9569 45.7341 26.3647C43.1419 23.7726 39.627 22.3152 35.9611 22.3126Z" fill="#8566FF"/>
<path d="M58.6293 62.9997C57.5146 62.9987 56.4458 62.5556 55.6575 61.7675L50.342 56.452C49.0468 55.1565 48.2509 53.445 48.095 51.6197L48.0418 51.0544C48.0096 50.6742 48.062 50.2916 48.1951 49.9341C48.3282 49.5766 48.5388 49.2529 48.8118 48.9864C49.0848 48.7199 49.4134 48.5171 49.7741 48.3926C50.1347 48.268 50.5184 48.2249 50.8977 48.2662H51.0668C53.2335 48.5033 55.2549 49.4714 56.7979 51.0109L61.49 55.703C62.2474 56.4453 62.7047 57.4407 62.7742 58.499C62.8437 59.5572 62.5207 60.6039 61.8669 61.4389C61.4941 61.8922 61.0308 62.2625 60.5065 62.5263C59.9823 62.7901 59.4087 62.9415 58.8226 62.9707L58.6293 62.9997ZM50.6222 49.856C50.3588 49.8549 50.1055 49.9573 49.9167 50.1411C49.8112 50.2458 49.7298 50.3722 49.6781 50.5116C49.6263 50.6509 49.6055 50.7999 49.6171 50.9481L49.6654 51.5134C49.7883 52.9732 50.4233 54.3425 51.4582 55.3792L56.7737 60.6947C57.033 60.95 57.3424 61.1486 57.6825 61.278C58.0225 61.4075 58.3857 61.4649 58.749 61.4468C59.1124 61.4286 59.4681 61.3352 59.7935 61.1725C60.1189 61.0098 60.407 60.7813 60.6395 60.5014C61.0455 59.9691 61.2414 59.3059 61.1897 58.6383C61.138 57.9708 60.8424 57.3456 60.3592 56.8821L55.6671 52.19C54.3791 50.9014 52.6896 50.0916 50.8783 49.8946H50.7092L50.6222 49.856Z" fill="#8566FF"/>
<path d="M49.3754 50.3392C49.2719 50.3396 49.1695 50.3194 49.074 50.2795C48.9786 50.2397 48.8921 50.1811 48.8196 50.1072L45.7367 47.0291C45.6634 46.9558 45.6052 46.8688 45.5656 46.773C45.5259 46.6772 45.5055 46.5746 45.5055 46.4709C45.5055 46.3673 45.5259 46.2647 45.5656 46.1689C45.6052 46.0731 45.6634 45.9861 45.7367 45.9128C45.81 45.8395 45.897 45.7814 45.9927 45.7417C46.0885 45.7021 46.1912 45.6816 46.2948 45.6816C46.3985 45.6816 46.5011 45.7021 46.5969 45.7417C46.6926 45.7814 46.7796 45.8395 46.8529 45.9128L49.9311 48.9958C50.0407 49.106 50.1153 49.2461 50.1455 49.3985C50.1757 49.551 50.1601 49.709 50.1007 49.8526C50.0413 49.9962 49.9407 50.1191 49.8117 50.2056C49.6826 50.2922 49.5308 50.3387 49.3754 50.3392Z" fill="#8566FF"/>
<path d="M59.0447 58.9649C58.9413 58.9651 58.8389 58.9447 58.7435 58.9048C58.6481 58.865 58.5616 58.8066 58.489 58.7329L55.9376 56.1815C55.8628 56.1088 55.8033 56.0221 55.7623 55.9262C55.7214 55.8304 55.6998 55.7274 55.699 55.6231C55.6982 55.5189 55.718 55.4156 55.7574 55.3191C55.7968 55.2226 55.8549 55.1349 55.9285 55.061C56.002 54.9872 56.0895 54.9286 56.1858 54.8888C56.2821 54.849 56.3854 54.8287 56.4896 54.8291C56.5938 54.8295 56.6969 54.8506 56.793 54.8911C56.889 54.9316 56.976 54.9908 57.049 55.0652L59.6004 57.6167C59.6739 57.6899 59.7322 57.7768 59.772 57.8726C59.8118 57.9684 59.8323 58.0711 59.8323 58.1748C59.8323 58.2785 59.8118 58.3812 59.772 58.477C59.7322 58.5728 59.6739 58.6597 59.6004 58.7329C59.5278 58.8066 59.4413 58.865 59.3459 58.9048C59.2505 58.9447 59.1481 58.9651 59.0447 58.9649Z" fill="#8566FF"/>
<path d="M32.5349 26.8107C32.3468 26.8125 32.1642 26.7469 32.0202 26.6257C31.8762 26.5046 31.7803 26.3359 31.7499 26.1502C31.7196 25.9644 31.7567 25.774 31.8546 25.6133C31.9525 25.4526 32.1047 25.3322 32.2837 25.274C33.469 24.8768 34.7109 24.6745 35.961 24.6748C36.1699 24.6748 36.3703 24.7578 36.518 24.9055C36.6657 25.0532 36.7487 25.2536 36.7487 25.4625C36.7487 25.6714 36.6657 25.8717 36.518 26.0194C36.3703 26.1671 36.1699 26.2501 35.961 26.2501C34.8833 26.2492 33.8126 26.4239 32.7911 26.7672C32.7087 26.7957 32.6221 26.8104 32.5349 26.8107Z" fill="#8566FF"/>
<path d="M29.365 28.5366C29.2018 28.5341 29.0435 28.4813 28.9114 28.3855C28.7794 28.2896 28.6802 28.1553 28.6273 28.001C28.5745 27.8466 28.5705 27.6797 28.6161 27.523C28.6616 27.3664 28.7544 27.2276 28.8818 27.1256C29.075 26.9758 29.2683 26.8356 29.4665 26.6955C29.6388 26.577 29.8512 26.5317 30.057 26.5698C30.2627 26.6079 30.4448 26.7261 30.5634 26.8985C30.6819 27.0708 30.7272 27.2832 30.6891 27.489C30.651 27.6947 30.5328 27.8768 30.3604 27.9954C30.1913 28.1114 30.0222 28.237 29.8772 28.3626C29.733 28.4804 29.5511 28.5422 29.365 28.5366Z" fill="#8566FF"/>
<path d="M27.5335 35.3888C27.3246 35.3888 27.1243 35.3058 26.9765 35.1581C26.8288 35.0104 26.7458 34.81 26.7458 34.6011V31.8951C26.7458 31.6862 26.8288 31.4858 26.9765 31.3381C27.1243 31.1904 27.3246 31.1074 27.5335 31.1074C27.7424 31.1074 27.9428 31.1904 28.0905 31.3381C28.2382 31.4858 28.3212 31.6862 28.3212 31.8951V34.6011C28.3212 34.81 28.2382 35.0104 28.0905 35.1581C27.9428 35.3058 27.7424 35.3888 27.5335 35.3888Z" fill="#8566FF"/>
<path d="M31.7376 35.3888C31.5287 35.3888 31.3284 35.3058 31.1806 35.1581C31.0329 35.0104 30.95 34.81 30.95 34.6011V30.4937C30.95 30.2848 31.0329 30.0845 31.1806 29.9368C31.3284 29.789 31.5287 29.7061 31.7376 29.7061C31.9465 29.7061 32.1469 29.789 32.2946 29.9368C32.4423 30.0845 32.5253 30.2848 32.5253 30.4937V34.6011C32.5253 34.81 32.4423 35.0104 32.2946 35.1581C32.1469 35.3058 31.9465 35.3888 31.7376 35.3888Z" fill="#8566FF"/>
<path d="M35.966 35.3885C35.8621 35.3891 35.7592 35.3692 35.663 35.3299C35.5669 35.2906 35.4795 35.2327 35.4059 35.1595C35.3322 35.0863 35.2738 34.9992 35.2339 34.9033C35.194 34.8075 35.1735 34.7046 35.1735 34.6008V30.9621C35.189 30.7632 35.279 30.5775 35.4255 30.4421C35.5719 30.3067 35.7641 30.2314 35.9635 30.2314C36.163 30.2314 36.3552 30.3067 36.5016 30.4421C36.6481 30.5775 36.738 30.7632 36.7536 30.9621V34.6008C36.7536 34.8097 36.6706 35.01 36.5229 35.1578C36.3752 35.3055 36.1749 35.3885 35.966 35.3885Z" fill="#8566FF"/>
<path d="M40.1893 35.3888C39.9804 35.3888 39.78 35.3058 39.6323 35.1581C39.4846 35.0103 39.4016 34.81 39.4016 34.6011V28.6236C39.4016 28.4147 39.4846 28.2144 39.6323 28.0666C39.78 27.9189 39.9804 27.8359 40.1893 27.8359C40.3982 27.8359 40.5985 27.9189 40.7462 28.0666C40.8939 28.2144 40.9769 28.4147 40.9769 28.6236V34.6011C40.9769 34.81 40.8939 35.0103 40.7462 35.1581C40.5985 35.3058 40.3982 35.3888 40.1893 35.3888Z" fill="#8566FF"/>
<path d="M44.4127 35.3888C44.2038 35.3888 44.0034 35.3058 43.8557 35.1581C43.708 35.0104 43.625 34.8101 43.625 34.6012V31.4312C43.625 31.2223 43.708 31.022 43.8557 30.8743C44.0034 30.7265 44.2038 30.6436 44.4127 30.6436C44.6216 30.6436 44.8219 30.7265 44.9696 30.8743C45.1173 31.022 45.2003 31.2223 45.2003 31.4312V34.6012C45.2003 34.8101 45.1173 35.0104 44.9696 35.1581C44.8219 35.3058 44.6216 35.3888 44.4127 35.3888Z" fill="#8566FF"/>
<path d="M44.4127 39.7618C44.2038 39.7618 44.0034 39.6788 43.8557 39.5311C43.708 39.3834 43.625 39.183 43.625 38.9741V38.0367C43.625 37.9332 43.6454 37.8308 43.685 37.7353C43.7245 37.6397 43.7826 37.5529 43.8557 37.4797C43.9288 37.4066 44.0157 37.3486 44.1112 37.309C44.2068 37.2694 44.3092 37.249 44.4127 37.249C44.5161 37.249 44.6185 37.2694 44.7141 37.309C44.8097 37.3486 44.8965 37.4066 44.9696 37.4797C45.0428 37.5529 45.1008 37.6397 45.1404 37.7353C45.1799 37.8308 45.2003 37.9332 45.2003 38.0367V38.9741C45.2003 39.183 45.1173 39.3834 44.9696 39.5311C44.8219 39.6788 44.6216 39.7618 44.4127 39.7618Z" fill="#8566FF"/>
<path d="M40.1893 42.0958C39.9804 42.0958 39.78 42.0128 39.6323 41.8651C39.4846 41.7174 39.4016 41.517 39.4016 41.3081V38.0367C39.4016 37.8278 39.4846 37.6274 39.6323 37.4797C39.78 37.332 39.9804 37.249 40.1893 37.249C40.3982 37.249 40.5985 37.332 40.7462 37.4797C40.8939 37.6274 40.9769 37.8278 40.9769 38.0367V41.3081C40.9769 41.517 40.8939 41.7174 40.7462 41.8651C40.5985 42.0128 40.3982 42.0958 40.1893 42.0958Z" fill="#8566FF"/>
<path d="M35.966 44.903C35.8621 44.9036 35.7592 44.8837 35.663 44.8444C35.5669 44.8051 35.4795 44.7472 35.4059 44.674C35.3322 44.6008 35.2738 44.5137 35.2339 44.4178C35.194 44.322 35.1735 44.2191 35.1735 44.1153V38.0363C35.189 37.8375 35.279 37.6518 35.4255 37.5163C35.5719 37.3809 35.7641 37.3057 35.9635 37.3057C36.163 37.3057 36.3552 37.3809 36.5016 37.5163C36.6481 37.6518 36.738 37.8375 36.7536 38.0363V44.1153C36.7536 44.3242 36.6706 44.5245 36.5229 44.6723C36.3752 44.82 36.1749 44.903 35.966 44.903Z" fill="#8566FF"/>
<path d="M31.7376 42.5645C31.5287 42.5645 31.3284 42.4815 31.1806 42.3338C31.0329 42.1861 30.95 41.9857 30.95 41.7768V38.0367C30.95 37.8278 31.0329 37.6274 31.1806 37.4797C31.3284 37.332 31.5287 37.249 31.7376 37.249C31.9465 37.249 32.1469 37.332 32.2946 37.4797C32.4423 37.6274 32.5253 37.8278 32.5253 38.0367V41.7768C32.5253 41.9857 32.4423 42.1861 32.2946 42.3338C32.1469 42.4815 31.9465 42.5645 31.7376 42.5645Z" fill="#8566FF"/>
<path d="M27.5335 39.7618C27.3246 39.7618 27.1243 39.6788 26.9765 39.5311C26.8288 39.3834 26.7458 39.183 26.7458 38.9741V38.0367C26.7458 37.8278 26.8288 37.6274 26.9765 37.4797C27.1243 37.332 27.3246 37.249 27.5335 37.249C27.7424 37.249 27.9428 37.332 28.0905 37.4797C28.2382 37.6274 28.3212 37.8278 28.3212 38.0367V38.9741C28.3212 39.183 28.2382 39.3834 28.0905 39.5311C27.9428 39.6788 27.7424 39.7618 27.5335 39.7618Z" fill="#8566FF"/>
</svg>
