<svg width="76" height="76" viewBox="0 0 76 76" fill="none" xmlns="http://www.w3.org/2000/svg">
<circle cx="38" cy="38" r="38" fill="#F0F0F0"/>
<path fill-rule="evenodd" clip-rule="evenodd" d="M38.5759 12.9774C33.3564 12.6982 28.1855 14.1072 23.8291 16.9957C19.4727 19.8842 16.1623 24.0987 14.3878 29.0153C12.6133 33.9319 12.4691 39.2893 13.9765 44.2942C15.484 49.2991 18.563 53.6856 22.7578 56.8043C26.9525 59.923 32.04 61.6081 37.267 61.6101C38.1712 61.6084 39.0746 61.5587 39.9735 61.4612L40.1831 63.3924C39.215 63.4975 38.2421 63.551 37.2683 63.5527H37.2662C31.6219 63.5506 26.1283 61.7309 21.5987 58.3632C17.0691 54.9956 13.7443 50.2589 12.1165 44.8544C10.4887 39.4499 10.6444 33.6649 12.5606 28.3558C14.4767 23.0467 18.0514 18.4958 22.7556 15.3766C27.4598 12.2575 33.0434 10.7361 38.6797 11.0375C44.316 11.339 49.7053 13.4473 54.05 17.0504C58.3946 20.6535 61.4635 25.5599 62.8025 31.0431C64.1414 36.5263 63.6792 42.2949 61.4842 47.495L59.6945 46.7395C61.7272 41.9239 62.1553 36.5817 60.9153 31.5039C59.6754 26.426 56.8333 21.8825 52.8099 18.5457C48.7864 15.209 43.7955 13.2565 38.5759 12.9774Z" fill="#8566FF"/>
<path fill-rule="evenodd" clip-rule="evenodd" d="M25.5851 37.2764H38.2376V39.219H25.5851V37.2764Z" fill="#8566FF"/>
<path d="M53.0387 61.8509C53.2044 61.8509 53.3443 61.9078 53.4583 62.0218C53.5722 62.1358 53.6292 62.2756 53.6292 62.4414C53.6292 62.6072 53.5722 62.7471 53.4583 62.861C53.3443 62.9646 53.2044 63.0164 53.0387 63.0164H47.3973C47.2108 63.0164 47.0554 62.9646 46.9311 62.861C46.8171 62.7471 46.7602 62.5968 46.7602 62.4103C46.7602 62.2446 46.8223 62.0943 46.9466 61.9597L50.4589 58.1211C50.9769 57.5616 51.3654 57.0384 51.6244 56.5514C51.8938 56.0541 52.0285 55.6138 52.0285 55.2305C52.0285 54.5985 51.8368 54.096 51.4535 53.723C51.0805 53.3397 50.578 53.148 49.946 53.148C49.6663 53.148 49.3866 53.2101 49.1068 53.3345C48.8271 53.4484 48.5733 53.609 48.3453 53.8162C48.1174 54.0131 47.9309 54.2358 47.7858 54.4845C47.703 54.6192 47.6149 54.7073 47.5217 54.7487C47.4388 54.7798 47.3507 54.7953 47.2575 54.7953C47.1021 54.7953 46.9622 54.7435 46.8379 54.6399C46.7135 54.5259 46.6514 54.3964 46.6514 54.2514C46.6514 54.1374 46.6824 54.0338 46.7446 53.9406C46.8068 53.837 46.8897 53.723 46.9933 53.5987C47.2108 53.2982 47.4802 53.0288 47.8014 52.7905C48.1329 52.5419 48.4904 52.345 48.8737 52.2C49.2674 52.0549 49.6508 51.9824 50.0237 51.9824C50.6868 51.9824 51.2618 52.1119 51.7488 52.3709C52.2461 52.63 52.6294 52.9978 52.8988 53.4743C53.1682 53.9509 53.3029 54.5104 53.3029 55.1528C53.3029 55.7019 53.1371 56.308 52.8055 56.971C52.474 57.6341 51.9871 58.3075 51.3447 58.9913L48.6251 62.0063L48.4696 61.8509H53.0387Z" fill="#8566FF"/>
<path d="M60.1071 63.0164C59.9309 63.0164 59.7807 62.9543 59.6564 62.8299C59.5424 62.7056 59.4854 62.5554 59.4854 62.3793V53.8784L59.7341 53.9717L56.0198 58.8204L55.9577 58.6339H61.7699C61.9357 58.6339 62.0756 58.6909 62.1896 58.8049C62.3035 58.9188 62.3605 59.0587 62.3605 59.2245C62.3605 59.3799 62.3035 59.5146 62.1896 59.6285C62.0756 59.7321 61.9357 59.7839 61.7699 59.7839H55.1029C54.9475 59.7839 54.8025 59.7218 54.6678 59.5974C54.5434 59.4731 54.4813 59.3281 54.4813 59.1623C54.4813 59.0069 54.5331 58.8722 54.6367 58.7582L59.5942 52.3865C59.6668 52.2932 59.7496 52.2311 59.8429 52.2C59.9361 52.1586 60.0294 52.1378 60.1226 52.1378C60.2987 52.1378 60.4438 52.2 60.5578 52.3243C60.6717 52.4383 60.7287 52.5833 60.7287 52.7595V62.3793C60.7287 62.5554 60.6665 62.7056 60.5422 62.8299C60.4283 62.9543 60.2832 63.0164 60.1071 63.0164Z" fill="#8566FF"/>
<path fill-rule="evenodd" clip-rule="evenodd" d="M38.2378 19.001V38.6826H36.2952V19.001H38.2378Z" fill="#8566FF"/>
</svg>
