<svg width="46" height="47" viewBox="0 0 46 47" fill="none" xmlns="http://www.w3.org/2000/svg">
<g clip-path="url(#clip0_987_2061)">
<path d="M27.9594 39.728H0.669031C0.344145 39.728 0.0957031 39.4793 0.0957031 39.1539V0.669807C0.0957031 0.344482 0.344145 0.0957031 0.669031 0.0957031H41.5473C41.8722 0.0957031 42.1206 0.344482 42.1206 0.669807V21.7586C42.1206 22.0839 41.8722 22.3327 41.5473 22.3327C41.2224 22.3327 40.974 22.0839 40.974 21.7586V1.24391H1.24236V38.5798H27.9594C28.2843 38.5798 28.5328 38.8286 28.5328 39.1539C28.5328 39.4601 28.2652 39.728 27.9594 39.728Z" fill="#7B7CE1" stroke="#7B7CE1" stroke-miterlimit="10"/>
<path d="M15.8045 18.3902H7.08993C6.76504 18.3902 6.5166 18.1414 6.5166 17.8161V7.09949C6.5166 6.77417 6.76504 6.52539 7.08993 6.52539H15.8236C16.1485 6.52539 16.397 6.77417 16.397 7.09949V17.8161C16.3778 18.1223 16.1294 18.3902 15.8045 18.3902ZM7.66326 17.242H15.2503V7.6736H7.66326V17.242Z" fill="#7B7CE1" stroke="#7B7CE1" stroke-miterlimit="10"/>
<path d="M34.3417 8.99391H23.0089C22.684 8.99391 22.4355 8.74513 22.4355 8.41981C22.4355 8.09448 22.684 7.8457 23.0089 7.8457H34.3417C34.6665 7.8457 34.915 8.09448 34.915 8.41981C34.915 8.74513 34.6665 8.99391 34.3417 8.99391Z" fill="#7B7CE1" stroke="#7B7CE1" stroke-miterlimit="10"/>
<path d="M34.3417 16.9929H23.0089C22.684 16.9929 22.4355 16.7442 22.4355 16.4188C22.4355 16.0935 22.684 15.8447 23.0089 15.8447H34.3417C34.6665 15.8447 34.915 16.0935 34.915 16.4188C34.915 16.7442 34.6665 16.9929 34.3417 16.9929Z" fill="#7B7CE1" stroke="#7B7CE1" stroke-miterlimit="10"/>
<path d="M34.3421 24.992H7.08993C6.76504 24.992 6.5166 24.7432 6.5166 24.4179C6.5166 24.0925 6.76504 23.8438 7.08993 23.8438H34.3612C34.6861 23.8438 34.9346 24.0925 34.9346 24.4179C34.9346 24.7432 34.667 24.992 34.3421 24.992Z" fill="#7B7CE1" stroke="#7B7CE1" stroke-miterlimit="10"/>
<path d="M18.4227 32.9724H7.08993C6.76504 32.9724 6.5166 32.7236 6.5166 32.3983C6.5166 32.073 6.76504 31.8242 7.08993 31.8242H18.4418C18.7667 31.8242 19.0151 32.073 19.0151 32.3983C18.996 32.7236 18.7476 32.9724 18.4227 32.9724Z" fill="#7B7CE1" stroke="#7B7CE1" stroke-miterlimit="10"/>
<path d="M36.8076 46.9042C36.5592 46.9042 36.3489 46.7511 36.2725 46.5214L32.9854 37.1253L23.6019 33.8337C23.3726 33.7572 23.2197 33.5467 23.2197 33.2979C23.2197 33.0491 23.3535 32.8386 23.5828 32.7621L45.14 24.227C45.3502 24.1505 45.5986 24.1888 45.7515 24.361C45.9044 24.5332 45.9617 24.7629 45.8853 24.9734L37.3618 46.5597C37.2663 46.7511 37.0369 46.9042 36.8076 46.9042ZM25.4175 33.2405L33.6161 36.111C33.7881 36.1684 33.9027 36.3024 33.9601 36.4555L36.8267 44.6652L44.2991 25.758L25.4175 33.2405Z" fill="#7B7CE1" stroke="#7B7CE1" stroke-miterlimit="10"/>
</g>
<defs>
<clipPath id="clip0_987_2061">
<rect width="46" height="47" fill="white"/>
</clipPath>
</defs>
</svg>
