<svg width="19" height="20" viewBox="0 0 19 20" fill="none" xmlns="http://www.w3.org/2000/svg">
<path d="M10.3379 7.60352V15H9.06641V7.60352H10.3379ZM8.9707 5.6416C8.9707 5.43652 9.03223 5.26335 9.15527 5.12207C9.28288 4.98079 9.46973 4.91016 9.71582 4.91016C9.95736 4.91016 10.1419 4.98079 10.2695 5.12207C10.4017 5.26335 10.4678 5.43652 10.4678 5.6416C10.4678 5.83757 10.4017 6.00618 10.2695 6.14746C10.1419 6.28418 9.95736 6.35254 9.71582 6.35254C9.46973 6.35254 9.28288 6.28418 9.15527 6.14746C9.03223 6.00618 8.9707 5.83757 8.9707 5.6416Z" fill="#222222" fill-opacity="0.6"/>
<circle cx="9.5" cy="10.5" r="9" stroke="#222222" stroke-opacity="0.6"/>
</svg>
