<svg width="43" height="42" viewBox="0 0 43 42" fill="none" xmlns="http://www.w3.org/2000/svg">
<path d="M24.8536 21.5062C24.841 22.1662 24.6327 22.8076 24.2552 23.3491C23.8777 23.8905 23.3479 24.3078 22.7331 24.5478C22.1182 24.7879 21.4458 24.8399 20.8013 24.6975C20.1568 24.555 19.5691 24.2243 19.1127 23.7475C18.6563 23.2706 18.3517 22.6689 18.2377 22.0188C18.1236 21.3686 18.2051 20.6992 18.4719 20.0954C18.7387 19.4917 19.1787 18.9807 19.7363 18.6273C20.2938 18.2739 20.9437 18.094 21.6036 18.1104C22.4804 18.1429 23.3102 18.5156 23.9169 19.1495C24.5236 19.7835 24.8596 20.6288 24.8536 21.5062Z" fill="white"/>
<path d="M27.257 11.0684H15.9549C14.8366 11.0684 13.7641 11.5126 12.9733 12.3034C12.1825 13.0942 11.7383 14.1667 11.7383 15.285V26.8413C11.7383 27.395 11.8473 27.9433 12.0593 28.4549C12.2712 28.9665 12.5818 29.4314 12.9733 29.8229C13.3649 30.2145 13.8297 30.5251 14.3413 30.737C14.8529 30.9489 15.4012 31.0579 15.9549 31.0579H27.257C27.8108 31.0579 28.3591 30.9489 28.8707 30.737C29.3823 30.5251 29.8471 30.2145 30.2387 29.8229C30.6302 29.4314 30.9408 28.9665 31.1527 28.4549C31.3646 27.9433 31.4737 27.395 31.4737 26.8413V15.3059C31.4759 14.7505 31.3685 14.2002 31.1576 13.6865C30.9467 13.1727 30.6365 12.7056 30.2448 12.312C29.8531 11.9183 29.3876 11.6058 28.8749 11.3924C28.3622 11.179 27.8124 11.0689 27.257 11.0684ZM21.6049 27.1579C20.4861 27.1832 19.3851 26.8745 18.4425 26.2713C17.4999 25.6681 16.7584 24.7977 16.3126 23.7712C15.8669 22.7447 15.7371 21.6087 15.9398 20.5081C16.1425 19.4075 16.6685 18.3922 17.4508 17.5919C18.233 16.7916 19.236 16.2425 20.3317 16.0148C21.4274 15.787 22.5661 15.8908 23.6025 16.313C24.6389 16.7353 25.526 17.4567 26.1505 18.3853C26.7751 19.3139 27.1088 20.4076 27.1091 21.5267C27.1182 22.2581 26.9829 22.984 26.7111 23.663C26.4393 24.3421 26.0362 24.9608 25.525 25.4839C25.0137 26.0069 24.4043 26.424 23.7317 26.7113C23.059 26.9985 22.3363 27.1503 21.6049 27.1579ZM27.7216 15.8975C27.5841 15.8976 27.4481 15.8702 27.3213 15.8169C27.1946 15.7637 27.0797 15.6857 26.9835 15.5875C26.8872 15.4894 26.8116 15.373 26.7609 15.2452C26.7102 15.1174 26.6855 14.9808 26.6883 14.8434C26.6883 14.5638 26.7993 14.2956 26.997 14.098C27.1947 13.9003 27.4629 13.7892 27.7424 13.7892C28.022 13.7892 28.2902 13.9003 28.4879 14.098C28.6856 14.2956 28.7966 14.5638 28.7966 14.8434C28.8008 14.9922 28.7727 15.1401 28.7143 15.2771C28.656 15.4141 28.5687 15.5368 28.4585 15.6369C28.3483 15.7371 28.2178 15.8122 28.0758 15.8571C27.9339 15.9021 27.7839 15.9159 27.6362 15.8975H27.7216Z" fill="white"/>
<path d="M21.6038 0.166276C16.0784 0.13865 10.7684 2.30709 6.84188 6.19456C2.91533 10.082 0.693903 15.3701 0.666276 20.8954C0.63865 26.4208 2.80709 31.7308 6.69456 35.6573C10.582 39.5839 15.8701 41.8053 21.3954 41.8329C24.1313 41.8466 26.8431 41.3213 29.3759 40.287C31.9088 39.2526 34.2131 37.7295 36.1573 35.8047C38.1016 33.8798 39.6476 31.5908 40.7072 29.0684C41.7668 26.546 42.3193 23.8396 42.3329 21.1038C42.3466 18.3679 41.8213 15.6561 40.787 13.1233C39.7526 10.5904 38.2295 8.2861 36.3047 6.34188C34.3798 4.39765 32.0908 2.85159 29.5684 1.79198C27.046 0.732371 24.3396 0.179956 21.6038 0.166276ZM34.2559 26.6288C34.2617 27.5634 34.0819 28.4899 33.727 29.3546C33.372 30.2192 32.849 31.0049 32.1882 31.6659C31.5274 32.3269 30.7419 32.8501 29.8774 33.2053C29.0128 33.5605 28.0863 33.7406 27.1517 33.735H16.06C15.1254 33.7408 14.1989 33.5611 13.3342 33.2061C12.4696 32.8512 11.684 32.3281 11.0229 31.6673C10.3619 31.0065 9.83867 30.2211 9.48348 29.3565C9.12829 28.492 8.94824 27.5655 8.95378 26.6309V15.5371C8.94797 14.6025 9.12775 13.6759 9.48268 12.8113C9.83762 11.9466 10.3607 11.161 11.0215 10.5C11.6823 9.83902 12.4677 9.31575 13.3323 8.96056C14.1968 8.60537 15.1233 8.42533 16.0579 8.43086H27.1517C28.0862 8.42533 29.0125 8.60531 29.8769 8.96037C30.7413 9.31543 31.5266 9.83851 32.1874 10.4993C32.8482 11.1601 33.3713 11.9454 33.7263 12.8098C34.0814 13.6743 34.2614 14.6005 34.2559 15.535V26.6288Z" fill="white"/>
</svg>
