<svg width="38" height="39" viewBox="0 0 38 39" fill="none" xmlns="http://www.w3.org/2000/svg">
<path d="M18.9864 38.847C29.4724 38.847 37.9729 30.1508 37.9729 19.4235C37.9729 8.69619 29.4724 0 18.9864 0C8.50052 0 0 8.69619 0 19.4235C0 30.1508 8.50052 38.847 18.9864 38.847Z" fill="white" fill-opacity="0.5"/>
<path d="M29.8145 13.7707C29.6918 12.2708 29.0269 10.8711 27.9491 9.84354C26.7657 8.71213 25.3191 8.21304 23.7315 8.12845C21.0371 7.98253 14.6121 7.88948 12.3592 8.25745C9.78505 8.68041 8.09797 10.1798 7.38501 12.726C6.83785 14.6822 6.9456 23.706 7.26478 25.641C7.70209 28.2888 9.26483 29.9848 11.8846 30.6594C13.6981 31.1289 22.6123 31.0697 24.6123 30.744C27.259 30.3211 28.9647 28.7604 29.6507 26.1422C30.1813 24.1332 29.9968 15.5831 29.8145 13.7707ZM27.6984 25.2667C27.3895 27.2779 26.0569 28.5214 24.0382 28.7434C22.1832 28.9549 13.8991 29.0585 12.1789 28.5764C10.5332 28.1175 9.59232 26.9839 9.31874 25.3259C9.05967 23.7441 8.99334 15.8326 9.31874 13.7157C9.62134 11.7215 10.954 10.478 12.9623 10.2538C14.9706 10.0296 22.3283 10 24.2807 10.3003C26.2849 10.607 27.5263 11.9456 27.746 13.9695C27.9491 15.8559 28.0072 23.245 27.6984 25.2667ZM18.5064 13.6015C15.2504 13.6015 12.6079 16.2408 12.6058 19.4976C12.6037 22.7543 15.2421 25.4 18.5002 25.4021C21.7583 25.4042 24.3968 22.7628 24.3988 19.5039C24.4009 16.245 21.7625 13.6036 18.5064 13.6015ZM18.465 23.3127C17.7315 23.2893 17.021 23.0458 16.4224 22.6125C15.8239 22.1792 15.3639 21.5754 15.1 20.8766C14.8361 20.1779 14.7801 19.4152 14.9389 18.6841C15.0977 17.953 15.4644 17.286 15.9929 16.7664C16.5214 16.2469 17.1884 15.898 17.9103 15.7633C18.6322 15.6286 19.377 15.7142 20.0515 16.0094C20.726 16.3045 21.3002 16.7961 21.7022 17.4226C22.1042 18.049 22.3163 18.7826 22.3117 19.5314C22.2937 20.5521 21.8793 21.5237 21.1596 22.2327C20.4398 22.9418 19.4736 23.3302 18.4733 23.3127H18.465ZM26.0113 13.3731C26.0162 13.6529 25.9394 13.9278 25.7905 14.1629C25.6417 14.3979 25.4277 14.5824 25.1757 14.6927C24.9237 14.8031 24.6452 14.8344 24.3757 14.7826C24.1062 14.7308 23.8579 14.5983 23.6625 14.402C23.4672 14.2056 23.3335 13.9543 23.2787 13.6802C23.2239 13.406 23.2503 13.1214 23.3546 12.8626C23.459 12.6038 23.6365 12.3826 23.8645 12.2272C24.0926 12.0718 24.3608 11.9893 24.6351 11.9901C24.8147 11.9889 24.9928 12.0239 25.1592 12.0931C25.3256 12.1622 25.477 12.2641 25.6048 12.3929C25.7326 12.5217 25.8342 12.6749 25.904 12.8439C25.9737 13.0128 26.0102 13.1941 26.0113 13.3774V13.3731Z" fill="black"/>
</svg>
