<svg width="27" height="28" viewBox="0 0 27 28" fill="none" xmlns="http://www.w3.org/2000/svg">
<path d="M2.21363 8.45996C0.987298 8.45996 0 9.45472 0 10.6903V25.7584C0 26.994 0.987298 27.9888 2.21363 27.9888H5.00924C6.23557 27.9888 7.22286 26.994 7.22286 25.7584V10.6903C7.22286 9.45472 6.23557 8.45996 5.00924 8.45996H2.21363Z" fill="#F85459"/>
<path d="M9.4375 26.5546C9.4375 26.5546 19.4456 26.5546 21.9918 26.5546C24.538 26.5546 26.9906 25.7902 26.9906 22.5755C26.9906 19.3713 26.9906 15.1095 26.9906 13.2771C26.9906 11.4446 25.7851 10.0519 23.6234 10.0519C21.9814 10.0519 17.6684 10.0519 17.6684 10.0519C17.6684 10.0519 21.5345 2.99434 18.9883 0.428895C16.4421 -2.13655 14.6234 7.30848 9.4375 10.9734V26.5546Z" fill="#F85459"/>
</svg>
