<svg width="48" height="50" viewBox="0 0 48 50" fill="none" xmlns="http://www.w3.org/2000/svg">
<rect width="48" height="50" rx="16" fill="#F0EDFE"/>
<g clip-path="url(#clip0_267_741)">
<path d="M13 34H17V22H13V34ZM35 23C35 21.9 34.1 21 33 21H26.69L27.64 16.43L27.67 16.11C27.67 15.7 27.5 15.32 27.23 15.05L26.17 14L19.59 20.59C19.22 20.95 19 21.45 19 22V32C19 33.1 19.9 34 21 34H30C30.83 34 31.54 33.5 31.84 32.78L34.86 25.73C34.95 25.5 35 25.26 35 25V23Z" fill="#8566FF"/>
</g>
<defs>
<clipPath id="clip0_267_741">
<rect width="24" height="24" fill="white" transform="translate(12 13)"/>
</clipPath>
</defs>
</svg>
