<svg width="48" height="50" viewBox="0 0 48 50" fill="none" xmlns="http://www.w3.org/2000/svg">
<rect width="48" height="50" rx="16" fill="#F0EDFE"/>
<g clip-path="url(#clip0_267_762)">
<path fill-rule="evenodd" clip-rule="evenodd" d="M25 22.5H30V20.5H25V22.5ZM25 29.5H30V27.5H25V29.5ZM31 34H17C15.9 34 15 33.1 15 32V18C15 16.9 15.9 16 17 16H31C32.1 16 33 16.9 33 18V32C33 33.1 32.1 34 31 34ZM18 24H23V19H18V24ZM19 20H22V23H19V20ZM18 31H23V26H18V31ZM19 27H22V30H19V27Z" fill="#8566FF"/>
</g>
<defs>
<clipPath id="clip0_267_762">
<rect width="24" height="24" fill="white" transform="translate(12 13)"/>
</clipPath>
</defs>
</svg>
