<svg width="18" height="19" viewBox="0 0 18 19" fill="none" xmlns="http://www.w3.org/2000/svg">
<g clip-path="url(#clip0_1697_998)">
<path d="M9 2.125C6.0975 2.125 3.75 4.4725 3.75 7.375C3.75 8.68 4.125 9.9025 4.8075 11.005C5.52 12.16 6.4575 13.15 7.1775 14.305C7.53 14.8675 7.785 15.3925 8.055 16C8.25 16.4125 8.4075 17.125 9 17.125C9.5925 17.125 9.75 16.4125 9.9375 16C10.215 15.3925 10.4625 14.8675 10.815 14.305C11.535 13.1575 12.4725 12.1675 13.185 11.005C13.875 9.9025 14.25 8.68 14.25 7.375C14.25 4.4725 11.9025 2.125 9 2.125ZM9 9.4375C7.965 9.4375 7.125 8.5975 7.125 7.5625C7.125 6.5275 7.965 5.6875 9 5.6875C10.035 5.6875 10.875 6.5275 10.875 7.5625C10.875 8.5975 10.035 9.4375 9 9.4375Z" fill="#857AE4"/>
</g>
<defs>
<clipPath id="clip0_1697_998">
<rect width="18" height="18" fill="white" transform="translate(0 0.625)"/>
</clipPath>
</defs>
</svg>
