<svg width="22" height="27" viewBox="0 0 22 27" fill="none" xmlns="http://www.w3.org/2000/svg">
<path d="M0.179688 13.2271V24.2375C0.179688 25.7636 1.43617 27 2.98712 27H18.3716C19.9226 27 21.1797 25.7636 21.1797 24.2375V13.2271C21.1797 11.701 19.9226 10.4646 18.3716 10.4646H17.2401V6.45502C17.2401 4.73047 16.5578 3.10926 15.3187 1.89003C14.0796 0.6708 12.432 0 10.68 0C8.92738 0 7.27978 0.671434 6.04069 1.89067C4.80161 3.1099 4.11924 4.7311 4.11924 6.45565V10.4652H2.98712C1.43617 10.4646 0.179688 11.701 0.179688 13.2271ZM9.20123 17.7762C9.20123 16.9722 9.86362 16.3211 10.68 16.3211C11.497 16.3211 12.1588 16.9722 12.1588 17.7762C12.1588 18.3741 11.7915 18.8883 11.267 19.1121L11.5331 20.5786C11.5815 20.843 11.3753 21.0852 11.1027 21.0852H10.2573C9.98476 21.0852 9.77792 20.843 9.82625 20.5786L10.093 19.1121C9.56851 18.8889 9.20058 18.3747 9.20058 17.7762H9.20123ZM5.86221 6.45502C5.86221 3.84093 8.02336 1.71441 10.68 1.71441C13.3367 1.71441 15.4972 3.84093 15.4972 6.45502V10.4646H5.86221V6.45502Z" fill="#8566FF"/>
</svg>
