<svg width="145" height="27" viewBox="0 0 145 27" fill="none" xmlns="http://www.w3.org/2000/svg">
<path d="M46.5638 14.7794H38.1906V21.3897H47.9934V24.1618H34.7188V2.83824H47.9934V5.82353H38.3948V11.5809H46.768V14.7794H46.5638ZM57.7962 14.9926L55.5497 17.5515V24.1618H52.0779V2.83824H55.5497V12.8603L57.592 10.3015L63.5145 2.83824H67.8032L60.2469 12.2206L68.2117 23.9485H63.923L57.7962 14.9926ZM82.7117 19.2573H74.7469L73.1131 24.1618H69.437L77.1976 2.83824H80.4652L88.2258 24.1618H84.5497L82.7117 19.2573ZM75.768 16.2721H81.6906L78.8314 7.52941L75.768 16.2721ZM102.113 18.6176C102.113 17.7647 101.705 16.9118 101.092 16.4853C100.479 16.0588 99.2539 15.4191 97.6201 14.9926C95.9863 14.5662 94.761 13.9265 93.7399 13.2868C91.9018 12.0073 90.8807 10.5147 90.8807 8.59559C90.8807 6.8897 91.4934 5.39706 92.923 4.33088C94.3525 3.26471 95.9863 2.625 98.0286 2.625C99.4582 2.625 100.684 2.83824 101.909 3.47794C102.93 4.11765 103.951 4.75735 104.564 5.82353C105.176 6.8897 105.585 7.95588 105.585 9.23529H102.113C102.113 8.16912 101.705 7.31617 101.092 6.67647C100.479 6.03676 99.4582 5.82353 98.2328 5.82353C97.0075 5.82353 96.1906 6.03676 95.5779 6.67647C94.9652 7.10294 94.5568 7.95588 94.5568 8.80882C94.5568 9.66176 94.9652 10.3015 95.5779 10.7279C96.1906 11.1544 97.4159 11.7941 99.0497 12.2206C100.684 12.6471 101.909 13.2868 102.93 13.9265C103.951 14.5662 104.564 15.2059 104.972 16.0588C105.381 16.9118 105.585 17.7647 105.585 18.8309C105.585 20.5368 104.972 22.0294 103.543 23.0956C102.317 24.1618 100.479 24.5882 98.2328 24.5882C96.8032 24.5882 95.3737 24.375 94.1483 23.7353C92.923 23.0956 91.9018 22.4559 91.2892 21.3897C90.6765 20.3235 90.268 19.2573 90.268 17.9779H93.9441C93.9441 19.2573 94.3525 20.1103 95.1694 20.75C95.9863 21.3897 97.0075 21.8162 98.437 21.8162C99.6624 21.8162 100.684 21.6029 101.296 20.9632C101.705 20.3235 102.113 19.4706 102.113 18.6176ZM120.493 18.6176C120.493 17.7647 120.085 16.9118 119.472 16.4853C118.86 16.0588 117.634 15.4191 116 14.9926C114.367 14.5662 113.141 13.9265 112.12 13.2868C110.282 12.0073 109.261 10.5147 109.261 8.59559C109.261 6.8897 109.874 5.39706 111.303 4.33088C112.733 3.26471 114.367 2.625 116.409 2.625C117.838 2.625 119.064 2.83824 120.289 3.47794C121.31 4.11765 122.331 4.75735 122.944 5.82353C123.557 6.8897 123.965 7.95588 123.965 9.23529H120.493C120.493 8.16912 120.085 7.31617 119.472 6.67647C118.86 6.03676 117.838 5.82353 116.613 5.82353C115.388 5.82353 114.571 6.03676 113.958 6.67647C113.345 7.10294 112.937 7.95588 112.937 8.80882C112.937 9.66176 113.345 10.3015 113.958 10.7279C114.571 11.1544 115.796 11.7941 117.43 12.2206C119.064 12.6471 120.289 13.2868 121.31 13.9265C122.331 14.5662 122.944 15.2059 123.353 16.0588C123.761 16.9118 123.965 17.7647 123.965 18.8309C123.965 20.5368 123.353 22.0294 121.923 23.0956C120.698 24.1618 118.86 24.5882 116.613 24.5882C115.184 24.5882 113.754 24.375 112.529 23.7353C111.303 23.0956 110.282 22.4559 109.669 21.3897C109.057 20.3235 108.648 19.2573 108.648 17.9779H112.324C112.324 19.2573 112.733 20.1103 113.55 20.75C114.367 21.3897 115.388 21.8162 116.817 21.8162C118.043 21.8162 119.064 21.6029 119.676 20.9632C120.085 20.3235 120.493 19.4706 120.493 18.6176ZM139.691 19.2573H131.726L130.092 24.1618H126.416L134.176 2.83824H137.444L145 24.1618H141.324L139.691 19.2573ZM132.747 16.2721H138.669L135.81 7.52941L132.747 16.2721Z" fill="white"/>
<path fill-rule="evenodd" clip-rule="evenodd" d="M12.2535 0.706055V8.59576C14.0915 3.90458 18.3803 0.706055 23.4859 0.706055V26.2943C18.3803 26.2943 14.0915 23.0958 12.2535 18.4046V26.2943C5.51408 26.2943 0 20.5369 0 13.5002C0 6.46341 5.51408 0.706055 12.2535 0.706055Z" fill="#F85459"/>
</svg>
