<svg width="144" height="25" viewBox="0 0 144 25" fill="none" xmlns="http://www.w3.org/2000/svg">
<g clip-path="url(#clip0_1746_26416)">
<path d="M46.2423 13.75H37.9268V20.2083H47.662V22.9167H34.4789V2.08333H47.662V5H38.1296V10.625H46.4451V13.75H46.2423ZM57.3972 13.9583L55.1662 16.4583V22.9167H51.7183V2.08333H55.1662V11.875L57.1944 9.375L63.0761 2.08333H67.3352L59.831 11.25L67.7409 22.7083H63.4817L57.3972 13.9583ZM82.1409 18.125H74.231L72.6085 22.9167H68.9578L76.6648 2.08333H79.9099L87.6169 22.9167H83.9662L82.1409 18.125ZM75.2451 15.2083H81.1268L78.2873 6.66667L75.2451 15.2083ZM101.408 17.5C101.408 16.6667 101.003 15.8333 100.394 15.4167C99.7859 15 98.569 14.375 96.9465 13.9583C95.324 13.5417 94.1071 12.9167 93.093 12.2917C91.2676 11.0417 90.2535 9.58333 90.2535 7.70833C90.2535 6.04167 90.862 4.58333 92.2817 3.54167C93.7014 2.5 95.324 1.875 97.3521 1.875C98.7718 1.875 99.9887 2.08333 101.206 2.70833C102.22 3.33333 103.234 3.95833 103.842 5C104.451 6.04167 104.856 7.08333 104.856 8.33333H101.408C101.408 7.29167 101.003 6.45833 100.394 5.83333C99.7859 5.20833 98.7718 5 97.5549 5C96.338 5 95.5268 5.20833 94.9183 5.83333C94.3099 6.25 93.9042 7.08333 93.9042 7.91667C93.9042 8.75 94.3099 9.375 94.9183 9.79167C95.5268 10.2083 96.7437 10.8333 98.3662 11.25C99.9887 11.6667 101.206 12.2917 102.22 12.9167C103.234 13.5417 103.842 14.1667 104.248 15C104.654 15.8333 104.856 16.6667 104.856 17.7083C104.856 19.375 104.248 20.8333 102.828 21.875C101.611 22.9167 99.7859 23.3333 97.5549 23.3333C96.1352 23.3333 94.7155 23.125 93.4986 22.5C92.2817 21.875 91.2676 21.25 90.6592 20.2083C90.0507 19.1667 89.6451 18.125 89.6451 16.875H93.2958C93.2958 18.125 93.7014 18.9583 94.5127 19.5833C95.324 20.2083 96.338 20.625 97.7578 20.625C98.9747 20.625 99.9887 20.4167 100.597 19.7917C101.003 19.1667 101.408 18.3333 101.408 17.5ZM119.662 17.5C119.662 16.6667 119.256 15.8333 118.648 15.4167C118.039 15 116.823 14.375 115.2 13.9583C113.577 13.5417 112.361 12.9167 111.346 12.2917C109.521 11.0417 108.507 9.58333 108.507 7.70833C108.507 6.04167 109.116 4.58333 110.535 3.54167C111.955 2.5 113.577 1.875 115.606 1.875C117.025 1.875 118.242 2.08333 119.459 2.70833C120.473 3.33333 121.487 3.95833 122.096 5C122.704 6.04167 123.11 7.08333 123.11 8.33333H119.662C119.662 7.29167 119.256 6.45833 118.648 5.83333C118.039 5.20833 117.025 5 115.808 5C114.592 5 113.78 5.20833 113.172 5.83333C112.563 6.25 112.158 7.08333 112.158 7.91667C112.158 8.75 112.563 9.375 113.172 9.79167C113.78 10.2083 114.997 10.8333 116.62 11.25C118.242 11.6667 119.459 12.2917 120.473 12.9167C121.487 13.5417 122.096 14.1667 122.501 15C122.907 15.8333 123.11 16.6667 123.11 17.7083C123.11 19.375 122.501 20.8333 121.082 21.875C119.865 22.9167 118.039 23.3333 115.808 23.3333C114.389 23.3333 112.969 23.125 111.752 22.5C110.535 21.875 109.521 21.25 108.913 20.2083C108.304 19.1667 107.899 18.125 107.899 16.875H111.549C111.549 18.125 111.955 18.9583 112.766 19.5833C113.577 20.2083 114.592 20.625 116.011 20.625C117.228 20.625 118.242 20.4167 118.851 19.7917C119.256 19.1667 119.662 18.3333 119.662 17.5ZM138.727 18.125H130.817L129.194 22.9167H125.544L133.251 2.08333H136.496L144 22.9167H140.349L138.727 18.125ZM131.831 15.2083H137.713L134.873 6.66667L131.831 15.2083Z" fill="#141232"/>
<path fill-rule="evenodd" clip-rule="evenodd" d="M12.169 0V7.70833C13.9944 3.125 18.2535 0 23.3239 0V25C18.2535 25 13.9944 21.875 12.169 17.2917V25C5.47606 25 0 19.375 0 12.5C0 5.625 5.47606 0 12.169 0Z" fill="#F85459"/>
</g>
<defs>
<clipPath id="clip0_1746_26416">
<rect width="144" height="25" fill="white"/>
</clipPath>
</defs>
</svg>
