<svg width="119" height="21" viewBox="0 0 119 21" fill="none" xmlns="http://www.w3.org/2000/svg">
<g clip-path="url(#clip0_1725_1451)">
<path d="M38.2141 11.5502H31.3423V16.9752H39.3873V19.2502H28.493V1.7502H39.3873V4.2002H31.5099V8.92519H38.3817V11.5502H38.2141ZM47.4324 11.7252L45.5888 13.8252V19.2502H42.7395V1.7502H45.5888V9.97519L47.2648 7.87519L52.1254 1.7502H55.6451L49.4437 9.45019L55.9803 19.0752H52.4606L47.4324 11.7252ZM67.8803 15.2252H61.3437L60.0028 19.2502H56.9859L63.355 1.7502H66.0366L72.4057 19.2502H69.3888L67.8803 15.2252ZM62.1817 12.7752H67.0423L64.6958 5.6002L62.1817 12.7752ZM83.8028 14.7002C83.8028 14.0002 83.4676 13.3002 82.9648 12.9502C82.462 12.6002 81.4564 12.0752 80.1155 11.7252C78.7747 11.3752 77.769 10.8502 76.931 10.3252C75.4226 9.27519 74.5845 8.0502 74.5845 6.4752C74.5845 5.0752 75.0874 3.8502 76.2606 2.9752C77.4338 2.1002 78.7747 1.5752 80.4507 1.5752C81.624 1.5752 82.6296 1.7502 83.6352 2.2752C84.4733 2.8002 85.3113 3.3252 85.8141 4.2002C86.3169 5.0752 86.6521 5.95019 86.6521 7.00019H83.8028C83.8028 6.1252 83.4676 5.42519 82.9648 4.9002C82.462 4.3752 81.624 4.2002 80.6183 4.2002C79.6127 4.2002 78.9423 4.3752 78.4395 4.9002C77.9366 5.2502 77.6014 5.9502 77.6014 6.6502C77.6014 7.35019 77.9366 7.87519 78.4395 8.22519C78.9423 8.57519 79.9479 9.10019 81.2888 9.45019C82.6296 9.80019 83.6352 10.3252 84.4733 10.8502C85.3113 11.3752 85.8141 11.9002 86.1493 12.6002C86.4845 13.3002 86.6521 14.0002 86.6521 14.8752C86.6521 16.2752 86.1493 17.5002 84.9761 18.3752C83.9705 19.2502 82.462 19.6002 80.6183 19.6002C79.4451 19.6002 78.2719 19.4252 77.2662 18.9002C76.2606 18.3752 75.4226 17.8502 74.9197 16.9752C74.4169 16.1002 74.0817 15.2252 74.0817 14.1752H77.0986C77.0986 15.2252 77.4338 15.9252 78.1043 16.4502C78.7747 16.9752 79.6127 17.3252 80.7859 17.3252C81.7916 17.3252 82.6296 17.1502 83.1324 16.6252C83.4676 16.1002 83.8028 15.4002 83.8028 14.7002ZM98.8874 14.7002C98.8874 14.0002 98.5521 13.3002 98.0493 12.9502C97.5465 12.6002 96.5409 12.0752 95.2 11.7252C93.8592 11.3752 92.8536 10.8502 92.0155 10.3252C90.5071 9.27519 89.669 8.0502 89.669 6.4752C89.669 5.0752 90.1719 3.8502 91.3451 2.9752C92.5183 2.1002 93.8592 1.5752 95.5352 1.5752C96.7085 1.5752 97.7141 1.7502 98.7197 2.2752C99.5578 2.8002 100.396 3.3252 100.899 4.2002C101.401 5.0752 101.737 5.95019 101.737 7.00019H98.8874C98.8874 6.1252 98.5521 5.42519 98.0493 4.9002C97.5465 4.3752 96.7085 4.2002 95.7028 4.2002C94.6972 4.2002 94.0268 4.3752 93.524 4.9002C93.0212 5.2502 92.6859 5.9502 92.6859 6.6502C92.6859 7.35019 93.0212 7.87519 93.524 8.22519C94.0268 8.57519 95.0324 9.10019 96.3733 9.45019C97.7141 9.80019 98.7197 10.3252 99.5578 10.8502C100.396 11.3752 100.899 11.9002 101.234 12.6002C101.569 13.3002 101.737 14.0002 101.737 14.8752C101.737 16.2752 101.234 17.5002 100.061 18.3752C99.055 19.2502 97.5465 19.6002 95.7028 19.6002C94.5296 19.6002 93.3564 19.4252 92.3507 18.9002C91.3451 18.3752 90.5071 17.8502 90.0043 16.9752C89.5014 16.1002 89.1662 15.2252 89.1662 14.1752H92.1831C92.1831 15.2252 92.5183 15.9252 93.1888 16.4502C93.8592 16.9752 94.6972 17.3252 95.8705 17.3252C96.8761 17.3252 97.7141 17.1502 98.2169 16.6252C98.5521 16.1002 98.8874 15.4002 98.8874 14.7002ZM114.642 15.2252H108.106L106.765 19.2502H103.748L110.117 1.7502H112.799L119 19.2502H115.983L114.642 15.2252ZM108.944 12.7752H113.804L111.458 5.6002L108.944 12.7752Z" fill="white"/>
<path fill-rule="evenodd" clip-rule="evenodd" d="M10.0563 0V6.475C11.5648 2.625 15.0845 0 19.2746 0V21C15.0845 21 11.5648 18.375 10.0563 14.525V21C4.52535 21 0 16.275 0 10.5C0 4.725 4.52535 0 10.0563 0Z" fill="white"/>
</g>
<defs>
<clipPath id="clip0_1725_1451">
<rect width="119" height="21" fill="white"/>
</clipPath>
</defs>
</svg>
