<svg width="24" height="5" viewBox="0 0 24 5" fill="none" xmlns="http://www.w3.org/2000/svg">
<path d="M2.34033 4.22859C1.60294 4.24419 1.03762 4.028 0.644368 3.58005C0.314057 3.08385 0.18566 2.5578 0.259189 2.00189C0.318013 1.55717 0.51214 1.15862 0.841564 0.806249C1.23393 0.405642 1.74321 0.190189 2.36941 0.15989C2.94002 0.122238 4.09435 0.161793 5.83236 0.278556C7.57773 0.339725 9.54178 0.458106 11.7245 0.633691C13.9629 0.81663 15.9993 1.02942 17.8338 1.27207C19.7794 1.52943 21.2416 1.80766 22.2201 2.10679C23.0319 2.38385 23.4121 2.71695 23.3606 3.10609C23.3091 3.49522 22.9205 3.86804 22.1945 4.22453C21.476 4.52542 20.6405 4.64117 19.6881 4.57176C17.2904 4.31117 14.9057 4.16544 12.5341 4.13457C10.2182 4.11105 8.15232 4.12062 6.33666 4.16328C4.52835 4.15034 3.19624 4.17212 2.34033 4.22859Z" fill="black"/>
</svg>
