<svg width="124" height="124" viewBox="0 0 124 124" fill="none" xmlns="http://www.w3.org/2000/svg">
<circle cx="62" cy="62" r="61.5" fill="white" stroke="#141232"/>
<path d="M78.8038 44.3485C76.9385 44.3485 75.1151 43.7915 73.5642 42.748C72.0133 41.7044 70.8046 40.2212 70.0908 38.4859C69.3771 36.7506 69.1904 34.8411 69.5543 32.9989C69.9183 31.1568 70.8166 29.4646 72.1356 28.1366C73.4546 26.8085 75.1351 25.9041 76.9646 25.5378C78.7941 25.1715 80.6903 25.3597 82.4135 26.0787C84.1367 26.7976 85.6096 28.0149 86.6457 29.5768C87.6818 31.1386 88.2348 32.9748 88.2346 34.853C88.2318 37.3707 87.2373 39.7845 85.4692 41.5646C83.7012 43.3448 81.3041 44.346 78.8038 44.3485ZM78.8038 26.5145C77.166 26.5145 75.565 27.0036 74.2032 27.9198C72.8415 28.8361 71.7801 30.1384 71.1534 31.662C70.5266 33.1857 70.3626 34.8623 70.6821 36.4798C71.0016 38.0973 71.7903 39.5831 72.9484 40.7493C74.1065 41.9154 75.582 42.7096 77.1883 43.0313C78.7946 43.3531 80.4596 43.188 81.9727 42.5568C83.4858 41.9257 84.7791 40.8569 85.689 39.4857C86.5989 38.1144 87.0846 36.5022 87.0846 34.853C87.0824 32.6422 86.2092 30.5226 84.6568 28.9593C83.1043 27.396 80.9993 26.5167 78.8038 26.5145Z" fill="#141232"/>
<path d="M78.8037 42.1783C78.6512 42.1783 78.505 42.1173 78.3972 42.0087C78.2893 41.9001 78.2288 41.7528 78.2288 41.5993V41.454C78.2288 41.3004 78.2893 41.1532 78.3972 41.0446C78.505 40.936 78.6512 40.875 78.8037 40.875C78.9562 40.875 79.1025 40.936 79.2103 41.0446C79.3181 41.1532 79.3787 41.3004 79.3787 41.454V41.5993C79.3787 41.7528 79.3181 41.9001 79.2103 42.0087C79.1025 42.1173 78.9562 42.1783 78.8037 42.1783Z" fill="#141232"/>
<path d="M72.2493 35.4392H72.105C71.9525 35.4392 71.8063 35.3782 71.6984 35.2696C71.5906 35.1611 71.53 35.0138 71.53 34.8602C71.53 34.7067 71.5906 34.5594 71.6984 34.4508C71.8063 34.3422 71.9525 34.2812 72.105 34.2812H72.2493C72.4018 34.2812 72.548 34.3422 72.6559 34.4508C72.7637 34.5594 72.8243 34.7067 72.8243 34.8602C72.8243 35.0138 72.7637 35.1611 72.6559 35.2696C72.548 35.3782 72.4018 35.4392 72.2493 35.4392Z" fill="#141232"/>
<path d="M85.5039 35.4392H85.3597C85.2072 35.4392 85.0609 35.3782 84.9531 35.2696C84.8452 35.1611 84.7847 35.0138 84.7847 34.8602C84.7847 34.7067 84.8452 34.5594 84.9531 34.4508C85.0609 34.3422 85.2072 34.2812 85.3597 34.2812H85.5039C85.6564 34.2812 85.8027 34.3422 85.9105 34.4508C86.0183 34.5594 86.0789 34.7067 86.0789 34.8602C86.0789 35.0138 86.0183 35.1611 85.9105 35.2696C85.8027 35.3782 85.6564 35.4392 85.5039 35.4392Z" fill="#141232"/>
<path d="M79.4769 34.7377C79.3635 34.7374 79.2527 34.7032 79.1584 34.6395C79.0642 34.5759 78.9908 34.4856 78.9475 34.3801C78.9041 34.2745 78.8927 34.1584 78.9148 34.0463C78.9368 33.9342 78.9912 33.8313 79.0713 33.7503L81.6524 31.1501C81.7058 31.0963 81.7692 31.0536 81.839 31.0245C81.9088 30.9954 81.9836 30.9805 82.0591 30.9805C82.1346 30.9805 82.2094 30.9954 82.2792 31.0245C82.349 31.0536 82.4124 31.0963 82.4658 31.1501C82.5192 31.2039 82.5615 31.2677 82.5904 31.338C82.6193 31.4082 82.6342 31.4835 82.6342 31.5596C82.6342 31.6356 82.6193 31.7109 82.5904 31.7812C82.5615 31.8515 82.5192 31.9153 82.4658 31.9691L79.8836 34.5682C79.8303 34.6222 79.767 34.665 79.6971 34.6941C79.6273 34.7232 79.5525 34.738 79.4769 34.7377Z" fill="#141232"/>
<path d="M74.1694 30.7595C74.0939 30.7596 74.0191 30.7446 73.9493 30.7156C73.8795 30.6865 73.8161 30.6438 73.7627 30.59L73.6582 30.4847C73.5503 30.3761 73.4897 30.2288 73.4897 30.0752C73.4897 29.9216 73.5503 29.7743 73.6582 29.6657C73.766 29.5571 73.9123 29.4961 74.0649 29.4961C74.2174 29.4961 74.3637 29.5571 74.4715 29.6657L74.5761 29.771C74.6565 29.8519 74.7112 29.955 74.7335 30.0672C74.7557 30.1795 74.7444 30.2958 74.701 30.4016C74.6576 30.5074 74.584 30.5978 74.4896 30.6615C74.3952 30.7252 74.2841 30.7593 74.1704 30.7595H74.1694Z" fill="#141232"/>
<path d="M83.5417 40.2002C83.4662 40.2003 83.3914 40.1854 83.3216 40.1563C83.2518 40.1272 83.1884 40.0846 83.135 40.0308L83.0305 39.9255C82.9278 39.8159 82.8716 39.6702 82.8738 39.5196C82.8761 39.3689 82.9366 39.225 83.0424 39.1185C83.1483 39.0121 83.2913 38.9513 83.4409 38.9493C83.5906 38.9472 83.7351 39.004 83.8438 39.1075L83.9484 39.2128C84.0288 39.2938 84.0836 39.397 84.1058 39.5093C84.128 39.6216 84.1166 39.7381 84.0731 39.8439C84.0296 39.9497 83.9558 40.0402 83.8613 40.1038C83.7667 40.1674 83.6555 40.2013 83.5417 40.2013V40.2002Z" fill="#141232"/>
<path d="M74.0671 40.2007C73.9534 40.2007 73.8422 40.1668 73.7476 40.1032C73.653 40.0395 73.5793 39.9491 73.5357 39.8433C73.4922 39.7375 73.4808 39.621 73.503 39.5087C73.5252 39.3963 73.58 39.2931 73.6604 39.2122L73.765 39.1069C73.8727 38.9984 74.0188 38.9375 74.1711 38.9375C74.3235 38.9375 74.4696 38.9984 74.5773 39.1069C74.685 39.2154 74.7455 39.3625 74.7455 39.5159C74.7455 39.6693 74.685 39.8164 74.5773 39.9249L74.4727 40.0301C74.4196 40.084 74.3564 40.1268 74.2868 40.156C74.2172 40.1853 74.1425 40.2005 74.0671 40.2007Z" fill="#141232"/>
<path d="M83.5418 30.6581C83.4666 30.6587 83.3921 30.6443 83.3225 30.6158C83.2528 30.5872 83.1895 30.5451 83.1362 30.4918C82.5686 29.9174 81.8936 29.4621 81.1501 29.152C80.4067 28.8419 79.6096 28.6833 78.805 28.6854C78.6525 28.6854 78.5062 28.6244 78.3984 28.5158C78.2906 28.4072 78.23 28.2599 78.23 28.1064C78.23 27.9528 78.2906 27.8055 78.3984 27.697C78.5062 27.5884 78.6525 27.5274 78.805 27.5274C79.7607 27.5248 80.7075 27.7131 81.5906 28.0814C82.4736 28.4496 83.2754 28.9905 83.9495 29.6728C84.0299 29.7538 84.0847 29.857 84.1069 29.9693C84.1291 30.0816 84.1177 30.1981 84.0742 30.3039C84.0307 30.4097 83.9569 30.5002 83.8624 30.5638C83.7678 30.6274 83.6566 30.6613 83.5428 30.6613L83.5418 30.6581Z" fill="#141232"/>
<path d="M78.8039 36.4012C78.5005 36.4012 78.204 36.3106 77.9517 36.1408C77.6995 35.9711 77.503 35.7298 77.3869 35.4476C77.2709 35.1653 77.2405 34.8548 77.2998 34.5552C77.3591 34.2556 77.5052 33.9804 77.7198 33.7645C77.9344 33.5485 78.2078 33.4015 78.5053 33.342C78.8029 33.2826 79.1113 33.3133 79.3915 33.4304C79.6717 33.5474 79.9112 33.7455 80.0796 33.9996C80.248 34.2537 80.3377 34.5524 80.3375 34.8579C80.337 35.2672 80.1752 35.6596 79.8877 35.9489C79.6001 36.2382 79.2104 36.4009 78.8039 36.4012ZM78.8039 34.4715C78.728 34.4715 78.6538 34.4942 78.5907 34.5367C78.5277 34.5791 78.4785 34.6394 78.4494 34.71C78.4204 34.7806 78.4128 34.8583 78.4276 34.9333C78.4424 35.0082 78.479 35.077 78.5326 35.1311C78.5863 35.1851 78.6546 35.2219 78.729 35.2368C78.8035 35.2517 78.8806 35.2441 78.9507 35.2148C79.0208 35.1856 79.0807 35.1361 79.1229 35.0725C79.1651 35.009 79.1876 34.9343 79.1876 34.8579C79.1877 34.8071 79.1779 34.7568 79.1586 34.7099C79.1394 34.6629 79.1112 34.6203 79.0755 34.5844C79.0399 34.5485 78.9975 34.52 78.9509 34.5007C78.9043 34.4813 78.8543 34.4714 78.8039 34.4715Z" fill="#141232"/>
<path d="M72.5365 29.1374C72.3862 29.1378 72.242 29.0784 72.135 28.9721L71.1429 27.9973C71.0338 27.89 70.9715 27.7434 70.9698 27.5898C70.968 27.4362 71.0269 27.2882 71.1335 27.1783C71.2401 27.0684 71.3857 27.0057 71.5382 27.0039C71.6908 27.0022 71.8377 27.0615 71.9468 27.1688L72.9379 28.1436C73.0199 28.224 73.0761 28.3272 73.0995 28.4399C73.123 28.5527 73.1124 28.6699 73.0693 28.7766C73.0262 28.8833 72.9525 28.9746 72.8576 29.0389C72.7627 29.1031 72.6509 29.1375 72.5365 29.1374Z" fill="#141232"/>
<path d="M70.9809 28.744C70.8677 28.7446 70.7568 28.7115 70.6621 28.649C70.5674 28.5865 70.4931 28.4973 70.4485 28.3925C70.4038 28.2877 70.3909 28.172 70.4112 28.0598C70.4315 27.9476 70.4843 27.844 70.5628 27.7618L71.6908 26.5922C71.7428 26.5355 71.8056 26.4899 71.8755 26.458C71.9453 26.4261 72.0208 26.4085 72.0975 26.4065C72.1741 26.4044 72.2504 26.4178 72.3219 26.4458C72.3933 26.4739 72.4585 26.516 72.5135 26.5698C72.5685 26.6236 72.6123 26.688 72.6423 26.759C72.6722 26.8301 72.6878 26.9065 72.688 26.9838C72.6882 27.061 72.673 27.1375 72.6434 27.2087C72.6138 27.28 72.5704 27.3445 72.5156 27.3986L71.3887 28.5682C71.3357 28.6232 71.2723 28.6671 71.2023 28.6973C71.1323 28.7275 71.0571 28.7433 70.9809 28.744Z" fill="#141232"/>
<path d="M85.0721 29.1374C84.9577 29.1377 84.8457 29.1035 84.7506 29.0393C84.6555 28.9751 84.5817 28.8838 84.5384 28.7771C84.4952 28.6703 84.4846 28.553 84.508 28.4402C84.5313 28.3273 84.5876 28.2241 84.6697 28.1436L85.6618 27.1688C85.7709 27.0615 85.9178 27.0022 86.0704 27.0039C86.2229 27.0057 86.3685 27.0684 86.4751 27.1783C86.5817 27.2882 86.6406 27.4362 86.6388 27.5898C86.6371 27.7434 86.5748 27.89 86.4657 27.9973L85.4736 28.9721C85.3665 29.0782 85.2223 29.1375 85.0721 29.1374Z" fill="#141232"/>
<path d="M86.6277 28.744C86.5497 28.7448 86.4725 28.7296 86.4006 28.6994C86.3287 28.6691 86.2637 28.6245 86.2095 28.5682L85.0825 27.3986C85.0278 27.3445 84.9843 27.28 84.9547 27.2087C84.9251 27.1375 84.91 27.061 84.9102 26.9838C84.9104 26.9065 84.9259 26.8301 84.9559 26.759C84.9858 26.688 85.0296 26.6236 85.0846 26.5698C85.1397 26.516 85.2048 26.4739 85.2763 26.4458C85.3477 26.4178 85.424 26.4044 85.5007 26.4065C85.5773 26.4085 85.6528 26.4261 85.7227 26.458C85.7925 26.4899 85.8553 26.5355 85.9074 26.5922L87.0343 27.7618C87.113 27.8434 87.166 27.9465 87.1868 28.0582C87.2076 28.17 87.1953 28.2855 87.1513 28.3902C87.1074 28.495 87.0338 28.5844 86.9398 28.6473C86.8457 28.7102 86.7353 28.7438 86.6224 28.744H86.6277Z" fill="#141232"/>
<path d="M80.1933 25.2689H77.4156C77.2597 25.2736 77.1044 25.2467 76.959 25.1899C76.8135 25.133 76.6809 25.0474 76.5689 24.938C76.457 24.8286 76.368 24.6976 76.3072 24.5529C76.2464 24.4082 76.2151 24.2527 76.2151 24.0956C76.2151 23.9385 76.2464 23.783 76.3072 23.6384C76.368 23.4937 76.457 23.3627 76.5689 23.2533C76.6809 23.1439 76.8135 23.0583 76.959 23.0014C77.1044 22.9446 77.2597 22.9177 77.4156 22.9224H80.1933C80.4963 22.9315 80.7838 23.0592 80.9949 23.2782C81.206 23.4972 81.3241 23.7904 81.3241 24.0956C81.3241 24.4009 81.206 24.6941 80.9949 24.9131C80.7838 25.1321 80.4963 25.2597 80.1933 25.2689ZM77.4156 24.0804C77.4117 24.0804 77.4078 24.0819 77.4049 24.0846C77.402 24.0874 77.4002 24.0911 77.4 24.0951C77.4 24.0972 77.4004 24.0992 77.4011 24.1012C77.4019 24.1031 77.4031 24.1048 77.4045 24.1063C77.406 24.1077 77.4077 24.1089 77.4096 24.1097C77.4115 24.1105 77.4136 24.1109 77.4156 24.1109H80.1933C80.1973 24.1106 80.201 24.1089 80.2037 24.1059C80.2065 24.103 80.208 24.0991 80.208 24.0951C80.208 24.0912 80.2064 24.0875 80.2037 24.0847C80.2009 24.0819 80.1972 24.0804 80.1933 24.0804H77.4156Z" fill="#141232"/>
<path d="M78.805 26.5138C78.6526 26.5135 78.5065 26.4524 78.3987 26.3439C78.2909 26.2354 78.2303 26.0882 78.23 25.9348V24.6884C78.23 24.5348 78.2906 24.3875 78.3984 24.279C78.5062 24.1704 78.6525 24.1094 78.805 24.1094C78.9575 24.1094 79.1037 24.1704 79.2115 24.279C79.3194 24.3875 79.3799 24.5348 79.3799 24.6884V25.9348C79.3799 26.0883 79.3194 26.2356 79.2115 26.3442C79.1037 26.4528 78.9575 26.5138 78.805 26.5138Z" fill="#141232"/>
<path d="M44.6739 94.2621C44.5071 94.2619 44.3462 94.1998 44.2218 94.0878C44.0975 93.9758 44.0184 93.8216 43.9996 93.6547C43.5637 89.8038 41.0453 87.1089 38.3795 84.2571C36.78 82.5454 35.1261 80.7769 33.8726 78.6883C31.3333 74.4595 30.3182 68.678 31.026 62.407C31.4096 58.991 31.9031 56.0908 32.453 54.0253C33.1994 51.2178 34.0211 49.9524 35.1219 49.9198C35.4605 49.9064 35.7978 49.968 36.1101 50.1003C36.4224 50.2325 36.7021 50.4321 36.9295 50.6851C38.5457 52.44 38.3523 56.7561 37.9007 61.1585C37.8505 61.6533 37.7961 62.1649 37.8024 62.2975C37.8053 62.3874 37.7907 62.477 37.7593 62.5611C37.7278 62.6453 37.6803 62.7224 37.6193 62.788C37.5582 62.8537 37.485 62.9066 37.4037 62.9437C37.3223 62.9808 37.2346 63.0015 37.1453 63.0044C37.0561 63.0074 36.9672 62.9927 36.8836 62.961C36.8 62.9294 36.7235 62.8815 36.6583 62.82C36.5931 62.7586 36.5405 62.6848 36.5037 62.6029C36.4668 62.5211 36.4463 62.4327 36.4433 62.3428C36.436 62.1323 36.4726 61.7607 36.5479 61.0185C36.7685 58.8689 37.3529 53.1579 35.9321 51.6157C35.8371 51.5045 35.7178 51.4171 35.5836 51.3603C35.4493 51.3035 35.3038 51.2788 35.1585 51.2883C35.146 51.2883 33.5716 51.9041 32.3756 62.5586C31.7055 68.5306 32.6495 74.0069 35.0341 77.9777C36.2144 79.9421 37.817 81.6622 39.3684 83.317C42.0687 86.2067 44.8621 89.1943 45.3493 93.4978C45.3593 93.5871 45.3518 93.6775 45.3271 93.7639C45.3024 93.8503 45.2611 93.9309 45.2055 94.0012C45.1499 94.0715 45.081 94.1301 45.0029 94.1736C44.9248 94.2171 44.8389 94.2446 44.7503 94.2547C44.725 94.2587 44.6995 94.2611 44.6739 94.2621Z" fill="#141232"/>
<path d="M57.9319 94.0966C57.8427 94.0962 57.7545 94.0781 57.6723 94.0433C57.59 94.0085 57.5154 93.9578 57.4527 93.8939C57.39 93.8301 57.3404 93.7544 57.3067 93.6712C57.2731 93.5881 57.256 93.499 57.2566 93.4092C57.266 91.708 57.6298 89.99 57.9821 88.3288C58.4003 86.335 58.8038 84.4528 58.6229 82.6547C58.4243 80.6851 57.543 79.1134 55.8473 77.707C54.8249 76.8648 53.6185 76.1995 52.341 75.4963C51.2308 74.8878 50.0818 74.2583 49.0678 73.4961C47.5958 72.3887 46.4396 71.0507 45.3199 69.7559C44.8045 69.16 44.2745 68.5431 43.7246 67.9662C43.6389 67.8768 43.5427 67.7736 43.4382 67.662C42.5287 66.6851 40.8351 64.8671 39.4656 65.2492C39.3271 65.2807 39.1969 65.3414 39.0834 65.4272C38.9699 65.5131 38.8757 65.6221 38.8069 65.7471C38.5728 66.1682 38.4118 67.0799 38.9732 68.9863C39.6224 71.197 41.2731 73.073 43.0263 75.0605C44.402 76.6237 45.8238 78.2386 46.7532 80.064C46.8353 80.2257 46.8502 80.4135 46.7947 80.5863C46.7392 80.759 46.6179 80.9025 46.4574 80.9851C46.2968 81.0678 46.1102 81.0828 45.9387 81.0269C45.7672 80.9711 45.6247 80.8489 45.5426 80.6872C44.6937 79.0166 43.3284 77.467 42.0091 75.969C40.2381 73.9562 38.4055 71.875 37.6695 69.3758C37.104 67.4525 37.0872 66.0482 37.6193 65.0829C37.776 64.7994 37.9883 64.5511 38.2434 64.3529C38.4984 64.1547 38.7908 64.0109 39.1028 63.9302C41.27 63.328 43.3284 65.5376 44.4345 66.7251C44.539 66.8304 44.6258 66.9356 44.7084 67.0167C45.2792 67.6136 45.8238 68.2431 46.3507 68.8526C47.4223 70.0927 48.5315 71.3791 49.8863 72.395C50.8272 73.0993 51.927 73.7046 52.9954 74.2899C54.2729 74.9889 55.5933 75.7121 56.7161 76.6416C61.0849 80.2598 60.1858 84.5012 59.316 88.6036C58.9784 90.1974 58.6292 91.846 58.6208 93.4061C58.6217 93.4973 58.6044 93.5877 58.5701 93.6721C58.5357 93.7565 58.4849 93.8331 58.4207 93.8974C58.3566 93.9617 58.2802 94.0125 58.1963 94.0467C58.1124 94.0809 58.0225 94.0979 57.9319 94.0966Z" fill="#141232"/>
<path d="M79.5973 94.2586C79.5712 94.2601 79.545 94.2601 79.5189 94.2586C79.4303 94.2485 79.3445 94.2209 79.2664 94.1774C79.1883 94.1339 79.1196 94.0753 79.064 94.005C79.0085 93.9347 78.9673 93.8541 78.9427 93.7677C78.9181 93.6813 78.9108 93.5909 78.9209 93.5017C79.4071 89.1982 82.2004 86.2106 84.9018 83.3209C86.4522 81.6618 88.0558 79.9459 89.2351 77.9816C91.6197 74.0107 92.5647 68.5345 91.8946 62.5625C90.6987 51.908 89.1232 51.2985 89.1075 51.2911C88.9626 51.2823 88.8177 51.3074 88.684 51.3643C88.5504 51.4213 88.4316 51.5087 88.3371 51.6195C86.9174 53.1618 87.5007 58.8727 87.7213 61.0224C87.7976 61.7593 87.8342 62.1309 87.8258 62.3467C87.8199 62.5282 87.7426 62.6998 87.6109 62.8239C87.4793 62.948 87.3041 63.0143 87.1238 63.0083C86.9436 63.0023 86.7732 62.9245 86.6499 62.7919C86.5267 62.6593 86.4608 62.4829 86.4668 62.3014C86.4668 62.1688 86.4187 61.6572 86.3622 61.1624C85.9117 56.7599 85.7172 52.4438 87.3335 50.689C87.5611 50.4361 87.841 50.2365 88.1534 50.1043C88.4659 49.9721 88.8033 49.9104 89.142 49.9236C90.2408 49.9542 91.0635 51.2195 91.811 54.0292C92.3609 56.0967 92.8564 58.9948 93.2369 62.4109C93.9405 68.6819 92.9306 74.4634 90.3913 78.6921C89.1368 80.7807 87.4829 82.5493 85.8835 84.261C83.2176 87.1128 80.6992 89.8077 80.2643 93.6585C80.2441 93.8229 80.1653 93.9743 80.0427 94.0846C79.92 94.195 79.7618 94.2568 79.5973 94.2586Z" fill="#141232"/>
<path d="M66.3393 94.0864C66.1597 94.0867 65.9874 94.0153 65.86 93.8878C65.7326 93.7603 65.6606 93.5872 65.6598 93.4064C65.6514 91.8462 65.3012 90.1977 64.9636 88.6039C64.0948 84.4983 63.1958 80.2601 67.5646 76.6419C68.6863 75.7124 70.0077 74.9892 71.2842 74.2902C72.3526 73.7049 73.4576 73.0996 74.3933 72.3953C75.7523 71.3752 76.8573 70.093 77.9299 68.8529C78.4526 68.2434 79.0004 67.6139 79.5712 67.017C79.6538 66.9307 79.7458 66.8328 79.8451 66.7254C80.9512 65.5379 83.0107 63.3272 85.1768 63.9304C85.489 64.0111 85.7816 64.1548 86.0368 64.353C86.292 64.5512 86.5045 64.7996 86.6613 65.0832C87.1934 66.0485 87.1767 67.4528 86.6101 69.3761C85.8783 71.8753 84.0425 73.9565 82.2705 75.9692C80.9512 77.4673 79.5869 79.0221 78.737 80.6875C78.6976 80.7696 78.6423 80.8429 78.5744 80.9032C78.5065 80.9635 78.4272 81.0095 78.3414 81.0385C78.2556 81.0676 78.1648 81.079 78.0745 81.0722C77.9842 81.0654 77.8962 81.0405 77.8156 80.999C77.735 80.9575 77.6634 80.9001 77.6051 80.8304C77.5469 80.7606 77.503 80.6798 77.4762 80.5927C77.4493 80.5056 77.44 80.414 77.4488 80.3233C77.4576 80.2326 77.4844 80.1445 77.5274 80.0643C78.4558 78.2389 79.8786 76.624 81.2533 75.0608C83.0044 73.0732 84.6572 71.1952 85.3075 68.9866C85.8689 67.0802 85.7068 66.1727 85.4726 65.7474C85.4043 65.6223 85.3103 65.5132 85.1969 65.4274C85.0836 65.3416 84.9534 65.2809 84.8151 65.2495C83.4404 64.8674 81.7468 66.6854 80.8362 67.6623C80.7317 67.7739 80.6365 67.8728 80.5508 67.9665C80.003 68.5382 79.4709 69.155 78.9544 69.7561C77.8358 71.051 76.6786 72.3879 75.2077 73.4964C74.1936 74.2596 73.0447 74.8892 71.9344 75.4966C70.6559 76.1956 69.4495 76.8567 68.427 77.7073C66.7324 79.1116 65.8501 80.6833 65.6525 82.655C65.4716 84.4531 65.871 86.3395 66.2933 88.3291C66.6456 89.9903 67.0094 91.7083 67.0189 93.4095C67.0193 93.4994 67.0021 93.5884 66.9683 93.6716C66.9346 93.7548 66.8849 93.8305 66.822 93.8943C66.7592 93.9581 66.6846 94.0089 66.6023 94.0436C66.52 94.0784 66.4317 94.0965 66.3425 94.0969L66.3393 94.0864Z" fill="#141232"/>
<path d="M78.8436 46.0521C78.7056 45.9469 78.1609 45.8616 77.9027 46.2627C77.8568 46.3319 77.8273 46.4108 77.8164 46.4932C77.8055 46.5757 77.8136 46.6596 77.84 46.7385C78.2686 48.0017 78.9356 50.7988 78.8854 52.9263C78.6888 61.7502 71.5674 68.9191 62.8078 69.116C53.3436 69.3265 45.618 61.4512 45.9912 51.8863C46.3226 43.3782 53.0906 36.4619 61.5345 36.004C63.1292 35.9167 64.7279 36.0632 66.2807 36.4388C66.427 36.4758 66.5815 36.4595 66.7169 36.3929C66.8524 36.3262 66.96 36.2134 67.0209 36.0745C67.1516 35.7587 67.1819 35.3808 66.6874 35.2071V35.1997C65.2959 34.8538 63.8679 34.6792 62.4346 34.6797C52.6077 34.6797 44.6123 42.7719 44.6875 52.6895C44.7618 62.4102 52.6432 70.3456 62.2956 70.4203C72.1456 70.4961 80.1817 62.4502 80.1817 52.5505C80.195 50.4452 79.8259 48.3552 79.0924 46.3837C79.0435 46.251 78.957 46.1357 78.8436 46.0521Z" fill="#141232"/>
<path d="M55.0196 58.9268C54.6858 58.9268 54.4837 58.7952 54.4133 58.532C54.3429 58.2688 54.4262 57.9853 54.6631 57.6814L61.3423 48.4891H54.9245C54.5063 48.4891 54.3066 48.2902 54.3066 47.8912C54.3066 47.4922 54.5157 47.3164 54.9245 47.3164H62.3418C62.7212 47.3164 62.9554 47.448 63.0422 47.7112C63.129 47.9744 63.062 48.2375 62.8404 48.5133L56.1131 57.754H62.7934C63.2053 57.754 63.4112 57.9446 63.4112 58.3278C63.4112 58.7271 63.2053 58.9268 62.7934 58.9268H55.0196Z" fill="#141232"/>
<path d="M64.6948 52.3631C64.4411 52.5232 64.2191 52.5393 64.0289 52.4116C63.9373 52.3538 63.861 52.2747 63.8064 52.1808C63.7518 52.087 63.7205 51.9812 63.7152 51.8726C63.7006 51.641 63.8271 51.4515 64.0958 51.2862L69.0647 48.366C69.3177 48.2218 69.5435 48.2144 69.7421 48.3418C69.8362 48.3964 69.9145 48.4748 69.9695 48.569C70.0244 48.6633 70.0542 48.7704 70.0557 48.8797C70.0634 49.1113 69.9324 49.3071 69.6627 49.4671L64.6948 52.3631ZM69.2351 59.1142C68.1729 59.1142 67.3526 58.7829 66.7742 58.1204C66.1957 57.4579 65.9068 56.5045 65.9075 55.2602V42.6445C65.9075 42.1497 66.1514 41.9023 66.6393 41.9023C67.1153 41.9023 67.3533 42.1497 67.3533 42.6445V55.0918C67.3533 56.9277 68.0663 57.8453 69.4923 57.8446C69.6233 57.8455 69.7543 57.8378 69.8843 57.8215C69.9986 57.8058 70.1139 57.7977 70.2293 57.7972C70.2856 57.7853 70.3439 57.7866 70.3996 57.8012C70.4553 57.8159 70.5069 57.8433 70.5502 57.8815C70.6199 57.9516 70.6548 58.099 70.6548 58.3236C70.6548 58.7447 70.4175 58.9858 69.9418 59.0658C69.8257 59.0984 69.7058 59.1147 69.5853 59.1142H69.2351Z" fill="#141232"/>
</svg>
