<svg width="14" height="14" viewBox="0 0 14 14" fill="none" xmlns="http://www.w3.org/2000/svg">
<path d="M12.25 5.25H8.75V1.75C8.75 1.28587 8.56563 0.840752 8.23744 0.512563C7.90925 0.184374 7.46413 0 7 0C6.53587 0 6.09075 0.184374 5.76256 0.512563C5.43437 0.840752 5.25 1.28587 5.25 1.75L5.31213 5.25H1.75C1.28587 5.25 0.840752 5.43437 0.512563 5.76256C0.184374 6.09075 0 6.53587 0 7C0 7.46413 0.184374 7.90925 0.512563 8.23744C0.840752 8.56563 1.28587 8.75 1.75 8.75L5.31213 8.68787L5.25 12.25C5.25 12.7141 5.43437 13.1592 5.76256 13.4874C6.09075 13.8156 6.53587 14 7 14C7.46413 14 7.90925 13.8156 8.23744 13.4874C8.56563 13.1592 8.75 12.7141 8.75 12.25V8.68787L12.25 8.75C12.7141 8.75 13.1592 8.56563 13.4874 8.23744C13.8156 7.90925 14 7.46413 14 7C14 6.53587 13.8156 6.09075 13.4874 5.76256C13.1592 5.43437 12.7141 5.25 12.25 5.25Z" fill="black"/>
</svg>
