<svg width="34" height="65" viewBox="0 0 34 65" fill="none" xmlns="http://www.w3.org/2000/svg">
<path d="M13.4533 9.8738C14.4317 10.9693 14.7722 13.0484 15.1516 14.3667C16.4148 18.756 17.552 23.2084 18.4669 27.6838C19.9181 34.7816 20.0537 42.1992 18.8455 49.3503C18.193 53.2122 17.0165 56.9442 16.2182 60.7709C15.9675 61.9724 15.9444 62.8916 17.2604 62.0965C19.3624 60.8265 20.7506 58.1124 22.2475 56.2229C23.0466 55.2143 20.6612 58.7215 20.2341 59.1477C19.7176 59.6631 17.0825 63.0379 16.2898 62.9055C14.754 62.6488 12.6922 59.8623 11.3963 59.0194C10.17 58.2218 7.4513 57.0964 7.4513 57.0964" stroke="#F2C94C" stroke-width="3" stroke-linecap="round"/>
<path d="M19.959 7.94571C17.854 7.36211 15.7344 6.81025 13.6869 6.04093C11.8221 5.34024 10.047 4.49091 8.35349 3.4427C7.87491 3.14648 6.81303 2.15563 6.16902 2.04924C5.65902 1.96499 6.20517 3.09201 6.34303 3.5902C6.75546 5.08062 7.15645 6.56066 7.35265 8.09949C7.50926 9.32781 7.63108 10.6846 7.29463 11.8981" stroke="#F2C94C" stroke-width="3" stroke-linecap="round"/>
</svg>
