<svg width="21" height="20" viewBox="0 0 21 20" fill="none" xmlns="http://www.w3.org/2000/svg">
<path fill-rule="evenodd" clip-rule="evenodd" d="M7.69917 1.1996C7.54134 1.34126 7.37611 1.47444 7.20417 1.5986C6.90617 1.7986 6.57117 1.9366 6.21917 2.0066C6.06617 2.0366 5.90617 2.0496 5.58717 2.0746C4.78617 2.1386 4.38517 2.1706 4.05117 2.2886C3.66916 2.42325 3.3222 2.64181 3.03579 2.92822C2.74938 3.21463 2.53082 3.56159 2.39617 3.9436C2.27817 4.2776 2.24617 4.6786 2.18217 5.4796C2.17069 5.69132 2.14799 5.90228 2.11417 6.1116C2.04417 6.4636 1.90617 6.7986 1.70617 7.0966C1.61917 7.2266 1.51517 7.3486 1.30717 7.5916C0.786172 8.2036 0.525172 8.5096 0.372172 8.8296C0.0191719 9.5696 0.0191719 10.4296 0.372172 11.1696C0.525172 11.4896 0.786172 11.7956 1.30717 12.4076C1.51517 12.6506 1.61917 12.7726 1.70617 12.9026C1.90617 13.2006 2.04417 13.5356 2.11417 13.8876C2.14417 14.0406 2.15717 14.2006 2.18217 14.5196C2.24617 15.3206 2.27817 15.7216 2.39617 16.0556C2.53082 16.4376 2.74938 16.7846 3.03579 17.071C3.3222 17.3574 3.66916 17.576 4.05117 17.7106C4.38517 17.8286 4.78617 17.8606 5.58717 17.9246C5.90617 17.9496 6.06617 17.9626 6.21917 17.9926C6.57117 18.0626 6.90617 18.2016 7.20417 18.4006C7.33417 18.4876 7.45617 18.5916 7.69917 18.7996C8.31117 19.3206 8.61717 19.5816 8.93717 19.7346C9.67717 20.0876 10.5372 20.0876 11.2772 19.7346C11.5972 19.5816 11.9032 19.3206 12.5152 18.7996C12.7582 18.5916 12.8802 18.4876 13.0102 18.4006C13.3082 18.2006 13.6432 18.0626 13.9952 17.9926C14.1482 17.9626 14.3082 17.9496 14.6272 17.9246C15.4282 17.8606 15.8292 17.8286 16.1632 17.7106C16.5452 17.576 16.8921 17.3574 17.1786 17.071C17.465 16.7846 17.6835 16.4376 17.8182 16.0556C17.9362 15.7216 17.9682 15.3206 18.0322 14.5196C18.0572 14.2006 18.0702 14.0406 18.1002 13.8876C18.1702 13.5356 18.3092 13.2006 18.5082 12.9026C18.5952 12.7726 18.6992 12.6506 18.9072 12.4076C19.4282 11.7956 19.6892 11.4896 19.8422 11.1696C20.1952 10.4296 20.1952 9.5696 19.8422 8.8296C19.6892 8.5096 19.4282 8.2036 18.9072 7.5916C18.7655 7.43377 18.6323 7.26854 18.5082 7.0966C18.3081 6.79865 18.1694 6.46379 18.1002 6.1116C18.0664 5.90228 18.0437 5.69132 18.0322 5.4796C17.9682 4.6786 17.9362 4.2776 17.8182 3.9436C17.6835 3.56159 17.465 3.21463 17.1786 2.92822C16.8921 2.64181 16.5452 2.42325 16.1632 2.2886C15.8292 2.1706 15.4282 2.1386 14.6272 2.0746C14.4155 2.06312 14.2045 2.04042 13.9952 2.0066C13.643 1.93742 13.3081 1.79872 13.0102 1.5986C12.8382 1.47444 12.673 1.34126 12.5152 1.1996C11.9032 0.678601 11.5972 0.417601 11.2772 0.264601C10.9119 0.0897732 10.5121 -0.000976562 10.1072 -0.000976562C9.70223 -0.000976563 9.30243 0.0897732 8.93717 0.264601C8.61717 0.417601 8.31117 0.678601 7.69917 1.1996ZM13.9382 6.1696C14.0905 6.32221 14.176 6.529 14.176 6.7446C14.176 6.9602 14.0905 7.16699 13.9382 7.3196L7.42717 13.8316C7.35298 13.9128 7.26311 13.9781 7.16298 14.0236C7.06285 14.0691 6.95454 14.0939 6.84458 14.0963C6.73462 14.0988 6.6253 14.079 6.52322 14.038C6.42114 13.9971 6.32842 13.9359 6.25064 13.8581C6.17287 13.7804 6.11167 13.6876 6.07073 13.5856C6.02979 13.4835 6.00996 13.3742 6.01244 13.2642C6.01491 13.1542 6.03965 13.0459 6.08515 12.9458C6.13065 12.8457 6.19597 12.7558 6.27717 12.6816L12.7872 6.1706C12.9398 6.0183 13.1466 5.93277 13.3622 5.93277C13.5778 5.93277 13.7846 6.0183 13.9372 6.1706M13.9042 12.7136C13.9042 13.0014 13.7899 13.2773 13.5864 13.4808C13.3829 13.6843 13.1069 13.7986 12.8192 13.7986C12.5314 13.7986 12.2554 13.6843 12.052 13.4808C11.8485 13.2773 11.7342 13.0014 11.7342 12.7136C11.7342 12.4258 11.8485 12.1499 12.052 11.9464C12.2554 11.7429 12.5314 11.6286 12.8192 11.6286C13.1069 11.6286 13.3829 11.7429 13.5864 11.9464C13.7899 12.1499 13.9042 12.4258 13.9042 12.7136ZM7.39417 8.3736C7.68193 8.3736 7.95791 8.25929 8.16138 8.05581C8.36486 7.85233 8.47917 7.57636 8.47917 7.2886C8.47917 7.00084 8.36486 6.72487 8.16138 6.52139C7.95791 6.31791 7.68193 6.2036 7.39417 6.2036C7.10641 6.2036 6.83044 6.31791 6.62696 6.52139C6.42348 6.72487 6.30917 7.00084 6.30917 7.2886C6.30917 7.57636 6.42348 7.85233 6.62696 8.05581C6.83044 8.25929 7.10641 8.3736 7.39417 8.3736Z" fill="white"/>
</svg>
