<svg width="20" height="20" viewBox="0 0 20 20" fill="none" xmlns="http://www.w3.org/2000/svg">
<path fill-rule="evenodd" clip-rule="evenodd" d="M7.59175 1.1996C7.43392 1.34126 7.26869 1.47444 7.09675 1.5986C6.79875 1.7986 6.46375 1.9366 6.11175 2.0066C5.95875 2.0366 5.79875 2.0496 5.47975 2.0746C4.67875 2.1386 4.27775 2.1706 3.94375 2.2886C3.56174 2.42325 3.21478 2.64181 2.92837 2.92822C2.64196 3.21463 2.4234 3.56159 2.28875 3.9436C2.17075 4.2776 2.13875 4.6786 2.07475 5.4796C2.06327 5.69132 2.04057 5.90228 2.00675 6.1116C1.93675 6.4636 1.79875 6.7986 1.59875 7.0966C1.51175 7.2266 1.40775 7.3486 1.19975 7.5916C0.67875 8.2036 0.41775 8.5096 0.26475 8.8296C-0.08825 9.5696 -0.08825 10.4296 0.26475 11.1696C0.41775 11.4896 0.67875 11.7956 1.19975 12.4076C1.40775 12.6506 1.51175 12.7726 1.59875 12.9026C1.79875 13.2006 1.93675 13.5356 2.00675 13.8876C2.03675 14.0406 2.04975 14.2006 2.07475 14.5196C2.13875 15.3206 2.17075 15.7216 2.28875 16.0556C2.4234 16.4376 2.64196 16.7846 2.92837 17.071C3.21478 17.3574 3.56174 17.576 3.94375 17.7106C4.27775 17.8286 4.67875 17.8606 5.47975 17.9246C5.79875 17.9496 5.95875 17.9626 6.11175 17.9926C6.46375 18.0626 6.79875 18.2016 7.09675 18.4006C7.22675 18.4876 7.34875 18.5916 7.59175 18.7996C8.20375 19.3206 8.50975 19.5816 8.82975 19.7346C9.56975 20.0876 10.4298 20.0876 11.1698 19.7346C11.4897 19.5816 11.7957 19.3206 12.4078 18.7996C12.6508 18.5916 12.7727 18.4876 12.9028 18.4006C13.2008 18.2006 13.5357 18.0626 13.8877 17.9926C14.0407 17.9626 14.2008 17.9496 14.5198 17.9246C15.3208 17.8606 15.7218 17.8286 16.0557 17.7106C16.4378 17.576 16.7847 17.3574 17.0711 17.071C17.3575 16.7846 17.5761 16.4376 17.7108 16.0556C17.8288 15.7216 17.8608 15.3206 17.9247 14.5196C17.9497 14.2006 17.9627 14.0406 17.9928 13.8876C18.0627 13.5356 18.2017 13.2006 18.4007 12.9026C18.4877 12.7726 18.5917 12.6506 18.7997 12.4076C19.3207 11.7956 19.5818 11.4896 19.7348 11.1696C20.0878 10.4296 20.0878 9.5696 19.7348 8.8296C19.5818 8.5096 19.3207 8.2036 18.7997 7.5916C18.6581 7.43377 18.5249 7.26854 18.4007 7.0966C18.2006 6.79865 18.0619 6.46379 17.9928 6.1116C17.9589 5.90228 17.9362 5.69132 17.9247 5.4796C17.8608 4.6786 17.8288 4.2776 17.7108 3.9436C17.5761 3.56159 17.3575 3.21463 17.0711 2.92822C16.7847 2.64181 16.4378 2.42325 16.0557 2.2886C15.7218 2.1706 15.3208 2.1386 14.5198 2.0746C14.308 2.06312 14.0971 2.04042 13.8877 2.0066C13.5356 1.93742 13.2007 1.79872 12.9028 1.5986C12.7308 1.47444 12.5656 1.34126 12.4078 1.1996C11.7957 0.678601 11.4897 0.417601 11.1698 0.264601C10.8045 0.0897732 10.4047 -0.000976562 9.99975 -0.000976562C9.59481 -0.000976563 9.19501 0.0897732 8.82975 0.264601C8.50975 0.417601 8.20375 0.678601 7.59175 1.1996ZM13.8308 6.1696C13.983 6.32221 14.0686 6.529 14.0686 6.7446C14.0686 6.9602 13.983 7.16699 13.8308 7.3196L7.31975 13.8316C7.24556 13.9128 7.15569 13.9781 7.05556 14.0236C6.95543 14.0691 6.84711 14.0939 6.73716 14.0963C6.6272 14.0988 6.51788 14.079 6.4158 14.038C6.31372 13.9971 6.22099 13.9359 6.14322 13.8581C6.06545 13.7804 6.00425 13.6876 5.96331 13.5856C5.92236 13.4835 5.90253 13.3742 5.90501 13.2642C5.90749 13.1542 5.93223 13.0459 5.97773 12.9458C6.02323 12.8457 6.08855 12.7558 6.16975 12.6816L12.6798 6.1706C12.8324 6.0183 13.0392 5.93277 13.2548 5.93277C13.4704 5.93277 13.6771 6.0183 13.8298 6.1706M13.7968 12.7136C13.7968 13.0014 13.6824 13.2773 13.479 13.4808C13.2755 13.6843 12.9995 13.7986 12.7118 13.7986C12.424 13.7986 12.148 13.6843 11.9445 13.4808C11.7411 13.2773 11.6267 13.0014 11.6267 12.7136C11.6267 12.4258 11.7411 12.1499 11.9445 11.9464C12.148 11.7429 12.424 11.6286 12.7118 11.6286C12.9995 11.6286 13.2755 11.7429 13.479 11.9464C13.6824 12.1499 13.7968 12.4258 13.7968 12.7136ZM7.28675 8.3736C7.57451 8.3736 7.85048 8.25929 8.05396 8.05581C8.25744 7.85233 8.37175 7.57636 8.37175 7.2886C8.37175 7.00084 8.25744 6.72487 8.05396 6.52139C7.85048 6.31791 7.57451 6.2036 7.28675 6.2036C6.99899 6.2036 6.72302 6.31791 6.51954 6.52139C6.31606 6.72487 6.20175 7.00084 6.20175 7.2886C6.20175 7.57636 6.31606 7.85233 6.51954 8.05581C6.72302 8.25929 6.99899 8.3736 7.28675 8.3736Z" fill="#4F35C4"/>
</svg>
