<svg width="167" height="176" viewBox="0 0 167 176" fill="none" xmlns="http://www.w3.org/2000/svg">
<g clip-path="url(#clip0_18_1870)">
<path d="M82.8006 157C76.4729 157 70.4069 156.185 64.6025 154.556C58.7981 152.927 53.3268 150.627 48.1885 147.656C43.0502 144.685 38.4353 141.092 34.3437 136.875C30.2521 132.658 26.6838 127.986 23.6389 122.859C20.594 117.732 18.2865 112.246 16.7165 106.4C15.1464 100.554 14.3376 94.4208 14.29 88C14.29 81.6271 15.0988 75.5177 16.7165 69.6719C18.3341 63.826 20.6178 58.3156 23.5675 53.1406C26.5173 47.9656 30.0855 43.3177 34.2723 39.1969C38.459 35.076 43.0978 31.4823 48.1885 28.4156C53.2792 25.349 58.7268 23.025 64.5311 21.4437C70.3355 19.8625 76.4253 19.0479 82.8006 19C89.1283 19 95.1944 19.8146 100.999 21.4437C106.803 23.0729 112.274 25.3729 117.413 28.3438C122.551 31.3146 127.166 34.9083 131.258 39.125C135.349 43.3417 138.917 48.0135 141.962 53.1406C145.007 58.2677 147.315 63.7542 148.885 69.6C150.455 75.4458 151.264 81.5792 151.311 88C151.311 94.3729 150.502 100.482 148.885 106.328C147.267 112.174 144.983 117.684 142.034 122.859C139.084 128.034 135.516 132.682 131.329 136.803C127.142 140.924 122.503 144.518 117.413 147.584C112.322 150.651 106.874 152.975 101.07 154.556C95.2657 156.137 89.1759 156.952 82.8006 157ZM82.8006 28.2C77.3293 28.2 72.0721 28.9187 67.0289 30.3562C61.9858 31.7937 57.2757 33.8062 52.8986 36.3937C48.5215 38.9812 44.5013 42.0958 40.8379 45.7375C37.1745 49.3792 34.082 53.4042 31.5604 57.8125C29.0388 62.2208 27.0406 66.9885 25.5657 72.1156C24.0909 77.2427 23.3772 82.5375 23.4248 88C23.4248 93.4625 24.1384 98.7333 25.5657 103.812C26.993 108.892 28.9913 113.659 31.5604 118.116C34.1296 122.572 37.2221 126.621 40.8379 130.262C44.4537 133.904 48.4502 137.019 52.8272 139.606C57.2043 142.194 61.9382 144.206 67.0289 145.644C72.1196 147.081 77.3769 147.8 82.8006 147.8C88.2244 147.8 93.4578 147.081 98.501 145.644C103.544 144.206 108.278 142.194 112.703 139.606C117.127 137.019 121.148 133.904 124.763 130.262C128.379 126.621 131.472 122.596 134.041 118.188C136.61 113.779 138.608 109.011 140.035 103.884C141.463 98.7573 142.176 93.4625 142.176 88C142.176 82.5375 141.463 77.2667 140.035 72.1875C138.608 67.1083 136.61 62.3406 134.041 57.8844C131.472 53.4281 128.379 49.3792 124.763 45.7375C121.148 42.0958 117.151 38.9812 112.774 36.3937C108.397 33.8062 103.663 31.7937 98.5723 30.3562C93.4816 28.9187 88.2244 28.2 82.8006 28.2ZM78.2332 74.2H87.368V120.2H78.2332V74.2ZM78.2332 55.8H87.368V65H78.2332V55.8Z" fill="#5EB761"/>
</g>
<defs>
<clipPath id="clip0_18_1870">
<rect width="137.021" height="138" fill="white" transform="translate(14.29 19)"/>
</clipPath>
</defs>
</svg>
