<svg width="27" height="26" viewBox="0 0 27 26" fill="none" xmlns="http://www.w3.org/2000/svg">
<path d="M12.9992 25.915C12.2511 26.0201 11.8946 25.6888 11.9298 24.921L11.7652 13.5728C10.329 13.87 8.90256 14.2374 7.48602 14.6748C6.0629 15.0655 4.85675 15.4735 3.86757 15.8985C3.60018 16.0315 3.37626 16.1345 3.19581 16.2075C3.06212 16.274 2.90506 16.3437 2.72461 16.4168C2.59091 16.4832 2.43384 16.553 2.25339 16.626L2.04299 16.6556C1.34167 16.7542 0.938436 16.4294 0.8333 15.6813C0.780733 15.3073 0.845054 14.9168 1.02626 14.5099C1.24765 14.0497 1.58555 13.74 2.03996 13.5808C2.31391 13.4946 2.5846 13.385 2.85198 13.2521C3.11937 13.1192 3.39003 13.0096 3.66399 12.9234C3.93138 12.7905 4.20206 12.6809 4.47602 12.5947C4.74341 12.4618 5.03746 12.349 5.35817 12.2562C6.46715 12.005 7.55273 11.7571 8.61495 11.5124C9.6706 11.221 10.7328 10.9764 11.8016 10.7785L11.7311 2.13479C11.7253 1.75418 11.9163 1.41743 12.3043 1.12451C12.739 0.825029 13.2135 0.639144 13.7278 0.566863C14.1486 0.507725 14.5124 0.551952 14.8192 0.699545C15.1662 0.793814 15.366 1.02797 15.4186 1.40201C15.4704 2.1099 15.4714 3.13485 15.4216 4.47684C15.3652 5.77207 15.3052 7.21086 15.2415 8.79319C15.2276 9.03354 15.217 9.29726 15.2097 9.58436C15.1958 9.82471 15.1819 10.065 15.168 10.3054C16.2499 10.201 17.2916 10.15 18.2932 10.1522C19.3415 10.1479 20.3665 10.1469 21.368 10.1492C22.7634 10.2392 24.1722 10.2557 25.5946 10.1989C26.1753 10.2603 26.4986 10.5248 26.5643 10.9923C26.6168 11.3663 26.5058 11.7634 26.231 12.1834C25.9498 12.5567 25.5487 12.7561 25.0278 12.7816C24.4069 12.7735 23.8093 12.7622 23.2351 12.7475C22.7076 12.7263 22.1802 12.7051 21.6527 12.6838C20.538 12.5544 19.3395 12.5083 18.0574 12.5455C17.6768 12.5513 17.2294 12.5903 16.715 12.6626C16.2409 12.6816 15.6799 12.7604 15.0319 12.8992C14.9871 14.9556 14.8957 17.0186 14.7574 19.0882C14.6192 21.1578 14.5083 22.9137 14.4249 24.3557C14.3906 24.7897 14.2262 25.1465 13.9317 25.4263C13.6373 25.7061 13.3265 25.869 12.9992 25.915Z" fill="black"/>
</svg>
