<svg width="14" height="22" viewBox="0 0 14 22" fill="none" xmlns="http://www.w3.org/2000/svg">
<path d="M7.07688 0.901998C9.00088 0.901998 10.5435 1.38733 11.7049 2.358C12.8835 3.31133 13.4729 4.71533 13.4729 6.57C13.4729 8.09533 12.9529 9.326 11.9129 10.262C10.8902 11.198 9.54688 11.6833 7.88288 11.718L7.72688 13.564H2.63088L2.47488 8.052H4.65888C5.68155 8.052 6.46155 7.93933 6.99888 7.714C7.55355 7.48867 7.83088 7.12467 7.83088 6.622C7.83088 6.29267 7.74422 6.04133 7.57088 5.868C7.41488 5.67733 7.19822 5.582 6.92088 5.582C6.57422 5.582 6.31422 5.69467 6.14088 5.92C5.98488 6.128 5.90688 6.40533 5.90688 6.752H0.472883C0.420883 5.67733 0.628883 4.698 1.09688 3.814C1.58222 2.93 2.32755 2.228 3.33288 1.708C4.33822 1.17067 5.58622 0.901998 7.07688 0.901998ZM5.25688 21.208C4.25155 21.208 3.44555 20.9393 2.83888 20.402C2.23222 19.8647 1.92888 19.1887 1.92888 18.374C1.92888 17.542 2.23222 16.8573 2.83888 16.32C3.44555 15.7653 4.25155 15.488 5.25688 15.488C6.24488 15.488 7.04222 15.7653 7.64888 16.32C8.25555 16.8573 8.55888 17.542 8.55888 18.374C8.55888 19.1887 8.25555 19.8647 7.64888 20.402C7.04222 20.9393 6.24488 21.208 5.25688 21.208Z" fill="#4F35C4"/>
</svg>
