<svg width="26" height="26" viewBox="0 0 26 26" fill="none" xmlns="http://www.w3.org/2000/svg">
<path d="M23.5625 4.08789H17.7531C16.5064 4.08789 15.2877 4.4459 14.2391 5.12129L13 5.91602L11.7609 5.12129C10.7133 4.44603 9.49324 4.08723 8.24687 4.08789H2.4375C1.98809 4.08789 1.625 4.45098 1.625 4.90039V19.3223C1.625 19.7717 1.98809 20.1348 2.4375 20.1348H8.24687C9.49355 20.1348 10.7123 20.4928 11.7609 21.1682L12.8883 21.8943C12.9213 21.9146 12.9594 21.9273 12.9975 21.9273C13.0355 21.9273 13.0736 21.9172 13.1066 21.8943L14.234 21.1682C15.2852 20.4928 16.5064 20.1348 17.7531 20.1348H23.5625C24.0119 20.1348 24.375 19.7717 24.375 19.3223V4.90039C24.375 4.45098 24.0119 4.08789 23.5625 4.08789ZM8.24687 18.3066H3.45312V5.91602H8.24687C9.1457 5.91602 10.0191 6.17246 10.7732 6.65742L12.0123 7.45215L12.1875 7.56641V19.2969C10.9789 18.6469 9.62813 18.3066 8.24687 18.3066ZM22.5469 18.3066H17.7531C16.3719 18.3066 15.0211 18.6469 13.8125 19.2969V7.56641L13.9877 7.45215L15.2268 6.65742C15.9809 6.17246 16.8543 5.91602 17.7531 5.91602H22.5469V18.3066ZM10.0775 9.16602H5.35996C5.26094 9.16602 5.17969 9.25234 5.17969 9.35645V10.499C5.17969 10.6031 5.26094 10.6895 5.35996 10.6895H10.075C10.174 10.6895 10.2553 10.6031 10.2553 10.499V9.35645C10.2578 9.25234 10.1766 9.16602 10.0775 9.16602ZM15.7422 9.35645V10.499C15.7422 10.6031 15.8234 10.6895 15.9225 10.6895H20.6375C20.7365 10.6895 20.8178 10.6031 20.8178 10.499V9.35645C20.8178 9.25234 20.7365 9.16602 20.6375 9.16602H15.9225C15.8234 9.16602 15.7422 9.25234 15.7422 9.35645ZM10.0775 12.7207H5.35996C5.26094 12.7207 5.17969 12.807 5.17969 12.9111V14.0537C5.17969 14.1578 5.26094 14.2441 5.35996 14.2441H10.075C10.174 14.2441 10.2553 14.1578 10.2553 14.0537V12.9111C10.2578 12.807 10.1766 12.7207 10.0775 12.7207ZM20.64 12.7207H15.9225C15.8234 12.7207 15.7422 12.807 15.7422 12.9111V14.0537C15.7422 14.1578 15.8234 14.2441 15.9225 14.2441H20.6375C20.7365 14.2441 20.8178 14.1578 20.8178 14.0537V12.9111C20.8203 12.807 20.7391 12.7207 20.64 12.7207Z" fill="#4F4F4F"/>
</svg>
