<svg width="118" height="104" viewBox="0 0 118 104" fill="none" xmlns="http://www.w3.org/2000/svg">
<g id="Layer_1" clip-path="url(#clip0_2331_898)">
<path id="Vector" d="M7.26155 76.4232C8.18835 70.9613 9.85612 65.6515 12.2187 60.6406C12.8879 59.2153 13.6086 57.8172 14.3809 56.4463L14.1418 56.8692C15.7933 53.933 17.6677 51.1278 19.7485 48.4785C20.8066 47.1362 21.9171 45.8371 23.08 44.5813C23.6471 43.9706 24.2236 43.3704 24.8096 42.7807C25.0959 42.4945 25.3863 42.2121 25.6768 41.9297C25.903 41.709 25.2485 42.3408 25.5949 42.0077L25.7902 41.8234L26.285 41.3619C28.7612 39.073 31.4146 36.9839 34.2204 35.1139C34.5461 34.886 34.8976 34.6704 35.2367 34.4514C35.656 34.1803 34.7594 34.7515 35.0553 34.5656L35.3432 34.3801L35.916 34.0295C36.6479 33.5885 37.3873 33.1619 38.1343 32.7496C39.5914 31.9502 41.0794 31.212 42.5982 30.535L42.8999 30.3954C43.2445 30.2439 42.1401 30.7163 42.6214 30.5175C42.7884 30.4469 42.9528 30.3755 43.1191 30.3073C43.5327 30.1315 43.9496 29.9627 44.3699 29.8009C45.1765 29.4928 45.9977 29.1887 46.8217 28.9038C47.6456 28.6189 48.4633 28.3666 49.2913 28.125C49.5522 28.0482 50.3518 27.8332 49.2156 28.1413C49.4181 28.0856 49.6205 28.0299 49.8247 27.9773C50.2512 27.8638 50.677 27.7529 51.1113 27.6495C52.832 27.2384 54.5698 26.8971 56.3247 26.6254L56.6004 26.5817C55.5592 26.7442 55.9982 26.6816 56.2455 26.6355C56.4928 26.5894 56.6597 26.5768 56.8722 26.5422C57.3341 26.4798 57.7964 26.4253 58.2592 26.3789C59.1176 26.2871 59.9773 26.2133 60.8382 26.1574C61.6992 26.1016 62.5614 26.0636 63.4249 26.0436C63.6584 26.0386 63.8912 26.036 64.1247 26.0309C64.3581 26.0259 64.6809 26.0319 63.7678 26.034L64.0481 26.0312C64.5148 26.0316 64.9833 26.0351 65.4498 26.046C67.1992 26.0788 68.9456 26.1839 70.6891 26.3612C71.5451 26.4464 72.4032 26.5498 73.2633 26.6713C73.3444 26.6934 73.8216 26.752 73.337 26.6914C72.8524 26.6307 73.337 26.6914 73.4106 26.7114L73.9645 26.7988C74.4241 26.8738 74.8848 26.9543 75.3442 27.0398C77.0671 27.3574 78.7745 27.7446 80.4665 28.2016C82.1585 28.6585 83.829 29.1817 85.4779 29.7712C85.8388 29.8984 85.3575 29.7385 85.3222 29.713C85.4249 29.7621 85.5404 29.7935 85.6506 29.834L86.2387 30.0574C86.6736 30.2232 87.1096 30.3947 87.5411 30.5728C88.3388 30.898 89.1318 31.2404 89.9152 31.5987C93.0985 33.0509 96.1527 34.7708 99.0449 36.7399C99.7567 37.2255 100.459 37.7271 101.152 38.2444L100.761 37.9535C101.769 38.7096 102.753 39.4971 103.713 40.316C104.769 41.2153 106.551 41.0144 107.764 40.5504C108.355 40.3181 109.104 40.018 109.477 39.4682C109.71 39.1278 109.946 38.5881 109.546 38.247C102.555 32.337 94.3877 27.9821 85.5851 25.4713C76.6539 22.8938 67.2924 22.1563 58.0675 23.3035C48.7826 24.47 39.7602 27.4728 31.774 32.3958C24.1848 37.0528 17.5867 43.159 12.3563 50.3659C7.29872 57.3785 3.55318 65.3946 1.68413 73.8422C1.46022 74.8523 1.26377 75.8682 1.09478 76.8897C0.874884 78.2017 2.74477 78.357 3.65787 78.2678C4.48328 78.2153 5.28876 77.9916 6.02311 77.611C6.46606 77.3595 7.17254 76.9635 7.26423 76.4133L7.26155 76.4232Z" fill="#141232"/>
<path id="Vector_2" d="M97.5056 43.8076L112.76 44.4294L113.019 44.2359L113.193 43.8584C113.319 43.3383 113.335 42.7976 113.242 42.2706C113.116 41.103 112.737 39.9771 112.131 38.9712L104.638 26.6992L102.518 23.2202C102.362 22.9669 101.914 22.4148 101.522 22.5191C101.129 22.6234 101.023 23.3227 101.003 23.6205C100.944 25.1533 101.345 26.6684 102.156 27.9705L109.648 40.2426C110.352 41.4032 111.059 42.5628 111.769 43.7215L111.141 38.2746L95.8864 37.6529C95.4978 37.6368 95.3835 38.5897 95.3678 38.7542C95.324 39.5168 95.4132 40.2811 95.6314 41.0129C95.8012 41.7567 96.1026 42.4642 96.5214 43.1018C96.7874 43.4618 97.0385 43.7701 97.515 43.8022L97.5056 43.8076Z" fill="#141232"/>
</g>
<defs>
<clipPath id="clip0_2331_898">
<rect width="79.8392" height="99.799" fill="white" transform="translate(0.552246 77.7383) rotate(-74.776)"/>
</clipPath>
</defs>
</svg>
