<svg width="127" height="92" viewBox="0 0 127 92" fill="none" xmlns="http://www.w3.org/2000/svg">
<g id="Layer_1" clip-path="url(#clip0_2331_1051)">
<path id="Vector" d="M4.94374 52.3394C13.1372 47.6764 21.849 42.7876 31.1917 41.4745C38.4426 40.4556 46.2754 41.714 50.0807 46.6902C51.9654 49.2088 52.8772 52.2703 52.7108 55.521C52.5772 58.9146 51.4229 62.767 48.6574 65.7117C44.1206 70.5426 36.558 71.8934 30.9175 70.1642C27.8566 69.2462 25.4232 67.4083 24.0003 64.9395C22.2073 61.891 21.9264 58.1605 22.4021 54.5007C22.8977 50.7308 24.3433 46.9546 26.6367 43.4393C28.8063 40.1195 31.9011 37.1518 35.3409 34.6832C42.2496 29.7276 50.6456 26.5788 58.8228 24.5654C66.1794 22.7685 73.615 21.9008 80.8813 21.9913C88.1593 22.0706 95.1999 23.0667 101.788 24.9493C108.428 26.8281 114.522 29.6179 119.866 33.2259C121.158 34.1048 122.399 35.033 123.589 36.0104C123.87 36.2422 123.933 36.7521 123.949 37.0918C123.989 37.6933 123.924 38.3121 123.757 38.9291C123.685 39.2127 123.056 41.1529 122.419 40.6293C117.713 36.7908 112.241 33.6846 106.179 31.4116C93.9839 26.8642 79.926 25.6228 65.5937 27.8277C58.0739 29.0063 50.416 31.1281 43.3665 34.4585C39.5181 36.2776 35.832 38.4934 32.641 41.1861C31.1144 42.461 29.7271 43.8538 28.5041 45.3395C27.9429 46.0282 27.4219 46.737 26.9434 47.4625L26.7716 47.7296C26.7474 47.7658 26.5752 48.0456 26.6786 47.8752L26.5918 48.0204L26.4341 48.2909C26.2095 48.6749 25.9982 49.0627 25.8002 49.4543C25.7273 49.5955 25.1899 50.4718 25.268 50.5654C25.268 50.5654 25.4609 50.1063 25.2998 50.4983C25.262 50.5932 25.2207 50.6873 25.182 50.7802C25.0977 50.9916 25.0159 51.202 24.9376 51.4131C24.8594 51.6242 24.7989 51.7922 24.7373 51.9781L24.6462 52.2701C24.5474 52.5657 24.7757 51.8304 24.6917 52.1241C24.5654 52.5299 24.4633 52.9269 24.3693 53.3277C24.32 53.5404 24.3136 54.1028 24.35 53.4016C24.341 53.5856 24.279 53.7842 24.2507 53.9672C24.2223 54.1502 24.1952 54.3426 24.1687 54.5297C24.1423 54.7168 24.1619 54.9624 24.1882 54.3208C24.1845 54.4349 24.167 54.553 24.1581 54.6695C24.1262 55.0414 24.1143 55.409 24.1069 55.7796C24.0992 56.0679 24.0977 55.3393 24.1083 55.6266C24.1125 55.7171 24.1116 55.8099 24.1158 55.9003C24.1225 56.1045 24.1353 56.3083 24.1507 56.511C24.1517 56.6934 24.1697 56.8729 24.2047 57.0478C24.0692 56.5863 24.2197 57.1207 24.238 57.2346C24.3009 57.6075 24.3829 57.974 24.4788 58.3365C24.5229 58.5059 24.5756 58.6737 24.6257 58.8427C24.6901 59.0626 24.5304 58.6373 24.6305 58.853C24.6677 58.9331 24.6884 59.0184 24.7204 59.1009C24.851 59.4499 24.998 59.7937 25.1648 60.1259C25.7357 61.328 26.5688 62.3951 27.6263 63.2786C31.5117 66.5019 38.5356 67.2043 44.1845 64.5992C45.6068 63.9464 46.9149 63.0795 48.0356 62.047C48.2426 61.8601 48.4359 61.6626 48.6142 61.4562C48.9005 61.1394 49.1689 60.8123 49.4182 60.4761C49.526 60.3286 49.6319 60.1771 49.7317 60.0259L49.8813 59.7991C49.8506 59.8483 49.7072 60.1021 49.8562 59.8332C50.0405 59.4979 50.2144 59.1674 50.3805 58.8406C50.6015 58.3809 50.2351 59.2052 50.4248 58.7326C50.4793 58.5924 50.5348 58.4543 50.5832 58.3144L50.6665 58.0735C50.7912 57.7184 50.6065 58.2561 50.6031 58.2827C50.6435 58.0803 50.6967 57.878 50.7624 57.6768C50.8645 57.2798 50.6507 58.3105 50.7701 57.6932C50.7992 57.5323 50.8213 57.3697 50.8563 57.2011C50.9171 56.8033 50.8085 57.8302 50.863 57.2155C50.8782 57.0311 50.8856 56.8504 50.892 56.6676C50.9135 56.1582 50.9129 57.1399 50.8887 56.6267C50.8801 56.4658 50.8741 56.3038 50.861 56.14C50.8479 55.9763 50.8349 55.86 50.821 55.7216C50.786 55.3682 50.835 55.8399 50.8376 55.8387C50.8402 55.8375 50.7838 55.4992 50.7797 55.4836C50.7215 55.1684 50.6521 54.856 50.5687 54.5476C50.5278 54.3918 50.4801 54.2416 50.434 54.0881C50.5338 54.4114 50.3577 53.9238 50.3367 53.8311C50.1008 53.2157 49.8111 52.6233 49.4697 52.0585C49.1669 51.535 48.8054 51.0443 48.3892 50.5922C47.4602 49.566 46.3278 48.6973 45.0307 48.0158C42.2359 46.5313 38.8221 45.9035 35.3199 45.8987C26.8566 45.8721 18.5386 49.3992 10.8905 53.4944C8.82961 54.601 6.79683 55.7546 4.76758 56.909C3.89142 57.4082 3.91875 55.6298 3.94493 55.293C3.96766 54.6843 4.09296 54.0659 4.31694 53.4571C4.44928 53.1184 4.62631 52.5642 5.01145 52.3429L4.94374 52.3394Z" fill="#141232"/>
<path id="Vector_2" d="M107.528 34.7102L121.019 37.8718L124.847 38.7691L120.943 42.0476L113.787 28.9522L111.77 25.286C111.526 24.8349 111.686 24.116 111.979 23.628C112.341 23.0477 112.915 22.5645 113.595 22.2683C115.002 21.7051 116.408 21.9139 117.001 22.9947L124.157 36.09L126.173 39.7542C126.315 40.0906 126.33 40.4737 126.216 40.8558C126.063 41.3443 125.738 41.8048 125.29 42.1698C124.877 42.5256 124.378 42.7939 123.846 42.9462C123.314 43.0985 122.77 43.1291 122.27 43.0348L108.779 39.8732L104.954 38.9842C104.65 38.9186 104.376 38.7972 104.148 38.6273C103.921 38.4574 103.744 38.2425 103.63 37.9958C103.53 37.7425 103.497 37.4645 103.533 37.1793C103.568 36.8942 103.672 36.6081 103.836 36.339C104.571 35.2089 106.192 34.4036 107.531 34.7184L107.528 34.7102Z" fill="#141232"/>
</g>
<defs>
<clipPath id="clip0_2331_1051">
<rect width="117.909" height="45.7199" fill="white" transform="matrix(0.907015 -0.421098 -0.421098 -0.907015 20.0544 91.1797)"/>
</clipPath>
</defs>
</svg>
