<svg width="108" height="97" viewBox="0 0 108 97" fill="none" xmlns="http://www.w3.org/2000/svg">
<g id="Layer_1" clip-path="url(#clip0_2331_895)">
<path id="Vector" d="M2.98164 42.7357C9.14748 48.2671 15.419 53.7139 22.1683 58.5337C28.4033 62.9877 35.0655 66.8867 42.2369 69.6599C48.8952 72.2307 55.9427 73.8072 63.0977 73.9402C69.9118 74.0861 76.6767 72.6986 82.8935 69.88C89.0818 67.068 94.562 62.7061 98.5402 57.1707C99.0182 56.5043 99.4674 55.8246 99.8879 55.1315C100.25 54.5754 100.523 53.9666 100.698 53.3269C100.81 52.8869 100.946 52.1813 100.787 51.7233C100.429 50.6977 99.4645 51.4209 99.0757 52.0581C98.3431 53.254 97.5379 54.4038 96.6648 55.5013C96.4282 55.7966 96.9588 55.1457 96.6295 55.5541L96.3247 55.9147C96.0898 56.1891 95.8527 56.4594 95.6088 56.7252C95.1386 57.2415 94.6521 57.7419 94.1582 58.2202C93.6643 58.6985 93.1409 59.1768 92.6137 59.6352C92.5472 59.6943 92.3931 59.8698 92.6546 59.6034C92.608 59.6511 92.5494 59.6909 92.4989 59.7335L92.1336 60.034C91.8529 60.2629 91.5712 60.4862 91.2877 60.701C90.1751 61.5513 89.0173 62.3407 87.8195 63.0657C86.6349 63.785 85.4147 64.4436 84.1635 65.0388L83.6681 65.2696C83.6113 65.2957 83.2265 65.4674 83.4456 65.3674C83.1051 65.5095 82.7764 65.6596 82.441 65.7977C81.7877 66.0676 81.1271 66.3212 80.4595 66.5585C77.8136 67.4993 75.085 68.1855 72.3106 68.6077C69.049 69.0882 65.748 69.2334 62.4591 69.0411L62.7601 69.0574C56.579 68.7053 50.5022 67.2746 44.7182 65.1006C38.5474 62.7816 32.7358 59.6159 27.2499 55.963C23.8986 53.724 20.6628 51.3157 17.5158 48.7967L17.7488 48.9844C13.4862 45.5698 9.37937 41.966 5.31236 38.3173C4.56355 37.6445 3.73202 38.9149 3.43284 39.5134C3.11714 40.098 2.911 40.7355 2.82471 41.3939C2.79087 41.7606 2.69781 42.4475 3.00549 42.722L2.98164 42.7357Z" fill="#141232"/>
<path id="Vector_2" d="M94.1992 56.4061L101.619 53.1108L99.4082 52.792L98.0831 61.5858C98.026 61.9616 98.4189 62.1527 98.713 62.2013C99.202 62.2816 99.8556 62.09 100.294 61.9047C100.914 61.6637 101.484 61.3091 101.974 60.8591C102.298 60.5404 102.621 60.1894 102.692 59.7194L104.017 50.9284C104.073 50.5616 103.685 50.3461 103.388 50.3128C102.844 50.2742 102.3 50.3764 101.807 50.6096L94.3798 53.8975C93.7652 54.1493 93.197 54.5027 92.6991 54.943C92.4592 55.1697 91.9602 55.6814 91.9835 56.0838C92.0375 57.1056 93.6669 56.6369 94.1941 56.4027L94.1992 56.4061Z" fill="#141232"/>
</g>
<defs>
<clipPath id="clip0_2331_895">
<rect width="52.1105" height="93.9276" fill="white" transform="translate(0.356934 44.0312) rotate(-56.2526)"/>
</clipPath>
</defs>
</svg>
