<svg width="84" height="83" viewBox="0 0 84 83" fill="none" xmlns="http://www.w3.org/2000/svg">
<ellipse cx="42" cy="41.5" rx="42" ry="41.5" fill="#F85459"/>
<path d="M42.5385 24.8613L42.5385 60.8455C42.5385 61.3337 42.1795 61.707 41.7692 61.707C41.3333 61.707 41 61.305 41 60.8455L41 24.8613C41 24.3731 41.359 23.9998 41.7692 23.9998C42.1795 23.9998 42.5385 24.3731 42.5385 24.8613Z" fill="white"/>
<path d="M52 34.7197C52 34.952 51.9222 35.1553 51.7667 35.3295C51.4556 35.6779 50.963 35.6779 50.6518 35.3295L41.5 25.0793L32.3481 35.3295C32.037 35.6779 31.5444 35.6779 31.2333 35.3295C30.9222 34.981 30.9222 34.4293 31.2333 34.0809L40.9556 23.1919C41.2667 22.8435 41.7593 22.8435 42.0704 23.1919L51.7926 34.0809C51.9222 34.2841 52 34.5164 52 34.7197Z" fill="white"/>
</svg>
