<svg width="124" height="124" viewBox="0 0 124 124" fill="none" xmlns="http://www.w3.org/2000/svg">
<circle cx="62" cy="62" r="61.5" fill="white" stroke="#141232"/>
<path d="M92.896 76.7442H63.8536C62.8428 76.7429 61.8738 76.3405 61.1595 75.6252C60.4452 74.91 60.0439 73.9405 60.044 72.9297V36.5961C60.0435 36.4359 60.0749 36.2773 60.1362 36.1293C60.1976 35.9814 60.2877 35.8471 60.4014 35.7343L68.5985 27.5372C68.7113 27.4235 68.8456 27.3333 68.9936 27.272C69.1415 27.2106 69.3002 27.1792 69.4603 27.1797H94.6098C95.6207 27.1797 96.5902 27.5809 97.3054 28.2952C98.0206 29.0095 98.4231 29.9785 98.4244 30.9893V63.3076C98.4244 63.5193 98.3403 63.7224 98.1906 63.872C98.0409 64.0217 97.8379 64.1058 97.6262 64.1058C97.4145 64.1058 97.2115 64.0217 97.0618 63.872C96.9122 63.7224 96.8281 63.5193 96.8281 63.3076V30.9893C96.8268 30.4019 96.5925 29.8389 96.1766 29.424C95.7608 29.0091 95.1973 28.776 94.6098 28.776H69.6366L61.6403 36.7528V72.9199C61.6403 73.5074 61.8733 74.0708 62.2882 74.4867C62.7032 74.9025 63.2661 75.1368 63.8536 75.1381H92.896C93.1077 75.1381 93.3107 75.2222 93.4604 75.3719C93.6101 75.5216 93.6942 75.7246 93.6942 75.9363C93.6942 76.148 93.6101 76.351 93.4604 76.5007C93.3107 76.6503 93.1077 76.7344 92.896 76.7344V76.7442Z" fill="#141232"/>
<path d="M67.4282 37.218H60.8421C60.6304 37.218 60.4274 37.1339 60.2777 36.9842C60.128 36.8345 60.0439 36.6315 60.0439 36.4198C60.0439 36.2081 60.128 36.0051 60.2777 35.8554C60.4274 35.7057 60.6304 35.6216 60.8421 35.6216H67.4282C67.7126 35.6216 67.9854 35.5086 68.1865 35.3075C68.3876 35.1064 68.5006 34.8337 68.5006 34.5492V27.9779C68.5006 27.7662 68.5847 27.5631 68.7343 27.4135C68.884 27.2638 69.087 27.1797 69.2987 27.1797C69.5104 27.1797 69.7134 27.2638 69.8631 27.4135C70.0128 27.5631 70.0969 27.7662 70.0969 27.9779V34.5492C70.0969 35.257 69.8157 35.9358 69.3153 36.4363C68.8148 36.9368 68.136 37.218 67.4282 37.218Z" fill="#141232"/>
<path d="M79.2782 68.2585C76.1917 68.2585 73.1744 67.3433 70.6081 65.6285C68.0417 63.9137 66.0415 61.4764 64.8603 58.6248C63.6791 55.7732 63.3701 52.6354 63.9722 49.6082C64.5744 46.5809 66.0607 43.8002 68.2432 41.6177C70.4257 39.4352 73.2064 37.9489 76.2337 37.3467C79.2609 36.7446 82.3987 37.0536 85.2503 38.2348C88.1019 39.416 90.5392 41.4162 92.254 43.9826C93.9688 46.5489 94.884 49.5662 94.884 52.6527C94.8801 56.7904 93.2347 60.7576 90.3089 63.6834C87.3831 66.6092 83.4159 68.2546 79.2782 68.2585ZM79.2782 38.6432C76.5074 38.6432 73.7988 39.4649 71.4949 41.0042C69.1911 42.5436 67.3955 44.7316 66.3351 47.2915C65.2748 49.8514 64.9973 52.6682 65.5379 55.3858C66.0784 58.1034 67.4127 60.5997 69.372 62.5589C71.3312 64.5182 73.8275 65.8525 76.5451 66.393C79.2626 66.9336 82.0795 66.6561 84.6394 65.5958C87.1993 64.5354 89.3873 62.7398 90.9267 60.436C92.466 58.1321 93.2877 55.4235 93.2877 52.6527C93.2851 48.938 91.8083 45.3761 89.1815 42.7494C86.5548 40.1226 82.9929 38.6458 79.2782 38.6432Z" fill="#141232"/>
<path d="M102.249 79.8791C101.119 79.878 100.036 79.429 99.2376 78.6304L93.8512 73.244C92.5387 71.9312 91.7322 70.1969 91.5742 68.3473L91.5203 67.7744C91.4877 67.3892 91.5407 67.0015 91.6757 66.6392C91.8106 66.2769 92.024 65.9489 92.3006 65.6788C92.5773 65.4087 92.9102 65.2032 93.2757 65.0771C93.6411 64.9509 94.03 64.9071 94.4143 64.949H94.5857C96.7813 65.1893 98.8296 66.1703 100.393 67.7303L105.148 72.485C105.915 73.2372 106.379 74.2459 106.449 75.3183C106.52 76.3906 106.192 77.4513 105.53 78.2974C105.152 78.7567 104.683 79.132 104.151 79.3993C103.62 79.6666 103.039 79.82 102.445 79.8497L102.249 79.8791ZM94.1352 66.56C93.8682 66.5589 93.6115 66.6626 93.4203 66.8489C93.3134 66.955 93.2308 67.0831 93.1784 67.2243C93.126 67.3656 93.1049 67.5165 93.1167 67.6667L93.1656 68.2396C93.2901 69.7188 93.9336 71.1063 94.9823 72.1569L100.369 77.5433C100.631 77.802 100.945 78.0032 101.29 78.1344C101.634 78.2656 102.002 78.3238 102.37 78.3054C102.739 78.287 103.099 78.1923 103.429 78.0274C103.758 77.8626 104.05 77.631 104.286 77.3475C104.697 76.808 104.896 76.1359 104.844 75.4595C104.791 74.783 104.492 74.1495 104.002 73.6798L99.2473 68.9251C97.9422 67.6194 96.2301 66.7988 94.3947 66.5992H94.2233L94.1352 66.56Z" fill="#141232"/>
<path d="M92.8714 67.04C92.7666 67.0404 92.6628 67.0199 92.5661 66.9795C92.4693 66.9391 92.3817 66.8798 92.3083 66.8049L89.1842 63.6857C89.1099 63.6114 89.051 63.5233 89.0108 63.4262C88.9706 63.3292 88.95 63.2252 88.95 63.1201C88.95 63.0151 88.9706 62.9111 89.0108 62.8141C89.051 62.717 89.1099 62.6288 89.1842 62.5546C89.2585 62.4803 89.3467 62.4214 89.4437 62.3812C89.5407 62.341 89.6448 62.3203 89.7498 62.3203C89.8548 62.3203 89.9588 62.341 90.0559 62.3812C90.1529 62.4214 90.2411 62.4803 90.3154 62.5546L93.4346 65.6787C93.5457 65.7903 93.6213 65.9323 93.6519 66.0868C93.6825 66.2413 93.6667 66.4014 93.6065 66.5469C93.5463 66.6924 93.4443 66.8169 93.3136 66.9047C93.1828 66.9924 93.0289 67.0395 92.8714 67.04Z" fill="#141232"/>
<path d="M102.67 75.7847C102.565 75.7849 102.461 75.7642 102.365 75.7238C102.268 75.6835 102.18 75.6243 102.107 75.5496L99.5213 72.9642C99.4456 72.8905 99.3852 72.8026 99.3437 72.7055C99.3022 72.6084 99.2804 72.504 99.2796 72.3984C99.2787 72.2928 99.2988 72.188 99.3387 72.0903C99.3787 71.9925 99.4376 71.9036 99.5121 71.8288C99.5866 71.7539 99.6752 71.6946 99.7729 71.6543C99.8705 71.6139 99.9751 71.5934 100.081 71.5938C100.186 71.5942 100.291 71.6155 100.388 71.6566C100.485 71.6977 100.574 71.7576 100.648 71.833L103.233 74.4185C103.307 74.4927 103.367 74.5808 103.407 74.6778C103.447 74.7749 103.468 74.879 103.468 74.9841C103.468 75.0892 103.447 75.1932 103.407 75.2903C103.367 75.3873 103.307 75.4755 103.233 75.5496C103.159 75.6243 103.072 75.6835 102.975 75.7238C102.878 75.7642 102.775 75.7849 102.67 75.7847Z" fill="#141232"/>
<path d="M75.8067 43.1995C75.616 43.2014 75.4309 43.1349 75.285 43.0121C75.1391 42.8893 75.042 42.7184 75.0112 42.5302C74.9804 42.342 75.018 42.149 75.1173 41.9861C75.2165 41.8233 75.3707 41.7013 75.552 41.6423C76.7532 41.2399 78.0116 41.0348 79.2784 41.0352C79.4901 41.0352 79.6931 41.1192 79.8428 41.2689C79.9925 41.4186 80.0766 41.6216 80.0766 41.8333C80.0766 42.045 79.9925 42.248 79.8428 42.3977C79.6931 42.5474 79.4901 42.6315 79.2784 42.6315C78.1863 42.6306 77.1014 42.8075 76.0662 43.1554C75.9827 43.1843 75.895 43.1992 75.8067 43.1995Z" fill="#141232"/>
<path d="M72.5938 44.9517C72.4285 44.9492 72.268 44.8957 72.1342 44.7985C72.0004 44.7014 71.8999 44.5653 71.8463 44.4089C71.7927 44.2525 71.7887 44.0834 71.8349 43.9246C71.881 43.7658 71.975 43.6252 72.1041 43.5218C72.3 43.37 72.4958 43.228 72.6966 43.086C72.8713 42.9659 73.0865 42.9201 73.295 42.9587C73.5034 42.9972 73.688 43.117 73.8082 43.2917C73.9283 43.4664 73.9741 43.6816 73.9355 43.8901C73.897 44.0985 73.7772 44.2831 73.6025 44.4033C73.4311 44.5208 73.2597 44.6481 73.1128 44.7754C72.9667 44.8947 72.7824 44.9573 72.5938 44.9517Z" fill="#141232"/>
<path d="M70.7384 51.8932C70.5267 51.8932 70.3236 51.8091 70.174 51.6594C70.0243 51.5097 69.9402 51.3067 69.9402 51.095V48.3529C69.9402 48.1412 70.0243 47.9381 70.174 47.7885C70.3236 47.6388 70.5267 47.5547 70.7384 47.5547C70.95 47.5547 71.1531 47.6388 71.3027 47.7885C71.4524 47.9381 71.5365 48.1412 71.5365 48.3529V51.095C71.5365 51.3067 71.4524 51.5097 71.3027 51.6594C71.1531 51.8091 70.95 51.8932 70.7384 51.8932Z" fill="#141232"/>
<path d="M74.9986 51.8953C74.7869 51.8953 74.5839 51.8112 74.4342 51.6615C74.2845 51.5118 74.2004 51.3088 74.2004 51.0971V46.9349C74.2004 46.7232 74.2845 46.5202 74.4342 46.3705C74.5839 46.2208 74.7869 46.1367 74.9986 46.1367C75.2103 46.1367 75.4133 46.2208 75.563 46.3705C75.7127 46.5202 75.7968 46.7232 75.7968 46.9349V51.0971C75.7968 51.3088 75.7127 51.5118 75.563 51.6615C75.4133 51.8112 75.2103 51.8953 74.9986 51.8953Z" fill="#141232"/>
<path d="M79.283 51.8977C79.1778 51.8983 79.0735 51.8781 78.9761 51.8383C78.8787 51.7985 78.7901 51.7398 78.7155 51.6656C78.6409 51.5914 78.5816 51.5032 78.5412 51.4061C78.5008 51.3089 78.48 51.2047 78.48 51.0995V47.4123C78.4958 47.2108 78.5869 47.0226 78.7354 46.8853C78.8838 46.7481 79.0785 46.6719 79.2806 46.6719C79.4827 46.6719 79.6774 46.7481 79.8258 46.8853C79.9742 47.0226 80.0654 47.2108 80.0812 47.4123V51.0995C80.0812 51.3112 79.9971 51.5142 79.8474 51.6639C79.6977 51.8136 79.4947 51.8977 79.283 51.8977Z" fill="#141232"/>
<path d="M83.5626 51.8958C83.3509 51.8958 83.1479 51.8117 82.9982 51.662C82.8485 51.5123 82.7644 51.3093 82.7644 51.0976V45.0404C82.7644 44.8287 82.8485 44.6256 82.9982 44.476C83.1479 44.3263 83.3509 44.2422 83.5626 44.2422C83.7743 44.2422 83.9773 44.3263 84.127 44.476C84.2766 44.6256 84.3607 44.8287 84.3607 45.0404V51.0976C84.3607 51.3093 84.2766 51.5123 84.127 51.662C83.9773 51.8117 83.7743 51.8958 83.5626 51.8958Z" fill="#141232"/>
<path d="M87.8426 51.8945C87.6309 51.8945 87.4279 51.8104 87.2782 51.6607C87.1285 51.511 87.0444 51.308 87.0444 51.0963V47.8841C87.0444 47.6724 87.1285 47.4694 87.2782 47.3197C87.4279 47.17 87.6309 47.0859 87.8426 47.0859C88.0543 47.0859 88.2573 47.17 88.407 47.3197C88.5567 47.4694 88.6408 47.6724 88.6408 47.8841V51.0963C88.6408 51.308 88.5567 51.511 88.407 51.6607C88.2573 51.8104 88.0543 51.8945 87.8426 51.8945Z" fill="#141232"/>
<path d="M87.8424 56.3275C87.6307 56.3275 87.4277 56.2435 87.278 56.0938C87.1283 55.9441 87.0442 55.7411 87.0442 55.5294V54.5794C87.0442 54.4746 87.0648 54.3708 87.105 54.274C87.1451 54.1771 87.2039 54.0891 87.278 54.015C87.3521 53.9409 87.4401 53.8821 87.5369 53.842C87.6337 53.8019 87.7375 53.7812 87.8424 53.7812C87.9472 53.7812 88.051 53.8019 88.1478 53.842C88.2446 53.8821 88.3326 53.9409 88.4067 54.015C88.4809 54.0891 88.5397 54.1771 88.5798 54.274C88.6199 54.3708 88.6405 54.4746 88.6405 54.5794V55.5294C88.6405 55.7411 88.5564 55.9441 88.4067 56.0938C88.2571 56.2435 88.054 56.3275 87.8424 56.3275Z" fill="#141232"/>
<path d="M83.5626 58.6927C83.3509 58.6927 83.1479 58.6086 82.9982 58.4589C82.8485 58.3092 82.7644 58.1062 82.7644 57.8945V54.5794C82.7644 54.3677 82.8485 54.1647 82.9982 54.015C83.1479 53.8653 83.3509 53.7812 83.5626 53.7812C83.7743 53.7812 83.9773 53.8653 84.127 54.015C84.2766 54.1647 84.3607 54.3677 84.3607 54.5794V57.8945C84.3607 58.1062 84.2766 58.3092 84.127 58.4589C83.9773 58.6086 83.7743 58.6927 83.5626 58.6927Z" fill="#141232"/>
<path d="M79.283 61.5463C79.1778 61.5469 79.0735 61.5268 78.9761 61.4869C78.8787 61.4471 78.7901 61.3884 78.7155 61.3143C78.6409 61.2401 78.5816 61.1519 78.5412 61.0547C78.5008 60.9575 78.48 60.8534 78.48 60.7481V54.5881C78.4958 54.3865 78.5869 54.1984 78.7354 54.0611C78.8838 53.9239 79.0785 53.8477 79.2806 53.8477C79.4827 53.8477 79.6774 53.9239 79.8258 54.0611C79.9742 54.1984 80.0654 54.3865 80.0812 54.5881V60.7481C80.0812 60.9598 79.9971 61.1628 79.8474 61.3125C79.6977 61.4622 79.4947 61.5463 79.283 61.5463Z" fill="#141232"/>
<path d="M74.9986 59.1676C74.7869 59.1676 74.5839 59.0835 74.4342 58.9339C74.2845 58.7842 74.2004 58.5812 74.2004 58.3695V54.5794C74.2004 54.3677 74.2845 54.1647 74.4342 54.015C74.5839 53.8653 74.7869 53.7812 74.9986 53.7812C75.2103 53.7812 75.4133 53.8653 75.563 54.015C75.7127 54.1647 75.7968 54.3677 75.7968 54.5794V58.3695C75.7968 58.5812 75.7127 58.7842 75.563 58.9339C75.4133 59.0835 75.2103 59.1676 74.9986 59.1676Z" fill="#141232"/>
<path d="M70.7384 56.3275C70.5267 56.3275 70.3236 56.2434 70.174 56.0938C70.0243 55.9441 69.9402 55.7411 69.9402 55.5294V54.5794C69.9402 54.3677 70.0243 54.1647 70.174 54.015C70.3236 53.8653 70.5267 53.7812 70.7384 53.7812C70.95 53.7812 71.1531 53.8653 71.3027 54.015C71.4524 54.1647 71.5365 54.3677 71.5365 54.5794V55.5294C71.5365 55.7411 71.4524 55.9441 71.3027 56.0938C71.1531 56.2434 70.95 56.3275 70.7384 56.3275Z" fill="#141232"/>
<path d="M44.9331 62.1861C42.0982 62.1861 39.4112 60.8488 37.3669 58.4212C35.4219 56.1118 34.3071 53.0349 34.3071 49.9797C34.3071 43.602 39.0736 38.4141 44.9331 38.4141C50.7926 38.4141 55.5591 43.602 55.5591 49.9797C55.5591 53.0349 54.4443 56.1118 52.4994 58.4212C50.4537 60.8488 47.7667 62.1861 44.9331 62.1861ZM44.9331 40.0826C40.0052 40.0826 35.9963 44.5218 35.9963 49.9797C35.9963 52.6516 36.9694 55.3374 38.6663 57.3552C40.3837 59.3946 42.6091 60.5176 44.9331 60.5176C47.2572 60.5176 49.4826 59.3946 51.1999 57.3552C52.8968 55.3374 53.87 52.6516 53.87 49.9797C53.8686 44.5218 49.8596 40.0826 44.9331 40.0826Z" fill="#141232"/>
<path d="M62.2361 92.5791H27.6274C26.7306 92.5782 25.8708 92.2261 25.2366 91.5999C24.6025 90.9738 24.2458 90.1248 24.2449 89.2393V81.98C24.2449 77.4404 26.0713 73.0866 29.3223 69.8766C32.5733 66.6666 36.9826 64.8633 41.5802 64.8633H48.2748C49.1551 64.8633 50.0343 64.9289 50.9047 65.0595C51.0184 65.0712 51.1286 65.1056 51.2286 65.1606C51.3285 65.2156 51.4161 65.2901 51.486 65.3795C51.556 65.4688 51.6068 65.5713 51.6355 65.6807C51.6642 65.79 51.6701 65.904 51.6528 66.0157C51.6356 66.1273 51.5956 66.2344 51.5353 66.3304C51.4749 66.4263 51.3955 66.5092 51.3017 66.574C51.208 66.6388 51.102 66.6841 50.99 66.7072C50.878 66.7303 50.7624 66.7308 50.6503 66.7085C49.8641 66.5907 49.07 66.5316 48.2748 66.5318H41.5802C37.4299 66.532 33.4496 68.16 30.5149 71.0577C27.5802 73.9554 25.9314 77.8855 25.9312 81.9835V89.2428C25.9312 89.6857 26.1094 90.1104 26.4266 90.4236C26.7437 90.7368 27.1739 90.9127 27.6225 90.9127H62.2311C62.6797 90.9127 63.1099 90.7368 63.427 90.4236C63.7442 90.1104 63.9224 89.6857 63.9224 89.2428V84.2024C63.9224 83.9809 64.0115 83.7686 64.17 83.612C64.3286 83.4554 64.5437 83.3674 64.768 83.3674C64.9923 83.3674 65.2074 83.4554 65.366 83.612C65.5245 83.7686 65.6136 83.9809 65.6136 84.2024V89.2428C65.6118 90.1268 65.2554 90.9742 64.6224 91.5994C63.9894 92.2247 63.1314 92.5769 62.2361 92.5791Z" fill="#141232"/>
<path d="M33.7387 92.58C33.5144 92.58 33.2993 92.4921 33.1408 92.3355C32.9822 92.1789 32.8931 91.9665 32.8931 91.7451V81.4834C32.8931 81.262 32.9822 81.0496 33.1408 80.893C33.2993 80.7364 33.5144 80.6484 33.7387 80.6484C33.963 80.6484 34.1781 80.7364 34.3366 80.893C34.4952 81.0496 34.5843 81.262 34.5843 81.4834V91.7458C34.5841 91.9671 34.495 92.1793 34.3364 92.3357C34.1778 92.4922 33.9628 92.58 33.7387 92.58Z" fill="#141232"/>
<path d="M56.1252 92.58C55.9009 92.58 55.6858 92.4921 55.5272 92.3355C55.3686 92.1789 55.2795 91.9665 55.2795 91.7451V81.4834C55.2795 81.262 55.3686 81.0496 55.5272 80.893C55.6858 80.7364 55.9009 80.6484 56.1252 80.6484C56.3494 80.6484 56.5645 80.7364 56.7231 80.893C56.8817 81.0496 56.9708 81.262 56.9708 81.4834V91.7458C56.9706 91.9671 56.8814 92.1793 56.7229 92.3357C56.5643 92.4922 56.3493 92.58 56.1252 92.58Z" fill="#141232"/>
</svg>
