<svg width="40" height="40" viewBox="0 0 40 40" fill="none" xmlns="http://www.w3.org/2000/svg">
<rect x="1" y="1" width="38" height="38" rx="11" stroke="#F4F8F5" stroke-width="2"/>
<path d="M22.4855 13.9075C20.0889 11.3634 16.2012 11.3656 13.7984 13.9054L13.797 13.9075C11.4004 16.4517 11.4023 20.0396 13.7948 22.5904L13.797 22.5918C15.9329 24.8592 19.252 25.0594 21.6501 23.2879L26.15 27.663C26.5733 28.1123 27.2593 28.1123 27.6826 27.663C28.1058 27.2137 28.1058 26.4854 27.6826 26.0361L23.1833 21.7568C24.8516 19.216 24.6189 16.1812 22.4876 13.9089L22.4855 13.9075ZM15.3295 15.4386C16.8886 13.7928 19.4053 13.7963 20.953 15.4393L20.9537 15.4386C22.5043 17.0937 22.5007 19.4169 20.953 21.06C19.3939 22.7065 16.8774 22.7032 15.3295 21.06C13.7788 19.405 13.7817 17.0817 15.3295 15.4386Z" fill="#F4F8F5"/>
</svg>
