<svg width="39" height="26" viewBox="0 0 39 26" fill="none" xmlns="http://www.w3.org/2000/svg">
<rect x="1" y="1" width="37" height="24" rx="11" stroke="#459179" stroke-width="2"/>
<path d="M21.5195 8.04987C19.5722 5.98277 16.4135 5.98455 14.4612 8.04815L14.46 8.04987C12.5128 10.117 12.5144 13.0321 14.4583 15.1047L14.46 15.1058C16.1954 16.9481 18.8923 17.1108 20.8407 15.6714L24.4969 19.2262C24.8408 19.5913 25.3982 19.5913 25.7421 19.2262C26.086 18.8612 26.086 18.2694 25.7421 17.9044L22.0864 14.4274C23.4419 12.363 23.2528 9.89726 21.5212 8.05102L21.5195 8.04987ZM15.7052 9.29386C16.972 7.95667 19.0168 7.95953 20.2743 9.29444L20.2749 9.29386C21.5348 10.6386 21.5319 12.5263 20.2743 13.8613C19.0076 15.1991 16.9629 15.1964 15.7052 13.8613C14.4453 12.5165 14.4476 10.6289 15.7052 9.29386Z" fill="#459179"/>
</svg>
