<svg width="20" height="14" viewBox="0 0 20 14" fill="none" xmlns="http://www.w3.org/2000/svg">
<path d="M0.573706 6.5417L19.4237 6.54171C19.6794 6.54171 19.875 6.75232 19.875 6.99302C19.875 7.24877 19.6644 7.44434 19.4237 7.44434L0.573706 7.44433C0.317959 7.44433 0.122389 7.23372 0.122389 6.99302C0.122389 6.75232 0.317959 6.5417 0.573706 6.5417Z" fill="#856CFC"/>
<path d="M6.2147 0.915042C6.33505 0.915042 6.44036 0.960175 6.53062 1.05044C6.71115 1.23096 6.71115 1.5168 6.53062 1.69733L1.22013 7.00781L6.53062 12.3183C6.71115 12.4988 6.71115 12.7847 6.53062 12.9652C6.35009 13.1457 6.06426 13.1457 5.88373 12.9652L0.242281 7.32374C0.0617547 7.14321 0.0617548 6.85737 0.242281 6.67685L5.88373 1.03539C5.98904 0.960174 6.10939 0.915042 6.2147 0.915042Z" fill="#856CFC"/>
</svg>
