<svg width="10" height="5" viewBox="0 0 10 5" fill="none" xmlns="http://www.w3.org/2000/svg">
<path d="M8.97765 0.308277C8.86045 0.191108 8.70151 0.125286 8.53578 0.125286C8.37005 0.125286 8.21111 0.191108 8.0939 0.308277L5.00015 3.40203L1.9064 0.308278C1.78853 0.194429 1.63065 0.131433 1.46678 0.132857C1.30291 0.134281 1.14615 0.200011 1.03027 0.315891C0.914387 0.431772 0.848657 0.588529 0.847233 0.752403C0.845809 0.916276 0.908806 1.07415 1.02265 1.19203L4.55828 4.72765C4.67548 4.84482 4.83443 4.91064 5.00015 4.91064C5.16588 4.91064 5.32482 4.84482 5.44203 4.72765L8.97765 1.19203C9.09482 1.07482 9.16064 0.91588 9.16064 0.750152C9.16064 0.584424 9.09482 0.425482 8.97765 0.308277Z" fill="#3A3A3A"/>
</svg>
