<svg width="20" height="20" viewBox="0 0 20 20" fill="none" xmlns="http://www.w3.org/2000/svg">
<path d="M7.97002 7.27492L8.39918 8.82742C8.80335 10.2899 9.00502 11.0216 9.59918 11.3541C10.1933 11.6874 10.9475 11.4908 12.4558 11.0991L14.0558 10.6824C15.5642 10.2908 16.3183 10.0949 16.6617 9.51908C17.005 8.94242 16.8033 8.21075 16.3983 6.74825L15.97 5.19658C15.5658 3.73325 15.3633 3.00158 14.77 2.66908C14.175 2.33575 13.4208 2.53242 11.9125 2.92492L10.3125 3.33992C8.80418 3.73158 8.05002 3.92825 7.70752 4.50492C7.36418 5.08075 7.56585 5.81242 7.97002 7.27492Z" fill="#FF7E2A"/>
<path d="M1.89753 4.37248C1.91949 4.29334 1.95683 4.21929 2.00742 4.15459C2.05801 4.08988 2.12086 4.03578 2.19237 3.99538C2.26388 3.95498 2.34266 3.92908 2.42419 3.91914C2.50572 3.9092 2.58841 3.91544 2.66753 3.93748L4.0867 4.33082C4.46282 4.43296 4.80605 4.63081 5.08295 4.90509C5.35985 5.17936 5.56097 5.52069 5.6667 5.89582L7.4592 12.3841L7.59087 12.84C8.12233 13.0359 8.57019 13.4087 8.8592 13.8958L9.11753 13.8158L16.5092 11.895C16.5887 11.8743 16.6714 11.8695 16.7527 11.8808C16.834 11.8921 16.9123 11.9193 16.9831 11.9608C17.0539 12.0024 17.1159 12.0575 17.1654 12.1229C17.2149 12.1884 17.251 12.263 17.2717 12.3425C17.2924 12.4219 17.2972 12.5047 17.2859 12.586C17.2746 12.6673 17.2474 12.7456 17.2059 12.8164C17.1643 12.8872 17.1092 12.9491 17.0437 12.9987C16.9782 13.0482 16.9037 13.0843 16.8242 13.105L9.46003 15.0183L9.18503 15.1033C9.18003 16.1616 8.4492 17.13 7.34337 17.4166C6.01837 17.7616 4.65587 16.9983 4.30087 15.7133C3.94587 14.4275 4.73253 13.1058 6.05753 12.7616C6.12282 12.7448 6.1887 12.7304 6.25503 12.7183L4.4617 6.22832C4.41343 6.06158 4.32282 5.91017 4.1987 5.78882C4.07457 5.66747 3.92116 5.58031 3.75337 5.53582L2.33337 5.14165C2.25424 5.11978 2.18019 5.08253 2.11546 5.03203C2.05073 4.98154 1.99658 4.91878 1.95611 4.84735C1.91563 4.77593 1.88963 4.69723 1.87958 4.61575C1.86953 4.53427 1.87563 4.4516 1.89753 4.37248Z" fill="#FF7E2A"/>
</svg>
