<svg width="35" height="20" viewBox="0 0 35 20" fill="none" xmlns="http://www.w3.org/2000/svg">
<g clip-path="url(#clip0_54_644)">
<path d="M29.6213 19.589C29.8258 9.40594 22.729 5.39357 17.2817 5.51281C11.1529 5.64691 4.83892 10.9047 5.47484 19.5207H0.172257C-0.2017 17.2659 0.0685422 15.0967 0.639216 12.9626C2.78947 4.91905 10.3908 -0.537656 18.6003 0.0417604C27.0538 0.638495 33.7636 6.9329 34.8412 15.3253C34.9911 16.495 34.9463 17.6904 34.9979 18.8735C35.0203 19.3847 34.8071 19.6014 34.2904 19.5954C32.7591 19.5771 31.2272 19.589 29.6209 19.589H29.6213Z" fill="white"/>
<path d="M26.3323 10.3761C24.3213 12.6076 22.4637 14.6368 20.6509 16.7071C20.2696 17.1425 19.9789 17.6997 19.7798 18.2509C19.3177 19.527 18.1471 20.2365 16.8582 19.9283C15.6726 19.6447 14.8696 18.4884 15.0143 17.2731C15.1759 15.9154 16.2033 15.0614 17.5389 15.0163C18.1671 14.9951 18.859 14.8545 19.398 14.5453C21.6583 13.2479 23.8719 11.8659 26.3323 10.3761Z" fill="white"/>
</g>
<defs>
<clipPath id="clip0_54_644">
<rect width="35" height="20" fill="white"/>
</clipPath>
</defs>
</svg>
