<svg width="14" height="13" viewBox="0 0 14 13" fill="none" xmlns="http://www.w3.org/2000/svg">
<path d="M13.3291 4.82274C13.287 4.7008 13.2104 4.59369 13.1086 4.51441C13.0069 4.43512 12.8843 4.38707 12.7558 4.37607L8.96242 3.82274L7.26242 0.376073C7.20783 0.263359 7.1226 0.168301 7.01648 0.101789C6.91036 0.0352766 6.78766 0 6.66242 0C6.53718 0 6.41448 0.0352766 6.30836 0.101789C6.20224 0.168301 6.11701 0.263359 6.06242 0.376073L4.36242 3.81607L0.569086 4.37607C0.445701 4.39361 0.329703 4.44538 0.234253 4.52551C0.138804 4.60564 0.0677265 4.71092 0.0290865 4.82941C-0.0062835 4.94519 -0.00945754 5.06842 0.019905 5.18587C0.0492676 5.30332 0.110058 5.41056 0.195753 5.49607L2.94909 8.16274L2.28242 11.9494C2.25862 12.0744 2.27108 12.2036 2.31833 12.3217C2.36559 12.4398 2.44566 12.542 2.54909 12.6161C2.6499 12.6881 2.7688 12.7307 2.89245 12.7389C3.0161 12.7472 3.1396 12.7208 3.24909 12.6627L6.66242 10.8827L10.0624 12.6694C10.156 12.7222 10.2617 12.7498 10.3691 12.7494C10.5103 12.7499 10.648 12.7056 10.7624 12.6227C10.8659 12.5486 10.9459 12.4465 10.9932 12.3284C11.0404 12.2102 11.0529 12.0811 11.0291 11.9561L10.3624 8.16941L13.1158 5.50274C13.212 5.42119 13.2831 5.31401 13.3209 5.19364C13.3587 5.07327 13.3615 4.94466 13.3291 4.82274Z" fill="#FCC16F"/>
</svg>
