<svg width="16" height="17" viewBox="0 0 16 17" fill="none" xmlns="http://www.w3.org/2000/svg">
<path d="M14.6624 6.78075C14.6203 6.65881 14.5437 6.5517 14.442 6.47242C14.3402 6.39313 14.2176 6.34508 14.0891 6.33408L10.2957 5.78075L8.59573 2.33408C8.54114 2.22137 8.45591 2.12631 8.34979 2.0598C8.24368 1.99328 8.12097 1.95801 7.99573 1.95801C7.87049 1.95801 7.74779 1.99328 7.64167 2.0598C7.53556 2.12631 7.45032 2.22137 7.39573 2.33408L5.69573 5.77408L1.9024 6.33408C1.77901 6.35162 1.66302 6.40339 1.56757 6.48352C1.47212 6.56365 1.40104 6.66893 1.3624 6.78741C1.32703 6.9032 1.32386 7.02643 1.35322 7.14388C1.38258 7.26133 1.44337 7.36856 1.52907 7.45408L4.2824 10.1207L3.61573 13.9074C3.59193 14.0324 3.60439 14.1616 3.65165 14.2797C3.6989 14.3978 3.77897 14.5 3.8824 14.5741C3.98321 14.6462 4.10212 14.6887 4.22576 14.6969C4.34941 14.7052 4.47291 14.6788 4.5824 14.6207L7.99573 12.8407L11.3957 14.6274C11.4893 14.6802 11.595 14.7078 11.7024 14.7074C11.8436 14.7079 11.9813 14.6636 12.0957 14.5807C12.1992 14.5067 12.2792 14.4045 12.3265 14.2864C12.3737 14.1683 12.3862 14.0391 12.3624 13.9141L11.6957 10.1274L14.4491 7.46075C14.5453 7.3792 14.6165 7.27202 14.6542 7.15165C14.692 7.03128 14.6948 6.90266 14.6624 6.78075Z" fill="#FCC16F"/>
</svg>
