<svg width="26" height="26" viewBox="0 0 26 26" fill="none" xmlns="http://www.w3.org/2000/svg">
<g id="Shapes / star shape">
<rect width="26" height="26" fill="#31C072"/>
<path id="Vector" d="M21.0977 10.7447C21.0465 10.5963 20.9533 10.466 20.8294 10.3695C20.7056 10.273 20.5564 10.2145 20.3999 10.2011L15.7831 9.52763L13.714 5.33272C13.6476 5.19553 13.5439 5.07984 13.4147 4.99889C13.2856 4.91793 13.1362 4.875 12.9838 4.875C12.8314 4.875 12.682 4.91793 12.5529 4.99889C12.4237 5.07984 12.32 5.19553 12.2535 5.33272L10.1845 9.51952L5.56763 10.2011C5.41746 10.2224 5.27628 10.2854 5.16011 10.383C5.04394 10.4805 4.95743 10.6086 4.9104 10.7528C4.86735 10.8938 4.86349 11.0437 4.89923 11.1867C4.93496 11.3296 5.00895 11.4602 5.11325 11.5642L8.46431 14.8098L7.65292 19.4185C7.62395 19.5707 7.63912 19.7279 7.69663 19.8717C7.75414 20.0154 7.85159 20.1398 7.97748 20.2299C8.10017 20.3177 8.24489 20.3694 8.39538 20.3795C8.54588 20.3895 8.69619 20.3574 8.82944 20.2867L12.9838 18.1203L17.1219 20.2949C17.2358 20.3591 17.3644 20.3926 17.4951 20.3922C17.667 20.3928 17.8347 20.3388 17.9739 20.2381C18.0998 20.1479 18.1972 20.0236 18.2547 19.8798C18.3122 19.736 18.3274 19.5788 18.2984 19.4267L17.487 14.8179L20.8381 11.5723C20.9552 11.4731 21.0418 11.3426 21.0878 11.1961C21.1338 11.0496 21.1372 10.8931 21.0977 10.7447Z" fill="white"/>
</g>
</svg>
