<svg width="320" height="555" viewBox="0 0 320 555" fill="none" xmlns="http://www.w3.org/2000/svg">
<g opacity="0.3">
<path d="M200.13 388.382L200.13 386.985C201.095 386.985 202.043 386.985 202.991 387.085L202.874 388.499C201.976 388.416 201.061 388.382 200.13 388.382ZM205.618 388.798L205.818 387.418C206.766 387.551 207.714 387.734 208.629 387.95L208.313 389.314C207.431 389.114 206.516 388.931 205.618 388.748L205.618 388.798ZM210.974 390.029L211.39 388.682C212.288 388.965 213.202 389.297 214.084 389.646L213.568 390.944C212.72 390.611 211.839 390.295 210.974 390.029ZM216.08 392.058L216.695 390.794C217.543 391.21 218.358 391.659 219.206 392.141L218.508 393.355C217.71 392.89 216.895 392.457 216.08 392.075L216.08 392.058ZM220.82 394.836L221.618 393.688C222.4 394.22 223.181 394.802 223.913 395.351L223.032 396.432C222.317 395.917 221.585 395.401 220.82 394.836ZM225.094 398.295L226.059 397.28C226.757 397.929 227.422 398.611 228.071 399.309L227.023 400.257C226.408 399.592 225.759 398.927 225.094 398.295ZM228.803 402.353L229.901 401.488C230.499 402.237 231.065 403.018 231.564 403.8L230.4 404.582C229.917 403.833 229.368 403.085 228.803 402.353ZM231.863 406.927L233.077 406.245C233.543 407.06 233.975 407.908 234.391 408.773L233.111 409.372C232.734 408.54 232.318 407.725 231.863 406.927ZM234.192 411.916L235.505 411.417C235.838 412.315 236.137 413.214 236.404 414.128L235.056 414.527C234.807 413.696 234.508 412.748 234.192 411.9L234.192 411.916ZM235.738 417.188L237.102 416.906C237.302 417.82 237.468 418.768 237.601 419.716L236.204 419.899C236.088 418.985 235.921 418.07 235.738 417.172L235.738 417.188ZM236.47 422.644L237.867 422.56C237.867 423.309 237.867 424.091 237.867 424.806L237.867 425.338L236.47 425.338L236.47 424.739C236.52 424.041 236.52 423.342 236.47 422.627L236.47 422.644ZM236.47 548.795L236.47 545.984L237.867 545.984L237.867 548.795L236.47 548.795ZM236.47 543.19L236.47 540.379L237.867 540.379L237.867 543.19L236.47 543.19ZM236.47 537.585L236.47 534.774L237.867 534.774L237.867 537.585L236.47 537.585ZM236.47 531.964L236.47 529.17L237.867 529.17L237.867 531.964L236.47 531.964ZM236.47 526.359L236.47 523.465L237.867 523.465L237.867 526.276L236.47 526.359ZM236.47 520.754L236.47 517.943L237.867 517.943L237.867 520.754L236.47 520.754ZM236.47 515.149L236.47 512.322L237.867 512.322L237.867 515.149L236.47 515.149ZM236.47 509.528L236.47 506.733L237.867 506.733L237.867 509.528L236.47 509.528ZM236.47 503.923L236.47 501.112L237.867 501.112L237.867 503.923L236.47 503.923ZM236.47 498.318L236.47 495.507L237.867 495.507L237.867 498.318L236.47 498.318ZM236.47 492.713L236.47 489.902L237.867 489.902L237.867 492.713L236.47 492.713ZM236.47 487.091L236.47 484.297L237.867 484.297L237.867 487.091L236.47 487.091ZM236.47 481.487L236.47 478.676L237.867 478.676L237.867 481.487L236.47 481.487ZM236.47 475.882L236.47 473.071L237.867 473.071L237.867 475.882L236.47 475.882ZM236.47 470.277L236.47 467.466L237.867 467.466L237.867 470.244L236.47 470.277ZM236.47 464.655L236.47 461.928L237.867 461.928L237.867 464.722L236.47 464.655ZM236.47 459.05L236.47 456.24L237.867 456.24L237.867 459.05L236.47 459.05ZM236.47 453.446L236.47 450.618L237.867 450.618L237.867 453.429L236.47 453.446ZM236.47 447.841L236.47 445.03L237.867 445.03L237.867 447.841L236.47 447.841ZM236.47 442.219L236.47 439.425L237.867 439.425L237.867 442.219L236.47 442.219ZM236.47 436.614L236.47 433.804L237.867 433.804L237.867 436.614L236.47 436.614ZM236.47 431.009L236.47 428.199L237.867 428.199L237.867 431.009L236.47 431.009Z" fill="#F85459"/>
<path d="M24.0337 424.789C24.0425 414.766 28.0283 405.155 35.1159 398.068C42.2036 390.98 51.814 386.994 61.8375 386.985L200.13 386.985L200.13 388.382L61.8375 388.382C52.1819 388.382 42.9217 392.218 36.0941 399.046C29.2665 405.873 25.4308 415.133 25.4308 424.789C25.4308 434.445 29.2665 443.705 36.0941 450.533C42.9217 457.36 52.1819 461.196 61.8375 461.196L319.063 461.196L319.063 462.593L61.8375 462.593C51.814 462.584 42.2036 458.598 35.1159 451.511C28.0283 444.423 24.0425 434.813 24.0337 424.789Z" fill="#F85459"/>
<path d="M214.848 332.983L214.848 331.586L217.659 331.586L217.659 332.983L214.848 332.983ZM220.47 332.983L220.47 331.586L223.264 331.586L223.264 332.983L220.47 332.983ZM226.074 332.983L226.074 331.586L228.885 331.586L228.885 332.983L226.074 332.983ZM231.679 332.983L231.679 331.586L234.507 331.586L234.507 332.983L231.679 332.983ZM237.284 332.983L237.284 331.586L240.095 331.586L240.095 332.983L237.284 332.983ZM242.906 332.983L242.906 331.586L245.7 331.586L245.7 332.983L242.906 332.983ZM248.511 332.983L248.511 331.586L251.321 331.586L251.321 332.983L248.511 332.983ZM254.115 332.983L254.115 331.586L256.926 331.586L256.926 332.983L254.115 332.983ZM259.72 332.983L259.72 331.586L262.531 331.586L262.531 332.983L259.72 332.983ZM265.342 332.983L265.342 331.586L268.136 331.586L268.136 332.983L265.342 332.983ZM270.947 332.983L270.947 331.586L273.757 331.586L273.757 332.983L270.947 332.983ZM276.552 332.983L276.552 331.586L279.412 331.586L279.412 332.983L276.552 332.983ZM282.156 332.983L282.156 331.586L284.967 331.586L284.967 332.983L282.156 332.983ZM287.778 332.983L287.778 331.586L290.572 331.586L290.572 332.983L287.778 332.983ZM293.383 332.983L293.383 331.586L296.194 331.586L296.194 332.983L293.383 332.983ZM298.988 332.983L298.988 331.586L301.798 331.586L301.798 332.983L298.988 332.983ZM304.593 332.983L304.593 331.586L307.403 331.586L307.403 332.983L304.593 332.983ZM310.214 332.983L310.214 331.586L313.008 331.586L313.008 332.983L310.214 332.983ZM315.819 332.983L315.819 331.586L318.613 331.586L318.613 332.983L315.819 332.983ZM321.208 461.147C322.139 461.147 323.054 461.147 323.985 460.997L324.085 462.394C323.154 462.477 322.205 462.527 321.257 462.56L321.208 461.147ZM321.407 333.083L321.407 331.669C322.355 331.669 323.287 331.769 324.235 331.835L324.118 333.232C323.253 333.116 322.322 333.066 321.407 333.033L321.407 333.083ZM326.729 460.781C327.661 460.681 328.575 460.548 329.49 460.398L329.706 461.779C328.775 461.928 327.844 462.061 326.896 462.178L326.729 460.781ZM326.929 333.515L327.095 332.118C328.043 332.235 328.975 332.368 329.906 332.517L329.673 333.914C328.764 333.737 327.849 333.587 326.929 333.465L326.929 333.515ZM332.201 459.916C333.116 459.733 334.014 459.517 334.912 459.301L335.261 460.664C334.347 460.897 333.415 461.097 332.501 461.296L332.201 459.916ZM332.401 334.463L332.683 333.083C333.615 333.282 334.53 333.499 335.444 333.731L335.095 335.095C334.197 334.779 333.299 334.563 332.401 334.38L332.401 334.463ZM337.623 458.469C338.521 458.203 339.403 457.92 340.267 457.621L340.733 458.935C339.835 459.251 338.937 459.533 338.039 459.816L337.623 458.469ZM337.823 335.761L338.222 334.413C339.142 334.702 340.04 335.001 340.916 335.311L340.45 336.625C339.536 336.309 338.654 336.027 337.773 335.761L337.823 335.761ZM342.812 456.64C343.677 456.307 344.475 455.941 345.357 455.558L345.939 456.839C345.074 457.222 344.276 457.587 343.328 457.953L342.812 456.64ZM343.012 337.607L343.527 336.309C344.409 336.659 345.29 337.041 346.138 337.424L345.556 338.704C344.703 338.327 343.854 337.961 343.012 337.607ZM347.852 454.378C348.683 453.962 349.515 453.529 350.313 453.064L350.995 454.294C350.163 454.76 349.332 455.193 348.484 455.625L347.852 454.378ZM348.068 339.902L348.7 338.654C349.554 339.087 350.385 339.536 351.195 340.002L350.513 341.216C349.714 340.767 348.899 340.334 348.068 339.902ZM352.691 451.667C353.473 451.184 354.255 450.685 355.02 450.17L355.801 451.317C355.02 451.85 354.238 452.365 353.423 452.864L352.691 451.667ZM352.908 342.629L353.639 341.449C354.454 341.947 355.303 342.463 356.018 342.995L355.219 344.159C354.471 343.627 353.689 343.128 352.908 342.629ZM357.282 448.623C358.013 448.074 358.745 447.509 359.46 446.96L360.342 448.041C359.61 448.64 358.862 449.222 358.113 449.787L357.282 448.623ZM357.481 345.839L358.329 344.708C359.078 345.29 359.826 345.873 360.558 346.471L359.66 347.552C358.945 346.904 358.23 346.322 357.481 345.773L357.481 345.839ZM361.573 445.13C362.271 444.515 362.953 443.883 363.618 443.251L364.583 444.249C363.901 444.914 363.219 445.546 362.504 446.178L361.573 445.13ZM361.772 349.349L362.704 348.317C363.419 348.933 364.101 349.581 364.783 350.247L363.801 351.245C363.136 350.496 362.454 349.897 361.772 349.282L361.772 349.349ZM365.564 441.272C366.196 440.607 366.828 439.925 367.427 439.226L368.491 440.141C367.859 440.856 367.227 441.555 366.579 442.236L365.564 441.272ZM365.747 353.224L366.762 352.159C367.41 352.858 368.042 353.556 368.658 354.272L367.593 355.186C366.995 354.521 366.379 353.822 365.747 353.157L365.747 353.224ZM369.223 436.981C369.805 436.266 370.354 435.534 370.886 434.785L372.017 435.6C371.469 436.366 370.886 437.131 370.354 437.862L369.223 436.981ZM369.39 357.315L370.487 356.45C371.069 357.199 371.635 357.947 372.15 358.712L371.019 359.527L369.39 357.315ZM372.55 432.54C373.049 431.775 373.547 430.993 374.03 430.195L375.227 430.91C374.745 431.725 374.229 432.573 373.714 433.322L372.55 432.54ZM372.55 361.839L373.714 361.074C374.229 361.856 374.745 362.654 375.227 363.469L374.013 364.184C373.614 363.402 373.115 362.621 372.55 361.839ZM375.277 427.784C375.726 426.969 376.142 426.12 376.558 425.322L377.822 425.937C377.406 426.786 376.957 427.601 376.508 428.465L375.277 427.784ZM375.394 366.596L376.624 365.93C377.073 366.762 377.506 367.594 377.922 368.442L376.658 369.057C376.325 368.226 375.876 367.411 375.46 366.596L375.394 366.596ZM377.722 422.794C378.105 421.962 378.454 421.131 378.786 420.233L380.1 420.732C379.751 421.63 379.385 422.495 379.019 423.36L377.722 422.794ZM377.822 371.568L379.202 371.003C379.585 371.868 379.934 372.749 380.267 373.631L378.969 374.13C378.604 373.265 378.254 372.417 377.888 371.568L377.822 371.568ZM379.734 417.622C380.034 416.74 380.3 415.859 380.566 414.977L381.98 415.36C381.714 416.274 381.431 417.173 381.132 418.071L379.734 417.622ZM379.734 376.741L381.065 376.292C381.364 377.19 381.647 378.088 381.897 379.003L380.549 379.385C380.433 378.504 380.15 377.606 379.868 376.741L379.734 376.741ZM381.348 412.299C381.564 411.401 381.764 410.503 381.946 409.588L383.327 409.855C383.144 410.786 382.928 411.717 382.712 412.632L381.348 412.299ZM381.398 382.096L382.761 381.78C382.978 382.695 383.177 383.61 383.36 384.541L381.98 384.807C381.797 383.876 381.614 382.961 381.398 382.096ZM382.429 406.861C382.562 405.946 382.678 405.031 382.778 404.1L384.175 404.25C384.075 405.198 383.942 406.129 383.809 407.06L382.429 406.861ZM382.429 387.518L383.826 387.302C383.959 388.233 384.075 389.165 384.175 390.113L382.778 390.262C382.7 389.331 382.59 388.416 382.445 387.518L382.429 387.518ZM383.011 401.339C383.011 400.424 383.111 399.493 383.127 398.578L384.524 398.578C384.524 399.543 384.524 400.474 384.408 401.422L383.011 401.339ZM383.011 393.023L384.425 392.94L384.541 395.768L383.127 395.768C383.127 394.869 383.094 393.938 383.028 393.023L383.011 393.023Z" fill="#F85459"/>
<path d="M19.0766 192.745L19.0766 192.496L20.4903 192.496L20.4903 192.812C20.4903 193.643 20.4903 194.458 20.4903 195.257L19.0932 195.257C19.1098 194.425 19.0766 193.593 19.0766 192.745ZM19.0766 189.619L19.0766 186.824L20.4903 186.824L20.4903 189.619L19.0766 189.619ZM19.0766 184.014L19.0766 181.203L20.4903 181.203L20.4903 184.014L19.0766 184.014ZM19.0766 178.409L19.0766 175.598L20.4903 175.598L20.4903 178.409L19.0766 178.409ZM19.0766 172.804L19.0766 169.993L20.4903 169.993L20.4903 172.804L19.0766 172.804ZM19.0766 167.182L19.0766 164.388L20.4903 164.388L20.4903 167.182L19.0766 167.182ZM19.0766 161.578L19.0766 158.767L20.4903 158.767L20.4903 161.578L19.0766 161.578ZM19.0766 155.973L19.0766 153.162L20.4903 153.162L20.4903 155.906L19.0766 155.973ZM19.0766 150.368L19.0766 147.59L20.4903 147.59L20.4903 150.401L19.0766 150.368ZM19.0766 144.746L19.0766 141.952L20.4903 141.952L20.4903 144.746L19.0766 144.746ZM19.0766 139.141L19.0766 138.859C19.0766 138.01 19.0766 137.195 19.0766 136.297L20.4903 136.297C20.4903 137.112 20.4903 137.961 20.4903 138.775L20.4903 139.058L19.0766 139.141ZM19.3759 198.101L20.773 197.951C20.8728 198.866 20.9892 199.78 21.1555 200.679L19.7585 200.911C19.6088 199.997 19.4757 199.049 19.3759 198.101ZM19.3759 133.47C19.4924 132.522 19.6088 131.574 19.7751 130.659L21.1555 130.892C21.0058 131.79 20.8728 132.705 20.773 133.62L19.3759 133.47ZM20.3239 203.706L21.6877 203.39C21.8873 204.288 22.1202 205.186 22.3863 206.067L21.0391 206.466C20.773 205.552 20.5402 204.62 20.3239 203.706ZM20.324 127.865C20.5402 126.95 20.7896 126.036 21.0557 125.121L22.4029 125.503C22.1368 126.402 21.904 127.3 21.7044 128.181L20.324 127.865ZM21.9871 209.161L23.301 208.695C23.617 209.56 23.9496 210.358 24.3155 211.256L23.0183 211.805C22.5858 210.94 22.2366 210.059 21.9206 209.127L21.9871 209.161ZM21.9871 122.41C22.3031 121.512 22.6524 120.614 23.0183 119.749L24.3155 120.314C23.9496 121.146 23.617 121.977 23.301 122.876L21.9871 122.41ZM24.1991 214.383L25.4465 213.768C25.8623 214.583 26.2947 215.431 26.7438 216.196L25.5297 216.894C24.9476 216.08 24.565 215.231 24.1492 214.383L24.1991 214.383ZM24.1991 117.171C24.6316 116.323 25.0806 115.508 25.5463 114.66L26.7604 115.358C26.3113 116.156 25.8623 117.021 25.4631 117.803L24.1991 117.171ZM26.9932 219.323L28.1741 218.558C28.673 219.323 29.2053 220.088 29.8373 220.82L28.7063 221.651C28.0244 220.886 27.4756 220.104 26.96 219.323L26.9932 219.323ZM26.9932 112.231C27.5088 111.45 28.0577 110.668 28.6564 109.903L29.7707 110.734C29.2219 111.466 28.6897 112.231 28.1907 112.996L26.9932 112.231ZM30.3196 223.896L31.4006 222.998C31.9828 223.697 32.5981 224.395 33.2301 225.061L32.2156 226.025C31.6002 225.327 30.9516 224.612 30.3362 223.896L30.3196 223.896ZM30.3196 107.658C30.935 106.942 31.567 106.227 32.2156 105.529L33.2301 106.493C32.6147 107.159 31.9994 107.857 31.4006 108.556L30.3196 107.658ZM34.1615 228.038L35.1261 227.023C35.7914 227.655 36.4733 228.271 37.1885 228.869L36.2737 229.934C35.6251 229.318 34.9266 228.686 34.228 228.038L34.1615 228.038ZM34.1615 103.516C34.8434 102.868 35.5586 102.236 36.2737 101.62L37.1718 102.701C36.4733 103.283 35.7914 103.899 35.1261 104.531L34.1615 103.516ZM38.4358 231.713L39.284 230.582C40.0158 231.148 40.7809 231.68 41.546 232.245L40.7643 233.426C40.1156 232.828 39.3339 232.279 38.5689 231.713L38.4358 231.713ZM38.4358 99.8574C39.1843 99.2919 39.9659 98.7431 40.7643 98.1942L41.5293 99.3584C40.7643 99.8574 39.9992 100.39 39.2674 100.938L38.4358 99.8574ZM43.2424 234.857L43.9575 233.643C44.7392 234.108 45.6207 234.557 46.3858 234.956L45.7538 236.22C44.9055 235.738 44.1239 235.322 43.2424 234.857ZM43.2424 96.714C44.0518 96.2483 44.8834 95.7993 45.7371 95.3668L46.3692 96.6142C45.5542 97.03 44.706 97.479 43.9409 97.9281L43.2424 96.714ZM48.2319 237.435L48.7974 236.137C49.6289 236.503 50.4605 236.852 51.3587 237.168L50.8763 238.482C50.1612 238.166 49.2631 237.8 48.3982 237.401L48.2319 237.435ZM48.2319 94.1693C49.0967 93.7868 49.9782 93.4375 50.8597 93.1215L51.5582 94.3689C50.6934 94.6849 49.8951 95.0176 48.997 95.3835L48.2319 94.1693ZM53.5374 239.38L53.9365 238.033C54.818 238.299 55.7161 238.549 56.5976 238.765L56.2816 240.129C55.5831 239.896 54.6517 239.663 53.7536 239.38L53.5374 239.38ZM53.5374 92.2234C54.4355 91.9407 55.3669 91.6912 56.2816 91.475L56.5976 92.8388C55.7162 93.055 54.818 93.2879 53.9365 93.554L53.5374 92.2234ZM59.0259 240.694L59.2753 239.314C60.1734 239.48 61.1048 239.613 62.0029 239.713L61.8366 241.11C61.1547 240.994 60.2067 240.861 59.2753 240.728L59.0259 240.694ZM59.0259 90.9095C59.9572 90.7432 60.9052 90.6102 61.8532 90.4937L62.0029 91.8908C61.0882 92.0072 60.1734 92.1403 59.2753 92.29L59.0259 90.9095ZM64.8636 241.36L64.9467 239.946C65.8615 239.946 66.7762 240.029 67.7076 240.029L67.7076 241.426C66.8261 241.426 65.8615 241.41 64.8636 241.36ZM64.8636 90.2609C65.7949 90.2609 66.743 90.1777 67.6743 90.1777L67.6743 91.5748C66.7263 91.5748 65.8116 91.5748 64.9135 91.658L64.8636 90.2609ZM70.4684 91.658L70.4684 90.2609C71.3998 90.2609 72.3645 90.3939 73.2958 90.5104L73.1295 91.9074C72.3312 91.7855 71.4774 91.7023 70.5682 91.658L70.4684 91.658ZM75.9569 92.3066L76.1897 90.9262C77.1211 91.0925 78.0525 91.2754 78.9839 91.4916L78.6512 92.8554C77.8529 92.7057 76.9548 92.4563 76.0567 92.3066L75.9569 92.3066ZM81.3123 93.5872L81.7281 92.2401C82.6262 92.5062 83.5409 92.8222 84.4224 93.1382L83.9401 94.4521C83.1584 94.1361 82.3102 93.8533 81.4121 93.5872L81.3123 93.5872ZM86.518 95.4832L87.0669 94.2026C87.9483 94.5851 88.8132 94.9843 89.6448 95.4167L89.0128 96.6641C88.2976 96.2483 87.466 95.8491 86.6178 95.4832L86.518 95.4832ZM91.5075 97.978L92.2227 96.7639C93.0376 97.2462 93.8858 97.7452 94.6343 98.2774L93.8526 99.4416C93.1374 98.9426 92.3391 98.4437 91.4743 97.978L91.5075 97.978ZM96.1145 101.038L96.9627 99.9239C97.7111 100.489 98.4596 101.088 99.1747 101.703L98.2766 102.768C97.6113 102.169 96.8795 101.604 96.1478 101.022L96.1145 101.038ZM100.339 104.614L101.304 103.6C101.985 104.248 102.651 104.93 103.299 105.612L102.285 106.577C101.686 105.895 101.021 105.246 100.372 104.614L100.339 104.614ZM104.098 108.639L105.179 107.741C105.794 108.473 106.376 109.238 106.942 109.986L105.811 110.818C105.295 110.086 104.78 109.337 104.131 108.639L104.098 108.639ZM107.424 113.08L108.605 112.314C109.12 113.113 109.619 113.978 110.085 114.743L108.871 115.441C108.405 114.643 107.923 113.861 107.407 113.08L107.424 113.08ZM110.168 117.869L111.416 117.254C111.848 118.102 112.247 118.917 112.613 119.832L111.316 120.381C110.95 119.533 110.551 118.701 110.152 117.869L110.168 117.869ZM112.33 122.942L113.644 122.476C113.96 123.375 114.26 124.289 114.526 125.187L113.179 125.57L112.33 122.942ZM113.877 128.248L115.241 127.932C115.452 128.863 115.635 129.794 115.79 130.726L114.409 130.959C114.243 130.06 114.06 129.146 113.86 128.248L113.877 128.248ZM114.792 133.686L116.189 133.537C116.289 134.485 116.355 135.433 116.405 136.381L115.008 136.381C114.942 135.532 114.875 134.601 114.759 133.686L114.792 133.686ZM115.075 231.813L115.075 229.002L116.422 229.002L116.422 231.813L115.075 231.813ZM115.075 226.208L115.075 223.397L116.422 223.397L116.422 226.208L115.075 226.208ZM115.075 220.603L115.075 217.793L116.422 217.793L116.422 220.603L115.075 220.603ZM115.075 214.982L115.075 212.188L116.422 212.188L116.422 214.982L115.075 214.982ZM115.075 209.377L115.075 206.566L116.422 206.566L116.422 209.377L115.075 209.377ZM115.075 203.772L115.075 200.961L116.422 200.961L116.422 203.772L115.075 203.772ZM115.075 198.167L115.075 195.356L116.422 195.356L116.422 198.167L115.075 198.167ZM115.075 192.546L115.075 189.752L116.422 189.752L116.422 192.496L115.075 192.546ZM115.075 186.941L115.075 184.13L116.422 184.13L116.422 186.941L115.075 186.941ZM115.075 181.336L115.075 178.525L116.422 178.525L116.422 181.336L115.075 181.336ZM115.075 175.731L115.075 172.87L116.422 172.87L116.422 175.681L115.075 175.731ZM115.075 170.11L115.075 167.315L116.422 167.315L116.422 170.11L115.075 170.11ZM115.075 164.505L115.075 161.694L116.422 161.694L116.422 164.505L115.075 164.505ZM115.075 158.9L115.075 156.089L116.422 156.089L116.422 158.9L115.075 158.9ZM115.075 153.295L115.075 150.484L116.422 150.484L116.422 153.295L115.075 153.295ZM115.075 147.673L115.075 144.879L116.422 144.879L116.422 147.59L115.075 147.673ZM115.075 142.069L115.075 139.274L116.422 139.274L116.422 142.085L115.075 142.069ZM115.075 234.624L116.422 234.624L116.422 237.418L115.008 237.418L115.075 234.624ZM115.075 240.262L116.488 240.262L116.488 240.728L115.091 240.728L115.075 240.262Z" fill="#F85459"/>
<path d="M67.7744 241.426L67.7744 240.028L235.588 240.028C255.799 240.028 275.183 232 289.474 217.708C303.765 203.417 311.794 184.033 311.794 163.822C311.794 143.611 303.765 124.228 289.474 109.936C275.183 95.6447 255.799 87.6158 235.588 87.6158L235.588 86.2187C256.17 86.2187 275.908 94.3948 290.462 108.948C305.015 123.502 313.191 143.24 313.191 163.822C313.191 184.404 305.015 204.143 290.462 218.696C275.908 233.249 256.17 241.426 235.588 241.426L67.7744 241.426Z" fill="#F85459"/>
<path d="M148.255 44.4731C148.255 43.5085 148.255 42.5605 148.388 41.6291L149.785 41.7289C149.785 42.627 149.669 43.5584 149.669 44.4898L148.255 44.4731ZM148.255 47.3338L149.669 47.3338C149.669 48.2485 149.802 49.1633 149.902 50.078L148.521 50.2443C148.471 49.2132 148.388 48.2485 148.322 47.3171L148.255 47.3338ZM148.621 38.7851C148.754 37.8537 148.92 36.9057 149.12 35.9743L150.5 36.2571C150.301 37.1718 150.135 38.0866 150.018 38.9847L148.621 38.7851ZM148.954 52.9885L150.334 52.7224C150.5 53.6206 150.717 54.5187 150.95 55.4168L149.586 55.766C149.419 54.8347 149.203 53.9033 149.02 52.9719L148.954 52.9885ZM149.819 33.1969C150.068 32.2821 150.367 31.3674 150.683 30.4859L151.997 30.9516C151.698 31.8164 151.415 32.6147 151.166 33.5794L149.819 33.1969ZM150.401 58.5103L151.731 58.0612C152.031 58.9261 152.363 59.8075 152.712 60.6557L151.415 61.188C151.116 60.2899 150.783 59.4416 150.467 58.4936L150.401 58.5103ZM151.731 27.8248C152.114 26.96 152.53 26.1617 152.962 25.2635L154.209 25.8956C153.777 26.7161 153.378 27.5476 153.012 28.3903L151.731 27.8248ZM152.596 63.7991L153.843 63.1671C154.243 63.9821 154.692 64.8303 155.157 65.612L153.943 66.3105C153.527 65.4623 153.012 64.6141 152.663 63.7825L152.596 63.7991ZM154.359 22.7688C154.858 21.9538 155.374 21.1056 155.906 20.3738L157.07 21.1888C156.538 21.9206 156.039 22.7023 155.556 23.5006L154.359 22.7688ZM155.457 68.7387L156.621 67.957C157.136 68.7055 157.669 69.4705 158.284 70.1857L157.186 71.0505C156.621 70.2855 156.055 69.5038 155.523 68.7221L155.457 68.7387ZM157.635 18.0953C158.218 17.3635 158.85 16.6317 159.498 15.9332L160.529 16.8812C159.897 17.5631 159.299 18.2616 158.716 18.9768L157.635 18.0953ZM158.949 73.2459L159.997 72.3146C160.613 72.9965 161.245 73.6784 161.893 74.3104L160.912 75.3249C160.313 74.643 159.665 73.9444 159.016 73.2293L158.949 73.2459ZM161.494 13.9041C162.176 13.2555 162.891 12.6069 163.623 12.0081L164.521 13.0892C163.822 13.6713 163.124 14.2867 162.459 14.9187L161.494 13.9041ZM162.991 77.2375L163.906 76.1731C164.604 76.7718 165.336 77.3539 166.068 77.8363L165.219 78.9672C164.538 78.4683 163.806 77.8529 162.991 77.2375ZM165.868 10.2285C166.633 9.67968 167.431 9.13084 168.23 8.56536L168.978 9.76283C168.213 10.2451 167.432 10.7607 166.683 11.3096L165.868 10.2285ZM167.531 80.6636L168.296 79.4994C169.061 79.9984 169.86 80.4807 170.658 80.9298L169.976 82.1605C169.211 81.6837 168.429 81.1848 167.631 80.6636L167.531 80.6636ZM170.691 7.20155C171.523 6.75249 172.354 6.32008 173.253 5.93755L173.835 7.20155C172.986 7.58408 172.172 7.99988 171.357 8.4323L170.691 7.20155ZM172.504 83.4744L173.103 82.1938C173.934 82.5929 174.766 82.9755 175.631 83.3081L175.115 84.6054C174.334 84.2561 173.452 83.8736 172.604 83.4744L172.504 83.4744ZM175.831 4.83986C176.712 4.50722 177.627 4.19123 178.525 3.92512L178.941 5.27228C178.059 5.52176 177.178 5.82113 176.313 6.15376L175.831 4.83986ZM177.959 85.57L178.375 84.2395C179.257 84.5222 180.155 84.7717 181.036 85.0045L180.704 86.3517C179.739 86.1355 178.808 85.8694 177.959 85.57ZM181.452 3.19332C182.383 2.97711 183.331 2.79416 184.263 2.66111L184.479 4.04154C183.581 4.1746 182.666 4.35754 181.768 4.55712L181.452 3.19332ZM183.448 86.9504L183.681 85.57C184.579 85.7363 185.51 85.8694 186.425 85.9692L186.259 87.3662C185.311 87.2498 184.363 87.1167 183.448 86.9504ZM187.09 2.29521C188.038 2.29521 189.003 2.16216 189.951 2.1289L189.951 3.54259C189.036 3.54259 188.105 3.54259 187.19 3.69228L187.09 2.29521ZM189.119 87.5824L189.119 86.1854C189.735 86.1854 190.35 86.1854 190.965 86.1854L191.897 86.1854L191.897 87.5824L190.965 87.5824C190.367 87.6157 189.735 87.6157 189.119 87.5824ZM192.778 3.52595L192.778 2.1289L195.572 2.1289L195.572 3.52595L192.778 3.52595ZM194.757 87.6157L194.757 86.2186L197.568 86.2186L197.568 87.6157L194.757 87.6157ZM198.383 3.52595L198.383 2.1289L201.244 2.1289L201.244 3.52595L198.383 3.52595ZM200.379 87.6157L200.379 86.2186L203.19 86.2186L203.19 87.6157L200.379 87.6157ZM204.005 3.52595L204.005 2.1289L206.815 2.1289L206.815 3.52595L204.005 3.52595ZM206 87.6157L206 86.2186L208.811 86.2186L208.811 87.6157L206 87.6157ZM209.56 3.52595L209.56 2.1289L212.37 2.1289L212.37 3.52595L209.56 3.52595ZM211.555 87.6157L211.555 86.2186L214.366 86.2186L214.366 87.6157L211.555 87.6157ZM215.181 3.52595L215.181 2.1289L218.058 2.1289L218.058 3.52595L215.181 3.52595ZM217.177 87.6157L217.177 86.2186L220.037 86.2186L220.037 87.6157L217.177 87.6157ZM220.869 3.52595L220.869 2.1289L223.68 2.1289L223.68 3.52595L220.869 3.52595ZM222.865 87.6157L222.865 86.2186L225.659 86.2186L225.659 87.6157L222.865 87.6157ZM226.491 3.52595L226.491 2.1289L229.301 2.1289L229.301 3.52595L226.491 3.52595ZM228.47 87.6157L228.47 86.2186L231.28 86.2186L231.28 87.6157L228.47 87.6157ZM232.095 3.52595L232.095 2.1289L234.906 2.1289L234.906 3.52595L232.095 3.52595ZM237.717 3.52595L237.717 2.1289L240.528 2.1289L240.528 3.52596L237.717 3.52595ZM243.338 3.52596L243.338 2.1289L246.149 2.1289L246.149 3.52596L243.338 3.52596ZM248.96 3.52596L248.96 2.1289L251.771 2.1289L251.771 3.52596L248.96 3.52596ZM254.581 3.52596L254.581 2.1289L257.392 2.1289L257.392 3.52596L254.581 3.52596ZM260.203 3.52596L260.203 2.1289L263.014 2.1289L263.014 3.52596L260.203 3.52596ZM265.824 3.52596L265.824 2.1289L268.619 2.1289L268.619 3.52596L265.824 3.52596ZM271.429 3.52596L271.429 2.1289L274.24 2.1289L274.24 3.52596L271.429 3.52596ZM277.051 3.52596L277.051 2.1289L279.862 2.1289L279.862 3.52596L277.051 3.52596ZM282.672 3.52596L282.672 2.1289L285.483 2.1289L285.483 3.52596L282.672 3.52596ZM288.294 3.52596L288.294 2.1289L291.055 2.1289L291.055 3.52596L288.294 3.52596ZM293.915 3.52596L293.915 2.1289L296.726 2.1289L296.726 3.52596L293.915 3.52596ZM299.537 3.52596L299.537 2.1289L302.348 2.1289L302.348 3.52596L299.537 3.52596ZM305.142 3.52596L305.142 2.1289L307.953 2.1289L307.953 3.52596L305.142 3.52596ZM310.763 3.52596L310.763 2.1289L313.574 2.1289L313.574 3.52596L310.763 3.52596ZM316.385 3.52596L316.385 2.1289L319.196 2.1289L319.196 3.52596L316.385 3.52596ZM322.006 3.52596L322.006 2.1289L324.817 2.1289L324.817 3.52596L322.006 3.52596ZM327.628 3.52596L327.628 2.1289L330.439 2.1289L330.439 3.52596L327.628 3.52596ZM333.249 3.52596L333.249 2.1289L336.06 2.1289L336.06 3.52596L333.249 3.52596ZM338.854 3.52596L338.854 2.1289L341.665 2.12891L341.665 3.52596L338.854 3.52596ZM344.476 3.52596L344.476 2.12891L347.286 2.12891L347.286 3.52596L344.476 3.52596ZM350.097 3.52596L350.097 2.12891L352.908 2.12891L352.908 3.52596L350.097 3.52596ZM355.719 3.52596L355.719 2.12891L358.529 2.12891L358.529 3.52596L355.719 3.52596ZM361.34 3.52596L361.34 2.12891L364.151 2.12891L364.151 3.52596L361.34 3.52596ZM366.962 3.52596L366.962 2.12891L369.772 2.12891L369.772 3.52596L366.962 3.52596Z" fill="#F85459"/>
<path d="M235.588 87.6158L235.588 86.2188L234.191 86.2187L234.191 87.6158L235.588 87.6158Z" fill="#F85459"/>
<path d="M193.577 258.456L193.577 257.042L196.387 257.042L196.387 258.456L193.577 258.456ZM199.198 258.456L199.198 257.042L201.992 257.042L201.992 258.456L199.198 258.456ZM204.803 258.456L204.803 257.042L207.614 257.042L207.614 258.456L204.803 258.456ZM210.408 258.456L210.408 257.042L213.219 257.042L213.219 258.456L210.408 258.456ZM216.013 258.456L216.013 257.042L218.824 257.042L218.824 258.456L216.013 258.456ZM221.634 258.456L221.634 257.042L224.428 257.042L224.428 258.456L221.634 258.456ZM227.239 258.456L227.239 257.042L230.05 257.042L230.05 258.456L227.239 258.456ZM232.844 258.456L232.844 257.042L235.655 257.042L235.655 258.456L232.844 258.456ZM238.449 258.456L238.449 257.042L241.26 257.042L241.26 258.456L238.449 258.456ZM244.07 258.456L244.07 257.042L246.865 257.042L246.865 258.456L244.07 258.456ZM249.675 258.456L249.675 257.042L252.486 257.042L252.486 258.456L249.675 258.456ZM255.28 258.456L255.28 257.042L258.091 257.042L258.091 258.456L255.28 258.456ZM260.885 258.456L260.885 257.042L263.696 257.042L263.696 258.456L260.885 258.456ZM266.507 258.456L266.507 257.042L269.301 257.042L269.301 258.456L266.507 258.456ZM272.111 258.456L272.111 257.042L274.922 257.042L274.922 258.456L272.111 258.456ZM277.716 258.456L277.716 257.042L280.527 257.042L280.527 258.456L277.716 258.456ZM283.321 258.456L283.321 257.042L286.065 257.042L286.065 258.456L283.321 258.456ZM288.943 258.456L288.943 257.042L291.737 257.042L291.737 258.456L288.943 258.456ZM294.548 258.456L294.548 257.042L297.358 257.042L297.358 258.456L294.548 258.456ZM300.152 258.456L300.152 257.042L302.963 257.042L302.963 258.456L300.152 258.456ZM305.757 258.456L305.757 257.042L308.568 257.042L308.568 258.456L305.757 258.456ZM311.379 258.456L311.379 257.042L314.173 257.042L314.173 258.456L311.379 258.456ZM316.984 258.456L316.984 257.042L319.778 257.042L319.778 258.456L316.984 258.456ZM322.589 258.456L322.589 257.042L325.399 257.042L325.399 258.456L322.589 258.456ZM328.193 258.456L328.193 257.042L330.971 257.042L330.971 258.456L328.193 258.456ZM333.815 258.456L333.815 257.042L336.609 257.042L336.609 258.456L333.815 258.456ZM339.42 258.456L339.42 257.042L342.231 257.042L342.231 258.456L339.42 258.456ZM345.025 258.456L345.025 257.042L347.835 257.042L347.835 258.456L345.025 258.456ZM350.63 258.456L350.63 257.042L353.44 257.042L353.44 258.456L350.63 258.456ZM356.251 258.456L356.251 257.042L359.045 257.042L359.045 258.456L356.251 258.456ZM361.856 258.456L361.856 257.042L364.65 257.042L364.65 258.456L361.856 258.456ZM367.461 258.456L367.461 257.042L370.272 257.042L370.272 258.456L367.461 258.456ZM373.066 258.456L373.066 257.042L375.876 257.042L375.876 258.456L373.066 258.456ZM378.687 258.456L378.687 257.042L381.481 257.042L381.481 258.456L378.687 258.456ZM384.292 258.456L384.292 257.042L387.103 257.042L387.103 258.456L384.292 258.456ZM389.897 258.456L389.897 257.042L392.708 257.042L392.708 258.456L389.897 258.456ZM395.502 258.456L395.502 257.042L398.313 257.042L398.313 258.456L395.502 258.456ZM401.123 258.456L401.123 257.042L403.917 257.042L403.917 258.456L401.123 258.456ZM406.728 258.456L406.728 257.042L409.522 257.042L409.522 258.456L406.728 258.456ZM412.333 258.456L412.333 257.042L415.144 257.042L415.144 258.456L412.333 258.456ZM417.938 258.456L417.938 257.042L420.782 257.042L420.782 258.456L417.938 258.456ZM423.559 258.456L423.559 257.042L426.354 257.042L426.354 258.456L423.559 258.456ZM429.164 258.456L429.164 257.042L431.975 257.042L431.975 258.456L429.164 258.456ZM434.769 258.456L434.769 257.042L437.58 257.042L437.58 258.456L434.769 258.456ZM440.374 258.456L440.374 257.042L443.185 257.042L443.185 258.456L440.374 258.456ZM445.996 258.456L445.996 257.042L448.79 257.042L448.79 258.456L445.996 258.456ZM451.6 258.456L451.6 257.042L454.395 257.042L454.395 258.456L451.6 258.456ZM457.205 258.456L457.205 257.042L460.016 257.042L460.016 258.456L457.205 258.456ZM462.81 258.456L462.81 257.042L465.688 257.042L465.687 258.456L462.81 258.456Z" fill="#F85459"/>
<path d="M2.83679e-05 306.222C0.00884826 299.129 2.83157 292.329 7.84869 287.315C12.8658 282.301 19.6673 279.482 26.7604 279.478L103.599 279.478L103.599 280.875L26.7604 280.875C20.1483 281.045 13.8639 283.79 9.24711 288.527C4.63035 293.263 2.04654 299.616 2.04654 306.23C2.04654 312.844 4.63035 319.197 9.24711 323.934C13.8639 328.67 20.1483 331.416 26.7604 331.585L141.519 331.585C148.243 331.576 154.689 328.901 159.444 324.147C164.198 319.392 166.873 312.946 166.882 306.222L166.882 283.802C166.887 276.709 169.705 269.908 174.719 264.891C179.733 259.874 186.533 257.051 193.626 257.042L193.626 258.456C186.906 258.464 180.464 261.138 175.713 265.889C170.961 270.641 168.288 277.083 168.279 283.802L168.279 306.222C168.27 313.316 165.448 320.118 160.432 325.135C155.415 330.151 148.614 332.973 141.519 332.982L26.7604 332.982C19.6658 332.973 12.8643 330.151 7.84767 325.135C2.83104 320.118 0.00883238 313.316 2.83679e-05 306.222Z" fill="#F85459"/>
<path d="M198.499 387.966C198.499 391.099 201.038 393.638 204.17 393.638C207.303 393.638 209.842 391.099 209.842 387.966C209.842 384.834 207.303 382.295 204.17 382.295C201.038 382.295 198.499 384.834 198.499 387.966Z" fill="#F85459"/>
<path d="M237.151 466.918C236.079 466.918 235.031 466.6 234.139 466.004C233.247 465.409 232.552 464.562 232.142 463.571C231.732 462.58 231.624 461.49 231.834 460.438C232.043 459.387 232.559 458.421 233.317 457.662C234.076 456.904 235.042 456.388 236.094 456.178C237.145 455.969 238.235 456.077 239.226 456.487C240.217 456.897 241.064 457.592 241.659 458.484C242.255 459.376 242.573 460.424 242.573 461.496C242.573 462.208 242.433 462.913 242.161 463.571C241.888 464.229 241.489 464.827 240.985 465.33C240.482 465.834 239.884 466.233 239.226 466.505C238.568 466.778 237.863 466.918 237.151 466.918Z" fill="#F85459"/>
<path d="M237.151 554.018C236.079 554.018 235.031 553.7 234.139 553.104C233.247 552.508 232.552 551.661 232.142 550.671C231.732 549.68 231.624 548.59 231.834 547.538C232.043 546.486 232.559 545.52 233.317 544.762C234.076 544.004 235.042 543.487 236.094 543.278C237.145 543.069 238.235 543.176 239.226 543.587C240.217 543.997 241.064 544.692 241.659 545.583C242.255 546.475 242.573 547.523 242.573 548.596C242.573 549.308 242.433 550.013 242.161 550.671C241.888 551.328 241.489 551.926 240.985 552.43C240.482 552.933 239.884 553.333 239.226 553.605C238.568 553.877 237.863 554.018 237.151 554.018Z" fill="#F85459"/>
<path d="M316.235 466.219C315.406 466.219 314.596 465.973 313.907 465.513C313.217 465.052 312.68 464.398 312.363 463.632C312.046 462.866 311.963 462.023 312.124 461.21C312.286 460.397 312.685 459.651 313.271 459.064C313.858 458.478 314.604 458.079 315.417 457.917C316.23 457.756 317.073 457.839 317.839 458.156C318.605 458.473 319.259 459.01 319.72 459.7C320.18 460.389 320.426 461.199 320.426 462.028C320.426 463.14 319.985 464.206 319.199 464.992C318.413 465.778 317.347 466.219 316.235 466.219Z" fill="#F85459"/>
<path d="M209.925 332.401C209.925 334.716 211.802 336.592 214.116 336.592C216.431 336.592 218.308 334.716 218.308 332.401C218.308 330.086 216.431 328.21 214.116 328.21C211.802 328.21 209.925 330.086 209.925 332.401Z" fill="#F85459"/>
<path d="M99.3579 280.277C99.3579 282.592 101.234 284.468 103.549 284.468C105.864 284.468 107.74 282.592 107.74 280.277C107.74 277.962 105.864 276.086 103.549 276.086C101.234 276.086 99.3579 277.962 99.3579 280.277Z" fill="#F85459"/>
<path d="M191.963 257.757C191.963 260.751 194.391 263.179 197.385 263.179C200.38 263.179 202.807 260.751 202.807 257.757C202.807 254.762 200.38 252.335 197.385 252.335C194.391 252.335 191.963 254.762 191.963 257.757Z" fill="#F85459"/>
<path d="M115.574 247.38C114.258 247.38 112.972 246.989 111.878 246.258C110.784 245.527 109.931 244.488 109.428 243.273C108.924 242.057 108.792 240.72 109.049 239.429C109.306 238.139 109.939 236.953 110.87 236.023C111.8 235.092 112.986 234.459 114.276 234.202C115.567 233.945 116.904 234.077 118.12 234.581C119.335 235.084 120.374 235.937 121.105 237.031C121.836 238.125 122.227 239.411 122.227 240.727C122.227 242.491 121.526 244.183 120.278 245.431C119.03 246.679 117.338 247.38 115.574 247.38Z" fill="#F85459"/>
<path d="M58.494 240.726C58.494 243.657 60.8693 246.032 63.7995 246.032C66.7296 246.032 69.105 243.657 69.105 240.726C69.105 237.796 66.7296 235.421 63.7995 235.421C60.8693 235.421 58.494 237.796 58.494 240.726Z" fill="#F85459"/>
<path d="M232.844 92.339C231.772 92.339 230.724 92.021 229.832 91.4252C228.94 90.8294 228.245 89.9826 227.835 88.9919C227.425 88.0012 227.317 86.911 227.526 85.8593C227.736 84.8075 228.252 83.8414 229.01 83.0832C229.769 82.3249 230.735 81.8085 231.786 81.5993C232.838 81.3901 233.928 81.4975 234.919 81.9078C235.91 82.3182 236.757 83.0132 237.352 83.9048C237.948 84.7964 238.266 85.8447 238.266 86.917C238.266 88.355 237.695 89.7341 236.678 90.7509C235.661 91.7677 234.282 92.339 232.844 92.339Z" fill="#F85459"/>
</g>
</svg>
