<svg width="46" height="46" viewBox="0 0 46 46" fill="none" xmlns="http://www.w3.org/2000/svg">
<path fill-rule="evenodd" clip-rule="evenodd" d="M23 45.5C25.9547 45.5 28.8806 44.918 31.6104 43.7873C34.3402 42.6566 36.8206 40.9992 38.9099 38.9099C40.9992 36.8206 42.6566 34.3402 43.7873 31.6104C44.918 28.8806 45.5 25.9547 45.5 23C45.5 20.0453 44.918 17.1194 43.7873 14.3896C42.6566 11.6598 40.9992 9.17941 38.9099 7.0901C36.8206 5.00078 34.3402 3.34344 31.6104 2.21271C28.8806 1.08198 25.9547 0.5 23 0.5C17.0326 0.5 11.3097 2.87053 7.0901 7.0901C2.87053 11.3097 0.5 17.0326 0.5 23C0.5 28.9674 2.87053 34.6903 7.0901 38.9099C11.3097 43.1295 17.0326 45.5 23 45.5ZM22.42 32.1L34.92 17.1L31.08 13.9L20.33 26.7975L14.7675 21.2325L11.2325 24.7675L18.7325 32.2675L20.6675 34.2025L22.42 32.1Z" fill="#5EB761"/>
</svg>
