<svg width="24" height="22" viewBox="0 0 24 22" fill="none" xmlns="http://www.w3.org/2000/svg">
<path d="M21.7256 2C21.876 2.00022 21.9998 2.12183 22 2.26953V16.4141C22 16.5619 21.8761 16.6844 21.7256 16.6846H2.27441C2.12389 16.6844 2 16.5619 2 16.4141V2.26953C2.00017 2.12183 2.12399 2.00022 2.27441 2H21.7256ZM2.5498 16.1445H21.4502V2.54004H2.5498V16.1445Z" fill="#5E2AF8"/>
<path d="M21.7256 2C21.876 2.00022 21.9998 2.12183 22 2.26953V16.4141C22 16.5619 21.8761 16.6844 21.7256 16.6846H2.27441C2.12389 16.6844 2 16.5619 2 16.4141V2.26953C2.00017 2.12183 2.12399 2.00022 2.27441 2H21.7256ZM2.5498 16.1445H21.4502V2.54004H2.5498V16.1445Z" stroke="#5E2AF8"/>
<path d="M9.49121 16.1367C9.64182 16.1367 9.76643 16.2584 9.7666 16.4062V19.4795C9.76642 19.6273 9.64181 19.749 9.49121 19.749C9.3408 19.7488 9.21698 19.6272 9.2168 19.4795V16.4062C9.21697 16.2585 9.34079 16.1369 9.49121 16.1367Z" fill="#5E2AF8"/>
<path d="M9.49121 16.1367C9.64182 16.1367 9.76643 16.2584 9.7666 16.4062V19.4795C9.76642 19.6273 9.64181 19.749 9.49121 19.749C9.3408 19.7488 9.21698 19.6272 9.2168 19.4795V16.4062C9.21697 16.2585 9.34079 16.1369 9.49121 16.1367Z" stroke="#5E2AF8"/>
<path d="M14.5166 16.1367C14.6672 16.1367 14.7918 16.2584 14.792 16.4062V19.4795C14.7918 19.6273 14.6672 19.749 14.5166 19.749C14.3662 19.7488 14.2424 19.6272 14.2422 19.4795V16.4062C14.2424 16.2585 14.3662 16.1369 14.5166 16.1367Z" fill="#5E2AF8"/>
<path d="M14.5166 16.1367C14.6672 16.1367 14.7918 16.2584 14.792 16.4062V19.4795C14.7918 19.6273 14.6672 19.749 14.5166 19.749C14.3662 19.7488 14.2424 19.6272 14.2422 19.4795V16.4062C14.2424 16.2585 14.3662 16.1369 14.5166 16.1367Z" stroke="#5E2AF8"/>
<path d="M21.4326 13.6719C21.5832 13.6719 21.7069 13.7936 21.707 13.9414C21.707 14.0894 21.5833 14.2119 21.4326 14.2119H2.27441C2.12389 14.2117 2 14.0892 2 13.9414C2.00017 13.7937 2.12399 13.6721 2.27441 13.6719H21.4326Z" fill="#5E2AF8"/>
<path d="M21.4326 13.6719C21.5832 13.6719 21.7069 13.7936 21.707 13.9414C21.707 14.0894 21.5833 14.2119 21.4326 14.2119H2.27441C2.12389 14.2117 2 14.0892 2 13.9414C2.00017 13.7937 2.12399 13.6721 2.27441 13.6719H21.4326Z" stroke="#5E2AF8"/>
<path d="M16.8857 19.4609C17.0363 19.4611 17.16 19.5827 17.1602 19.7305C17.1602 19.8784 17.0364 20.0009 16.8857 20.001H7.07129C6.92076 20.0008 6.79688 19.8783 6.79688 19.7305C6.79704 19.5828 6.92087 19.4612 7.07129 19.4609H16.8857Z" fill="#5E2AF8"/>
<path d="M16.8857 19.4609C17.0363 19.4611 17.16 19.5827 17.1602 19.7305C17.1602 19.8784 17.0364 20.0009 16.8857 20.001H7.07129C6.92076 20.0008 6.79688 19.8783 6.79688 19.7305C6.79704 19.5828 6.92087 19.4612 7.07129 19.4609H16.8857Z" stroke="#5E2AF8"/>
</svg>
