<svg width="20" height="20" viewBox="0 0 20 20" fill="none" xmlns="http://www.w3.org/2000/svg">
<g clip-path="url(#clip0_437_4537)">
<path d="M15.8763 9.20506C15.4014 9.20506 14.8665 9.14757 14.3041 8.98426L14.2708 9.01759C14.1083 9.1809 13.845 9.1809 13.6817 9.01842C13.5184 8.85595 13.5184 8.59266 13.6809 8.42935L13.8933 8.21606C14.0058 8.10274 14.1733 8.06441 14.3241 8.11607C15.7888 8.62016 17.1136 8.23272 17.4177 8.13024C18.9333 6.72131 19.1766 4.98826 19.1691 3.9776L17.057 6.08974C16.9786 6.16806 16.8728 6.21139 16.762 6.21139C16.7145 6.21139 15.588 6.20139 14.6932 5.30571C13.7983 4.41169 13.7875 3.28521 13.7875 3.23772C13.7875 3.1269 13.8317 3.02109 13.9092 2.94277L16.0213 0.830621C15.0098 0.823122 13.2776 1.06641 11.8687 2.58116C11.767 2.88361 11.3854 4.20589 11.8837 5.68648C11.9336 5.83645 11.8953 6.00143 11.7837 6.11307L10.6164 7.28621C10.4539 7.44952 10.1906 7.45035 10.0273 7.28788C9.86399 7.1254 9.86316 6.86212 10.0256 6.69881L11.0163 5.70314C10.4822 3.83095 11.0905 2.27455 11.118 2.20622C11.1363 2.1604 11.1629 2.11874 11.1954 2.08208C13.6109 -0.586643 16.892 0.0599156 17.0303 0.0890775C17.1803 0.120739 17.3011 0.231554 17.3444 0.378196C17.3877 0.524838 17.3477 0.683978 17.2394 0.792294L14.6349 3.39686C14.6724 3.66931 14.8073 4.24422 15.2814 4.71831C15.7555 5.19239 16.3296 5.32737 16.6029 5.36486L19.2074 2.7603C19.3158 2.65198 19.4741 2.61199 19.6215 2.65532C19.7682 2.69948 19.879 2.81946 19.9107 2.96943C19.9398 3.10774 20.5872 6.38886 17.9168 8.80346C17.8802 8.83595 17.8385 8.86261 17.7935 8.88095C17.746 8.90011 16.9711 9.20506 15.8772 9.20589L15.8763 9.20506Z" fill="#5E2AF8"/>
<path d="M2.31711 19.9993C1.03983 19.9993 0 18.9603 0 17.6839C0 17.0606 0.249125 16.4599 0.684053 16.035L6.67805 10.0476C6.84053 9.88516 7.10465 9.88516 7.26712 10.0476C7.4296 10.2101 7.4296 10.4742 7.26712 10.6367L1.26979 16.6274C0.991502 16.899 0.834028 17.2831 0.834028 17.683C0.834028 18.5004 1.49975 19.1653 2.31711 19.1653C2.71621 19.1653 3.09948 19.0078 3.36777 18.7329L8.33528 13.772C8.49775 13.6095 8.76187 13.6095 8.92435 13.772C9.08682 13.9345 9.08682 14.1986 8.92435 14.3611L3.96017 19.3178C3.53941 19.7485 2.93951 19.9976 2.31711 19.9976V19.9993Z" fill="#5E2AF8"/>
<path d="M2.08291 4.1732C1.94377 4.1732 1.81379 4.10322 1.73631 3.9874L0.0699164 1.48782C-0.0400652 1.32285 -0.0184021 1.10288 0.121575 0.962073L0.955602 0.128046C1.09641 -0.0127643 1.31638 -0.0344274 1.48135 0.0763875L3.9801 1.74361C4.09591 1.8211 4.1659 1.95107 4.1659 2.09022V3.75494C4.1659 3.9849 3.97926 4.17154 3.7493 4.17154L2.08291 4.1732ZM0.952269 1.30952L2.30538 3.33918H3.33271V2.31268L1.30388 0.95874L0.953102 1.30952H0.952269Z" fill="#5E2AF8"/>
<path d="M9.58037 10.0037C9.47372 10.0037 9.36707 9.96283 9.28541 9.88201L3.45389 4.04881C3.29141 3.88634 3.29141 3.62222 3.45389 3.45975C3.61636 3.29727 3.88048 3.29727 4.04295 3.45975L9.87448 9.29211C10.037 9.45458 10.037 9.7187 9.87448 9.88117C9.79283 9.96283 9.68618 10.0028 9.57953 10.0028L9.58037 10.0037Z" fill="#5E2AF8"/>
<path d="M9.16485 11.2529C9.0582 11.2529 8.95155 11.212 8.8699 11.1312C8.70743 10.9687 8.70743 10.7046 8.8699 10.5421L10.5363 8.87576C10.6988 8.71329 10.9629 8.71329 11.1254 8.87576C11.2878 9.03823 11.2878 9.30236 11.1254 9.46483L9.45897 11.1312C9.37732 11.2129 9.27067 11.2529 9.16402 11.2529H9.16485Z" fill="#5E2AF8"/>
<path d="M17.4963 19.9994C16.7606 19.9994 16.0707 19.682 15.5999 19.1262C15.5941 19.1204 15.5891 19.1137 15.5832 19.1079L8.84604 11.1042C8.69773 10.9284 8.72022 10.6651 8.89686 10.5177C9.07267 10.3694 9.33596 10.3919 9.48343 10.5685L16.2065 18.5555C16.2131 18.5622 16.219 18.5688 16.2248 18.5755C16.5373 18.9513 17.0005 19.1662 17.4963 19.1662C18.4144 19.1662 19.1618 18.4189 19.1618 17.4998C19.1618 17.0058 18.946 16.5425 18.5702 16.2284C18.5594 16.2192 18.5494 16.2101 18.5394 16.2001L10.5633 9.48867C10.3874 9.34036 10.365 9.07791 10.5124 8.9021C10.6599 8.7263 10.9232 8.7038 11.099 8.85128L19.1035 15.5868C19.1143 15.596 19.1243 15.606 19.1343 15.616C19.6809 16.0884 19.9933 16.7725 19.9933 17.5007C19.9933 18.8788 18.8727 20.0003 17.4946 20.0003L17.4963 19.9994Z" fill="#5E2AF8"/>
</g>
<defs>
<clipPath id="clip0_437_4537">
<rect width="20" height="20" fill="white"/>
</clipPath>
</defs>
</svg>
