<svg width="24" height="26" viewBox="0 0 24 26" fill="none" xmlns="http://www.w3.org/2000/svg">
<g clip-path="url(#clip0_437_4518)">
<path d="M18.1298 24.8178H12.3152C12.147 24.8178 12.0098 24.6784 12.0098 24.5074C12.0098 24.3364 12.147 24.197 12.3152 24.197H18.1298C18.298 24.197 18.4352 24.3364 18.4352 24.5074C18.4352 24.6784 18.298 24.8178 18.1298 24.8178Z" fill="#622FF8"/>
<path d="M15.2195 24.5076C15.0513 24.5076 14.9141 24.3682 14.9141 24.1972V11.8924C14.9141 11.7214 15.0513 11.582 15.2195 11.582C15.3878 11.582 15.5249 11.7214 15.5249 11.8924V24.1967C15.5249 24.3677 15.3878 24.5071 15.2195 24.5071V24.5076Z" fill="#622FF8"/>
<path d="M21.9803 12.1998H8.46523C8.12456 12.1998 7.80428 12.0467 7.58737 11.7801C7.37045 11.5122 7.28239 11.1641 7.34681 10.8245L9.21285 0.938662C9.31574 0.395152 9.78573 0 10.3313 0H20.1147C20.6603 0 21.1302 0.395152 21.2331 0.938662L23.0992 10.8231C23.1641 11.1636 23.076 11.5122 22.8591 11.7787C22.6422 12.0467 22.3219 12.1998 21.9803 12.1998ZM10.3313 0.620751C10.0777 0.620751 9.85989 0.803962 9.81168 1.05688L7.94611 10.9413C7.91645 11.0986 7.95724 11.2611 8.05782 11.385C8.15932 11.5074 8.30764 11.579 8.46523 11.579H21.9803C22.1393 11.579 22.2871 11.5079 22.3877 11.3836C22.4892 11.2611 22.5295 11.0986 22.4994 10.9413L20.6334 1.05688C20.5856 0.803962 20.3673 0.620751 20.1143 0.620751H10.3313Z" fill="#622FF8"/>
</g>
<path d="M13.9618 17.7833L9.70212 17.9862L11.8382 14.9146C11.9192 14.7983 11.8712 14.6503 11.7314 14.5837C11.6379 14.5391 11.5266 14.5427 11.4391 14.5847C11.396 14.6054 11.3583 14.6356 11.332 14.6739L9.00531 18.0199L5.17223 18.2024C5.20638 17.8253 5.09855 17.4507 4.85599 17.123C4.23645 16.2862 2.92191 16.0168 1.89939 16.5085C1.88122 16.5172 1.86304 16.5259 1.84535 16.5353C1.34644 16.7909 0.996664 17.1914 0.859498 17.6637C0.722756 18.1358 0.815241 18.6232 1.12067 19.0357C1.42611 19.4483 1.9072 19.7364 2.47584 19.8477C3.04424 19.9587 3.63264 19.8793 4.13113 19.624C4.55814 19.4053 4.87557 19.0799 5.0443 18.6945L8.6554 18.5226L6.84422 21.1268C6.37527 21.0804 5.90395 21.1605 5.49019 21.3592C5.47202 21.3679 5.45342 21.3769 5.43574 21.3863C4.93682 21.6418 4.58705 22.0424 4.44988 22.5147C4.31314 22.9868 4.40562 23.4742 4.71106 23.8867C5.01649 24.2993 5.49759 24.5874 6.06623 24.6987C6.63589 24.8091 7.22489 24.7289 7.72212 24.4742C8.22103 24.2187 8.5708 23.8181 8.70797 23.3458C8.84471 22.8737 8.75223 22.3863 8.44679 21.9738C8.20423 21.6461 7.85075 21.3974 7.43048 21.253L9.35264 18.4887L13.9925 18.2677C14.1539 18.26 14.2776 18.1451 14.2691 18.0118C14.2607 17.8778 14.1228 17.7758 13.962 17.7836L13.9618 17.7833ZM3.82654 19.211C3.45918 19.3987 3.03 19.4566 2.61343 19.3752C2.19687 19.2938 1.84402 19.0826 1.62001 18.78C1.39624 18.4779 1.32804 18.1205 1.42832 17.7745C1.5286 17.4285 1.78511 17.1347 2.15054 16.9476C2.16407 16.9411 2.17693 16.9344 2.19003 16.9281C2.93935 16.5682 3.90305 16.7656 4.35708 17.3785C4.58085 17.6807 4.64904 18.038 4.54877 18.384C4.54667 18.3916 4.54408 18.3984 4.54199 18.4059C4.54223 18.4063 4.54163 18.407 4.54145 18.4076C4.43631 18.7433 4.18376 19.0282 3.82654 19.211ZM8.13957 23.2348C8.03929 23.5808 7.78278 23.8746 7.41735 24.0618C7.40382 24.0683 7.39096 24.0749 7.37786 24.0812C6.62854 24.4412 5.66484 24.2437 5.21081 23.6308C4.98704 23.3286 4.91885 22.9713 5.01912 22.6253C5.1194 22.2793 5.37592 21.9855 5.74135 21.7983C6.10002 21.6144 6.52062 21.5554 6.92949 21.6298C6.93082 21.6301 6.93257 21.6302 6.9339 21.6305C6.94097 21.6317 6.94738 21.6328 6.95446 21.6341C7.37102 21.7155 7.72387 21.9268 7.94788 22.2293C8.17165 22.5315 8.23985 22.8888 8.13957 23.2348Z" fill="#622FF8"/>
<defs>
<clipPath id="clip0_437_4518">
<rect width="15.7931" height="24.8178" fill="white" transform="translate(7.32617)"/>
</clipPath>
</defs>
</svg>
