<svg width="22" height="21" viewBox="0 0 22 21" fill="none" xmlns="http://www.w3.org/2000/svg">
<g clip-path="url(#clip0_437_4524)">
<path d="M18.5629 18.625H3.40905C2.5879 18.625 1.91992 17.9799 1.91992 17.1867V2.39306C1.91992 1.07333 3.03001 0 4.3942 0H17.5783C18.9419 0 20.0508 1.07333 20.0508 2.39306V17.1867C20.0508 17.9799 19.3834 18.625 18.5629 18.625ZM4.3942 0.52301C3.32796 0.52301 2.45995 1.36215 2.45995 2.39306V17.1867C2.45995 17.6917 2.88525 18.1019 3.40845 18.1019H18.5623C19.0849 18.1019 19.5096 17.6911 19.5096 17.1867V2.39306C19.5096 1.36215 18.6428 0.52301 17.5777 0.52301H4.3942ZM15.9018 16.7479C15.0746 16.7479 14.4012 16.0971 14.4012 15.2975C14.4012 14.4978 15.074 13.8481 15.9018 13.8481C16.7296 13.8481 17.3999 14.4984 17.3999 15.2975C17.3999 16.0965 16.7278 16.7479 15.9018 16.7479ZM15.9018 14.3717C15.3726 14.3717 14.9419 14.7872 14.9419 15.298C14.9419 15.8088 15.3726 16.2255 15.9018 16.2255C16.431 16.2255 16.8593 15.8094 16.8593 15.298C16.8593 14.7866 16.4298 14.3717 15.9018 14.3717ZM6.07015 16.7479C5.24419 16.7479 4.57201 16.0971 4.57201 15.2975C4.57201 14.4978 5.24419 13.8481 6.07015 13.8481C6.89611 13.8481 7.5695 14.4984 7.5695 15.2975C7.5695 16.0965 6.89671 16.7479 6.07015 16.7479ZM6.07015 14.3717C5.54214 14.3717 5.11264 14.7872 5.11264 15.298C5.11264 15.8088 5.54214 16.2255 6.07015 16.2255C6.59817 16.2255 7.02887 15.8094 7.02887 15.298C7.02887 14.7866 6.59877 14.3717 6.07015 14.3717ZM17.5663 12.0856H4.40441C3.95209 12.0856 3.58386 11.7294 3.58386 11.2918V4.45662C3.58386 4.01904 3.95209 3.66281 4.40441 3.66281H17.5663C18.0187 3.66281 18.3869 4.01904 18.3869 4.45662V11.2918C18.3869 11.7294 18.0187 12.0856 17.5663 12.0856ZM4.40441 4.1864C4.25003 4.1864 4.12449 4.30786 4.12449 4.4572V11.2924C4.12449 11.4417 4.25003 11.5632 4.40441 11.5632H17.5663C17.7207 11.5632 17.8463 11.4417 17.8463 11.2924V4.4572C17.8463 4.30786 17.7207 4.1864 17.5663 4.1864H4.40441Z" fill="#5E2AF8"/>
<path d="M6.07041 16.7494C5.24445 16.7494 4.57227 16.0986 4.57227 15.2989C4.57227 14.4993 5.24445 13.8496 6.07041 13.8496C6.89637 13.8496 7.56975 14.4999 7.56975 15.2989C7.56975 16.098 6.89697 16.7494 6.07041 16.7494ZM6.07041 14.372C5.54239 14.372 5.11289 14.7875 5.11289 15.2983C5.11289 15.8092 5.54239 16.2258 6.07041 16.2258C6.59842 16.2258 7.02912 15.8097 7.02912 15.2983C7.02912 14.787 6.59902 14.372 6.07041 14.372Z" fill="#5E2AF8"/>
<path d="M15.9017 16.7494C15.0745 16.7494 14.4023 16.0986 14.4023 15.2989C14.4023 14.4993 15.0751 13.8496 15.9017 13.8496C16.7282 13.8496 17.3998 14.4999 17.3998 15.2989C17.3998 16.098 16.7276 16.7494 15.9017 16.7494ZM15.9017 14.372C15.3731 14.372 14.943 14.7875 14.943 15.2983C14.943 15.8092 15.3731 16.2258 15.9017 16.2258C16.4303 16.2258 16.8592 15.8097 16.8592 15.2983C16.8592 14.787 16.4297 14.372 15.9017 14.372Z" fill="#5E2AF8"/>
<path d="M15.646 3.12075H6.84399C6.38746 3.12075 6.01562 2.76278 6.01562 2.32287V1.96257C6.02043 1.52441 6.39226 1.16992 6.84399 1.16992H15.646C16.0966 1.16992 16.4672 1.52383 16.472 1.95967V2.32287C16.472 2.76278 16.1014 3.12075 15.646 3.12075ZM6.84399 1.69293C6.68721 1.69293 6.55806 1.81497 6.55625 1.96548V2.32287C6.55625 2.47454 6.6854 2.59774 6.84399 2.59774H15.646C15.8034 2.59774 15.9314 2.47454 15.9314 2.32287V1.96432C15.929 1.81497 15.801 1.69293 15.646 1.69293H6.84399Z" fill="#5E2AF8"/>
<path d="M17.5665 12.0849H4.40454C3.95221 12.0849 3.58398 11.7287 3.58398 11.2911V4.45592C3.58398 4.01834 3.95221 3.66211 4.40454 3.66211H17.5665C18.0188 3.66211 18.387 4.01834 18.387 4.45592V11.2911C18.387 11.7287 18.0188 12.0849 17.5665 12.0849ZM4.40454 4.1857C4.25016 4.1857 4.12461 4.30715 4.12461 4.4565V11.2917C4.12461 11.441 4.25016 11.5625 4.40454 11.5625H17.5665C17.7208 11.5625 17.8464 11.441 17.8464 11.2917V4.4565C17.8464 4.30715 17.7208 4.1857 17.5665 4.1857H4.40454Z" fill="#5E2AF8"/>
<path d="M2.18895 9.23184H1.04281C0.467945 9.23184 0 8.77914 0 8.22301V5.40922C0 4.85308 0.467945 4.40039 1.04281 4.40039H2.18895C2.33852 4.40039 2.45926 4.5172 2.45926 4.6619V8.97033C2.45926 9.11503 2.33852 9.23184 2.18895 9.23184ZM1.04281 4.9234C0.765891 4.9234 0.540629 5.14132 0.540629 5.40922V8.22301C0.540629 8.49091 0.765891 8.70883 1.04281 8.70883H1.91863V4.9234H1.04281Z" fill="#5E2AF8"/>
<path d="M20.9575 9.23184H19.8113C19.6618 9.23184 19.541 9.11503 19.541 8.97033V4.6619C19.541 4.5172 19.6618 4.40039 19.8113 4.40039H20.9575C21.5323 4.40039 22.0003 4.85308 22.0003 5.40922V8.22301C22.0003 8.77914 21.5323 9.23184 20.9575 9.23184ZM20.0816 8.70883H20.9575C21.2344 8.70883 21.4596 8.49091 21.4596 8.22301V5.40922C21.4596 5.14132 21.2344 4.9234 20.9575 4.9234H20.0816V8.70883Z" fill="#5E2AF8"/>
<path d="M5.63319 20.999H4.04915C3.50311 20.999 3.05859 20.569 3.05859 20.0408V18.3631C3.05859 18.2184 3.17933 18.1016 3.32891 18.1016H6.35343C6.503 18.1016 6.62374 18.2184 6.62374 18.3631V20.0408C6.62374 20.569 6.17923 20.999 5.63319 20.999ZM3.59922 18.6246V20.0408C3.59922 20.2808 3.80106 20.476 4.04915 20.476H5.63319C5.88128 20.476 6.08311 20.2808 6.08311 20.0408V18.6246H3.59922Z" fill="#5E2AF8"/>
<path d="M17.9203 20.999H16.3363C15.7902 20.999 15.3457 20.569 15.3457 20.0408V18.3631C15.3457 18.2184 15.4664 18.1016 15.616 18.1016H18.6405C18.7901 18.1016 18.9109 18.2184 18.9109 18.3631V20.0408C18.9109 20.569 18.4663 20.999 17.9203 20.999ZM15.8863 18.6246V20.0408C15.8863 20.2808 16.0882 20.476 16.3363 20.476H17.9203C18.1684 20.476 18.3702 20.2808 18.3702 20.0408V18.6246H15.8863Z" fill="#5E2AF8"/>
</g>
<defs>
<clipPath id="clip0_437_4524">
<rect width="22" height="21" fill="white"/>
</clipPath>
</defs>
</svg>
