<svg width="20" height="20" viewBox="0 0 20 20" fill="none" xmlns="http://www.w3.org/2000/svg">
<g clip-path="url(#clip0_437_4548)">
<path d="M4.62364 19.3812H0.412119C0.184419 19.3812 0 19.199 0 18.974V8.37796C0 8.15294 0.184419 7.9707 0.412119 7.9707H4.62458C4.85228 7.9707 5.0367 8.15294 5.0367 8.37796V18.974C5.0367 19.199 4.85228 19.3812 4.62458 19.3812H4.62364ZM0.823297 18.5676H4.21246V8.78521H0.823297V18.5676Z" fill="#5E2AF8"/>
<path d="M19.0015 10.6211C19.4475 10.2399 19.7307 9.67736 19.7307 9.05068V9.02092C19.7307 7.87634 18.7888 6.94561 17.6306 6.94561H12.4386C12.8592 5.33612 12.5892 3.47745 12.2683 2.53092C12.2617 2.51139 12.2542 2.4928 12.2448 2.4742C11.5128 1.06462 10.6763 0.248259 9.75889 0.046492C9.06544 -0.105995 8.49337 0.15063 8.26379 0.326362C8.15088 0.412833 8.0916 0.551373 8.10665 0.691773C8.10948 0.713159 8.33624 2.84798 8.18287 4.33101C7.72464 5.25244 6.71411 7.25802 5.60007 8.159C5.35073 8.36076 4.96778 8.55137 4.49262 8.70851C4.27715 8.7801 4.16047 9.01069 4.23292 9.22362C4.30537 9.43747 4.53872 9.55277 4.75419 9.48024C5.15125 9.34914 5.7111 9.12227 6.12227 8.78847C7.24854 7.87634 8.18569 6.17201 8.95347 4.62483C8.97417 4.58299 8.98735 4.53743 8.99299 4.49094C9.13695 3.22455 9.01087 1.53696 8.95159 0.880523C9.09461 0.828454 9.31384 0.783823 9.57918 0.842401C10.0346 0.942819 10.7365 1.36681 11.4968 2.82009C11.8007 3.74059 12.0632 5.71083 11.4968 7.19944C11.2361 7.75639 10.4937 9.2543 10.0779 9.7378C9.93014 9.90888 9.95178 10.1655 10.1249 10.3115C10.2021 10.3766 10.2971 10.4082 10.3912 10.4082C10.5079 10.4082 10.6236 10.3598 10.7054 10.265C11.1731 9.72106 11.8694 8.32264 12.1403 7.76104H17.6324C18.3362 7.76104 18.9093 8.32636 18.9093 9.02278V9.05254C18.9093 9.74803 18.3362 10.3133 17.6324 10.3133C17.4047 10.3133 17.2203 10.4956 17.2203 10.7206C17.2203 10.9456 17.4047 11.1278 17.6324 11.1278H17.9015C18.6053 11.1278 19.1774 11.695 19.1774 12.3914V12.424C19.1774 13.1195 18.6044 13.6848 17.9015 13.6848H17.13C16.9023 13.6848 16.7179 13.867 16.7179 14.0921C16.7179 14.3171 16.9023 14.4993 17.13 14.4993C17.655 14.4993 18.0822 14.9233 18.0822 15.47C18.0822 15.9888 17.655 16.411 17.13 16.411H15.7826C15.5549 16.411 15.3705 16.5932 15.3705 16.8182C15.3705 17.0432 15.5549 17.2255 15.7826 17.2255C16.3076 17.2255 16.7348 17.6476 16.7348 18.1664V18.2501C16.7348 18.768 16.3076 19.1883 15.7826 19.1883H8.21015C8.19604 19.1883 6.79785 19.1762 5.38742 18.3589C5.22747 18.265 5.04493 18.1664 4.81158 18.0502C4.60835 17.9489 4.36089 18.0279 4.25833 18.2287C4.15577 18.4296 4.23669 18.6741 4.43898 18.7755C4.65539 18.8842 4.82288 18.9735 4.96872 19.059C6.57767 19.9907 8.14429 20.0019 8.21015 20.0019H15.7826C16.7621 20.0019 17.559 19.2162 17.559 18.2501V18.1664C17.559 17.8178 17.4555 17.4933 17.2777 17.2199C18.1885 17.1455 18.9064 16.3887 18.9064 15.444C18.9064 15.0516 18.7766 14.6899 18.5564 14.397C19.3948 14.1246 20.0016 13.3436 20.0016 12.4249V12.3924C20.0016 11.6467 19.6018 10.9902 19.0033 10.6248L19.0015 10.6211Z" fill="#5E2AF8"/>
</g>
<defs>
<clipPath id="clip0_437_4548">
<rect width="20" height="20" fill="white"/>
</clipPath>
</defs>
</svg>
