<svg width="24" height="21" viewBox="0 0 24 21" fill="none" xmlns="http://www.w3.org/2000/svg">
<g clip-path="url(#clip0_437_4516)">
<path d="M23.6705 5.92888H7.90909L6.76136 0.260237C6.72727 0.113147 6.60227 0 6.44318 0H0.318182C0.136364 0 0 0.147091 0 0.31681C0 0.48653 0.147727 0.633621 0.318182 0.633621H6.17045L9.01136 14.6185V20.6832C9.01136 20.8642 9.15909 21 9.32955 21H17.8636C18.0455 21 18.1818 20.8529 18.1818 20.6832C18.1818 20.5135 18.0341 20.3664 17.8636 20.3664H9.64773V14.9127H18.4318C18.5455 14.9127 18.6477 14.8561 18.7045 14.7656L23.9318 6.42672C23.9886 6.32489 24 6.20043 23.9318 6.0986C23.875 5.99677 23.7727 5.92888 23.6477 5.92888H23.6705ZM18.0341 8.57651H13.6818V6.57381H18.0341V8.57651ZM18.0341 11.7899H13.6818V9.22144H18.0341V11.7899ZM13.0455 6.57381V8.57651H8.45455L8.04545 6.57381H13.0455ZM13.0455 9.22144V11.7899H9.27273C9.21591 11.7899 9.15909 11.8125 9.11364 11.8351L8.57955 9.22144H13.0455ZM9.60227 14.2678L9.22727 12.4122C9.22727 12.4122 9.26136 12.4122 9.27273 12.4122H13.0455V14.1999C13.0455 14.1999 13.0455 14.2452 13.0568 14.2565H9.60227V14.2678ZM13.6818 14.2112V12.4235H18.0341V14.2678H13.6705C13.6705 14.2678 13.6818 14.2338 13.6818 14.2112ZM18.6818 13.6115V12.4235H19.4318L18.6818 13.6115ZM19.8295 11.7899H18.6818V9.22144H21.4432L19.8295 11.7899ZM21.8295 8.58782C21.8295 8.58782 21.8068 8.58782 21.7841 8.58782H18.6705V6.58513H23.0909L21.8295 8.59914V8.58782Z" fill="#5E2AF8"/>
</g>
<defs>
<clipPath id="clip0_437_4516">
<rect width="24" height="21" fill="white"/>
</clipPath>
</defs>
</svg>
