<svg width="605" height="705" viewBox="0 0 605 705" fill="none" xmlns="http://www.w3.org/2000/svg">
<g opacity="0.3">
<path d="M393.556 255.019H391.746C391.746 256.232 391.746 257.464 391.872 258.641L393.683 258.514C393.611 257.373 393.556 256.196 393.556 255.019ZM394.081 262.01L392.271 262.263C392.452 263.459 392.687 264.672 392.959 265.886L394.769 265.487C394.48 264.31 394.262 263.151 394.081 262.01ZM395.639 268.82L393.937 269.363C394.299 270.504 394.715 271.664 395.15 272.787L396.815 272.135C396.381 271.048 396.001 269.871 395.639 268.82ZM398.228 275.34L396.634 276.119C397.16 277.188 397.739 278.275 398.355 279.325L399.894 278.419C399.296 277.405 398.735 276.373 398.228 275.304V275.34ZM401.849 281.372L400.382 282.404C401.07 283.382 401.795 284.378 402.555 285.302L403.949 284.179C403.135 283.274 402.428 282.332 401.777 281.372H401.849ZM406.249 286.805L404.945 288.037C405.778 288.906 406.647 289.848 407.534 290.573L408.748 289.269C407.824 288.49 406.973 287.675 406.176 286.823L406.249 286.805ZM411.355 291.605L410.25 293.018C411.192 293.761 412.188 294.485 413.184 295.155L414.179 293.67C413.22 292.945 412.26 292.257 411.355 291.605ZM417.167 295.499L416.28 297.057C417.33 297.655 418.416 298.216 419.521 298.723L420.227 297.039C419.213 296.532 418.163 296.006 417.167 295.427V295.499ZM423.504 298.47L422.87 300.136C423.993 300.571 425.152 300.951 426.311 301.295L426.818 299.574C425.659 299.176 424.591 298.85 423.504 298.397V298.47ZM430.204 300.444L429.841 302.255C431.018 302.509 432.231 302.726 433.463 302.889L433.698 301.078C432.503 300.806 431.344 300.661 430.204 300.371V300.444ZM437.138 301.386L437.048 303.197C438.007 303.197 439.003 303.197 439.909 303.197H440.651V301.386H439.909H437.138ZM597.778 301.386H594.156V303.197H597.778V301.386ZM590.626 301.386H587.004V303.197H590.626V301.386ZM583.492 301.386H579.87V303.197H583.492V301.386ZM576.358 301.386H572.737V303.197H576.358V301.386ZM569.206 301.386H565.585V303.197H569.206V301.386ZM562.072 301.386H558.451V303.197H562.072V301.386ZM554.829 301.386H551.208V303.197H554.829V301.386ZM547.695 301.386H544.074V303.197H547.695V301.386ZM540.543 301.386H536.922V303.197H540.543V301.386ZM533.41 301.386H529.788V303.197H533.41V301.386ZM526.276 301.386H522.654V303.197H526.276V301.386ZM519.033 301.386H515.412V303.197H519.033V301.386ZM511.899 301.386H508.278V303.197H511.899V301.386ZM504.747 301.386H501.126V303.197H504.747V301.386ZM497.613 301.386H493.992V303.197H497.613V301.386ZM490.371 301.386H486.75V303.197H490.371V301.386ZM483.237 301.386H479.616V303.197H483.237V301.386ZM476.103 301.386H472.482V303.197H476.103V301.386ZM468.951 301.386H465.33V303.197H468.951V301.386ZM461.817 301.386H458.196V303.197H461.817V301.386ZM454.575 301.386H450.953V303.197H454.575V301.386ZM447.441 301.386H443.82V303.197H447.441V301.386Z" fill="white"/>
<path d="M439.908 30.791C427.149 30.8054 414.916 35.8821 405.894 44.9074C396.871 53.9327 391.796 66.1694 391.782 78.9331V255.019H393.592V78.8787C393.471 72.7138 394.579 66.5865 396.854 60.8554C399.128 55.1243 402.522 49.9045 406.837 45.5015C411.153 41.0985 416.303 37.6008 421.986 35.213C427.669 32.8252 433.771 31.5953 439.936 31.5953C446.1 31.5953 452.202 32.8252 457.885 35.213C463.568 37.6008 468.718 41.0985 473.034 45.5015C477.349 49.9045 480.743 55.1243 483.018 60.8554C485.292 66.5865 486.401 72.7138 486.279 78.8787V406.491H488.089V78.8787C488.061 66.1151 482.972 53.8841 473.939 44.869C464.907 35.8539 452.668 30.791 439.908 30.791Z" fill="white"/>
<path d="M323.014 273.783H321.203V277.406H323.014V273.783ZM323.014 280.919H321.203V284.542H323.014V280.919ZM323.014 288.056H321.203V291.678H323.014V288.056ZM323.014 295.3H321.203V298.923H323.014V295.3ZM323.014 302.437H321.203V306.059H323.014V302.437ZM323.014 309.681H321.203V313.304H323.014V309.681ZM323.014 316.818H321.203V320.44H323.014V316.818ZM323.014 323.954H321.203V327.576H323.014V323.954ZM323.014 331.199H321.203V334.821H323.014V331.199ZM323.014 338.335H321.203V341.957H323.014V338.335ZM323.014 345.58H321.203V349.202H323.014V345.58ZM323.014 352.716H321.203V356.338H323.014V352.716ZM323.014 359.961H321.203V363.583H323.014V359.961ZM323.014 367.097H321.203V370.719H323.014V367.097ZM323.014 374.233H321.203V377.856H323.014V374.233ZM323.014 381.478H321.203V385.1H323.014V381.478ZM323.014 388.614H321.203V392.237H323.014V388.614ZM323.014 395.859H321.203V399.481H323.014V395.859ZM323.014 402.995H321.203V406.618H323.014V402.995ZM486.206 409.86C486.206 411.055 486.098 412.214 486.007 413.392L487.818 413.518C487.908 412.341 487.963 411.128 488.017 409.896L486.206 409.86ZM323.068 410.113H321.258C321.258 411.327 321.366 412.522 321.457 413.736L323.267 413.591C323.177 411.834 323.104 410.657 323.068 409.479V410.113ZM485.663 416.905C485.536 418.083 485.373 419.242 485.174 420.401L486.985 420.691C487.184 419.514 487.347 418.318 487.492 417.068L485.663 416.905ZM323.629 417.141L321.819 417.358C321.964 418.572 322.127 419.749 322.326 420.981L324.136 420.673C323.937 418.861 323.774 417.684 323.629 416.579V417.141ZM484.54 423.879C484.287 425.038 484.033 426.179 483.744 427.32L485.464 427.754C485.754 426.595 486.025 425.418 486.279 424.241L484.54 423.879ZM324.788 424.114L322.978 424.476C323.231 425.672 323.503 426.831 323.811 427.99L325.621 427.555C325.295 425.78 325.024 424.639 324.788 423.48V424.114ZM482.784 430.725C482.458 431.848 482.078 432.971 481.698 434.076L483.382 434.673C483.78 433.532 484.16 432.391 484.504 431.232L482.784 430.725ZM326.545 430.96L324.843 431.467C325.187 432.627 325.567 433.786 325.965 434.909L327.649 434.311C327.251 432.572 326.889 431.449 326.545 430.326V430.96ZM480.448 437.39C480.014 438.477 479.543 439.564 479.072 440.632L480.702 441.357C481.191 440.27 481.662 439.165 482.096 438.042L480.448 437.39ZM328.88 437.626L327.233 438.296C327.685 439.419 328.156 440.524 328.645 441.628L330.275 440.886C329.804 439.183 329.351 438.097 328.898 436.992L328.88 437.626ZM477.551 443.802C477.026 444.852 476.465 445.903 475.904 446.917L477.461 447.787C478.04 446.754 478.602 445.686 479.145 444.617L477.551 443.802ZM331.814 444.074L330.22 444.87C330.763 445.957 331.343 447.008 331.922 448.058L333.479 447.189C332.918 445.559 332.375 444.49 331.832 443.44L331.814 444.074ZM474.111 449.96C473.496 450.956 472.844 451.952 472.192 452.93L473.677 453.927C474.347 452.93 474.998 451.934 475.632 450.902L474.111 449.96ZM335.29 450.232L333.769 451.173C334.403 452.206 335.073 453.202 335.743 454.198L337.227 453.184C336.576 451.59 335.924 450.594 335.308 449.598L335.29 450.232ZM470.146 455.81C469.434 456.752 468.709 457.676 467.973 458.581L469.367 459.704C470.128 458.781 470.87 457.893 471.576 456.861L470.146 455.81ZM339.273 456.064L337.843 457.132C338.567 458.092 339.31 459.052 340.07 459.976L341.464 458.835C340.722 457.295 339.998 456.426 339.291 455.43L339.273 456.064ZM465.692 461.28C464.913 462.168 464.116 463.091 463.302 463.87L464.587 465.102C465.42 464.25 466.235 463.291 467.032 462.457L465.692 461.28ZM343.764 461.534L342.424 462.711C343.221 463.617 344.053 464.522 344.886 465.355L346.172 464.106C345.357 462.638 344.56 461.86 343.782 460.9L343.764 461.534ZM460.785 466.351C459.934 467.167 459.065 467.963 458.178 468.724L459.355 470.083C460.26 469.286 461.165 468.471 462.016 467.656L460.785 466.351ZM348.689 466.587L347.457 467.891C348.345 468.706 349.268 469.521 350.137 470.3L351.314 468.941C350.427 467.547 349.612 466.768 348.707 465.953L348.689 466.587ZM455.516 470.988C454.593 471.731 453.705 472.437 452.71 473.144L453.76 474.574C454.737 473.868 455.697 473.144 456.639 472.383L455.516 470.988ZM354.121 471.205L353.016 472.6C353.958 473.343 354.917 474.067 355.877 474.774L356.855 472.727C355.913 472.002 355.044 471.296 354.048 470.572L354.121 471.205ZM449.776 474.538C448.799 475.19 447.803 475.794 446.789 476.349L447.712 477.871C448.744 477.255 449.758 476.603 450.754 475.933L449.776 474.538ZM359.77 474.719L358.774 476.204C359.788 476.875 360.802 477.509 361.834 478.124L362.739 476.603C361.743 475.969 360.747 475.353 359.77 474.701V474.719ZM443.765 478.161C442.733 478.722 441.701 479.265 440.633 479.791L441.429 481.403C442.498 480.859 443.584 480.316 444.634 479.736L443.765 478.161ZM365.908 478.306L365.057 479.881C366.107 480.443 367.175 481.004 368.262 481.529L369.04 479.917C367.881 479.428 366.849 478.885 365.817 478.324L365.908 478.306ZM437.464 481.276C436.378 481.765 435.291 482.2 434.187 482.634L434.839 484.301C435.961 483.866 437.084 483.395 438.188 482.924L437.464 481.276ZM372.281 481.403L371.575 483.033C372.68 483.504 373.784 483.956 374.907 484.391L375.54 482.725C374.309 482.326 373.15 481.874 372.136 481.421L372.281 481.403ZM430.928 483.848C429.805 484.21 428.682 484.572 427.542 484.898L428.049 486.619C429.208 486.275 430.348 485.913 431.489 485.532L430.928 483.848ZM378.872 483.848L378.311 485.532C379.451 485.913 380.592 486.275 381.751 486.619L382.24 484.808C380.972 484.663 379.832 484.301 378.727 483.938L378.872 483.848ZM424.138 485.659C422.997 485.931 421.856 486.184 420.698 486.42L421.042 488.231C422.218 487.995 423.395 487.742 424.554 487.452L424.138 485.659ZM385.662 485.659L385.245 487.47C386.404 487.76 387.581 488.014 388.758 488.249L389.102 486.438C387.798 486.402 386.658 486.148 385.517 485.876L385.662 485.659ZM417.221 486.981C416.062 487.162 414.885 487.307 413.708 487.434L413.908 489.245C415.103 489.118 416.298 488.955 417.529 488.774L417.221 486.981ZM392.578 486.981L392.325 488.792C393.502 488.974 394.697 489.137 395.946 489.263L396.127 487.452C394.769 487.561 393.592 487.398 392.434 487.217L392.578 486.981ZM410.196 487.706C408.989 487.778 407.812 487.832 406.665 487.869V489.68C407.878 489.68 409.073 489.68 410.286 489.517L410.196 487.706ZM399.604 487.706L399.495 489.517C400.69 489.517 401.885 489.644 403.116 489.68V487.869C401.813 488.104 400.636 488.05 399.459 487.977L399.604 487.706Z" fill="white"/>
<path d="M144.468 24.4336H144.051V26.2448H144.468C145.5 26.2448 146.55 26.2448 147.582 26.2448L147.672 24.4336C146.604 24.4698 145.536 24.4336 144.468 24.4336ZM140.484 24.4336H136.863V26.2448H140.484V24.4336ZM133.35 24.4336H129.729V26.2448H133.35V24.4336ZM126.198 24.4336H122.577V26.2448H126.198V24.4336ZM119.064 24.4336H115.443V26.2448H119.064V24.4336ZM111.912 24.4336H108.291V26.2448H111.912V24.4336ZM104.778 24.4336H101.157V26.2448H104.778V24.4336ZM97.6446 24.4336H94.0233V26.2448H97.6446V24.4336ZM90.4926 24.4336H86.8714V26.2448H90.4926V24.4336ZM83.3587 24.4336H79.7375V26.2448H83.3587V24.4336ZM76.2067 24.4336H75.8627C74.7582 24.4336 73.6718 24.4336 72.6036 24.5242L72.6941 26.3354C73.7442 26.3354 74.7944 26.3354 75.8627 26.3354H76.2067V24.4336ZM151.276 24.7959L151.076 26.6071C152.253 26.752 153.43 26.915 154.571 27.0961L154.861 25.2849C153.684 25.1037 152.489 24.9408 151.276 24.7959ZM68.9823 24.7959C67.7873 24.9226 66.5742 25.0857 65.361 25.303L65.6688 27.1142C66.8095 26.915 67.9865 26.752 69.1452 26.6252L68.9823 24.7959ZM158.409 25.9913L158.011 27.8025C159.152 28.0742 160.292 28.3639 161.415 28.69L161.922 26.9874C160.763 26.5889 159.496 26.281 158.409 26.0093V25.9913ZM61.8484 25.9913C60.6896 26.2629 59.5127 26.5709 58.3539 26.8969L58.8427 28.6175C59.9834 28.2915 61.1242 27.9836 62.2467 27.73L61.8484 25.9913ZM165.362 28.0198L164.765 29.6862C165.869 30.0846 166.956 30.5193 168.024 30.9721L168.73 29.3239C167.62 28.8771 166.497 28.4545 165.362 28.056V28.0198ZM54.9137 28.0198C53.7729 28.4364 52.6323 28.8892 51.5278 29.3601L52.2339 30.9902C53.3022 30.5374 54.4067 30.1027 55.5112 29.7042L54.9137 28.0198ZM172.007 30.8453L171.229 32.4392C172.279 32.9644 173.311 33.5259 174.325 34.1055L175.212 32.5479C174.162 31.9864 173.094 31.4249 172.007 30.8815V30.8453ZM48.2324 30.8453C47.1641 31.3706 46.0959 31.9502 45.0457 32.5479L45.9329 34.1055C46.9469 33.5259 47.997 32.9644 49.0291 32.4392L48.2324 30.8453ZM178.29 34.4677L177.312 35.971C178.29 36.6049 179.268 37.2751 180.209 37.9815L181.26 36.5325C180.3 35.8262 179.304 35.1379 178.29 34.4134V34.4677ZM41.9495 34.4677C40.9537 35.1198 39.9397 35.8262 38.9801 36.5325L40.0484 37.9815C40.9899 37.2812 41.9495 36.611 42.9273 35.971L41.9495 34.4677ZM184.12 38.7241L182.962 40.1006C183.867 40.8432 184.772 41.6221 185.605 42.419L186.818 41.1149C185.949 40.3542 185.026 39.5391 184.12 38.7784V38.7241ZM36.1374 38.7241C35.214 39.5029 34.3268 40.3179 33.4214 41.133L34.6346 42.4371C35.4856 41.6401 36.4452 40.8432 37.2781 40.1006L36.1374 38.7241ZM189.389 43.6143L188.104 44.846C188.9 45.6792 189.697 46.5666 190.458 47.4722L191.816 46.3131C191.037 45.498 190.277 44.5925 189.389 43.7231V43.6143ZM30.8504 43.6143C30.0175 44.4837 29.2208 45.4256 28.4422 46.3131L29.8002 47.4722C30.5607 46.5847 31.3393 45.6611 32.154 44.846L30.8504 43.6143ZM194.079 49.048L192.648 50.1347C193.355 51.0584 194.025 51.9459 194.676 53.0146L196.161 52.0184C195.491 51.2215 194.803 50.2253 194.079 49.2472V49.048ZM26.1971 49.1386C25.4728 50.0985 24.7667 51.0947 24.1148 52.0909L25.5995 53.0689C26.2332 52.1089 26.9213 51.1309 27.6275 50.2072L26.1971 49.1386ZM198.08 55.0975L196.541 56.0031C197.121 56.9993 197.682 58.0498 198.207 59.1003L199.801 58.2852C199.33 57.4158 198.678 56.3291 198.08 55.2967V55.0975ZM22.1956 55.0975C21.5981 56.1299 21.0186 57.1985 20.4754 58.2852L22.0688 59.0821C22.5939 58.0497 23.1552 56.9992 23.7527 55.985L22.1956 55.0975ZM201.358 61.4911L199.71 62.2155C200.181 63.2842 200.615 64.389 201.014 65.4757L202.697 64.8599C202.281 64.0086 201.828 62.8676 201.358 61.7627V61.4911ZM18.9364 61.4911C18.4656 62.5778 18.013 63.7188 17.6147 64.8418L19.2804 65.4576C19.6788 64.3588 20.1133 63.2721 20.5841 62.1974L18.9364 61.4911ZM203.838 68.2469L202.136 68.754C202.462 69.877 202.77 71.018 203.042 72.141L204.852 71.7425C204.508 70.9093 204.182 69.7321 203.838 68.591V68.2469ZM16.4558 68.2469C16.1118 69.406 15.804 70.5833 15.5324 71.7425L17.343 72.1591C17.5965 71.018 17.9043 69.877 18.2483 68.754L16.4558 68.2469ZM205.504 75.2382L203.693 75.5642C203.893 76.7053 204.074 77.8826 204.2 79.0417L206.011 78.8244C205.902 78.0274 205.721 76.8139 205.504 75.6185V75.2382ZM14.79 75.2382C14.5909 76.4155 14.4098 77.629 14.2831 78.8606L16.0937 79.0598C16.2204 77.9006 16.4015 76.7234 16.6007 75.5823L14.79 75.2382ZM206.355 82.483H204.544C204.617 83.6905 204.653 84.898 204.653 86.1055H206.464C206.446 85.2361 206.409 84.0226 206.355 82.8272V82.483ZM13.9753 82.483C13.9028 83.6905 13.8666 84.898 13.8666 86.1055H15.6773C15.6773 84.9101 15.6773 83.7328 15.7678 82.5917L13.9753 82.483ZM15.7859 89.6192L13.9753 89.7279C13.9753 90.9233 14.1563 92.1368 14.2831 93.3503L16.0937 93.1511C15.9307 92.3722 15.8221 91.1587 15.7497 89.9996L15.7859 89.6192ZM16.6007 96.6105L14.79 96.9184C15.0073 98.0957 15.2608 99.2911 15.5324 100.541L17.343 100.124C17.0171 99.2911 16.7817 98.1319 16.5645 96.9908L16.6007 96.6105ZM18.2303 103.439L16.5283 103.964C16.8723 105.123 17.2525 106.282 17.669 107.405L19.3529 106.79C18.9183 106.083 18.5381 104.942 18.2665 103.819L18.2303 103.439ZM20.6203 110.484L18.9907 111.191C19.4615 112.296 19.9866 113.4 20.5298 114.469L22.1231 113.672C21.598 112.585 21.091 111.517 20.6203 110.484ZM23.807 116.769L22.2679 117.657C22.8655 118.707 23.5173 119.74 24.1872 120.736L25.672 119.758C25.0201 118.744 24.3864 117.729 23.807 116.733V116.769ZM27.6998 122.62L26.2695 123.688C26.9937 124.666 27.7542 125.626 28.5328 126.532L29.8907 125.373C29.1303 124.449 28.406 123.525 27.6998 122.583V122.62ZM32.2446 128.053L30.959 129.285C31.7738 130.154 32.6429 131.005 33.5301 131.839L34.7432 130.516C33.8922 129.629 33.0412 128.796 32.2446 127.963V128.053ZM37.3867 132.853L36.246 134.229C37.1695 135.008 38.0567 135.751 39.0887 136.457L40.1389 135.026C39.2155 134.248 38.2921 133.505 37.3867 132.762V132.853ZM43.0359 137.019L42.0582 138.522C43.0722 139.174 44.1042 139.808 45.1544 140.333L46.0416 138.794C45.0276 138.196 44.0137 137.653 43.0359 136.928V137.019ZM49.0472 140.424L48.2505 142.018C49.3188 142.561 50.4233 143.068 51.5278 143.539L52.2339 141.891C51.2562 141.438 50.1879 140.931 49.0472 140.424ZM55.6017 143.086L54.9861 144.771C56.1268 145.187 57.2856 145.568 58.4444 145.894L58.9333 144.173C57.8288 143.919 56.7062 143.557 55.6017 143.086ZM62.3373 145.06L61.9389 146.872C63.1158 147.143 64.3109 147.397 65.5602 147.578L65.868 145.767C64.6368 145.64 63.5323 145.405 62.3373 145.133V145.06ZM69.272 146.238L69.0728 148.049C70.2678 148.176 71.481 148.266 72.6941 148.339L72.7846 146.528C71.6077 146.528 70.4308 146.437 69.272 146.31V146.238ZM194.206 146.582H190.584V148.393H194.206V146.582ZM187.072 146.582H183.45V148.393H187.072V146.582ZM179.938 146.582H176.317V148.393H179.938V146.582ZM172.786 146.582H169.165V148.393H172.786V146.582ZM165.652 146.582H162.031V148.393H165.652V146.582ZM158.5 146.582H154.879V148.393H158.5V146.582ZM151.366 146.582H147.745V148.393H151.366V146.582ZM144.124 146.582H140.502V148.393H144.124V146.582ZM136.99 146.582H133.368V148.393H136.99V146.582ZM129.856 146.582H126.234V148.393H129.856V146.582ZM122.704 146.582H119.082V148.393H122.704V146.582ZM115.57 146.582H111.949V148.393H115.57V146.582ZM108.418 146.582H104.797V148.393H108.418V146.582ZM101.284 146.582H97.6627V148.393H101.284V146.582ZM94.132 146.582H90.5107V148.393H94.132V146.582ZM86.9981 146.582H83.3768V148.393H86.9981V146.582ZM79.8642 146.582H76.2429V148.393H79.8642V146.582ZM197.7 146.582V148.393H201.321V146.582H197.7ZM204.943 146.582V148.393H205.631V146.582H204.943Z" fill="white"/>
<path d="M206.445 86.4492H204.635V300.172C204.635 325.915 194.412 350.603 176.215 368.806C158.018 387.009 133.337 397.235 107.603 397.235C81.8684 397.235 57.188 387.009 38.991 368.806C20.794 350.603 10.5711 325.915 10.5711 300.172H8.76045C8.76045 326.386 19.1704 351.526 37.7001 370.061C56.2299 388.597 81.3616 399.01 107.567 399.01C133.772 399.01 158.903 388.597 177.433 370.061C195.963 351.526 206.373 326.386 206.373 300.172L206.445 86.4492Z" fill="white"/>
<path d="M-44.3453 188.964C-45.5584 188.964 -46.7896 188.964 -47.9666 189.109L-47.8217 190.92C-46.681 190.92 -45.486 190.775 -44.3091 190.757L-44.3453 188.964ZM-40.724 188.964L-40.8327 190.775C-39.6739 190.775 -38.497 190.938 -37.3201 191.083L-37.1209 189.272C-38.2978 189.217 -39.5109 189.109 -40.706 189.036L-40.724 188.964ZM-51.5878 189.435C-52.7647 189.598 -53.9779 189.815 -55.2091 190.069L-54.8289 191.88C-53.6882 191.626 -52.5113 191.427 -51.3706 191.264L-51.5878 189.435ZM-33.4815 189.851L-33.8255 191.663C-32.6848 191.88 -31.526 192.152 -30.3853 192.441L-29.9327 190.721C-31.1277 190.431 -32.3227 190.177 -33.4996 189.924L-33.4815 189.851ZM-58.6855 190.938C-59.8443 191.282 -61.0031 191.645 -62.1438 192.061L-61.5463 193.727C-60.4418 193.347 -59.3193 192.985 -58.1967 192.659L-58.6855 190.938ZM-26.4563 191.699L-27.0176 193.401C-25.9131 193.764 -24.8086 194.18 -23.7222 194.633L-23.0523 192.985C-24.1749 192.586 -25.3337 192.17 -26.4744 191.771L-26.4563 191.699ZM-65.5116 193.383C-66.6161 193.872 -67.7206 194.398 -68.7888 194.959L-67.9741 196.535C-66.942 196.01 -65.8737 195.502 -64.8055 195.031L-65.5116 193.383ZM-19.7388 194.488L-20.5174 196.082C-19.4854 196.589 -18.4351 197.151 -17.4212 197.748L-16.5159 196.209C-17.5842 195.611 -18.6705 195.086 -19.7569 194.561L-19.7388 194.488ZM-71.9574 196.734C-73.0076 197.368 -74.0216 198.038 -74.9993 198.708L-73.9854 200.175C-73.0258 199.523 -72.048 198.871 -71.034 198.255L-71.9574 196.734ZM-13.4378 198.129L-14.4337 199.614C-13.4559 200.266 -12.4963 200.954 -11.591 201.679L-10.4865 200.266C-11.4642 199.596 -12.5144 198.889 -13.4559 198.201L-13.4378 198.129ZM-77.9326 201.045C-78.856 201.805 -79.7432 202.602 -80.6847 203.417L-79.5078 204.667C-78.6387 203.87 -77.6972 203.091 -76.8462 202.367L-77.9326 201.045ZM-7.71623 202.729L-8.89313 204.069C-8.02402 204.848 -7.08249 205.663 -6.34013 206.478L-5.07272 205.229C-5.92372 204.305 -6.81091 203.454 -7.71623 202.657V202.729ZM-83.2739 205.971C-84.1068 206.841 -84.9215 207.782 -85.682 208.688L-84.306 209.829C-83.5636 208.923 -82.785 208.018 -81.9702 207.203L-83.2739 205.971ZM-2.61023 207.909L-3.95008 209.068C-3.18962 209.956 -2.44727 210.88 -1.75923 211.803L-0.328816 210.735C-1.05307 209.702 -1.81355 208.742 -2.61023 207.837V207.909ZM-87.9092 211.532C-88.6334 212.528 -89.3215 213.542 -89.9552 214.556L-88.4342 215.498C-87.8186 214.52 -87.1667 213.542 -86.4787 212.582L-87.9092 211.532ZM1.77152 213.723L0.268667 214.701C0.90239 215.679 1.518 216.675 2.0793 217.708L3.63647 216.82C3.05707 215.679 2.42335 214.629 1.77152 213.723ZM-91.7839 217.744C-92.3633 218.813 -92.9064 219.899 -93.3953 221.004L-91.7658 221.729C-91.2951 220.678 -90.7699 219.61 -90.2086 218.577L-91.7839 217.744ZM5.32035 220.044L3.70886 220.823C4.21584 221.874 4.6866 222.96 5.12115 224.047L6.78696 223.377C6.3343 222.163 5.84543 221.059 5.32035 219.954V220.044ZM-94.7895 224.373C-95.206 225.496 -95.6044 226.655 -95.9484 227.814L-94.2464 228.322C-93.9024 227.199 -93.5221 226.076 -93.1238 224.989L-94.7895 224.373ZM8.00005 226.8L6.31617 227.344C6.66019 228.466 6.98611 229.608 7.27581 230.731L8.99593 230.296C8.70623 229.046 8.38028 227.869 8.00005 226.71V226.8ZM-96.8898 231.328C-97.1433 232.505 -97.3787 233.701 -97.5779 234.951L-95.7672 235.24C-95.5862 234.081 -95.3689 232.922 -95.0973 231.781L-96.8898 231.328ZM9.75636 233.864L7.94573 234.172C8.16301 235.313 8.32596 236.49 8.45271 237.649L10.2633 237.45C10.1547 236.164 9.97364 234.951 9.75636 233.773V233.864ZM-98.0124 238.501C-98.121 239.708 -98.1936 240.916 -98.2298 242.123H-96.4192C-96.4192 240.964 -96.3285 239.768 -96.2199 238.609L-98.0124 238.501ZM10.6255 241.073L8.81486 241.163C8.81486 241.924 8.81486 242.703 8.81486 243.5V244.695H10.6255V243.5C10.6074 242.594 10.5893 241.779 10.553 240.982L10.6255 241.073ZM-96.3829 245.745H-98.1935V249.368H-96.3829V245.745ZM10.6074 248.136H8.79673V251.759H10.6074V248.136ZM-96.4553 252.773H-98.2659V256.395H-96.4553V252.773ZM10.6074 255.381H8.79673V259.004H10.6074V255.381ZM-96.4553 260H-98.2659V263.622H-96.4553V260ZM10.6074 262.535H8.79673V266.158H10.6074V262.535ZM-96.4553 267.154H-98.2659V270.776H-96.4553V267.154ZM10.6074 269.69H8.79673V273.312H10.6074V269.69ZM-96.4553 274.308H-98.2659V277.931H-96.4553V274.308ZM10.6074 276.844H8.79673V280.466H10.6074V276.844ZM-96.4553 281.463H-98.2659V285.085H-96.4553V281.463ZM10.6074 283.998H8.79673V287.621H10.6074V283.998ZM-96.4553 288.617H-98.2659V292.239H-96.4553V288.617ZM10.6074 291.153H8.79673V294.775H10.6074V291.153ZM-96.4553 295.771H-98.2659V299.394H-96.4553V295.771ZM-96.4553 303.016H-98.2659V306.638H-96.4553V303.016ZM-96.4553 310.261H-98.2659V313.883H-96.4553V310.261ZM-96.4553 317.415H-98.2659V321.038H-96.4553V317.415ZM-96.4553 324.66H-98.2659V328.282H-96.4553V324.66ZM-96.4553 331.814H-98.2659V335.437H-96.4553V331.814ZM-96.4553 339.059H-98.2659V342.682H-96.4553V339.059ZM-96.4553 346.304H-98.2659V349.927H-96.4553V346.304ZM-96.4553 353.458H-98.2659V357.081H-96.4553V353.458ZM-96.4553 360.703H-98.2659V364.326H-96.4553V360.703ZM-96.4553 367.948H-98.2659V371.571H-96.4553V367.948ZM-96.4553 375.193H-98.2659V378.815H-96.4553V375.193ZM-96.4553 382.438H-98.2659V386.06H-96.4553V382.438ZM-96.4553 389.592H-98.2659V393.214H-96.4553V389.592ZM-96.4553 396.837H-98.2659V400.459H-96.4553V396.837ZM-96.4553 403.991H-98.2659V407.614H-96.4553V403.991ZM-96.4553 411.236H-98.2659V414.859H-96.4553V411.236ZM-96.4553 418.481H-98.2659V422.103H-96.4553V418.481ZM-96.4553 425.726H-98.2659V429.348H-96.4553V425.726ZM-96.4553 432.971H-98.2659V436.593H-96.4553V432.971ZM-96.4553 440.125H-98.2659V443.747H-96.4553V440.125ZM-96.4553 447.37H-98.2659V450.992H-96.4553V447.37ZM-96.4553 454.615H-98.2659V458.237H-96.4553V454.615ZM-96.4553 461.769H-98.2659V465.391H-96.4553V461.769ZM-96.4553 469.014H-98.2659V472.636H-96.4553V469.014Z" fill="white"/>
<path d="M8.81491 298.38H10.6074V300.173H8.81491V298.38Z" fill="white"/>
<path d="M55.5834 432.464H-10.9392C-23.4247 432.464 -35.3987 437.425 -44.2273 446.257C-53.0558 455.088 -58.0157 467.066 -58.0157 479.555H-56.205C-56.205 467.546 -51.436 456.029 -42.947 447.537C-34.458 439.046 -22.9445 434.275 -10.9392 434.275H55.5834C61.7208 433.95 67.8602 434.878 73.6273 437.004C79.3943 439.129 84.6682 442.407 89.1276 446.638C93.5869 450.869 97.1383 455.964 99.5652 461.612C101.992 467.26 103.244 473.344 103.244 479.492C103.244 485.64 101.992 491.724 99.5652 497.372C97.1383 503.02 93.5869 508.115 89.1276 512.346C84.6682 516.577 79.3943 519.855 73.6273 521.98C67.8602 524.106 61.7208 525.034 55.5834 524.709H-48.2201C-61.0085 524.695 -73.269 519.606 -82.3117 510.561C-91.3545 501.515 -96.441 489.251 -96.4554 476.458H-98.266C-98.2516 489.726 -92.9762 502.447 -83.5973 511.829C-74.2184 521.211 -61.502 526.488 -48.2383 526.502H55.5834C67.5688 525.796 78.8316 520.535 87.0678 511.797C95.304 503.058 99.8914 491.502 99.8914 479.492C99.8914 467.482 95.304 455.926 87.0678 447.187C78.8316 438.449 67.5688 433.188 55.5834 432.482V432.464Z" fill="white"/>
<path d="M228.119 246.688H226.308V250.31H228.119V246.688ZM228.119 253.824H226.308V257.446H228.119V253.824ZM228.119 260.978H226.308V264.6H228.119V260.978ZM228.119 268.114H226.308V271.737H228.119V268.114ZM228.119 275.25H226.308V278.873H228.119V275.25ZM228.119 282.405H226.308V286.027H228.119V282.405ZM228.119 289.541H226.308V293.163H228.119V289.541ZM228.119 296.695H226.308V300.318H228.119V296.695ZM228.119 303.831H226.308V307.454H228.119V303.831ZM228.119 311.076H226.308V314.699H228.119V311.076ZM228.119 318.212H226.308V321.835H228.119V318.212ZM228.119 325.349H226.308V328.971H228.119V325.349ZM228.119 332.503H226.308V336.125H228.119V332.503ZM228.119 339.639H226.308V343.261H228.119V339.639ZM228.119 346.793H226.308V350.416H228.119V346.793ZM228.119 353.929H226.308V357.552H228.119V353.929ZM228.119 361.084H226.308V364.706H228.119V361.084ZM228.119 368.22H226.308V371.842H228.119V368.22ZM228.119 375.356H226.308V378.979H228.119V375.356ZM228.119 382.51H226.308V386.133H228.119V382.51ZM228.119 389.647H226.308V393.269H228.119V389.647ZM228.119 396.801H226.308V400.423H228.119V396.801ZM228.119 403.937H226.308V407.56H228.119V403.937ZM228.119 411.073H226.308V414.696H228.119V411.073ZM228.119 418.318H226.308V421.941H228.119V418.318ZM228.119 425.454H226.308V429.077H228.119V425.454ZM228.119 432.699H226.308V436.322H228.119V432.699ZM228.119 439.835H226.308V443.458H228.119V439.835ZM228.119 446.99H226.308V450.612H228.119V446.99ZM228.119 454.126H226.308V457.748H228.119V454.126ZM228.119 461.262H226.308V464.884H228.119V461.262ZM228.119 468.507H226.308V472.129H228.119V468.507ZM228.119 475.643H226.308V479.265H228.119V475.643ZM228.119 482.888H226.308V486.51H228.119V482.888ZM228.119 490.024H226.308V493.647H228.119V490.024ZM228.119 497.16H226.308V500.783H228.119V497.16ZM228.119 504.405H226.308V508.028H228.119V504.405ZM228.119 511.541H226.308V515.164H228.119V511.541ZM228.119 518.786H226.308V522.409H228.119V518.786ZM228.119 525.922H226.308V529.545H228.119V525.922ZM228.119 533.167H226.308V536.79H228.119V533.167ZM228.119 540.303H226.308V543.926H228.119V540.303ZM228.119 547.44H226.308V551.062H228.119V547.44ZM228.119 554.594H226.308V558.216H228.119V554.594ZM228.119 561.73H226.308V565.353H228.119V561.73ZM228.119 568.975H226.308V572.597H228.119V568.975ZM228.119 576.111H226.308V579.734H228.119V576.111ZM228.119 583.356H226.308V586.978H228.119V583.356ZM228.119 590.492H226.308V594.115H228.119V590.492Z" fill="white"/>
<path d="M288.956 0C279.924 0.00957919 271.265 3.60147 264.877 9.98804C258.49 16.3746 254.894 25.0346 254.88 34.0689V131.874H256.69V34.0689C256.69 25.504 260.092 17.29 266.146 11.2337C272.2 5.17741 280.412 1.77501 288.974 1.77501C297.536 1.77501 305.748 5.17741 311.802 11.2337C317.856 17.29 321.258 25.504 321.258 34.0689V180.252C321.248 188.812 317.843 197.019 311.79 203.07C305.737 209.122 297.532 212.523 288.974 212.528H260.42C251.386 212.537 242.724 216.132 236.335 222.522C229.947 228.913 226.354 237.577 226.344 246.615H228.155C228.164 238.053 231.569 229.844 237.621 223.79C243.673 217.736 251.879 214.331 260.438 214.321H288.956C297.986 214.311 306.643 210.719 313.028 204.332C319.413 197.945 323.004 189.285 323.014 180.252V34.1414C323.019 29.6626 322.141 25.2268 320.432 21.0871C318.723 16.9475 316.216 13.1851 313.054 10.0148C309.891 6.84447 306.135 4.32832 302 2.60998C297.866 0.891638 293.433 0.00475452 288.956 0Z" fill="white"/>
<path d="M400.31 260.181C400.31 258.748 399.885 257.348 399.089 256.156C398.293 254.965 397.162 254.036 395.839 253.488C394.515 252.94 393.059 252.796 391.654 253.076C390.249 253.355 388.959 254.045 387.946 255.058C386.933 256.072 386.243 257.363 385.964 258.768C385.684 260.173 385.828 261.63 386.376 262.954C386.924 264.278 387.853 265.409 389.044 266.205C390.235 267.001 391.635 267.426 393.067 267.426C394.988 267.426 396.83 266.663 398.189 265.304C399.547 263.946 400.31 262.103 400.31 260.181Z" fill="white"/>
<path d="M493.576 302.183C493.579 300.813 493.176 299.473 492.418 298.332C491.659 297.192 490.579 296.302 489.314 295.776C488.05 295.25 486.658 295.112 485.314 295.378C483.971 295.645 482.737 296.304 481.768 297.273C480.8 298.241 480.141 299.476 479.874 300.82C479.608 302.163 479.747 303.556 480.272 304.821C480.798 306.086 481.687 307.166 482.828 307.925C483.968 308.684 485.308 309.087 486.677 309.084C488.505 309.079 490.257 308.35 491.55 307.057C492.843 305.764 493.571 304.012 493.576 302.183Z" fill="white"/>
<path d="M604.676 302.183C604.68 300.813 604.277 299.473 603.518 298.332C602.759 297.192 601.679 296.302 600.415 295.776C599.15 295.25 597.758 295.112 596.414 295.378C595.071 295.645 593.837 296.304 592.869 297.273C591.9 298.241 591.241 299.476 590.975 300.82C590.709 302.163 590.847 303.556 591.373 304.821C591.899 306.086 592.788 307.166 593.928 307.925C595.068 308.684 596.408 309.087 597.777 309.084C599.606 309.079 601.358 308.35 602.65 307.057C603.943 305.764 604.671 304.012 604.676 302.183Z" fill="white"/>
<path d="M487.329 408.211C484.389 408.211 482.006 405.827 482.006 402.886C482.006 399.946 484.389 397.562 487.329 397.562C490.269 397.562 492.652 399.946 492.652 402.886C492.652 405.827 490.269 408.211 487.329 408.211Z" fill="white"/>
<path d="M322.272 278.148C319.332 278.148 316.948 275.764 316.948 272.823C316.948 269.882 319.332 267.498 322.272 267.498C325.211 267.498 327.595 269.882 327.595 272.823C327.595 275.764 325.211 278.148 322.272 278.148Z" fill="white"/>
<path d="M261.235 132.019C261.239 130.961 260.928 129.926 260.343 129.044C259.757 128.163 258.923 127.475 257.946 127.068C256.97 126.662 255.894 126.554 254.856 126.76C253.819 126.966 252.865 127.475 252.117 128.223C251.369 128.971 250.86 129.925 250.654 130.963C250.449 132.001 250.556 133.077 250.963 134.054C251.369 135.031 252.057 135.866 252.938 136.451C253.819 137.037 254.854 137.348 255.912 137.344C257.322 137.34 258.674 136.777 259.671 135.779C260.668 134.782 261.231 133.43 261.235 132.019Z" fill="white"/>
<path d="M227.231 258.424C223.421 258.424 220.333 255.335 220.333 251.524C220.333 247.713 223.421 244.623 227.231 244.623C231.041 244.623 234.13 247.713 234.13 251.524C234.13 255.335 231.041 258.424 227.231 258.424Z" fill="white"/>
<path d="M205.558 155.764C200.898 155.764 197.121 151.985 197.121 147.324C197.121 142.663 200.898 138.884 205.558 138.884C210.218 138.884 213.996 142.663 213.996 147.324C213.996 151.985 210.218 155.764 205.558 155.764Z" fill="white"/>
<path d="M205.558 88.1337C201.828 88.1337 198.805 85.109 198.805 81.3779C198.805 77.6467 201.828 74.6221 205.558 74.6221C209.288 74.6221 212.312 77.6467 212.312 81.3779C212.312 85.109 209.288 88.1337 205.558 88.1337Z" fill="white"/>
<path d="M16.6186 296.804C16.6186 295.439 16.2141 294.105 15.456 292.97C14.698 291.835 13.6206 290.951 12.3601 290.429C11.0996 289.906 9.71248 289.77 8.3743 290.036C7.03612 290.302 5.80694 290.959 4.84217 291.924C3.87739 292.89 3.22036 294.119 2.95417 295.458C2.68799 296.796 2.82458 298.184 3.34671 299.445C3.86885 300.706 4.75305 301.784 5.8875 302.542C7.02196 303.3 8.35573 303.705 9.72012 303.705C10.6267 303.707 11.5249 303.53 12.3629 303.184C13.201 302.838 13.9624 302.33 14.6034 301.689C15.2445 301.048 15.7526 300.286 16.0984 299.448C16.4442 298.609 16.621 297.711 16.6186 296.804Z" fill="white"/>
<path d="M227.231 601.649C223.421 601.649 220.333 598.56 220.333 594.748C220.333 590.937 223.421 587.848 227.231 587.848C231.041 587.848 234.13 590.937 234.13 594.748C234.13 598.56 231.041 601.649 227.231 601.649Z" fill="white"/>
</g>
</svg>
