<svg width="20" height="20" viewBox="0 0 20 20" fill="none" xmlns="http://www.w3.org/2000/svg">
<path d="M10.5 11C7.467 11 5 8.533 5 5.5C5 2.467 7.467 0 10.5 0C13.533 0 16 2.467 16 5.5C16 8.533 13.533 11 10.5 11ZM10.5 1C8.019 1 6 3.019 6 5.5C6 7.981 8.019 10 10.5 10C12.981 10 15 7.981 15 5.5C15 3.019 12.981 1 10.5 1Z" fill="#459179"/>
<path d="M18.5 20H2.5C1.673 20 1 19.327 1 18.5C1 18.432 1.014 16.815 2.225 15.2C2.93 14.26 3.895 13.513 5.094 12.981C6.558 12.33 8.377 12 10.5 12C12.623 12 14.442 12.33 15.906 12.981C17.105 13.514 18.07 14.26 18.775 15.2C19.986 16.815 20 18.432 20 18.5C20 19.327 19.327 20 18.5 20ZM10.5 13C7.013 13 4.44 13.953 3.059 15.756C2.024 17.107 2.001 18.488 2 18.502C2 18.776 2.224 19 2.5 19H18.5C18.776 19 19 18.776 19 18.5C19 18.488 18.977 17.107 17.941 15.756C16.559 13.953 13.986 13 10.5 13Z" fill="#459179"/>
</svg>
