<svg width="38" height="39" viewBox="0 0 38 39" fill="none" xmlns="http://www.w3.org/2000/svg">
<path d="M18.9864 38.847C29.4724 38.847 37.9729 30.1508 37.9729 19.4235C37.9729 8.69619 29.4724 0 18.9864 0C8.50051 0 0 8.69619 0 19.4235C0 30.1508 8.50051 38.847 18.9864 38.847Z" fill="white" fill-opacity="0.5"/>
<path d="M30.043 28.6667C27.3788 25.1167 24.7157 21.5656 22.0538 18.0135C21.6644 18.4269 21.277 18.8377 20.89 19.2511C23.4944 22.725 26.0995 26.1986 28.7052 29.6719C28.7551 29.7368 28.8004 29.7986 28.8483 29.8634H25.4842L19.0886 21.1717C18.6992 21.585 18.3098 22.0009 17.9228 22.4142C19.4592 24.4974 20.9938 26.5816 22.5265 28.6667C23.2315 29.6224 23.9355 30.5781 24.6386 31.5337H32.1935C31.4741 30.5781 30.7573 29.6224 30.043 28.6667ZM10.6218 9.67282H13.7061L16.3054 13.1356C17.4831 14.7053 18.6609 16.2757 19.839 17.847C20.2259 17.4336 20.6128 17.0228 21.0002 16.6094C18.8473 13.7408 16.6946 10.871 14.5423 8H7.3125C9.34848 10.7673 11.3836 13.5332 13.4179 16.2978C14.5744 17.8654 15.7291 19.4327 16.8823 20.9997C17.2692 20.5868 17.6569 20.1736 18.0455 19.7601L10.6218 9.67282Z" fill="black"/>
<path d="M19.0887 21.1713C18.6993 21.5847 18.3099 22.0005 17.923 22.4139C15.9661 24.497 14.0094 26.5812 12.0529 28.6664C11.1554 29.622 10.2579 30.5777 9.3604 31.5334H7C7.89749 30.5777 8.79498 29.622 9.69248 28.6664C10.937 27.3368 12.1825 26.0083 13.429 24.681C14.5801 23.4534 15.7318 22.2262 16.8839 20.9993C17.2708 20.5865 17.6585 20.1733 18.0471 19.7598L19.0887 21.1713Z" fill="black"/>
<path d="M31.4499 8L22.0537 18.0135C21.6643 18.4269 21.2768 18.8377 20.8899 19.2511C20.5416 18.7857 20.1912 18.3182 19.8389 17.8485C20.2258 17.4351 20.6127 17.0243 21.0001 16.6109C23.6926 13.7413 26.3851 10.8711 29.0775 8.0005L31.4499 8Z" fill="black"/>
</svg>
